<svg width="190" height="56" viewBox="0 0 190 56" fill="none" xmlns="http://www.w3.org/2000/svg"><g clip-path="url(#clip0_27_35037)" fill="#100F12"><path d="M114.7 15.5l-.1-.1c.1.1.1.2.1.1zm9.3.6c-.1-.1-.2-.2-.5-.3.133.133.3.233.5.3zm-38.2-4.6h-.7c.4.1.6.1.7 0zm19.5 3.7a.887.887 0 00-.4-.1c.133.067.267.1.4.1zm47.2 2.8c-.2-.1-.4-.1-.6-.1.1.2.3.2.6.1zm-7.9-1.6c0-.066 0-.066 0 0zm7.3 1.5a5.228 5.228 0 00-.5-.8c-.2 0-.9.6-1.6.6.2 1 1.6.4 2.1.2zm-37.1-2.5c.4.1 0 .1 0 0zm4.4 0c-.133-.066-.3-.1-.5-.1.2.1.3.1.5.1zm15.6 3.4c0-.067-.033-.1-.1-.1 0 .1.1.1.1.1zm-16.1-3.5c-.1-.1-.2-.1-.3-.1.133 0 .233.034.3.1zM33.2 34.1c.267.2.533.367.8.5.4-.2-.8-.8-1.1-.7.3 1.1.2.3.3.2zm39.5 3.1c-.1-.3-.3.3-.3.5a3.66 3.66 0 011.7 0c-.7-1-.1.1-1.4-.5zm-29.3.2c.133.067.233.133.3.2-.1-.2-.2-.2-.3-.2zM88.3 3.6c.2 0 .367-.033.5-.1-.2 0-.4 0-.5.1zM74.7 55.3c.267-.066.567-.1.9-.1.2-.8-2-.1-2-.1.333.067.7.133 1.1.2zm-16-4.3l-.2-.2c0 .067.067.134.2.2zm14.6-16.8l-.6-1.8c0 .4.2 1.7.6 1.8zM151 16l.9.5c.3-.2-.7-.9-.9-.5zm-3.9-.5c.3-.1 1.1.6 1.3 0-.5.5-1-.5-1.3 0zm2.2 6.3c-.5-.1-1.1-.8-1.4-.5.2.6.8.2 1.4.5zm-5.8-7c-.667.267-.9.7-.7 1.3.2-.6 1.8.1.5.2.467-.067.967-.1 1.5-.1-.667-.266-1.1-.733-1.3-1.4zm4.3 7.1c-.2-1-1.2-.4-.6-1.3-.3-.3-.1.6-.8.5.4.333.867.6 1.4.8zm-7.6-7.5c.6.1 1.8.6 2.5-.1-.867-.133-1.7-.1-2.5.1zm4.6 5.8a2.68 2.68 0 00-.7-.5c-.067.2-.133.434-.2.7-.3-.1 1.3-.5.9-.2zm-3.2-.2c-.333 0-.667.034-1 .1.1.1.8 1.6 1.1.7a1.128 1.128 0 01-.1-.8zm-2.7-.1a7.343 7.343 0 001.7-.6c-.5 0-1.1.3-1.7.6zm-13.9-8c.2-.3-.8-.9-.2-.4-.2.2.5.8.2.4zm2 5.8c-.4-.3-1.8-.1-2.4 0 .7 0 2.4.4 2.4 0zm-26-3.2c.533.2 1 .167 1.4-.1-5.7.3-1.4.4-1.4.1zm-5.4-1.2c.4-.1.7.1.7-.3-.1-.1-.8.1-.7.3zm-33.1-.8c0 .6.2.8.6.5-.2-.5-.4-.1-.6-.5zm1.2 4.7c.1.2.2.3.2.1 0 0-.2 0-.2-.1zm-.1.8c.5-.1.8.8 1-.5-.3-.3-.3.8-1 .5zm4.3 5.7c-.1-1-2.2-2.6-2.8-3 .1 2.5 2.2 1.6 2.8 3zm-1.4-2.8c-.1-.2.3-.8-.2-1-.4.1-.2.9.2 1zm.7 5.3l-.6-.4c.2.1.4.9.6.4zm.4 3.1c0 .4 1.3.8.6-.3 0 .2-.3.9-.6.3zm3.3 5.6c.2.267.367.567.5.9 0-.2-.1-1.2-.5-.9zm3-.4c.5-.5-.4-.9-.4-1.6.1.8 0 .7.4 1.6zm-3 2.3c-.3-.1-.3-.6-.3-.8-.3.2 0 .8.3.8zm1 1c-.467-.2-.933-.366-1.4-.5.333.4.7.733 1.1 1-.9 2.4.4 1 1.5 1.5-.3-.5-1.8-1.3-1.2-2zm1.1-2.4c.3.7-.1.4.5 1.2.7-.4-.4-.9-.5-1.2zm-2.1 18.8l-.8.4c.4 0 1.4.5.8-.4zm-.4-.3c-.7-.5-1.4-.1-1.4-.6-.4.134-.767.267-1.1.4.8.3 1.7 0 2.5.2zm-19.4-6.4c.067-.4.3-.566.7-.5h-3.2c.9.2 1.5-.1 2.5.5zM5 29.2c.1-.2 0-.4 0-.6-.8 0 .1.6 0 .6zm128.3 2.9h-.2c0 .5.1.1.2 0zm0 0l.2.1c-.067-.067-.133-.1-.2-.1zm.6.7c.4.3.8.1.8-.6-.2.5-.7 0-.8.6zm1.4-1.3a1.743 1.743 0 01-.5.9c.333.067.6.233.8.5.1.1-.1-1.1-.3-1.4zm18.1-5.9c0 .067.033.1.1.1l-.1-.1zm-2.9 1.8a1.175 1.175 0 01-.3-.2c.067.134.167.2.3.2zm12.2-4.6v-.1c-.067 0-.067.034 0 .1zm-22.2 9.4c.1 0 .2 0 .2-.1-.1-.1-.1-.1-.2.1zm.2-.1c.4.4.9-.1.7-.5-.6 0-.4-.1-.7.5zm12.7-6.3c0-.2-.1-.1 0 0zm-1.4.9h.1-.1zm.3 0h-.2c.1.1.1.1.2 0zm.8-21.7c.8 0-.6.1.3-.2 0 0-1.1.6-.3.2zm19.8 15.5H171c.467.467 1.1.467 1.9 0zM156.1 7.4c.067.067.1.134.1.2 0-.2 0-.2-.1-.2zm9.2 22.4l-.2.2c.133-.067.2-.133.2-.2z"/><path fill-rule="evenodd" clip-rule="evenodd" d="M142.6 1.2c.533.067 1.033 0 1.5-.2-.133.334-.333.6-.6.8a1.53 1.53 0 001.1-.7c.2-.1-.4 1.2-.4 1.3.6.4.6-1.2 1.3-1.1-.6.7-.1.9.5.9 0 .134-.033.334-.1.6.733-.066 1.433-.2 2.1-.4l-.4.8c.4-.2 2.9-.2 3.3.4-.2 0-1.6 1.8-1.6 1.9.2 0 2.3-.3 1.5-1 .2 0 1.2.3 1.8.1-.1.2 0 .3.4.2-.333.134-.633.3-.9.5.3 0 5 2 3.7 2.4 1 .5 5.3 3.2 4.3 4.4.1 0 .7-.5.7-.5 1.6.1 1.4 1.4 2.1 2.1 1.2-.9.8.4 1.7 0-.2.267-.433.467-.7.6.2.7 1-.8 1.3-.1-.3.4-.6.5-.4.8.5.7.4-.6.9-.5-.9 1.2 1.5.8 1.7 1-.267.133-.467.367-.6.7.1.9 1.3-.3 1.7-.1-.3.2-1.6 1.4-1.8 1.5 1.8-.3 4.4.4 6.1.6a7.43 7.43 0 01-1.3.3s2.7 0 2.7.5c-.8-.3-2.6.2-3.3.3.4.267.833.467 1.3.6l-1.6-.2c0 .3 1 .5.4.8-.1 0-.7 0-1.1.1.6.2 1.7.7 2 .8-.7 0-.8-.3-1.6.3.3.3 1.3.3 1.5.3.3 0 .9.2 1.5.2a3.32 3.32 0 00-.8.1c2.8.5 5.4 1.9 8.2 2.4-.067 0 0 .067.2.2-.9-.2-1.8-.1-2.7-.3 1.8 1 6.9 1.3 7.9 2.9-1.133-.4-2.3-.7-3.5-.9 1.5 1.1 3.9 1.4 5.6 1.9-1.7-.3-3.5-.4-5.8-1 2.2 1-.6.5 2.2 1.2-.4 0-.767-.033-1.1-.1l1.4.6a91.027 91.027 0 00-3.5-.9c.133.067.3.034.5-.1-.5-.4-3.1-.7-3.4-.8.7.2 1.7.6 2.6 1-1.3-.3-2.7-.4-3.9-.9.7 1.5-1.5.8-1.4.9.267 0 .5.1.7.3-3 .3-6.7 1.2-9.7.4 0 .267.133.367.4.3-.8 1.5-1.1-.4-1.9.4 0-.1 1-1.5-.1-1.4-.5 1.5-2.1 1.9-2.8 1.4-.267.067-.367.233-.3.5-.267-.267-.3-.6-.1-1-.467.534-.967.933-1.5 1.2-1.2-1.1-2.5.7-4-.4-.7 1.2-1.8.4-3.4.3-.2.3-.6.8-.8.7 0-.2-.033-.433-.1-.7-.267.467-.567.934-.9 1.4-.5-.8-1-1.3-1-1.7-.4.4-.4.8 0 1.2-2.5-2.1-.4-.3-1.1-.5.1 1.2-2.7 1.8-3.8 1.7.4-.333.767-.633 1.1-.9.2.3-.1-.7-.2-.6-.2.067-.267.233-.2.5-.1.2-.3-1.4-.5-1-.333.534-.267.733.2.6-.267.2-.433.433-.5.7-.3 0-.3-.6-.6-.5.133.4.033.667-.3.8 0-.2-1.3-1.1-1.5-1.2.6.4.6.8.2 1.2-.067 0-.1-.033-.1-.1 0 .067-.067.167-.2.3 0-.1-.8-1.2-1-1.2l.2.8c-.4-.4-1.9-.4-1.9-.5 0-.2.9-1 .4-1.8-.1.7-.9 1.6-.6 2.4-.267-.267-.5-.267-.7 0 0-.2-.067-.433-.2-.7a.883.883 0 00-.1.4c-.067-.066-.1-.166-.1-.3-.1.3-1.4 1-1.4 1 .1-.9 1-1.3.9-1.8-.6-.7-1.5 1.8-1.6 1.8.067-.267-.033-.466-.3-.6-.1.5.2.9-.5.9 0 0-.2-1.8.3-1.8-.2.334-.233.634-.1.9.6.6.6-2.3.6-2.3.2.067.367.034.5-.1.6 1.1-.3-.2.8.2-.267.267-.333.567-.2.9-.1-.5.8.1 1.3-.7-.2.7.5 1.1.5.8 0-.1.6-1-.1-1.3.3 0 .7.1.8-.3.5.3-.3.8.6.5.6-.2-.2-.7-.2-.8.2.134.3.067.3-.2 0 .1 1.6 1.8 1.8 1.9 0-.6.133-1.2.4-1.8 0 .2-.2 1 .3.6.2-.2-.7-1.8-.3-1.8.2.667.6 1.2 1.2 1.6.6-.466.667-1 .2-1.6.4.4 2.8.1 2.5 0 0 0 1.4-.3.7.3 1.3.6 1.7-1.4 3-2.1.7 1.4 1.3.7 2 .8l.7-.6c.7-.1.3.6 1 .9.067-.2.133-.3.2-.3-.6-.5.4-1.5.2-1.9.267 0 .367.167.3.5.5.1.3-1.3.3-1.4.4-.2.767-.133 1.1.2-.2 0-1.6 1.8-1.6 1.7-.067.267 0 .5.2.7.3-.9.7.5 1 .4-1.1-.8 2.1-1.4.8-2.4.1.6-.2.8-.5 1-.3-.9.4-.8.7-1.5 0 1 .9.4 1 .6.1.2-.3.6.4.9.3-.3.1-1.3 1.2-.8-.8 0-.1.9-.1.9 1-1.5 1.9-2.7 2-2.7.267.2.4.2.4 0h2.8c-.8-.2-1-.6-.8-.7a.887.887 0 00-.4.1c0-.067.033-.1.1-.1-.4.1-.9 0-1.2.1.1-.1.3-.6.1-.7-.5.2.2.3-1.2.3-.1.4-1 1.4-1.1 1.8-.4-.2-.833-.3-1.3-.3-.4-.7-.2 0-1.8-.7.333-.2.7-.333 1.1-.4-.8 0-2.6-.9-3.9-.6 1.9-1.3-.3-1.6-.9-1.2.2.134.367.267.5.4-.467-.2-.967-.233-1.5-.1-.133.534.067.9.6 1.1-.8-.3-4.3-1.3-4.3-.8.467-.067.7.133.7.6-.267-.266-.533-.333-.8-.2.7-.5-2-1-2.2-1-.3-.8 0-.2-1-.6.333-.6.233-1.1-.3-1.5a3.976 3.976 0 01-2.1 1.5c.1.4-1.2-2-1.2-.4 1 2 .6.1.9 1.6-.2-.9-3-3.2-4.5-1.9.267.267.367.567.3.9-1.5-1-6.1-1.5-6.5-1.7-.9-.3-1.1-.3-2-.8 0 .1-1.9.1-1.5-.5-.5-.2-.2.1-.5-.1-.2.1-1.6 0-1.6 0 .2.134.367.233.5.3-2.1-.1-3.8.4-5.7.3-.6-2.8-4.2-1.6-6.6-2-.3 0-3.8-2.3-4.2-1.7.667.534 1.333.967 2 1.3-.4 0-2.8.2-2.3.8-1.5-.1-3 .6-5-.5.2.1 5.2-.5 5.3-.6-.067-.2-.033-.333.1-.4-.6 0-2.4-1.6-2.5-1.6.6.4-.9.7.2.8-1.267.133-2.5.133-3.7 0 1.3.1-.7.6 0 1.1 0-.7 2.2-.1.6-.7h1.2c.1.6-1.4.2-.3 1-1.1.1-4-.3-4.7-1.2.267-.066.533-.1.8-.1-1.5-.4-3.1-.2-4.8-1 1.1.3.4-.7 1.4-.5-1.8-.8-3.1.8-4.9 1-1.3.2-2.6-.8-4-.3-.2 0 1.5-2-1.3-1.2.267.267.533.5.8.7-1.267 0-2.5-.233-3.7-.7.067-.133.167-.267.3-.4-1.7.2-7.9-.9-9.3-1.1-.6-.1-4.8-1.6-5.3-.9-.5.6 1 3.9 1.1 4.3 1.1 3.9 2.7 8.4 4 12.7 1 3.5 1.8 7.8 3 10.6.9 1.9 2.2 3.9 2.9 6.3.9 3.2 2.1 5.1-.6 8.3-.7.9-3.4 3.6-4.3 3.6 1-1.8-3.2.2-5.1-.5l.6-.2c-1.1-.3-2.4-1.3-3.5-.9.6-.267.7-.6.3-1-.5-.1-2.1.1-2.5-.6.133.467.233.933.3 1.4-1-.6-1.2.8-2.1.2.133-.2.233-.366.3-.5-3.9-1.7-7.2-1.6-11.2-3.1-1.7-.6-2-1.8-3.4-1.2-.2-.267-.4-.5-.6-.7.667 0 1.3-.1 1.9-.3-.9-.5-5.5-2.1-5.3-2.3-.6-.2-1.167-.133-1.7.2.9.4 1.3.2 2.1.3-.067.133-.033.233.1.3-1-.2-1.2.6-1.5.6-2.4-.1-5-1.8-7.1-2.8-2.2-1-4.3-1.6-6.7-2.3-1.3-.4-3-1.4-4.4-1.7-1.1-.2-9.8-.8-10.3-2.4.2 0 .367-.033.5-.1-1-.2-4.4-2.4-3.7-2.3-2.5-.4-5.1-.8-7.7-1.9C6.7 33 .2 29 2 28.5c-.867.067-1.633-.233-2.3-.9 1.2-.1 6.2 2.3 7.6 2a1.26 1.26 0 00-.3.5c1.1.3 1.1-1.2 1.9-1.1.3 0 .4 2.8 1.4 1.8.6-.6-1.1-1.7.8-1.4-.7 1.1 4.1 1.1 4.8 1.3-.2.2-2.9-.6-2 .7 1.1-1 2.9.3 4.1-.5-.1.4 1.4.9 1.9.8l-.6-.4c2.1 1.5 4.9 0 7.1 1 0 0-1 1.7-1.5 2-.6.5 3.2.2 3.2.2.067-.4 0-.666-.2-.8.8.267 1.667.367 2.6.3-1.3-.2 1.1-1.4 1.5-.9-.133.2-.3.4-.5.6.467.267.933.333 1.4.2-.3.9-1.4-.4-1.6.7 1.8.8 3.7 0 5.6.5 1.5.4.3.5 1.7 1.1 2.6 1.1 4.3 1.2 6.4 1.9 2.2.7 14.1 3.7 14.1 5.4 0-1 9.3 2 10.9 2.6-.6-.6.8-.1 1-.2-.2.4-.533.633-1 .7.5.4 2.2-.4 2.3-.2.333.6.2.834-.4.7.267.4.567.5.9.3-.2-.267-.233-.566-.1-.9.1.6.5.5.9 1-.1-.2 0-1.2.4-.4 0-.4-.1-.733-.3-1 .267.334.6.667 1 1 .267-.133.367-.333.3-.6a3.17 3.17 0 01-1.2-.9c.5.2 2.7 1.3 2.9 1.7-1.3-3.2-2.8-3.3-4.5-4.8.1-.6 1 .4 1.2 0a5.07 5.07 0 00-.1-1c-.6-.333-1-.166-1.2.5a3.111 3.111 0 00-.5-1.3c.5.6.8-1.2 1.3.3v-.7c.467.2.867.467 1.2.8a19.91 19.91 0 00-.9-2.1c.4.467.8.9 1.2 1.3-.333-.8-.433-1.6-.3-2.4.067.667.333 1.2.8 1.6.733-.533.9-1.2.5-2-.8-.4-.4.8-.2 1.1a.887.887 0 01-.4.1c0-1.1-1.8-3.2-1.5-4.2l.6 1c1.2-.5-.1-4.2-.8-3.7l.2.6c-.9 0 0-1.5-.9-1-.1.3-.8.6-.8 1.3.8.4 1.6 1.2 1.4 2.3-1 .2-.6-1.4-1.5-2 .3 1.1-.6.1-.5.7-.4-1.1-1.3-.6-1.7-1.8.333.133.633.267.9.4-.333-.933-.933-1.433-1.8-1.5a2.64 2.64 0 00.1-1.6c-.4-.9-.9-1.2-1.3-2 .667.134 1.133.534 1.4 1.2-.067-.2-.033-.233.1-.1-.067-.466-.2-.867-.4-1.2.9 1 3.5 2.9 2.9 4.4.667.067 1.133-.166 1.4-.7-2.5-2.2-3.4-4.6-4.9-6.7l.6.4c2.2-2.5-3-4.7-3.3-6.6.5-.6.9 1 1.3.1-.5-1.7-1.6-2.5-3-2.1v-.8c.2.2.4.434.6.7.133-.533.2-.933.2-1.2.067 0 .133-.033.2-.1 0-.267-.033-.5-.1-.7 0-.2-.033-.267-.1-.2-.5-1.4-1.8-2.9-2.5-4.3.1.3 0 .8 0 1.2-.4-1.2-1-1.8-1.1-2.5.9 1.3.4-1.6 1.4-1.2-.267.8-.1 1.434.5 1.9-.4-1.9 2.7-3.6-1.4-2.9-.4-1 2.1-1.1 2.4-1.8C63 5.2 66 .7 67.3.4c-.067.134-.167.3-.3.5.5-.4 1.7-.3 2.3-.5 1.8.3 6.7.7 7.7.9 2.9.6 5.6.9 8.1 2.3.267-.333.167-.5-.3-.5 1.6-.5 2.2.8 3.5.5-.4.4-1.5.1-1.7 1 .3-1 6.9 0 7.3.6.4.134.7 0 .9-.4.533.4.5.767-.1 1.1 4.8.4 8.8 1 14 2.2 1 .3 1.3.1 2.6.5 1.8.5 3.4 1.3 5.2 1.8 1.9.4 2-.1 1.3.7.7.1 3.9-1.4 3 .4l3.4-.8c.3.6-.1.1.5.8-.7.2.6.2-.4.5-.1.9 2 .9 1.5.4.267.267.233.5-.1.7 1.2.6 1.3-.6.7-1.2 3.5 2.6 8.7.1 13.5 2.2-1.133.067-2.3.1-3.5.1.2.067.367.1.5.1-.333 0-.667.1-1 .3.4 0 2.1.3 2.2.4-1.5-.1.3.5-.5.9.6 0 2.5.4.4-.6.2-.2 3.2-.1 4.1 0 .2.3 3 2.1 3.3 2.2a1.911 1.911 0 01-.8-1.1c.4.067.767 0 1.1-.2a1.569 1.569 0 00-.4.3c.533.2 1 .134 1.4-.2.6.267.567.467-.1.6 2.1.7.2.4 1.7 1.3v-1c.6.4 4.7 1.7 4.7 1.9-.2 0-3 .2-2.1 1.4 2.7-.7 2.4-1.7 4.8-.6.5-.1.7-.2.7-.2l.1.3c.4.2 1.1-.3 1.2-.4 0 .2 2.7.5 3.1.4-.7.6-3.6.9-3.6 1.1 1.2 1.3 4.3-.2 4.7-.9 0-.1.5.8.4.8.2-.133.367-.267.5-.4 0-.2-1.8-1.2-1.7-1.2.333-.2.5-.466.5-.8-.1-.1-.9.1-.8-.4-.4.6-1.2 1.9-1.4 1.2.133-.133.233-.266.3-.4-.5-.6-1.4-.8-1.6-1.8-.2-.4-2.9-1.5-3-1.4 0 0 .9-.7 1-.7-.5-1.2-1.4-1.8-2.2-1.6.2.2.6 0 .8.2-.133.067-.133.167 0 .3-1.5-.9.3 1.3-2.1-.5-1-.7-2-2.2-3-2.9-1-.9-.9-1.8-2.4-1.4.1.3-3.7-4-2.5-3.6-1.7-.6-3.1-1.7-3.4-3.5.9-.9.3-1.8.4-2.4 0 .5.9 1.4.9 1.5zM160.8 18v.2c.2-.4.3-.6 0-.2zm-23.3-2.1h.1-.1zM68.7.2s.8.1.6.2c-.333-.066-.533-.133-.6-.2zM68 26.7c.067.134.167.267.3.4-.2-.133-.3-.267-.3-.4zm7.3 11.8c0 .133-.033.167-.1.1 0-.067.033-.1.1-.1zm-47.9-5c.2 0 .367.067.5.2a3.878 3.878 0 01-.5-.2zm-9.2-2.8l-.2.2c0-.066.067-.133.2-.2zM7.6 29.4a1.163 1.163 0 01-.3.2c.067-.067.167-.133.3-.2zm11 7.9h-.3c.133.067.233.067.3 0zM86.4 11c-.133 0-.233.034-.3.1.2 0 .3-.033.3-.1zm24.4 3c-.067.067-.1.133-.1.2.067 0 .1-.066.1-.2zm17.4 2.7c.067 0 .067 0 0 0zm34.4 5.3c0 .067 0 .067 0 0zm.3.3c-.4-.1.2-.2.8-.3-.067 0-.1.034-.1.1 0-.1 0-.2-.7.2zm1.5-.5c-.133 0-.233.034-.3.1.2 0 .3-.1.3-.1zm-9.4 4.8c-.2 0-.3-.2-.3-.2.067.067.167.134.3.2zm-10.6 5.5c.067 0 .067 0 0 0zm8.6-1.7h.1c.2-.3.2-.5-.1 0zm30.1-1.4c-.6-.2-1.3-.4-2-.6.8.1 1.4.3 2 .6zm-1.7-4.2c-.267-.067-.5-.1-.7-.1.067 0 .3.034.7.1zm-7.6-2.5c.3-.1.6-.1.7-.4-.1 0-2.3-.4-2-.7 1.1 0 5 .6 5.9 1.2a9.976 9.976 0 01-1.5-.3 9.582 9.582 0 003.3.8c.3.3.5.6 2.3 1.5-.933-.2-1.9-.466-2.9-.8.067.067.067.1 0 .1.4.2 1.1.6 1.2.6-2.6-.2-4.6-1.9-7-2zm5.6 1.3c.067.067.133.1.2.1l-.2-.1zm-9.5-3c-.5 0-.9.1-.5.2.6 0 .6-.1.5-.2zM152.1 5.3c-.067 0-.067 0 0 0zm.9-1.1c0 .3-.2.4-.4.4.1-.1.3-.4.4-.4zm-6.4-1.9c.2 0 .333.034.4.1-.2.1-.3 0-.4-.1zm-4.5 13c-.067-.067 0-.067.2 0h-.2zm-78-1.7c.067.067.1.133.1.2 0 .133-.033.4-.1.8-.4 0-.1-1 0-1zm109.2 8.6c.2 0 .367.034.5.1-.133 0-.3-.033-.5-.1zm-1.5-.2c-.067-.067-.133-.1-.2-.1.2 0 .267.034.2.1zM146 2.2c.2-.4.3-.1.6.1-.2 0-.4-.033-.6-.1zm-22.6 13.7c.1.8 1.8.4 3.1.9-.1-.3-2.7-1.4-3.1-.9zm11 2.3l.1.1c.4-.3.2-.2-.1-.1zm12 9.6l-.1-.1c-.1.4 0 .3.1.1zm3.2-.4c-.1.1-.2.2 0 0zm0 0c.4.6 1.5-.5.5-.6 0 .1-.3.5-.5.6z"/><path d="M179.7 23.6c0 .067.067.133.2.2-.1-.1-.2-.1-.2-.2zm-43.2 6.8c-.6-.3-.9-1.8-1 .5.267-.266.6-.433 1-.5zm4.9 3l-.4-.1c0 .2.4.6.4.1zm1.4-.4c-.1.2-.5-.2-.4.3 0-.5.4.2.4-.3zm-1.5-4.7c-.2-.5-.4 0-.6-.1.2 0 .5.5.6.1zm2.6 3.1c-.9 1.3.1.1.2 1.4.5-2-.7-.8-.2-1.4zm1.2.8c-.267.2-.467.467-.6.8.8-.2 1-.467.6-.8zm-1.5-4.2c.1-.5.5-.5-.1-1-.133.334-.1.667.1 1zm.6.4c.067-.333.167-.666.3-1-.2.4-.2.7-.3 1zm6.6 2.7c0 .2.4.5.1.2.1-.2-.3-.5-.1-.2zm-1.9-4.5c.2.1.6-.3.8-.5-.2.1-.9.1-.8.5zm8.9-2.8l.6-.6c-.2.1-.6.4-.6.6zm2.3-.2c0 .1.2-.2.1-.3-.1.1-.2.1-.1.3zm24.9 4.9c.8.1.7 0-.5-.3-.4 0 .5.2.5.3zm3.3-.6l-1.4-.2c.9.3 1.9.4 2.8.6l-1.4-.4zm-3.9-1.6c.733.067 1.4.267 2 .6 0-.1-2.8-1-1.3-.8-1.6-.6-3.2-.5-4.7-1.2 0 .8 4.1.6 4 1.4zm-1.2 0c1.1.2.7 0-.1-.2 0 0-1.2-.1.1.2zm.6-1.3c-.5-.2-1-.5-1.4-.4l1.4.4zm-3.3-1.5c.1 0 .7-.1 1.2.1-.1-.3-1.9-.3-1.2-.1zm-4.8-2.3c-.4-.1-.7-.2-.9-.2.333.067.633.134.9.2zm-4.3.6c-.1-.2.1-.2-.3-.4-.8.2.4.2.3.4zm4.7-1c.5-.1-.1-.3-.6-.3.5.1.6.2.6.3zm-2.1-.6c.667.067 1.333.1 2 .1a4.8 4.8 0 00-1.7-.3c1.2-1.4-1.2-.4-2.1-.4-.1 0 2.5.3 1.8.6zm-2.2.6c-.8.2.7.4 1 .1a5.085 5.085 0 00-1-.1zm-11.1-1.3c0-.1.1-.1-.4.2.7.8.4-.1.4-.2zm-5.3-4.4c.9-1.1-.4-.4-.9-.4.2.1.8.2.9.4zM143.2.7c-.3 0-.2.5-.3.5.2-.2.2-.3.3-.5z"/></g><defs><clipPath id="clip0_27_35037"><path fill="#fff" transform="rotate(-90 28 28)" d="M0 0h56v190H0z"/></clipPath></defs></svg>