<svg width="205" height="214" viewBox="0 0 205 214" fill="none" xmlns="http://www.w3.org/2000/svg"><g clip-path="url(#clip0_28_35734)" fill="#100F12"><path d="M108.77 192.378l-.471-.953c-.844-.328.019.316.471.953zm0 0l.425.734a2.548 2.548 0 00-.425-.734zm.98 2.538c.826 1.564 2.959 3.27 3.764 2.967-1.688-.656-2.63-2.562-3.764-2.967zm3.152 1.769c-.625-.373-.742-.715-1.399-.579.434.184.9.377 1.399.579z"/><path d="M111.374 195.037c.116.859.739 1.369 1.869 1.532l-1.869-1.532zm6.774 6.044c-.096-.026-2.171-.785-1.849-1.216l.824.012c-.097-.026-3.086-1.235-3.254-1.383-.314 1.572 4.086 2.535 4.279 2.587zm38.292-59.56a30.895 30.895 0 00-.142-.245c.071.123.046.219.142.245zm7.168 15.461c.051-.193.031-.509-.13-1.069.026.421.069.777.13 1.069zm-52.261-46.285c.554.251.941.354 1.063.283l-1.063-.283zm33.123 18.638a20.885 20.885 0 01-.645-.688c.206.261.421.491.645.688zm-1.127 73.892c.438-.09.82-.23 1.146-.419a2.04 2.04 0 00-1.146.419zm8.944-4.451l-.026.097c.129.034.138.002.026-.097zm5.009-4.048l-.026.096c.081-.047.09-.079.026-.096zm-12.807 8.08c1.043-.033 1.765.366 1.829-.652a7.806 7.806 0 002.054-1.109c-1.205-.528-3.098 1.142-3.883 1.761zm12.17-61.332c-.148.167.233.682 0 0zm4.095 6.78a3.934 3.934 0 00-.329-.709c.142.245.187.464.329.709zm1.818 29.353c.017-.065.067-.121.148-.168-.097-.026-.122.071-.148.168zm-2.147-30.062c-.045-.219-.09-.438-.232-.682l.232.682zM94.959 27.181c.8.627 1.47.701 2.01.224-.36-.2-2.615-.282-1.108-.502-3.028-.287-1.334-.044-.812.716 1.166-.104-.406-.418-.09-.438zm37.448 96.153c1.211.115-.059-.947.443-2.055-1.467 2.403.199-.361-.443 2.055zm-.42-1.146c-.367.212-.148.167-.663.548a2.66 2.66 0 01.663-.548zM116.06 33.827c.223.197.423.354.599.47-.238-.27-.406-.419-.599-.47zm.687 70.96c.322.085.621.13.896.134-.483-.128-.677-.18-.896-.134zm3.75 28.314a3.388 3.388 0 00-1.076.542c.391-.172.75-.353 1.076-.542zm19.462-42.837c.503.444.295-1.888.082-2.255.005.76-.022 1.512-.082 2.255zm-15.008 38.538c.831-.4 2.814-1.632 2.923-2.431a125.67 125.67 0 01-2.923 2.431zm38.713 43.923l.128-.483-.128.483zm-53.083-33.465c.017-.065-.006-.105-.071-.122l.071.122zM64.102 33.876l.052-.193c-.082.047-.1.112-.052.193zm59.766 167.484c-.61-.3-1.179-.624-1.707-.971l.58.154c-1.322-.869-2.288-1.126-3.872-.616 1.765.366 3.331 1.093 4.999 1.433zm-.429 2.783l-1.302-.553c.426.734.86.919 1.302.553zm24.052-.951c-.683.233-1.357.433-2.022.601-.638.451 1.868-.021 2.022-.601zm-8.434-2.139c-.805.303-1.359.053-2.215.549.855.159 1.593-.024 2.215-.549zm13.469-.454l1.919-1.766c.122-.071-2.106 1.303-1.919 1.766zm-3.874-3.72a6.388 6.388 0 00-2.466 1.103 6.396 6.396 0 002.466-1.103zm10.941-4.955c.381.515-2.033 2.977-.689.645-.45.915-.988 1.772-1.615 2.571-.244.142 2.795-1.947 2.743-1.754.103-.387.714-2.294-.439-1.462zm-9.228 3.962c-.792-.522 1.071 1.422.213.367-.4-.314-.282-.627.354-.941-.91.31-1.765.669-2.563 1.077.708.189 1.374.021 1.996-.503zm11.167-3.86c.843-1.225 1.911-2.907 2.129-4.504-.817 1.127-2.156 3.048-2.129 4.504zm-6.853.868a8.92 8.92 0 00-.933.786c.836-.812.579.154 1.249-.806a3.305 3.305 0 00-.381-.515c-1.5 1.36.342-.116.065.535zm2.58-3.867c.266-.481.509-1.003.727-1.566-.245.142-2.028 1.013-1.674 1.625.374-.108.69-.128.947-.059zm2.034-2.978c.038-.403.117-.831.237-1.282l-.745 2.803c.418-.406.354-.941.508-1.521zm8.333-30.171c-.361-.2-.385 1.449-.205.773.361.199.224-2.01.205-.773zm-4.97 3.127c.419 1.147.518 4.277.885 4.064.083-.702-.511-3.136-.885-4.064zm-22.35-33.467a15.693 15.693 0 00-3.177-1.673c.818.425 2.23 1.731 3.177 1.673zm-56.056 8.065c-.98-.985-.65-.276-1.392-.991.639 1.101 1.264 1.474 1.392.991zm1.096 1.326l.426.735c-.142-.245-.735-1.127-.426-.735zm6.89 4.833s-.316.02-.51-.032c.484.129.87.232.51.032zm1.069-.129c-1.475-.289 1.76.778-.038.921.468.055.945.079 1.43.07l-1.392-.991zm6.887 1.728c4.04.763 5.262-1.498 8.038-2.209-2.261.33-3.69 1.813-6.041 1.705 1.765.366-1.559.413-1.997.504zm-.587-1.295c-.296.335 1.617.534 2.203.276-.605-.058-1.494-.605-2.203-.276zm10.358-.039c-.519.138-1.062.235-1.629.291.739.334 1.282.237 1.629-.291zm3.021-.853l-1.03.761c.367-.213 2.073-.794 1.03-.761zm6.169-2.188c.683-.232 1.777-2.011-.503-.444.464-.187 1.752-.362.503.444zm10.03-8.922c.476-.494.92-.997 1.332-1.508-.463.187-1.454 1.579-1.332 1.508zm-2.082-1.899l-.888 1.006a7.71 7.71 0 001.918-1.766l-1.03.76zm5.198-.48c-.251.554-.914 1.102-1.332 1.508.412.007 1.326-1.096 1.332-1.508zm-.91-2.415c-.773-.205-1.384 1.702-1.654 1.94 1.146-.419 1.056-.857 1.654-1.94zm9.943-12.877a16.399 16.399 0 00-.559 1.714c1.91-4.459 1.009-2.629.559-1.714zm.335.296c.174-.264.65-1.276.637-2.004a21.17 21.17 0 01-.637 2.004zm.786-.619c.154-.58.349-1.183.585-1.81-.251.554-.405 1.134-.585 1.81zm1.671-4.729a3.898 3.898 0 01.881-2.146c-.392.31-1.196 2.165-.881 2.146zm-4.285-20.075c.117.34.677.18.226-.458-.349-.507-.424-.354-.226.457zm.042-4.439c.053 1.36.543 2.628.622 3.89-.052.194.126-3.588.082-2.254a20.32 20.32 0 01-.704-1.636zm-14.935-32.944c.116.34-1.089-.187-.657.135 1.631 1.262 2.636 2.15 4.531 3.585-1.341-1.184-2.559-2.44-3.874-3.72zm-23.868 6.484l.142.244c.393-.31.052-.193-.142-.244zm0 0l-.264-.174c.03.146.118.204.264.174zm-.348-1.024c-.381-.515-1.154-.721-1.527-.096.657-.136.889.547 1.527.096zm-2.79-.018c.344-.253.758-.385 1.243-.394.309-1.16-1.301-.553-1.398-.578 1.018.063-.032.509.156.972zm-28.917-1.377l-.096-.026c.096.026.07.122.096.026zm4.753-1.53c.129.034.25.1.361.2-.095-.164-.215-.23-.36-.2zm-20.157 6.539c-.146.03-.26.07-.342.116.21-.013.325-.051.342-.116zm37.227-7.691c-.194-.052-.29-.077-.413-.006.071.122.168.148.412.006zm-.413-.006c-.4-.831-.29-.078-1.185-.212-.013.824.844.328 1.185.212zm-21.358 2.495c.193.05.045.218 0 0zm2.292-.839l-.193-.052.193.052zm9.019.328l-.097-.026c-.026.097.097.026.097.026zm-9.431-.334c.082-.048.155-.063.219-.046-.097-.026-.193-.051-.219.045zM59.437 23.012c-.442.366-.444.503-.006.413-.043-.357.047-.436.27-.239.052-.193-.74-.714-.264-.174zm-1.213 6.508c-.081.047-.13.102-.148.167.123-.071.148-.168.148-.168zM51.81 49.75c.081-.047.13-.103.148-.167-.082.047-.131.103-.148.167z"/><path fill-rule="evenodd" clip-rule="evenodd" d="M56.67 6.962c-.297.335-.63.42-1 .252.383.378.85.57 1.399.579.36.2-1.152.831-1.25.806.247 1.41 1.224-.71 1.811.585-.485.009-.82.23-1.004.664 1.765.366 1.264 1.474 1.348 2.324-.36-.2-.066-2.087-1.102-.914 1.063.283.652 1.83 1.786 2.234-.275-.004-.544.097-.805.304.36.2.528.347.502.444.065.017.138.002.22-.045-.605 1.495 1.29 2.93 1 4.405-.07-.122-2.106-.25-2.492-.353.593.365.924.936.993 1.713.34.021.552-.13.637-.451a2.9 2.9 0 00.266 1.726c-.085-.85 1.398.579 1.102.914-.458-.225-1.18-.624-.47.6-.799-.11-.059-.948-1.005-.889-.18.677.485 3.233.473 4.058.032-.509-.515.38-.541.477-.135.895-.45 2.467-.578 2.95-.057.606-2.647 9.955-3.968 9.086-.026.097-.256 2.519-.564 3.678 1.88-.845 4.004-3.384 5.993-5.028-.708.329-1.442.755-1.764 1.186 1.12-1.875 8.68-4.624 10.129-5.791-.374.107-.78.206-1.218.297 4.966-1.163 8.507-4.36 13.634-4.963-1.05.445.207.78.567.979.406.418-2.202 1.276-1.963 1.547.38.515 5.41-1.666 6.26-1.75.637-.451-2.274-.398-2.055-.443 1.777-.459 4.65.409 6.293-.707-.473.22-.836.158-1.09-.186.033-.509 3.266-.994 3.75-.866a2.668 2.668 0 01-.664.548c.92.176 1.881.19 2.886.044-.206.773-3.15-.217-2.898.78 4.722.532 8.863-.643 13.418 1.293-.128-.034-.242.004-.341.116 1.734.875 3.737 1.511 5.548 2.096 1.52.508 3.067.919 4.536 1.62.432.322 2.5 1.493.761 1.03 6.476 3.274 11.399 6.55 16.17 11.957a1.13 1.13 0 00-.748-.302c1.903 2.575 4.468 4.603 6.247 7.249.426.734 2.6 4.623 2.613 5.351-.013-.21.006-.412.058-.605.045.218 3.747 7.308 4.354 8.918 1.465 4.218 2.557 9.061 2.831 13.48.218-1.597.49 1.269.606 1.61-.638-1.1-.444.503-.973-1.397-.082 2.255 1.993 4.566.436 6.532a7.972 7.972 0 00-.163-2.113c-.044 1.333-.455 2.88-.184 4.193.071.123.67-.96.67-.96.471.953-.642 3.969-.853 5.154-.199 1.913.292 3.182-.126 5.14-.305-.15-.487-.37-.548-.663-.644-.689-.505 4.626-.46 4.845-1.044.033-.826-1.565-.697-2.048-.174.264-1.3 2.552-1.224.709-.12 3.176-1.425 6.14-2.293 9.014-.411 1.546-1.762 4.291-.383 4.554.048 1.117-.334 1.774-1.145 1.972l.115-1.211c-.091-.438-1.108 1.051-1.23 1.122 11.323 6.839 19.774 15.916 24.904 28.145a7.335 7.335 0 00-.948-1.494c2.283 4.643 4.004 6.342 5.58 11.314-.275-.004-.443-.152-.503-.444-.264-.174.168 1.7.31 1.945-.658-1.417.646 2.241-.696-.496-.805.304.383 3.62.44 3.015-.14 1.307-.051.193-.586.258-.175.919.075 1.537.749 1.854.245-.142.425-.301.541-.477-.207 8.948 1.191 17.701-3.795 26.723.443-2.056 2.103-4.408 1.967-6.617l-.052.193c.032-.509.09-1.114.019-1.237-1.21 1.437-.436 3.195-1.569 4.343.938-2.751-.786.619-.542-1.075 0 0-2.386 5.47.374.927.189 2.016-2.449 6.488-3.537 7.855a5.747 5.747 0 01-.033-1.044c-1.918 1.766-3.501 3.829-5.587 5.447a4.406 4.406 0 011.951-.723c-.348.529-.965 1.296-1.287 1.728.068-.258.169-.507.302-.748-.418.406-3.044 4.054-2.234 1.786-3.013 1.993-1.024.349-3.613 1.523a7 7 0 01.793.521c-1.365.465-9.035 4.013-9.557 3.253-1.095.226 4.43-2.65 2.807-2.772a31.142 31.142 0 01-2.57 1.49c1.894-.117-2.626 2.096-3.502 2.276-2.068.382-2.068.382-4.129.351 1.23-1.121-2.531.569-1.894.117-.663.548-5.211-.247-6.158-.188.489-.284 5.816-1.248 6.615-1.139-2.681-.816-6.39.681-8.567.309-.29-.077-3.744-1.099-2.925-.674.142.244-2.751-.939-3.041-1.016.824.012.893-.245.205-.773 1.276.65 2.016-.188 3.318.365l-1.649-.025c-.586.258 3.26.971 4.226 1.227a5.113 5.113 0 00-.94-.353c-.014-.728 1.848-.336 2.189-.453 1.855-.748.464-.187.567-.573a9.924 9.924 0 002.396.327c-2.466 1.103 3.073.506 3.46.609-.348.529-1.894.117-2.409.498-.148.167 2.184-.04 2.403-.086 2.351.108 3.047.604 5.513-.5-4.094 2.947 1.856.804 2.371.424a9.299 9.299 0 01-1.14.007c-1.095.226 3.723-.769 2.711-1.245a5.632 5.632 0 00-1.649-.025c1.314-.271 4.199-1.78 4.818-.995.122-.071 3.393-1.477 2.768-1.851a3.175 3.175 0 01-1.391.562c-.193-.052 1.178-.929 1.449-1.167-.373.625 3.948-1.227 4.167-1.272-1.295.587 3.052-1.361 2.241-.646 1.693-1.309.835-2.364 2.148-4.188.453 2.19 1.256-1.219 1.455-1.579-.27.238-2.35 1.444-2.293.839-.02-1.869 5.789-2.704 5.535-6.807-.313.4-.654.516-1.024.349 3.553-4.022 3.697-10.399 4.666-15.212-.09-.438.004-3.517.004-3.517.116-.176.206-.256.271-.239.006-.412-.014-.727.025-.096.109-.799-.407-1.971-.485-3.233a5.132 5.132 0 01-.16.992c-.551-3.768-1.602-6.428-2.983-9.796.663-.548.171-3.369-.339-4.953-1.231-1.983-3.173-5.19-4.43-7.076-.832-1.153-1.723-4.805-2.348-5.178a3.635 3.635 0 00-1.599-1.77c.709 1.223 1.174 2.589 1.884 3.812-1.026-1.204-2.372-1.976-3.423-3.083-.052.193.002.38.161.56-2.269-2.362-3.88-3.308-6.529-6.186 1.076 1.011 3.299 1.602 4.066 2.22.934.766 2.353 3.213 3.391 3.592-.375-.927.631-.039.515-.38-.065-.535-2.464-3.967-2.967-4.411.665 1.005-1.688-.656-.038.921-1.894-1.435-3.545-3.012-5.465-4.35 1.727 1.287.045.219-.47.599.122-.071 3.526 2.697 1.327.456 5.253 3.984-.599-.469.968 1.81-2.114-1.39-5.426-3.72-6.729-5.825l1.301.553c-2.133-1.706-2.45-3.238-4.697-2.18-1.661.8-1.338 1.92-2.619 3.235.185-2.641 4.054-5.13-.029-4.561 1.569-2.79-1.056.858-1.623 1.432-.495.696-1.936 3.003-3.108 3.519.54-.477.913-1.102 1.383-1.702-.889-.547-3.721 2.322-4.41 2.967-.567.573-2.201 2.829-.379 1.037.09.438-1.964 1.547-1.532 1.869 1.462-.439.503.444 2.267-.742 1.004-.664 2.297-2.804 3.546-3.61.471.953-2.439 2.559-3.063 3.738 1.918-1.766.161.561 1.095-.226-1.23 1.122-1.493 2.5-2.916 3.571 1.448-2.72-2.356 1.856-3.238 2.45-1.545 1.141-4.308 2.579-6.091 3.45.134-.895 2.163-1.908 2.678-2.288-.408.236-.44.227-.097-.026-.21.013-.397.067-.56.161 2.137-1.811 4.338-4.641 6.702-5.357-.131-2.622-2.293.839-2.563 1.077-1.984 1.232-3.728 2.734-5.782 3.843.112.099.264.174.457.226-2.253 1.47-4.565 1.993-6.761 2.858.326-.189.661-.411 1.004-.664-4.607-1.743-10.646 3.067-15.71 1.099-.239-.27 1.436-.342 1.752-.362-.632.04-5.966-1.69-6.862-1.824 1.463 1.113-1.404-.167-1.668-.34.562.218 1.157.445 1.784.681-.696-.495-3.557-2.187-1.74-2.015-2.295-2.266-4.647-3.926-6.768-6.456a2.799 2.799 0 00-.884-.959c.03.146-.044.298-.225.457.052-.193-.897-3.239-.266-3.278-.116-.342 1.22 2.807 1.47 2.253-1.013-2.028.008-7.034-2.553-2.852-.928-1.178.894-2.97.622-4.284.478 2.094-.04-2.183-.002-3.104-.117-1.894-.067-3.64.614-5.425.06.292.089.576.085.851.18-.677 1.01-2.629 1.408-3.351a2.53 2.53 0 01-.444.503c-.122.071 2.922-3.983 2.87-3.79 2.537-2.533 5.834-4.036 9.337-4.76 4.064-.886 8.992-1.128 13.051-.048 1.256.334 5.682 1.2 3.84 1.124 2.763.114 4.439 1.595 7.003 2.07-.096-.026-3.491-.101-3.349.144 1.07 1.423 6.648 1.457 8.362 2.017 1.714.559 4.684 1.452 5.974 2.83a1.875 1.875 0 00-.606-.058c.432.322 2.229.179 2.339.932-.214.288-.515.381-.902.278 4.408 2.103 4.458.358 6.388-3.786.778-1.759.893-2.97 1.549-4.658 1.055-2.41 2.109-4.82 2.849-7.21.405-1.134-.189-2.016.236-2.834 1.194 2.904.738-3.943.956-5.54l.232.682c.394-1.482.367-2.938-.08-4.368.172.391.443.67.812.837.831-.4-.712-4.328-.281-5.559a5.685 5.685 0 01-.991 1.392c.096-1.526-1.186-1.764-1.213-3.22l.58.155c-.37-2.892-1.262-8.096-3.042-10.743-1.463-1.113-4.444-7.804-6.075-10.618-.852-1.468-2.411-2.607-3.282-4.39.747.302 1.741 2.015 2.591 1.93-1.567-2.279-3.385-4.004-5.319-6.07-.812-.837-2.784-1.983-1.766-1.919a4.905 4.905 0 00-2.674-1.228c1.27 1.062 2.693 1.544 3.596 2.819-3.545-3.012-10.401-6.802-15.795-9.478-3.924-1.974-7.815-2.906-12.248-3.36-1.72-.147-7.672-1.11-7.923-.555-3.407.75-6.512.752-9.822 1.527-2.12.575-6.794 3.367-8.656 2.976.065.017.106-.007.123-.071-1.269.49-3.214.8-4.02 1.104.245-.142-4.616 2.187-2.949.975-4.706 3.301-9.348 7.137-13.629 11.173.213.367 1.237.018 1.43.07.039-.404-.073-.503-.335-.297.695-1.056 1.385-.149 2.003-.916-.154.58-.689.645-.482 1.424-.278-.901 4.23-2.29 4.21-2.605.435.184.56.493.375.927 2.247-1.058 5.943-3.283 8.663-1.835 1.087-1.367 3.697-.673 5.61-.474.418-.406 1.642-1.116 1.456-.027.605-.46 1.234-.88 1.886-1.258.284.49.045.22.38.515-.392.31.24.27-.128.484.013.728.89.547.966.257.02.315.06.947.478.54.321-.431.038-.92-.201-1.191 1.992 1.46 4.94-1.066 8.245.123l-1.996.504c-.142-.245-.284-.49-.393.31.677.18.284.489.973-.156.148-.168.206.78.033 1.044.34-.117 1.43.07.25-.555.123-.07 2.042-.285 2.454-.278.239.27 1.747 1.602 1.94 1.654-.74-.715-.348-1.024.309-1.16.193.051.509.032.509.032.097.026.587 1.294.948 1.494l.012-.825c.406.418 2.72 1.448 2.694 1.544-.245.142-1.823.24-1.378 1.29 1.5-1.36 1.816-1.38 2.97-.66.972-.155 1.352.36 2.956.166-.566.574-2.241.645-2.318.935.142.245.406.419.625.374-.103.386-1.546-.412-2.23-.18 1.205-1.024-.444-1.049-1.056-.694-.167.37-.075.67.278.901-.555-.25-2.436-.958-2.442-.545.34.02.434.184.284.489-.142-.245-.312-.255-.51-.032-.122.071-1.515-2.472-1.779-2.646-.236.627-.648 1.138-1.236 1.534-.02-.316.766-.935-.329-.709-.122.072-.102.387-.057.606-.38-.515-1.772.046-2.241.646-.742-.715-3.557-.635-3.628-.758 0 0-1.939-.102-1.011-.476-.458-.225-1.295.587-1.018-.063-.483-.129-.78.206-.927.374-1.34.368-1.906.942-3.027 1.264-.755-1.442-4.844-.46-6.056-.575.288.215.593.365.916.45-.342.116-1.372.877-1.037 1.173-.356.044-.524-.104-.502-.444l-.194-.051c.547-.89.366-1.765-1.141-1.545 1.205.527-1.307 1.411-1.648 1.528.657-.136-.012.824.349 1.023-.162-.56 1.03-.76.108-.798.228-.078.464-.188.709-.33.606 1.61-2.086 1.619-2.614 1.271.115-.176.223-.32.321-.431a2.675 2.675 0 01-.915-.45c-.515.38-.237 1.281-1.738 1.09.197-.224.37-.489.521-.794-.998.252-1.14 1.56-1.873 1.986-.245.142-2.029 1.013-2.202 1.277.026-.097-.143-1.797-1.012-.476.193.051.41.143.65.276a4.395 4.395 0 01-1.95.723c.077-.29.16-.992-.278-.901-.947.058-.115 1.21-.675 1.372a74.964 74.964 0 00-6.762 2.858c-3.104 1.555-7.47 3.188-9.755 5.167-.903-1.275-4.706-4.873-4.636-6.303-.021-1.868 5.085-4.339 6.637-5.892.714-.742 5.167-8.146 5.599-7.824 0 0 .218-.045.502.444.245-.142 1.615-2.572 1.544-2.694.155.455.42.629.793.521.174-.264.044-1.333.675-1.372-.676-.18-2.293-.714-1.289-1.378l.335.296c1.165-1.656 3.738-6.663 3.17-7.642l.49-.283c.108.373.247.755.42 1.146 1.061-1.27 1.595-2.887 1.124-3.84-.25.554.162.56.007 1.14-.111-.099-.193-.051-.244.142.282-1.063.461-3.292 1.026-5.418.463-1.74 1.021-5.006 1.014-6.146.038-.921-1.086-5.256-.352-5.681.108.373.293.457.554.25-.625-.373.385-3.001.546-2.441-.69-2.46-.776-4.863-.398-7.453 1.623.121.946-1.61 1.248-2.358.71 1.223 1.123 2.782 1.755 4.295zm-9.213 35.422l-.194-.051.194.051zM65.68 53.232c-.129.483-.115 1.211-1.539.729.631-.04 1.12-.323 1.539-.729zm.83-1.952c-.035.128.086.195.36.199a.888.888 0 01-.36-.2zm18.333.322c.09.438.11.753-.18.676.133-.24.193-.466.18-.676zm9.012.74l.097.026-.097-.025zm.097.026c.824.013 2.221-.961 2.485-.787-.197.223-.184.434.04.63.734-.425.424-.817 1.313-.27-.122.07-.726 1.565-1.474 1.263.438-.09.676-.337.715-.741-.434-.185-.887-.167-1.36.052.026-.096-.99 1.392-.99 1.392-.177-.115-.402-.175-.677-.18-.258-.586 0 0-.864-.643.421-.026.692-.265.811-.716zm-7.115-4.375c-.316.02-.412-.006 0 0zm-2.126-.565l-.123.07c-.047-.081-.006-.105.123-.07zm-2.853 1l.026-.096-.026.096zm-.684-1.32l.097.026c-.026.096.02.315-.097-.026zm-10.796.13l-.193-.051c-.148.167-.174.264.193.051zm-.065-10.261c-.326.189-.661.41-1.004.664.463-.187.83-.4 1.004-.664zm10.95 72.447c-.082.047-.14.135-.174.264.099-.112.157-.2.174-.264zm-.024 21.102l-.658-1.416c.047.081.127.171.239.27.189.326.329.708.42 1.146zm32.729 7.669c1.043-.033 2.054-1.11 3.007-1.581-.959.883-1.964 1.548-3.007 1.581zm50.669 27.753c.103-.387.122-.588.058-.606.019.316-.058.606-.058.606zm-.14 2.86l-.077.29.077-.29zm-6.864 21.146l-.097-.025c.082-.048.114-.039.097.025zm-10.012 7.686c.017-.065-.015-.073-.096-.026l.096.026zm-23.115 4.821c.219-.045.097.026-.097-.026l.097.026zm41.482-21.357l.205-.773c-.103.387-.083.702-.205.773zm2.071-21.8c.061.292.065.535.014.728a9.657 9.657 0 00-.014-.728zM131.644 46.042c-.129-.034-.217-.092-.264-.174.064.017.152.075.264.174zM60.452 36.32c-.327.19-.67.443-1.03.76.392-.309.856-.496 1.03-.76zm5.602 16.287c-.133.24-.257.449-.373.625-.02-.316.058-.606.373-.625zm18.725-1.54a.678.678 0 01.065.535 3.87 3.87 0 01-.065-.535zm-4.677-.312l.07.122c.271-.239.149-.168-.07-.122zm-4.535-.068c-.07-.122-1.662-.752-1.817-.173.233.683.85-.084 1.817.173zm87.649 126.058l-.052.193c.085.851.091.438.052-.193zm.191-20.954c-.862.908.621 3.89.661 6.073.567-.573-.009-4.245-.216-5.024a34.344 34.344 0 00-.445-1.049zm-33.826-38.175c-1.836-.489-3.388-.487-5.199-1.072-1.714-.56-2.301-1.854-4.478-2.226.412.006-1.528-1.648-2.301-1.854.447.395.902.758 1.366 1.088-2.37-.423-4.388-1.788-6.559-2.572.799.109-.38-.515 1.192-.2.282-1.063-18.985-2.152-21.574-.977-7.74 3.426-7.103 12.701-1.971 18.308 9.186 10.203 26.632 3.357 34.742-5.352 1.551-1.553 4.004-3.384 4.782-5.143zm3.777 2.142l-.335-.296c.483.129.875-.181.515-.38.081-.048.154-.063.219-.046-.265-.173-.407-.418-.928.375-.257-.069-.472.219-.643.863.348.507.739.335 1.172-.516zm.927-.374l-.29-.077c-.034.129-.182.296-.444.503.352.231.597.089.734-.426zm-.29-.077c.034-.129-.045-.219-.238-.271.047.082.126.172.238.271z"/><path d="M95.66 53.34c.38.515.33.708.445 1.05.503-.074.878-.319 1.127-.736a2.637 2.637 0 01-1.572-.314zm-5.614-5.736l.502.444c.27-.238-.303-.805-.502-.444zm-2.3-.301c.122-.07.6.47.753-.11-.347.529-.528-.347-.753.11zm.023 4.973c.064.535.457.225.818.425-.29-.078-.645-.69-.819-.425zm-2.464-3.966c.31-.125.61-.218.902-.278a1.234 1.234 0 01-.639-1.1c-.49.283-.665.684-.527 1.204.7-.297.788-.239.264.174zm1.639 3.954l.67.592c.07-1.43-.477-.54-.67-.592zm-3.27-5.216c.486-.009.95-.196 1.391-.561-1.114-.09-1.146.42-1.39.561zm.564 4.496c-.225.458-.876.181-.257.967.326-.19.412-.512.257-.967zm-.67-.592c-.28.27-.558.541-.837.812.393-.31.663-.548.837-.812zm-9.421-4.264c.148-.168-.574-.567-.142-.245-.148.168.38.515.142.245zm1.846 4.733c-.264-.174-.998.252-1.34.368.438-.09 1.334.044 1.34-.368zm-14.189 3.16c.34.021.552-.13.638-.451-2.402 1.637-.496.696-.638.451zm-2.944.562c.052-.193.342-.116.2-.36-.07-.123-.367.212-.2.36zM45.705 42.746s.07.123-.162-.56c-.817 1.128-.328.844.162.56zm5.005-8.706c-.155-.972-.22-1.507-.24-1.823-.398.722-.012.825.24 1.823zm4.908-28.185c.194.051.342-.116.464-.187-.31-.393-.438.09-.464.187z"/></g><defs><clipPath id="clip0_28_35734"><path fill="#fff" transform="rotate(-75.109 112.333 85.47)" d="M0 0h178v163H0z"/></clipPath></defs></svg>