<svg width="213" height="152" viewBox="0 0 213 152" fill="none" xmlns="http://www.w3.org/2000/svg"><g clip-path="url(#clip0_28_35736)" fill="#100F12"><path d="M96.092 69.174c.132-.013.235.01.308.07-.11-.09-.219-.18-.308-.07zm25.543-7.002c.404.028.776.06 1.114.093-.291-.24-.663-.27-1.114-.093zm-40.054 14.84c-.391.105-.75.207-1.075.306.298-.03.597-.058 1.075-.306zm69.942-17.44c.471.021.873.016 1.204-.016-.706-.032-1.014-.103-1.204.016zM40.674 112.029c.378-.237.621-.495.728-.774-.298.029-.578.257-.728.774zm6.306-6.439l.01.099c.1-.009.1-.009-.01-.099zm4.46-3.749l-.1.01c.11.09.11.09.1-.01zm-10.038 9.414c.966-.395 2.01.006 1.287-1.23a4.073 4.073 0 001.24-1.728c-1.343-.372-2.106 2.114-2.527 2.958zM96.12 69.472c-.696.068-.218-.18 0 0zm-7.264 3.82l.777-.276c-.299.029-.498.048-.777.276zM61.78 87.274c.06-.073.123-.112.19-.119-.01-.1-.1.01-.19.119zm27.853-14.258c.19-.12.488-.148.677-.267a9.579 9.579 0 00-.677.267zm98.732 50.395s.25-.527-.925-.212c-.501 1.053 1.101.998.113 2.2 1.675-1.369-.199.019.812-1.988zm.154 1.592c.508.052.1-.009.896-.087l-.896.087zm-65.453-44.985l.058.597c.07-.308.051-.507-.058-.597zm25.94-10.154a1.881 1.881 0 00-.777.276c.398-.039.687-.167.777-.276zm49.342 45.645a2.3 2.3 0 00.719-.873l-.719.873zm-42.596 16.594c.847-.585-2.007-1.011-2.405-.972a8.43 8.43 0 002.405.972zm-25.095-17.356c.007.066.086.192.238.378a78.595 78.595 0 00-.238-.378zm62.546 7.792c.937-.694 1.765-1.477 2.693-2.271-.568.357-2.651 1.664-2.693 2.271zm6.673-16.12c.007.066.043.096.11.09l-.11-.09zM66.724 84.383a1.646 1.646 0 00-.488.148c.133-.013.295-.063.488-.148z"/><path fill-rule="evenodd" clip-rule="evenodd" d="M163.359 133.876c-1.253-.481-4.733-1.148-5.388-1.687 3.326-.926-3.944-2.33-5.524-3.081l.697-.067c-1.272-.681-2.602-1.958-4.313-1.993.537.015.989-.163 1.355-.533.202-1.025-4.265-1.495-5.016-3.03.13.657.228 1.318.292 1.981-1.329-1.277-2.517-.057-3.747-1.344.401-1.044-2.341-2.385-3.324-3.194-1.966-1.617-3.331-4.298-5.447-5.399.308.071-3.354-3.492-3.8-3.951-2.213-2.096-3.511-4.08-4.847-6.462-.713-1.136-1.314-3.188-2.775-3.749a10.617 10.617 0 01-.245-1.483c.835.32 1.744 2.442 2.74 2.346-1.038-2.411-2.426-4.286-3.563-6.687-.376-.768-.216-1.185-.492-1.962-.524-1.255-1.696-1.945-.553-1.554a5.13 5.13 0 00-2.043-2.414c1.578 4.87-1.245.624-2.213-2.096-1.905-5.14-2.327-10.524-2.849-15.899-5.754.76-12.894 2.76-19.337 4.69-1.018.903-2.007 2.105-3.38 2.439a30.8 30.8 0 01-.306-1.076c-1.804 1.08-2.834 2.888-4.53 4.057-.924-.212 1.798-2.184-1.521-.153 1.187-1.221-1.724.87.211-.925-.613-1.146-3.515 1.044-2.62.957-1.084.206-.208-.08-.565-.648-1.752.572-1.627 1.866.174 1.791-4.758.663-4.273 1.52-6.956 3.89-3.97 3.602-9.284 6.83-13.929 9.692 1.04-1.708 3.67-2.566 4.4-4.345l-.179.218c.26-.427.61-.963.59-1.162-2.09.203-1.688 2.273-3.39 2.338 2.135-1.815-1.094.106-.125-1.294-.559.456-4.148 2.814-.003 1.005-.212.925-2.096 2.213-2.645 2.769-.27.327-2.475 2.45-2.853 2.688a6.734 6.734 0 01-.007-1.105c-2.34.73-4.186 2.416-6.17 3.714.704-.336 1.397-.437 2.08-.302-.34.636-.69 1.172-1.04 1.708a9.85 9.85 0 01.132-.716c-.738.675-2.06 3.616-1.965 1.497-2.722 1.972-.995.097-3.367 1.533.357.233.712.433 1.063.6-1.246.623-7.062 5.91-7.271 5.829-.559.457 2.67-4.579.6-4.177a32.736 32.736 0 00-1.451 2.653c2.102-1.109-1.205 7.25-2.423 5.057-.138-.388-1.04 1.709-1.13 1.818.041-.272-.045-.464-.257-.578-.558.456-.683 2.277-.702 2.078-.03-.299-3.007 4.21-3.168 4.628-.106-1.095 2.118-6.134 2.008-6.224-2.6 1.157-2.862 5.704-3.712 7.293-.51.954-1.628 1.866-1.152 2.624.497-.048-1.55 2.662-1.47 2.453.055-.809-.256-.912-.934-.311.879-1.291-.322-2.279.576-3.371a4.801 4.801 0 00-.134 1.721c.315 1.175 2.57-4.57 2.25-3.735l-.72.873c-1.261-.58.806-3.092.112-4.029-.1.344-.317.533-.649.565a8.652 8.652 0 001.519-1.956 5.092 5.092 0 00-.003 1.005c1.714-.97 1.19-2.225 2.577-3.465.366.668-.94 1.699-.674 2.376.148.488 1.11-2.017 1.21-2.026 1.567-1.458 2.443-1.744 3.396-4.349a8.939 8.939 0 01-.603 2.068c.7-1.072 2.78-1.375 3.043-2.807a7.031 7.031 0 00-.947.594 7.074 7.074 0 001.688-2.273c-.582-.48-1.12-.495-1.612-.045 1.178-1.32 2.378-3.446 3.451-2.746.09-.109 2.664-2.57 1.83-2.89-.1.009-1.368 1.438-1.355.533.725.231.7-1.073 1.168-1.42-.642 1.67 2.051-.601 1.65.443 1.596-1.16 2.674-2.47 3.762-3.681 3.648 1.354.899-1.092 3.085-3.414.032.332.097.66.196.986.09-.11 2.343-1.735 1.688-2.274-.09.11-3.037.797-3.015-.009.112-.915 7.337-1.013 8.103-4.504-.328-.27-1.474.344-1.352-.471 2.33-.83 4.825-3.08 6.937-4.09.957-.495 2.023-.9 3.06-1.603.937-.694 4.844-2.881 4.195-2.316 1.066-.405 3.213-3.125 3.06-1.603 0 0 1.634-.762.578-.257.777-.277 1.576-1.359 2.722-1.973a5.626 5.626 0 01-1.085.206c1.515-.95 3.248-1.722 4.555-2.753 1.406-1.04 2.664-2.57 4.288-3.43l.078.796c2.44-.74 2.886-.28 5.127-1 1.496-1.15 7.047-4 8.42-4.334 1.176-.315 6.904.736 7.347-.914-1.513-.055-2.935-.218-4.418.027 1.544-.653 2.632-1.863 4.186-2.416a.695.695 0 00-.716-.132c1.554-.552 2.18-.312 4.013-1.093a7.325 7.325 0 00-.215-1.184 9.27 9.27 0 013.743-.766c-.479-2.867 1.398-5.26 1.019-8.136-.12.146-.207.288-.26.427-.377-3.882.858-18.067 4.007-19.78.019.2.002.368-.051.508.581-1.262 2.198-3.228 2.628-3.973-.17.318 2.67-4.58 1.977-2.402 1.736-4.89 4.168-9.85 8.1-13.848 1.737-1.776 4.93-5.1 7.191-5.621-.1.01 2.876-.38 2.546.356.571-1.362 2.285-2.332 3.54-2.856-1.421 2.951-4.118 3.113-6.426 6.25l-.048-.497c-.568.356-2.853 5.802-3.209 5.234.154-.483.049-.875-.315-1.175-1.258 1.529 1.134 3.407-1.325 3.947.054-.14.137-.315.25-.527-1.707 2.075-.199.02-.835-.32-.725-.232-1.816 1.984-1.399 2.145 3.221 1.093.058.597-.892 2.196-.43.745-.278 3.343-.599 4.177-.773 2.386-.459.447-1.62 2.971-.126-1.294 1.778-2.383.875-3.4-.556-.55-1.536 4.87-1.937 5.914-.462 1.452-1.589 2.264-1.495 4.265.233-.358.469-.682.709-.973-2.458 3.654-1.099 8.345-2.025 12.253.215 1.184-2.791-1.84-2.92-2.128-.269.328.313 5.294.262 5.802.575.748 1.149-1.619 1.149-1.619.036 1.403-1.196 4.236-.175 5.443-.118-.525.019-.84.411-.945.408.061 1.465 2.671 1.205 3.098-.345-.1-.63-.273-.854-.52-.268.696-.233 1.396.103 2.1.597-.058.777-.276 1.464-.443-.867.385-2.928.887-2.642 1.763.777-.276 1.438-1.747 1.532.254-.376-.768-.777.276.465.658 1.243.381 4.652-1.758 7.289-1.512-1.702.065-1.008 1.002-2.402 1.138 3.86.429 6.138-3.008 9.474-3.834 2.559-.55 4.306.888 6.935.03-.577.257 2.046 1.41 3.022 1.113a19.394 19.394 0 01-1.679-.74c2.359-.531 4.935.123 7.263.299-.877.286.456.558-1.127.813-.105 2.02 4.639-.853 4.838-.872 2.977-.39 7.222.906 10.086 1.432 6.961 1.333 13.872 3.174 20.191 6.178 10.643 5.095 18.907 13.637 22.339 24.154 4.419 13.436 2.442 26.187-9.027 35.338-3.92 3.093-7.628 5.262-11.743 7.369-4.206 2.217-9.587 1.634-14.288 2.894-2.106-1.001-6.534-1.073-9.337-2.007zm-47.528-98.367c.034-.339.035-.674.003-1.005-.061.407-.132.716-.003 1.005zm-80.157 74.695c.113-.212.233-.358.36-.437l-.36.437zM60.83 91.988l.01.1c.06-.074.057-.107-.01-.1zm2.466.564c.127-.08.283-.195.469-.347-.18.219-.37.337-.469.347zm29.67-16.243c.517-.184.96-.462 1.325-.832-.488.148-.956.495-1.325.832zm52.154 46.679c-.053.139-.037.305.049.497l-.049-.497zM62.878 86.163l-.299.029c-.32.835-.15.517.299-.03zm12.998-7.893c.427.26 5.397-1.328 5.698-2.362-.992-.908-3.557 1.651-5.698 2.362zm43.81-16.511c.556.214.842.052.857-.485-.1.01-.877.286-.857.485zm-.344-1.474c.857-.485 1.55-2.662.057-2.517a10.246 10.246 0 00-.057 2.517zm-10.058 6.1c-1.214-.082 1.268-1.428-.874-.718 2.771-1.475 3.256-.618 2.767-3.584-1.156.514-7.387 4.635-7.277 4.725.526.25 3.425-.935 3.823-.974 1.253.481-.988 1.201 1.561.552zm76.635 59.775a3.972 3.972 0 01-.248-.478c2.868-.48 4.369-3.64 6.947-3.99-5.257 4.83 6.264-1.714 4.087-2.406a3.45 3.45 0 00-.629.764c-.395-.966 2.074-1.407 1.001-2.107-1.165.415-1.005-.003-2.321.929-.658.466-1.679 2.373-3.053 2.708-.633-1.346 2.154-1.616 2.597-3.267-1.477 1.349-.366-.667-1.214-.083 1.287-1.23.295-2.138 1.482-3.359.039.398.048.833.027 1.304.691-.469.998-1.102.92-1.898-.719-1.203-.389-1.938.992-2.206.773-2.386.831-1.789 1.106-4.126.615.811.732 1.67.351 2.578.173-.285.243-.258.209.08.828-.784.185-2.228.734-2.784.838-.684-1.834 8.015-1.914 8.224-1.036.368-1.09.842-.163 1.422.404.028.812.089 1.223.183.53-.755-.074-1.802.256-2.537 1.791-3.288 2.518-7.177 1.971-10.741l.495.957c4.466-2.644-2.054-8.742-2.813-11.382.45-.545 1.182.79 1.481.761 1.531.253-1.851-3.538-2.069-3.718-.665-.638-1.044-.4-1.224-.182a3.261 3.261 0 00-.809-2.132l.815.122c-.591-1.952-5.547-5.39-4.775-3.656-1.684-2.85-.588.158-2.008-1.01 1.304-.027-.562-1.654.086-2.22 0 0 1.459 1.567 1.699.941-.228-.28-1.272-3.795-2.21-3.1a43.5 43.5 0 01-.843 2.693c-.906-.012.018-2.915-.936-3.425.944.41.877-.287.539-.656-.803-1.027-4.961-1.427-6.133-2.117.266-.026.528-.084.787-.177-1.214-.083-1.4-.969-2.614-1.052l.009.1c-3.266-2.597-12.526-3.808-16.305-4.446-2.248-.384-4.136-1.206-6.085-1.62-1.323-.172-2.697.162-2.489.242-2.189.213-3.898-.827-5.969-.425.09-.109 3.307-1.125 2.861-1.584-1.378-1.775-10.775 2.855-13.745 1.234.126-.079.282-.195.468-.347-.607-.041-1.794 1.18-2.27.422-.045-.465.155-.819.6-1.063-2.777.37-5.249 1.816-8.045 1.987-1.403.035-2.804-.934-4.955-.323-3.326.926-3.396 1.234-2.48 4.46.058.598 2.259 6.714.782 4.948 2.162 5.718 4.825 10.382 7.068 15.891-.171-.385-.456-.558-.854-.52.768 2.74 3.151 4.517 4.587 6.889.704 1.037 1.53 4.373 2.265 4.704.418.16.112-.916.421-.845 1.878.722 4.663 4.571 6.667 6.587 2.897 2.933 5.232 4.214 8.678 6.592-.813-1.127 1.422.163 1.532.253-1.294.126-.122.816-1.773.373 1.548 1.457 4.897-.274 5.158 2.413a4.416 4.416 0 00-1.77-.632c.893.918 1.983 1.448 3.269 1.591.399-.038-.703-1.036-.514-1.155.488-.148 3.298 1.89 3.934 2.23 1.77.632 2.688-.261 4.338.182.267.677-1.884 1.288.463 1.663 1.939.314 1.297-1.131 2.909-1.086.106 1.094-.661 1.47-1.776 1.378.437.359 2.236 1.29.662 1.643 2.37-.431 12.349-.093 11.205-3.599l1.355-.534c.915.112-.79 1.182-.253 1.532.974.374 1.654.141 2.041-.701-.237-.378-.601-.678-1.091-.898 1.332.272 1.306-1.031 2.42-.939-1.724.871 1.42 1.169-1.02 1.908 2.617.047-.051.507-.253 1.532a23.557 23.557 0 003.576-1.453c-.102 1.015-2.023.9-2.433 1.844 1.095-.106 3.268-1.523 4.231-.913-.369.337-2.658.559-2.77 1.474.417.161 1.024.202 1.522.154zm-30.453-57.024l-.588.157c.199-.019.395-.071.588-.157zm24.728 6.34c-.404-.028-.55-.147-.437-.36l.437.36zm15.956 15.33c-.369.337-.42.844-1.082-.8.424.228.785.494 1.082.8zm-10.122 35.444l.09-.109-.199.019.109.09zm.09-.109c.995-.097 1.872-.383 1.554-.553-.835-.321-1.275.325-1.554.553z"/><path d="M119.423 94.236c-.384-.498-.734-1-1.051-1.505.409.764.785 1.531 1.128 2.302-.463-.625-.488-.89-.077-.797zM28.68 127.159a7.932 7.932 0 011.165-.414 1.655 1.655 0 01-.148-.488 15.9 15.9 0 01-1.017.902zm15.817-16.104l-1.505 1.051c-.141.616 1.762-.473 1.505-1.051zm-10.521 1.323l-.302 1.034c.837-.349 1.28-.961 1.33-1.837-.511.954-.39.138-1.028.803zm15.352-6.413c-.16.417-1.804 1.079-1.338 1.737-.087-.896 1.614-.96 1.338-1.737zm-9.53-.884c.729-.774 2.302-1.127 2.234-1.824-1.014-.102-1.207 1.021-2.234 1.824zm11.68-2.842c.966-.395 4.161-.604 3.082-2.409-.257-.578-3.092 2.31-1.484.245a26.984 26.984 0 01-1.598 2.164zm-7.43-.986a7.466 7.466 0 00-2.482 1.346c.763.261 1.443.027 2.042-.701l.078.797c.866-.386-.566-.649.362-1.442zm14.916-3.659c-1.066.405-2.92 1.992-2.994 3.305 1.017-.902 2.304-2.133 2.994-3.305zm-10.521 1.323a3.57 3.57 0 00-.386-.867c.1-.01-.969 1.4-.96 1.5.91-.992.627.24 1.346-.633zm2.323-5.047l-.52.853c.633 1.346 1.862-.482 2.222-.919a13.721 13.721 0 00-1.702.065zm2.655.445c.44-.646 1.24-1.728 1.55-2.663a9.556 9.556 0 00-1.55 2.663zM82.61 82.438c-.16.418 1.901-.084.716.132.052-.507-1.531-.253-.716-.132zm-6.872-4.557c-.657.13-1.093.475-1.307 1.031 1.195-.116 2.752-1.673 3.68-2.467-.825.482-1.615.96-2.373 1.436zm55.066-17.503c.418.16 1.573-.354 1.146-.614-.568.357-1.274.325-1.146.614zm63.056 27.536c-.575-.748-.517-.151-1.162-.59.376.767.812 1.126 1.162.59zm2.5 6.086c.119.19.347.47.318.17-.1.01-.209-.08-.318-.17zm.874.72c-.015.537-.271.662-.768.375.225.246.483.49.774.729.613-1.968.045-1.612-.006-1.105zm3.637 8.488c-.652-1.544-1.57-.652-1.475-2.771-.481 1.253-.793-.927-1.021-1.207.01 3.214 2.348 3.49 2.551 5.58a12.764 12.764 0 01-.055-1.602zm-.872-4.838c-.607-.042-.272 1.332.065 1.701.061-.408.581-1.262-.065-1.702zm-1.214 7.15c.449.492.589.211.42-.844a5.176 5.176 0 00-.42.844zm-.671 1.371c.228.28-.064 1.413.385.867l-.385-.867zm-.93 4.913c-.099.01-1.316.932-.825-.221-.369.337.203 2.09.825.221zm-6.454 9.066c.518-.184.755-.508.709-.973-4.782 5.589-.359.437-.709.973zm4.614.959c-1.236.723-1.056.504-2.452 1.645 1.034.301 1.297-1.131 2.452-1.645zm-6.165-1.411c.897-.422.857-.485-.119-.189-.652.867-.613.93.119.189zm-1.897 2.194l.603-2.068c-.966.395-.661 1.47-1.547 1.657-.677.267-2.039-.304-2.928.887.57.347.82.858.752 1.535.767-.376 2.057-2.611 3.12-2.011zm2.165 1.598c.674.738 1.406-1.041 1.675-1.368-1.672.363-.577.257-1.675 1.368zm-13.678 1.931c.458-.112.913-.256 1.365-.434-1.882.283-1.535.752-1.365.434zm.042-.607c-.077-.796-.605-.712-1.583.254a12.78 12.78 0 011.583-.254zm-1.939-.314a7.308 7.308 0 001.184-.216c-.099.01-1.772.373-1.184.216zm-2.726-.137c-.651.197-1.234.052-1.75-.433.247.478 1.808 1.03 1.75.433zm-20.792 5.233c.458-.111.532-.386.221-.825a5.74 5.74 0 00-.966.395c.212.114.46.257.745.43zm-4.291-2.798c1.291.879 2.804.933 4.175 1.604a80.958 80.958 0 00-2.643-1.351l.498-.048a1394.7 1394.7 0 00-2.03-.205zm-22.711-25.927c-1.568-1.656-2.098-4.016-3.996-4.937.084.863.589 1.584 1.516 2.164a3.887 3.887 0 01-.517-.151c.473 1.763 1.995 1.916 2.997 2.924zm11.397-87.511c.029.299.427.26.725.231.601-1.063-.526-.25-.725-.23zm-70.86 101.121l.308.07c.051-.507-.119-.189-.308-.07zm0 0l-.209-.08c.073.06.142.086.209.08zm-1.712-.035c.26-.427.806.022 1.037-.703-.526-.251-1.104.006-1.037.703zm-1.403.036c.626.24.02.199.566.648.1-.344.306-.632.619-.864-.415-1.165-1.195.116-1.185.216zm-19.53 13.048l-.1.01c.1-.01.11.09.1-.01zm2.716-3.077l.298-.029c-.073-.06-.173-.05-.299.029zm-12.802 11.993a1.19 1.19 0 00-.28.229c.194-.086.287-.162.28-.229zm23.493-20.867c-.099.009-.189.118-.18.218.11.09.2-.019.18-.218zm-.619.863c.726.231-.007-1.104-.007-1.104.546.449-1.396 1.14.007 1.104zM41.135 128.16c.109.09.199-.019 0 0zm1.348-1.638l-.2.02.2-.02zm6.497-3.444l-.1.01.1-.01zm-6.697 3.464c-.1.009-.1.009-.189.119.066-.007.13-.047.19-.119zM27.38 108.598c.395.966-.238-.379.318.17-.01-.1-.973-.709-.318-.17zm-6.85 25.682c.186-.152.402-.34.648-.565-.578.257-1.525.851-1.974 1.397 1.31-.998 1.751-1.275 1.325-.832zm6.039-20.58c-.06.073-.087.142-.08.209.09-.109.09-.109.08-.209zm.477 17.335c.054-.139.077-.242.07-.308-.059.073-.082.175-.07.308zm-8.513 5.448c.01.1-.5 1.054-.051.508 0 0 .33-.736.051-.508z"/><path fill-rule="evenodd" clip-rule="evenodd" d="M12.373 140.296c1.418-1.946 1.037-11.052 3.428-12.288l.546.449c.19-.119.664-2.476.664-2.476.298.306.606.377.925.212.08-.209-.305-1.076.183-1.224-.707-.031-2.338-.275-1.59-.85l.417.16c.411-.944.404-2.048 1.242-2.732.25-.527.31-4.049.201-4.139a1.64 1.64 0 01.488-.148c.165.319.36.601.585.848.889-1.192 1.071-2.415.586-3.272l.01.099c.297-3.143 1.043-13.062 1.033-13.161.427.26 1.001-2.107 1.149-1.619-.61-2.151-.387-3.981.017-6.03 1.612.045.98-1.3 1.31-2.036.276.777.443 1.464.232 2.389.383.499.823.891 1.32 1.178-.313.231-.641.296-.986.196.364.3.815.457 1.352.472.209.08-1.146.613-1.246.623.107 1.095 1.265-.424 1.66.542-.404-.028-.723.137-.956.495 1.64.343 1.13 1.297 1.188 1.894-.417-.16.234-1.731-.973-.71l1.587 1.856a1.783 1.783 0 00-.777.276c.417.161.427.26.427.26.066-.006.136.02.209.08-.6 1.063 1.137 2.402.836 3.436-.01-.1-2.447-.366-2.547-.356.228.279 1.507 2.064 1.728 1.239-.027.404.048.832.225 1.284.032-.706 1.452.462 1.172.69-.317-.17-1.152-.491-.459.446a3.384 3.384 0 00-.973-.709c-.16.418.57 2.758.518 3.265.061-.407-.478.248-.468.347-.023.806-.215 1.93-.276 2.338-.15.517-1.237 7.957-2.598 7.386-.132.716.107 4.209-.554 5.68.578-.257.89-1.192 1.637-1.767a2.53 2.53 0 00-.24.626c.558-.456 1.116-.912 1.685-1.268-.86 1.49-2.038 2.81-2.48 4.46a5.717 5.717 0 00-.396-.966c.013.133-.04.272-.16.417-.517-.15-.668.367-.546-.449-1.227.822.366.668.404 1.066-1.451-.462-.304 2.039-.394 2.148-.218-.18-.497-.287-.835-.321a.694.694 0 00-.131.716c.272.041.55.148.835.321-.308-.071-1.84-.324-2.058-.503.674.738.684.837.433 1.364.418.16.806.022 1.195-.116-.186.152-.34.301-.46.447.127-.08.223-.123.29-.129-1.146.614-1.486 1.249-2.613 2.062-.013-.133.04-.272.16-.417-.18.218-2.022.899-1.566 1.458.289-.129.638-.665.728-.774.127-.079.25-.192.37-.337-.53.754-.113.915-.084 1.213-.029-.298-2.356 2.64-1.957 2.602-.1.009.828-.784.908-.993l-.34.636c.06-.073.156-.116.289-.128a.652.652 0 00-.27.327c.559-.456 3.67-2.566 1.656-1.567.107-.279.25-.527.43-.745l-.558.456c.27-.328.54-.655.629-.765-2.224 1.924-.26.428-.588.158.1-.345.344-.603.729-.774-.62.864.588-.158.838-.684-.24.626 1.335-.733 1.406-1.041-.306.298-.579.592-.819.883.26-.427 1.188-1.22 1.557-1.557.047-.206.097-.378.15-.517l-.009-.1c.051-.507.212-.925.562-1.461.404.028.53.283.376.767.276.777 1.386-1.24 1.367-1.439.039.398.26.611.665.639 0 0-1.457 1.548-2.366 2.541-.02-.2-.075-.429-.167-.688l-.01-.099-.09.109c.06-.073.087-.142.08-.209-.286.497-.576.961-.869 1.391l.32-.835c-.359.437-.888 1.192-1.338 1.738-.385.171-.561.422-.53.754.18-.218 0 0 .02.199.473-.648.943-1.33 1.41-2.045-.88 1.291-.43.745-.071.308-.62.864-1.079 1.31-1.38 2.344a7.12 7.12 0 01.79-1.182c-1.031 1.808-.71.973-1.73 2.881.478-.247 1.007-1.002 1.428-1.847l.01.1-.01-.1.09-.109c.26-.427.52-.854.67-1.371.066-.007.096-.043.09-.109l.1-.01.01.1c-.17.317.33-.736.58-1.262-.1.344-.204.656-.311.934-.389.138-.35.536-.122.816l-.141.616a1.26 1.26 0 01.25-.527c.347.469 1.262.581.94-1.698.848-.585 2.312-1.029 2.511-1.048.013-.905.668-.366.88-1.291 0 0-.125 1.821.533 1.355.044-1.612.933-2.803 1.948-2.701.186-.152.2-.354.042-.607.41.094.602.344.574.748 1.188-1.22 3.486-4.458 5.852-3.884.562-1.461 2.055-1.606 3.898-2.287.16-.417.49-1.153.59-1.162.159.252.28.475.366.667l.623-1.869c.427.26.764.63.783.829.715.466.941.377.678-.267.01.099.594.947.636.34.06-.408-.376-.767-.694-.937 1.949.413 2.764-2.579 5.492-3.447-.353.503-.709.973-1.068 1.41-.1.009-.09.109-.061.407.806.023.629-.764.957-.494-.27.327.414 1.165.475.757.267-.695.148-.885-.357-.568a1.28 1.28 0 00.42-.844c.29-.129.858-.486 1.047-.604.12.189 1.86.522 2.168.593-.935-.311-.874-.719-.514-1.156l.1-.009.269-.328s1.082.799 1.39.87a5.493 5.493 0 01-.366-.668c.517.151 2.488-.242 2.498-.142-.09.109-.998 1.101-.224 1.83.205-2.029.494-2.158 1.499-2.155l.27-.327c.006.066.045.129.118.189.209.08.36-.437.34-.636.039.398 1.156-.514 1.345-.633-.121.816-1.149 1.619-1.02 1.908.973.709 1.518-1.956 1.817-1.985.025.265.174.418.446.459.141-.617-.177-.787.62-.864.01.1.363 1.673-.324 1.84.233-.358.267-.696.102-1.015-.392.105-.667.366-.828.784l.164 1.692a1.073 1.073 0 00-.578.257c-.793-.928.1-.01-.915-.112.306-.298.34-.636.103-1.015.148.488-1.005-.003-1.506 1.051.112-.915-.703-1.037-.764-.629.01.099-.59 1.162.414 1.165-.388.138-.985.196-.947.594-.825-.221.222-.825-.834-.321-.668.367.356.569.375.768-.212-.114-.338-.034-.378.237a1.278 1.278 0 00-.575-.747c-.326.098-.505.316-.54.655-.109-.09-1.12-1.198-1.42-1.169a3.083 3.083 0 01-.015 1.911c-.128-.289.003-1.005-.545-.45-.17.318 1.348 1.477.86 1.625-.462-.625-1.101-.998-1.917-1.12-.863 2.495.02.199.164 1.692-.834-.321-3.993 1.292-3.814 1.074-1.611-.045-1.418 1.946-2.686 3.375-1.21-1.088-3.406 1.134-4.463 1.639 2.248.384-1.017.902.344 1.473-.252.159-.428.076-.526-.25-.193.086-.286.162-.28.228.161-.417.331-.735.321-.835-.308-.07-1.361-.571-1.74-.333 1.214.083-.452 1.551-.622 1.869.278.107.463.29.555.549.061-.408.44-.646-.147-.488a3.22 3.22 0 01.459-.447c.664.639-.103 1.015-.225 1.831-.404-1.066-1.094.106-1.303.026-.138-.389-.078-.797-.864-.62-.16.418.424 1.265-.87 1.391l.122-.816c-.08.209-1.941 3.806-2.022 4.014-.019-.199-.841-1.425-1.024-.202.2-.019.401-.005.607.042-.353.503-.785.88-1.297 1.13-.058-.597-.385-.866-.864-.619-.805 3.092-8.544 9.269-12.172 11.229-6.822 2.169-5.98-3.639-5.75-7.48zm11.087-7.908l.01.099c.052.531-.139.985-.571 1.362.154-.484.341-.971.561-1.461zm.177.787l.02.199c-.37.337-.64.664-.61.963a6.567 6.567 0 00-.33.735l-.11-.089c.1-.345.198-.723.292-1.134.1-.01.369-.337.738-.674zm14.204-1.681c-.006-.066-.046-.129-.119-.189.007.066.047.129.12.189zm1.368-1.439c-.151.517 1.15 1.496-.742 1.68.09-.109.411-.944.742-1.68zm-.245-1.483c.119.189.328.27.706.032a2.935 2.935 0 01-.706-.032zm10.817-10.695c-.066.006-.066.006 0 0zm-9.788 5.772l-.1.01c-.07.308-.15.517.1-.01zm-16.927 10.887c.06-.073.063-.039.01.1l-.01-.1zm-.09.109c.067-.006.097-.043.09-.109l-.09.109zm.09-.109l-.02-.199c.06-.073.117-.179.17-.318a3.888 3.888 0 00-.15.517zm2.272-4.541c.066-.006.066-.006 0 0zm-3.177 4.529c.107-.279.247-.56.42-.845-.107.278-.247.56-.42.845zm.879-1.291c.06-.073.087-.143.08-.209.066-.007.096-.043.09-.109a1.17 1.17 0 01-.17.318c.06-.073.087-.143.08-.209.19-.119.1-.01-.08.209zm-.7 1.072c.007.067-.02.136-.08.209-.22.49-.444.947-.67 1.371l-.09.109c.59-1.162.33-.735.15-.517.61-.963 1.03-1.808 1.46-2.553-.17.318-.42.845-.76 1.481l-.01-.1zm.321-.835l-.27.328.27-.328zm-4.164 1.61c.09-.109.19-.119.2-.019l-.2.019zm1.137-.713l-.1.01.1-.01zm3.409-2.139l.19-.119c-.06.072-.124.112-.19.119zm0 0l-.01-.1.01.1zm.262-4.547c-.138-.388-.366-.668-.505-1.056-.449.546.267.677.505 1.056zm-3.327-12.537c.029.298.337.369.167.687-.073-.06-.136-.02-.19.119 0 0 .071-.309.023-.806zm-1.66 9.806l-.2.019c.309.071.508.052.2-.019zm4.715 7.178c-.289.129-.578.257-.876.286.252-.158.544-.254.876-.286zm-1.22 1.927a18.08 18.08 0 001.089-1.211l-.01-.099-1.078 1.31zm1.601-6.284l-.11-.09c.007.066.044.096.11.09zm-3.356-12.836c.006.066-.02.136-.08.209-.007-.067.02-.136.08-.209zm28.495 7.883l.1-.009c-.03-.299-.02-.199-.1.009zm-3.13 1.912c-.11-.09-1.612-.045-1.464.443.565.649.37-.337 1.464-.443zm-22.053 7.767c.01.1-.07.308-.16.418l.16-.418zm-2.526 2.958c.09-.109.18-.218-.558.456-.46.447.298-.029.558-.456zm-1.704 1.07c-.35.536-.89 1.191-1.258 1.529l1.258-1.529zm1.624-.861c-.06.073-.086.142-.08.209.06-.073.087-.143.08-.209zm-.08.209l-.18.218c.067-.006.13-.046.19-.119l-.01-.099zm-.71.973c-.439.645-.869 1.39-1.408 2.045.18-.218.369-.337.299-.029.17-.318.898-1.092 1.437-1.747.212-.925.85-1.589-.318-.17l-.01-.099zm.328.269c.18-.218.357-.47.53-.754a4.84 4.84 0 01-.53.754zm-.327-.269c.173-.285.35-.537.53-.755-.313.231-.49.483-.53.755z"/><path d="M59.863 117.199c.716.132 1.07 1.705 1.136-.713-.3.364-.678.602-1.136.713zm-6.612-1.87l.607.042c.08-.209-.645-.44-.607-.042zm-1.614.961c.08-.209.606.041.459-.447.048.498-.508-.051-.46.447zm2.813 4.147c.238.379.29-.128.588-.157-.19.119-.726-.231-.587.157zm-3.394-2.885c-.398.039-.75-.128-1.053-.501-.088.478.05.866.414 1.166-.119-.19.289-.129.639-.665zm-2.379.331c.19-.118.886-.186.809-.982l-.81.982zm3.064 3.621c.039.398-.549.556.296.976.094-.411-.005-.736-.296-.976zm-.825-.221c-.028.404-.059.776-.093 1.114.06-.408.131-.716.093-1.114zm-8.589.532c-.029-.298-.636-.34-.228-.279.029.299.546.449.228.279zm3.643 3.364c-.21-.08-.55.556-.72.874.17-.318.947-.595.72-.874zm-11.271 9.132c-.02-.199.18-.218.06-.408-.109-.09-.17.318-.06.408zm-12.179-.224c.1-.01.35-.537.42-.845.17-.318 0 0-.42.845zm.59-1.163c-.099.01-.09.109-.18.219l.18-.219zm-.738.675l.53-.755c-.08.209-.18.218-.53.755zm.53-.755c.066-.006.13-.046.19-.119l-.19.119zm-.639.665c.366-.371.699-.738.998-1.102-.369.338-.629.765-.998 1.102zm-4.629 4.066c.26-.427.36-.437.43-.745-.828.784-.07.308-.43.745zm5.229-5.129c.649-.565-1.435.742-1.624.861.536.35 1.066-.405 1.823-.88-.289.128-1.695 1.169-.199.019zm-3.621 3.064c.32-.165.565-.39.739-.674 0 0-1.606 1.06-.739.674zm-2.469-9.908c.1-.009.11.09-.237-.378-.59 1.162.058.597.237.378zm2.958-7.822c-.315-1.175-.305-1.076-.553-1.554-.23.726.168.687.553 1.554zm4.395-23.032c.2-.02.389-.139.488-.148-.228-.28-.398.038-.488.148z"/></g><defs><clipPath id="clip0_28_35736"><path fill="#fff" transform="rotate(84.455 99.747 110.561)" d="M0 0h132v201H0z"/></clipPath></defs></svg>