<svg width="241" height="127" viewBox="0 0 241 127" fill="none" xmlns="http://www.w3.org/2000/svg"><g clip-path="url(#clip0_28_35730)" fill="#100F12"><path d="M224.644 114.906c.824.014.148-.167-.161-.561l.161.561zm-.161-.561l.007-.412c-.148.167-.077.29-.007.412zm.563-1.712c.065-1.018-.764-2.172-1.692-1.8.914.452.578 1.708 1.692 1.8zm-1.823.236c-.168-.149-.328-.709-.882-.961.253.344.547.664.882.961zm-.89-4.794c-.111.799-.619.766-.775 1.346.566.979 1.437-.34 1.925.929.149-.167-.319-2.673-.319-2.673-.215.287-.492.42-.831.398zm-35.849-36.212c-.065-.017-.088-.058-.071-.123-.026.097-.052.194.071.123zm7.589 4.518c.077.228.131.415.16.56a.55.55 0 00-.16-.56zM161.746 57.16c-.24-.134-.465-.194-.676-.182.361.2.554.252.676.181zm16.343 10.486c-.094-.163-.206-.262-.335-.296.095.163.206.262.335.296zm38.332 28.492c-.019-.315-.186-.464-.379-.516-.052.194.089.439.379.516zm-4.784-6.872c.122-.07.122-.07 0 0z"/><path d="M216.042 95.623c.215-.288.342-.633.381-1.037 0 0-1.378-.266-1.784-.685-.793 1.03.849 1.47 1.403 1.722zm-29.41-23.928c-.077.29.212.368 0 0zm3.895 2.079l-.335-.296c.071.122.142.245.335.296zm10.814 11.801l.026-.096c-.123.07-.026.096-.026.096zm-11.149-12.097c.026-.097-.045-.22-.238-.271.112.099.191.189.238.27zM48.665 35.245c.292-.06.59-.014.895.136.278-.65-1.107-.503-1.404-.169 1.075 1.013.335.297.51.033zm64.517-3.935s.323-.432-.327-.71c-.061.743-.324 1.466-.789 2.17 1.147-.417.104-.386 1.116-1.46zm-53.531 1.185a.888.888 0 01.413.007c-.264-.175-.387-.104-.413-.007zM168.16 47.904c.147-.03.316-.019.509.033-.264-.174-.386-.104-.509-.033zm-73.385-8.172c.233-.87-.193-.052-.695-.497-.18.159-.329.326-.445.502.403.04.783.038 1.14-.005zm20.891-6.101c.702.085 1.378.266 1.958.421-.335-.297-1.661-.755-1.958-.42zM218.5 108.083c-.471.599.443 1.051 1.951.834-.815-.564-1.418-1.277-1.808-2.141-.039.404-.086.839-.143 1.307zm4.159-3.544c-.296.335-.728.012-.426.818.151-.305.293-.578.426-.818zm-5.462-11.299l.225 1.096c.508.033.362-1.352-.225-1.096zm-3.757 7.069c.528.348-.136.895.785.935.091-.597-.171-.909-.785-.935zm2.195-9.351c-.876.18-.321-1.12-1.126-.82.386.104.391 1.245 1.126.82zm-6.029 5.114c-.497.695.424.735.681 1.322-.309-.394-.121-1.482-.681-1.322zm.866-8.257c.735-.424 1.339 1.187.187.464.48.267.952.566 1.416.897-.343-.782-.29-1.493.157-2.132-.837-.224-1.424.033-1.76.771zm-1.792 7.077c-.091.597-.027 1.132.191 1.604.419-.405.749-1.248.826-1.538.033-.509-.734.424-1.017-.066zm3.424-8.917a4.59 4.59 0 00-2.304-1.446c.257.587 1.235 1.573 2.304 1.446zm-3.91 6.095l-.858.495c-.141-.245 1.423.485.914.452-.572-.567.471-.598-.056-.947zm-3.581-.545c.888.548.612-.354 1.224-.707-.304-.15-.6-.334-.888-.549l-.336 1.256zm1.104-2.189a20.673 20.673 0 00-2.01-.228c.87.233 1.501.195 2.01.228zm-7.073-16.492c.342-.116-.172-1.289.033-.51-.341.116-.188 1.09-.033.51zm-5.051 6.1c.625.374 1.622 1.677 1.944 1.246.033-.51-1.39-.994-1.944-1.246zm-19.707-13.77l-.219.045c.081-.047.154-.062.219-.045zm0 0c.457.226 1.442.8 1.957.421a20.088 20.088 0 01-1.957-.42zm-3.733-3.07c.438-.09.651.277.754-.109-.019-.316-.773-.207-.754.109zm-28.915-27.315c-.502-.445-.844-.33-.903.276.677.181.394-.309.903-.276zm-4.746-1.996c-.315.019-.508-.033-.341.115.026-.096.148-.167.341-.115zm-.669-.593c-.277.65-1.218.294-.291 1.474.464-.186-.347-1.024.291-1.475zm-4.471.458c-.714-.813.832-.398 1.077-.54-2.324-1.761-2.74 1.337-4.389 1.309 1.732.878 1.8-1.692 3.312-.77zm-.014.824c.264.175.566.98.985.575.252-.554-.617-.787-.985-.575zm-4.363-3.032c-.271.238-1.141.005-.664.546l.664-.546zm-3.833.008s-.881-.961.136-.895c-.457-.226-1.425 1.067-.136.895zm-6.912-.092l-1.069.127c.167.149 1.23.434 1.069-.127zm.51 4.278c-.772-.207-.624-.375-1.545-.414.179.876.921.04 1.545.414zm-1.269-5.31c-.063-.534-.888-.548-1.017-.065.296-.335.728-.012 1.017.065zm-4.845 1.083c1.63-.288 2.706-.828 3.622-1.928-1.036-.381-.793 1.03-1.566.823-1.852-2.36-1.114-.092-2.056 1.105zm4.088 2.131c-.606-.059-1.296.584-1.077.54.391-.172.75-.352 1.077-.54zm-9.485-2.852c.292-.06.593-.152.902-.276-1.473.088-1.774.18-.902.276zm.084-.702c-.219.044-.431-.323-1.095.224a6.974 6.974 0 001.095-.224zm-.45-.639c-.292.06-.625.143-.998.25.412.007.657-.134.998-.25zm-2.525.152c-.473.218-.9.138-1.282-.24l.283.49c.416.25.749.166.999-.25zM91.734 40.263c.562.22.663-.03.304-.747-.07.258-.17.507-.304.747zm-1.319-.871c.664-.547-.542.476-.69.643a6.886 6.886 0 002.075-.79 7.522 7.522 0 00-1.385.147zm-20.827.838a1.775 1.775 0 00-.014.825l1.173-.514c.631-.038.464-.187 1.644-1.113-.864.39-1.798.657-2.803.802zm2.386 19.688l.263.175c.278-.65-.044-.22-.263-.175zm0 0l-.168-.148c.03.146.086.195.168.148zm-1.539-.826c.42-.405.817.426 1.147-.417-.257-.587-.914-.452-1.147.417zm-.875-1.373c.026-.097-.414 1.545-.227 2.01 1.474.291.228-2.01.228-2.01zm-24.333 3.108l-.097-.026s.071.122.097.026zm4.028-1.509c.111.099.19.189.238.27-.03-.145-.11-.236-.238-.27zM31.73 62.904a1.262 1.262 0 00-.561.16c.315-.018.438-.09.56-.16zm9.173-.234c-.112-.099-.2-.157-.264-.174.111.099.2.157.264.174zm22.372-6.221c-.07-.123-.193-.052-.219.045.07.122.141.245.219-.045zm-.219.045l-.18-.877s-.819 1.127-.845 1.223c.65.278.457.226 1.025-.346zm-17.874 4.114c.045.219.167.148 0 0zm2.101-.887l-.193-.051s.07.122.193.051zm7.31.924l.026-.097-.026.097zm-7.696-1.027l.193.051c-.097-.025-.167-.148-.193-.051zm-1.469-26.586c-.614-.027-.649.102-.104.386.15-.305.28-.27.387.104 0 0-.797-1.663-.283-.49zm-3.554 3.603l-.122.07c.096.026.193.052.122-.07zm-9.945 15.866c.034-.128.092-.216.174-.264-.146.03-.204.118-.174.264zm-8.522-11.083c.714.813-.168-.148.509.033-.064-.535-.135-.657-.51-.033z"/><path fill-rule="evenodd" clip-rule="evenodd" d="M14.305 51.817c.76-.004 1.186-.304 1.277-.9a3.906 3.906 0 01-.695-.497c-.116-.342 3.82-4.982 4.238-5.387.542-.476 3.663-2.85 3.766-3.236.142.245.315.499.52.761.317-.019 1.64-2.252 1.781-2.008.137.52.472.817 1.004.89.148-.167-.12-1.481.864-.907-.167-.148-2.85-2.11-1.685-2.211.095.163.221.335.38.516 1.005-.663 1.29-1.725 2.65-1.775.184-.434.045-.816-.418-1.147.921.04 1.453-2.717 2.398-1.221.18-.676.077-.29.619-.766 1.332 1.6 2.54-.976 3.015-.434.185-.434.12-.831-.198-1.192-.516.38-.155.58-.381 1.036-.095-.163-.191-.189-.29-.077.645-.863-.514-1.173.97-2.846.864-.907 3.05-2.496 3.958-3.184 1.206-1.023 2.759-1.021 1.988-2.78 1.236.02 1.82-2.93 2.637-2.503-.086.322.032.526.354.612-.778-1.347 2.01.228 1.187-1.338.502-.073.83.119.985.574.814-2.266 2.458-3.379 4.868-3.872.673.319 1.33.702 1.97 1.15.026-.615.361-.835 1.005-.663l.283.49c-.605-.059-1.566.822-2.101.886-.464.187.358 1.753.28 2.043a2.654 2.654 0 01-1.196-.942c-.42.405 1.068 1.425.964 1.811-.052.193-1.68-1.071-1.68-1.071-.716.74 1.557 1.142 1.299 2.108-.365-.443-.822-.67-1.372-.678a9.1 9.1 0 01.687 2.461s-1.332-1.599-1.428-1.625c.758 1.032-.299 1.887.46 2.919-.27-.28-.622-.512-1.056-.697.707 1.224-.174.264.47.954-1.044.03-.487 2.975-1.1 3.329-.141-.245-2.431-2.515-2.625-2.567-.007.412.383 3.208 1.344 2.327-.026.096-.44 1.642-.138 2.447-.36-.2-.554-.252-.42.406-.765-.62.181-.676-.655-1.418-1.321.681.307 1.946-.19 2.64-1.884 2.395-.695-.496-1.34.366-.323.431-1.743 2.64-2.063 1.518-.627 1.178-4.884 6.249-6.241 4.746-.175.264.591.883.61 1.2 2.32-.932 3.36-3.656 5.744-4.052-.122.07.963 3.364.956 3.776.67-.96.647-2.415 2.058-2.658-.231-.683-.665-.868-1.3-.556.54-.476 2.724-.512 2.887-1.504-1.296.585-.081-2.402.692-2.195.042.356.02.695-.066 1.017.614.027 1.054-.2 1.321-.68.392 1.243-1.392.558-.833 1.95 2.261-.326 3.005-2.715 5.028-3.311 1.463-.437.915.452 2.545.164 3.067-.628 4.388-1.31 6.894-1.776 1.315-.27 14.798-1.522 15.564-.903l-.424-.735c.181-.676 4.626-1.038 5.644-.972 1.114.091 2.047.86 3.213.757 1.14-.005 1.715-.99 3.267-.988-.791-.522.665-.546.91-.688-.091.597-.35 1.045-.775 1.346 1.687.659 2.084-2.755 3.427-.428a1.79 1.79 0 00-1.095.224c.656.383 1.376.403 2.158.06a1.986 1.986 0 00-.521-.76c.483.13 2.79.023 2.886.049 1.043-.031 1.47-.849 2.365-.713.398.832-.872 1.32.655 1.418 1.623.125.143-1.307 1.554-1.55.18.876-.154 1.477-1 1.802.867.37 1.036.899.507 1.585 2.378-1.536 7.356-.41 7.193-3.663a7.009 7.009 0 001.095-.224c.335.297-1 1.803-.247 1.694.877-.18 1.43.073.704-1.468.837.742 1.199-.61 1.772-.043-1.385.147.603 1.611-1.116 1.461-.033.509-.201.36-.608 1.494a23.07 23.07 0 002.403-.081c-.329.843-1.333-.047-1.856.745.528.348 2.203.28 2.408 1.06 0 0-2.054-.448-1.797.139.327.709.429 1.875 1.55 1.554.838-.81-.495-.857-.836-.742-.013-.21-.002-.38.032-.509.915.453 3.963-.49 4.58.296-.356.042-.754.108-1.192.198-.002 1.553 3.888 2.491 3.741 1.106l-.631.038c.331-.463.688-.506 1.069-.128-.115-.341.44-1.642-.448-2.19-.523.791-1.959 1.131-2.867.267.363-1.352 1.475.291 2.655-.635-1.501-.195 1.297-2.137 2.096-2.026a5.52 5.52 0 00-.768.933c1.353.362 1.567-.823 2.353-1.44.747.303 1.339 1.187 2.305 1.445.843.33.909-.688 1.637-.7-.465.704-1.077 1.058-1.838 1.06.194.053.176.117-.051.194.476.542 1.752-.358 2.035.131-.379-.515-5.163 2.654-6.346.888-.336.738-.324 1.466.036 2.184.857-.495 7.771-1.955 8.023-2.51-.138.516.085.714.669.594-.262.206-.516.38-.761.521.904 3.97 6.12-.43 7.852.447.179.877-1.559.41-.897 1.417 2.003.64 3.208-.383 3.648-2.025.223.198.455.363.695.497-.309.124-.61.216-.902.276.283.49.714.812 1.294.967l-.542.476c1.197.942 3.15.223 4.754.032a6.71 6.71 0 00-.573-.568c.305.151.601.334.889.549.779-.205-.347-1.025.741-.837-.909.689.708 1.225.378 2.069-.558-.495-1.011-.478-1.359.05 1.133.407 2.927 3.372 2.178-1.177.368-.212.866 3.338.569 3.673a10.692 10.692 0 014.175-.124l-.542.476c.876-.18.669.593 1.642.44.082-.047.099-.112.052-.193 1.461 1.116 6.844 2.662 8.408 3.392 2.286 1.13 3.631 1.904 5.201 3.774.507-.347.471-.598-.109-.754 2.139-.255 1.84 1.632 3.489 1.66-.831.398-1.719-.15-2.268.738 0 0 7.845.86 7.179 2.959.352.232.676.181.973-.154.377.654.16 1.079-.652 1.275 2.768 1.26 12.774 4.872 12.653 9.188 2.249-1.054 5.811 4.974 7.406 6.747.895.136 1.939.105 2.363.84-.279.27-.55.508-.812.714 1.24.264 2.496.6 3.767 1.01-.357.042-.619.248-.787.617.24.133.472.299.695.497-.869-.233.09.438-.805.302-.865.907 1.053 2.249.9 1.276.09.438-.076.67-.497.695.655 1.418 1.604-.191 1.496-.945 1.064 4.53 7.73 4.763 9.965 10.331-.966-.258-2.052-1.999-2.973-2.039l.334.297c-.287-.215-.641-.31-1.062-.285.309.394 1.402 1.722 1.473 1.844-1.101-.916-.349.528-1.173.514.528.349 1.595 1.774.831-.398.316-.02 3.617 2.729 3.617 2.729.071.122-1.404-.17-.864.907.443 1.05.957 2.224 1.278 3.345a3.651 3.651 0 01.44-1.642c.253.344.613.544 1.081.6a1.885 1.885 0 00-.605-.058c.33.571.787.797 1.371.677.214.748-.016.962-.69.644 1.105 2.056-.174.264.229 2.235.28-.27.568-.572.864-.907.135.657 1.766 4.614 1.882 4.956-.399-.831-2.743-1.356-3.079-.1 1.494.607 1.675-.07 2.615.286.528.349 1.069.39 1.623.124.021.696.327 1.227.919 1.593a3.907 3.907 0 00-.716.74c.335.296.528.348.625.374-.082.047-.149.167-.2.36-.007.413.984.575 1.204.53-.271.238 1.44 2.353 1.897 2.579-1.334-.047-3.264-2.117-3.779-1.737-.499 2.247 4.203 2.472 4.505 3.277-.456.154-.639.451-.549.889 1.256.336 1.366-.462 1.944 1.245-.483-.129-2.468 1.099-3.053-.197.528.349 1.045.349 1.552.002-.342-.782-.924-1.317-1.743-1.606-.285 1.063-2.043.281-2.655.635-.09-.438-.334-.814-.733-1.128.845-1.223-.097-.026-.429-1.875.245-.142 1.68 1.071 1.623.124-.368.212-1.608-2.501-2.741-2.909.468.057.919.178 1.352.363-.598-.471.228-2.01-.886-2.101l.038.631c-.201-.537-.56-.874-1.075-1.013-.618.249-.804.682-.555 1.301-.566-.98-1.992-4.157-2.56-3.585.382.379.369.686-.039.921.593-.669-.58-.155-.67-.593 1.765.37-.325-2.261-.589-2.436.039-.92.193.052-.224-1.095.782-.343 1.179-.926 1.193-1.75-1.017-.066-2.223.957-3.156.189l.928-.373c-.397-2.383-1.882.842-2.231 1.37-.122.07.546-3.581.07-4.123-1.551-1.554-1.753.359-2.629.538-.166-1.7-3.769-5.254-3.839-5.377-.238-.27-1.756-2.334-.745-1.856-.328-.709-2.337-.936-1.165-1.45-.186-.464-.193-.052-.308-.394-.193-.052-1.32-.87-1.32-.87l.038.63c-.502-.445-1.55-1.554-2.13-1.71-.747-.303-2.203-.279-3.065-.924 2.162-3.044-2.553-3.997-4.303-5.19-.431-.323-1.818-4.422-2.701-3.83.196.812.498 1.617.905 2.416-.528-.348-2.653-.917-2.641-.19-.463-.33-.473-.678-.03-1.043-1.403-1.722-2.193 2-4.173-1.429.573.568 5.39 1.134 5.416 1.038.123-.071-.731-2.681-.995-2.855.161.56-1.269.488-.355.94-1.378-.266-2.189-1.104-3.515-1.563 1.081.6-1.006.662-.678 1.371.426-.818 1.726-.262 2.183-.036-.374.624-1.449-.388-.961.881-1.185-.214-3.534-1.878-3.661-2.948l.824.014a9.086 9.086 0 01-.603-1.611c-.966-.259-1.927.622-3.303-1.196.959.671.715-.74 1.578-.094-1.009-2.03-3.833.008-5.404-.31-1.308-.143-1.815-1.728-3.296-1.608.56-.16.395-1.86-.771-1.76.124.31.239.652.346 1.026a7.026 7.026 0 01-3.148-1.776c.168-.369.463-.566.884-.591.8-1.442-1.836-.492-1.642-.44-1.108-.504-3.838-1.132-5.473-1.984-4.571-2.26-9.271-4.037-13.972-5.814-7.765-2.702-13.824-4.43-21.893-6.384-6.112-1.535-9.139-1.828-14.583-1.216-2.016.184-2.647.222-4.483-.27-.869-.233-4.16-.7-4.502-.585.168-.369.36-.697.575-.985-1.133-.407-2.5.055-3.665.157l.296-.335c-.785-.417-1.563-.35-2.332.204.56-.54.56-1.058.002-1.553-.297.335-2.25 1.054-2.622.126.02.316 1.29 4.073-.925 3.065.07-.257.097-.492.085-.702-.743-.06-1.362.187-1.856.745-1.16-.31-4.083-.99-4.933-.908.219-.044-6.864 2.82-6.075.65-1 .25-1.534.314-2.057 1.106a3.91 3.91 0 01-.695-.497 14.829 14.829 0 001.503-1.358c-1.089-.188-5.901.386-5.798 0-.73.15-1.181.546-1.354 1.19.728-.012 1.244-.391 1.979-.816-.052.194.027.284.238.271-1.463.436-.556 1.3-1.046 1.584-2.327 1.343-5.785.727-8.336.975-3.28.26-4.956 1.882-7.76 2.683-.437.09-3.349.138-3.033.12-1.682.48-8.116 5.175-9.313 4.233l.348-.528c-.638.45-5.45 1.024-4.542.336-1.399.971-3.01 1.575-4.486 2.836.85-.083.605.058.81.838.104-.386-.082-.85.31-1.16.013.729.11.755.529.35-.078.289-.93 1.924-.325 1.983.782-1.758 2.226-2.51 3.107-1.549.292-.06.417-.268.374-.624.3.425.317.878.05 1.359a7.724 7.724 0 012.134-1.395c1.35 1.914 3.653-.885 5.068 1.565a7.3 7.3 0 01.407-1.134 10.807 10.807 0 004.12 1.622c.42-.405.987-.978 1.155-.83l-.066 1.018a66.411 66.411 0 011.606-1.743c.276.902.674 1.733.842 1.882-.052.193.05 1.359.301.805.323-.431.214-1.185-.069-1.675.447.396.802.87 1.068 1.425.44-1.642 3.72-1.902 5.625-1.288a8.464 8.464 0 01-1.76.77c.026-.096-.155.58.032 1.044.292-.06.449-.259.47-.598.045.22.154.973.05 1.36.245-.142.78-.206.207-.774.374-.106.654-.377.839-.81.206.262.33.571.372.928.316-.02.433-1.23.865-.907-.168-.149.964 1.81 1.369 2.23-.424-.735-.269-1.314.37-1.764-.117.175-.224.32-.323.43.403.04.648-.102.734-.424.02.316.526 1.901.72 1.953a5.307 5.307 0 01-.005-1.14c.45.638 2.233 1.323 2.207 1.42-.393.309-1.45 1.164-1.226 2.26.69-.644 1.754-1.912 1.723-2.955.219.472.5.582.844.33a19.79 19.79 0 00-.04.92c.163-.094.262-.206.297-.334.047.081.077.227.09.438.14.245.593-.67.593-.67.39-.17.55.01.476.542l.98-.565c-.504 1.107-1.767 1.183-1.851 1.885.23.683 2.023-.597 1.778-.456.58.156.388-1.448.82-1.126a.95.95 0 00.179.877c.026-.097.503-1.108.6-1.082 1.571.318-.673 2.511-.744 2.389.344-.253.512-.622.504-1.107-.302-.806-1.865 2.71-1.89 2.806-.176-.116-.378-.136-.606-.059.148-.167.652-1.275-.057-.947-.15.305-.378.382-.683.231.408-.235.608-.596.6-1.081-.116.176-.296.334-.541.476-.67-.594.937-2.337-1.334-.047.452-.914.716-.74.002-1.552.238.27-1.74 1.086-.614 1.906-.386-.104-.94-.356-1.192.198-.124-.31-.102-.649.066-1.018-1.128.733-.297.335-.652 1.275-.057-.947-.297.335-.535.064.12-.451.145-.928.072-1.43-.403-.04-.712.085-.928.372-.063-.534.278-.65-.405-.419.173-.644.143-1.307-.088-1.99a4.924 4.924 0 01-1.156 2.382l.233-.87c-.688-.909-.286 2.615-.673 2.512a5.072 5.072 0 00-.827-2.707c-1.877 1.982-.252.554-.885 2.144-.354-.612-3.426-1.125-2.995-.802 0 0-1.842-.08-.836-.742a.642.642 0 00-.613.353c-.612.354-.283-.49-.257-.586-.167-.148-.051.193-.193-.052-.702-.084-2.166 1.904-3.191 2.251-.045-.219-.924-2.732-1.51-2.475-.368.212-1.143 1.557-1.626 1.428-.65-.278-.276-.902-1.138-1.548-.631.038.283.49-.606-.058 1.416.897-.524 2.344-.293 3.027-.387-.104-.487-.372-.302-.806-.65-.277-.685 1.784-.737 1.977-.52.137-.92-.04-1.203-.53.508.033 2.715-2.792 2.187-3.14-.556 1.3-.714-.813-1.03-.794.856 1.057-1.116 1.46-1.606 1.744.342-.116-.02 1.236.05 1.359.033-.509.813-.714.259-.966.163-.094.359-.18.586-.257.076 1.263-.697 1.056-1.271 2.04a3.784 3.784 0 00-.462-1.366c-.104.387-.3.472-.587.257.13-.483.426-.817-.365-1.34-.271.238-.299 1.887-1.592.92.279-.271.494-.558.645-.863a1.256 1.256 0 00-.405-.42c-.349.528-1.68 3.174-2.17 3.457-.56.16-.636-1.102-1.332-.047.2-.36-.21-1.92-.733-1.128-.26.966.327.71-1.348.778 2.516-2.432-2.628.538-1.778.455-3.453.524-7.164.462-10.688.864-6.127.843-12.112 1.93-18.303 2.239 3.754-3.964 11.898-10.789 13.345-14.645zm46.272 3.495l-.026.096.026-.096zm-4.581 1.257l.122-.07c-.064-.018-.105.005-.122.07zm-9.035-2.214l-.096-.026c-.297.335-.446.502.096.026zM68.667 40.19c-.082.047-.155.062-.22.045.082-.047.155-.062.22-.045zm27.415-.315c-.064-.017-.064-.017 0 0zM197.536 79.69a3.88 3.88 0 00-.026.096c.064.017.073-.015.026-.096zm21.321 21.656l-.096-.026.096.026zm-12.714-17.073l.193.052c-.112-.099-.176-.116-.193-.052zm-12.691-15.616a1.299 1.299 0 00-.966-.259c.264.174.554.252.966.259zM150.933 39.56c.193.052.272.142.238.27a1.15 1.15 0 01-.238-.27zm-32.473-4.767l-.071-.123c-.017.065.007.106.071.123zm-7.696-1.027c-.065-.017-.056-.05.026-.097l-.026.097zm-17.703-4.64l.097.026-.097-.026zm-46.519 3.996c-.193-.052-.36-.2-.38-.516.071.123.213.368.38.516zm-15.918.29c.095.164.23.303.406.42l-.026.096a.964.964 0 01-.38-.516zm-3.564 7.12c.065.018.065.018 0 0zm-4.24 1.142c.065.017.088.058.071.122l-.07-.122zm31.64 18.314l.045.219c.226-.458.077-.29-.045-.22zm-4.116-.482c.123-.07.245-.142 0 0zm0 0c-.347-1.025-2.016.184-.786.617.025-.096.541-.476.786-.617zM201.477 84.68l.045.22c.632-.039.316-.02-.045-.22zm-7.521-7.088c1-1.803 1.826 2.456 2.214 1.007.026-.096-2.071-2.315-2.29-2.27l.076 1.263zM27.984 49.063c.393-.309.059-.605-.18-.876-.445-.396-.386-.104.18.876zm-2.836 1.31l.07.123c.123-.07.123-.07-.07-.122zm-1.766 1.184c-.726-.125-.98.048-.76.52.261-.205.515-.379.76-.52zm-2.636.95c.391-.171.79-.375 1.199-.61a2.58 2.58 0 00-1.199.61zm1.64 1.993l-.096-.026.096.026zm4.62-.626c-.292.06-.578.225-.858.495l.858-.495zm-4.364-3.033c.888.549 1.095-.224 1.147-.417-.468-.057-.85.083-1.147.417z"/><path d="M67.425 60.667c.257.586.205.78.391 1.243.507-.347.806-.819.897-1.416a1.637 1.637 0 01-1.288.173zm-4.721-6.338l.406.419c.2-.36-.25-.999-.406-.42zm.785 6.732c.245-.141.257.587.56-.16-.253-.344-.44-.29-.56.16zm-2.653-6.715c.149-.167.502.445.613-.354-.207.773-.432-.322-.613.354zm-.021 7.034c.012.728.29.078.624.374-.29-.077-.495-.857-.624-.374zm-1.236-5.818c-.382-.378-.528-.866-.437-1.463-.43.575-.594 1.187-.491 1.835.11-.798.805-.301.167.149.262-.206.516-.38.76-.521zm.656 5.663c-.984-.575.785.935.373.928.12-.45-.003-.76-.373-.928zm-2.652-6.715c.455-.154.817-.472 1.083-.953-1.052.064-1.413.381-1.083.953zm1.437 5.457a4.63 4.63 0 01-.137.895c.36.2.381-1.036.136-.895zm-1.67 1.209c.042.357.125.69.25.999 1.198-.61-.585-1.295-.25-.999zm-.85.083c.418-.405.715-.74.844-1.223-.25.416-.53.824-.845 1.223zm-6.64-7.679c-.103.386.277.901.187.463.078-.29-.398-.831-.186-.464zm-.009 7.761c.342-.115 1.115.092 1.05-.443-.14-.245-.779.205-1.05.443zm-10.939 1.417c.322.086.502-.072.542-.476-1.915 1.35-.549.888-.542.476zm-2.544-.164c.174-.264.341-.116.226-.457-.045-.22-.271.238-.226.457zm-11.711-21.98c.413.007.092-1.114.49-.283a5.252 5.252 0 01-.276-.902c-.232.352-.303.747-.213 1.185zm6.856-6.652c.287.215.46.469.52.76-.011-.727.047-1.333.08-1.842-.052.194-.381 1.037-.6 1.082zm19.805-13.639c.167.148.334.297.624.374.007-.412-.528-.348-.624-.374z"/></g><defs><clipPath id="clip0_28_35730"><path fill="#fff" transform="rotate(-165 119.409 48.605)" d="M0 0h229v69H0z"/></clipPath></defs></svg>