<svg width="164" height="179" viewBox="0 0 164 179" fill="none" xmlns="http://www.w3.org/2000/svg"><g clip-path="url(#clip0_27_34828)" fill="#100F12"><path d="M54 8.6l.7.8c.9.1-.1-.3-.7-.8zm0 0l-.6-.6c.133.2.333.4.6.6zm-1.6-2.2C51.2 5.1 48.7 4 48 4.5c1.8.2 3.2 1.8 4.4 1.9zm-3.5-.9c.7.2.9.5 1.5.2a86.728 86.728 0 00-1.5-.2z"/><path d="M50.8 6.7c-.333-.8-1.067-1.133-2.2-1l2.2 1zm-8.1-4.1c.1 0 2.3.2 2.1.7l-.8.2c.1 0 3.3.4 3.5.5-.1-1.6-4.6-1.4-4.8-1.4zM21 70l.2.2c-.1-.1-.1-.2-.2-.2zM10.1 56.9c0 .2.1.5.4 1a7.756 7.756 0 00-.4-1zm62.4 31.3c-.6-.1-1-.1-1.1 0h1.1zm-36.8-9.5c.333.2.6.367.8.5a5.252 5.252 0 00-.8-.5zM17.8 7c-.4.2-.733.433-1 .7.3-.1.7-.3 1-.7zm-7.5 6.6v-.1c-.133 0-.133.033 0 .1zm-3.8 5.2v-.1c-.067.067-.067.1 0 .1zM16.8 7.7c-1 .3-1.8.1-1.6 1.1-.667.467-1.233 1-1.7 1.6 1.3.2 2.7-1.9 3.3-2.7zm4 62.4c.1-.2-.4-.6 0 0zm-5.7-5.5c.133.2.3.4.5.6-.2-.2-.3-.4-.5-.6zM5.8 36.7c0 .066-.033.133-.1.2.1 0 .1-.1.1-.2zm9.8 28.5c.1.2.2.4.4.6l-.4-.6zm94.2 99.5c-.933-.4-1.6-.3-2 .3.4.1 2.6-.4 1.2.2 3-.5 1.3-.3.6-.9-1.1.4.5.3.2.4zM48.9 81.4c-1.2.2.3.9.1 2.1.8-2.7-.1.4-.1-2.1zm.7 1c.3-.3.1-.2.5-.7-.133.266-.3.5-.5.7zm38.1 81.3a5.587 5.587 0 00-.7-.3c.3.2.5.3.7.3zM68.8 95.3c-.333 0-.633.033-.9.1.5 0 .7 0 .9-.1zM57.9 68.9c.333-.2.633-.467.9-.8a11.02 11.02 0 00-.9.8zm-7.8 46.4c-.6-.3.2 1.9.5 2.2a25.98 25.98 0 01-.5-2.2zm4.6-41.1c-.7.6-2.3 2.3-2.2 3.1a124.77 124.77 0 012.2-3.1zM6 41.7zm59.9 18.7c0 .067.033.1.1.1l-.1-.1zm72 89.9v.2c.067-.067.067-.133 0-.2zM37.1 3.8c.667.133 1.3.3 1.9.5h-.6c1.5.5 2.5.5 3.9-.4-1.8.1-3.5-.2-5.2-.1zM36.8 1l1.4.2c-.6-.6-1.067-.667-1.4-.2zm-23 7.1c.6-.4 1.2-.767 1.8-1.1.5-.6-1.8.5-1.8 1.1zm8.7-.1c.7-.5 1.3-.4 2-1.1-.867.067-1.533.433-2 1.1zM9.6 11.9l-1.4 2.2c-.1.1 1.7-1.8 1.4-2.2zm4.7 2.6c.8-.4 1.5-.967 2.1-1.7-.8.4-1.5.966-2.1 1.7zM5 22.1c-.5-.4 1.2-3.4.5-.8.2-1 .5-1.967.9-2.9.2-.2-2.2 2.6-2.2 2.4 0 .4-.1 2.4.8 1.3zm7.9-6.2c.9.3-1.4-1.1-.3-.3.467.2.433.533-.1 1 .8-.534 1.533-1.1 2.2-1.7-.733 0-1.333.333-1.8 1zm-9.8 6.6c-.5 1.4-1.1 3.3-.9 4.9.5-1.3 1.3-3.5.9-4.9zm6.4-2.6c.267-.333.5-.667.7-1-.6 1-.6 0-1 1.1.133.133.3.267.5.4 1.1-1.7-.3.2-.2-.5zM8 24.3c-.133.533-.233 1.1-.3 1.7.2-.2 1.7-1.5 1.2-2-.333.2-.633.3-.9.3zm-1.2 3.4c.067.4.1.833.1 1.3v-2.9c-.3.5-.1 1-.1 1.6zM6.5 59c.4.1 0-1.5 0-.8-.4-.1.3 2 0 .8zm4-4.3c-.7-1-1.6-4-1.9-3.7.1.7 1.3 2.9 1.9 3.7zm30.2 26.6c1.133.4 2.3.666 3.5.8-.9-.2-2.6-1.1-3.5-.8zm52.1-22.2c1.2.7.7.1 1.6.6-.9-.9-1.6-1.1-1.6-.6zm-1.4-1l-.6-.6c.2.2 1 .9.6.6zm-7.9-2.9s.3-.1.5-.1c-.5 0-.9 0-.5.1zm-1 .4c1.5-.1-1.9-.3-.2-.9-.467.066-.933.166-1.4.3l1.6.6zm-7.1.1c-4.1.3-4.7 2.8-7.2 4.2 2.1-.9 3.1-2.7 5.4-3.2-1.8.1 1.4-.8 1.8-1zm.9 1.1c.2-.4-1.7-.1-2.2.3.6-.1 1.6.2 2.2-.3zm-10 2.7c.467-.267.967-.5 1.5-.7-.8-.133-1.3.1-1.5.7zm-2.7 1.6l.8-1c-.3.3-1.8 1.3-.8 1zm-5.4 3.7c-.6.4-1.2 2.4.6.3-.4.3-1.6.8-.6-.3zM50.8 76c-.333.6-.633 1.2-.9 1.8.4-.3 1-1.9.9-1.8zm2.5 1.3l.6-1.2c-.6.666-1.067 1.4-1.4 2.2l.8-1zm-4.9 1.8c.1-.6.6-1.3.9-1.8-.4.1-1 1.4-.9 1.8zm1.5 2.1c.8 0 .9-2 1.1-2.3-1 .7-.8 1.1-1.1 2.3zm-6.3 15c.067-.6.1-1.2.1-1.8-.7 4.8-.3 2.8-.1 1.8zm-.4-.2c-.1.3-.3 1.4-.1 2.1 0-.733.033-1.433.1-2.1zm-.6.8c0 .6-.033 1.233-.1 1.9.1-.6.1-1.2.1-1.9zm-.4 5c.133.8.033 1.567-.3 2.3.3-.4.6-2.4.3-2.3zm9.3 18.3c-.2-.3-.7 0-.1.5.467.4.5.233.1-.5zm1.1 4.3c-.4-1.3-1.2-2.4-1.6-3.6 0-.2.8 3.5.5 2.2.4.467.767.933 1.1 1.4zm22.9 28c-.2-.3 1.1-.1.6-.3-1.9-.8-3.1-1.4-5.3-2.3 1.6.8 3.1 1.7 4.7 2.6zM96.9 140l-.2-.2c-.3.4 0 .2.2.2zm0 0l.3.1c-.067-.133-.167-.167-.3-.1zm.6.9c.5.4 1.3.4 1.5-.3-.6.3-1-.3-1.5.3zm2.7-.7c-.267.333-.633.567-1.1.7 0 1.2 1.4.2 1.5.2-1 .2-.1-.5-.4-.9zm28.3-6.1h.1c-.1 0-.1-.1-.1 0zm-4.2 2.7a.883.883 0 01-.4-.1c.133.133.267.167.4.1zm17.8-11.5c.133-.067.233-.133.3-.2-.2.067-.3.133-.3.2zm-34 17c.2 0 .3 0 .4-.1-.1-.1-.2-.1-.4.1zm.4-.1c.6.7.3 0 1.2-.1-.2-.8-.9-.1-1.2.1zm20-7.9c-.2 0-.1-.2 0 0zm-2 1.4h.2-.2zm-8.8 2h.1c0-.1-.1 0-.1 0zm9.2-2.1c-.067.067-.133.1-.2.1.1 0 .2 0 .2-.1zm18.3 24c.333-.467.3-.6-.1-.4.133.333.067.433-.2.3 0 .2.9.5.3.1zm-.5-6.6c.067-.067.1-.133.1-.2-.1.1-.1.2-.1.2zm1-21.2c-.067.067-.1.133-.1.2.067-.067.1-.133.1-.2z"/><path fill-rule="evenodd" clip-rule="evenodd" d="M152 174.4c.2-.4.5-.567.9-.5a1.96 1.96 0 00-1.5-.2c-.4-.1.9-1.1 1-1.1-.6-1.3-1 1-1.9-.1.467-.133.733-.433.8-.9-1.8.1-1.6-1.1-1.9-1.9.4.1.6 2 1.3.6-1.1 0-1.1-1.6-2.3-1.7.267-.067.5-.233.7-.5-.4-.1-.6-.2-.6-.3-.067 0-.133.033-.2.1.2-1.6-2-2.5-2.1-4 .1.1 2.1-.3 2.5-.3-.667-.2-1.133-.667-1.4-1.4-.333.067-.5.267-.5.6-.067-.6-.3-1.133-.7-1.6.3.8-1.5-.2-1.3-.6.5.1 1.3.3.3-.7.8-.1.3.9 1.2.6 0-.7-1.3-3-1.5-3.8.1.5.4-.5.4-.6-.1-.9-.2-2.5-.2-3-.1-.6 0-10.3 1.5-9.8 0-.1-.4-2.5-.4-3.7-1.6 1.3-3 4.3-4.5 6.4.6-.5 1.2-1.1 1.4-1.6-.6 2.1-7.2 6.7-8.3 8.2.333-.2.7-.4 1.1-.6-4.5 2.4-7.1 6.4-11.9 8.3.9-.7-.4-.7-.8-.8-.5-.3 1.8-1.8 1.5-2-.5-.4-4.8 3-5.6 3.3-.5.6 2.3-.2 2.1-.1-1.6.9-4.6.8-5.9 2.3.4-.333.767-.367 1.1-.1.1.5-2.9 1.8-3.4 1.8.133-.267.3-.5.5-.7-.933.067-1.867.3-2.8.7 0-.8 3.1-.6 2.6-1.5-4.7.7-8.4 2.9-13.3 2.2.133 0 .233-.067.3-.2-1.9-.4-4-.5-5.9-.6-1.6-.1-3.2-.1-4.8-.4-.5-.2-2.8-.8-1-.8-7.1-1.5-12.7-3.4-18.7-7.4.267.133.533.167.8.1-2.5-2-5.5-3.3-7.9-5.4-.6-.6-3.7-3.8-3.9-4.5.067.2.1.4.1.6-.1-.2-5.5-6.1-6.5-7.5-2.5-3.7-4.8-8.1-6.2-12.3.2 1.6-.8-1.1-1-1.4.9.9.3-.6 1.3 1.1-.5-2.2-3.1-3.9-2.1-6.2a7.96 7.96 0 00.7 2c-.3-1.3-.3-2.9-.9-4.1-.1-.1-.4 1.1-.4 1.1-.7-.8-.4-4-.5-5.2-.3-1.9-1.1-3-1.2-5 .333.067.567.233.7.5.8.5-.7-4.6-.8-4.8 1-.3 1.2 1.3 1.2 1.8.1-.3.6-2.8 1-1-.7-3.1-.2-6.3-.1-9.3 0-1.6.6-4.6-.8-4.5-.333-1.067-.133-1.8.6-2.2l.2 1.2c.2.4.8-1.3.9-1.4-12.7-3.7-23.2-10.3-31.3-20.8.4.466.833.867 1.3 1.2-3.4-3.9-5.5-5.1-8.3-9.5.267-.067.467.033.6.3.3.1-.6-1.6-.8-1.8 1 1.2-1.2-2 .8.3.7-.5-1.3-3.4-1.2-2.8-.2-1.3 0-.2.5-.4-.067-.934-.467-1.467-1.2-1.6-.2.2-.333.4-.4.6-2.1-8.7-5.7-16.8-3.2-26.8.1 2.1-.9 4.8-.2 6.9V35c.1.5.2 1.1.3 1.2.8-1.7-.4-3.2.4-4.6-.2 2.9.6-.8.8.9 0 0 .9-5.9-.6-.8-.7-1.9.7-6.9 1.4-8.5.133.333.233.666.3 1 1.4-2.2 2.4-4.6 4-6.7a4.395 4.395 0 01-1.7 1.2c.2-.6.6-1.5.8-2 0 .267-.033.533-.1.8.3-.5 1.9-4.7 1.7-2.3 2.4-2.7.9-.6 3.1-2.4a7.099 7.099 0 01-.9-.3c1.2-.8 7.7-6.2 8.4-5.6 1-.5-3.6 3.7-2 3.4a31.207 31.207 0 012.1-2.1c-1.8.6 2-2.7 2.8-3.1 1.9-.9 1.9-.9 3.9-1.4-.9 1.4 2.3-1.2 1.8-.6.5-.7 5.1-1.1 6-1.4-.4.4-5.3 2.7-6.1 2.8 2.8.1 6-2.3 8.2-2.5.3 0 3.9.1 3-.1-.2-.2 2.9.2 3.2.2-.8.2-.8.467 0 .8-1.4-.3-1.9.7-3.3.5l1.6-.4c.5-.4-3.4-.1-4.4-.1.333.067.667.1 1 .1.2.7-1.7.8-2 1-1.6 1.2-.4.3-.4.7-.8 0-1.6.1-2.4.3 2.1-1.7-3.1.3-3.5.3.2-.6 1.8-.6 2.2-1.1.1-.2-2.1.6-2.3.7-2.3.5-3.1.2-5.2 1.9 3.2-3.9-2-.3-2.4.2.4-.133.767-.233 1.1-.3 1-.5-3.4 1.7-2.3 1.9a5.64 5.64 0 001.6-.4c-1.2.6-3.6 2.8-4.4 2.2-.1.1-2.9 2.3-2.2 2.5.333-.4.733-.7 1.2-.9.2 0-.9 1.2-1.1 1.5.2-.7-3.5 2.2-3.7 2.3 1.1-.9-2.6 2.1-2 1.2-1.3 1.7-.2 2.5-1 4.6-1-2-.9 1.5-1 1.9.2-.3 1.9-2 2-1.4.5 1.8-4.9 4.1-3.6 8 .2-.467.5-.667.9-.6-2.4 4.8-.9 11-.6 15.9.2.4.9 3.4.9 3.4-.067.2-.133.3-.2.3.1.4.2.7 0 .1.1.8.9 1.8 1.3 3a5.088 5.088 0 01-.1-1c1.5 3.5 3.2 5.8 5.4 8.7-.5.7.7 3.3 1.6 4.7 1.7 1.6 4.4 4.2 6.1 5.7 1.1.9 2.9 4.2 3.6 4.4.533.666 1.2 1.1 2 1.3-1-1-1.8-2.2-2.8-3.2 1.3.9 2.8 1.3 4.1 2.1 0-.2-.1-.367-.3-.5 2.8 1.7 4.6 2.2 7.9 4.3-1.3-.7-3.6-.7-4.5-1.1-1.1-.5-3.1-2.5-4.2-2.6.6.8-.6.2-.4.5.2.5 3.4 3.2 4 3.5-.9-.8 1.8.2-.2-.9 2.2.9 4.2 2 6.4 2.8-2-.8-.1-.2.3-.7-.1.1-4.1-1.7-1.4-.1-6.1-2.5.7.3-1.4-1.5 2.4.8 6.2 2.2 8 3.9l-1.4-.2c2.5 1.1 3.2 2.5 5.1.9 1.4-1.2.8-2.2 1.7-3.8.5 2.6-2.6 6 1.2 4.4-.8 3.1.8-1.1 1.2-1.8.3-.8 1.1-3.4 2.1-4.2-.4.6-.6 1.3-.9 2 1 .3 3-3.2 3.5-4 .4-.7 1.4-3.3.1-1.1-.2-.4 1.5-2 1-2.2-1.3.8-.6-.3-2 1.3-.8.9-1.5 3.3-2.5 4.4-.7-.8 1.7-3.1 2-4.4-1.4 2.2-.3-.5-1 .5.9-1.4.8-2.8 1.9-4.2-.7 3 1.8-2.4 2.5-3.2 1.2-1.5 3.5-3.6 5-4.9.1.9-1.6 2.4-2 2.9.333-.334.367-.334.1 0 .2-.067.367-.167.5-.3-1.6 2.3-3 5.6-5.1 6.9.8 2.5 2-1.4 2.2-1.7 1.6-1.7 2.9-3.6 4.6-5.2-.133-.067-.3-.1-.5-.1 1.8-2 3.9-3.1 5.8-4.5-.267.267-.533.566-.8.9 4.9.5 9.5-5.7 14.9-5.1.3.2-1.3.7-1.6.8.6-.2 6.2.1 7.1 0-1.7-.7 1.4-.2 1.7-.1-.6-.067-1.233-.133-1.9-.2.8.3 4 1.2 2.2 1.5 2.8 1.6 5.5 2.6 8.2 4.5.333.333.7.567 1.1.7-.067-.133-.033-.3.1-.5 0 .2 1.7 2.9 1.1 3.1.2.3-1.9-2.4-2-1.8 1.5 1.7 1.8 6.8 3.2 2.1 1.2.9-.1 3.1.5 4.3-1-1.9.6 2.1.8 3 .6 1.8 1 3.5.8 5.4a3.95 3.95 0 01-.3-.8c0 .7-.3 2.8-.5 3.6.067-.2.167-.4.3-.6.1-.1-1.8 4.6-1.8 4.4-1.8 3.1-4.6 5.4-7.8 7-3.7 1.9-8.4 3.4-12.6 3.4-1.3 0-5.8.3-4-.1-2.7.6-4.7-.4-7.3-.2.1 0 3.4-.8 3.2-1-1.4-1.1-6.8.3-8.6.2-1.8-.1-4.9-.2-6.5-1.2.2 0 .4-.034.6-.1-.5-.2-2.2.4-2.5-.3.133-.334.4-.5.8-.5-4.8-.9-4.4.8-5.2 5.3-.3 1.9-.1 3.1-.3 4.9-.4 2.6-.8 5.2-.9 7.7-.1 1.2.7 1.9.5 2.8-1.9-2.5.3 4 .5 5.6l-.4-.6c0 1.533.4 2.933 1.2 4.2a1.583 1.583 0 00-1-.6c-.7.6 1.8 4 1.7 5.3a5.68 5.68 0 01.6-1.6c.3 1.5 1.6 1.4 2 2.8h-.6c1.1 2.7 3.3 7.5 5.7 9.6 1.7.7 6.3 6.4 8.6 8.7 1.2 1.2 3 1.9 4.3 3.4-.8-.1-2.2-1.5-3-1.2 2.1 1.8 4.3 3 6.7 4.5 1 .6 3.2 1.2 2.2 1.4.933.467 1.9.633 2.9.5-1.5-.7-3-.8-4.2-1.8 4.2 2 11.8 3.9 17.7 5.1 4.3.9 8.3.8 12.7.1 1.7-.3 7.7-.9 7.8-1.5 3.1-1.6 6.1-2.4 9.1-4 1.9-1.1 5.7-5 7.6-5.1-.067 0-.1.033-.1.1 1.1-.8 2.9-1.6 3.6-2.1-.2.2 3.9-3.3 2.6-1.7 3.7-4.4 7.2-9.3 10.3-14.3-.3-.3-1.2.3-1.4.3.067.4.2.467.4.2-.4 1.2-1.3.5-1.7 1.4 0-.6.5-.8.1-1.5.5.8-3.5 3.3-3.4 3.6-.467-.067-.667-.333-.6-.8-1.9 1.6-4.9 4.7-7.9 4-.7 1.6-3.4 1.6-5.3 1.9-.3.5-1.3 1.5-1.4.4a18.28 18.28 0 01-1.5 1.7c-.4-.4-.1-.2-.5-.4.3-.4-.3-.2 0-.5-.2-.7-1-.3-1 0-.1-.3-.3-.9-.6-.4-.2.5.2.9.5 1.1-2.3-.9-4.5 2.3-8 2l1.8-1c.2.2.4.4.3-.4-.7 0-.4-.4-.9.4-.1.2-.4-.7-.3-1-.3.2-1.4.3-.1.6-.1.1-1.9.8-2.3.9-.3-.2-2.1-1.1-2.3-1.1.9.5.6.9 0 1.2-.2 0-.5.1-.5.1-.1 0-.9-1.1-1.3-1.2l.2.8c-.5-.3-3-.7-3-.8.2-.2 1.7-.7 1-1.6-1.1 1.7-1.4 1.8-2.7 1.4-.9.4-1.4 0-2.9.6.4-.7 2-1.2 2-1.5-.2-.2-.5-.3-.7-.2 0-.4 1.6 0 2.2-.4-.9 1.3.7.9 1.2.4.067-.4-.1-.667-.5-.8.6.1 2.6.3 2.5-.1-.333.067-.467-.067-.4-.4.2.2.367.167.5-.1.1-.1 2.1 2 2.4 2.1a3.158 3.158 0 01.8-1.8c.1.3-.5 1.1.5.6.1-.1 0-.4-.1-.6.5.4 1.7-.5 2-1.2.9.5 3.6-.3 3.7-.2 0 0 1.9-.4 1.1.2.5.1 1.1-.9 1-.2.5 0 .7-.4.8-.6 1.2-.7 1.6-1.4 2.6-2 1.1 1.2 4.8-.8 6-1a2.682 2.682 0 00-1-.2c.3-.2 1.1-1.2.7-1.4.333-.133.533-.033.6.3h.2c-.3 1 .1 1.8 1.5 1.2-1.3-.2.9-1.7 1.2-1.9-.6.3-.2-.8-.6-.9.3.5-.8 1 .1.8-.2.133-.4.3-.6.5-1-1.4 1.6-2.1 2.2-1.9a3.86 3.86 0 01-.2.5c.333 0 .667.067 1 .2.4-.5-.1-1.3 1.4-1.5a3.605 3.605 0 00-.3.9c.9-.5.7-1.8 1.3-2.4.2-.2 1.7-1.5 1.8-1.8 0 .1.6 1.7 1.1.2-.2 0-.433-.033-.7-.1a4.401 4.401 0 011.7-1.2c0 .3.1 1 .5.8.9-.3-.2-1.2.3-1.5 2-1.4 3.933-2.9 5.8-4.5 2.6-2.3 6.4-5 8.1-7.5 1.2 1 5.8 3.5 6.1 4.9.5 1.8-3.8 5.5-4.9 7.4-.5.9-2.9 9.2-3.4 9 0 0-.2.1-.6-.3-.2.2-.9 2.9-.8 3-.267-.4-.567-.5-.9-.3-.1.3.3 1.3-.3 1.5.7 0 2.4.1 1.6 1l-.4-.2c-.7 1.9-1.9 7.4-1.1 8.2l-.4.4a9.054 9.054 0 00-.7-1c-.7 1.5-.8 3.2-.1 4 .1-.6-.3-.5-.3-1.1.133.067.2 0 .2-.2 0 1.1.4 3.3.4 5.5 0 1.8.3 5.1.6 6.2.2.9 2.4 4.8 1.8 5.4-.2-.333-.4-.367-.6-.1.7.2.4 3 .1 2.5 1.3 2.2 2 4.5 2.3 7.1-1.6.3-.5 1.8-.6 2.6-1-1-1.8-2.4-2.8-3.7zm-.2-36.6h.2-.2zm-20.4-5.8c0-.5-.2-1.2 1.3-1.1-.6.2-1 .6-1.3 1.1zm-.3 2.1c0-.133-.133-.167-.4-.1.133 0 .267.033.4.1zm-17.8 4.4c-.2-.4-.3-.7 0-.7-.067.267-.067.5 0 .7zm-8.9 1.6h-.1.1zm-.1 0c-.8.2-1.9 1.5-2.2 1.4.133-.267.067-.467-.2-.6-.6.6-.2.9-1.2.6.1-.1.3-1.7 1.1-1.6-.4.2-.567.5-.5.9.467.067.9-.067 1.3-.4 0 .1.6-1.6.6-1.6.2.067.433.067.7 0 .4.5 0 0 1 .4-.4.133-.6.433-.6.9zm8 2.4c.3-.1.4-.1 0 0zm2.2 0l.1-.1c.067.067.033.1-.1.1zm2.5-1.7zm1 1.1h-.1c0-.1-.1-.3.1 0zm10.4-2.9h.2c.1-.2.1-.3-.2 0zm2.7 9.9c.267-.267.533-.567.8-.9-.4.3-.7.6-.8.9zm-29.2-67.2c.067-.067.1-.167.1-.3-.067.133-.1.233-.1.3zm-5.4-20.4l1 1.2a1.162 1.162 0 00-.3-.2c-.267-.267-.5-.6-.7-1zm-33.6 1c-1 .3-1.7 1.6-2.5 2.3.7-1.1 1.5-2 2.5-2.3zM6.8 48.5c0 .4.033.6.1.6-.1-.3-.1-.6-.1-.6zm-.6-2.8v-.3.3zm1.2-22.2h.1c-.067.067-.1.067-.1 0zm7.7-10c0 .066.033.066.1 0h-.1zM36.2 2.9c-.2.1-.1 0 .1 0h-.1zM1.6 34.2v.8c0-.4-.1-.7 0-.8zm3.6 21.6c-.133-.267-.2-.5-.2-.7.067.267.133.5.2.7zm64.3 100.1c.133 0 .233.033.3.1-.067 0-.167-.033-.3-.1zm71.3-8.9c.267-.267.533-.6.8-1-.3.4-.7.7-.8 1zm-9.6-14.3c.067-.267.133-.5.2-.7.1.3.1.6-.2.7zm-17.7 6.3a.68.68 0 01-.2-.5c.067.133.133.3.2.5zm4.6-.9l-.1-.1c-.2.3-.1.2.1.1zm4.4-1.1c.1.1 1.8.3 1.8-.3-.4-.6-.8.3-1.8.3zM5.4 37.7v-.2c-.3-.8-.2-.4 0 .2zM10.6 58c.6-1.1-1.6-3.6-2.2-5.7-.4.7 1.1 4.1 1.5 4.8.2.267.433.566.7.9zm42.5 28.2c1.9 0 3.4-.4 5.3-.3 1.8.1 2.7 1.2 4.9 1-.4.1 1.9 1.2 2.7 1.2-.533-.267-1.067-.5-1.6-.7 2.4-.2 4.7.6 7 .8-.8.1.5.4-1.1.5 0 1.1 18.9-2.8 21.1-4.6C98 78.8 95 70 88.6 65.9 77.1 58.4 62 69.5 56.4 80c-1.1 1.9-3 4.3-3.3 6.2zm-4.2-1.1l.4.2c-.5 0-.8.4-.4.5-.067.067-.133.1-.2.1.3.1.5.3.8-.6.267 0 .4-.334.4-1-.467-.4-.8-.133-1 .8zm-.8.6h.3c0-.133.1-.334.3-.6-.4-.133-.6.067-.6.6zm.3 0c0 .133.1.2.3.2a1.162 1.162 0 00-.3-.2z"/><path d="M102.4 139.6c-.5-.4-.5-.6-.7-.9-.467.2-.767.533-.9 1a2.64 2.64 0 011.6-.1zm6.9 4.1l-.6-.3c-.2.3.5.7.6.3zm2.3-.3c-.1.1-.7-.3-.7.3.2-.6.6.2.7-.3zm-1.3-4.8c-.2-.5-.5-.1-.9-.2.3 0 .8.5.9.2zm3.4 3.2c-.267.2-.533.367-.8.5.467.133.767.433.9.9.4-.4.467-.833.2-1.3-.6.467-.7.433-.3-.1zm-2.6-3.4l-.8-.4c.3 1.4.6.4.8.4zm4.5 4.2c-.467.133-.867.433-1.2.9 1.1-.2 1-.7 1.2-.9zm-1.7-4.2c.1-.5.8-.4 0-1-.267.267-.267.6 0 1zm.8.4l.6-1c-.3.4-.5.7-.6 1zm10.2 1.7c-.1.2.7.4.2.2.1-.2-.5-.4-.2-.2zm-3-4.1c.3.1.9-.5 1.2-.7-.4.2-1.3.3-1.2.7zm12.9-6.7c-.333.067-.5.267-.5.6 1.9-2.2.3-.8.5-.6zm2.7-1.3c0 .2-.3.2-.1.4.1.1.3-.3.1-.4zm15.9 8.6s-.1-.1.3.5c.5-1.3.1-.9-.3-.5zm-2.6 9.7c.4.9.6 1.4.7 1.7.2-.8-.2-.8-.7-1.7zm2.5 28.5c-.2 0-.3.2-.4.3.4.3.4-.2.4-.3z"/></g><defs><clipPath id="clip0_27_34828"><path fill="#fff" transform="rotate(90 81.5 82)" d="M0 0h178v163H0z"/></clipPath></defs></svg>