<svg width="202" height="133" viewBox="0 0 202 133" fill="none" xmlns="http://www.w3.org/2000/svg"><g clip-path="url(#clip0_27_34930)" fill="#100F12"><path d="M110.7 74.3c-.133 0-.233-.033-.3-.1.1.1.2.2.3.1zm-26.1 4.5c-.4-.067-.767-.133-1.1-.2.267.267.633.333 1.1.2zm41.3-10.9c.4-.067.767-.133 1.1-.2-.3 0-.6 0-1.1.2zM54.6 78.5a8.669 8.669 0 00-1.2-.1c.7.1 1 .2 1.2.1zM170 37c-.4.2-.667.433-.8.7.3 0 .6-.2.8-.7zm-6.9 5.8v-.1c-.1 0-.1 0 0 .1zm-4.8 3.3h.1c-.1-.1-.1-.1-.1 0zm10.9-8.4c-1 .3-2-.2-1.4 1.1-.6.4-1.067.933-1.4 1.6 1.3.5 2.3-1.9 2.8-2.7zM110.7 74c.7 0 .2.2 0 0zm7.6-3.1l-.8.2c.3 0 .5 0 .8-.2zm28.3-11.3c-.067.067-.133.1-.2.1 0 .1.1 0 .2-.1zm-29.1 11.5c-.2.1-.5.1-.7.2.267-.067.5-.133.7-.2zM24.1 11.4s-.3.5.9.3c.6-1-1-1.1.1-2.2-1.8 1.2.2 0-1 1.9zm0-1.6c-.5-.1-.1 0-.9 0h.9zm60.8 51.1v-.6c-.1.3-.1.5 0 .6zm-26.8 7.6c.3 0 .6-.1.8-.2-.4 0-.7.1-.8.2zM13.4 18.3c-.333.2-.6.467-.8.8l.8-.8zm44-12.4c-.9.5 1.9 1.2 2.3 1.2a8.44 8.44 0 00-2.3-1.2zm23.3 19.7c0-.067-.067-.2-.2-.4l.2.4zM19.2 11.8c-1 .6-1.9 1.3-2.9 2 .6-.3 2.8-1.4 2.9-2zM11 27.2c0-.067-.033-.1-.1-.1l.1.1zM141.4 62c.133 0 .3-.033.5-.1-.133 0-.3.033-.5.1z"/><path fill-rule="evenodd" clip-rule="evenodd" d="M50 3.4c1.2.6 4.6 1.6 5.2 2.2-3.4.6 3.7 2.7 5.2 3.6h-.7c1.2.8 2.4 2.2 4.1 2.4-.533-.067-1 .067-1.4.4-.3 1 4.1 1.9 4.7 3.5-.067-.667-.1-1.333-.1-2 1.2 1.4 2.5.3 3.6 1.7-.5 1 2.1 2.6 3 3.5 1.8 1.8 2.9 4.6 4.9 5.9-.3-.1 3 3.8 3.4 4.3 2 2.3 3.1 4.4 4.2 6.9.6 1.2 1 3.3 2.4 4 .067.467.1.967.1 1.5-.8-.4-1.5-2.6-2.5-2.6.8 2.5 2 4.5 2.9 7 .3.8.1 1.2.3 2 .4 1.3 1.5 2.1.4 1.6a5.13 5.13 0 001.8 2.6c-1.1-5 1.3-.5 2 2.3 1.4 5.3 1.3 10.7 1.3 16.1 5.8-.2 13.1-1.5 19.7-2.8 1.1-.8 2.2-1.9 3.6-2.1.067.333.133.7.2 1.1 1.9-.9 3.1-2.6 4.9-3.6.9.3-2 2 1.5.3-1.3 1.1 1.8-.7-.3.9.5 1.2 3.6-.7 2.7-.7 1.1-.1.2.1.5.7 1.8-.4 1.8-1.7 0-1.8 4.8-.2 4.4-1.1 7.3-3.2 4.3-3.2 9.9-5.9 14.8-8.3-1.2 1.6-3.9 2.2-4.8 3.9l.2-.2c-.3.4-.7.9-.7 1.1 2.1 0 1.9-2.1 3.6-2-2.3 1.6 1.1 0 0 1.3.6-.4 4.4-2.4.1-1 .3-.9 2.3-2 2.9-2.5.3-.3 2.7-2.2 3.1-2.4 0 .333-.033.7-.1 1.1 2.4-.5 4.4-2 6.5-3.1-.733.267-1.433.3-2.1.1.4-.6.8-1.1 1.2-1.6a9.56 9.56 0 01-.2.7c.8-.6 2.4-3.4 2.1-1.3 2.9-1.7 1 0 3.5-1.2a9.095 9.095 0 00-1-.7c1.3-.5 7.6-5.2 7.8-5.1.6-.4-3.1 4.3-1 4.1.6-.8 1.167-1.633 1.7-2.5-2.2.9 1.9-7.1 2.9-4.8.1.4 1.2-1.6 1.3-1.7-.067.267 0 .467.2.6.6-.4.9-2.2.9-2 0 .3 3.4-3.9 3.6-4.3 0 1.1-2.7 5.9-2.6 6 2.7-.9 3.4-5.4 4.4-6.9.6-.9 1.8-1.7 1.4-2.5-.5 0 1.8-2.5 1.7-2.3-.133.8.167.933.9.4-1 1.2.1 2.3-.9 3.3.2-.533.3-1.1.3-1.7-.2-1.2-3 4.3-2.6 3.5l.8-.8c1.2.7-1.1 3-.5 4 .133-.333.367-.5.7-.5a8.665 8.665 0 00-1.7 1.8c.067-.333.1-.667.1-1-1.8.8-1.4 2.1-2.9 3.2-.3-.7 1.1-1.6.9-2.3-.1-.5-1.3 1.9-1.4 1.9-1.7 1.3-2.6 1.5-3.8 4 .2-.733.467-1.4.8-2-.8 1-2.9 1.1-3.3 2.5.333-.133.667-.3 1-.5-.8.6-1.433 1.3-1.9 2.1.533.533 1.067.6 1.6.2-1.3 1.2-2.7 3.2-3.7 2.4-.1.1-2.9 2.3-2.1 2.7.1 0 1.5-1.3 1.4-.4-.7-.3-.8 1-1.3 1.3.8-1.6-2.1.4-1.6-.6-1.7 1-2.9 2.2-4.1 3.3-3.5-1.7-1 1-3.4 3.1 0-.333-.033-.667-.1-1-.1.1-2.5 1.5-1.9 2.1.1-.1 3.1-.5 3 .3-.2.9-7.4.3-8.5 3.7.3.3 1.5-.2 1.3.6-2.4.6-5.1 2.6-7.3 3.4-1 .4-2.1.7-3.2 1.3-1 .6-5.1 2.4-4.4 1.9-1.1.3-3.5 2.8-3.2 1.3 0 0-1.7.6-.6.2-.8.2-1.7 1.2-2.9 1.7.333-.067.7-.1 1.1-.1-1.6.8-3.4 1.4-4.8 2.3-1.5.9-2.9 2.3-4.6 3v-.8c-2.5.5-2.9 0-5.2.5-1.6 1-7.4 3.3-8.8 3.5-1.2.2-6.8-1.4-7.4.2 1.5.2 2.9.5 4.4.4-1.6.5-2.8 1.6-4.4 2 .2.2.433.267.7.2-1.6.4-2.2.1-4.1.7 0 .4.033.8.1 1.2-1.267.4-2.533.533-3.8.4.2 2.9-1.9 5.1-1.8 8 .133-.133.233-.267.3-.4 0 3.9-2.6 17.9-5.9 19.3 0-.2.033-.367.1-.5-.7 1.2-2.5 3-3 3.7.2-.3-3.1 4.3-2.2 2.2-2.2 4.7-5.1 9.4-9.4 13-1.9 1.6-5.4 4.6-7.7 4.9.1 0-2.9.1-2.5-.6-.7 1.3-2.5 2.1-3.8 2.5 1.7-2.8 4.4-2.7 7-5.6v.5c.6-.3 3.4-5.5 3.7-4.9-.2.467-.133.867.2 1.2 1.4-1.4-.8-3.5 1.7-3.8-.067.133-.167.3-.3.5 1.9-1.9.2 0 .8.4.7.3 2-1.8 1.6-2-3.1-1.4 0-.6 1.1-2.1.5-.7.6-3.3 1-4.1 1-2.3.5-.4 1.9-2.8 0 1.3-2 2.2-1.2 3.3.5.6 2-4.7 2.5-5.7.6-1.4 1.8-2.1 1.9-4.1a11.02 11.02 0 01-.8.9c2.8-3.4 1.9-8.2 3.2-12-.1-1.2 2.6 2.1 2.7 2.4.3-.3.2-5.3.3-5.8-.5-.8-1.3 1.5-1.3 1.5.1-1.4 1.6-4.1.7-5.4.067.533-.1.833-.5.9-.4-.1-1.2-2.8-.9-3.2.333.133.6.333.8.6.333-.667.367-1.367.1-2.1-.6 0-.8.2-1.5.3.9-.3 3-.6 2.8-1.5-.8.2-1.6 1.6-1.5-.4.3.8.8-.2-.4-.7-1.2-.5-4.8 1.3-7.4.8 1.7.1 1.1-.9 2.5-.9-3.8-.8-6.4 2.4-9.8 2.9-2.6.3-4.2-1.3-6.9-.7.6-.2-1.9-1.6-2.9-1.4.533.267 1.067.567 1.6.9-2.4.3-4.9-.6-7.2-1 .9-.2-.4-.6 1.2-.7.3-2-4.7.4-4.9.4-3 .1-7.1-1.6-9.9-2.4-6.8-2-13.5-4.5-19.5-8.1C11.4 62.6 4 53.3 1.6 42.5-1.5 28.7 1.7 16.2 14 8.2c4.2-2.7 8.1-4.5 12.4-6.2C30.8.2 36.1 1.3 40.9.5c2 1.2 6.4 1.7 9.1 2.9zm37.8 102.5c-.067.333-.1.667-.1 1 .1-.4.2-.7.1-1zm87-66.6c-.133.2-.267.333-.4.4l.4-.4zM148 55v-.1c-.067.067-.067.1 0 .1zm-2.4-.8c-.133.067-.3.167-.5.3.2-.2.4-.3.5-.3zm-31.1 13.3a3.47 3.47 0 00-1.4.7c.5-.1 1-.4 1.4-.7zM67.1 16c.067-.133.067-.3 0-.5v.5zm78.3 44.6h.3c.4-.8.2-.5-.3 0zm-13.7 6.6c-.4-.3-5.5.8-5.9 1.8.9 1 3.7-1.3 5.9-1.8zM86.5 79.4c-.533-.267-.833-.133-.9.4.1 0 .9-.2.9-.4zm.2 1.5c-.9.4-1.8 2.5-.3 2.5.2-.8.3-1.633.3-2.5zm10.6-5.1c1.2.2-1.4 1.3.8.8-2.9 1.2-3.3.3-3.1 3.3 1.2-.4 7.8-3.9 7.7-4-.5-.3-3.5.6-3.9.6-1.2-.6 1.1-1.1-1.5-.7zM26.8 8.9c.067.133.133.3.2.5-2.9.2-4.7 3.2-7.3 3.3 5.7-4.3-6.4 1.1-4.3 2 .267-.2.5-.433.7-.7.3 1-2.2 1.2-1.2 2 1.2-.3 1 .1 2.4-.7.7-.4 1.9-2.2 3.3-2.4.5 1.4-2.3 1.4-2.9 3 1.6-1.2.3.7 1.2.2-1.4 1.1-.5 2.1-1.8 3.2 0-.4.033-.833.1-1.3-.733.4-1.1 1-1.1 1.8.6 1.267.2 1.967-1.2 2.1-1 2.3-1 1.7-1.5 4-.533-.867-.567-1.733-.1-2.6-.2.267-.267.233-.2-.1-.9.7-.4 2.2-1 2.7-.9.6 2.6-7.8 2.7-8 1.067-.267 1.167-.733.3-1.4-.4-.067-.8-.167-1.2-.3-.6.7-.1 1.8-.5 2.5-2.1 3.1-3.2 6.9-3 10.5l-.4-1c-4.7 2.2 1.2 8.9 1.7 11.6-.5.5-1.1-.9-1.4-.9-1.5-.4 1.5 3.7 1.7 3.9.6.7 1 .5 1.2.3-.067.8.133 1.533.6 2.2l-.8-.2c.4 2 5 5.9 4.4 4.1 1.4 3 .6-.1 1.9 1.2-1.3-.1.4 1.7-.3 2.2 0 0-1.3-1.7-1.6-1.1.2.3.9 3.9 1.9 3.3.333-.867.7-1.733 1.1-2.6.9.1-.3 2.9.6 3.5-.9-.5-.9.2-.6.6.7 1.1 4.8 1.9 5.9 2.7-.267 0-.533.033-.8.1 1.2.2 1.3 1.1 2.5 1.3v-.1c3 2.9 12.1 5 15.8 6 2.2.6 4 1.6 5.9 2.2 1.3.3 2.7.1 2.5 0 2.2 0 3.8 1.2 5.9 1-.1.1-3.4.8-3 1.3 1.2 1.9 11-1.8 13.8.1-.133.067-.3.167-.5.3.6.1 1.9-1 2.3-.2 0 .467-.233.8-.7 1 2.8-.1 5.4-1.3 8.2-1.2 1.4.1 2.7 1.2 4.9.8 3.4-.6 3.5-.9 2.9-4.2 0-.6-1.6-6.9-.3-5-1.6-5.9-3.8-10.8-5.5-16.5.133.4.4.6.8.6-.5-2.8-2.7-4.8-3.9-7.3-.6-1.1-1.1-4.5-1.8-4.9-.4-.2-.2.9-.5.8-1.8-.9-4.2-5-6-7.2-2.6-3.2-4.8-4.7-8-7.4.7 1.2-1.4-.3-1.5-.4 1.3 0 .2-.8 1.8-.2-1.4-1.6-4.9-.2-4.9-2.9.533.4 1.1.667 1.7.8-.8-1-1.833-1.633-3.1-1.9-.4 0 .6 1.1.4 1.2-.5.1-3.1-2.2-3.7-2.6-1.7-.8-2.7 0-4.3-.6-.2-.7 2-1.1-.3-1.7-1.9-.5-1.4 1-3 .8 0-1.1.8-1.4 1.9-1.2-.4-.4-2.1-1.5-.5-1.7-2.4.2-12.3-1.1-11.5 2.5l-1.4.4c-.9-.2.9-1.1.4-1.5-.933-.467-1.633-.3-2.1.5.2.4.533.733 1 1-1.3-.4-1.4.9-2.5.7 1.8-.7-1.3-1.3 1.2-1.8-2.6-.3.1-.5.4-1.5a23.6 23.6 0 00-3.7 1.1c.2-1 2.1-.7 2.6-1.6-1.1 0-3.4 1.2-4.3.5.4-.3 2.7-.3 2.9-1.2-.4-.2-1-.3-1.5-.3zm24.8 59.7l.6-.1c-.2 0-.4.033-.6.1zm-24-8.7c.4.067.533.2.4.4l-.4-.4zM13.2 43.1c.4-.3.5-.8 1 .9a4.373 4.373 0 01-1-.9zM26.7 8.8l-.1.1h.2l-.1-.1zm-.1.1c-1 0-1.9.2-1.6.4.8.4 1.3-.2 1.6-.4z"/><path d="M89.9 47.1c.333.533.633 1.067.9 1.6-.333-.8-.633-1.6-.9-2.4.4.667.4.933 0 .8zm93.5-24c-.4.133-.8.233-1.2.3.067.2.1.367.1.5.333-.267.7-.533 1.1-.8zm-17.3 14.5l1.6-.9c.2-.6-1.8.3-1.6.9zm10.6-.3l.4-1c-.867.267-1.367.833-1.5 1.7.6-.9.4-.1 1.1-.7zm-15.9 4.9c.2-.4 1.9-.9 1.5-1.6 0 .9-1.7.8-1.5 1.6zm9.4 1.8c-.8.7-2.4.9-2.4 1.6 1 .2 1.3-.9 2.4-1.6zm-11.9 1.7c-1 .3-4.2.2-3.3 2.1.2.6 3.3-2 1.5-.1.6-.733 1.2-1.4 1.8-2zm7.3 1.7c.933-.2 1.8-.567 2.6-1.1-.733-.333-1.433-.167-2.1.5V46c-.9.3.5.7-.5 1.4zm-15.2 2.2c1.1-.3 3.1-1.7 3.3-3-1.1.8-2.5 1.9-3.3 3zm10.6-.3c.067.333.167.633.3.9-.1 0 1.1-1.3 1.1-1.4-1 .9-.6-.3-1.4.5zm-2.8 4.8l.6-.8c-.5-1.4-1.9.3-2.3.7.533.067 1.1.1 1.7.1zm-2.6-.7c-.5.6-1.4 1.6-1.8 2.5a9.57 9.57 0 001.8-2.5zm-30.2 9c.2-.4-1.9-.1-.7-.2-.1.5 1.5.4.7.2zm6.4 5.2c.667-.067 1.133-.367 1.4-.9-1.2 0-2.9 1.4-3.9 2.1.867-.4 1.7-.8 2.5-1.2zM75.3 79.7c-.4-.2-1.6.2-1.2.5.6-.3 1.3-.2 1.2-.5zM15.2 46.2c.5.8.5.2 1.1.7-.3-.8-.7-1.2-1.1-.7zm-1.9-6.3c-.1-.2-.3-.5-.3-.2.1 0 .2.1.3.2zm-.8-.8c.067-.533.333-.633.8-.3a7.506 7.506 0 00-.7-.8c-.8 1.9-.2 1.6-.1 1.1zm-2.8-8.8c.5 1.6 1.5.8 1.2 2.9.6-1.2.7 1 .9 1.3.3-3.2-2-3.7-2-5.8 0 .533-.033 1.067-.1 1.6zm.4 4.9c.6.1.4-1.3.1-1.7-.1.4-.7 1.2-.1 1.7zm1.9-7c-.4-.533-.567-.267-.5.8.2-.267.367-.533.5-.8zm.8-1.3c-.2-.3.2-1.4-.3-.9l.3.9zm1.4-4.8c.1 0 1.4-.8.8.3.4-.3 0-2.1-.8-.3zm7.3-8.4c-.533.133-.8.433-.8.9 5.3-5.1.4-.4.8-.9zM17 12.3c1.3-.6 1.1-.4 2.6-1.4-1-.4-1.4 1-2.6 1.4zm6 2c-.933.333-.9.4.1.2.733-.8.7-.867-.1-.2zm2.1-2l-.8 2c1-.3.8-1.4 1.7-1.5.7-.2 2 .5 3-.6-.533-.4-.733-.933-.6-1.6-.8.3-2.3 2.4-3.3 1.7zm-2-1.8c-.6-.8-1.5.9-1.8 1.2 1.7-.2.6-.2 1.8-1.2zm13.8-.6a10.6 10.6 0 00-1.4.3c1.9-.1 1.6-.6 1.4-.3zm-.1.6c0 .8.533.767 1.6-.1-.533.067-1.067.1-1.6.1zm1.9.5c-.4 0-.8.033-1.2.1.1 0 1.8-.2 1.2-.1zm2.7.4c.667-.133 1.233.067 1.7.6-.2-.5-1.7-1.2-1.7-.6zm21.2-3.2c-.467.067-.567.333-.3.8a5.697 5.697 0 001-.3c-.2-.133-.433-.3-.7-.5zm4 3.2c-1.2-1-2.7-1.2-4-2 .8.533 1.633 1.067 2.5 1.6h-.5l2 .4zm20.1 28c1.4 1.8 1.7 4.2 3.5 5.3 0-.867-.433-1.633-1.3-2.3.2.067.367.133.5.2-.3-1.8-1.8-2.1-2.7-3.2zm-19.8 86c0-.3-.4-.3-.7-.3-.7 1 .5.3.7.3zm80.3-93.8l-.3-.1c-.1.5.1.2.3.1zm0 0l.2.1c-.067-.067-.133-.1-.2-.1zm1.7.2c-.3.4-.8-.1-1.1.6.5.3 1.1.1 1.1-.6zm1.4.1c-.6-.3 0-.2-.5-.7-.133.333-.367.6-.7.8.3 1.2 1.2 0 1.2-.1zM171 20.8h.1c-.1 0-.1-.1-.1 0zm-3 2.8h-.3c.067.067.167.067.3 0zm13.9-10.7c.133-.067.233-.133.3-.2-.2.067-.3.133-.3.2zm-25.4 18.5c.1 0 .2-.1.2-.2-.1-.1-.2 0-.2.2zm.7-.8c-.7-.3-.1 1.1-.1 1.1-.5-.5 1.5-1 .1-1.1zm13.9-9.7c-.1-.1-.2 0 0 0zm-1.5 1.5h.2-.2zm-6.8 2.8h.1-.1zm7-2.8c.1 0 .1 0 .2-.1-.067 0-.133.033-.2.1zm13.1 19.3c-.3-1 .2.4-.3-.2 0 .1.9.8.3.2zm9.3-24.9c-.2.133-.433.3-.7.5.6-.2 1.6-.7 2.1-1.2-1.4.867-1.867 1.1-1.4.7zm-8 19.9c.067-.067.1-.133.1-.2-.1.1-.1.1-.1.2zm1.2-17.3c-.067.133-.1.233-.1.3.067-.067.1-.167.1-.3zm9-4.6c0-.1.6-1 .1-.5 0 0-.4.7-.1.5z"/><path fill-rule="evenodd" clip-rule="evenodd" d="M200.9 11.6c-1.6 1.8-2.1 10.9-4.6 11.9l-.5-.5c-.2.1-.9 2.4-.9 2.4-.267-.333-.567-.433-.9-.3-.1.2.2 1.1-.3 1.2.7.1 2.3.5 1.5 1l-.4-.2c-.5.9-.6 2-1.5 2.6-.3.5-.7 4-.6 4.1-.2.067-.367.1-.5.1a3.902 3.902 0 00-.5-.9c-1 1.1-1.3 2.3-.9 3.2v-.1c-.6 3.1-2.3 12.9-2.3 13-.4-.3-1.2 2-1.3 1.5.4 2.2 0 4-.6 6-1.6-.2-1.1 1.2-1.5 1.9-.2-.8-.3-1.5 0-2.4a4.498 4.498 0 00-1.2-1.3c.333-.2.667-.233 1-.1-.333-.333-.767-.533-1.3-.6-.2-.1 1.2-.5 1.3-.5 0-1.1-1.3.3-1.6-.7.4.067.733-.067 1-.4-1.6-.5-1-1.4-1-2 .4.2-.4 1.7.9.8l-1.4-2c.267 0 .533-.067.8-.2-.4-.2-.4-.3-.4-.3-.067 0-.133-.033-.2-.1.7-1-.9-2.5-.5-3.5 0 .1 2.4.6 2.5.6-.2-.3-1.3-2.2-1.6-1.4.067-.4.033-.833-.1-1.3-.1.7-1.4-.6-1.1-.8.3.2 1.1.6.5-.4.267.333.567.6.9.8.2-.4-.3-2.8-.2-3.3-.1.4.5-.2.5-.3.1-.8.4-1.9.5-2.3.2-.5 2-7.8 3.3-7.1.2-.7.3-4.2 1.1-5.6-.6.2-1 1.1-1.8 1.6.133-.2.233-.4.3-.6-.6.4-1.2.8-1.8 1.1 1-1.4 2.3-2.6 2.9-4.2.067.333.167.667.3 1 0-.133.067-.267.2-.4.5.2.7-.3.5.5 1.3-.7-.3-.7-.3-1.1 1.4.6.5-2 .6-2.1.2.2.467.333.8.4.2-.2.267-.433.2-.7a2.254 2.254 0 01-.8-.4c.3.1 1.8.5 2 .7-.6-.8-.6-.9-.3-1.4-.4-.2-.8-.1-1.2 0 .2-.133.367-.267.5-.4-.133.067-.233.1-.3.1 1.2-.5 1.6-1.1 2.8-1.8 0 .133-.067.267-.2.4.2-.2 2.1-.7 1.7-1.3-.3.1-.7.6-.8.7a1.569 1.569 0 00-.4.3c.6-.7.2-.9.2-1.2 0 .3 2.6-2.4 2.2-2.4.1 0-.9.7-1 .9l.4-.6c-.067.067-.167.1-.3.1a.657.657 0 00.3-.3c-.6.4-3.9 2.2-1.8 1.4-.133.267-.3.5-.5.7l.6-.4-.7.7c2.4-1.7.3-.4.6-.1-.133.333-.4.567-.8.7.7-.8-.6.1-.9.6.3-.6-1.4.6-1.5.9.333-.267.633-.533.9-.8-.3.4-1.3 1.1-1.7 1.4a3.86 3.86 0 01-.2.5v.1c-.1.5-.3.9-.7 1.4-.4-.067-.5-.333-.3-.8-.2-.8-1.5 1.1-1.5 1.3 0-.4-.2-.633-.6-.7 0 0 1.6-1.4 2.6-2.3 0 .2.033.433.1.7v.1l.1-.1c-.067.067-.1.133-.1.2.333-.467.667-.9 1-1.3l-.4.8c.4-.4 1-1.1 1.5-1.6.4-.133.6-.367.6-.7-.2.2 0 0 0-.2-.533.6-1.067 1.233-1.6 1.9 1-1.2.5-.7.1-.3.7-.8 1.2-1.2 1.6-2.2-.267.4-.567.767-.9 1.1 1.2-1.7.8-.9 2-2.7-.5.2-1.1.9-1.6 1.7v-.1.1l-.1.1c-.3.4-.6.8-.8 1.3-.067 0-.1.033-.1.1h-.1v-.1c.2-.3-.4.7-.7 1.2.133-.333.267-.633.4-.9.4-.1.4-.5.2-.8l.2-.6a1.26 1.26 0 01-.3.5c-.3-.5-1.2-.7-1.1 1.6-.9.5-2.4.8-2.6.8-.1.9-.7.3-1 1.2 0 0 .3-1.8-.4-1.4-.2 1.6-1.2 2.7-2.2 2.5-.2.133-.233.333-.1.6-.4-.133-.567-.4-.5-.8-1.3 1.1-3.9 4.1-6.2 3.3-.7 1.4-2.2 1.4-4.1 1.9-.2.4-.6 1.1-.7 1.1a5.587 5.587 0 01-.3-.7l-.8 1.8c-.4-.3-.7-.7-.7-.9-.667-.533-.9-.467-.7.2 0-.1-.5-1-.6-.4-.1.4.3.8.6 1-1.9-.6-3 2.3-5.8 2.9.4-.467.8-.9 1.2-1.3.1 0 .1-.1.1-.4-.8-.1-.7.7-1 .4.3-.3-.3-1.2-.4-.8-.333.667-.233.867.3.6a1.28 1.28 0 00-.5.8c-.3.1-.9.4-1.1.5-.1-.2-1.8-.7-2.1-.8.9.4.8.8.4 1.2h-.1l-.3.3s-1-.9-1.3-1c.133.267.233.5.3.7-.5-.2-2.5 0-2.5-.1.1-.1 1.1-1 .4-1.8-.4 2-.7 2.1-1.7 2l-.3.3c0-.067-.033-.133-.1-.2-.2-.1-.4.4-.4.6 0-.4-1.2.4-1.4.5.2-.8 1.3-1.5 1.2-1.8-.9-.8-1.7 1.8-2 1.8 0-.267-.133-.433-.4-.5-.2.6.1.8-.7.8 0-.1-.2-1.7.5-1.8-.267.333-.333.667-.2 1 .4-.067.7-.3.9-.7v-1.7c.2 0 .4-.067.6-.2.7 1-.1 0 .9.2-.333.267-.4.6-.2 1-.1-.5 1 .1 1.6-.9-.2.9.6 1.1.7.7 0-.1.7-1.1-.3-1.2.4-.1 1-.1 1-.5.8.3-.3.8.8.4.7-.3-.3-.6-.3-.8.2.133.333.067.4-.2.067.333.233.6.5.8.333-.067.533-.267.6-.6.1.1 1 1.3 1.3 1.3a3.081 3.081 0 01.2-1.9c.1.3-.1 1 .5.5.2-.3-1.2-1.6-.7-1.7.4.667 1 1.1 1.8 1.3 1.1-2.4 0-.2 0-1.7.8.4 4.1-.9 3.9-.7 1.6.2 1.6-1.8 3-3.1 1.1 1.2 3.5-.8 4.6-1.2-2.2-.6 1.1-.8-.2-1.5.267-.133.433-.033.5.3.2-.067.3-.133.3-.2-.2.4-.4.7-.4.8.3.1 1.3.7 1.7.5-1.2-.2.6-1.5.8-1.8a.895.895 0 01-.5-.6c-.1.4-.5.6.1.5a3.26 3.26 0 01-.5.4c-.6-.7.2-1 .4-1.8.3 1.1 1.1 0 1.3.1.1.4 0 .8.8.7.2-.4-.3-1.3 1-1.3l-.2.8c.1-.2 2.3-3.6 2.4-3.8 0 .2.7 1.5 1 .3-.2 0-.4-.033-.6-.1.4-.467.867-.8 1.4-1 0 .6.3.9.8.7 1.1-3 9.4-8.4 13.2-10 7-1.5 5.6 4.2 5 8zm-11.8 6.8v-.1c0-.533.233-.967.7-1.3-.2.467-.433.933-.7 1.4zm-.1-.8v-.2c.4-.3.7-.6.7-.9.133-.2.267-.433.4-.7l.1.1c-.133.333-.267.7-.4 1.1-.1 0-.4.3-.8.6zm-14.3.3c0 .067.033.133.1.2 0-.067-.033-.133-.1-.2zm-1.5 1.3c.2-.5-1-1.6.9-1.6-.1.1-.5.9-.9 1.6zm.1 1.5c-.1-.2-.3-.3-.7-.1.2 0 .433.033.7.1zm-11.8 9.6c.067 0 .067 0 0 0zm10.3-4.8h.1c.1-.3.2-.5-.1 0zm17.9-9.2c-.067.067-.067.033 0-.1v.1zm.1-.1c-.067 0-.1.033-.1.1l.1-.1zm-.1.1v.2a1.165 1.165 0 00-.2.3c.067-.133.133-.3.2-.5zm-2.7 4.3c-.067 0-.067 0 0 0zm3.6-4.2c-.133.267-.3.533-.5.8.133-.267.3-.533.5-.8zm-1 1.2c-.067.067-.1.133-.1.2-.067 0-.1.033-.1.1.067-.133.133-.233.2-.3-.067.067-.1.133-.1.2-.2.1-.1 0 .1-.2zm.8-1c0-.067.033-.133.1-.2.267-.467.533-.9.8-1.3l.1-.1c-.7 1.1-.4.7-.2.5-.7.9-1.2 1.7-1.7 2.4.2-.3.5-.8.9-1.4v.1zm-.4.8l.3-.3-.3.3zm4.3-1.2c-.1.1-.2.1-.2 0h.2zm-1.2.6h.1-.1zm-3.6 1.8l-.2.1c.067-.067.133-.1.2-.1zm0 0zm-.7 4.5c.1.4.3.7.4 1.1.5-.5-.2-.7-.4-1.1zm2.1 12.8c0-.3-.3-.4-.1-.7.067.067.133.033.2-.1 0 0-.1.3-.1.8zm2.6-9.6h.2c-.3-.1-.5-.1-.2 0zm-4-7.6c.3-.1.6-.2.9-.2-.267.133-.567.2-.9.2zm1.4-1.8c-.4.333-.8.7-1.2 1.1v.1l1.2-1.2zm-2.2 6.1l.1.1c0-.067-.033-.1-.1-.1zm2.1 13.1c0-.067.033-.133.1-.2 0 .067-.033.133-.1.2zm-27.6-10.6h-.1c0 .3 0 .2.1 0zm3.3-1.6c.1.1 1.6.2 1.5-.3-.5-.7-.4.3-1.5.3zm22.7-5.6c0-.1.1-.3.2-.4l-.2.4zm2.8-2.7c-.1.1-.2.2.6-.4.5-.4-.3 0-.6.4zm1.8-.9c.4-.5 1-1.1 1.4-1.4l-1.4 1.4zm-1.7.7c.067-.067.1-.133.1-.2-.067.067-.1.133-.1.2zm.1-.2l.2-.2c-.067 0-.133.033-.2.1v.1zm.8-.9c.5-.6 1-1.3 1.6-1.9-.2.2-.4.3-.3 0-.2.3-1 1-1.6 1.6-.3.9-1 1.5.3.2v.1zm-.3-.3c-.2.2-.4.433-.6.7.133-.2.333-.433.6-.7zm.3.3c-.2.267-.4.5-.6.7.333-.2.533-.433.6-.7z"/><path d="M151.4 30c-.7-.2-.9-1.8-1.2.6a2.067 2.067 0 011.2-.6zm6.4 2.5l-.6-.1c-.1.2.6.5.6.1zm1.7-.8c-.1.2-.6-.1-.5.4 0-.5.5.1.5-.4zm-2.4-4.4c-.2-.4-.3.1-.6.1.2-.1.7.3.6-.1zm3.1 3.2c.4 0 .733.2 1 .6.133-.467.033-.867-.3-1.2.1.2-.3.1-.7.6zm2.4-.1c-.2.1-.9.1-.9.9l.9-.9zm-2.7-3.9c0-.4.6-.5-.2-1-.133.4-.067.733.2 1zm.8.3c.067-.4.133-.767.2-1.1-.1.4-.2.7-.2 1.1zm8.6.3c0 .3.6.4.2.3 0-.3-.5-.5-.2-.3zm-3.3-3.7c.2.1.6-.5.8-.8-.2.3-1 .5-.8.8zm12.1-8c0 .2-.2.2-.1.4.1.1.2-.3.1-.4zm12.1 1.4c-.1 0-.4.5-.5.8-.2.3 0 0 .5-.8zm-.7 1.1c.1 0 .1-.1.2-.2l-.2.2zm.8-.6l-.6.7c.1-.2.2-.2.6-.7zm-.6.7c-.067 0-.133.033-.2.1l.2-.1zm.7-.6c-.4.333-.767.667-1.1 1 .4-.3.7-.7 1.1-1zm5-3.6c-.3.4-.4.4-.5.7.9-.7.1-.3.5-.7zm-5.7 4.6c-.7.5 1.5-.6 1.7-.7-.5-.4-1.1.3-1.9.7.3-.1 1.8-1 .2 0zm3.9-2.7c-.333.133-.6.333-.8.6 0 0 1.7-.9.8-.6zm1.5 10.1c-.1 0-.1-.1.2.4.7-1.1 0-.6-.2-.4zm-3.7 7.5c.2 1.2.2 1.1.4 1.6.3-.7-.1-.7-.4-1.6zm-6.6 22.5c-.2 0-.4.1-.5.1.2.3.4 0 .5-.1z"/></g><defs><clipPath id="clip0_27_34930"><path fill="#fff" transform="rotate(-90 66.5 66)" d="M0 0h132v201H0z"/></clipPath></defs></svg>