<svg width="218" height="153" viewBox="0 0 218 153" fill="none" xmlns="http://www.w3.org/2000/svg"><g clip-path="url(#clip0_27_34711)" fill="#100F12"><path d="M201 67.9l-.7.7c.3-.1.5-.4.7-.7zm-2.6 1.8c-1.6 1.2-3.6 3.5-3.3 4.5.9-1.8 3.1-3.1 3.3-4.5zm-1.9 3.8c.5-.7.9-.8.8-1.6l-.8 1.6zm2-1.9c-.6.7-1.4 1.5-1.8 2.4l1.8-2.4zm-7.9 5.4c-2.5 1.8.4.2-.6 1.5.467-.933 1.167-1.433 2.1-1.5a3.594 3.594 0 01-.3.9s2.3-3.2 2.6-3.4c-.4-.1-3.7 3-3.8 2.5zM78.8 81c-.067-.133-.1-.233-.1-.3 0 .1 0 .3.1.3zM57.6 53.1c.133.267.267.5.4.7-.333-1.533-.467-1.767-.4-.7zM97 91.8c.4.333.767.6 1.1.8-.2-.2-.5-.4-1.1-.8zM57.2 14.3c.4-.533.7-1.033.9-1.5-.5.8-.8 1.3-.9 1.5zm5.3 50.1c-.2-.4-.4-.767-.6-1.1.2.4.4.767.6 1.1zm100.1 29.1c.4 0 .8-.1 1.3-.5-.5.1-.9.3-1.3.5zm-9.7 2.8h.1c-.1-.1-.2-.1-.1 0zm9.7-2.8c-1.2 0-2-.5-2.1.7-.867.2-1.7.5-2.5.9 1.3.9 3.6-.9 4.6-1.6zM79.1 80.9c-.1.2.6.7 0 0zm8.7 5.8c-.333-.2-.633-.4-.9-.6.3.2.5.4.9.6zm36 14.9c-.067-.067-.133-.1-.2-.1-.1.1.1.1.2.1zM86.9 86.1c-.2-.2-.4-.4-.7-.5l.7.5zm-43.4 51s2 1.2 1.9.9c0-.7-3-1.5-2.5-1.4.133.333.3.667.5 1 1.3.3-.3-.6.1-.5zm100.1-61.5c-1.3.9.8.9 1.1 2.2-.4-3.3 0 .5-1.1-2.2zm1.2.8c.267-.267.367-.6.3-1-.467 1-.567 1.333-.3 1zm-78.4 67.5c.333 0 .6.033.8.1-.4-.2-.6-.2-.8-.1zM63.6 20.7c-.067.333-.133.633-.2.9.2-.5.2-.7.2-.9zm78.1 37.5a10.604 10.604 0 00-.3-1.4c.067.467.167.933.3 1.4zm-3.6 60c-.2-.7-1.6 2.1-1.7 2.6.6-.8 1.167-1.667 1.7-2.6zm-27.7 26.1c.067 0 .267-.067.6-.2l-.6.2zm33.8-79.4c0 1.1-.1 3.8.6 4.5a787.5 787.5 0 01-.6-4.5zm-27.6 35c.2.067.433.167.7.3l-.7-.3zm18.9-53.2c.067 0 .1-.033.1-.1-.067 0-.1.033-.1.1z"/><path fill-rule="evenodd" clip-rule="evenodd" d="M139 35.3c12.1 18.7 13.8 41 9.4 61.7 1-.2 3.9-2.1 2.1-.2 3.6-.6 1.6.2 4.6 0-.267-.333-.5-.633-.7-.9 2.1-.1 11-3.1 11.5-2.6 0 0-4.7 3.2-3.4 3.3l3.2-1.8c-2.6.3 6-6.1 5.8-4 0 .3 2.1-1.2 2.3-1.4-.5 1.5 2-1.6 1.9-1.2.5-1 5-3 6-4-.3.8-4.9 5.3-5.6 5.7.133-.067.3-.133.5-.2-2.4 1.5-5.4 3.5-5.6 3.7.6-.6 1.233-1.2 1.9-1.8-1.5 1-3.7.6-4.9 1.9a10.6 10.6 0 001.4-.3c.1 0-4.1 1.9-3.2 2.1a4.483 4.483 0 002.1-.3c-1.6.6-5.3 2.7-6.1 1.7-.3.2-4.3 1.4-3.9 1.8.6-.067 1.2-.167 1.8-.3-.1 0-1.6 1-2.1 1.1 1.1-.7-5.4 0-5.6 0-1.467 1.267-2.333 1.4-2.6.4a3.597 3.597 0 00-.3-.9c-.7.2-1.1 0-1.4.2-.8.4-1.5 2.2.3 1.9-4.2 2.3-5.4 11.4-8.5 14.7 0-.6.033-1.2.1-1.8-1.9 2.5-2.9 5.6-4.9 7.9l.2-.8c-1.2 1.4-2.7 2.8-3.4 4.5.133-.4.1-.8-.1-1.2-1.3-.3-3 4.6-4.9 5.4a20.9 20.9 0 012-.3c-1.5 1.2-1.3 2.9-2.8 4-.067-.2-.1-.433-.1-.7-2.5 2.4-3.6 3.6-6.2 5.4-2.1 1.5-4.7 2.2-6.4 4.1-1.5 2.2-10.9 6.2-14.8 7.1-2.1.5-5.9 1.9-8.2 1.7.9-.8 3.5-.8 4-1.9-5 .8-9.6 1.9-14.7 1.9-.9.2-2.9.6-3.2.7 1 0 2-.1 3-.3-.5.2-.6.4-.2.9-.2-.2-10.2.2-11.7 0-3.2-.4-6.3-1.1-9.3-2-4.3-1.1-8.5-2.6-12.7-4-2.2-.8-5-1.4-7-2.5-2.3-1.4-4-3.7-6.5-4.8.133.133.267.3.4.5-5.4-2.5-18.4-11.9-19-17.2.1.1 1.4 1.2 1.4 1.2.2-.7-3-4.7-3.6-5.7-.4-.7-2.7-5.6-1.6-3.9-3.3-5.2-6.3-10.8-7.6-17-.9-4.1-1.8-8.9-.9-13.1 0 .2 1-3.4 1.4-2.4-.7-1.8-.3-3.9.1-5.7 1.2 4.1 0 6.6.8 11.5l-.4-.4c0 1.6 3.2 6.3 2.4 7.4 0 .1-.7-.9-1.1-.6.5 2.3 3 2 2.4 4.5.067.267.033.533-.1.8 0 0-.7-1.1-.8-.8-.3.6.4 2.6 1 2.9.3.2.7-1.1.7-1.1.1-.2 1.5 4.1 1.8 4.7.5 1.2 1.3 2.4 2.1 3.6a.884.884 0 00-.4-.1c-.2 0 4.4 6 5 6.8.5.7 3.8 6.3 2.3 3 2.5 5.1 8 7.2 11.7 10.9.7.4-2.9 2.4-3.3.8.4 1.8 5.4 2.1 6.5 3.1-.4-.533-.867-1-1.4-1.4 1.6.9 3.9 3.7 5.9 3.6-.533-.133-.8-.433-.8-.9.3-.3 3.6.7 4 1.1-.333.133-.667.2-1 .2.8.733 1.733 1.2 2.8 1.4-.6.9-2.9-1.7-3.3-.4 4.3 2.6 9.4 2.6 13.9 4.7-.133-.067-.267-.033-.4.1 1.4.8 3.8 1.7 5.3 2 1.6.3 3.4 0 5 .3.7.2 4.7.6 2.2 1 7.8.3 14.7 0 22.2-.9-.333.067-.567.233-.7.5 3.7-.2 6.8-1.8 10.2-2.9.8-.2 6-1.7 6.5-1.7-.2-.067-.433-.1-.7-.1 1 0 8.2-5.1 10-6.2 4.3-2.8 7.5-5.7 10.9-9.5-1.4 1 .7-1.4.9-1.7-.5 1.4.8 0-.4 1.9 1.6-1.4 2-5.8 4.5-5.9-.533.6-1 1.267-1.4 2 1-.8 2.6-2.4 2.9-3.8.1-.1-1.2.6-1.2.6.2-1.2 3-4.2 3.7-5.3 1.1-1.8.9-2.8 1.9-4.7.267.2.4.5.4.9.6 1 1.5-4.9 1.5-5.3 1.2.2.7 1.9.4 2.5.4-.4 1.9-2.7 1.7-.6.3-2.4.4-.8-.4-1.5.733.067 1.033-.3.9-1.1-.933-.667-1.733-.733-2.4-.2.2-.2-3.5 0-4.4.5.333.133.633.3.9.5-1.5-.5-8.5-.6-10.1-1-1.9-.5-5.4-.9-6.7-1.4-1 0-5.3-1.7-3.5-1.4-1.1-.5-5.9-.7-4.2-1.4 0 0-2.2-.9-.8-.4-.4-.2-5.5-2.1-3-.5-2.3-.7-4.4-1.8-6.7-2.6-2-.8-4.2-1.2-6.2-2.2.7-.7-3.2-3.7-4.4-4.7-2.1-1-7.9-5-9.1-6-2.2-1.8-3.3-5.6-4.5-6.1a5.811 5.811 0 00-2.2-2.2c1 1.6 1.8 3.2 3 4.7-1.6-1.4-3.4-2.3-4.8-3.9 0 .333.1.6.3.8-3-3-5.6-5.1-8-9.6 1.5 2.2 3.4 3 4.8 4.3 1.3 1.2 2.6 4.1 4.3 4.8-.6-1.1.7 0 .6-.4-.2-1.1-3-5-3.7-5.8.7 1.4-2.1-1.2-.1 1.1-2-1.8-3.6-4.1-5.1-6.4a.888.888 0 01-.1.4c-.1 0-1.1-.8-1.3-.6-.2.3 1.8 2.2 2.1 2.5 0-.333-.1-.633-.3-.9a39.15 39.15 0 011.5 2c-.2.6-2.4-2.8-1 .2-1.5-1.5-2.9-3.8-3.7-5.3-.6-1.2-2.1-4.2-2.2-5.4 2.3 3.6.1-1.7-.4-2.8-.5-1.2-2.4-4.8-2.7-7.4.4 1.9 1.1 1.4 1.6 3-.1-3.3-2.4-6.8-3.6-10-1.6-4.4-.3-7.4-.6-12 .1.6 1.7-2.9 1.8-3.8-3.1 5-.4-1.3.2-2.8.7-1.6 1.7-3.3 2.6-4.8-.3 1 .7-.2-.1 1.6.5-.9 5.4-8.1 6-8.6C68 3.4 74 1.3 80.2.7c24.6-2.1 46.4 15.6 58.8 34.6zM57.1 16v-.1c-.067.067-.067.1 0 .1zm6.2 46.9c.2.133.333.3.4.5a3.287 3.287 0 00-.4-.5zm-.6-1.7l.6.8c0-.267-.2-.533-.6-.8zm70.9 41.2c-.067-.067-.133-.1-.2-.1.133 0 .2.033.2.1zm-80 38.6c-.067 0-.133-.033-.2-.1.067 0 .133.033.2.1zm-20.1-8c0-.133-.067-.267-.2-.4l.2.4zm-20.8-23.2c.4.6.767 1.167 1.1 1.7-.5-.3-.8-1-1.1-1.7zm70 41.3H81a7.208 7.208 0 011.7 0zm-3.3-.2h.3c.6-.1.8-.1-.3 0zm47-21.1c.2-.067.367-.133.5-.2a3.86 3.86 0 00-.5.2zm52.3-41.2c2-1.5 3.7-3.6 5.3-4.9.4-.3 3.3-3 2.6-2.7-.1 0 2.5-2.3 2.7-2.5-.4.867-.133 1.033.8.5-1.3 1-1.1 2.4-2.4 3.4.467-.6.833-1.2 1.1-1.8 0-.1-3.9 3.2-4.3 3.5.4-.2.8-.433 1.2-.7.9.6-2.4 3-2.4 3.9-.8.5-1.6 1.2-1.7 1.3l.6-1c-1.9.6-2.9 2.2-4.7 2.9 0-.3 2.3-2.1 2.2-2.2-.1-.1-.5 0-1 .3zm5.6-1.8a.888.888 0 00-.4.1c.2-.067.333-.1.4-.1zm-1 .6v-.1l.1-.1c-.067.067-.1.133-.1.2zm-9.5 2c.067 0 .067 0 0 0zM11.5 108.1c.5.3.9 1 1.2 1.7-.4-.533-.8-1.1-1.2-1.7zm165.1-18.4c.8-.5 1.6-.9 2.1-1.1a9.05 9.05 0 01-2.1 1.1zm7.3-2.8c-.133.067-.3.167-.5.3.133-.133.3-.233.5-.3zM96.2 11.3c-2.1-.7-7.6-1.4-8.7-1.5-3.3-.4-6.7-.3-9.9.4-2.5.5-5.8 1.6-7.8 2.7-1.5.9-3 3.4-2 1.9-1.3 1.9-3.7 3.7-4.2 5.9 0-.1.5-3.6.3-3.5-2.1.8-2.1 7.4-2.4 9.3-.1 1-.6 6.8-1 5.8-.1.7.9 2.3.3 2.8-.467 0-.767-.233-.9-.7.5 9.9 5.7 18.4 10.4 27 4.1 7.5 10.7 14.2 17.5 19.9 1.6.7 3.3 1.2 4.6 2.3-.133.267-.333.5-.6.7 2.2 1.2 4.9 1.6 7.1 2.5-.2.2-.433.233-.7.1-.4.1 1.4 1 1.8 1.2-1.6-.4 2.4 1.1-.8.2-.6 1.1 3.6 2.3 3 1.8 1.2.9.1.2-.1.7.733.8 1.5.933 2.3.4 0-.267-.067-.5-.2-.7 1.7 1.2 4.5 3.1 5.4 2.4 8.1 1.4 16.1 2.8 24.3 3.8-2.5.5-5.3-.5-7.7.2h.2c-.6 0-1.3.2-1.3.3 1.8.8 3.6-.3 5.1.6-3.3-.2 1 .7-1 .9 0 0 7 .5.9-.6.9-.5 3.4-.5 4.4-.5 1.3-.1 4-.4 5.4-.3-.267.267-.567.5-.9.7 1.8.5 3.9-9.6 1.3-9.4 0-.3.3-2.7.4-2.5.1.1.5 1.7.8 1.3.1-.3 1.1-2.7.3-2.9-.467.2-.833.5-1.1.9.7-1.3-.2-2.3.3-3.7-.1 1.8 1.2 0 1 2.3.133-.467.267-.967.4-1.5.4 0 .5 2.4.6 2.6.4-1.8 0-3.5.3-5.2.8.8-.2 2.9.4 3.9.4-1.3 0-4.5 1-5.6.2.9-.8 3.4 0 4.1.4-.4.5-1.1.7-1.7a.888.888 0 00-.4.1c.9-3.8-1.2-7.1-.3-10.6.1.9.3 1.7.4 2.6 1.2-.3.7-4.9.6-5.6-.1-.6-1.5-5.4-.9-1.9-.7-.3-.3-3.1-1.1-2.7-.2 1.5-.7.4-.5 2.8.2 1.7 1.5 3.7 1.1 5.8-1-.3-.8-4.1-1.4-5.4.3 2.3-.7 0-.6 1.2-.3-2-1.6-2.8-2-4.7l1 1.2c-.3-2.1-1.1-1.9-1.6-3.4-.4-1-.4-2.1-.8-3.3-.6-2.3-1.7-3.4-2.6-5.4 1 .1 1.9 2.4 2.2 3-.2-.467-.167-.533.1-.2-.1-1.5-1.6-2.5-1.7-3.9.1 1 3.2 5 3.9 6.5.3.8 1.7 6.1 2.5 5.6 1.1-.6-3.6-9.6-4.1-10.6a3.28 3.28 0 00-.4.5c-1.2-2.2-2.3-5.1-3.8-7.2.4.333.767.667 1.1 1 .9-5.8-7.4-9.5-10.2-13.5 0-.7 1.7.9 1.9.7 1.3-.9-4.9-4.5-5.5-4.7.9 1.4-1.2-.1-1.6-.6a7.37 7.37 0 011.5 1 7.568 7.568 0 00-2-2.6c.333.067.633.133.9.2-1.5-1.7-3-2.6-5-3.7-.6-.3-3.3-2.4-2.9-1.7-.333-.2-.733-.3-1.2-.3-.2.5.9 1.1-.8.1 1.4.2-1.4-1.8-.9-2.3.2.1 2.4 1.8 2.4 1.2-2.1-1.5-3.8-6.1-3.7-.8-1.3-.2-1.3-2.9-2.4-3.5 1.4.6.8-.3.3-.6-2-1.5-5.7-1.5-8-2.5.267-.067.533-.1.8-.1-1.2-.2-2.1-1-3.4-1.1-.067 0-.1.033-.1.1zM114 22.2c-.5-.5-.7-.9-.8-1.1.333.267.6.633.8 1.1zm31.5 58.3c0-.133-.033-.3-.1-.5v.6l.1-.1zm-18.2 16.4h-.9.9zm-23.8-7c.333.133.567.333.7.6-.267-.2-.5-.4-.7-.6zm-15.8-8.6c-.467-.4-1-.7-1.6-.9.533.333 1.067.633 1.6.9zm.2.1l-.1-.1h-.1c.067 0 .133.033.2.1zm57.7-3.2c-.4.6-.2 1.3-.2 1.8.1-.8.1-1.6.2-1.8zM96.2 11.3c.4.1.7.2.8.4 0 0-.7-.3-.8-.4zm26.3 89.5l.4.2c1-.2.5-.2-.4-.2zM81 151.1a86.37 86.37 0 00-1.5.2c.3-.1.9-.2 1.5-.2zm15.7-59.3c.3 1.4 4.7 2.4 7 3.7-.3-.8-6.2-3.8-7-3.7z"/><path d="M189.3 83.1c1-1.2 1.4-1.8 1.6-3.2-1.4 1.8-3.1 3-4.9 4.4.8-.4 1.6-.7 2.4-1.1-.2.2-.4.367-.6.5.467-.2.967-.4 1.5-.6zm-4.1-2c-.4.133-.833.233-1.3.3 0 .2-.033.367-.1.5l1.4-.8zm-23.7 11.2c.6-.5-2.1-.1-2.2.5.7-.1 1.4-.3 2.2-.5zm9.5 2l1-.8c-1.067.133-1.933.567-2.6 1.3 1-.6.6-.1 1.6-.5zm-17.6 0c-.6.8-2.3.2-2.6.9.5-.3 2.6-.2 2.6-.9zm3 5.6c.9.3 2-.5 3.5-.8-1.2.3-3.1.2-3.5.8zm-3.6.8c1.2.067 2.4 0 3.6-.2-.8-.467-1.667-.5-2.6-.1.133-.267.3-.5.5-.7-1.3 0 .1.7-1.5 1zm-17.2-3.5c1.2-.4 3.6-.1 4.7-1-.7 0-6.6.5-4.7 1zm2 4.5c-1.133.4-2.267.767-3.4 1.1 1.1-.2 3.1-.9 3.4-1.1zm-37.5-13.6c-.5.1 1 1.4.5.7.4-.1-1.6-1.6-.5-.7zm4.8 8.8c-.9-.5-4-1.5-5.4-1.9 1.6.6 5.4 2.5 5.4 1.9zM99.5 95c-.2-.067-.367-.1-.5-.1.1 0 .3.1.5.1zM57.1 54.7c.333 1.133.933 2.067 1.8 2.8-.9-1.3-1.7-2.8-2.6-4.1.067.533.333.967.8 1.3zm-3.9-13.9c.3.7.3 1.8.6 1.5.1-.5-.5-2-.6-1.5zm64.4-16.5c-1-.9-.7-.1-1.5-.6.9.8 1.4 1.2 1.5.6zm1.5 2.1a9.371 9.371 0 01-.3-1.1c0 .5.1.7.3 1.1zm5 5.3c-.1 0-.3-.2-.5-.3.4.3.7.6.5.3zm.4 1.2c.333.2.7.433 1.1.7 0 0-.9-2.1-.9-1.8 0 .3.9 1.6-.2 1.1zm4.6 4.9c1.8 3.3 4.4 4 5.9 6.4-1-2.4-3.2-2.8-4.3-5.1.5 1.8-1.3-1-1.6-1.3zm1.9.6c-.3-.5-.4-1.6-1.2-2-.5.1.6 1.6 1.2 2zm3.4 7.8c-.2-.467-.433-.933-.7-1.4 0 .8.4.9.7 1.4zm1.3 3.1l-.9-1c.3.3 1.1 2.1.9 1zm2 6.5c.067.533.3.9.7 1.1.467-.4.433-.9-.1-1.5.1.5 0 1.8-.6.4zm4.8 15.9c0-.4-.1-2.5-.4-2.3.133.733.267 1.5.4 2.3zm2.5-5.1c.1 1.8.1 1.6.3 3.8.7-.8-.3-2.2-.3-3.8zm-3.4 5c-.3.3-.2 1.8.2 2-.3-.5-.2-1.5-.2-2zm.5 5.6c-.5 1.3-1.2 2.8-.7 4.5.4-.6.867-.667 1.4-.2 0-2.2-.4-5.6-1.5-7.2-.1 1.3.8 1.7.8 2.9zm2.5-2.3c.8-.4-.3-2.5-.4-2.9-.4 1.4.1 1.6.4 2.9zm-3.9 18.2c.067-.6.133-1.233.2-1.9-.2.933-.367 1.867-.5 2.8.067-.267.167-.567.3-.9z"/><path d="M139.9 92.9c-.067.733-.1 1.5-.1 2.3 1-1.667 1.033-2.433.1-2.3zm-.8 2.8c.267-.6.4-1.267.4-2l-.4 2zm-5.4 29.3c.667-.333.867-.767.6-1.3-.8-.1-.4.8-.6 1.3zm-2.7 2.1c.8-1-.6 1.1-.9 1.7 1.3-1.4 2.1-3 3.2-4.6-.733 1-1.5 1.967-2.3 2.9zm-40.1 23.3c.1-.8.3-.6 1.2-1.1-2.5 1.1-5.5.9-7.6 2.3.5-.3 2.4-.4 3.2-.7l-.4.4c1.4 0 2.2-.8 3.6-.9zM4.1 87.9c-.5-1.5-.4.3-.5.5.3.2.4-.2.5-.5zm184.5 22.8l-.1.3c.4.3.2 0 .1-.3zm0 0l.2-.1c-.133 0-.2.033-.2.1zm1-.4c.4-.3.4-.9-.2-1.2.3.5-.4.8.2 1.2zm.4-2c-.333 0-.633-.067-.9-.2.267.267.433.567.5.9.2-.333.5-.567.9-.7.4-.5-1.3-.4-.5 0zm5.3-20.2a1.178 1.178 0 00-.3.2c.133 0 .233-.067.3-.2zm5.9-17.8c.067-.067.1-.167.1-.3-.133.133-.167.233-.1.3zm-4.2 8.6c-.133.067-.2.133-.2.2l.2-.2zm-4.4 23.4c.1-.1.1-.2 0-.3-.1 0-.1.1 0 .3zm0-.3c.4-.1.6-1 0-1-.3.6-.2.4 0 1zm3.5-18.1c-.2-.1-.1.1 0 0zm-.3 2.2c.067-.067.1-.133.1-.2 0 0-.1.1-.1.2zm-3.5 7h.1-.1zm3.7-7.4c0 .067-.033.133-.1.2.1 0 .1-.1.1-.2zm-17.5-18c.9-.9-.3.6.1-.3-.1 0-.3 1.1-.1.3zm31.2-12c1.2-2.2-1.7 2-1.5 1.8.4-.4 1.2-1.4 1.5-1.8zm-26.4 10.7h.2c-.1-.1-.1-.1-.2 0zm24.1 7.8c0 .067.033.167.1.3 0-.133-.033-.233-.1-.3z"/><path fill-rule="evenodd" clip-rule="evenodd" d="M217 55c-.7.7-1.2 1.7-1.9 2.3.333-.133.633-.267.9-.4-.8 1.1.8 0 1-.1-.067.2-.167.4-.3.6a2.36 2.36 0 011.1-.5 7.727 7.727 0 00-1.9 1.7c.067-.133.1-.3.1-.5-.2-.2-2.3 2-2 1.8 0 .067.067.133.2.2.467-.333.967-.7 1.5-1.1-.8.8-1.6 1.6-2.2 1.9 1.5 1.4-1.2 1.7-.6 2.7.2-.2.4-.3.6-.3-1.5 2.8-3.1 7.6-5.8 9.3.3.7-.4.7-.3 1.6 0-.1-.5-1.8-1-1.1.6 1.6.3 3-.6 3.4-.133.2-.067.367.2.5-.4.133-.7 0-.9-.4-.6 2-.9 5.2-3.4 6.4.3 1.6-1 2.5-2.2 4.1.1.4.2 1.2.1 1.2a2.55 2.55 0 01-.6-.3c.133.667.267 1.3.4 1.9-.5.1-.9 0-1-.2-.867 0-1.033.2-.5.6 0 0-1-.4-.7.1.333.333.733.433 1.2.3-1.9.8-.9 3.8-2.4 6.2v-1.7c.1-.1.2-.2-.2-.4-.5.4-.5.1-.1.8.2.3-1.6-.7-1.2-.1.267.733.467.767.6.1.1.1-.1 1.8-.1 2.1-.3.1-1.8.9-2 1.1.8-.4 1.1-.1 1.2.5-.067 0-.1.033-.1.1v.4c0-.1-1.4.2-1.6.4l.8.2c-.5.2-1.6 2-1.6 1.9-.1-.1-.2-1.6-1.3-1.4 1.4 1.5 1.3 1.8.6 2.6.067.2.133.333.2.4h-.3c.1.1.1 2.3.1 2.1-.7-.5-.6-1.9-1-2-1.2.4.8 2.5.6 2.8-.2-.2-.4-.2-.6 0 .4.5.8.3.4 1.1-.1-.1-1.7-.6-1.4-1.2.133.333.367.533.7.6.2-.4.167-.8-.1-1.2.1.1-1.6-.9-1.5-.8.133-.2.2-.433.2-.7.9-.1-.1.1.6-.7.067.4.3.633.7.7-.4-.1.4-1.3.1-2 .7.8 1.3.1 1-.2-.1 0-.4-1.3-1.1-.5.2-.4 1.1-1.9.7-2-.133.267-.3.333-.5.2.2-.133.2-.3 0-.5-.1-.2 2.6-.8 2.8-1a3.769 3.769 0 01-1.3-1.4c.3.1.7.7.7-.1 0-.1-.2-.2-.5-.2.6-.2.4-1.5-.2-2.1.8-.4 2.4-3.8 2.4-3.5.3-.2 0-1.2.5-.8.2-.2.2-.6.2-1.1.3-.1 1.2-1 .8-1.3-.7-.2-.2.5-.8 1.2-.2-.8-.4-1.8-.3-2.6 1.5.1 2.4-3.1 3.1-4.2-2.3 1.1.5-1.2-1.1-1 .1-.5-.1-1.8.7-2.4-.2.2.3 2.9.2 2.9.2.2.433.233.7.1-.5-1 .9-.4 1-.8-1.1.6-.4-1.7-.3-2-.2.5-.7-.5-1-.3.5.2.1 1 .6.5l-.2.6c-.9-.3-.4-1-.6-1.7.8.7.9-.7 1.1-.8.3.3.4.7 1 .1 0-.5-.9-.9.3-1.8 0 .333.067.633.2.9.6-1.2-.9-2.2-.7-3.2.2-1 1.3-.2.8-1.5.1.1 1.4.9 1.1-.3l-.6.2a2.716 2.716 0 01.8-1.7c.2.6.6.7 1 .2-.3-2-.1-3.1 1.6-4.7-.8.7-.5-.2-.4-.4-.1.2-1.3 2.3-.6.6-.2.5-.5.8-.6 1.3v-.1c0-.7 0-.4-.3-.9.3.5-.4 1-.7 1.4.4-.6.6-.9.5-1.6-.2-.1-2.4 1.2-2.4 1.1.067-.4-.067-.7-.4-.9-.2.1-.6 1-1.1.7.4.5 1.2 2 .2 1.8a.883.883 0 01-.1-.4c-1.9.4-6.6 2.1-7 3a3.846 3.846 0 01-.5-.2c.2-.333.367-.667.5-1-1.6-.1-2.8.4-3.4 1.3.6-.1.4-.5.9-.6 0 .133.1.133.3 0-1.3.6 0 .9-.4 1.1-1.7 1.1-4.3.8-6.2 1.2-1.3.2-3.1.8-4.1 1-.6.2-3.7 2.6-4.4 1.5.1-.4-2.5-.7-2.1-.9-2.3.9-4.4.9-6.6-.4.5-1.5-.9-1.3-1.4-1.9.8 0 1.4 0 2.2.4a2.75 2.75 0 001.3-1c.2.333.233.7.1 1.1.333-.4.5-.867.5-1.4.2-.2.6 1.2.6 1.3 1.1-.1-.4-1.3.5-1.7 0 .467.167.8.5 1 .3-1.5 1.1-1.1 1.7-1.2-.1.4-1.7-.1-.6 1.1a20.99 20.99 0 001.5-1.9c.067.333.2.6.4.8-.1.4.3-.3.4-.6 1 .2 1.9-1.7 2.8-1.7-.1.1.4 2.5.4 2.5.2-.2 1.5-2 .5-1.9.467-.067.867-.3 1.2-.7-.6.3 0-1.4.2-1.2 0 .2 0 1.3.6.2-.2.4-.3.8-.3 1.2.1-.1 5.7-2.9 5.3-1.9 1.2-.7 7.4-3.3 7.7-2 .4-.1 5-3 5.1-3.5.133.267.167.567.1.9 1 .1-.1-1.4.9-1.4.2.5.7.4 0 .8 1.4.3.3-.8.6-1.1.5 1.4 2.1-1.2 2.6-1.4-.133.333-.1.633.1.9 1.2.3.9-1.4 1.5-1.8 0 .4-.1 2.4-.1 2.5 1.5-2.3 4.2-4.6 6.1-6.5.2.1-1 1.5-.9 1.7.1-.1 2.4-3 2.8-2.8-1.2.9-2.1 2.8-2.7 3.8.533-.333 1.1-.7 1.7-1.1-.5.7-1.2.9-1.7 1.6.267 0 .5-.067.7-.2-.5.5-1.4 1.8-1.3 2.3.467-.067.733-.333.8-.8 0-.3-.2-.1-.3.1.3-.5.6-1.1 1.3-1.2-.3.6.8-.1 1.1-.3-.5.5-.9.6-1 1.5.6-.2 1.6-1.7 1.2-1 .2-.3.6-.6 1.1-.9-.133.133-.2.233-.2.3 1.4-1.3 3.6-2.2 4.9-3.5-.2.3-.4.8-.7 1 .8-.3.3.5.4.4 0 0 1.2-.7 1-.2-.1.1-1.6 1.4-.9 1.2l.8-.4 1-.8zm-1.9-1.4a1.173 1.173 0 01-.3.2l.2-.2h.1zm-.7.3c0-.067.033-.1.1-.1l-.1.1zm1.1-.8l-.5.5a3.86 3.86 0 00-.5.2l-.1.1c-1 .4-2.2 1.4-3.1 2.3.067-.133.1-.3.1-.5-.1.1-1.7 1.4-1.7 1 .4-.5 3.5-3.4 4-3.4a5.768 5.768 0 01-.9.9 4.706 4.706 0 001.8-1.4c-.2.267-.167.5.1.7.333-.067.6-.2.8-.4zm-8.6 6h-.1.1zm1.2-1.9c-.067.067-.167.1-.3.1.133-.067.233-.1.3-.1zm-35.7 13.1c.3-.3.3-.2.2.1-.067 0-.133-.033-.2-.1zm25.3-3.5c0 .067.033.133.1.2-.2-.3-.3-.4-.1-.2zm.1 15.5c-.2-.2-.4-.1-.6.2l.6-.2zm-7.5 14.2l.6.3c.2.067.4.1.6.1-.133.067-.333.033-.6-.1-.4 0-.7-.1-.6-.3zm4.7 1.3v-.1c.067 0 .067.033 0 .1zm1-2.7v.1c-.1.1-.2.1 0-.1zm3.5-8c-.1-.6-.1-.4 0 0zm17.7-29.2c-.533.4-1.033.767-1.5 1.1.5-.5 1.1-1 1.5-1.1zm-6.5-.9a3.12 3.12 0 01.6-.8c-.1.3-.4.6-.6.8zm3.7-3.1a.887.887 0 00.4-.1c-1.8 1.8-.7.5-.4.1zM192.8 93l-.1.1c.2.3.2.1.1-.1zm1.5-3.6h.1v-.1l-.1.1z"/><path d="M187.7 106.5c.2.467.533.8 1 1-.2-.467-.2-.933 0-1.4-.3.2-.7.5-1 .4zm6.5-4.6l-.4.4c.2.2.8-.1.4-.4zm.5-1.1c-.4-.3.4-.4 0-.6.1.1-.4.4 0 .6zm-4.9-1.6c-.5 0-.2.4-.4.7.1-.3.7-.4.4-.7zm4.5-.8c-.5-.7-.1.1-.1.4.333-.267.7-.367 1.1-.3-.8-1.1-.7-.4-1-.1zm-4.3.1c-.2.2-.433.367-.7.5 1.4.3.7-.3.7-.5zm5.8-.3c.4-1 .3-1.4-.3-1.2 0 .467.1.867.3 1.2zm-4.8-2.4c.3-.2-1.7.4-.5.4 2 .1-.2.1.5-.4zm.2-.9c.2.5.3.8.6 1l-.6-1zm7.3-4.9c.1.2.7-.1.3 0-.2-.1-.7.1-.3 0zm-4.8-1.8c-.1.4-.5 1.1-.2 1.2.3-.1.2-.8.2-1.2zm4-10.3c0-.4-.033-.767-.1-1.1 0 .2-.1.9.1 1.1zm1.5-2.7c.1 0 0-.4-.2-.4.1.2-.1.3.2.4zm17.5-18.7c.2-.4.1-.3-.5.1 0 .2.4-.2.5-.1zm.3-1.9c0-.1-.1-.1-.2 0h.2zm-.7.4a12.3 12.3 0 001-.9c-.5.2-.6.5-1 .9zm-.2-1.4a5.26 5.26 0 00-.8.5c.2.1 1.5-.4 1.4-.4.2-.3-.1-.7-.6-.1zm-.4 1.2c.3-.3.3-.5.2-.4-.1.1-.5.6-.2.4zm.1-1.7l.5-.3c-.2.1-.4.1-.5.3zm-.9.1c-.267-.2-.1-.433.5-.7 0-.1-.8.8-.5.7zm-6.1 4.9c-.5.8.4-.3.5-.1-.2 0-.1-.2-.5.1zm3.4-5c.3-.5-.1-.4-.5.1.4-.4.4-.1.5-.1zm-1.5.5c.133-.267.267-.5.4-.7-1.3-.7-2.2 2.3-2.6 2.8 2.7-2.1 1.4-1 3.6-3.2a4.46 4.46 0 00-1.4 1.1zm-1 3c.9-.6-.7.7-.9.9.267-.333.567-.633.9-.9zm-4.7.9l.7-.7-.7.7zm.2-.7c.3-.1-.6.3-.8.7.267-.2.533-.433.8-.7zm-1 .3c.3-.2.6-.4.8-.6l-.8.6zm-1.8 1.1c.333 0 .567-.167.7-.5-.2.2-.8.6-.7.5zm-3.4 9.9c.333-.2.6-.5.8-.9-.7-.2-.6.6-.8.9zm-8.6 2.7c-.4-1.4-.8.3-1.1.6.3-.1.7-.6 1.1-.6zM166 72.7c.1-.2 0-.3 0-.5-.3.2 0 .4 0 .5z"/></g><defs><clipPath id="clip0_27_34711"><path fill="#fff" transform="rotate(-90 76.5 76)" d="M0 0h152v217H0z"/></clipPath></defs></svg>