<svg width="229" height="69" viewBox="0 0 229 69" fill="none" xmlns="http://www.w3.org/2000/svg"><g clip-path="url(#clip0_27_35131)" fill="#100F12"><path d="M.6 11.8c-.8.2-.1.2.3.5l-.3-.5zm.3.5l.1.4c.1-.2 0-.3-.1-.4zm-.1 1.8c.2 1 1.3 1.9 2.1 1.3-1-.2-1-1.5-2.1-1.3zm1.7-.7c.2.1.5.6 1.1.7a6.2 6.2 0 00-1.1-.7zm2.1 4.4c-.1-.8.4-.9.4-1.5-.8-.8-1.3.7-2.1-.4-.1.2 1 2.5 1 2.5.133-.333.367-.533.7-.6zm44 25.7c.067 0 .1.033.1.1 0-.1 0-.2-.1-.1zm-8.5-2.4a4.908 4.908 0 01-.3-.5c0 .2.1.4.3.5zm36.2 10.2c.267.067.5.067.7 0-.4-.1-.6-.1-.7 0zm-18.5-5.9c.133.133.267.2.4.2-.133-.133-.267-.2-.4-.2zM13.4 27.8c.1.3.3.4.5.4 0-.2-.2-.4-.5-.4zm6.4 5.4c-.1.1-.1.1 0 0zm-5.9-5c-.133.334-.167.7-.1 1.1 0 0 1.4-.1 1.9.2.5-1.2-1.2-1.2-1.8-1.3zm34.6 15.5c0-.3-.3-.3 0 0zm-4.3-1l.4.2c-.1-.1-.2-.2-.4-.2zm-13.5-8.6v.1c.1-.1 0-.1 0-.1zm13.9 8.8c0 .1.1.2.3.2a1.165 1.165 0 01-.3-.2zm146.6.3a1.363 1.363 0 01-.9.1c-.1.7 1.2.2 1.4-.2-1.3-.7-.4-.2-.5.1zm-61.3 20.5s-.2.5.5.6c-.133-.733-.067-1.5.2-2.3-1 .7 0 .4-.7 1.7zm51.4-15a.887.887 0 01-.4.1c.3.1.4 0 .4-.1zM72.5 61.9c-.133.067-.3.1-.5.1.3.1.4 0 .5-.1zm73-11.1c0 .9.2 0 .8.3.133-.2.233-.4.3-.6a5.34 5.34 0 00-1.1.3zm-18.6 11.3c-.7.1-1.4.1-2 .1.4.2 1.8.3 2-.1zM8.3 16.8c.3-.7-.7-.9-2.1-.3a5.15 5.15 0 012.3 1.6c-.067-.4-.133-.833-.2-1.3zm-3.1 4.5c.2-.4.7-.2.2-.9-.067.334-.133.634-.2.9zm8.2 9.5l-.5-1c-.5.1 0 1.4.5 1zm1.8-7.8c-.6-.2-.1-.9-1-.7.067.6.4.834 1 .7zm.3 9.6c.8-.4.6 1 1.3.5-.4 0-.7-1.1-1.3-.5zm4.5-6.5c.3-.8-.6-.6-1-1.1.4.3.5 1.4 1 1.1zm1.3 8.2c-.6.6-1.6-.8-.3-.4a14.73 14.73 0 01-1.6-.5c.533.667.667 1.367.4 2.1.867 0 1.367-.4 1.5-1.2zm-.1-7.3c-.067-.6-.267-1.1-.6-1.5-.3.5-.4 1.4-.4 1.7.1.5.6-.6 1-.2zm-1 9.5a4.6 4.6 0 002.6.8c-.4-.5-1.6-1.2-2.6-.8zm2.2-6.9l.7-.7c.2.2-1.5-.1-1-.2.7.4-.3.7.3.9zm3.6-.4c-1-.3-.5.5-1 1 .333.067.667.167 1 .3v-1.3zm-.5 2.4a20.707 20.707 0 002-.3c-.9 0-1.5.2-2 .3zm11.1 14.1c-.3.2.5 1.2.1.5.3-.2-.1-1.1-.1-.5zm3.3-7.2c-.7-.2-2-1.2-2.2-.7.1.5 1.6.6 2.2.7zm22.6 8.2l.2-.1c-.067.067-.133.1-.2.1zm0 0c-.5-.1-1.6-.4-2 .1a20.29 20.29 0 012-.1zm4.4 2c-.4.2-.7-.1-.7.3.1.3.8 0 .7-.3zm35 18.9c.6.3.9.1.8-.5-.7 0-.3.4-.8.5zm5.1.7c.3-.1.5-.1.3-.2 0 .1-.1.2-.3.2zm.8.4c.1-.7 1.1-.6-.1-1.5-.4.3.6.9.1 1.5zm4.2-1.6c.9.6-.7.6-.9.8 2.7 1.1 2.3-2 3.9-2.4-1.9-.4-1.3 2.1-3 1.6zm-.2-.8c-.3-.1-.8-.8-1.1-.3-.1.6.8.6 1.1.3zm5 1.8c.2-.3 1.1-.3.5-.7l-.5.7zm3.7-1s1.1.7.1.9c.5.1 1.1-1.4-.1-.9zm6.7-1.7l1-.4c-.2-.1-1.3-.1-1 .4zm-1.6-4c.8 0 .7.2 1.6 0-.4-.8-.9.2-1.6 0zm2.6 4.8c.2.5 1 .3 1-.2-.2.4-.7.2-1 .2zm4.4-2.3c-1.5.7-2.4 1.5-3 2.8 1.1.1.5-1.2 1.3-1.2 2.4 1.8 1.1-.2 1.7-1.6zm-4.5-1c.6-.1 1.1-.9.9-.8a11.02 11.02 0 00-.9.8zm9.9.3c-.267.133-.533.3-.8.5 1.4-.467 1.667-.633.8-.5zm.1.7c.2-.1.5.2 1-.5-.333.133-.667.3-1 .5zm.6.5c.267-.133.567-.3.9-.5-.4.1-.6.3-.9.5zm2.4-.8c.4-.333.833-.367 1.3-.1l-.4-.4c-.467-.133-.767.033-.9.5zm7.2-14.1c-.6-.066-.633.2-.1.8 0-.267.033-.533.1-.8zm1.5.5c-.5.7.4-.6.5-.8a6.875 6.875 0 00-1.8 1.3c.467-.133.9-.3 1.3-.5zm19.9-6.2a1.78 1.78 0 00-.2-.8l-1 .8c-.6.2-.4.3-1.3 1.5.733-.6 1.567-1.1 2.5-1.5zm-7.4-18.4l-.3-.1c-.1.7.1.2.3.1zm0 0l.2.1c-.067-.133-.133-.166-.2-.1zm1.7.4c-.3.5-.9-.2-1 .7.4.5 1 .2 1-.7zm1.2 1.1c0 .1 0-1.6-.3-2-1.5.1.3 2 .3 2zm22.7-9.3h.1s-.1-.1-.1 0zm-3.5 2.5a1.175 1.175 0 01-.3-.2c.067.134.167.2.3.2zm16-8c.2-.066.367-.166.5-.3-.3.1-.4.2-.5.3zm-8.8 2.6c.133.067.233.1.3.1-.133-.067-.233-.1-.3-.1zm-20 11.8c.1.1.2 0 .2-.1-.1-.1-.2-.2-.2.1zm.2-.1l.4.8s.5-1.3.5-1.4c-.7-.1-.5-.1-.9.6zm16.2-8.6c-.1-.2-.2-.1 0 0zm-1.8 1.4h.2s-.1-.1-.2 0zm-7.3 1zm7.7-1h-.2c.1 0 .2.1.2 0zm8.3 25.3c.6-.133.6-.267 0-.4-.067.334-.2.334-.4 0 0 0 1.2 1.4.4.4zm2.5-4.4l.1-.1c-.1 0-.2 0-.1.1zm5.5-17.9c0 .134-.033.233-.1.3.133-.067.167-.166.1-.3zm11.1 8.5c-.9-.6.2.1-.5.1.2.5.3.6.5-.1z"/><path fill-rule="evenodd" clip-rule="evenodd" d="M220.1 18.3c-.733.2-1.067.6-1 1.2.267.067.533.167.8.3.2.3-2.4 5.8-2.7 6.3-.4.6-2.8 3.7-2.8 4.1-.2-.2-.433-.4-.7-.6-.3.1-1 2.6-1.2 2.4-.267-.466-.667-.666-1.2-.6-.1.2.5 1.4-.6 1.1.2.1 3.3 1.3 2.2 1.7a3.26 3.26 0 00-.5-.4c-.8.9-.8 2-2.1 2.4-.067.467.167.8.7 1-.9.2-.7 3-2 1.8 0 .7 0 .3-.4.9-1.7-1.2-2.2 1.6-2.8 1.2-.067.467.1.834.5 1.1.4-.5 0-.6.1-1.1.133.133.233.133.3 0-.4 1 .8 1-.2 3-.6 1.1-2.3 3.2-3 4.1-.9 1.3-2.4 1.7-1.2 3.2-1.2.3-1 3.3-1.9 3.1 0-.333-.167-.5-.5-.5 1.1 1.1-2 .3-.8 1.6-.467.2-.833.1-1.1-.3-.2 2.4-1.5 3.9-3.7 5a13.49 13.49 0 01-2.2-.6c.133.6-.133.9-.8.9l-.4-.4c.6-.1 1.3-1.2 1.8-1.4.4-.3-.8-1.6-.8-1.9.533.067 1 .267 1.4.6.3-.5-1.4-1.1-1.4-1.5 0-.2 1.9.6 1.9.6.5-.9-1.8-.7-1.8-1.7.467.334.967.434 1.5.3a9.114 9.114 0 01-1.3-2.2s1.7 1.2 1.8 1.2c-1-.8-.2-1.9-1.2-2.7.333.2.733.334 1.2.4-1-1 .1-.3-.7-.8 1-.3-.3-3 .2-3.5.2.2 3 1.8 3.2 1.8-.1-.4-1.2-3-1.9-1.9 0-.1 0-1.7-.5-2.4.4.1.6.1.3-.5.9.4 0 .7 1 1.2 1.1-1-.8-1.8-.5-2.6 1.2-2.8.8.3 1.2-.7.2-.5 1-3 1.6-2 .3-1.3 3.1-7.3 4.8-6.2.1-.3-.8-.7-.9-1-2 1.5-2.3 4.4-4.5 5.4.1-.1-1.8-3-1.9-3.4-.4 1.1 0 2.5-1.3 3.1.4.6.867.667 1.4.2-.4.6-2.5 1.2-2.4 2.2 1.1-.9.7 2.3-.1 2.3a2.682 2.682 0 01-.2-1c-.6.133-.967.467-1.1 1-.7-1.1 1.2-.9.3-2.1-2.1.9-2.2 3.4-4 4.5-1.3.8-1-.2-2.5.5-2.8 1.4-3.9 2.4-6.2 3.5-1.2.6-13.9 5.3-14.8 4.9l.6.6c0 .7-4.2 2.2-5.2 2.4-1.1.2-2.2-.3-3.3.1-1.1.3-1.4 1.4-2.9 1.8.9.3-.5.7-.7.9-.067-.6.067-1.1.4-1.5-1.8-.2-1.3 3.2-3.2 1.3.4-.066.733-.233 1-.5-.733-.2-1.433-.033-2.1.5.2.267.433.467.7.6-.5 0-2.7.7-2.8.7-1 .3-1.2 1.2-2.1 1.3-.6-.7.5-1.5-1-1.2-1.6.3.2 1.3-1.1 1.9-.4-.8-.233-1.466.5-2-.933-.133-1.233-.6-.9-1.4-1.9 2.1-7 2.3-6 5.4-.333.133-.667.3-1 .5-.4-.2.5-2-.2-1.7-.8.4-1.4.3-.3 1.6-1-.5-1 .9-1.7.5 1.3-.5-1-1.4.7-1.7-.1-.5.1-.4.2-1.6-.8.2-1.567.434-2.3.7.1-.9 1.3-.3 1.6-1.2-.6-.2-2.2.3-2.6-.4 0 0 2.1-.1 1.7-.6-.5-.6-.9-1.7-1.9-1.1-.6 1 .7.7 1 .5.067.2.1.367.1.5-1-.2-3.7 1.5-4.5.9.333-.133.7-.3 1.1-.5-.4-1.5-4.4-1.4-3.9-.1l.6-.2c-.2.534-.533.667-1 .4.2.3 0 1.7 1 2 .3-.9 1.6-1.6 2.7-1 0 1.4-1.5.1-2.4 1.3 1.5-.2-.7 2.4-1.5 2.5.2-.333.367-.7.5-1.1-1.4 0-1.3 1.2-1.9 2-.8-.1-1.6-.8-2.6-.8-.9-.1-.7.9-1.4 1.1.267-.8.767-1.3 1.5-1.5-.2 0-.2-.066 0-.2-.6-.4-1.6.8-2 .4.5.4 4.3-3.9 5.9-2.5.133-.8-.067-1.5-.6-2.1-.7.7-7 3.9-7.1 4.5 0-.533-.267-.666-.8-.4.2-.266.4-.5.6-.7-1.9-3.6-5.8 2-7.7 1.6-.4-.8 1.4-.8.5-1.6-2.1-.1-3 1.2-3 2.9a3.912 3.912 0 00-.8-.3c.267-.2.533-.367.8-.5-.4-.4-.9-.6-1.5-.6l.4-.6c-1.4-.6-3.1.6-4.6 1.2.2.133.433.267.7.4a5.71 5.71 0 01-1-.3c-.7.4.6.9-.5 1 .7-.9-1-1-.9-1.9.667.334 1.1.2 1.3-.4-1.2-.1-3.7-2.5-1.8 1.7-.3.3-1.7-3-1.5-3.4a10.687 10.687 0 01-4 1.2l.4-.6c-.8.4-.8-.4-1.7 0-.067.067-.067.134 0 .2-1.7-.7-7.3-.8-9-1.1-2.5-.5-4-.9-6-2.3-.4.467-.3.7.3.7-2 .8-2.2-1.1-3.8-.7.7-.6 1.7-.3 2-1.3 0 0-7.8 1.2-7.7-1-.4-.133-.7 0-.9.4-.533-.533-.433-1 .3-1.4-3-.5-13.6-1.4-14.6-5.6-1.9 1.6-6.9-3.3-8.9-4.6-.9.1-1.9.4-2.5-.2.2-.333.4-.633.6-.9a38.025 38.025 0 01-3.9 0c.333-.133.533-.4.6-.8a3.914 3.914 0 01-.8-.3c.9 0-.2-.4.7-.5.6-1.1-1.6-1.9-1.2-1-.2-.4-.1-.667.3-.8-1-1.2-1.5.6-1.2 1.3-2.2-4.1-8.7-2.6-12.3-7.4 1 0 2.5 1.4 3.4 1.2l-.4-.2c.333.134.7.134 1.1 0-.4-.3-1.8-1.3-1.9-1.4 1.3.6.2-.6 1-.8-.6-.2-2-1.3-.7.6-.3.1-4.2-1.7-4.2-1.7-.1-.1 1.4-.2.6-1.1-.7-.9-1.5-1.9-2.1-2.9.133.6.133 1.167 0 1.7-.333-.267-.733-.367-1.2-.3.2 0 .4-.033.6-.1-.467-.466-.967-.566-1.5-.3-.4-.666-.233-.933.5-.8-1.6-1.7.1-.3-.8-2.1-.2.333-.4.7-.6 1.1-.3-.6-2.9-4-3.1-4.3.6.7 3 .6 3-.7-1.6-.2-1.6.5-2.6.4-.6-.2-1.133-.1-1.6.3-.2-.666-.633-1.1-1.3-1.3.2-.267.367-.567.5-.9-.4-.2-.6-.2-.7-.2.067-.067.1-.2.1-.4-.1-.4-1.1-.3-1.3-.2.2-.3-2-1.9-2.5-2 1.3-.3 3.7 1.2 4.1.7-.1-2.3-4.7-1.3-5.2-2 .4-.267.5-.6.3-1-1.3 0-1.2.8-2.2-.7.5 0 2.1-1.7 3-.6-.6-.2-1.1-.067-1.5.4.533.667 1.233 1.034 2.1 1.1 0-1.1 1.9-.8 2.4-1.3.2.4.533.7 1 .9-.5 1.4.1 0 .9 1.7-.2.2-1.9-.6-1.6.3.3-.3 2.2 2 3.4 2.1a4.923 4.923 0 01-1.4 0c.7.3.3 2 1.4 1.8l-.2-.6c.333.467.767.7 1.3.7.533-.4.6-.866.2-1.4.8.8 3 3.5 3.4 2.8-.467-.267-.533-.567-.2-.9-.4.8.6 0 .8.4-1.8.1.9 2.1 1.2 2.2.2.9-.2 0 .5 1-.667.534-.9 1.2-.7 2 1-.2 1.9-1.5 3-1l-.8.6c1 2.2 1.6-1.3 1.8-1.9.1-.1.4 3.6 1 4 1.9 1.1 1.6-.8 2.4-1.2.6 1.6 5 4.1 5.1 4.2.3.2 2.3 1.8 1.2 1.6.5.6 2.5.3 1.5 1.1.3.4.2 0 .4.3.2 0 1.5.5 1.5.5l-.2-.6c.6.3 1.9 1.1 2.5 1.1.8.1 2.2-.3 3.2.1-1.3 3.5 3.5 3.2 5.5 3.9.5.2 2.9 3.8 3.6 3-.4-.733-.9-1.433-1.5-2.1.6.2 2.8.2 2.6-.5.533.2.633.533.3 1 1.8 1.3 1.6-2.5 4.4.3-.7-.4-5.5.3-5.5.4-.1.1 1.4 2.4 1.7 2.5-.3-.5 1.1-.8.1-1 1.4-.1 2.4.5 3.8.6-1.2-.3.8-.9.3-1.5-.2.9-1.6.7-2.1.6.2-.7 1.5 0 .7-1.1 1.2-.1 3.9.9 4.3 1.9l-.8.2a9.1 9.1 0 011 1.4c1 0 1.7-1.1 3.5.3-1.1-.4-.5.9-1.5.5 1.5 1.7 3.7-1 5.3-1.1 1.3-.2 2.2 1.2 3.6.7-.5.3.1 1.9 1.2 1.5-.2-.267-.4-.566-.6-.9 1.267 0 2.433.3 3.5.9-.067.4-.3.667-.7.8-.4 1.6 1.9 0 1.7 0 1.2.2 4 .1 5.8.5 5 1 10 1.5 15 2 8.2.6 14.5.7 22.8.5 6.3-.1 9.3-.6 14.4-2.6 1.9-.7 2.5-.9 4.4-.9.9 0 4.2-.4 4.5-.6a5.34 5.34 0 01-.3 1.1c1.2.1 2.4-.7 3.5-1.1l-.2.4c.867.2 1.6-.066 2.2-.8-.4.667-.267 1.167.4 1.5.2-.4 1.9-1.6 2.5-.8-.1-.3-2.3-3.6.1-3.2 0 .267.033.5.1.7.733-.133 1.267-.533 1.6-1.2 1.2 0 4.2-.1 5-.4-.2.1 5.9-4.5 5.7-2.2.9-.5 1.4-.7 1.7-1.6.267.067.533.167.8.3-.4.533-.767 1.1-1.1 1.7 1.1-.1 5.6-1.9 5.6-1.5.667-.333 1-.833 1-1.5-.7.2-1.1.7-1.7 1.3 0-.2-.1-.267-.3-.2 1.3-.8.2-1.4.6-1.8 1.9-1.9 5.4-2.2 7.8-3.1 3.1-1.1 4.3-3.1 6.8-4.6.4-.2 3.2-1 2.9-.9 1.5-.9 6.5-7.1 7.9-6.5l-.2.6c.5-.6 5-2.4 4.3-1.5 1.1-1.3 2.5-2.3 3.6-3.9-.8.3-.6.1-1-.6 0 .4.3.8 0 1.2-.2-.7-.3-.7-.6-.2 0-.3.4-2.1-.2-2-.3 1.9-1.5 3-2.6 2.3-.267.134-.333.367-.2.7-.4-.333-.533-.767-.4-1.3a7.725 7.725 0 01-1.7 1.9c-1.8-1.5-3.3 1.8-5.3-.2 0 .4-.033.8-.1 1.2a10.809 10.809 0 00-4.4-.5c-.3.5-.7 1.2-.9 1.1l-.2-1c-.333.667-.7 1.367-1.1 2.1-.5-.8-1.1-1.5-1.3-1.6 0-.2-.4-1.3-.5-.7-.2.5.1 1.2.5 1.6-.533-.267-1-.633-1.4-1.1 0 1.7-3.1 2.8-5.1 2.7a8.486 8.486 0 011.5-1.2c0 .1 0-.6-.3-1-.267.134-.367.367-.3.7-.1-.2-.4-.9-.4-1.3-.2.2-.7.4 0 .8-.333.2-.533.534-.6 1a1.815 1.815 0 01-.6-.8c-.3.1-.1 1.3-.6 1.1.2.1-1.4-1.5-1.9-1.8.6.6.6 1.2.1 1.8.067-.2.133-.366.2-.5-.4.067-.6.267-.6.6-.1-.3-1-1.7-1.2-1.7.133.333.233.7.3 1.1-.6-.5-2.5-.7-2.5-.8.3-.4 1.1-1.5.6-2.5-.5.8-1.2 2.3-.9 3.3-.333-.4-.633-.433-.9-.1a19.559 19.559 0 00-.2-.9c-.133.134-.2.267-.2.4-.067-.067-.133-.2-.2-.4-.2-.2-.4.8-.4.8-.333.267-.533.134-.6-.4l-.8.8c.2-1.2 1.4-1.6 1.3-2.3-.4-.6-1.8 1.1-1.6.9-.6 0 0 1.5-.5 1.3a.95.95 0 00-.4-.8c0 .1-.2 1.2-.3 1.2-1.6.1 0-2.6.1-2.5-.267.334-.333.733-.2 1.2.5.7 1.1-3.1 1.1-3.2.2.067.4.034.6-.1-.1.2-.3 1.4.3.9.067-.333.267-.466.6-.4-.333.333-.433.733-.3 1.2.067-.2.2-.4.4-.6.8.4-.3 2.5 1.3-.3-.2 1-.5.9.4 1.5-.3-.2 1.4-1.5.1-2 .4 0 1 .1 1.1-.5.2.267.267.6.2 1 .9-1 .2-.4.3-1.4.3.9.2-.4.5-.2 0 .467.1.933.3 1.4.4-.066.667-.267.8-.6.2.5-.1.7.5.3 0 .667.2 1.3.6 1.9-.067-.933.1-1.8.5-2.6v.9c.9.7-.4-2.6 0-2.6a5.077 5.077 0 001.5 2.4c1.3-2.4.1-.6.3-2.3.5.5 3.6.2 3.1 0 0 0 1.8-.4 1 .5a.642.642 0 00.5-.5c.5-.5.4.4.4.5.2.1 0-.2.2 0 .7-.1 1.6-2.4 2.5-3 .1.2 1.6 2.4 2.1 2 .3-.3.7-1.8 1.2-1.8.7.1.5.8 1.5 1.2.6-.2-.4-.4.6-.1-1.6-.5-.1-2.4-.5-3 .4 0 .567.234.5.7.7.1.2-1.9.2-2.1.467-.267.9-.2 1.3.2-.5.1-1.9 3.4-1.3 3.6.2-1.4.9.6 1.2.5-1.1-.8.7-1.7 1.1-2.1-.3.2-.3-1.2-.4-1.3.1.5-.6.9 0 1a3.26 3.26 0 01-.5.4c-.4-1.2.4-1.2.7-2.3.2.467.467.867.8 1.2 0-.4.167-.533.5-.4 0 .5-.2.9.7 1.2.2-.3-.2-1.9 1.3-1.3a3.15 3.15 0 00-.4 1c.133.134.3.233.5.3.2-.6.8-3.5 1.2-3.9.5-.3.9.9 1.3-.3-.1.4.7 1.8 1 .9 0-1-.5-.6 1.1-1.1-1.8 3 2.4-1.2 1.6-.9 3.2-1.4 6.8-2.3 10.1-3.6 5.7-2.4 11.2-5 17.1-6.9-2.6 4.8-8.7 13.5-9.1 17.6zm-45.6 8.6v-.1.1zm4.1-2.4l-.1.1c.067 0 .1-.033.1-.1zm9.3-.2h.1c.2-.4.3-.6-.1 0zm-17.3 19.3c.067-.067.133-.1.2-.1-.067.067-.133.1-.2.1zM144.2 51c.067 0 .067 0 0 0zM35.9 38.8v-.1c-.067 0-.067.033 0 .1zM9.7 23.4zm16.7 13.2h-.2c.133.067.2.067.2 0zm16.3 11.8a1.3 1.3 0 001 0c-.3-.1-.6-.1-1 0zm48.6 17.1c-.2 0-.3-.067-.3-.2.133.067.233.133.3.2zm32.6-3.8l.1.1c0-.066-.033-.1-.1-.1zm7.7-1c.067 0 .067.033 0 .1v-.1zm18.3-.1h-.1.1zm43.9-15.9c.2 0 .4.1.5.4-.1-.1-.3-.3-.5-.4zm15.3-4.4a1.254 1.254 0 00-.5-.3v-.1c.2.067.367.2.5.4zm1.6-7.8c-.067 0-.067 0 0 0zm3.8-2.2c-.067 0-.1-.033-.1-.1l.1.1zm-35.3-9.5l-.1-.2c-.1.5 0 .3.1.2zm4.1-.6c-.1.1-.2.2 0 0zm0 0c.6.9 1.9-.7.6-.8 0 .1-.4.6-.6.8zM30.8 35l-.1-.2c-.6.2-.3.1.1.2zm9.1 4.9c-.5 2-2.4-1.9-2.4-.4 0 .1 2.6 1.7 2.8 1.6l-.4-1.2zm167.7-15.4c-.3.4.1.6.4.8.533.267.4 0-.4-.8zm2.4-2l-.1-.1c-.1.1-.1.1.1.1zm1.4-1.6c.733-.066.933-.3.6-.7-.2.267-.4.5-.6.7zm2.3-1.6a12.19 12.19 0 00-1 .9c.4-.2.733-.5 1-.9zm-2.1-1.5zm-4.3 1.8c.267-.133.5-.367.7-.7l-.7.7zm5 1.8c-1-.3-1 .5-1 .7.467-.067.8-.3 1-.7z"/><path d="M166.5 23.5c-.4-.5-.4-.7-.7-1.1-.4.467-.567 1-.5 1.6.333-.333.733-.5 1.2-.5zm6.2 4.9l-.5-.3c-.1.4.5.9.5.3zm-2.5-6.3c-.2.2-.4-.5-.5.3.333.267.5.167.5-.3zm4.3 5.8c-.1.2-.6-.3-.5.5 0-.8.5.2.5-.5zm-1.8-6.8c-.2-.7-.3 0-.7-.2.3 0 .7.7.7.2zm2.7 5.3c.467.267.733.7.8 1.3.267-.666.267-1.3 0-1.9.1.8-.7.5-.2-.1-.2.267-.4.5-.6.7zm-2.1-5.3c1.1.3-1-.7-.6-.8 0 .467.2.733.6.8zm4.3 5.8c-.4.267-.667.667-.8 1.2 1-.333 1.267-.733.8-1.2zm-2.8-4.9a4.608 4.608 0 01-.1-.9c-.4-.1-.1 1.1.1.9zm1.3-1.6a3.902 3.902 0 00-.5-.9c-1 .9.9 1.1.5.9zm.8-.3c-.3.5-.5.9-.5 1.4.133-.466.3-.933.5-1.4zm8.4 5.7c0-.4-.5-.8-.3-.4 0 .3.6.7.3.4zm-2-7.5c-.3.2-1.1.2-.9.7.2.2.7-.4.9-.7zm10.2-4.2c-.333 0-.467.2-.4.6 1.5-1.8.3-1 .4-.6zm2.5-.5c-.1.3-.3.2-.1.5.1.2.2-.3.1-.5zm17 18.2c-.4.1.2 1.1-.4.4.2.267.367.533.5.8.133-.4.1-.8-.1-1.2zm-4.9 8.2c-.333-.133-.567-.333-.7-.6.2.7.3 1.3.4 1.8 0-.2.1-1.1.3-1.2zm-15.6 18.3c-.2-.1-.4-.2-.7-.2.1.4.6.2.7.2z"/></g><defs><clipPath id="clip0_27_35131"><path fill="#fff" d="M0 0h229v69H0z"/></clipPath></defs></svg>