<svg width="56" height="58" viewBox="0 0 56 58" fill="none" xmlns="http://www.w3.org/2000/svg"><circle cx="18.421" cy="18.421" r="18.421" fill="#0AB975" fill-opacity=".13"/><path fill-rule="evenodd" clip-rule="evenodd" d="M15.552 21.88a5.943 5.943 0 003.302 1.002 5.95 5.95 0 005.943-5.943 5.943 5.943 0 10-9.245 4.941zm1.65-7.412a2.971 2.971 0 113.302 4.94 2.971 2.971 0 01-3.301-4.94zM38.17 54.085h-4.458a2.975 2.975 0 01-2.972-2.972v-7.43h2.972v7.43h4.458v-7.43h2.971V37.74a1.487 1.487 0 00-1.485-1.485H26.698l-2.972-8.915h-9.33a1.487 1.487 0 00-1.486 1.485v8.915h2.972v13.373h5.943v-10.4h2.972v10.4a2.975 2.975 0 01-2.972 2.972h-5.943a2.975 2.975 0 01-2.972-2.972v-10.4a2.975 2.975 0 01-2.972-2.973v-8.915a4.462 4.462 0 014.458-4.457h9.33a2.969 2.969 0 012.82 2.032l2.294 6.883h10.816a4.462 4.462 0 014.457 4.457v5.944a2.975 2.975 0 01-2.972 2.972v4.457a2.975 2.975 0 01-2.971 2.972zm8.915 0V37.74h4.457v-8.915a1.488 1.488 0 00-1.486-1.485h-5.943v-2.972h5.943a4.462 4.462 0 014.458 4.457v8.915a2.974 2.974 0 01-2.972 2.972h-1.486v13.373h-2.971zm-1.486-31.203a5.943 5.943 0 115.943-5.943 5.95 5.95 0 01-5.943 5.943zm0-8.915a2.971 2.971 0 100 5.942 2.971 2.971 0 000-5.942zM33.052 30.92a5.2 5.2 0 002.889.876 5.206 5.206 0 005.2-5.2 5.2 5.2 0 10-8.09 4.324zm1.65-6.177a2.229 2.229 0 112.477 3.706 2.229 2.229 0 01-2.476-3.706z" fill="#0AB975"/></svg>