<svg width="278" height="229" viewBox="0 0 278 229" fill="none" xmlns="http://www.w3.org/2000/svg"><g clip-path="url(#clip0_39_37184)"><path d="M129.2 151.7s-39-19.6-46.3-33.3c-7.2-13.8-16.6-21-17.3-31.9-.8-10.8-.8-26.8 15.2-24.6 15.9 2.2 28.2 6.5 31.8 12.3 3.5 5.6 3.6 5.8 3.6 5.8-9.9-15.8 20.3-31.1 30.9-19 2.6 2.9 4 6.7 5 10.5 6.1 22 3.7 47.2-9.1 66.5-5.8 8.6-13.8 13.7-13.8 13.7z" fill="#0FA6A6"/><path d="M162.6 141.2l-9.8 72.4 16.4.8 26.3-48.5s5.9-1.5 9.2 3.6c3.2 5.1 16.4 31.8 19 34 2.6 2.2 10.5 8.7 19 6.5 8.6-2.1 23-15.9 23-15.9l-5.9-15.2-10.5 6.5s-12.5 3.6-13.1-14.5c-.7-18.1 1.3-28.2 1.3-28.2s-33.5-12.3-74.9-1.5z" fill="#AFE8D9"/><path fill-rule="evenodd" clip-rule="evenodd" d="M169.3 214.5l-16.7-.7v-.2l9.9-72.5h.1c21.4-5.6 40.6-4.9 53-3.4 13.4 1.8 21.9 4.8 22 4.9h.1v.1c-.1.1-2 10.4-1.4 28.2.3 6.4 2 10.7 5.1 13 3.4 2.5 7.5 1.5 7.8 1.4l10.7-6.6 6 15.5h-.1c-.1.2-14.6 13.8-23 16-1.2.267-2.4.4-3.6.4-7.2 0-13.4-5.1-15.6-7-1.6-1.3-7.1-11.7-11.9-20.9-3-5.7-5.9-11.2-7.2-13.1-3-4.7-8.3-3.7-8.9-3.6l-26.3 48.5zm-16.4-1l16.2.7 26.3-48.5c.1 0 6.1-1.4 9.4 3.7 1.3 2 4.1 7.4 7.2 13.2 4.8 9.1 10.2 19.5 11.8 20.8 2.6 2.1 10.4 8.6 18.9 6.5 8.1-2.1 21.7-14.8 22.8-15.8l-5.8-15-10.3 6.4c-.1.1-4.5 1.3-8.2-1.4-3.2-2.3-4.9-6.7-5.2-13.2-.6-16.8 1.1-26.9 1.3-28.1-1-.4-9.2-3.2-21.7-4.8-12.4-1.5-31.5-2.2-52.8 3.3l-9.9 72.2z" fill="#AFE8D9"/><path d="M109.7 62.6l3.6 6.6s5.8-8.7 14.5-9.4c8.7-.8 17.4 5.8 20.3 13 2.9 7.2 2.9 8 2.9 8l13-5.1-2.1 25.3 26-13.7 3.6 40.5-31.1 10.9s-3.6 9.4 0 8.7c3.6-.7 75.3-3.6 79.6-.7 4.4 2.9 16-54.3 16-57.2 0-2.9 2.9-29.7-3.6-36.2-6.5-6.5-9.4-8.7-9.4-8.7l-6.5 6.5-13.1-8L208.9 54l-16.6-11.6-18.1 10.9-9.4-16-15.2 8-3.7-16s-31.8 25.4-36.2 33.3z" fill="#1D1C20"/><path d="M146 25l2.8 14.5 16-2.2 7.9 9.4 16.7-7.2 17.4 9.4 16.6-5.8 8 2.2 9.4-3.6s-5.1-13.8-15.9-15.2c-10.9-1.5-32.6-5.8-39.8-5.8-7.3 0-33.4 0-39.1 4.3z" fill="#AFE8D9"/><path fill-rule="evenodd" clip-rule="evenodd" d="M206.8 49.1h-.1l-17.3-9.4-16.7 7.2-8-9.4-16 2.2-2.9-14.8h.1c3.8-2.9 17-4.4 39.2-4.4 4.6 0 15 1.8 25.1 3.5 5.5.9 10.8 1.8 14.7 2.3 10.8 1.5 16 15.2 16 15.3l.1.2-9.6 3.7-8-2.2-16.6 5.8zm-17.3-9.8v.1l17.4 9.4 16.6-5.8 8 2.2 9.2-3.6c-.6-1.4-5.7-13.6-15.8-15-3.9-.5-9.1-1.4-14.7-2.3-10-1.7-20.4-3.5-25.1-3.5-21.9 0-35 1.4-38.9 4.3l2.8 14.2 15.9-2.1 8 9.4 16.6-7.3z" fill="#AFE8D9"/><path d="M199.5 5.5s-7.9 0-8.6 2.1c-.8 2.2-6.6 9.5-2.9 10.9 3.6 1.5 13.7 3.6 15.9 2.9 2.2-.7 7.2-7.2 6.5-9.4-.7-2.2-10.9-6.5-10.9-6.5zm-139 91.2L46 103.2l5.1 1.4-5.1 3.6 5.8.8s-8.7 5-5.8 5c2.9 0 8 .8 8 .8l-2.9 3.6s20.2 2.2 26 1.4c5.8-.7-16.6-23.1-16.6-23.1zM99.6 67l10.1 10.1 3.6-7.9-3.6-6.6L99.6 67zm84.7 20.3l4.3 33.3s-11.6 9.4-28.2 12.3c-16.7 2.9-21.7-2.9-21.7-2.9l-2.2-2.9v-4.3l2.2-4.4-4.4-1.4s13.1-8 17.4-10.2c4.4-2.1 32.6-19.5 32.6-19.5z" fill="#1D1C20"/><path d="M25.7 173.4S6.9 153.8 7.6 137.9c.7-15.9-4.3-26.8 8.7-26.1 13 .8 17.4 2.9 18.8 6.6 1.5 3.6 1.5 13.7 1.5 13.7s6.5-9.4 16.6-8.7c10.2.8 16.7 2.9 16 8-.8 5.1.7 13-9.5 23.2-10.1 10.1-34 18.8-34 18.8z" fill="#6FCFA1"/><path fill-rule="evenodd" clip-rule="evenodd" d="M25.7 173.6l-.1-.1c-.2-.2-18.9-19.8-18.1-35.6.1-4.1-.1-7.8-.2-11.2-.4-6.2-.6-10.7 1.9-13.2 1.4-1.4 3.7-2 7.1-1.8 12 .7 17.3 2.5 19 6.6 1.3 3.2 1.4 11.3 1.4 13.4 1.4-1.8 7.6-9.1 16.5-8.4 8.2.6 13.2 2.1 15.2 4.5.8 1.067 1.1 2.267.9 3.6-.1.9-.2 1.9-.2 2.9-.4 5-.8 11.9-9.3 20.4-5.2 5.2-14.2 10.1-20.8 13.2-7.2 3.4-13.2 5.6-13.3 5.6v.1zM15.2 112c-2.7 0-4.5.6-5.7 1.8-2.4 2.3-2.2 6.8-1.8 13 .1 3.3.3 7.1.1 11.2-.6 15.2 16.8 34 18 35.3.8-.3 6.5-2.4 13.1-5.6 6.6-3.1 15.6-7.9 20.8-13.2 8.4-8.3 8.8-15.2 9.1-20.2.1-1 .2-2 .3-2.8.2-1.333-.1-2.467-.9-3.4-1.9-2.4-6.8-3.9-14.9-4.4-9.9-.8-16.4 8.5-16.5 8.6l-.3.4v-.5c0-.1 0-10.2-1.4-13.7-1.6-4-6.8-5.8-18.7-6.4-.4-.067-.8-.1-1.2-.1z" fill="#6FCFA1"/><path d="M9.8 138.6s-2.2-15.2 2.2-17.3c4.3-2.2 3.6 6.5 2.8 9.4-.7 2.9-.7 7.2-5 7.9zm71.7-34s-12.3-7.9-11.6-14.5c.7-6.5-.7-18.8 5.1-17.3 5.8 1.4 3.6 5 4.3 12.3.7 7.2 2.9 12.3 4.3 15.9 1.5 3.6-2.1 3.6-2.1 3.6z" fill="#1D1C20"/><path d="M155.9 134.4c-.3 13.2-1.6 26.4-3.5 39.4-.933 6.4-2 12.8-3.2 19.2-.5 2.9-1.2 5.8-1.5 8.7-.4 2.7-.6 5.4-.9 8.1-.3 3-.8 6.1-1.8 8.9-1 3.1-2.7 5.9-4.9 8.2-.2.2-.1.5.1.6 1.5.9 3.2.9 4.7.2.8-.4 1.3-.9 2-1.4a13.446 13.446 0 012.4-1.2c1.5-.7 3.1-1.2 4.7-1.8.667-.267 1.334-.6 2-1 .6-.4 1.2-.9 1.8-1.3 2.1-1.4 5.1-1.7 6.9-3.6.9-1 1-2.2 1.3-3.5a38.561 38.561 0 011.1-4.6c1.9-6.7 5-13 8.3-19.2 3.3-6 6.9-11.9 10.4-17.8.7-1.3 1.4-2.7 2.5-3.8.9-1 2.1-1.8 3.5-2.2 2.5-.9 5.4-.5 7.6 1.1 1.4 1 2.4 2.4 3.4 3.8a46.704 46.704 0 012.9 4.5c1.9 3.1 3.5 6.3 5.2 9.5 1.9 3.6 3.9 7 6.1 10.4 1.8 2.7 3.6 5.3 5.7 7.8 2 2.3 4.4 4.3 7.2 5.7 3.1 1.5 6.5 2.1 9.9 2 3.9-.1 7.8-1.1 11.4-2.5 1.6-.6 3.1-1.2 4.6-2 1.1-.7 2.2-1.4 3.3-2.3 2.4-1.8 4.8-3.8 7.3-5.5 1.1-.7 2.3-1.4 3.5-1.8.6-.1 1.2-.3 1.7-.2.6.2 1.2.6 1.8 1 1.1.7 2.3 1.6 3.6 1.8.2 0 .4 0 .5-.2 1.3-2.4-.2-4.7-1.6-6.7-.7-1.1-1.5-2.2-2.1-3.4-.5-1.1-.9-2.2-1.4-3.3-1-2-2-4.1-3.9-5.5-.7-.6-1.9-1.2-2.8-1.2-.4 0-.9.2-1.2.4-.6.267-1.166.533-1.7.8-2.2 1.2-4.4 2.6-6.7 3.9-2.2 1.2-4.7 2.4-7.2 2.7-1.7.2-3.3-.1-4.6-1.2-1.2-.9-2.1-2.2-2.8-3.6-1.7-3.5-2.4-7.5-2.7-11.3-.4-3.6-.5-7.3-.1-10.9.1-2 .5-4 .7-6 .5-3.5 1-7 1.6-10.5 1.3-6.8 3.3-13.5 5-20.3 3.2-12.2 6-24.5 6.6-37.1.134-1.667.2-3.367.2-5.1 0-.5-.7-.5-.7 0a136.719 136.719 0 01-1.8 19.5c-1 6.1-2.4 12.2-3.9 18.2-.8 3.267-1.633 6.533-2.5 9.8-.9 3.4-1.9 6.8-2.7 10.2-.7 3.4-1.3 6.8-1.8 10.2-.5 3-.8 6.1-1.2 9.1-.5 3.2-.6 6.5-.4 9.7.2 4 .6 8 1.8 11.7.9 2.9 2.4 6.2 5.2 7.7 3.8 2 8.5-.4 11.9-2.3 2.2-1.2 4.4-2.6 6.7-3.8l1.4-.8c.3-.1.5-.2.8-.3.3 0 .7.2.9.2 1.1.4 2 1.1 2.7 2 1.6 1.8 2.4 4.1 3.4 6.2.5 1.2 1.1 2.3 1.8 3.4s1.6 2.2 2.2 3.5c.6 1.2.9 2.5.2 3.7l.4-.2c-1.4-.2-2.7-1.3-3.9-2-1.1-.6-1.9-.9-3.1-.6-2.6.6-4.9 2.4-6.9 3.9-2.4 1.8-4.7 3.8-7.2 5.4-1.4.9-2.9 1.5-4.4 2.1a40.846 40.846 0 01-5.5 1.8c-3.8 1-7.9 1.3-11.8.5-3.2-.7-6.1-2.3-8.5-4.4-2.4-2.1-4.4-4.7-6.2-7.3a122.252 122.252 0 01-6.1-9.6c-3.6-6.3-6.5-13.1-11-18.9-.9-1.1-1.8-2.3-3.1-3.1-1.1-.8-2.3-1.2-3.6-1.4-2.5-.4-5.1.2-7.1 1.8-1 .8-1.8 1.8-2.5 3l-2.4 4a304.168 304.168 0 00-5.2 8.8c-3.6 6.1-7 12.3-9.7 18.9-1.2 3-2.3 6.1-3.2 9.3-.3 1.5-.5 3-.9 4.4-.4 1.3-1.4 2.1-2.5 2.6-1.2.6-2.6 1-3.8 1.6-1.3.7-2.4 1.8-3.8 2.5-2.9 1.4-6.2 2-8.8 4-.8.5-1.5 1-2.5 1.3-1.1.2-2 0-3-.5.067.2.1.4.1.6 3.9-4.1 5.8-9.3 6.6-14.7.4-2.7.6-5.4.9-8.2.3-2.9.7-5.7 1.3-8.6 2.5-13 4.6-26.2 5.9-39.4.7-7.4 1.2-14.8 1.3-22.2.1-.5-.7-.5-.7 0zm-5.4-53.5c2.1-1.7 4.2-3.5 6.5-5a33.907 33.907 0 013.6-2.4c.2-.1.5-.4.7-.4h.4c.2.1.1.1.1.2.2.8.3 1.5.4 2.3.2 2.9-.2 5.9-.3 8.8-.1 1.4-.3 2.8-.6 4.2l-.8 4.2c-.5 3-1 6.1-.9 9.2 0 .4.8.4.8 0-.1-3 .3-5.9.8-8.8l.8-4.4c.3-1.4.6-2.8.6-4.2.2-3.2.6-6.3.3-9.4-.1-.7-.2-1.4-.3-2.2-.1-.5-.7-.6-1.2-.7-.3 0-.5.2-.8.4-.333.133-.666.3-1 .5-.666.4-1.3.833-1.9 1.3-2.7 1.8-5.3 3.8-7.8 5.9-.4.3.2.8.6.5zM63.2 95.4c-1.9 1.2-3.9 2.1-5.9 2.8-1.9.7-3.8 1.3-5.7 2-2.1.7-4.1 1.6-6 2.7-.4.3-1 .5-1.3.9-.2.3-.2.6-.1.9.2.9 1 1.5 1.8 1.8 2.2 1 4.7.8 6.9 0 .2-.1.4-.4.2-.6-.1-.3-.4-.6-.8-.6-.2 0-.5.2-.6.5 0 .3.1.6.3.7.3.2.7.1 1-.1.2-.1.3-.4.1-.5-1.7-1.6-4.8-1.5-6.5.1-.7.7-1.2 1.9-.8 2.9.4.8 1.5 1.2 2.4 1.3 1 .2 2.1.2 3.2.2-.066-.2-.166-.4-.3-.6l-.1.2s.1.1.2.1c0 .1-.1.2-.2.2l.3.1c-.066-.267-.1-.5-.1-.7-.8.8-1.7 1.4-2.5 2.1-.8.7-1.9 1.6-2 2.8 0 1.2 1.5 1.6 2.5 1.5l2.4-.3c.4 0 1.3 0 1.4.6.1.7-.7 1.4-1.1 1.8-.6.5-1.3 1-1.6 1.7-.1.2-.1.5.2.6 3.7.8 7.5 1.4 11.4 1.4 3.6.1 7.3-.3 10.9-1 2.2-.467 4.367-1 6.5-1.6.4-.2.2-.9-.2-.8-3.7 1.1-7.4 2-11.2 2.4-3.5.4-7.1.4-10.6 0-2.2-.267-4.4-.667-6.6-1.2l.2.6c.3-.6.9-1.1 1.4-1.5.5-.5 1.1-1 1.4-1.7.2-.6.1-1.3-.5-1.7-.5-.4-1.3-.4-1.9-.3-.8 0-1.5.2-2.3.3-.5 0-1.1-.1-1.4-.5-.2-.2-.1-.6.1-.9.3-.5.7-1 1.2-1.4.9-.8 1.9-1.5 2.8-2.3.2-.2.1-.6-.2-.7-.3-.1-.6-.1-.9.1-.2.2-.2.4-.2.7.1.2.4.4.6.4.4-.1.6-.3.8-.6.1-.3-.1-.6-.4-.6-.8 0-1.6.1-2.4 0-.7-.1-1.7-.2-2.2-.7-.7-.6-.3-1.5.1-2.1.6-.8 1.6-1.2 2.6-1.3 1-.1 2.2.1 3 .9.067-.2.1-.4.1-.6l-.2.1c0-.1.1 0 .1.1l-.2.1.2.2c.067-.2.134-.367.2-.5-1.9.6-3.9.9-5.8.2-.7-.2-1.7-.6-2-1.4-.1-.4.2-.5.5-.7a45.615 45.615 0 011.5-.9c3.4-1.8 7.1-2.8 10.7-4.1 2.1-.8 4.1-1.7 6-2.8.4-.3 0-.9-.4-.7zm103.8-76c-6 .9-11.8 2.4-17.4 4.6a85.328 85.328 0 00-8.3 3.8c-2.7 1.4-5.3 3-7.7 4.7-4.4 3.1-8.5 6.5-12.4 10.3-3.7 3.6-7.1 7.5-10.5 11.4-3.5 4.1-7 8.3-10.6 12.4l-1.4 1.6c-.3.3.2.9.6.5 3.6-4.1 7.1-8.2 10.6-12.4 3.3-3.9 6.7-7.8 10.4-11.5 3.7-3.8 7.7-7.3 12-10.4 2.3-1.7 4.7-3.4 7.2-4.8 2.733-1.533 5.5-2.9 8.3-4.1 5.5-2.3 11.3-4 17.2-5l2.2-.4c.4 0 .2-.7-.2-.7z" fill="#fff"/><path d="M167.8 20c8.5.2 17.1.4 25.6 1.1 4.066.333 8.133.766 12.2 1.3 2.2.267 4.433.567 6.7.9 2.1.3 4.2.5 6.3 1 7.3 1.6 13.4 6.4 18.5 11.6 2.6 2.7 5 5.6 7.3 8.6 1.1 1.4 2.3 2.9 3.3 4.4a43.884 43.884 0 012.5 5c2.9 7 3.7 14.9 3.5 22.5-.067.866-.134 1.766-.2 2.7 0 .5.8.5.8 0 .5-7.7 0-15.6-2.5-23-1.1-3.5-2.8-6.8-5-9.8-2.3-3-4.7-6-7.2-8.8-5-5.5-10.8-10.6-17.9-13.1-1.8-.6-3.6-1-5.5-1.3l-6.8-1c-4.267-.534-8.5-1-12.7-1.4-8.5-.8-16.9-1.2-25.4-1.4h-3.5c-.5 0-.5.7 0 .7z" fill="#fff"/><path d="M156.9 103.4c-4.6 2.6-9.2 5.4-14.1 7.7-1.6.7-3.2 1.4-4.8 2.2-1 .6-2.6 1.6-2.4 3 .2 1.9 2.9.9 4.1 1.5a4.01 4.01 0 00-.2-.5s-.2.3-.2.4c-.134.067-.1.133.1.2.133.067.166.067.1 0l.1-.1h.3a3.322 3.322 0 00-.4-.5c-.9 1.9-3.3 2.7-4.1 4.7-.3 1.1-.2 2.5.5 3.4 1 1.3 2.9.6 4 0 .5-.3.1-.9-.3-.7a3.97 3.97 0 01-.8.3c.133.267.233.5.3.7.266-.133.5-.233.7-.3a2.55 2.55 0 00-.3-.6c-.7.8-1.9.8-2.6 1.7-.7.7-.8 1.7-.2 2.6.6.9 1.6 1.4 2.6 1.8 1 .4-.1 2.4-.5 2.9-.1.2 0 .5.2.6 4.1 1.8 8.5 2.3 12.9 1.9 4.6-.5 9-2 13.3-3.6 4.4-1.6 8.8-3.1 13.3-4.5 2.2-.667 4.433-1.267 6.7-1.8 1.2-.333 2.366-.633 3.5-.9.533-.133 1.1-.233 1.7-.3.2-.1.5-.1.7-.2.3-.1.6-.4.9-.5 7.8-4.4 17-5.5 24.9-9.8 7.4-4 14.4-8.9 20.8-14.4a158.317 158.317 0 004.8-4.4c.3-.3.7-.6.9-1 .3-.3.4-.7.6-1.1.2-.5.5-.7.8-1.1.466-.4.9-.833 1.3-1.3 1.4-1.5 2.6-3.3 3.8-5 .6-.933 1.2-1.833 1.8-2.7.6-.9 1.2-1.6 1.5-2.6.3-.9.5-1.9 1.1-2.7.3-.4-.4-.8-.7-.4-.5.8-.8 1.7-1 2.6-.3 1-.9 1.8-1.5 2.6-1.2 1.8-2.3 3.6-3.6 5.3-.667.867-1.367 1.7-2.1 2.5-.334.4-.7.8-1.1 1.2-.3.3-.7.6-.9 1-.1.3-.2.7-.4 1-.3.5-.8.9-1.1 1.2a72.91 72.91 0 00-2.3 2.2c-6.2 5.6-12.9 10.5-20.1 14.7-1.9 1.2-3.8 2.3-5.9 3.2-2 .9-4.1 1.6-6.2 2.3-4.1 1.4-8.3 2.6-12.3 4.3-1 .467-1.967.933-2.9 1.4-.5.3-1 .7-1.6.8-.6.2-1.2.3-1.8.4-2.267.533-4.5 1.1-6.7 1.7-4.5 1.2-8.8 2.6-13.1 4.2-4.4 1.5-8.7 3.3-13.2 4.3-4.3.9-8.9 1.1-13.2-.1a16.442 16.442 0 01-3.2-1.1c0 .2.033.367.1.5.6-.8 1.1-2 .9-3-.2-1-1.1-1-1.8-1.4-.9-.6-2.1-1.7-1.2-2.8.3-.4.8-.6 1.3-.8.5-.2 1-.5 1.3-.9.2-.3 0-.8-.4-.6a3.926 3.926 0 00-.8.3c-.4.2-.2.9.2.7.333-.067.633-.167.9-.3a5.32 5.32 0 01-.3-.7c-.7.4-1.5.7-2.3.6-.7-.1-1-.5-1.1-1.2-.3-.9-.2-1.8.4-2.6 1-1.4 2.8-2.2 3.6-3.9.1-.2 0-.5-.3-.5-.6-.1-1.3.4-1.1 1.1.1.2.4.4.6.3.4-.1.6-.5.8-.9.1-.1 0-.4-.2-.5-.5-.3-1.2-.3-1.9-.3-.5 0-1.6.1-1.8-.5-.1-.6.5-1.1.9-1.4.5-.5 1.1-.9 1.8-1.2 1.5-.8 3.1-1.4 4.6-2.2 2.2-1 4.4-2.2 6.5-3.4 2.4-1.3 4.8-2.7 7.2-4 .5-.2.1-.9-.4-.7zm82.9-63c-2.3 2.1-5.2 3.5-7.6 5.4-1.3 1-2.5 2.3-3.7 3.4a86.4 86.4 0 01-3.5 3.5 429.145 429.145 0 01-14.4 12.8c-5 4.2-10.1 8.234-15.3 12.1-5.4 4-10.9 7.9-16.6 11.6-5.7 3.6-11.4 7.2-17 11-.666.467-1.366.933-2.1 1.4-.4.2 0 .9.4.6 5.6-3.8 11.2-7.4 16.9-11 3-1.9 5.9-3.8 8.8-5.8a324.545 324.545 0 0023.5-17.7 374.57 374.57 0 0014.5-12.8 235.223 235.223 0 007.2-6.9c.6-.6 1.2-1.1 1.8-1.7l2-1.4c1.3-.9 2.6-1.7 3.9-2.6.6-.4 1.167-.866 1.7-1.4.4-.3-.2-.8-.5-.5z" fill="#fff"/><path d="M158.5 103.5c.4-.1.7-.3 1.1-.5.133-.133.267-.233.4-.3.067-.067.167-.133.3-.2h.1c-.067 0-.067 0 0 0 0-.067.033-.1.1-.1l-.4-.6a3.26 3.26 0 01-.5.4c-.1.1-.1.4 0 .5.2.2.4.2.6 0 .133-.133.3-.267.5-.4.2-.2-.1-.7-.4-.6-.4.1-.7.3-1.1.6a1.583 1.583 0 00-.4.3c-.067 0-.167.033-.3.1h-.2c-.2.1-.3.3-.3.5.1.2.3.3.5.3zm30.4-85.2c.1-2.8-.2-5.8 1-8.4.6-1.3 1.7-2.4 3-3 1.4-.6 3-.7 4.5-.6.733 0 1.466.067 2.2.2.7 0 1.4.1 2.1.3 1.3.4 2.3 1.1 3.2 2.1 1.5 1.9 2 4.5 2.3 6.8.2 2.1.3 5.3-2.3 6-.5.1-.3.8.2.7 2.5-.6 3-3.4 2.9-5.6 0-1.2-.2-2.3-.5-3.5-.2-1.4-.7-2.7-1.4-3.9-.7-1.2-1.7-2.2-3-2.8-1.4-.7-2.9-.9-4.4-1-3.2-.3-6.7 0-8.7 2.7-1.1 1.4-1.4 3.1-1.6 4.8-.2 1.7-.2 3.5-.3 5.2 0 .5.7.5.8 0zm-33.2 124.8c1.1.3 2.1-.4 3.1-.8.6-.2 1.3-.4 1.9-.6.666-.2 1.333-.433 2-.7 1.3-.5 2.6-1.1 4-1.4 1.4-.333 2.8-.567 4.2-.7 1.5-.1 3-.1 4.5-.2 1.533-.067 3.066-.1 4.6-.1 3.1 0 6.1.3 9.2.4 1.4 0 2.9-.3 4.3-.4 1.5-.2 3-.1 4.6 0l9.4.4 9.4.4c1.533.067 3.1.1 4.7.1 1.5.1 3 .2 4.5.4 2.6.5 5.1 1.3 7.7 1.7 1.8.3 3.9.5 5.2 2 .3.3.6.8.7 1.3.2.4.9.3.8-.2-.4-1-.9-1.8-1.7-2.4-.8-.5-1.7-.8-2.6-1-1-.3-2-.4-2.9-.5-1.3-.2-2.6-.6-3.9-.9-1.4-.4-2.8-.7-4.3-.9-1.5-.2-3.1-.2-4.6-.2l-9.6-.4c-3.134-.133-6.3-.267-9.5-.4l-4.8-.2c-1.5-.1-2.9 0-4.4.2-3.1.4-6.1.1-9.2-.1-3.1-.1-6.2 0-9.3.2-1.4 0-2.9.1-4.4.2-1.4.2-2.767.5-4.1.9-1.4.5-2.7 1.1-4 1.6-.734.267-1.434.467-2.1.6-.6.2-1.1.4-1.6.7-.5.2-1.1.4-1.6.3-.5-.1-.7.6-.2.7zm-10.2 74.1c1.4 1.9 4.2 1.2 6.1.7 1-.3 2-.7 2.9-.8.8-.1 1.7.1 2.5 0 .7 0 1.4-.5 2.1-.7 1-.1 1.9.3 2.8.2 1 0 1.8-.5 2.8-.6.5 0 .5-.8 0-.7-.8.1-1.5.3-2.2.5-.9.2-1.7 0-2.5-.1s-1.4.1-2.1.4c-.4.1-.7.3-1.1.3-.4 0-.8 0-1.3-.1-1.1-.1-2.1.2-3.1.6-1.1.3-2.2.6-3.3.7-1 .1-2.3.1-3-.8-.3-.4-.9 0-.6.4zm124.3-21c0-1.4.3-2.8.1-4.2 0-1.2-.8-2.1-1.2-3.2-.5-1.3-1.1-2.5-1.6-3.8-.5-1.1-.7-2.2-1.2-3.3-.4-1-1.1-1.9-1.8-2.7-.4-.4-.9.1-.6.5.7.7 1.3 1.5 1.7 2.3.4 1 .6 2.1 1 3.1.5 1.2 1.1 2.4 1.6 3.6.2.6.433 1.167.7 1.7.3.4.5.9.6 1.4.2.7.1 1.5.1 2.3-.1.8-.2 1.5-.2 2.3 0 .5.7.5.8 0zM150.3 108c.1-3.9 1.4-7.6 1.5-11.6.1-3.1 0-6.2-.2-9.3-.6-6.1-2.1-12.3-5.3-17.7-3.1-4.9-7.7-9.1-13.6-10.1-5.3-1-10.7.7-14.7 4.1-2.2 1.8-4.2 4.2-5.2 6.8-1.3 3-1.5 6.4-1.5 9.7v2.3c0 .5.8.5.8 0 .1-1.4-1.3-2.3-2-3.4-1.1-1.4-2.2-2.8-3.5-4.1-2.4-2.4-5.1-4.6-8.1-6.4-3.2-2-6.6-3.4-10.2-4.5a39.11 39.11 0 00-5.5-1.4c-1.7-.4-3.5-.6-5.2-.5-3.3.1-6.5 1.4-9.2 3.3-2.6 1.7-4.8 4-6.5 6.7-.8 1.3-1.4 2.8-1.8 4.3-.4 1.6-.5 3.2-.5 4.9-.1 2-.1 3.9.3 5.8s1 3.7 1.7 5.6c1.2 3.3 2.4 6.7 4 9.9a40.487 40.487 0 005.9 8.9c2.5 2.9 5.4 5.6 7.8 8.6 1.1 1.5 2.2 2.9 3.6 4.2 1.4 1.3 2.8 2.5 4.3 3.7 3 2.5 5.7 5.3 8.6 7.8 1.4 1.1 2.8 2.2 4.1 3.3 1 .8 1.9 1.6 2.9 2.4 2.1 1.6 4.5 2.9 6.7 4.4 2.3 1.6 4.6 3.4 7 4.8.8.5 1.8.8 2.6 1.3 1 .7 1.9 1.4 2.9 2 .8.5 1.8 1.1 2.7 1.1.5-.1.8-.3 1.1-.6.6-.6 1.2-1.233 1.8-1.9 4.3-4.7 8.1-9.9 11.5-15.3.6-.867 1.167-1.733 1.7-2.6.2-.4-.4-.8-.7-.4-2.9 4.7-6 9.3-9.5 13.7a164.454 164.454 0 01-3.3 3.8c-.533.667-1.1 1.3-1.7 1.9-.3.3-.5.6-1 .6-1-.1-1.9-.8-2.7-1.3-.9-.6-1.8-1.3-2.7-1.8-.4-.2-.8-.4-1.2-.5a47.133 47.133 0 01-1.5-.9c-1.1-.7-2.2-1.4-3.3-2.2-2.1-1.5-4.2-3-6.4-4.3-1.2-.8-2.4-1.5-3.6-2.4-.9-.7-1.8-1.5-2.8-2.3l-3.9-3.3a75.45 75.45 0 01-4.2-3.7c-1.4-1.2-2.7-2.5-4.1-3.7-1.4-1.2-2.9-2.4-4.2-3.6-1.4-1.2-2.5-2.6-3.6-4a54.193 54.193 0 00-3.6-4.2c-2.6-2.7-5.3-5.4-7.4-8.4-2-2.9-3.5-6-4.8-9.1a61.311 61.311 0 01-1.8-4.9c-.7-1.7-1.3-3.5-1.8-5.3-.5-1.9-.8-3.7-.7-5.7 0-.9.1-1.9.1-2.9 0-.733.067-1.5.2-2.3 1.2-6 6.1-11 11.5-13.4 1.6-.7 3.3-1.1 5.1-1.2 1.7-.2 3.5 0 5.2.4 3.6.6 7.2 1.7 10.6 3.2 3.2 1.4 6.2 3.1 8.9 5.3 2.8 2.1 5.3 4.5 7.3 7.3.4.6.9 1.1 1.3 1.6.5.5.9 1 .8 1.7h.8c-.1-3.2-.1-6.4.7-9.6.7-2.8 2.2-5.3 4.3-7.4 3.6-3.7 8.8-5.8 14-5.4 5.7.5 10.5 4.2 13.7 8.8 3.5 5 5.1 11 5.8 17 .4 3 .5 6 .5 9-.1 1.7-.1 3.4-.4 5.1-.3 1.9-.7 3.7-1 5.6a17.79 17.79 0 00-.2 2.7c0 .5.7.5.8 0zM22 173.1c-2.8-2.9-5.3-6-7.5-9.3a78.107 78.107 0 01-6.4-11.2c-1.9-3.8-3.4-7.8-4.5-11.8-.9-3.4-1.6-6.9-1.4-10.4.1-3 .7-6 1.9-8.8 1.1-2.7 2.7-5.3 4.9-7.2 2.1-1.9 4.8-3 7.7-3.1 2.8-.1 5.8.6 8.2 2.2 2.4 1.6 4.4 3.9 5.5 6.6 1.5 3.3 1.7 7.1.9 10.7-.266 1.067-.6 2.1-1 3.1-.1.4.5.7.7.3 2.8-5.9 7.3-11.3 13.9-12.8 5.4-1.2 11.5.5 15.5 4.2 1.5 1.4 2.7 3 3.4 4.9.7 1.9.9 4 .8 6-.4 4.2-2.3 8.1-4.9 11.3-2.6 3.2-5.7 5.9-8.8 8.4-3 2.5-6.2 4.7-9.5 6.8-6.7 4.4-13.7 8.3-20.8 11.9-.8.4-1.566.8-2.3 1.2-.4.2-.1.8.4.6a149.344 149.344 0 0010.2-5.4c3.734-2 7.4-4.133 11-6.4 3.4-2.2 6.8-4.5 10-6.9 3.2-2.5 6.4-5.2 9.1-8.2 2.8-3.2 5.2-6.9 6-11.1.8-4.1.2-8.4-2.3-11.8-2.2-2.7-5.3-4.6-8.5-5.7-2.5-.8-5.1-1.1-7.6-.8-2.8.3-5.5 1.3-7.8 2.9-2.9 2-5.2 4.7-7 7.7a57.127 57.127 0 00-1.5 2.8c.267.133.5.233.7.3 1.5-3.8 2-7.9 1-11.9-.8-3-2.5-5.8-4.9-7.9-2.2-2-4.8-3.2-7.7-3.6-3-.5-6.1 0-8.8 1.6-2.6 1.5-4.6 3.8-6 6.4-1.5 2.7-2.5 5.8-2.9 8.9-.5 3.3-.3 6.5.3 9.8.9 4.2 2.2 8.2 3.8 12.1 1.8 4.1 3.8 8.1 6.2 11.8 2.2 3.6 4.7 7.1 7.5 10.2l2 2.2c.3.3.8-.2.5-.6z" fill="#fff"/><path d="M189 18.8v1c0 .2.2.4.4.4s.3-.2.4-.4v-1c0-.2-.2-.4-.4-.4s-.4.2-.4.4zm8.8-9.1c-.1 1.3 0 2.6-.2 3.9-.1 1.1-.6 2.1-.6 3.2h.7v-.3c.1-.5-.7-.5-.7 0v.3c-.1.5.7.5.7 0 .1-1.1.5-2.1.7-3.2.1-1.3.1-2.6.1-3.9 0-.5-.7-.5-.7 0zm-3.1 1.6c.5 0 .5-.8 0-.8-.4 0-.4.8 0 .8zm5.2 7.8c.8 0 1.7-.1 2.5-.5.7-.4 1.2-1.1 1.4-1.8.2-.5.2-1.1.3-1.6 0-.5-.8-.5-.8 0 0 .7-.1 1.5-.6 2.1 0 .1 0 .1-.1.1l-.2.2v.1h-.1l-.2.2-.4.2c-.133 0-.3.034-.5.1-.4.067-.833.1-1.3.1-.5 0-.5.7 0 .8zm-15 68c.067-.333.1-.633.1-.9-.1-.5-.8-.5-.8 0 0 2.5.7 5 1.5 7.4.3 1.2.8 2.4 1.1 3.7.4 1.2.6 2.5.8 3.8.5 2.7.9 5.5.9 8.2 0 1.4-.1 2.8 0 4.1.1 1.3.2 2.6.2 4v3.4c.1 1.1 0 2.3-.4 3.3.267-.066.5-.1.7-.1l-.4-.4c-.4-.3-.9.2-.6.5l.4.4c.3.2.6.1.7-.2.3-.9.4-1.9.4-2.9 0-1.1 0-2.1-.1-3.2 0-1.2.1-2.4 0-3.6-.1-1.3-.3-2.7-.2-4 .1-2.8-.2-5.5-.6-8.3-.2-1.3-.4-2.6-.7-3.9-.3-1.3-.7-2.5-1.1-3.8-.9-2.7-1.9-5.5-1.8-8.4h-.8v.9c-.1.5.7.5.7 0zm-77-28.7c.1 1.1.5 2.1 1 3 .3.5.5 1.1.7 1.6.2.6.3 1.2.5 1.7.3.9.9 1.5 1.5 2.2.5.6 1.2 1.3 1.1 2.1 0 .5.8.5.8 0 .1-1.8-1.9-2.7-2.5-4.2-.3-.5-.4-1.1-.5-1.7a10.29 10.29 0 00-.7-1.5c-.5-1-1.1-2.1-1.1-3.2 0-.5-.8-.5-.8 0zM161 74c.5 0 .5-.8 0-.8-.4 0-.5.8 0 .8zm1.4.2c.1-1.3-.1-2.6-.3-3.8-.2-1.4-.1-2.9-.1-4.3 0-1.3-.2-2.7-.2-4.1-.1-1.4 0-2.7.1-4.1.1-1.6.3-3.1.3-4.7.1-.5-.7-.5-.7 0-.1 2.8-.5 5.5-.5 8.3 0 1.3.2 2.7.2 4 .1 1.5 0 2.9.1 4.3l.3 2.1c.067.733.1 1.5.1 2.3 0 .4.7.4.7 0zm39.1-62.4c.5 0 .5-.8 0-.8-.4 0-.4.8 0 .8z" fill="#fff"/><path d="M208.1 19.5c1.2-1.2 2.2-2.7 2.6-4.4.2-.8.2-1.7.3-2.6 0-.867-.066-1.733-.2-2.6-.1-.9-.3-1.7-.7-2.4-.4-.7-.7-1.4-1.1-2.1-.4-.8-.9-1.4-1.6-1.8a15.88 15.88 0 01-1.1-.8c-.5-.3-.9-.6-1.3-1-1.4-1.1-3.1-1.2-4.8-1.2h-9.5c-.9 0-1.8 0-2.7.2-1.5.4-3.3 1.6-3.5 3.3-.1.8.2 1.7.9 2.2.6.6 1.4.6 2.2.9 1.5.6 1.5 2.3 1.5 3.7 0 .5.8.5.8 0 0-1.2 0-2.5-.8-3.5-.4-.5-.9-.8-1.5-1-.6-.2-1.3-.3-1.8-.7-.6-.5-.7-1.4-.4-2 .3-.8 1-1.4 1.7-1.8 1.6-.8 3.5-.6 5.2-.6h6.1c1.7 0 3.5-.2 5 .4.9.4 1.5 1 2.2 1.6.7.4 1.4.8 2 1.4.5.6.9 1.3 1.2 2 .3.6.7 1.3 1 1.9.6 1.8.5 3.7.3 5.5-.2 1.9-1.2 3.6-2.6 4.9-.3.3.2.9.6.5z" fill="#fff"/><path d="M185.4 2.7c-1.1-.3-1.6.6-1.6 1.6-.1 1 .2 2.1.7 2.9.8 1.2 2 2.5 3.4 2.6 1.1 0 1.8-.8 2.2-1.7.4-1 .6-2.2.4-3.2-.2-1.3-1-2.3-2.1-2.9-.6-.3-1.4-.5-2-.2-.5.3-.7.7-.7 1.2 0 1 .7 2.2 1.4 2.9.7.5 1.8 1 2.7.6.5-.2.7-.6.7-1.1-.1-.6-.4-1-1-1.3-.5-.2-1.1-.3-1.6-.4-.5-.1-1-.3-1.5-.4-.5-.1-.9.1-1 .7 0 .6.3 1.3.7 1.8.8 1.1 2.3 1.8 3.7 1.5.7-.2 1.3-.7 1.3-1.5 0-.7-.4-1.4-.6-2.1-.1-.3-.1-.7-.1-.9 0-.2.2-.3.5-.4.2-.067.434-.1.7-.1.2 0 .1 0 .3.1.4.1.8.3 1.1.4 1 .5 1.9 1 2.9 1.5.8.3 1.7.7 2.5.6.4-.1.7-.4.7-.7.2-.6-.6-1-1.1-1.1-.5-.1-1.1 0-1.6.2-.2.2-.3.5-.1.6.5.5 1.2 1.1 2 1.2.8.1 1.5-.5 1.6-1.3 0-.8-.6-1.5-1.2-1.9-.6-.3-1.4-.4-2.1-.5-1.4-.2-3.1-.4-4.5 0-.8.2-1.4.8-1.5 1.6 0 .8.5 1.5 1 2.1 1.9 1.8 4.5.9 6.7 0 .2-.1.2-.5 0-.6-.3-.4-.9-.5-1.4-.6-.8-.133-1.6-.233-2.4-.3-.733-.067-1.5-.067-2.3 0-.5 0-1.2 0-1.6.3-.3.2-.3.6.1.7 1 .3 2.1.1 3.2 0 1.2-.2 2.6-.2 3.8-.1 1.334 0 2.634.167 3.9.5 1.2.2 2.3.6 3.2 1.4.4.267.734.6 1 1 .2.3.5.8.2 1.1h.5c-.9-.6-1.4-1.7-2.1-2.5-.3-.4-.7-.7-1-1.1-.3-.3-.7-.7-.6-1.2a3.31 3.31 0 00-.5.4c2 .6 4.6 1.7 4.6 4.2l.2-.4c-.7.4-1.7-.1-2.4-.4-.8-.4-1.5-1-2.3-1.5-.9-.6-1.7-1.2-2.5-2a7.89 7.89 0 01-1.1-1.4c-.2-.3-.6-.9-.4-1.3.1-.3.6-.4.9-.4.6-.1 1.1 0 1.7.2 1.1.3 2.1 1 3 1.8.9.8 1.8 1.8 2.6 2.8.8 1.067 1.5 2.2 2.1 3.4.7 1.3 1.5 3.9-.5 4.5a.88.88 0 01.4.1c-.5-.4-.5-1.1-.6-1.6-.1-.7-.1-1.5-.2-2.2-.2-1.7-1.2-3.3-2.2-4.7-.2-.2-.5-.3-.7 0-.4.8.2 1.8.4 2.6.3 1.3.6 2.5 1 3.7.2 1 .4 1.9.5 2.9.1 1 .2 2 .7 2.8.2.3.7.2.7-.2v-.9c0-.5-.8-.5-.8 0 0 .333.034.633.1.9.2-.067.434-.133.7-.2-.5-.7-.6-1.7-.7-2.5-.1-1-.2-1.9-.4-2.8a215.757 215.757 0 01-1-3.3c-.1-.5-.2-.9-.3-1.4-.2-.3-.4-.9-.2-1.2h-.7c.9 1.3 1.9 2.7 2.2 4.2.1 1.2 0 2.6.5 3.7.1.2.2.5.4.6.2.3.5.2.8 0 .6-.2 1-.7 1.2-1.3.4-1 .1-2.3-.3-3.4-.7-1.7-1.8-3.3-3-4.8-1.2-1.4-2.5-2.8-4.1-3.6-.8-.4-1.6-.8-2.5-.9-.7 0-1.5 0-2 .4-1.3 1 .3 3 1.1 3.8 1.1 1.3 2.6 2.3 4 3.2 1.2.7 2.8 1.7 4.3 1.1.1-.1.2-.2.2-.3 0-2.9-2.8-4.2-5.2-5-.2 0-.5.2-.5.4-.1 1.1 1.1 2 1.7 2.7.8.9 1.4 2.1 2.4 2.7.2.1.4.1.5 0 .7-.8.1-1.8-.4-2.5-.8-.9-1.7-1.5-2.8-1.9-2.7-1-5.6-1.1-8.4-1-1.4 0-2.8.6-4.1.2 0 .2.034.433.1.7.3-.2.8-.3 1.3-.3a12.124 12.124 0 012.2 0c.667.067 1.367.167 2.1.3l.8.2c.1.1.3.1.4.2 0-.2.034-.4.1-.6-1.6.7-3.5 1.5-5.1.6-.9-.5-2.2-2.2-.8-2.8 1.1-.4 2.3-.2 3.4-.1.667 0 1.3.067 1.9.2.6.1 1.1.2 1.5.6.3.4.6 1.3-.2 1.4-.6.1-1.4-.5-1.8-.9 0 .2-.033.4-.1.6.4-.2 1-.2 1.4-.1.067 0 .134.033.2.1 0 0 0 .1.1.1V4v.1c-.5.2-1.3-.2-1.8-.4-.9-.3-1.7-.8-2.5-1.2-.6-.3-1.3-.7-2-.9-.6-.1-1.4-.1-1.9.3-.6.3-.6 1-.5 1.5.1.6.3 1.2.5 1.8.1.4.2.9-.1 1.2-.8.5-2 .1-2.7-.4-.5-.3-.9-.7-1.1-1.3-.066-.2-.1-.433-.1-.7 0-.1 0 0-.1 0h.3c.4.1.7.3 1.2.4.4.1.9.1 1.3.3.4.1.8.3.8.7 0 .4-.2.5-.5.5-.7 0-1.4-.4-1.9-1-.3-.3-.5-.7-.7-1.2-.1-.3-.3-.7-.1-1 .3-.4.9-.3 1.3-.1.6.2 1.1.7 1.5 1.2.5.6.5 1.5.5 2.3-.1.8-.3 1.8-.8 2.4-.7.8-1.6.5-2.3 0-.8-.6-1.7-1.6-2-2.6-.1-.6-.3-1.6 0-2.2.1-.3.3-.4.5-.3.5.1.7-.6.2-.7z" fill="#fff"/><path d="M200.2 3.8c.267.333.567.533.9.6.3.1.7.1 1.1.1.2-.1.3-.3.2-.5 0-.2-.2-.3-.4-.3h-.1c0 .067-.033.1-.1.1h-.3v-.1c.1.1 0 .1 0 0h-.3c-.067-.067-.133-.1-.2-.1v-.1c0 .1-.1 0 0 0h-.1c-.067-.067-.1-.133-.1-.2-.2-.1-.4-.1-.6 0-.1.2-.1.4 0 .5z" fill="#fff"/><path d="M200.8 3.8c.8-.7 1.3-1.8 2.1-2.6.1-.1.1-.4 0-.5-.2-.1-.4-.2-.6 0-.8.8-1.3 1.8-2.1 2.6-.1.2-.1.4 0 .5.2.2.4.2.6 0zm-53.2 215.4h.2c-.067-.133-.1-.133-.1 0 .133-.067.3-.133.5-.2-.3-.1-.3-.3-.3-.5 0-.3-.4-.5-.7-.3-.3.3-.5.7-.6 1.2-.1.4-.2.8-.7 1 .2.133.4.233.6.3 0-.4.1-.8.3-1.1.133-.4.167-.8.1-1.2-.1-.3-.5-.4-.7-.2-.9.9-1.4 2.2-1.9 3.4-.3.5-.5 1-.8 1.4-.4.6-.8 1.2-1 1.8-.2.4-.4 1.1.1 1.3.3.2.7.2 1 .1.9-.3 1.6-1.1 2.3-1.7.6-.7 1.3-1.4 1.8-2.2.2-.3-.2-.6-.5-.5-1 .4-1.8 1.1-2.4 2.1-.1.2.1.5.3.5 1.9 0 3.1-1.6 4.5-2.6 1.2-.8 3-1.4 3.5-2.9 0-.1 0-.3-.1-.4-1.1-1.1-3.1.7-3.1 1.9-.1.2.1.3.2.4.7.2 1.5.1 2.1-.2.4-.2.6-.5.8-.8.2-.4.1-.7-.2-.9-.6-.4-1.3-.4-2-.3-.4 0-1.3.2-1.6-.3a3.86 3.86 0 01-.2.5c1-.2 2-.2 2.9-.2.7 0 1.4-.2 2.1-.2 1-.2 2.7-.2 3.2-1.3.1-.2 0-.5-.2-.6-1.5-.3-3-.1-4.4-.1a10.72 10.72 0 01-2.1-.2c-.7-.1-1.4-.3-2.1-.3v.7c2.3.1 4.6 0 6.8 0 1.9 0 3.9-.4 5.8.1a1.175 1.175 0 01-.3-.2c.2.3.2.4.1.5-.2.2-.5.4-.7.5-.7.4-1.5.6-2.3.7-.5.1-1 .2-1.5.4-.7.3-1.4.7-2.1 1.1l-2.2 1.2c-.5.3-1 .5-1.6.8-.4.3-1 .6-1.1 1.2 0 .2.1.4.3.4.7.3 1.4.1 2.1-.1.7-.1 1.4-.4 2-.7.8-.6 1.4-1.3 2.1-2 .6-.5 1.2-.9 1.7-1.5.2-.3.4-.7.2-1-.2-.3-.6-.5-1-.6-.8 0-1.5.6-2.2.9-.933.533-1.867 1-2.8 1.4-1 .5-2 .8-3 1.2-1 .5-2 1.1-3 1.7l-1.4 1c-.4.3-.9.6-1.4.6-.5.1-.5.8 0 .8.7 0 1.2-.4 1.7-.7.533-.4 1.1-.767 1.7-1.1 1.2-.8 2.4-1.5 3.7-2a28.809 28.809 0 003.9-1.7l1.8-1c.5-.2 1-.5 1.4 0v-.3c-.3.7-1 1.2-1.6 1.6-.7.5-1.2 1.2-1.9 1.7-.5.5-1.2.8-1.9.9-.5.2-1.3.4-1.9.2.067.133.167.3.3.5 0-.4.4-.6.7-.7.4-.2.8-.4 1.1-.5 1.1-.6 2.1-1.3 3.1-1.8.267-.2.567-.367.9-.5l.4-.2c.067 0 .133-.033.2-.1.133-.067.3-.1.5-.1l1.6-.4c.6-.1 1.2-.3 1.8-.6.4-.2.9-.5 1.1-.9.133-.267.167-.533.1-.8-.1-.4-.4-.5-.8-.6-1.1-.2-2.3-.2-3.4-.1-3 .2-6 .2-9 .1-.5 0-.5.7 0 .7.7.1 1.3.2 2 .4a10.2 10.2 0 002 .2c1.5 0 2.9-.2 4.4 0a5.056 5.056 0 00-.3-.5c-.2.5-.7.6-1.1.7-.6.1-1.2.2-1.8.2l-2.1.3c-.9 0-1.8 0-2.7.2-.2.1-.3.3-.2.6.4.6 1.1.7 1.8.6.7 0 1.6-.2 2.1.3-.067-.067-.1-.167-.1-.3-.3.8-1.3 1-2.1.7.133.133.233.267.3.4 0-.4.5-.8.8-1.1.2-.2.7-.5 1-.2a.883.883 0 00-.1-.4c-.2.7-.8 1.1-1.4 1.4-.6.4-1.2.7-1.8 1.1l-1.8 1.5c-.6.5-1.3 1-2.2 1 .133.2.267.367.4.5.4-.8 1.2-1.4 2.1-1.7-.2-.2-.367-.4-.5-.6-.4.6-.9 1.1-1.3 1.6-.6.6-1.2 1.3-2 1.7-.2.2-.5.3-.8.3.1 0 0 .2.1 0v-.3l.2-.4c.3-.5.6-.9.9-1.4.3-.4.5-.9.7-1.3l.8-1.8c.3-.6.6-1.1 1.1-1.5a9.56 9.56 0 01-.7-.2c.1.4 0 .7-.2 1-.1.4-.2.7-.2 1.1.1.3.3.5.6.3.5-.2.7-.6.9-1 .2-.4.2-.9.6-1.2a2.234 2.234 0 00-.7-.3c.1.5.3 1.1.9 1.2.2 0 .4-.1.4-.3.2-.6-.2-.9-.8-.9-.5 0-.5.8 0 .7z" fill="#fff"/><path d="M149.2 214.8c-.7 0-1.4 0-2.1.1-.2.1-.3.2-.3.4-.1.8-.7 1.6-.6 2.5.267-.133.5-.233.7-.3-.4-.7-.8-1.7-.5-2.4.4-1.2 2.2.1 2.9.3.7.2 1.5.2 2.2.4.7.1 1.4.4 2.1.6 1.4.4 2.8.4 4.3.4 1.6 0 3.2-.2 4.9-.2.5 0 .5-.7 0-.7-3.1 0-6.5.6-9.5-.4-.7-.3-1.5-.5-2.3-.6-.4 0-.8-.1-1.2-.2-.4-.1-.8-.2-1.1-.4-.6-.3-1.3-.6-2-.4-.4.1-.8.4-1 .9-.4.9 0 2.2.6 3 .2.4.7.2.7-.2-.1-.4.1-.8.2-1.1.2-.4.3-.8.4-1.2a1.6 1.6 0 00-.3.4c.6-.2 1.3-.1 1.9-.1.5 0 .5-.8 0-.8zm116.7-33.4c.1.5.4 1 .6 1.5.334.467.567.967.7 1.5.3 1.2.2 2.4.3 3.6.1 2.2.5 4.4 1.6 6.4.2.3.7.2.7-.2-.2-3 0-6.1 0-9.1h-.8c0 2 .6 3.9.5 5.9 0 1.7-.2 3.6.7 5.1.1.2.3.2.5.2.7-.2 1-.9 1.2-1.6.2-.9.2-1.9.1-2.9 0-.933-.1-1.833-.3-2.7-.2-1.2-.6-2.4-.9-3.5-.3-.9-.6-1.7-.8-2.6-.3-.8-.5-1.6-.9-2.3-.2-.3-.5-.3-.7 0-.7 1-.3 2.1 0 3.3.267 1.2.667 2.4 1.2 3.6.4 1 1 2 1.4 3.1.4.9.7 1.9 1.2 2.9s1.2 1.9 2.2 2.5c.2.1.5 0 .5-.2.3-1.3.3-2.6-.8-3.5-.6-.6-1.8-1.5-2.7-.9-.8.5-.4 1.6-.1 2.3.3.8.9 1.8 1.6 2.3.5.3 1 .2 1.5-.1.3-.1.5-.2.8.1.4.2.6.6.8.9l.6-.4c-.4-.733-.766-1.5-1.1-2.3-.2-.3-.7-.1-.7.2-.1 1.5.7 2.9.5 4.4h.8c0-1.7.3-3.6-.4-5.2-.5-1.4-1.6-2.6-1.7-4-.1-.5-.8-.5-.8 0 .1 1.5 1.1 2.6 1.7 4 .8 1.6.4 3.5.4 5.2 0 .5.7.5.8 0 .1-1.5-.7-2.9-.6-4.4a9.56 9.56 0 01-.7.2c.334.8.734 1.567 1.2 2.3.2.5.8.1.6-.4-.4-.9-1.4-1.8-2.4-1.3-.4.2-.6.4-.9.1-.3-.2-.5-.5-.7-.8-.4-.6-.9-1.4-.9-2.1 0-.9 1.2-.2 1.5.1.4.2.8.6.9 1 .3.6.3 1.4.1 2.1.2-.133.367-.233.5-.3-1.6-1-2.2-3-2.9-4.7-.3-.9-.8-1.8-1.2-2.7a15.13 15.13 0 01-1.2-3.3c-.2-.6-.366-1.2-.5-1.8-.2-.7-.2-1.3.2-1.8h-.7c.4.5.6 1.2.8 1.8l.6 2.2c.4 1.2.9 2.5 1.1 3.7.4 1.7.5 3.4.3 5 0 .6-.2 1.6-.7 1.8a.88.88 0 01.4.1c-.9-1.4-.6-3.3-.6-4.9.1-1.9-.5-3.8-.5-5.7 0-.5-.8-.5-.8 0 0 3-.1 6.1.1 9.1.2-.067.434-.133.7-.2-1.2-1.9-1.4-4.1-1.6-6.4 0-1.1 0-2.3-.3-3.4a5.87 5.87 0 00-.6-1.5c-.3-.5-.6-.9-.7-1.5 0-.5-.8-.3-.7.2z" fill="#fff"/><path d="M265.4 180.3c.066.267.033.5-.1.7.133-.067.233-.133.3-.2-.334.067-.634.133-.9.2-.1 0-.2.2-.3.3-.3 1.4 0 2.8.3 4.2.266 1.4.6 2.8 1 4.2.3 1.3.6 2.6 1 3.8.2.6.4 1.1.8 1.6.4.4.8.9 1 1.4.2.5.9.3.7-.2-.2-.5-.5-.9-.8-1.3-.4-.5-.7-1-.9-1.6-.4-1.2-.7-2.4-1-3.6-.4-1.4-.734-2.767-1-4.1-.2-1.4-.7-2.9-.3-4.2a1.14 1.14 0 00-.3.2c.4 0 1 0 1.1-.4.2-.4.2-.8.1-1.2-.1-.4-.8-.2-.7.2z" fill="#fff"/><path d="M267.2 187.2c-1.2.3-1.4 1.8-1.3 2.9.1.4.8.3.8-.1 0-1 .1-2.2-.2-3.2-.3-.8-.9-1.5-.9-2.4 0-.5-.7-.5-.7 0-.1.9.5 1.7.8 2.5.4 1 .2 2.1.2 3.1.266 0 .5-.033.7-.1-.1-.6 0-1.8.8-2 .5-.1.3-.8-.2-.7zM10.4 119c-2.7 1.5-3.3 4.5-3.9 7.2-.3 1.8-.7 3.6-.4 5.5.1.9.5 1.8.6 2.7.1.9 0 1.7.3 2.5.2.5.4.9.5 1.3.2.4.3.8.5 1.2.4.7.9 1.2 1.6 1.4.4.2 1.1.4 1.5-.1.1-.1.2-.4.2-.6.134-.4.234-.8.3-1.2.4-1.9.4-3.8.8-5.7.3-.9.2-1.8.3-2.7.1-.9.3-1.8.3-2.8.1-1 .5-1.9.6-2.9.2-1.1.2-2.1.1-3.1 0-.9 0-1.8-.7-2.4-.5-.4-1.2-.8-1.8-.7-.5.1-.3.9.2.8.4-.1 1.1.4 1.3.7.2.3.3.7.3 1v1.2c0 .8.1 1.6-.1 2.5-.2.7-.5 1.5-.6 2.3 0 .4 0 .8-.1 1.1 0 .467-.033.933-.1 1.4-.2.8-.2 1.6-.2 2.4-.1.8-.3 1.6-.5 2.5-.066.8-.166 1.6-.3 2.4a17.44 17.44 0 01-.4 2.6c0 .2 0 .5-.2.6 0 .2-.1.2-.3.1-.7-.1-1.2-.5-1.5-1.1-.2-.3-.2-.7-.4-1-.133-.4-.3-.8-.5-1.2-.3-.8-.3-1.5-.3-2.3-.1-.8-.4-1.6-.5-2.4-.4-1.7-.2-3.3.1-5 .5-2.7 1-6.1 3.7-7.5.4-.3 0-.9-.4-.7zm59.4-46.5c-1.5 2.8-2.5 5.9-2.9 9.1-.3 3.1-.1 6.2.7 9.2.9 3.1 2.3 6.1 4 8.9.7 1.2 1.5 2.3 2.5 3.3.9 1 2.1 1.9 3.5 2.3 1.1.3 2.6.2 3.3-.8.5-.7.5-1.5.5-2.2-.2-2-1-4-1.8-5.8-.3-.7-.7-1.4-1-2.1-.6-1.4-1-2.9-1.3-4.4-.6-3.1-.6-6.3-.8-9.5-.1-1.9-.4-3.8-1.2-5.6-.7-1.6-2-3.2-3.9-3a3.942 3.942 0 00-1.4.5c-.5.2-.1.8.4.6 3.7-1.7 5 3.8 5.3 6.4.2 2.9.2 5.8.6 8.7.3 2.5.9 5 1.9 7.3.8 1.6 1.6 3.3 2.1 5.1.2.8.4 1.7.3 2.5-.067.866-.5 1.4-1.3 1.6-1.3.3-2.7-.4-3.7-1.2-1-.8-1.9-1.9-2.7-3-1.7-2.5-3-5.2-4-8-.9-2.8-1.5-5.8-1.4-8.7.1-3 .7-5.9 1.9-8.7.333-.734.7-1.433 1.1-2.1.2-.5-.4-.8-.7-.4z" fill="#fff"/><path d="M33.2 129.1v-2.9c0-.9 0-1.8-.1-2.6-.2-1.6-.7-3.1-1.6-4.5-1-1.5-1.9-3-3-4.4-1-1.2-2.3-2.2-3.6-3a30.84 30.84 0 00-2.2-.9c-.8-.3-1.6-.5-2.3-.8-.4-.1-.7-.3-1.1-.4-.467-.067-.9-.1-1.3-.1h-2.7c-.8 0-1.6.2-2.4.5-.8.333-1.567.667-2.3 1-1.5.6-3.1 1.3-4.1 2.5-.5.6-.8 1.4-1.3 2-.2.3-.5.5-.7.8-.2.3-.3.7-.4 1.1-.2.8-.6 1.5-.9 2.3-.3.9-.5 1.8-.7 2.7-.1.9-.3 1.8-.3 2.7-.1.9-.1 1.8 0 2.7v5.7c0 1.9.3 3.8.6 5.7.2.8.2 1.7.5 2.6.3.9.6 1.7.9 2.6 1.2 3.4 2.4 6.9 4.3 10l1.4 2.2c.3.4.6.7.8 1.1.2.4.367.767.5 1.1.3.8.6 1.5 1.1 2.2.6.7 1.1 1.4 1.5 2.2.8 1.5 1.4 3.1 2.3 4.6 1 1.7 2.2 3.2 3.3 4.7.533.733 1.067 1.5 1.6 2.3.1.1.4.2.6 0 .2-.3.2-.6.1-.9-.2-.5-.9-.1-.7.3v.1c.2 0 .4.033.6.1-2-3-4.4-5.7-5.9-9-.7-1.5-1.4-3-2.4-4.4-.5-.7-1-1.3-1.3-2.1-.3-.8-.6-1.5-1-2.1-1-1.4-1.9-2.8-2.7-4.4-.8-1.5-1.5-3.2-2.2-4.8-.6-1.7-1.1-3.4-1.7-5.1-.4-.8-.6-1.6-.7-2.5-.1-.9-.3-1.8-.4-2.7-.3-1.8-.4-3.7-.4-5.6v-5.3c0-1.8.3-3.6.7-5.3.2-.9.5-1.6.9-2.4.3-.7.3-1.6.8-2.2.2-.3.4-.5.6-.8.3-.3.5-.6.7-1 .4-.7.9-1.2 1.6-1.7 1.3-.9 2.8-1.4 4.3-2 .8-.3 1.5-.7 2.4-.7h3.8c.4 0 .8.2 1.3.4.7.3 1.4.4 2.2.7 1.4.5 2.8 1.2 4 2.1 1.3 1.1 2.2 2.4 3.2 3.8.9 1.3 1.9 2.7 2.5 4.2.5 1.6.6 3.2.6 4.8v2.8c0 .5.7.5.7 0z" fill="#fff"/><path d="M31.7 132.9c1.1-1.2 1.4-2.8 2.5-3.9.6-.7 1.3-1.3 2-1.9.7-.6 1.2-1.2 1.9-1.7 1.4-1 2.6-2.2 4.1-2.9.4-.1.9-.2 1.4-.3l1.2-.4c.3-.1.6-.3.9-.3h1.2c.8-.1 1.6-.2 2.4-.1.4.1.8.3 1.1.4.5.1.9.2 1.3.4.7.4 1.5.6 2.3.9.733.2 1.433.5 2.1.9.8.467 1.566.967 2.3 1.5.7.6 1.5 1.1 2 1.8.6.6.9 1.3 1.4 1.9.6.7 1.1 1.3 1.5 2.1.5.8.9 1.7 1.1 2.6.2.8.2 1.8.1 2.6 0 1.8-.5 3.4-1.5 4.9-1 1.4-2.3 2.5-3.3 3.9a7.083 7.083 0 00-1.2 2.2c-.3.9-.6 1.7-1.1 2.4-1 1.4-2.3 2.5-3.5 3.7-.6.5-1.1 1.1-1.8 1.6s-1.4.9-2.1 1.4c-1.4 1-2.6 2.3-3.8 3.5-1.2 1.3-2.4 2.7-3.9 3.7-1.5.9-3.1 1.5-4.4 2.6-.7.5-1.3 1-2 1.3-.8.467-1.567.9-2.3 1.3-1.6.9-3.3 1.3-4.9 1.9-1.7.7-3.2 1.8-4.9 2.5-.7.3-1.4.6-2.1.8.133.134.266.234.4.3v-.2c-.2-.5-.9-.3-.8.2.066.067.1.134.1.2 0 .2.3.3.5.3.8-.2 1.6-.6 2.4-1 .8-.3 1.6-.8 2.4-1.2 1.6-1 3.3-1.6 5.1-2.2.8-.266 1.6-.6 2.4-1 .8-.5 1.6-.9 2.3-1.3.8-.5 1.5-1.1 2.2-1.6.7-.5 1.4-.9 2.2-1.3.7-.4 1.5-.8 2.2-1.2.7-.6 1.4-1.2 2.1-1.9 1.3-1.4 2.5-2.7 3.9-4 .7-.6 1.4-1.2 2.1-1.7.7-.4 1.4-.8 2-1.3.6-.6 1.2-1.2 1.9-1.8.6-.6 1.3-1.2 1.9-1.8.5-.7 1.1-1.3 1.5-2.1.4-.8.6-1.7 1-2.5.7-1.6 2.1-2.8 3.2-4.2 1.2-1.3 2-2.9 2.4-4.6.2-.9.2-1.7.2-2.6 0-.9 0-1.8-.3-2.7-.4-.9-.8-1.8-1.3-2.6-.4-.7-1-1.3-1.5-1.9-.5-.7-.9-1.5-1.5-2-.6-.7-1.4-1.2-2.1-1.8-1.5-1-2.9-1.9-4.6-2.4-.3-.1-.7-.2-1.1-.4-.4-.1-.8-.4-1.3-.5-.4-.2-.8-.3-1.2-.4-.4-.2-.7-.3-1.1-.3-.8-.2-1.7 0-2.5 0-.8.1-1.4 0-2.2.3-.4.2-.8.367-1.2.5-.5 0-.9.1-1.4.3-.8.3-1.5.8-2.2 1.4-.7.5-1.3 1-2 1.5-.8.5-1.3 1.1-1.9 1.7-.7.7-1.5 1.3-2.2 2-.5.6-.9 1.2-1.3 1.9-.3.7-.7 1.5-1.2 2-.3.4.2.9.5.6z" fill="#fff"/><path d="M52.5 116.7c-.4.4-.6.8-.9 1.3-.3.3-.7.6-.9 1-.2.4-.2.8-.2 1.2 0 .4 0 .8.2 1.2.3.8 1.1.7 1.8.8 1.2.2 2.3.4 3.4.4 2.4.1 4.8-.1 7.2-.1 1.2 0 2.4.1 3.6-.1 1.1-.1 2.2-.5 3.3-.6.6-.1 1.3-.2 1.9-.4.267-.134.567-.2.9-.2.3-.1.7-.1 1-.1 1.2-.2 2.4-.6 3.7-.7.5 0 .5-.7 0-.7-1.1 0-2 .3-3 .5-.6.1-1.1.2-1.6.2-.6 0-1 .2-1.5.4-1.1.2-2.2.3-3.3.5a7.49 7.49 0 01-1.3.3c-.6.2-1.2.2-1.8.2-2.2 0-4.4.033-6.6.1-1.2 0-2.3 0-3.4-.1-1-.1-1.9-.3-2.9-.4-.4 0-.7 0-.8-.4-.1-.4-.1-.9 0-1.4.1-.4.5-.6.7-1 .4-.4.6-1 1-1.4.3-.4-.2-.9-.5-.5z" fill="#fff"/><path d="M77.4 118.6c-.1.7.1 1.2.8 1.4.3.1.6.1.8.2.4.1.7.4 1 .7.3.3.6.7 1 1 .334.4.733.734 1.2 1 .9.7 1.9 1.3 2.8 2 .8.7 1.5 1.6 2.3 2.4.3.3.7.6 1 1 .4.4.8.8 1.3 1.2l1.2.9c.4.4.8.9 1.2 1.3.6.9 1.4 1.7 2.2 2.4.4.3.8.7 1.2 1 .4.4.7.8 1 1.2.7.8 1.7 1.1 2.6 1.7.9.6 1.4 1.6 2.3 2.2.7.7 1.7 1.1 2.6 1.6.8.5 1.5 1.2 2.3 1.7.9.6 1.9 1.2 2.7 1.9.933.733 1.9 1.5 2.9 2.3.4.334.767.634 1.1.9.267.2.5.367.7.5.3.1.6.2.9.4.2.2.4.4.5.7.2.2.4.3.6.4.6.2 1 .4 1.4.8.4.4.7.8 1.1 1.1.5.3 1 .4 1.4.8.4.3.8.7 1.2 1 .5.3 1 .4 1.4.6.7.4 1.1 1.5 2 1.4.2 0 .333-.066.4-.2.1-.7 0-1.3-.4-1.8-.4-.3-.9.2-.6.5.3.3.3.7.2 1.1.133-.133.267-.233.4-.3-.3 0-.6-.4-.7-.6a4.696 4.696 0 00-.9-.7c-.4-.2-.8-.3-1.2-.5-.4-.2-.7-.6-1.1-.9-.3-.3-.7-.6-1.2-.8-.4-.2-.7-.4-1.1-.8-.3-.3-.5-.7-.9-.9a2.55 2.55 0 00-.6-.3c-.2-.1-.5-.1-.7-.3-.3-.3-.5-.7-.9-1-.2-.1-.5-.2-.7-.3-.2-.133-.433-.3-.7-.5-.9-.6-1.8-1.4-2.7-2.1-.8-.7-1.7-1.5-2.6-2.1-.8-.5-1.8-1-2.5-1.7-.7-.6-1.6-1.1-2.4-1.5-.5-.3-.9-.5-1.3-.8-.4-.3-.8-.7-1.1-1.1-.4-.4-.7-.8-1.1-1.2-.4-.3-.9-.5-1.3-.7-.5-.2-.9-.5-1.3-.8-.3-.4-.6-.8-.9-1.1-.7-.8-1.6-1.4-2.4-2.2l-2.1-2.4c-.4-.4-.8-.7-1.2-1-.4-.333-.8-.7-1.2-1.1-.7-.8-1.5-1.5-2.2-2.2-.8-.9-1.7-1.7-2.7-2.4-1-.7-2-1.3-2.9-2.2-.7-.6-1.2-1.6-2.1-1.9-.3-.1-.6-.1-.9-.2-.3-.1-.4-.2-.3-.5.1-.5-.7-.7-.8-.2zm2.5.1c.1-.7-.7-1.1-1.2-1.5-.7-.5-1.2-1.3-1.7-2-.6-.8-1.3-1.5-1.9-2.2-.7-.8-1.3-1.6-1.8-2.4-1-1.7-2.5-3.1-3.9-4.4-.7-.6-1.4-1.3-2-2.1-.6-.8-1.1-1.6-1.7-2.4-.6-.8-1.3-1.7-1.8-2.6-.2-.4-.367-.8-.5-1.2-.1-.4-.2-.8-.4-1.2-.1-.2-.3-.4-.4-.6-.1-.2-.1-.5-.1-.7 0-.6-.1-1.1-.2-1.7a9.881 9.881 0 01-.1-1.4c0-.5-.2-1-.3-1.5-.2-1-.1-2.1-.1-3.2v-3.2c-.1-1.1-.3-2.1-.4-3.2a44.82 44.82 0 01-.3-3.1c0-1-.3-2-.3-3s.3-1.9.6-2.8c.6-1.6 1.4-3.1 2.7-4.3.8-.6 1.6-.9 2.5-1.3.9-.4 1.8-.9 2.7-1.3.4-.133.833-.267 1.3-.4.4-.2.9-.4 1.3-.6.9-.4 1.8-.5 2.7-.6l1.4-.2c.5 0 1-.2 1.6-.3.9-.1 1.8.4 2.8.4.5 0 1 .1 1.5.2l1.4.4c1 .4 2 .4 3.1.6 1 .3 2 .6 3 .8.533.133 1.033.233 1.5.3.5.1 1 .1 1.4.3.4.1.8.3 1.1.5l1.4.6c.4.133.833.3 1.3.5.5.2 1 .5 1.5.8 1.8 1.1 3.7 2.1 5.5 3.1.5.2.9.4 1.3.7l1 1c.6.7 1.1 1.4 1.7 2.1.8.8 1.4 1.7 2 2.6.5.9 1.1 1.8 1.3 2.8.1.1.1.3.1.4-.5.1-.3.8.2.7 1.7-.3-1-4.3-1.4-4.9a9.2 9.2 0 00-.7-1c-.6-.8-1.3-1.5-1.9-2.3-.6-.7-1.1-1.4-1.9-2-.8-.6-1.8-1-2.7-1.5a41.1 41.1 0 01-2.9-1.7c-1-.5-1.9-1.2-2.9-1.6-.9-.4-1.9-.6-2.8-1.1-.334-.2-.7-.367-1.1-.5-.5-.2-1-.2-1.5-.2-1.1-.2-2.2-.5-3.2-.8a28.103 28.103 0 00-3.1-.6c-1.1-.2-2-.6-3-.9-.5-.1-1 0-1.4-.1-.6 0-1.1-.2-1.6-.3-1-.2-2 .2-3 .3-1 .2-1.9.2-2.9.5-1 .2-1.8.7-2.8 1-.4.2-.834.367-1.3.5-.5.2-.9.4-1.3.7-.9.5-2 .7-2.8 1.3-.8.4-1.4 1-1.9 1.7-1.2 1.4-1.9 3.1-2.4 4.8-.2 1-.2 2 0 2.9 0 .6.2 1.1.2 1.6 0 .6.033 1.2.1 1.8 0 1 .2 2.1.4 3.2.1 1.1.2 2.2.2 3.3 0 1.1-.1 2.2 0 3.3 0 1.1.3 2.1.4 3.1 0 .534.033 1.034.1 1.5.1.6.1 1.2.2 1.7 0 .5.2.8.5 1.2.2.4.3.9.5 1.3.7 2 2.1 3.6 3.3 5.2.6.8 1.1 1.6 1.8 2.3.7.8 1.5 1.4 2.3 2.2.7.7 1.4 1.4 2 2.3.6.8 1 1.7 1.6 2.4.7.8 1.4 1.5 2.1 2.4.7.7 1.2 1.6 1.9 2.4.2.2.5.4.8.5.2.2.6.4.6.7 0 .5.7.5.7 0z" fill="#fff"/><path d="M111.7 81.8c0-1.7.3-3.3.8-4.9.4-1.6 1-3.2 1.7-4.6.7-1.5 1.6-2.8 2.4-4.2.4-.6.8-1.3 1.1-2 .2-.6.5-1.1.9-1.6.3-.4.6-1 1-1.4.3-.2.7-.3 1-.4.4-.1.8-.2 1.1-.3.7-.3 1.4-.7 2.1-.9a13.518 13.518 0 012.2-.6c1.5-.3 3-.3 4.6-.4 1.6 0 3.3-.2 4.9.3.7.2 1.5.3 2.1.6.5.3.9.8 1.4 1.2.4.4.9.7 1.3 1.1.2.3.3.6.5.9.2.267.434.533.7.8.5.6 1 1.1 1.4 1.7.4.6.9 1.2 1.3 1.7.5.6 1.1 1.1 1.5 1.7.4.6.8 1.2 1.1 1.9.6 1.5 1.2 3.1 1.8 4.7.6 1.5 1.1 3 1.3 4.6.1 1.6.1 3.2 0 4.7 0 1.7-.1 3.3 0 5 .1 1.6.5 3.3.6 4.9.2 1.7.1 3.4.1 5.1 0 1 .034 2 .1 3 0 .7.1 1.6-.2 2.3-.2.2-.2.2-.5.1-.4-.1-.6.6-.2.8 1.9.6 1.6-2.7 1.6-3.7-.1-1.3 0-2.6 0-3.9 0-1.7-.1-3.5-.3-5.2-.1-.9-.3-1.8-.4-2.7-.1-.9-.1-1.7 0-2.6v-5.1c.1-1.6 0-3.3-.4-4.8-.2-.9-.6-1.7-.9-2.5l-1-2.6c-.6-1.4-1.1-3-2-4.3-.4-.6-1-1.1-1.5-1.7-.5-.6-.9-1.2-1.4-1.9-.5-.6-1-1.2-1.5-1.7-.5-.6-.8-1.3-1.3-1.8-.4-.5-.9-.8-1.4-1.2-.4-.4-.8-.9-1.4-1.1-.6-.4-1.4-.5-2.1-.7-.8-.3-1.7-.3-2.5-.3-1.7 0-3.4 0-5 .1s-3.2.4-4.7.9c-.8.2-1.5.6-2.2.9-.7.3-1.5.3-2.2.8-.5.3-.7.9-1.1 1.4-.4.5-.7 1-1 1.6-.6 1.5-1.6 2.9-2.4 4.3-1.7 2.9-3 6.2-3.6 9.5-.133.8-.2 1.633-.2 2.5 0 .4.8.4.8 0zm13.5 73.5c.5 0 .5-.7 0-.7s-.5.7 0 .7z" fill="#fff"/><path d="M125.5 155.1c1.1-1.5 2.2-2.9 3.5-4.3 1.2-1.3 2.5-2.5 3.8-3.8.6-.6 1.4-1.2 2-1.8.6-.6 1.1-1.4 1.7-1.9.3-.3.6-.5.8-.8.3-.3.5-.7.7-1l.6-1c.3-.3.4-.6.6-.9.3-.8.8-1.4 1.3-2.1.5-.7.8-1.4.7-2.2 0-.5-.8-.3-.7.2.1.7-.5 1.4-.8 1.8-.4.6-.8 1.2-1.1 1.8-.2.4-.3.7-.5.9-.267.333-.5.667-.7 1-.2.3-.4.7-.6 1-.3.3-.6.5-.9.8-.6.6-1.1 1.3-1.7 1.9-.6.6-1.2 1.1-1.9 1.7-1.3 1.2-2.6 2.4-3.8 3.8-1.3 1.4-2.5 3-3.6 4.5-.3.4.3.8.6.4zm-11.8-83.9v-.1c0-.1.1-.1.1-.2.067-.133.167-.267.3-.4.3-.3.5-.6.8-.8.7-.8 1.1-1.8 1.3-2.8 0-.2-.1-.4-.3-.5-.2 0-.4.1-.5.3a4.915 4.915 0 01-.5 1.6 6.71 6.71 0 00-.4.7c-.1 0-.1.1-.2.1 0 .067-.033.133-.1.2-.5.5-1.4 1.3-1.2 2.1.1.5.9.3.7-.2z" fill="#fff"/><path d="M115.1 69.9c.1-.4 0-.9-.2-1.3-.2-.3-.5-.5-.8-.7-.4-.4-.6-.8-.9-1.3a29.228 29.228 0 00-1-1.5c-.4-.5-.9-.9-1.3-1.4a29.316 29.316 0 01-1-1.5c-.2-.5-.4-1-.8-1.5-.2-.4-.7-.9-.6-1.5.1-.5-.6-.7-.7-.2-.2 1.2.7 2 1.2 3s1.2 2.1 2 3a8.43 8.43 0 011.2 1.5c.3.5.6 1 1 1.5.2.3.5.5.8.8.4.3.4.7.4 1.1-.1.5.7.5.7 0z" fill="#fff"/><path d="M99.4 68.8c0-.4.4-.8.7-1.1.267-.4.6-.8 1-1.2a9.517 9.517 0 011-1.2c.4-.3.8-.5 1.1-.8.2-.4.3-.8.5-1.1.3-.4.7-.7 1-1.1.7-.6 1.2-1.3 1.6-2.1.2-.5.4-.9.7-1.2.3-.4.6-.8 1-1.1.7-.7 1.2-1.6 1.9-2.3.7-.8 1.4-1.5 2-2.3.7-.8 1.4-1.7 2-2.5a94.927 94.927 0 012-2.7c.7-.7 1.5-1.2 2.2-1.9.7-.7 1.3-1.4 2-2 .8-.7 1.7-1.2 2.6-1.7 1.8-1.1 3.5-2.4 5.2-3.6.9-.5 1.5-1.2 2.2-1.9.7-.7 1.4-1.4 2.2-2 1.7-1.1 3.5-1.9 5.2-2.9.9-.5 1.8-1 2.6-1.7.8-.5 1.6-1 2.4-1.6.8-.5 1.5-1.2 2.2-1.9.8-.6 1.7-1.2 2.6-1.7 1.9-.9 4.1-1.4 6.1-2.1 2.1-.7 4.1-1.4 6.3-2 1.9-.5 3.9-.3 5.9-.3 2.2.1 4.5 0 6.7 0 1.1 0 2.2 0 3.2.1 1.1.1 2 .3 3.1.3 2.2 0 4.5-.1 6.8 0 1.1.1 3.7 1 4-.8 0-.4-.1-.7-.2-1.1-.3-.5-.4-1-.6-1.5a9.604 9.604 0 01-.3-3.1c0-1.6.2-3.6 1.3-4.8.5-.6 1-1.1 1.2-1.9 0-.4-.7-.7-.8-.2-.1.8-.8 1.3-1.2 1.9-.5.6-.8 1.5-1 2.3-.4 1.7-.5 3.7 0 5.5.133.533.267 1.033.4 1.5.2.4.5.9.4 1.3-.1.8-1.5.4-2 .3-1-.2-2.1-.2-3.1-.2H180c-1.1 0-2.2 0-3.3-.1-1-.2-2-.267-3-.2h-6.9c-2 0-4-.3-6 0-1 .1-2 .5-3 .8a42.04 42.04 0 00-3.1.9c-1.1.4-2.1.8-3.1 1.1-1 .3-2.1.7-3.1 1-.9.4-1.8.8-2.7 1.3-.8.5-1.6 1.2-2.3 1.8-.8.7-1.5 1.3-2.4 1.9-.9.5-1.7 1.1-2.5 1.7-1.7 1.1-3.5 1.9-5.3 2.9-.8.5-1.7 1-2.5 1.7-.7.6-1.3 1.4-2 2.1-.7.7-1.6 1.1-2.4 1.7-.9.6-1.7 1.3-2.6 1.9a62.74 62.74 0 01-2.8 1.7c-.8.5-1.5 1.1-2.2 1.8-.7.7-1.3 1.4-2.1 2-.8.6-1.4 1.4-2.1 2.2-1.3 1.7-2.5 3.5-4 5.1-.7.7-1.4 1.5-2.1 2.3-.3.4-.5.8-.8 1.1-.4.4-.8.7-1.1 1.1-.6.7-.9 1.6-1.3 2.3-.5.9-1.3 1.4-1.9 2.1-.3.4-.5.7-.6 1-.2.5-.6.6-1 1-.8.6-1.4 1.5-2.1 2.3-.4.6-1.1 1.2-1 2.1.1.4.8.2.7-.2z" fill="#fff"/><path d="M189 20.6c0-.133.033-.233.1-.3a1.14 1.14 0 00-.3.2c.8-.2 1.6-.1 2.4.1.3.1.6.2 1 .3h1.3c.4 0 .8.1 1.2.2.4.2.8.333 1.2.4.4.067.833.133 1.3.2.4 0 .8.1 1.3.2 1.8.4 3.7.3 5.5.4 1.9 0 3.8.3 5.6.7 1.8.3 3.5.8 5.3 1.2 1.7.3 3.4.7 5.1 1.3.8.3 1.6.7 2.3 1.1.8.3 1.7.6 2.5.8.8.3 1.7.5 2.4 1 .6.4 1.1 1 1.8 1.4.7.4 1.4.7 2 1.2l1.8 1.8c1.3 1.2 2.5 2.4 3.6 3.8 1.1 1.3 2.3 2.7 3.5 4 .6.6 1.1 1.2 1.6 1.9.4.7.7 1.3 1.1 2 .9 1.3 2.3 2.2 3.1 3.6.5.7.7 1.5 1.1 2.2.5.8 1 1.5 1.4 2.4.466.8.9 1.6 1.3 2.4.4.8.9 1.5 1.2 2.4.3.8.5 1.7.7 2.6.1.9.4 1.7.7 2.5.4 1.8.8 3.6 1 5.4.1 1.8.1 3.7 0 5.5-.1 1.8 0 3.6-.2 5.5-.1.9-.3 1.8-.7 2.6-.3.8-.7 1.5-.9 2.4-.134.8-.267 1.633-.4 2.5a1.14 1.14 0 01.3-.2h-.3c-.5.1-.3.9.2.8.066-.067.166-.1.3-.1.1 0 .2-.1.2-.3.2-.9.3-1.8.5-2.7.2-.8.6-1.6.9-2.4.7-1.7.8-3.6.8-5.5s.1-3.8.1-5.7c0-1.867-.167-3.7-.5-5.5-.2-.867-.434-1.767-.7-2.7-.2-.8-.5-1.7-.6-2.6-.2-.9-.4-1.7-.8-2.6-.3-.8-.8-1.6-1.2-2.4-.467-.867-.9-1.7-1.3-2.5-.5-.8-1-1.6-1.4-2.4-.4-.8-.7-1.6-1.2-2.3-.5-.7-1.1-1.3-1.7-1.8-.5-.6-1-1.2-1.5-1.9-.4-.7-.7-1.4-1.2-2-.4-.7-1-1.3-1.6-1.9l-1.8-2c-1.2-1.4-2.3-2.9-3.6-4.2l-2-1.8c-.5-.6-1.1-1.2-1.8-1.7-.6-.5-1.4-.8-2-1.3-.7-.5-1.2-1-2-1.4-.8-.3-1.6-.6-2.5-.8-.8-.267-1.6-.6-2.4-1-3.3-1.6-6.9-2.1-10.3-2.9-1.9-.5-3.8-.8-5.7-1-1.9-.2-3.8-.1-5.8-.3-.9 0-1.8-.3-2.8-.4-.8-.2-1.7-.2-2.5-.5-.8-.4-1.6-.3-2.5-.4-.8 0-1.5-.3-2.3-.4-.4-.067-.8-.067-1.2 0-.1 0-.3.1-.5.2s-.2.3-.2.5c-.1.4.6.6.7.2z" fill="#fff"/><path d="M149.8 107.6c1.3.2 2.6-.8 3.7-1.3.8-.4 1.6-.9 2.5-1.3.8-.3 1.6-.5 2.3-1.1.4-.3.7-.5 1.2-.7l1.2-.6c.8-.5 1.6-1.2 2.4-1.7.8-.5 1.7-.8 2.6-1.3.8-.4 1.4-1.1 2.3-1.4 1.7-.8 3.3-1.7 4.8-2.8 1.7-1.1 3.4-2.1 5-3.2 1.6-1.2 3-2.6 4.4-3.9.8-.7 1.6-1.3 2.3-2 .6-.7 1.3-1.4 2-1.9.8-.6 1.5-1.2 2.2-2 .6-.6 1.1-1.4 1.9-1.9.4-.2.7-.4 1-.7.3-.3.7-.7 1.1-.9.3-.3.7-.5 1-.8.4-.2.8-.6 1.1-.9.7-.6 1.4-1 2.2-1.5.8-.5 1.5-1 2.2-1.6 1.4-1.2 2.9-2.3 4.3-3.4 1.5-1.2 2.9-2.4 4.4-3.6 1.6-1.1 3.2-2 4.9-2.9 1.8-.9 3.5-2 5.3-3.1.8-.5 1.6-1.1 2.3-1.8.6-.6 1-1.4 1.7-2 .7-.6 1.6-.9 2.3-1.4.8-.5 1.4-1.1 2-1.7.7-.6 1.5-1.1 2.2-1.7.667-.533 1.3-1.1 1.9-1.7 1.3-1.4 2.4-3 3.7-4.3 1.5-1.3 3.1-2.3 4.8-3.3.8-.5 1.7-1 2.4-1.6.2-.1.3-.4.1-.6-.4-.4-.8-.2-1.2.1-.4.4.2.9.5.6.133-.2.2-.267.2-.2 0-.2.033-.4.1-.6-1.6 1.2-3.3 2-5 3.1-1.5 1.1-2.9 2.4-4.1 3.8-1.2 1.4-2.2 2.8-3.6 4-.7.5-1.5 1-2.2 1.6-.7.6-1.3 1.3-2.1 1.8-.7.5-1.6.8-2.3 1.3-.6.6-1.1 1.3-1.7 1.9-.6.8-1.4 1.4-2.2 1.9-.9.5-1.7 1.1-2.6 1.6-1.7 1.1-3.5 1.9-5.3 2.9-1.5.9-3 2-4.4 3.2-1.4 1.2-2.8 2.3-4.3 3.5-1.5 1.1-2.9 2.4-4.4 3.4-.7.5-1.5.8-2.1 1.4-.4.2-.7.5-1 .8-.3.3-.8.6-1.2.9-.333.2-.667.466-1 .8-.3.3-.6.6-1 .9-.4.2-.7.3-1 .6-.4.3-.7.7-1 1-.6.733-1.267 1.4-2 2-.8.6-1.5 1.2-2.2 1.9-.6.7-1.3 1.3-2 1.9a63.811 63.811 0 00-2.2 2.1c-.8.6-1.5 1.3-2.3 1.9-.8.6-1.6 1.1-2.4 1.7-1.7 1-3.2 2.1-4.9 3.2-.733.466-1.533.9-2.4 1.3-.4.1-.8.3-1.2.5-.4.3-.7.5-1.1.8-.8.5-1.7.8-2.5 1.3-.9.4-1.6 1-2.4 1.6-.4.2-.7.5-1.1.7-.5.2-.9.4-1.4.6-.3.2-.6.5-.9.7-.4.3-.9.5-1.4.6-.9.3-1.6.8-2.5 1.2l-1.8 1c-.6.2-1.3.6-1.9.5-.4 0-.6.7-.2.8z" fill="#fff"/><path d="M229.1 51.5v-.6a.896.896 0 00.1-.4l.1-.1v-.1h.1c0-.133.033-.267.1-.4h.1c0-.1-.1 0 0-.1.066 0 .1-.033.1-.1.066 0 .133-.033.2-.1v-.1h.2c.1-.1-.1 0 0-.1h.1c.2 0 .3-.2.3-.4-.1-.2-.3-.4-.5-.3-1.1.3-1.7 1.7-1.7 2.8 0 .2.2.4.4.4s.4-.2.4-.4zm-68 1.7c0 1.7.1 3.3-.1 5-.1.8-.3 1.6-.3 2.4 0 .8.1 1.6 0 2.4-.1 1.5-.5 3-.4 4.6.1 1.5.5 3.1 1 4.6.2.6.5 1.1.5 1.7v5c0 .8-.2 1.6-.3 2.4 0 .8 0 1.6-.1 2.5 0 .8-.2 1.6-.2 2.4-.1.8-.1 1.7-.1 2.5s-.2 1.6-.3 2.5c-.1.9 0 1.8-.1 2.7 0 .9-.3 1.7-.5 2.6-.3.8-.4 1.6-.5 2.5-.1.9-.6 1.7-.7 2.5-.1.5.6.7.7.2.1-.7.5-1.4.7-2.1.2-.8.2-1.6.3-2.4.2-.7.5-1.5.6-2.2.2-.8.2-1.6.2-2.4 0-.8.2-1.7.3-2.5 0-.8.1-1.6.1-2.4 0-.9 0-1.7.1-2.5s.2-1.6.3-2.5c0-.8 0-1.7.1-2.5.2-.8.1-1.5.1-2.3v-2.5c0-.8.1-1.6-.1-2.3-.1-.6-.4-1.2-.6-1.8l-.6-2.4c-.133-.8-.167-1.6-.1-2.4 0-.8.1-1.6.2-2.4.2-.8.2-1.6.2-2.5a4.9 4.9 0 010-1.4c0-.4.1-.9.2-1.3.2-1.9.1-3.8.1-5.7 0-.5-.7-.5-.7 0zm-4.9 82.2c0 2.8 0 5.6-.2 8.3-.2 1.4-.2 2.8-.2 4.2.067.333.067.667 0 1 0 .3-.1.6-.2.9-.2.6-.2 1.2-.2 1.7 0 1.3.1 2.6.1 3.9-.1 1.4-.1 2.8-.3 4.1-.2 1.4-.6 2.6-.9 3.9-.3 1.3-.4 2.6-.6 3.9-.2 1.4-.6 2.6-1 3.9-.5 1.2-.8 2.5-1.2 3.7-.2.7-.4 1.3-.5 1.9-.1.7-.1 1.3-.1 1.9 0 .7.1 1.3 0 1.9 0 .6-.3 1.1-.3 1.7-.1.6 0 1.2 0 1.8v6.3c0 2.8.1 5.6-.3 8.3-.2 1.3-.6 2.7-1 3.9-.3 1.3-.9 2.5-1.3 3.8-.5 1.2-.7 2.5-1 3.8-.3 1.3-.3 2.6-.3 3.9v2.1h.8v-2.4c0-.5-.8-.5-.8 0v2.4c0 .5.8.5.8 0V212c0-1.3.4-2.6.7-3.9.3-1.3.9-2.5 1.3-3.7.5-1.2.9-2.5 1.2-3.8.6-2.7.6-5.4.6-8.1 0-2.8.1-5.6 0-8.4v-1.8c.1-.6.3-1.1.4-1.7.1-1.3-.2-2.6.1-3.9.2-1.3.8-2.5 1.1-3.8.3-1.3.9-2.5 1.2-3.7.3-1.3.5-2.6.6-4 .134-.6.267-1.233.4-1.9.1-.6.4-1.3.5-1.9.7-2.6.7-5.4.6-8 0-1.2-.1-2.5.2-3.7.4-1.3.1-2.7.2-4 0-1.3.2-2.7.3-4.1.1-1.3 0-2.7 0-4.1v-2.1c0-.5-.7-.5-.7 0z" fill="#fff"/><path d="M149.5 196.1c.2 1.4-.4 2.8-.9 4.2-.5 1.4-.7 2.9-1.2 4.3.267.067.534.1.8.1-.1-.5-.1-1 .2-1.4.3-.4-.2-.9-.5-.5-.4.5-.6 1.2-.5 1.9 0 .4.6.5.7.1.3-.7.5-1.5.6-2.3.2-.733.434-1.467.7-2.2.5-1.3 1-2.8.9-4.2-.1-.5-.8-.5-.8 0zm15.8 18.8c0-.5.1-.9.3-1.3a10.6 10.6 0 00.3-1.4c.1-1 .1-2 .3-2.9.1-1 .3-2 .5-2.9.3-.9.8-1.8 1.1-2.7.3-.9.4-1.9.8-2.7.4-.7 1-1.3 1.5-2 .5-.8 1.1-1.5 1.7-2.3.6-.7 1.1-1.4 1.7-2.2 1.1-1.3 2.2-2.7 3.1-4.3.5-.8.9-1.7 1.4-2.5.467-.867.967-1.7 1.5-2.5 1.1-1.6 2.2-3.3 3.1-5l1.4-2.6c.5-.8 1.1-1.7 1.6-2.5.6-.9 1-1.8 1.4-2.8.4-.9.8-1.7 1.6-2.4.6-.6 1.4-1.1 1.9-1.7.5-.5 1.1-1.5 1.8-1.4.5.1.7-.6.2-.7-.7-.1-1.3.3-1.8.8-.6.5-1 1.1-1.6 1.6-.6.5-1.3 1-1.8 1.7s-.9 1.6-1.3 2.5c-.8 1.8-2 3.4-3 5.1-1 1.8-1.9 3.6-3 5.3-1.1 1.7-2.2 3.3-3.1 5.1-.5.8-.9 1.7-1.5 2.6-.467.733-1 1.467-1.6 2.2l-1.8 2.2c-.6.8-1.2 1.6-1.9 2.3-.5.7-.9 1.4-1.5 2.1-.2.4-.5.7-.7 1.1-.2.4-.3.9-.4 1.3-.2.6-.3 1.1-.5 1.7l-.6 1.5c-.4 1-.6 2.1-.8 3.2-.3 1.1-.4 2.1-.4 3.2-.067.6-.167 1.167-.3 1.7-.2.5-.4 1-.4 1.6 0 .5.7.5.8 0z" fill="#fff"/><path d="M192.9 166.5c.8-.2 1.5-.7 2.3-1 .9-.3 1.6-.1 2.3.4.7.5 1.3 1.1 2 1.6.7.6 1.5.9 2.2 1.5 1.5 1.1 2.5 2.7 3.8 4.1.3.3.6.6.8.9.266.334.466.667.6 1 .2.3.3.6.5.9.3.4.6.6.7 1.1 0 .4 0 .7.2 1 .2.4.5.8.7 1.3l.6 1.2c.2.4.4.834.6 1.3.3.7.6 1.4 1 2.1.5.7 1.1 1.4 1.7 2.2.5.7.9 1.6 1.3 2.4.2.4.5.7.7 1.1.3.4.5.9.7 1.3.5.8.9 1.5 1.2 2.3.4.8.6 1.6.9 2.4.266.8.566 1.6.9 2.4.133.334.3.667.5 1 .3.4.6.8.8 1.2.4.8.7 1.6 1.2 2.3.6.8 1.1 1.5 1.7 2.2.6.6 1.2 1.2 1.9 1.8.7.6 1.5 1.1 2.2 1.6 1.6.9 3.4 1.6 5.1 2.3.866.4 1.733.734 2.6 1 .9.3 1.8.5 2.7.7 1.9.5 3.8 1 5.7.8.8-.1 1.5-.5 2.2-1 .8-.4 1.6-.8 2.5-1 .8-.3 1.7-.4 2.5-.7.8-.4 1.6-.9 2.4-1.3 1.8-.7 3.4-1.8 4.8-3 .7-.5 1.3-1.2 2-1.8.7-.7 1.4-1.3 2.2-2 .733-.666 1.5-1.333 2.3-2 .7-.6 1.4-1.3 2.3-1.8.6-.4 1.3-.7 2-.9.5-.1 1-.2 1.6-.4.4-.1.9-.3 1-.8.2-.5-.6-.7-.7-.2-.1.2-1 .4-1.2.5-.5.1-1 .2-1.5.4-.8.3-1.5.6-2.2 1.1-.8.6-1.5 1.3-2.3 1.9-1.4 1.3-3 2.5-4.3 3.9-.7.7-1.3 1.3-2.1 1.9-.734.6-1.5 1.134-2.3 1.6-.8.5-1.7.9-2.5 1.2-.8.4-1.5.9-2.4 1.2-.9.3-1.7.4-2.6.7-.8.267-1.567.634-2.3 1.1-.4.3-.7.5-1.2.6-.4.1-.9.1-1.3.1-1 0-1.9-.2-2.9-.4-1.8-.4-3.6-.9-5.4-1.5-1.7-.7-3.5-1.4-5.2-2.3-1.6-.8-3.1-1.9-4.4-3.1-.6-.6-1.2-1.4-1.7-2.1-.6-.7-1-1.4-1.4-2.3-.4-.8-.9-1.4-1.3-2.2-.4-.7-.7-1.5-1-2.3-.5-1.6-1-3.2-1.8-4.7-.5-.8-.9-1.6-1.4-2.4-.5-.7-.9-1.6-1.4-2.4-.4-.8-1-1.5-1.5-2.2-.5-.6-.9-1.2-1.2-1.9-.4-.9-.8-1.7-1.2-2.5-.2-.4-.4-.9-.6-1.3-.2-.3-.5-.7-.6-1.2-.1-.3 0-.7-.2-1-.2-.4-.5-.6-.7-1-.4-.6-.6-1.3-1.1-1.9-.5-.7-1.2-1.3-1.7-2-.6-.7-1.2-1.4-1.8-2-.7-.7-1.3-1.2-2.1-1.7-.4-.2-.8-.4-1.2-.7-.3-.3-.6-.6-1-.9-.6-.5-1.2-1.1-1.9-1.4-.7-.3-1.5-.3-2.2 0-.8.3-1.5.8-2.3.9-.5.1-.3.9.2.8z" fill="#fff"/><path d="M242.2 211.4c-.5 0-1-.1-1.4-.3a9.56 9.56 0 00-.2.7c.6 0 1.3-.1 1.9.1.6.1 1.2.2 1.8.2.5.1.5-.7 0-.7-.6 0-1.1-.2-1.7-.3-.7-.1-1.3 0-2-.1-.4 0-.5.5-.2.7.533.333 1.133.467 1.8.4.2 0 .4-.1.4-.3 0-.2-.2-.4-.4-.4zm-85-69.3c1.4-.2 2.7-.5 4-1 .6-.2 1.2-.5 1.9-.6.334-.134.667-.2 1-.2.4 0 .7.1 1.1.1.6-.1 1.2-.3 1.8-.4.7-.1 1.5-.1 2.2-.1.7 0 1.4.1 2.1 0 .6-.1 1.3-.2 1.9-.4.7-.2 1.3-.3 1.9-.4.7-.2 1.4-.1 2.1-.1h8.9c.7 0 1.4-.1 2.1 0 .7.1 1.4.3 2.1.3 1.4.1 2.9 0 4.4 0H217c1.3 0 2.6.1 3.9.3 1.4.2 2.7.7 4 1 1.4.3 2.7.6 4.1.9 1.3.4 2.6.6 4 .6h2.2c.334 0 .7.033 1.1.1.3 0 .6.1 1 .2.3.1.5 0 .8 0 .2.1.3.2.4.4.1.3.2.7.4 1 .2.3.5.4.9.4.5 0 .5-.8 0-.8-.3.1-.4-.3-.5-.6-.1-.3-.2-.7-.5-.9-.2-.134-.4-.2-.6-.2-.4 0-.7 0-1-.1a20.241 20.241 0 00-2-.3c-1.5 0-2.9.2-4.3-.1-1.4-.2-2.7-.6-4-.9-1.4-.3-2.8-.6-4.2-1a13.94 13.94 0 00-3.7-.7c-1.4-.1-2.8-.1-4.3 0h-4.4c-6 0-11.9-.1-17.9 0-.7 0-1.5 0-2.2-.1-.7 0-1.3-.2-2-.2-1.4-.2-2.9-.1-4.4-.1h-4.3c-1.5 0-2.9-.1-4.3.1-1.3.2-2.6.7-3.9.8-1.4.2-2.8-.1-4.2.1-.7.1-1.3.4-1.9.4-.7 0-1.4-.1-2.1.1-1.3.3-2.5.9-3.8 1.3-.666.133-1.366.233-2.1.3-.4.1-.4.8 0 .8zm27.2-56c.1.5.5 1 .7 1.6.2.6.3 1.3.4 2 .2.6.5 1.3.7 2 .134.6.234 1.267.3 2v4a7.33 7.33 0 00.1 2.1c.1.7.2 1.3.2 2 .1.7.1 1.3.1 2 .1.7.3 1.3.3 2s0 1.3.3 2c.2.6.4 1.1.4 1.7-.1.7.1 1.2.4 1.7.2.6.3 1.2.4 1.9 0 1.2-.1 2.4-.1 3.7 0 1.5.1 3.1-.3 4.6-.4 1.6-.4 3.1-.4 4.6 0 .5.7.5.7 0 0-1.4 0-2.8.4-4.1.4-1.4.4-2.7.3-4.1 0-1.3.1-2.6.1-3.9.067-.6.034-1.2-.1-1.8-.1-.6-.3-1.1-.6-1.7-.2-.6 0-1.2-.1-1.8-.2-.6-.5-1.1-.6-1.7-.2-.8 0-1.5-.1-2.2-.2-.7-.3-1.3-.3-2s0-1.3-.1-2-.2-1.3-.3-2c0-1.4.1-2.8 0-4.2 0-.8-.066-1.567-.2-2.3-.1-.7-.4-1.4-.6-2.2-.2-.7-.3-1.5-.5-2.2a3.127 3.127 0 00-.4-1c-.1-.3-.3-.6-.3-.9-.1-.5-.9-.3-.8.2z" fill="#fff"/><path d="M250.6 86.4c.1.5.4.9.4 1.4v1.5c-.066 1-.066 2.033 0 3.1V94c-.1.5-.3 1-.5 1.5s-.3 1-.4 1.5c-.2.6-.5 1-.7 1.6-.2.4-.2.8-.2 1.2 0 .6-.1 1.2-.3 1.8-.2 1.1-.5 2.1-.7 3.2-.2 1.067-.333 2.1-.4 3.1 0 1.1 0 2.2-.1 3.3-.1 1-.3 2.1-.5 3.2s-.4 2.1-.6 3.2c-.5 2-1.3 4-2 6-.4 1-.766 2.033-1.1 3.1-.3 1-.5 2-.8 3-.2.4-.5.8-.6 1.3-.2.4-.3.9-.3 1.4 0 1.1-.4 2.1-.6 3.2-.6 2.1-1.1 4.3-1.4 6.5-.2 1-.3 2.1-.4 3.1-.1 1.2-.4 2.3-.6 3.4-.9 4.3-.8 8.8-.8 13.2 0 1 .1 2 .2 3 .2 1.1.2 2.2.2 3.3-.1 1.1.3 2.1.3 3.2 0 .4-.1.9 0 1.3 0 .5.3.8.4 1.3.2.9.1 1.9.3 2.9.3 1 .7 2 .8 3 .1 1 .2 2 .6 2.9.3.6.9 1.1 1.4 1.5.7.5 1.3.9 2 1.3.7.6 1.5 1.1 2.3 1.4 1.6.7 3.4 1 5.1.8 1.8-.2 3.5-.9 4.8-2.1.6-.7 1.3-1.3 2-1.9a15.08 15.08 0 012.5-1.7c1-.5 2-.3 3-.6.1 0 .2-.1.2-.2.067-.133.1-.233.1-.3.1-.5-.6-.7-.7-.2-.066.067-.1.167-.1.3a.66.66 0 01.3-.3c-1 .2-1.9.1-2.8.5-.9.4-1.8 1-2.6 1.6-1.4 1-2.4 2.6-4 3.3-1.8.9-3.7 1.1-5.7.7-.8-.133-1.566-.4-2.3-.8-.8-.4-1.5-1-2.2-1.4-.7-.5-1.3-.8-1.9-1.4-.7-.6-.9-1.4-1.1-2.3-.1-1-.2-2-.5-2.9-.3-1-.6-1.9-.6-2.9-.1-.5-.1-.9-.2-1.3-.1-.6-.4-1-.4-1.5 0-.4.1-.9.1-1.3l-.3-1.5c-.2-1.1 0-2.2-.1-3.3 0-1-.3-1.9-.3-2.9-.1-2.3 0-4.5 0-6.8 0-2.1.1-4.3.5-6.4.2-1.1.4-2.1.6-3.2.2-1.1.3-2.1.4-3.2.2-2.2.7-4.3 1.2-6.4l.8-3.2c.1-.5.2-.9.3-1.4 0-.6 0-1.1.3-1.6.2-.4.4-.8.5-1.2.2-.5.3-1 .4-1.5.3-1 .6-2 1-3.1.6-2 1.5-3.9 2.1-5.9.6-2 .9-4.1 1.2-6.1.2-1 .4-2 .5-3v-3.2a17.82 17.82 0 01.5-3.2c.3-1.1.6-2.2.8-3.2.1-.5 0-1 .1-1.4 0-.6.4-1 .6-1.4.2-.5.3-1 .4-1.5.2-.5.4-1 .6-1.6.2-.9.1-1.9.1-2.8v-3.2c.1-.4.1-.8 0-1.3 0-.4-.3-.8-.4-1.3 0-.4-.8-.2-.7.2zM143.9 28.6v-.3c0-.5-.7-.5-.8 0-.1 1 .4 1.8.8 2.6.6 1 .8 2.1 1.1 3.1.3 1.5.5 3 .9 4.5.1.7.3 1.4.7 1.9.5.6 1 .8 1.7.7 2.1-.2 4-1.2 5.8-2 1-.5 2.1-1 3.1-1.5.467-.2.967-.434 1.5-.7.5-.2 1.1-.4 1.6-.6.5-.2 1-.4 1.4-.8.4-.3.7-.8 1.3-.8.8 0 1.5.7 2 1.3.6.7 1.1 1.4 1.7 2 .7.8 1.5 1.5 2.2 2.3 1.4 1.7 2 3.9 3.3 5.7.4.5.9 1.1 1.5 1.3.8.3 1.7-.1 2.4-.4 1-.4 1.8-1 2.6-1.6.9-.7 1.8-1.2 2.8-1.7 1-.6 2.033-1.167 3.1-1.7 1.1-.6 2.1-1.1 3.2-1.6.5-.2.9-.4 1.3-.8.3-.2.5-.7.9-.8.7-.2 1.5.1 2 .4 1.5.8 2.7 1.9 4.1 2.9 1.7 1.1 3.6 2 5.2 3.3 1.4 1.1 2.5 2.8 4.2 3.3 1.9.7 3.9-.6 5.4-1.5 1.9-1.2 3.7-2.5 5.5-3.7 1.3-.9 2.7-2.1 4.2-2.6.7-.3 1.3-.3 1.9 0 .7.4 1.4.8 2.1 1.3.267.2.567.4.9.6.4.3.7.7 1.1 1.1.8.7 1.8.9 2.7 1.4.8.5 1.4 1.2 2.2 1.6 0-.2-.033-.433-.1-.7-.3.2-.4.5-.5.9 0 .4.7.4.8 0 0-.133.033-.2.1-.2.3-.2.2-.6-.1-.7-.8-.4-1.4-1.2-2.3-1.6-.4-.3-.9-.5-1.4-.7-.5-.2-.9-.6-1.3-.9-1.1-1.1-2.5-2.1-3.9-2.8-.6-.2-1.2-.3-1.9-.2-.8.2-1.5.6-2.2 1-.7.4-1.3.9-2 1.4-.8.5-1.6 1-2.4 1.6-1.7 1.2-3.5 2.5-5.5 3.5-.8.4-1.8.8-2.7.6-.9-.2-1.6-.7-2.2-1.3-.7-.6-1.3-1.4-2.1-2-.8-.6-1.6-1.1-2.5-1.6-.9-.6-1.8-1.1-2.6-1.6-.7-.5-1.3-1-2-1.5-1.1-.9-2.5-2-4.1-2.1-.267 0-.567.033-.9.1-.4.2-.6.5-.9.8-.8.8-2 1.2-3.1 1.6-2 1-4.1 2.1-6 3.3-.9.6-1.7 1.2-2.6 1.8-.8.5-1.7 1.1-2.7 1.1-.7.1-1.1-.5-1.5-1-.7-.9-1.2-1.9-1.7-2.9-.4-1-.9-1.8-1.6-2.7-.6-.7-1.3-1.4-2-2.2-.7-.7-1.3-1.4-1.8-2.1-.5-.6-1.1-1.2-1.8-1.5-.4-.2-.767-.267-1.1-.2-.5 0-.8.2-1.2.5-.5.4-.9.7-1.4 1-.5.2-1.1.4-1.6.6-1.1.4-2.1 1-3.1 1.5l-3 1.4c-1.1.4-2.1.9-3.2 1.2-.6.1-1.6.4-2 0-.5-.5-.6-1.2-.8-1.8a12.76 12.76 0 01-.4-2.2c-.3-1.8-.6-3.7-1.4-5.3-.4-.8-1-1.6-.9-2.6h-.8v.3c.1.5.8.5.8 0z" fill="#fff"/><path d="M144.7 28.1c0 2.8.8 5.4 1 8.2.1 1.1 0 2.2.2 3.3.2.8.4 1.9 1.5 2 .9.1 1.9-.6 2.7-1 1.1-.5 2.2-1 3.4-1.2 2.6-.6 5.2-1.5 7.5-2.9l1.6-1c.4-.2.9-.6 1.4-.5.5 0 .8.6 1 1.1.1.5.2 1.1.4 1.6.4 1.1 1.4 1.6 2.2 2.5.4.4.7 1.1 1 1.6.334.6.634 1.2.9 1.8.5 1 .9 2 1.4 2.9.5.8 1.1 1.7 2.2 1.7 1 0 1.9-.6 2.7-1.1.5-.3 1-.5 1.6-.8.6-.333 1.167-.7 1.7-1.1.6-.3 1.1-.7 1.6-1.1.4-.3.7-.7 1.2-.9.7-.2 1.4-.3 2.1-.5.667-.2 1.3-.4 1.9-.6 1.1-.3 2-.7 3.1-1.1.8-.3 1.6-.5 2.4-1 .2-.2.5-.5.6-.8.1-.5-.6-.6-.8-.2 0 .3-.4.4-.6.5l-1.2.6c-.9.3-1.7.7-2.6 1-.6.2-1.2.367-1.8.5-.6.2-1.3.4-1.9.6-.6.1-1.2.2-1.8.4-.5.3-.8.6-1.2 1-.9.8-2.1 1.5-3.2 2.1-.5.3-1 .5-1.5.8-.4.2-.9.5-1.3.7-.4.2-.9.4-1.3.2-.4-.1-.7-.6-1-.9-.5-.9-1-1.8-1.4-2.8a51.018 51.018 0 00-1.7-3.3 6.353 6.353 0 00-1.1-1.2c-.4-.4-.8-.7-1.1-1.1-.7-.9-.6-2.1-1.2-3.1-.6-.8-1.5-1-2.4-.5-1.1.5-2 1.2-3.1 1.8-1.1.7-2.3 1.1-3.6 1.5-1.2.4-2.5.7-3.8 1-1.1.4-2.1.9-3.1 1.4-.6.3-1.9 1.1-2.3.3-.5-.8-.5-1.9-.5-2.7 0-1.3-.1-2.5-.3-3.8-.2-1.3-.5-2.6-.6-3.9a20.29 20.29 0 01-.1-2c0-.5-.8-.5-.8 0z" fill="#fff"/><path d="M192.1 39.3h-.2c.067.067.1.067.1 0l-.3.3c.6-.2 1.1.6 1.4 1 .4.6 1.1 1 1.7 1.3.8.5 1.5.9 2.3 1.4l2.1 1.5c.8.5 1.5.9 2.3 1.3.667.4 1.267.9 1.8 1.5.5.5 1 1.1 1.4 1.6.4.5.9 1.1 1.5 1.1.5 0 1-.4 1.4-.7.4-.4.9-.8 1.3-1.1.7-.5 1.4-.9 2.1-1.3l2.6-1.4c.9-.5 1.7-.9 2.6-1.3.8-.4 1.6-.9 2.3-1.4.8-.5 1.5-1 2.3-1.5.334-.2.7-.4 1.1-.6.3-.2.6-.5 1-.4.4 0 .6.2.9.5.267.267.5.534.7.8.6.6 1.2 1 2 1.4 1.6 1 3.2 2.1 4.5 3.4.4.4.9-.2.6-.5-1.3-1.2-2.6-2.2-4.1-3.2-.7-.4-1.5-.7-2-1.2s-.9-1-1.4-1.5c-.5-.4-1.1-.6-1.8-.4-.4.1-.7.4-1 .5-.4.267-.833.534-1.3.8-1.5.9-2.9 2-4.6 2.8-1.8.934-3.566 1.9-5.3 2.9-.6.3-1.3.7-1.9 1.2-.4.4-.9.8-1.4 1.2-.1 0-.4.2-.5.3-.3 0-.5-.3-.7-.5-.5-.5-.9-1.1-1.4-1.7a12.73 12.73 0 00-1.7-1.6c-.8-.5-1.6-.8-2.3-1.3-.9-.5-1.6-1.1-2.5-1.7-.8-.5-1.6-1-2.5-1.5-.5-.3-.9-.5-1.3-.9-.2-.2-.4-.4-.6-.7-.4-.5-1-1.1-1.8-.9-.1.1-.2.2-.2.3-.1.6.2 1 .8.9.5 0 .5-.8 0-.7z" fill="#fff"/><path d="M198.4 5.6s-8 0-8.7 2.1c-.7 2.2-6.5 9.4-2.9 10.8 3.6 1.4 13.8 3.6 15.9 2.9 2.2-.7 7.3-7.2 6.6-9.4-.8-2.1-10.9-6.4-10.9-6.4zm-139 90.3l-14.5 6.5 5 1.4-5 3.6 5.8.7s-8.7 5-5.8 5.1c2.9 0 7.9.7 7.9.7l-2.9 3.6s20.3 2.1 26.1 1.4c5.8-.7-16.6-23-16.6-23zm39.1-29.4l10.1 10.1 3.6-7.9-3.6-6.5-10.1 4.3zm84.7 20.2l4.3 33s-11.6 9.3-28.2 12.1c-16.7 2.9-21.8-2.8-21.8-2.8l-2.1-2.9v-4.3l2.1-4.3-4.3-1.4s13-7.9 17.4-10.1c4.3-2.1 32.6-19.3 32.6-19.3zM8.6 137.5s-2.1-15 2.2-17.2c4.4-2.1 3.6 6.5 2.9 9.3-.7 2.9-.7 7.2-5.1 7.9z" fill="#1D1C20"/><path d="M154.8 133.4c-.3 13-1.6 26.1-3.5 39-.934 6.333-2 12.667-3.2 19-.6 2.9-1.2 5.7-1.6 8.7-.3 2.6-.5 5.3-.8 7.9-.3 3-.8 6-1.8 8.9-1.1 3-2.7 5.8-4.9 8.1-.2.2-.2.5 0 .6 1.5.9 3.2.8 4.8.1.7-.3 1.3-.8 2-1.3a13.38 13.38 0 012.4-1.2c1.5-.7 3.1-1.1 4.6-1.8.733-.267 1.433-.6 2.1-1 .6-.3 1.2-.9 1.8-1.3 2.1-1.4 5.1-1.6 6.8-3.5.9-1 1.1-2.2 1.4-3.5a33.954 33.954 0 011.1-4.5c1.9-6.7 5-13 8.3-19.1 3.3-6 6.8-11.8 10.3-17.6.8-1.3 1.5-2.7 2.5-3.8 1-1 2.2-1.8 3.5-2.2 2.6-.8 5.5-.5 7.6 1.1 1.4 1 2.5 2.4 3.4 3.8a66.607 66.607 0 013 4.5c1.8 3.1 3.5 6.2 5.2 9.4 1.8 3.5 3.9 6.9 6.1 10.3 1.7 2.6 3.5 5.3 5.7 7.7 2 2.3 4.4 4.3 7.2 5.7 3 1.5 6.5 2 9.9 1.9 3.9-.1 7.7-1 11.4-2.4 1.5-.6 3.1-1.2 4.5-2 1.2-.7 2.3-1.5 3.4-2.2 2.4-1.9 4.7-3.9 7.3-5.5 1.1-.7 2.3-1.4 3.5-1.8.5-.2 1.1-.3 1.7-.2.6.2 1.2.6 1.8.9 1.1.7 2.2 1.6 3.6 1.8.2 0 .3 0 .4-.2 1.3-2.3-.2-4.6-1.5-6.6-.8-1.1-1.5-2.2-2.1-3.4-.5-1.1-1-2.1-1.5-3.2-.9-2-2-4.1-3.8-5.5-.7-.5-1.9-1.2-2.9-1.2-.4 0-.8.2-1.2.4l-1.6.8c-2.3 1.2-4.4 2.6-6.7 3.8-2.3 1.3-4.7 2.5-7.3 2.8-1.6.2-3.2-.2-4.5-1.2-1.3-.9-2.2-2.3-2.8-3.6-1.7-3.5-2.4-7.4-2.8-11.2-.3-3.5-.4-7.2-.1-10.8.2-2 .5-4 .8-5.9.5-3.5 1-7 1.6-10.4 1.2-6.8 3.3-13.5 5-20.1 3.2-12.1 5.9-24.3 6.6-36.8l.2-5c0-.5-.8-.5-.8 0a125.19 125.19 0 01-1.7 19.3c-1 6-2.4 12-3.9 18-.867 3.2-1.7 6.433-2.5 9.7-.9 3.4-2 6.7-2.7 10.1-.8 3.4-1.3 6.7-1.8 10.1-.5 3-.8 6-1.3 9-.5 3.2-.5 6.5-.4 9.7.2 3.9.7 7.8 1.9 11.5.9 2.9 2.3 6.2 5.2 7.6 3.8 2 8.5-.4 11.9-2.2 2.2-1.2 4.4-2.6 6.7-3.8.466-.267.933-.5 1.4-.7.2-.1.5-.3.7-.3.3-.1.7.1 1 .2 1.1.3 1.9 1 2.7 1.9 1.5 1.8 2.4 4.1 3.4 6.2.5 1.1 1.1 2.3 1.8 3.3.7 1.2 1.5 2.2 2.2 3.4.6 1.2.9 2.5.2 3.8l.4-.2c-1.5-.2-2.7-1.3-3.9-2-1.1-.6-2-.9-3.1-.6-2.6.6-4.9 2.3-7 3.9-2.3 1.8-4.6 3.7-7.1 5.3-1.4.9-2.9 1.5-4.4 2.1a75.515 75.515 0 01-5.5 1.8c-3.9.9-7.9 1.2-11.8.4-3.2-.6-6.1-2.2-8.5-4.3-2.4-2.1-4.4-4.6-6.3-7.2a143.275 143.275 0 01-6-9.6c-3.6-6.2-6.6-12.9-11-18.6-.9-1.2-1.8-2.4-3.1-3.2-1.1-.7-2.3-1.2-3.6-1.4-2.5-.4-5.1.3-7.1 1.8-1.1.8-1.9 1.8-2.5 3-.867 1.333-1.7 2.667-2.5 4a986.281 986.281 0 00-5.2 8.7c-3.5 6-6.9 12.2-9.6 18.7-1.3 3-2.4 6.1-3.2 9.3-.4 1.4-.5 2.9-.9 4.3-.4 1.3-1.4 2.1-2.5 2.6-1.3.6-2.6 1-3.8 1.6-1.4.7-2.4 1.7-3.8 2.4-2.9 1.5-6.2 2-8.9 4-.8.5-1.5 1-2.5 1.2-1 .3-2 .1-2.9-.4.066.2.1.4.1.6 3.9-4.1 5.7-9.2 6.6-14.6.4-2.7.6-5.4.9-8.1.3-2.8.7-5.7 1.3-8.5 2.5-12.9 4.5-26 5.8-39.1.8-7.3 1.3-14.6 1.4-21.9 0-.5-.7-.5-.7 0zm-5.5-53c2.1-1.8 4.3-3.5 6.5-5.1 1.2-.8 2.4-1.567 3.6-2.3.3-.1.6-.4.8-.4h.4c.1.1.1.1.1.2.1.8.3 1.5.3 2.3.3 2.9-.1 5.8-.2 8.7-.1 1.4-.4 2.7-.6 4.1l-.8 4.2c-.6 3-1 6-.9 9.1 0 .5.8.5.7 0-.1-2.9.4-5.8.9-8.7.267-1.4.534-2.834.8-4.3.3-1.4.5-2.8.6-4.3.2-3 .6-6.1.3-9.2-.1-.7-.2-1.5-.4-2.2-.1-.5-.6-.6-1.1-.7-.3 0-.6.2-.9.4-.333.133-.633.3-.9.5-.666.4-1.3.8-1.9 1.2-2.7 1.8-5.3 3.9-7.8 5.9-.4.3.2.9.5.6zM62.1 94.7c-1.9 1.2-3.9 2-5.9 2.8-1.9.7-3.8 1.3-5.7 1.9-2.1.8-4.2 1.7-6.1 2.8-.4.2-1 .4-1.2.8-.2.3-.2.6-.1.9.2.9 1 1.5 1.8 1.8 2.2 1 4.7.8 6.9 0 .2-.1.3-.4.2-.6-.2-.3-.4-.6-.8-.6-.3 0-.5.2-.6.5-.1.3 0 .5.3.7.3.2.7.1 1-.1.2-.1.2-.4.1-.5-1.7-1.6-4.8-1.5-6.5.1-.7.7-1.3 1.9-.8 2.8.4.9 1.5 1.2 2.3 1.4 1.1.2 2.2.2 3.3.1a4.904 4.904 0 01-.3-.5l-.2.2s.2 0 .2.1l-.1.2h.3l-.2-.6c-.7.7-1.6 1.3-2.4 2-.8.7-1.9 1.7-2 2.8-.1 1.2 1.5 1.6 2.5 1.5.7-.1 1.5-.2 2.3-.3.5 0 1.4 0 1.5.6.1.7-.8 1.3-1.2 1.7-.5.6-1.2 1.1-1.6 1.8 0 .2 0 .5.3.5 3.7.9 7.5 1.4 11.3 1.5 3.7 0 7.4-.4 11-1.1 2.133-.4 4.266-.933 6.4-1.6.5-.1.3-.8-.2-.7-3.6 1.1-7.3 1.9-11.1 2.3-3.5.4-7.1.4-10.7 0a42.74 42.74 0 01-6.5-1.1c.066.2.133.367.2.5.3-.5.9-1 1.3-1.4.6-.5 1.2-1 1.4-1.7.3-.6.1-1.3-.4-1.7-.5-.4-1.3-.4-1.9-.3-.8.1-1.6.2-2.3.3-.5 0-1.1-.1-1.4-.5-.2-.2-.1-.6.1-.9.3-.5.7-.9 1.1-1.3.9-.9 2-1.5 2.9-2.4.2-.2.1-.5-.2-.6-.3-.1-.7-.1-.9.1-.2.1-.3.4-.2.6.1.3.3.4.6.4s.6-.3.7-.6c.2-.2 0-.5-.3-.5-.8 0-1.6 0-2.4-.1-.8 0-1.7-.1-2.3-.7-.6-.5-.3-1.4.2-2 .6-.8 1.6-1.2 2.5-1.3 1.1-.1 2.3.1 3.1.9.067-.2.1-.4.1-.6l-.3.1c.1-.1.1 0 .1.1.1 0-.1.1-.1.1l.2.2c.067-.2.133-.367.2-.5-1.9.6-3.9.9-5.9.2-.7-.2-1.6-.6-1.9-1.4-.1-.4.2-.5.5-.7a30.63 30.63 0 011.5-.8c3.4-1.8 7.1-2.8 10.7-4.1 2.1-.8 4.1-1.7 5.9-2.8.4-.3.1-.9-.3-.7zm103.7-75.3c-5.9.8-11.7 2.4-17.3 4.5a95.326 95.326 0 00-8.4 3.8c-2.6 1.4-5.2 3-7.7 4.7-4.4 3-8.5 6.4-12.3 10.2-3.7 3.5-7.2 7.4-10.5 11.3-3.5 4-7 8.2-10.6 12.2l-1.4 1.6c-.3.4.2.9.5.6 3.7-4.1 7.1-8.2 10.7-12.4 3.3-3.8 6.7-7.7 10.3-11.3 3.8-3.8 7.7-7.3 12-10.4 2.3-1.7 4.7-3.3 7.3-4.7a73.878 73.878 0 018.3-4.1c5.5-2.3 11.3-3.9 17.1-4.9l2.2-.4c.5 0 .3-.8-.2-.7z" fill="#fff"/><path d="M166.7 20c8.5.1 17.1.4 25.6 1.1 4.067.333 8.1.733 12.1 1.2 2.267.267 4.5.566 6.7.9 2.2.3 4.3.5 6.4 1 7.3 1.7 13.4 6.3 18.4 11.6 2.7 2.7 5.1 5.5 7.4 8.5 1.1 1.4 2.3 2.8 3.2 4.3 1 1.6 1.867 3.233 2.6 4.9 2.8 7 3.7 14.8 3.4 22.3 0 .933-.033 1.833-.1 2.7 0 .5.7.5.8 0 .5-7.6-.1-15.4-2.5-22.7-1.2-3.5-2.8-6.8-5.1-9.7-2.3-3-4.6-6-7.2-8.8-4.9-5.4-10.7-10.5-17.8-13-1.8-.6-3.6-1-5.5-1.3a237.08 237.08 0 00-6.8-.9c-4.266-.6-8.5-1.1-12.7-1.5-8.5-.7-17-1.1-25.4-1.3h-3.5c-.5 0-.5.7 0 .7z" fill="#fff"/><path d="M155.8 102.7c-4.7 2.5-9.3 5.2-14.1 7.5-1.6.8-3.3 1.4-4.8 2.3-1 .5-2.6 1.5-2.4 2.9.2 1.9 2.9.9 4 1.5 0-.2-.034-.367-.1-.5 0 0-.2.3-.2.4-.134.067-.1.133.1.2.066.067.1.067.1 0 0 0 0-.1.1-.1h.2a1.26 1.26 0 00-.3-.5c-.9 1.9-3.3 2.6-4.1 4.7-.4 1-.2 2.5.5 3.3.9 1.3 2.9.6 4 0 .4-.2.1-.9-.4-.7-.2.133-.434.233-.7.3.133.267.233.5.3.7.266-.067.5-.167.7-.3l-.4-.6c-.6.8-1.9.9-2.6 1.7-.7.7-.7 1.7-.1 2.6.6.9 1.6 1.4 2.5 1.8 1 .4 0 2.3-.4 2.9-.1.1 0 .4.1.5 4.1 1.8 8.6 2.3 13 1.9 4.6-.5 8.9-1.9 13.3-3.5 4.3-1.6 8.8-3.1 13.2-4.5a127.096 127.096 0 016.8-1.8c1.133-.333 2.3-.633 3.5-.9a13.667 13.667 0 001.6-.3c.3-.1.6-.1.8-.2.3-.1.6-.3.8-.5 7.9-4.3 17-5.4 24.9-9.6 7.5-4 14.5-8.9 20.9-14.4 1.6-1.4 3.166-2.833 4.7-4.3.4-.3.7-.6 1-1 .3-.3.4-.7.5-1.1.2-.4.5-.7.9-1.1.466-.4.9-.8 1.3-1.2 1.4-1.6 2.6-3.3 3.8-5 .6-.933 1.2-1.833 1.8-2.7.5-.8 1.2-1.6 1.5-2.5.3-1 .5-1.9 1-2.7.3-.4-.3-.8-.6-.4-.6.7-.8 1.6-1.1 2.5-.2 1-.9 1.8-1.4 2.6-1.2 1.8-2.3 3.6-3.6 5.3-.667.867-1.367 1.7-2.1 2.5l-1.1 1.1c-.4.3-.7.6-.9 1-.2.3-.3.7-.4 1.1-.3.4-.8.8-1.2 1.1-.734.733-1.5 1.467-2.3 2.2-6.1 5.6-12.8 10.4-20 14.6-1.9 1.1-3.9 2.2-5.9 3.1-2 .9-4.1 1.6-6.2 2.3-4.1 1.4-8.3 2.5-12.3 4.2-1 .467-2 .967-3 1.5-.5.2-1 .6-1.5.8l-1.8.3c-2.267.533-4.534 1.1-6.8 1.7-4.4 1.2-8.7 2.6-13.1 4.1-4.3 1.6-8.6 3.4-13.1 4.3-4.4.9-8.9 1.1-13.2 0a27.58 27.58 0 01-3.3-1.2l.2.6c.5-.9 1-2 .8-3-.2-1-1-1-1.8-1.5-.9-.5-2-1.6-1.2-2.7.4-.4.9-.5 1.3-.7.6-.3 1-.5 1.4-1 .2-.2 0-.7-.4-.6-.267.133-.567.267-.9.4-.4.1-.1.8.3.7.333-.133.633-.267.9-.4a6.34 6.34 0 01-.4-.7c-.7.4-1.5.8-2.3.7-.7-.1-.9-.6-1.1-1.2-.3-1-.1-1.9.5-2.7 1-1.4 2.8-2.1 3.6-3.8.1-.2-.1-.5-.4-.5-.6-.1-1.2.4-1 1 .1.3.3.5.6.4.4-.1.6-.6.8-.9 0-.1 0-.4-.2-.5-.6-.3-1.3-.3-1.9-.3-.5 0-1.6.1-1.8-.5-.1-.6.5-1.1.8-1.4.6-.5 1.2-.8 1.8-1.2 1.5-.8 3.1-1.4 4.7-2.1 2.2-1.1 4.4-2.2 6.5-3.4 2.4-1.3 4.8-2.7 7.2-4 .4-.2 0-.9-.4-.6zm82.8-62.5c-2.3 2.1-5.1 3.4-7.6 5.4-1.3 1-2.4 2.2-3.6 3.4a161.45 161.45 0 01-3.6 3.3 329.1 329.1 0 01-14.4 12.8c-4.934 4.133-10 8.1-15.2 11.9-5.4 4.1-11 7.9-16.7 11.5-5.6 3.6-11.3 7.2-16.9 10.9-.734.467-1.434.933-2.1 1.4-.4.3 0 .9.4.7 5.5-3.8 11.2-7.4 16.9-11 3-1.8 5.9-3.7 8.8-5.7 2.733-1.867 5.433-3.8 8.1-5.8A300.702 300.702 0 00208 67.2c5-4.067 9.866-8.3 14.6-12.7 2.4-2.2 4.8-4.467 7.2-6.8.5-.5 1.1-1.1 1.8-1.6a38.67 38.67 0 012-1.5c1.3-.8 2.6-1.6 3.9-2.5.6-.467 1.166-.933 1.7-1.4.3-.3-.2-.8-.6-.5z" fill="#fff"/><path d="M157.4 102.7c.4-.1.7-.3 1-.5.2-.133.366-.233.5-.3l.2-.2h.2c-.067 0-.067 0 0 0h.1a6.783 6.783 0 00-.4-.7c-.2.134-.367.267-.5.4-.2.2-.1.4 0 .6.2.1.4.1.5 0 .2-.133.366-.266.5-.4.3-.3 0-.8-.3-.7-.4.2-.8.4-1.1.6-.134.067-.3.167-.5.3-.067 0-.134.034-.2.1.1 0-.1 0 0 0h-.1c0 .067-.034.1-.1.1-.2 0-.4.2-.3.4.1.2.3.4.5.3zm30.3-84.4c.2-2.7-.1-5.8 1.1-8.3.6-1.4 1.6-2.4 3-3 1.4-.6 2.9-.7 4.4-.6.8 0 1.567.067 2.3.2.7 0 1.4.1 2.1.3 1.2.4 2.3 1.1 3.1 2.1 1.6 1.9 2.1 4.4 2.3 6.7.3 2.1.3 5.3-2.2 5.9-.5.1-.3.9.2.7 2.5-.6 3-3.3 2.9-5.5-.1-1.1-.2-2.3-.5-3.5-.3-1.3-.7-2.7-1.4-3.9-.8-1.1-1.8-2.1-3-2.7-1.4-.7-2.9-.8-4.4-1-3.2-.3-6.7 0-8.8 2.7-1 1.4-1.4 3.1-1.6 4.7-.1 1.7-.1 3.5-.2 5.2-.1.5.7.5.7 0zM154.6 142c1.1.3 2.1-.5 3.1-.8.6-.2 1.3-.4 1.9-.6.667-.2 1.3-.433 1.9-.7 1.4-.6 2.7-1.1 4.1-1.4 1.4-.333 2.8-.567 4.2-.7 1.5-.1 3-.1 4.5-.2 1.534-.067 3.067-.1 4.6-.1 3 0 6.1.3 9.2.4 1.4 0 2.8-.3 4.3-.4 1.5-.2 3-.1 4.5 0l9.4.4c3.134.133 6.3.267 9.5.4 1.534.067 3.1.1 4.7.1 1.5.1 3 .1 4.5.4 2.6.5 5.1 1.3 7.7 1.7 1.8.3 3.9.4 5.2 1.9.3.4.5.9.7 1.3.2.5.9.3.7-.2-.3-.9-.8-1.7-1.7-2.3-.7-.6-1.6-.9-2.5-1.1-1-.2-2-.3-3-.4-1.3-.3-2.5-.6-3.8-.9-1.4-.4-2.9-.7-4.3-.9-1.6-.2-3.1-.2-4.6-.2l-9.6-.4c-3.2-.133-6.366-.267-9.5-.4l-4.8-.2c-1.5-.1-2.9 0-4.4.2-3.1.4-6.2.1-9.3-.1-3-.1-6.1 0-9.2.2-1.5 0-3 .1-4.4.2-1.4.2-2.766.5-4.1.9-1.4.4-2.7 1.1-4.1 1.6l-2 .6c-.6.2-1.1.4-1.6.6-.5.2-1.1.5-1.6.4-.5-.2-.7.6-.2.7zm-10.3 73.4c1.4 1.9 4.3 1.2 6.2.6 1-.2 1.9-.6 2.9-.7.8-.2 1.6.1 2.4 0 .8-.1 1.5-.5 2.2-.7.9-.1 1.9.3 2.8.2.9 0 1.8-.5 2.8-.6.4 0 .4-.8 0-.7-.8.1-1.5.3-2.3.5-.8.2-1.6 0-2.4-.1-.8-.1-1.4.1-2.2.4-.3.1-.6.3-1 .3s-.9 0-1.3-.1c-1.1-.1-2.1.2-3.1.5-1.1.4-2.2.7-3.3.8-1.1.1-2.3.1-3-.8-.3-.4-.9 0-.7.4zm124.3-20.8c.1-1.4.3-2.8.2-4.2-.1-1.2-.8-2.1-1.2-3.2-.5-1.2-1.1-2.5-1.7-3.7-.4-1.1-.7-2.2-1.1-3.3-.4-1-1.1-1.9-1.9-2.7-.3-.4-.8.2-.5.5.6.7 1.2 1.5 1.6 2.3.5 1 .7 2.1 1.1 3 .5 1.3 1.1 2.5 1.6 3.7.2.533.433 1.067.7 1.6.3.5.5.9.6 1.4.2.7.1 1.5 0 2.3 0 .7-.1 1.5-.1 2.3 0 .5.7.5.7 0zm-119.5-87.4c.1-3.9 1.4-7.6 1.5-11.5.1-3 .1-6.1-.2-9.2-.5-6.1-2-12.3-5.3-17.5-3-4.9-7.7-9.1-13.5-10.1-5.3-.9-10.7.7-14.8 4.1-2.1 1.8-4.1 4.1-5.2 6.7-1.2 3-1.4 6.4-1.4 9.6v2.4c0 .4.7.4.8 0 .1-1.5-1.3-2.4-2.1-3.4-1-1.5-2.1-2.8-3.4-4.1-2.5-2.4-5.1-4.6-8.1-6.4-3.2-1.9-6.7-3.4-10.2-4.5a50.719 50.719 0 00-5.5-1.3c-1.7-.4-3.5-.6-5.3-.5-3.3.1-6.4 1.4-9.1 3.2-2.6 1.8-4.9 4-6.5 6.7-.8 1.3-1.4 2.7-1.8 4.2-.5 1.6-.5 3.3-.6 4.9-.1 2 0 3.9.4 5.8s1 3.7 1.6 5.5c1.2 3.3 2.5 6.7 4.1 9.9 1.534 3.2 3.5 6.133 5.9 8.8 2.5 2.9 5.4 5.5 7.8 8.5 1.1 1.4 2.2 2.9 3.6 4.1 1.3 1.3 2.8 2.5 4.3 3.7 2.9 2.5 5.6 5.2 8.6 7.7 1.3 1.1 2.7 2.2 4.1 3.3.9.8 1.9 1.6 2.8 2.4 2.2 1.6 4.6 2.8 6.8 4.4 2.3 1.6 4.5 3.3 7 4.7.8.5 1.7.8 2.6 1.3 1 .6 1.9 1.3 2.9 1.9.8.5 1.8 1.2 2.7 1.1.5 0 .8-.2 1.1-.5.6-.6 1.167-1.233 1.7-1.9 4.4-4.7 8.1-9.9 11.6-15.2l1.6-2.6c.3-.4-.4-.8-.6-.4-2.9 4.7-6.1 9.3-9.5 13.6a164.454 164.454 0 01-3.3 3.8c-.6.6-1.166 1.2-1.7 1.8-.3.3-.6.7-1 .7-1-.1-1.9-.8-2.7-1.3-.9-.6-1.8-1.3-2.8-1.8-.3-.2-.7-.4-1.1-.5a11.28 11.28 0 01-1.5-.9c-1.1-.6-2.3-1.4-3.4-2.2-2.1-1.4-4.1-3-6.3-4.3-1.2-.7-2.4-1.5-3.6-2.3-1-.7-1.9-1.5-2.8-2.3-1.3-1.1-2.6-2.1-3.9-3.2-1.466-1.2-2.9-2.433-4.3-3.7-1.3-1.3-2.6-2.5-4-3.7-1.4-1.2-2.9-2.4-4.3-3.6-1.3-1.2-2.4-2.5-3.5-3.9a75.356 75.356 0 00-3.7-4.2c-2.5-2.7-5.2-5.3-7.3-8.4-2-2.8-3.5-5.8-4.8-9a99.28 99.28 0 01-1.9-4.7c-.6-1.8-1.3-3.5-1.7-5.3-.5-1.9-.8-3.7-.8-5.7 0-.9.1-1.9.2-2.8 0-.8.067-1.567.2-2.3 1.2-5.9 6.1-10.9 11.5-13.3 1.6-.7 3.3-1.1 5.1-1.3 1.7-.1 3.4.1 5.2.4 3.6.7 7.2 1.8 10.6 3.3 3.2 1.3 6.2 3.1 8.9 5.2s5.3 4.5 7.3 7.3c.4.5.8 1 1.3 1.5.4.5.9 1.1.8 1.8h.8c-.1-3.2-.1-6.5.6-9.6.7-2.8 2.3-5.3 4.4-7.3 3.6-3.7 8.7-5.8 14-5.4 5.7.5 10.5 4.1 13.7 8.7 3.4 5 5.1 10.9 5.8 16.9.4 2.9.5 5.9.4 8.9 0 1.7-.1 3.4-.3 5.1-.3 1.8-.7 3.6-1 5.5a17.79 17.79 0 00-.2 2.7c0 .5.7.5.7 0zM20.9 171.7c-2.8-2.8-5.3-6-7.5-9.3a80.52 80.52 0 01-6.5-11.1c-1.8-3.7-3.3-7.6-4.4-11.7-.9-3.3-1.6-6.7-1.5-10.2.2-3 .8-6 1.9-8.8 1.1-2.6 2.7-5.2 4.9-7.1 2.2-1.8 4.9-2.9 7.7-3.1 2.9-.1 5.9.7 8.3 2.2 2.4 1.6 4.3 3.9 5.5 6.5 1.5 3.4 1.6 7.1.8 10.6-.2 1.066-.5 2.1-.9 3.1-.2.4.5.7.7.3 2.8-5.8 7.3-11.2 13.9-12.7 5.4-1.1 11.4.6 15.5 4.3 1.5 1.3 2.7 2.9 3.4 4.8.7 1.9.9 3.9.7 5.9-.3 4.2-2.2 8-4.8 11.2-2.6 3.2-5.7 5.9-8.8 8.4-3.1 2.4-6.3 4.6-9.5 6.7-6.7 4.3-13.7 8.2-20.9 11.8-.733.4-1.467.767-2.2 1.1-.5.2-.1.9.3.7a303.08 303.08 0 0010.3-5.4c3.733-2 7.367-4.134 10.9-6.4 3.5-2.1 6.8-4.4 10.1-6.8 3.2-2.5 6.3-5.1 9-8.1 2.9-3.1 5.2-6.8 6.1-11 .8-4 .2-8.3-2.4-11.6-2.1-2.8-5.2-4.7-8.5-5.7-2.4-.8-5-1.2-7.6-.9-2.8.3-5.4 1.4-7.8 2.9-2.9 2-5.1 4.7-6.9 7.7-.533.866-1.033 1.8-1.5 2.8.267.067.5.133.7.2 1.4-3.7 2-7.8 1-11.7-.8-3.1-2.5-5.8-4.9-7.9-2.2-1.9-4.8-3.1-7.7-3.5-3.1-.5-6.2 0-8.9 1.6-2.5 1.5-4.5 3.8-5.9 6.3-1.5 2.7-2.5 5.7-3 8.8-.4 3.3-.2 6.5.4 9.7.8 4.1 2.2 8.1 3.8 12 1.7 4.1 3.8 8 6.2 11.7 2.2 3.6 4.7 7 7.5 10.1.6.733 1.233 1.433 1.9 2.1.4.4.9-.1.6-.5z" fill="#fff"/><path d="M187.9 18.8v1c0 .2.1.4.3.4.3 0 .4-.2.4-.4 0-.333.034-.667.1-1 0-.2-.2-.4-.4-.4s-.4.2-.4.4zm8.7-9c0 1.3.1 2.5-.1 3.8-.2 1.1-.6 2.1-.7 3.2h.8v-.3c0-.5-.7-.5-.8 0v.3c0 .5.8.5.8 0 0-1.1.5-2.1.6-3.2.2-1.3.2-2.5.2-3.8 0-.5-.7-.5-.8 0zm-3 1.5c.5 0 .5-.7 0-.7s-.5.7 0 .7zm5.1 7.7c.9.1 1.8 0 2.6-.4.7-.4 1.1-1.1 1.4-1.8.2-.5.2-1.1.2-1.6s-.7-.5-.7 0c0 .8-.2 1.5-.6 2.1 0 .1 0 .1-.1.2-.067 0-.134.034-.2.1 0 .067-.034.1-.1.1l-.2.2-.4.2c-.2 0-.367.034-.5.1-.467.067-.9.1-1.3.1-.5 0-.5.7-.1.7zm-14.9 67.5v-.9c0-.5-.7-.5-.7 0-.1 2.5.7 4.9 1.4 7.3.4 1.2.8 2.4 1.2 3.7.3 1.2.6 2.5.8 3.7.5 2.7.8 5.5.8 8.2 0 1.4 0 2.7.1 4.1.1 1.3.2 2.6.2 3.9-.1 1.1 0 2.2 0 3.3 0 1.1 0 2.3-.4 3.4l.6-.2-.4-.4c-.3-.3-.9.2-.5.6.133.067.267.167.4.3.2.2.5.1.6-.1.4-1 .5-2 .5-2.9 0-1.1-.1-2.2-.1-3.2v-3.6c-.2-1.3-.3-2.6-.2-4 .1-2.7-.2-5.4-.6-8.1-.3-1.4-.5-2.7-.8-4-.3-1.2-.6-2.5-1-3.7-.9-2.7-1.9-5.4-1.9-8.3h-.7c0 .267-.033.567-.1.9 0 .4.8.4.8 0zm-77-28.5c.1 1.1.5 2.1 1 3 .2.5.5 1 .7 1.6.2.6.3 1.1.5 1.7.3.8.9 1.5 1.5 2.1.5.6 1.1 1.3 1.1 2.2 0 .4.7.4.8 0 0-1.8-1.9-2.8-2.6-4.2-.2-.6-.3-1.1-.5-1.7a5.934 5.934 0 00-.6-1.5c-.5-1-1.1-2.1-1.1-3.2-.1-.5-.8-.5-.8 0zm53.1 15.5c.5 0 .5-.8 0-.8s-.5.8 0 .8zm1.4.1c.1-1.2-.1-2.4-.3-3.7-.2-1.4-.1-2.8-.1-4.2 0-1.4-.3-2.7-.3-4.1 0-1.3.1-2.7.2-4.1.1-1.5.2-3.1.3-4.6 0-.5-.7-.5-.7 0-.2 2.7-.5 5.4-.5 8.2 0 1.3.2 2.7.2 4 .1 1.4-.1 2.8.1 4.2 0 .7.2 1.4.3 2.2.067.667.1 1.367.1 2.1-.1.5.7.5.7 0zm39.1-61.8c.5.1.5-.7 0-.7s-.5.7 0 .7z" fill="#fff"/><path d="M206.9 19.5c1.3-1.2 2.2-2.7 2.6-4.4.2-.8.3-1.7.3-2.6.067-.867.034-1.733-.1-2.6-.1-.8-.4-1.6-.8-2.3-.3-.7-.7-1.4-1.1-2.1-.4-.8-.9-1.3-1.6-1.8a9.005 9.005 0 00-1-.7c-.5-.3-.9-.7-1.3-1-1.4-1.2-3.1-1.3-4.8-1.3h-9.5c-.9 0-1.9 0-2.7.2-1.5.4-3.4 1.7-3.6 3.3-.1.8.3 1.7 1 2.2.6.6 1.4.6 2.1.9 1.6.6 1.6 2.3 1.6 3.7 0 .4.8.4.8 0-.1-1.2-.1-2.5-.8-3.5-.4-.5-1-.8-1.5-1-.7-.2-1.3-.3-1.8-.7-.6-.5-.8-1.3-.5-2 .4-.7 1.1-1.4 1.8-1.7 1.5-.9 3.5-.6 5.2-.6h6.1c1.6 0 3.4-.2 5 .4.8.3 1.4 1 2.2 1.5.6.5 1.4.9 2 1.4.5.6.8 1.3 1.2 2 .3.6.7 1.2.9 1.9.6 1.8.6 3.7.3 5.5-.2 1.8-1.2 3.5-2.5 4.8-.3.3.2.9.5.5z" fill="#fff"/><path d="M184.3 2.8c-1.1-.3-1.6.7-1.6 1.6-.1 1 .2 2.1.7 2.9.7 1.1 2 2.4 3.4 2.5 1 .1 1.8-.7 2.2-1.6.4-1 .5-2.2.4-3.2-.2-1.3-1.1-2.3-2.1-2.8-.7-.4-1.4-.5-2-.2-.5.2-.7.7-.7 1.2 0 1 .7 2.1 1.4 2.8.6.5 1.8 1 2.6.6.5-.1.8-.6.7-1.1 0-.6-.4-1-.9-1.3-.5-.2-1.1-.3-1.6-.4-.5-.1-1-.3-1.5-.4-.5-.1-.9.2-1 .7-.1.7.2 1.3.6 1.8.9 1.1 2.4 1.8 3.7 1.5.8-.2 1.4-.7 1.3-1.5 0-.7-.3-1.4-.5-2.1-.1-.3-.2-.6-.1-.8 0-.3.1-.4.4-.5.266-.066.5-.1.7-.1.3 0 .2 0 .4.1.4.1.7.3 1.1.5 1 .4 1.9.9 2.9 1.4.7.3 1.7.8 2.5.6.3-.1.6-.3.7-.7.1-.6-.6-1-1.1-1-.6-.1-1.2-.1-1.7.2-.2.1-.2.4 0 .6.5.4 1.2 1 1.9 1.1.8.1 1.6-.5 1.6-1.3.1-.7-.5-1.5-1.1-1.8-.6-.4-1.4-.4-2.1-.5-1.5-.2-3.1-.5-4.5-.1-.8.3-1.4.8-1.5 1.6-.1.8.4 1.6 1 2.1 1.9 1.8 4.5.9 6.6 0 .2-.1.3-.5.1-.6-.4-.4-1-.5-1.5-.6-.734-.133-1.5-.233-2.3-.3-.8-.066-1.567-.066-2.3 0-.6 0-1.2 0-1.7.3-.2.2-.2.6.1.7 1.1.4 2.2.1 3.3 0 1.2-.2 2.5-.1 3.8-.1 1.333 0 2.633.167 3.9.5 1.1.2 2.3.6 3.2 1.4.4.267.733.6 1 1 .2.3.5.8.2 1.1h.5c-1-.6-1.5-1.7-2.1-2.5-.4-.3-.7-.7-1-1-.3-.4-.7-.8-.6-1.3a3.26 3.26 0 00-.5.4c2 .6 4.6 1.7 4.6 4.2l.2-.4c-.8.3-1.8-.1-2.4-.4-.8-.4-1.6-1-2.3-1.5-.9-.6-1.8-1.2-2.5-2a4.44 4.44 0 01-1.1-1.4c-.2-.3-.6-.8-.5-1.2.2-.4.7-.4 1-.5.5 0 1.1.1 1.6.3 1.2.3 2.2.9 3.1 1.7.9.8 1.8 1.8 2.5 2.8a20.34 20.34 0 012.2 3.3c.6 1.4 1.5 3.9-.5 4.5.067 0 .166.034.3.1-.4-.3-.4-1.1-.5-1.6-.1-.7-.1-1.4-.2-2.1-.2-1.7-1.3-3.3-2.2-4.7-.2-.2-.5-.2-.7 0-.5.8.1 1.8.3 2.6.3 1.2.7 2.4 1 3.6.3 1 .4 2 .5 3 .1.9.3 1.9.8 2.7.2.3.7.2.7-.2v-.9c0-.4-.8-.4-.8 0v.9c.266-.066.5-.1.7-.1-.4-.8-.5-1.7-.6-2.6-.1-.9-.2-1.8-.5-2.7a48.034 48.034 0 00-.9-3.3c-.1-.5-.2-.9-.4-1.4-.1-.3-.3-.8-.1-1.2h-.7c.9 1.3 1.9 2.7 2.1 4.2.2 1.2.1 2.5.6 3.7 0 .2.2.4.3.6.3.2.6.1.9 0 .6-.3 1-.7 1.2-1.3.4-1.1.1-2.4-.3-3.4-.8-1.7-1.9-3.3-3.1-4.8-1.1-1.4-2.4-2.7-4.1-3.6-.7-.4-1.6-.7-2.4-.8-.7-.1-1.5 0-2 .4-1.4 1 .3 2.9 1 3.7 1.2 1.3 2.6 2.3 4.1 3.2 1.2.7 2.8 1.7 4.3 1.1.1-.1.2-.2.2-.3-.1-2.9-2.9-4.2-5.2-4.9-.3-.1-.5.1-.5.3-.1 1.1 1.1 2 1.7 2.7.8.9 1.3 2.1 2.4 2.7.1.1.3.1.5 0 .6-.8.1-1.8-.5-2.5-.7-.9-1.7-1.5-2.7-1.9-2.7-1-5.6-1-8.4-1-1.4.1-2.8.6-4.2.2.066.2.1.434.1.7.3-.2.9-.2 1.3-.3.733 0 1.466.034 2.2.1.733 0 1.466.067 2.2.2l.8.2c.1.1.3.2.4.2v-.6c-1.5.7-3.5 1.5-5.1.6-.8-.5-2.2-2.1-.7-2.8 1-.4 2.3-.2 3.4-.1.666.067 1.3.134 1.9.2.6.1 1 .3 1.4.7.4.4.6 1.2-.2 1.4-.6.1-1.3-.6-1.7-1-.067.2-.1.4-.1.6.4-.2.9-.2 1.3-.1.066.067.166.134.3.2l.1.1v-.2s-.1.1 0 .1h-.1c-.5.2-1.3-.2-1.8-.4-.8-.3-1.6-.7-2.4-1.1-.6-.4-1.3-.7-2-.9-.6-.2-1.4-.1-2 .2-.5.4-.5 1-.4 1.6.1.6.3 1.1.5 1.7.1.4.2.9-.1 1.2-.8.5-2.1.1-2.7-.4-.5-.3-1-.7-1.1-1.3-.134-.2-.167-.433-.1-.7 0-.1 0 0-.1 0h.2c.4.1.8.3 1.2.4.5.1.9.2 1.4.3.4.1.8.3.8.8 0 .3-.2.4-.5.4-.8 0-1.5-.4-1.9-.9-.3-.4-.6-.8-.7-1.2-.1-.3-.3-.8-.1-1.1.3-.4.9-.2 1.3-.1.6.3 1.1.7 1.5 1.2.4.6.5 1.5.5 2.3-.1.8-.3 1.7-.8 2.4-.7.7-1.6.5-2.3 0-.9-.6-1.7-1.6-2-2.6-.2-.6-.4-1.6-.1-2.2.1-.3.3-.3.6-.3.5.2.7-.6.2-.7z" fill="#fff"/><path d="M199.1 4c.267.267.567.467.9.6.3.1.7.1 1 0 .2 0 .4-.3.3-.5-.1-.2-.3-.3-.5-.2h-.5.1c-.067 0-.133-.033-.2-.1h-.1c-.067-.066-.134-.1-.2-.1l-.1-.1-.2-.2c-.1-.1-.4-.1-.5 0-.2.2-.1.4 0 .6z" fill="#fff"/><path d="M199.6 4c.8-.8 1.4-1.8 2.1-2.6.2-.2.2-.4 0-.5-.1-.2-.4-.2-.5 0-.8.8-1.3 1.8-2.1 2.5-.1.2-.1.4 0 .6.1.1.4.1.5 0zm-53.1 213.4h.2c-.066-.134-.1-.134-.1 0 .134-.067.267-.167.4-.3-.2 0-.2-.2-.2-.4-.1-.4-.4-.5-.7-.3-.3.3-.5.7-.6 1.1-.2.4-.3.8-.7 1l.6.4c-.1-.5.1-.8.2-1.2.2-.334.234-.7.1-1.1 0-.3-.4-.4-.6-.2-.9.9-1.5 2.2-2 3.3-.2.5-.4 1-.7 1.5-.4.5-.8 1.1-1 1.7-.2.4-.4 1.1.1 1.4.3.1.6.1 1 0 .8-.3 1.6-1 2.2-1.7.7-.6 1.4-1.3 1.9-2.1.2-.4-.2-.7-.5-.5-1 .4-1.9 1.1-2.4 2-.1.2 0 .6.3.6 1.9-.1 3.1-1.7 4.5-2.7 1.2-.8 2.9-1.3 3.4-2.8.1-.1 0-.3-.1-.4-1-1.1-3 .7-3.1 1.8 0 .2.2.3.3.4.7.3 1.5.2 2.1-.2.3-.2.6-.4.8-.7.2-.4.1-.7-.3-1-.5-.4-1.2-.3-1.9-.3-.5.1-1.3.2-1.6-.3l-.2.6c.9-.3 1.9-.2 2.9-.2l2.1-.3c1-.1 2.7-.1 3.2-1.2.1-.3 0-.5-.3-.6-1.4-.3-2.9-.1-4.4-.1a11.79 11.79 0 01-2.1-.2c-.7-.1-1.3-.3-2-.3v.7c2.3.1 4.5 0 6.8 0 1.9 0 3.9-.4 5.7.1a18.856 18.856 0 00-.2-.2c.1.2.2.3 0 .5-.1.2-.4.4-.6.5-.7.3-1.5.5-2.3.7-.5.1-1.1.2-1.5.4-.8.2-1.4.7-2.1 1-.733.466-1.466.9-2.2 1.3-.5.3-1.1.5-1.6.8-.5.2-1 .6-1.1 1.1 0 .2.1.4.3.5.6.2 1.4 0 2.1-.1.6-.2 1.4-.4 1.9-.8.8-.5 1.4-1.3 2.1-1.9.6-.5 1.3-.9 1.8-1.5.2-.3.4-.7.2-1-.3-.3-.6-.6-1-.6-.8 0-1.6.6-2.2.9-.933.533-1.9 1-2.9 1.4-.9.4-1.9.8-2.9 1.2-1.1.5-2.1 1.1-3.1 1.7-.466.266-.9.566-1.3.9-.4.3-.9.6-1.4.7-.5 0-.5.7 0 .7.6 0 1.2-.3 1.7-.7.534-.4 1.1-.767 1.7-1.1 1.2-.8 2.4-1.4 3.7-1.9a68.83 68.83 0 003.9-1.7l1.8-1c.4-.2 1-.6 1.4 0 0-.134-.033-.234-.1-.3-.2.7-1 1.1-1.5 1.6-.7.5-1.2 1.1-1.9 1.7-.5.4-1.2.7-1.9.9-.6.1-1.3.4-1.9.1.067.2.134.366.2.5.1-.3.5-.5.8-.7.3-.2.7-.3 1.1-.5 1.1-.5 2.1-1.2 3.1-1.8l.8-.4c.134-.067.3-.134.5-.2.067-.067.134-.1.2-.1a.886.886 0 01.4-.1l1.6-.4a7.183 7.183 0 001.8-.6c.5-.2 1-.5 1.2-.9a1.617 1.617 0 000-.8c-.1-.4-.3-.5-.7-.6-1.1-.2-2.3-.2-3.5-.1-2.9.2-5.9.1-8.9.1-.5 0-.5.7 0 .7.6.1 1.3.2 2 .4.667.133 1.334.2 2 .2 1.4-.1 2.9-.3 4.3 0a3.722 3.722 0 00-.2-.5c-.2.4-.7.6-1.2.7-.5.1-1.1.2-1.7.2-.7.1-1.4.2-2.2.2-.9 0-1.8 0-2.6.3-.3 0-.4.3-.2.5.3.7 1.1.7 1.8.7.6 0 1.6-.2 2.1.3a.9.9 0 01-.1-.4c-.3.9-1.4 1.1-2.1.8a.66.66 0 00.3.3c0-.4.4-.8.7-1 .3-.2.8-.5 1.1-.3-.066-.067-.1-.167-.1-.3-.2.6-.8 1-1.4 1.4-.6.3-1.2.6-1.8 1-.6.5-1.2 1.1-1.8 1.5-.6.5-1.4 1-2.2 1 .134.2.234.4.3.6.5-.8 1.3-1.4 2.1-1.8-.133-.2-.3-.367-.5-.5-.3.6-.8 1-1.2 1.5-.6.7-1.3 1.3-2 1.8-.2.1-.5.3-.8.2.1 0-.1.2 0 0 .1 0 .1-.2.1-.2.067-.2.134-.367.2-.5.2-.5.6-.9.9-1.4.2-.4.4-.8.6-1.3.267-.6.567-1.2.9-1.8.3-.5.6-1 1-1.5-.2 0-.4-.034-.6-.1.1.3-.1.6-.2 1-.1.3-.2.7-.2 1.1 0 .3.3.4.6.3.4-.2.7-.6.9-1.1.1-.4.2-.8.5-1.2l-.6-.2c0 .5.3 1 .8 1.1.2.1.4 0 .5-.2.2-.6-.2-1-.8-.9-.5 0-.5.7 0 .7z" fill="#fff"/><path d="M148.1 213c-.7 0-1.4 0-2.1.1-.2.1-.3.2-.3.4-.1.8-.7 1.6-.6 2.4.266-.066.5-.166.7-.3-.4-.6-.8-1.6-.5-2.3.4-1.2 2.2.1 2.9.3.7.2 1.4.2 2.2.3.7.2 1.3.5 2 .7 1.4.3 2.9.4 4.3.4 1.7 0 3.3-.2 5-.2.4 0 .4-.7 0-.7-3.2 0-6.5.6-9.5-.4-.8-.3-1.5-.5-2.3-.6-.4 0-.8-.1-1.2-.2-.4 0-.8-.2-1.1-.4-.7-.3-1.3-.5-2-.4-.5.1-.8.4-1 .9-.4.9 0 2.2.5 3 .3.4.8.1.7-.3 0-.3.2-.7.3-1 .2-.4.3-.8.3-1.2l-.2.4c.6-.2 1.2-.1 1.9-.1.5 0 .5-.8 0-.8zm116.7-33.1c.1.5.3 1 .6 1.5.266.467.5.967.7 1.5.2 1.2.2 2.4.3 3.6.1 2.2.5 4.4 1.6 6.3.2.3.7.2.7-.2-.2-3 0-6 0-9h-.8c0 2 .6 3.9.5 5.8-.1 1.7-.3 3.6.7 5.1.1.1.3.2.4.2.8-.2 1.1-1 1.2-1.6.2-.9.2-1.9.2-2.9a42.184 42.184 0 00-.3-2.7c-.2-1.2-.6-2.3-.9-3.4-.3-.9-.6-1.7-.9-2.6-.2-.8-.4-1.6-.9-2.3-.1-.3-.4-.2-.6 0-.7 1-.3 2.1-.1 3.2a28.343 28.343 0 001.2 3.6c.5 1.1 1 2.1 1.5 3.1.3 1 .7 1.9 1.2 2.9s1.2 1.9 2.1 2.5c.2.1.5 0 .6-.3.3-1.2.2-2.5-.8-3.4-.6-.6-1.8-1.4-2.7-.9-.8.5-.4 1.6-.1 2.3.3.8.8 1.8 1.6 2.3.5.3 1 .2 1.5-.1.3-.1.5-.2.8 0 .3.3.6.6.7 1 .266-.133.5-.267.7-.4-.467-.733-.867-1.5-1.2-2.3-.1-.3-.7-.1-.7.2-.1 1.5.7 2.9.6 4.4h.7c0-1.7.4-3.6-.3-5.2-.5-1.4-1.7-2.5-1.8-4 0-.5-.7-.5-.7 0 .1 1.5 1.1 2.6 1.7 4 .7 1.5.4 3.5.4 5.2 0 .4.7.4.7 0 .2-1.5-.6-2.9-.5-4.4a9.56 9.56 0 00-.7.2c.333.8.7 1.567 1.1 2.3.3.4.9 0 .7-.4-.4-.9-1.4-1.8-2.5-1.3-.3.2-.5.3-.9.1-.2-.2-.5-.5-.7-.8-.4-.6-.8-1.4-.8-2.1 0-.8 1.1-.1 1.5.1.4.3.7.6.9 1 .3.6.2 1.4.1 2 .133-.067.3-.133.5-.2-1.6-1-2.2-3-2.9-4.7-.4-.9-.8-1.7-1.2-2.6a19.894 19.894 0 01-1.3-3.3c-.134-.6-.3-1.2-.5-1.8-.1-.7-.2-1.3.2-1.8h-.6c.4.5.6 1.2.7 1.8.2.733.433 1.433.7 2.1.4 1.3.8 2.5 1.1 3.8.3 1.6.5 3.3.3 4.9-.1.6-.2 1.6-.8 1.7.2.067.366.133.5.2-1-1.5-.7-3.3-.6-4.9 0-1.9-.5-3.7-.5-5.6 0-.5-.8-.5-.8 0 0 3-.2 6 0 9 .266-.067.5-.133.7-.2-1.1-1.9-1.4-4.1-1.5-6.3 0-1.1 0-2.3-.3-3.4a5.943 5.943 0 00-.6-1.5c-.3-.5-.6-.9-.7-1.5-.1-.5-.8-.3-.7.2z" fill="#fff"/><path d="M264.3 178.9c.067.2.033.4-.1.6.067-.067.133-.1.2-.1-.267 0-.533.033-.8.1-.2.1-.3.2-.3.3-.3 1.4 0 2.8.3 4.1.267 1.4.6 2.8 1 4.2.3 1.3.6 2.6 1 3.8.2.6.4 1.1.8 1.5.3.5.8 1 1 1.5.2.5.9.3.7-.2-.2-.5-.5-.9-.9-1.4-.3-.4-.6-.9-.8-1.5-.4-1.2-.7-2.4-1-3.6a44.023 44.023 0 01-1-4c-.3-1.4-.7-2.9-.4-4.2l-.2.2c.4 0 .9 0 1.1-.4.2-.4.2-.8.1-1.1-.1-.5-.9-.3-.7.2z" fill="#fff"/><path d="M266.1 185.7c-1.3.3-1.5 1.8-1.3 2.8 0 .5.7.4.7-.1 0-1 .2-2.1-.1-3.1-.3-.8-.9-1.5-.9-2.4 0-.5-.8-.5-.8 0 0 .9.5 1.6.9 2.5.4.9.2 2 .2 3 .2 0 .434-.033.7-.1-.1-.6 0-1.7.8-1.9.5-.1.3-.9-.2-.7zM9.3 118.1c-2.7 1.4-3.3 4.4-3.9 7.1-.3 1.8-.7 3.6-.4 5.4.1 1 .4 1.9.6 2.8.1.8 0 1.6.3 2.4.1.5.3.9.5 1.3s.3.8.5 1.2c.3.7.9 1.1 1.5 1.4.5.2 1.1.3 1.5-.1.2-.1.3-.4.3-.6.133-.4.233-.8.3-1.2.3-1.9.4-3.8.8-5.6.2-.9.2-1.8.3-2.7.1-.9.3-1.8.3-2.8 0-1 .4-1.9.6-2.9.2-1 .2-2 .1-3.1 0-.8 0-1.7-.7-2.3-.5-.4-1.2-.8-1.9-.7-.4.1-.2.8.2.7.5 0 1.2.5 1.4.8.2.3.2.6.2.9.066.4.1.8.1 1.2 0 .9 0 1.7-.1 2.5-.2.8-.5 1.5-.6 2.3-.1.4-.1.8-.1 1.1l-.2 1.4c-.1.8-.1 1.5-.1 2.4-.1.8-.4 1.6-.5 2.4-.134.8-.234 1.633-.3 2.5-.067.867-.2 1.7-.4 2.5-.1.2-.1.5-.2.6-.1.2-.1.1-.3.1-.7-.1-1.2-.5-1.5-1.1-.2-.3-.3-.7-.4-1-.134-.4-.3-.8-.5-1.2-.4-.7-.3-1.5-.4-2.3 0-.8-.3-1.6-.5-2.3-.3-1.7-.1-3.3.2-5 .5-2.6 1-6 3.6-7.5.5-.2.1-.8-.3-.6zM68.7 72c-1.5 2.8-2.6 5.9-2.9 9.1-.4 3-.1 6.1.7 9 .8 3.1 2.2 6.1 3.9 8.8.8 1.2 1.6 2.4 2.6 3.4.9.9 2.1 1.8 3.4 2.2 1.2.3 2.6.2 3.4-.8.5-.6.5-1.5.5-2.2-.2-2-1.1-3.9-1.9-5.7l-.9-2.1c-.6-1.4-1-2.9-1.3-4.4-.6-3.1-.6-6.2-.8-9.3-.2-2-.4-3.9-1.2-5.7-.7-1.5-2-3.1-3.9-2.9a3.995 3.995 0 00-1.5.5c-.4.2 0 .8.4.6 3.8-1.7 5.1 3.8 5.3 6.4.3 2.8.3 5.7.6 8.6.4 2.4 1 4.9 2 7.2.8 1.6 1.5 3.3 2 5 .3.8.5 1.7.4 2.5-.066.866-.533 1.4-1.4 1.6-1.3.3-2.6-.4-3.6-1.2-1.1-.8-1.9-1.8-2.7-2.9-1.7-2.5-3.1-5.2-4-8-1-2.8-1.5-5.7-1.4-8.6.1-3 .7-5.9 1.9-8.6.334-.734.7-1.433 1.1-2.1.2-.4-.5-.8-.7-.4z" fill="#fff"/><path d="M32.1 128.1v-2.9c0-.9 0-1.7-.1-2.6-.3-1.6-.8-3.1-1.7-4.4-.9-1.5-1.9-3-3-4.4-.9-1.2-2.2-2.2-3.6-2.9-.667-.4-1.367-.733-2.1-1-.8-.3-1.6-.4-2.4-.7-.3-.2-.7-.3-1.1-.4-.4-.066-.8-.1-1.2-.1h-2.7c-.9 0-1.6.2-2.4.5-.8.334-1.6.634-2.4.9-1.4.6-3 1.3-4 2.5-.6.6-.8 1.4-1.3 2-.3.3-.5.5-.7.8-.3.3-.4.7-.5 1.1-.1.8-.5 1.5-.8 2.3-.4.8-.5 1.7-.7 2.7-.1.8-.3 1.7-.4 2.6v2.7c.1 1.9 0 3.8 0 5.7.1 1.8.3 3.7.7 5.5.2.9.2 1.8.5 2.6.2.9.6 1.8.9 2.6 1.2 3.4 2.4 6.9 4.3 10 .467.734.933 1.434 1.4 2.1.3.4.5.8.8 1.2.133.334.267.7.4 1.1.3.7.7 1.4 1.2 2.1l1.5 2.1c.8 1.5 1.4 3.2 2.3 4.6 1 1.7 2.1 3.2 3.2 4.7.6.734 1.133 1.467 1.6 2.2.2.2.5.3.6.1.3-.3.3-.6.1-1-.1-.4-.8 0-.6.4v.1h.6c-2-2.9-4.4-5.6-5.9-8.8-.7-1.6-1.4-3-2.4-4.4-.6-.7-1-1.3-1.4-2.1-.2-.7-.5-1.4-1-2.1-.9-1.4-1.9-2.8-2.6-4.3-.9-1.5-1.6-3.2-2.2-4.8-.6-1.7-1.2-3.4-1.8-5-.3-.9-.5-1.7-.6-2.5-.1-.9-.3-1.8-.5-2.7-.3-1.8-.3-3.6-.3-5.5v-5.3c-.1-1.8.2-3.6.6-5.3.2-.8.6-1.6.9-2.3.3-.7.3-1.6.8-2.2.2-.3.5-.5.7-.7.2-.4.4-.7.6-1.1.5-.7 1-1.2 1.7-1.7 1.3-.8 2.8-1.3 4.2-1.9.9-.3 1.6-.7 2.5-.8.8 0 1.7.1 2.5.1.4-.066.8-.066 1.2 0 .5 0 .9.1 1.3.3.7.3 1.5.5 2.2.7 1.5.5 2.9 1.2 4.1 2.1 1.3 1.1 2.2 2.4 3.1 3.8.9 1.3 2 2.6 2.5 4.2.6 1.5.7 3.1.7 4.7v2.8c0 .5.7.5.7 0z" fill="#fff"/><path d="M30.6 131.8c1.1-1.1 1.4-2.7 2.5-3.8.6-.7 1.3-1.3 2-1.9.6-.5 1.2-1.2 1.9-1.7 1.4-.9 2.6-2.2 4.1-2.8.4-.2.9-.3 1.3-.4.467-.067.9-.2 1.3-.4.3-.1.6-.2.9-.2.4-.1.8-.1 1.2-.1.8 0 1.6-.2 2.4 0 .4 0 .7.2 1.1.3.4.2.8.3 1.2.5.8.3 1.5.6 2.3.8.8.2 1.534.533 2.2 1 .8.467 1.567.967 2.3 1.5.7.5 1.4 1 2 1.7.5.6.9 1.3 1.4 1.9.6.7 1.1 1.3 1.5 2.1.4.8.9 1.6 1.1 2.5.2.9.1 1.8.1 2.6-.1 1.8-.6 3.4-1.6 4.9-.9 1.3-2.2 2.5-3.2 3.8-.533.733-.967 1.5-1.3 2.3-.3.8-.5 1.6-1 2.3-1 1.4-2.3 2.5-3.5 3.6-.6.6-1.2 1.2-1.8 1.6-.7.5-1.5.9-2.1 1.4-1.4 1-2.7 2.3-3.9 3.5-1.2 1.3-2.4 2.7-3.9 3.7-1.4.9-3 1.5-4.4 2.5-.6.5-1.2 1-1.9 1.4l-2.4 1.2c-1.5.9-3.2 1.3-4.9 1.9-1.6.7-3.1 1.8-4.8 2.5-.7.3-1.4.6-2.2.8.2.133.367.233.5.3 0-.067-.033-.133-.1-.2-.1-.5-.8-.3-.7.2 0 .067.034.133.1.2 0 .2.2.3.4.2.9-.2 1.6-.6 2.4-.9.9-.3 1.7-.8 2.4-1.2 1.6-1 3.4-1.6 5.2-2.2.8-.267 1.6-.6 2.4-1 .7-.5 1.5-.9 2.3-1.3.8-.4 1.4-1 2.1-1.5.7-.5 1.5-.9 2.3-1.3.7-.4 1.4-.8 2.1-1.3.8-.5 1.5-1.2 2.1-1.8 1.3-1.4 2.6-2.7 4-4 .7-.6 1.3-1.2 2.1-1.6.7-.5 1.4-.9 2-1.4.6-.5 1.2-1.2 1.8-1.7.7-.6 1.3-1.2 1.9-1.9.6-.6 1.2-1.2 1.5-2 .4-.8.7-1.7 1-2.5.8-1.6 2.2-2.8 3.3-4.1 1.1-1.4 2-2.9 2.4-4.6.1-.9.2-1.7.2-2.6 0-.9 0-1.8-.4-2.6-.3-.9-.7-1.8-1.2-2.6-.4-.7-1-1.3-1.5-1.9-.5-.7-.9-1.5-1.5-2-.7-.7-1.4-1.2-2.2-1.7-1.4-1-2.8-1.9-4.5-2.5-.4-.1-.8-.2-1.1-.3-.5-.2-.9-.4-1.3-.6-.4-.1-.8-.2-1.2-.4-.4-.1-.7-.2-1.1-.3-.9-.1-1.7 0-2.5.1-.8 0-1.5 0-2.2.3-.4.2-.833.333-1.3.4-.4.1-.9.2-1.3.4-.8.3-1.5.8-2.2 1.3-.7.5-1.4 1.1-2.1 1.6-.7.5-1.2 1-1.9 1.6-.7.7-1.4 1.3-2.1 2-.5.6-.9 1.2-1.3 1.9-.3.7-.7 1.4-1.2 2-.4.3.2.9.5.5z" fill="#fff"/><path d="M51.3 115.8c-.3.4-.5.8-.9 1.3-.2.3-.6.6-.8 1-.2.3-.2.8-.2 1.2 0 .3 0 .8.1 1.1.4.9 1.1.8 1.9.9 1.1.1 2.2.3 3.4.4 2.4 0 4.8-.1 7.2-.1 1.2 0 2.4.1 3.6-.1 1.1-.2 2.1-.6 3.2-.7.7-.1 1.3-.2 2-.4l.8-.2h1.1c1.2-.2 2.4-.7 3.6-.7.5 0 .5-.7 0-.7-1 0-2 .3-3 .5-.5.1-1 .1-1.6.2-.5 0-1 .2-1.5.3-1 .3-2.1.3-3.2.6-.466.133-.9.233-1.3.3-.6.1-1.2.1-1.8.1-2.2 0-4.433.033-6.7.1a27.108 27.108 0 01-3.3 0c-1-.1-2-.4-3-.4-.3 0-.6-.1-.7-.5-.1-.4-.1-.9 0-1.3 0-.4.4-.7.7-1 .4-.4.6-1 1-1.4.3-.4-.3-.9-.6-.5z" fill="#fff"/><path d="M76.3 117.7c-.1.6.1 1.2.8 1.4.3.1.5.1.8.1.4.1.7.4 1 .7.3.4.6.8.9 1.1l1.2 1c.9.7 1.9 1.2 2.8 2 .9.6 1.6 1.5 2.3 2.3.4.3.7.6 1.1 1l1.2 1.2c.4.3.9.6 1.3.9.4.4.8.9 1.1 1.3.7.8 1.4 1.6 2.3 2.3.4.4.8.7 1.2 1.1.4.3.7.8 1 1.2.7.8 1.7 1 2.6 1.6.8.6 1.4 1.5 2.2 2.2.8.7 1.7 1.1 2.6 1.5.9.5 1.6 1.2 2.4 1.8.9.6 1.8 1.1 2.7 1.8.933.8 1.9 1.566 2.9 2.3.333.333.7.633 1.1.9.2.2.433.366.7.5.3.1.6.2.8.4.3.2.4.4.6.7.2.2.3.3.6.4.5.2 1 .4 1.4.8.4.4.7.8 1.1 1.1.4.3 1 .4 1.4.7.4.4.7.8 1.2 1.1.4.2.9.3 1.4.6.7.4 1.1 1.5 2 1.4.133 0 .233-.1.3-.3.2-.6.1-1.3-.4-1.7-.3-.4-.9.2-.5.5.3.3.3.6.2 1a1.6 1.6 0 00.4-.3c-.4.1-.6-.3-.8-.5-.2-.334-.467-.6-.8-.8-.4-.2-.8-.3-1.2-.5-.4-.2-.8-.5-1.1-.8-.4-.4-.7-.6-1.2-.8-.4-.2-.8-.4-1.1-.8-.3-.3-.5-.7-.9-.9-.2-.134-.4-.234-.6-.3-.2-.1-.6-.1-.7-.3-.3-.3-.5-.7-.9-1-.2-.1-.5-.2-.7-.3a6.679 6.679 0 01-.7-.4c-.9-.7-1.8-1.5-2.7-2.2-.9-.7-1.7-1.4-2.6-2-.9-.6-1.8-1-2.5-1.7-.8-.7-1.6-1.1-2.5-1.5-.4-.3-.8-.5-1.2-.8-.4-.3-.8-.7-1.2-1.1-.3-.4-.7-.8-1.1-1.1-.4-.4-.8-.6-1.2-.8-.5-.2-.9-.4-1.3-.8-.3-.3-.6-.7-.9-1.1-.7-.8-1.7-1.4-2.4-2.1-.8-.8-1.4-1.7-2.1-2.5l-1.2-.9a6.393 6.393 0 01-1.2-1.1c-.8-.8-1.5-1.5-2.3-2.2-.8-.9-1.6-1.7-2.6-2.4s-2.1-1.3-2.9-2.1c-.7-.7-1.2-1.7-2.2-2-.2 0-.5-.1-.8-.1-.4-.1-.4-.2-.4-.5.1-.5-.6-.7-.7-.2zm2.5.1c0-.7-.7-1.1-1.2-1.5-.7-.5-1.2-1.3-1.7-1.9-.6-.8-1.3-1.6-2-2.3-.7-.7-1.2-1.5-1.7-2.4-1.1-1.6-2.5-3-3.9-4.3-.7-.6-1.4-1.3-2-2.1-.6-.8-1.1-1.6-1.7-2.4-.7-.8-1.3-1.6-1.8-2.5-.2-.4-.366-.8-.5-1.2-.2-.4-.2-.9-.5-1.2l-.3-.6c-.1-.2-.1-.5-.1-.7-.1-.6-.1-1.1-.2-1.7a9.884 9.884 0 01-.1-1.4l-.3-1.5c-.2-1-.1-2.1-.1-3.1 0-1.1 0-2.1-.1-3.2 0-1.1-.2-2.1-.4-3.2-.066-1-.133-2.034-.2-3.1 0-1-.3-1.9-.4-3 0-.9.3-1.8.6-2.7.6-1.6 1.5-3.1 2.8-4.2.7-.6 1.6-1 2.5-1.3.9-.4 1.7-1 2.7-1.3l1.2-.4c.5-.2.9-.4 1.4-.6.9-.4 1.8-.5 2.7-.6l1.4-.2c.5 0 1-.2 1.5-.3 1-.2 1.9.4 2.9.4.5 0 .9 0 1.4.2l1.4.4c1 .3 2.1.4 3.1.6 1.1.2 2.1.6 3.1.8.467.133.967.233 1.5.3.5.1 1 .1 1.4.2.4.2.7.4 1.1.5.467.266.9.466 1.3.6.467.133.934.3 1.4.5.5.2 1 .5 1.5.8 1.8 1.1 3.7 2.1 5.5 3.1.4.2.9.4 1.3.7l1 1c.5.7 1.1 1.4 1.7 2.1.8.8 1.4 1.7 1.9 2.6.6.8 1.1 1.7 1.4 2.7.1.2.1.3.1.4 0 0-.1.1 0 .1 0-.1.1-.1-.1-.1-.4.1-.2.8.2.7 1.8-.2-.9-4.2-1.3-4.8-.2-.4-.433-.767-.7-1.1-.6-.8-1.3-1.4-2-2.2-.5-.7-1.1-1.4-1.8-2-.8-.6-1.8-1-2.7-1.5l-3-1.6c-.9-.6-1.8-1.2-2.8-1.6-1-.4-1.9-.7-2.8-1.2-.333-.134-.7-.267-1.1-.4-.5-.2-1-.2-1.6-.3-1-.1-2.1-.5-3.2-.7-1-.334-2.033-.567-3.1-.7-1-.1-2-.5-3-.8-.4-.1-.9-.1-1.4-.1-.5 0-1-.2-1.5-.3-1-.2-2 .2-3 .3-1 .2-2 .2-2.9.4-1 .3-1.8.8-2.8 1.1-.466.133-.9.3-1.3.5-.5.2-.9.4-1.4.7-.9.4-1.9.7-2.7 1.2-.8.5-1.4 1.1-2 1.8-1.1 1.3-1.8 3-2.3 4.7-.2 1-.2 1.9-.1 2.9.1.5.2 1.1.3 1.6v1.7c.1 1.1.3 2.1.4 3.2.2 1.1.2 2.2.2 3.3.1 1.1 0 2.2 0 3.3 0 1 .3 2 .4 3 .067.533.134 1.033.2 1.5.1.6.1 1.1.1 1.7.1.5.3.8.5 1.2.3.3.4.8.5 1.3.8 1.9 2.2 3.5 3.4 5.2.5.7 1.1 1.5 1.8 2.2.7.8 1.5 1.4 2.2 2.1.8.8 1.5 1.5 2.1 2.4.5.7 1 1.6 1.6 2.4.6.8 1.4 1.5 2.1 2.3.6.7 1.1 1.6 1.9 2.4.2.2.5.4.7.5.2.2.7.4.6.7 0 .4.8.4.8 0z" fill="#fff"/><path d="M110.5 81.2c0-1.7.4-3.3.8-4.9.5-1.5 1.1-3.1 1.8-4.5s1.5-2.8 2.4-4.1c.4-.7.8-1.3 1.1-2 .2-.6.4-1.1.8-1.6.4-.4.6-1.1 1.1-1.4.3-.2.6-.3 1-.4.4-.1.7-.2 1.1-.3.7-.3 1.3-.7 2.1-.9.666-.267 1.4-.467 2.2-.6 1.5-.2 3-.3 4.5-.3 1.7-.1 3.4-.3 5 .2.7.2 1.4.3 2.1.6.5.3.9.8 1.4 1.2.4.4.9.7 1.2 1.1l.6.9.6.8c.5.5 1 1.1 1.5 1.7.4.5.8 1.1 1.3 1.7.5.5 1 1 1.5 1.6.4.6.7 1.2 1 1.9.7 1.5 1.3 3.1 1.9 4.6.6 1.6 1.1 3 1.3 4.6.1 1.6.1 3.1 0 4.7 0 1.6-.1 3.3 0 4.9 0 1.7.4 3.3.6 4.9.1 1.7.1 3.4.1 5.1v2.9c.1.7.1 1.6-.2 2.3-.1.2-.2.2-.4.1-.5-.1-.7.6-.2.8 1.8.6 1.6-2.7 1.6-3.7-.1-1.2-.1-2.5-.1-3.8 0-1.8 0-3.5-.2-5.2-.2-.9-.4-1.8-.4-2.7-.1-.8-.1-1.7-.1-2.6.066-1.667.1-3.333.1-5 0-1.6 0-3.2-.4-4.8-.3-.8-.6-1.6-.9-2.5a94.01 94.01 0 01-1-2.5c-.6-1.4-1.1-3-2-4.3-.4-.6-1-1.1-1.5-1.7-.5-.6-1-1.2-1.4-1.8l-1.5-1.8c-.5-.5-.8-1.2-1.3-1.7-.4-.5-.9-.8-1.4-1.2-.5-.4-.9-.8-1.4-1.1-.7-.4-1.4-.5-2.1-.7-.9-.3-1.7-.3-2.6-.3-1.6 0-3.3 0-5 .1-1.6.1-3.1.4-4.6.9-.8.2-1.5.6-2.2.9-.7.3-1.6.3-2.2.8-.5.3-.7.9-1.1 1.4-.4.5-.7.9-1 1.5-.6 1.6-1.6 2.9-2.4 4.3-1.7 2.9-3 6.1-3.6 9.4-.134.8-.2 1.633-.2 2.5 0 .5.7.5.7 0zm13.6 72.9c.4 0 .4-.8 0-.8-.5 0-.5.8 0 .8z" fill="#fff"/><path d="M124.4 153.9c1.1-1.5 2.2-2.9 3.4-4.3 1.2-1.3 2.5-2.5 3.8-3.7.7-.7 1.4-1.2 2.1-1.9.6-.6 1-1.3 1.7-1.9.2-.2.5-.5.8-.7.2-.4.4-.7.7-1.1.2-.333.4-.633.6-.9.3-.3.4-.6.6-.9.3-.8.8-1.4 1.3-2.1.4-.6.8-1.4.7-2.1-.1-.5-.8-.3-.7.2.1.6-.5 1.3-.9 1.7-.4.6-.8 1.2-1.1 1.8-.1.4-.2.7-.5.9-.2.333-.4.633-.6.9-.2.4-.4.7-.7 1-.2.4-.6.6-.9.9-.6.5-1 1.2-1.6 1.8-.6.6-1.3 1.2-1.9 1.7-1.3 1.2-2.6 2.5-3.8 3.8-1.3 1.4-2.5 2.9-3.7 4.5-.3.4.4.8.7.4zm-11.8-83.2v-.1s0-.1.1-.1c.066-.2.166-.367.3-.5.2-.3.5-.5.8-.8.6-.8 1.1-1.8 1.2-2.8.1-.2 0-.4-.2-.4-.2-.1-.5 0-.5.2a4.117 4.117 0 01-.5 1.6 6.72 6.72 0 01-.4.7l-.2.2-.2.2c-.5.5-1.3 1.2-1.1 2 .1.5.8.3.7-.2z" fill="#fff"/><path d="M114 69.4c.1-.4 0-.9-.3-1.2-.2-.3-.5-.5-.7-.8-.4-.3-.7-.8-.9-1.2-.333-.534-.7-1.034-1.1-1.5-.3-.5-.8-.9-1.2-1.4a7.367 7.367 0 01-1-1.5c-.3-.5-.5-1-.8-1.5-.3-.4-.7-.9-.6-1.5.1-.4-.7-.6-.7-.2-.2 1.2.7 2 1.1 3 .6 1 1.2 2.1 2.1 2.9a8.43 8.43 0 011.2 1.5c.3.5.6 1.1.9 1.5.3.3.6.6.9.8.3.4.4.7.4 1.1-.1.5.7.5.7 0zm73.9-48.9v-.2l-.2.2c.7-.2 1.6-.1 2.3.1.4.1.7.2 1.1.2.4.1.8.1 1.3.1.4 0 .8.1 1.2.2.4.2.8.333 1.2.4.4.067.8.1 1.2.1.5.1.9.2 1.4.3 1.8.4 3.7.3 5.5.3 1.866.067 3.733.3 5.6.7 1.7.4 3.5.8 5.3 1.2 1.7.4 3.4.8 5 1.4.9.3 1.6.6 2.4 1 .8.3 1.6.6 2.4.8.9.3 1.7.5 2.5 1 .6.4 1.1 1 1.7 1.3.7.5 1.4.8 2 1.3.7.5 1.3 1.2 1.9 1.7 1.2 1.2 2.5 2.4 3.6 3.8 1.1 1.3 2.2 2.7 3.5 4 .6.6 1.1 1.2 1.5 1.9.4.6.8 1.3 1.2 1.9.9 1.4 2.3 2.3 3.1 3.6.5.7.7 1.5 1.1 2.2.4.8 1 1.5 1.4 2.3.4.8.833 1.6 1.3 2.4l1.2 2.4c.3.8.5 1.7.7 2.6.1.9.4 1.7.6 2.5.5 1.8.9 3.5 1 5.3.2 1.8.1 3.7.1 5.5-.1 1.8 0 3.6-.2 5.4-.2.9-.4 1.8-.7 2.6-.3.8-.7 1.5-.9 2.4-.2.8-.3 1.7-.4 2.5a1.19 1.19 0 00.2-.3c-.067.067-.134.1-.2.1-.5.1-.3.8.2.7h.2c.2-.1.3-.2.3-.3.1-.9.3-1.8.5-2.7.2-.8.6-1.6.9-2.4.7-1.7.8-3.6.8-5.4 0-1.9.1-3.8.1-5.7 0-1.8-.2-3.6-.6-5.4a22.296 22.296 0 00-.6-2.7c-.2-.8-.5-1.7-.7-2.6-.1-.9-.3-1.7-.7-2.5-.4-.9-.8-1.7-1.2-2.5l-1.4-2.4c-.4-.8-1-1.6-1.4-2.4-.3-.8-.6-1.6-1.1-2.3-.5-.6-1.1-1.2-1.7-1.8-.6-.6-1.1-1.2-1.5-1.8-.4-.7-.8-1.4-1.2-2-.5-.7-1.1-1.3-1.7-1.9a44.991 44.991 0 01-1.7-2c-1.2-1.4-2.3-2.8-3.6-4.1a51.721 51.721 0 01-2-1.9c-.6-.5-1.1-1.1-1.8-1.6s-1.4-.8-2.1-1.3c-.6-.5-1.2-1-1.9-1.4-.8-.3-1.7-.6-2.5-.8-.867-.267-1.7-.6-2.5-1-3.2-1.5-6.8-2.1-10.2-2.9-1.9-.4-3.8-.8-5.7-1-1.9-.2-3.9-.1-5.8-.2-1-.1-1.9-.3-2.8-.5-.9-.1-1.7-.1-2.5-.5-.8-.3-1.7-.2-2.5-.3-.8 0-1.5-.3-2.3-.4-.4-.067-.8-.067-1.2 0-.2 0-.4 0-.5.1-.2.2-.2.4-.3.5 0 .5.7.7.8.2z" fill="#fff"/><path d="M148.7 106.8c1.3.1 2.5-.8 3.6-1.3.9-.4 1.7-.9 2.5-1.3.9-.3 1.7-.5 2.4-1.1.4-.3.7-.5 1.1-.7.5-.2.9-.3 1.3-.6.8-.5 1.5-1.1 2.4-1.6.8-.5 1.7-.9 2.5-1.3.8-.5 1.5-1.1 2.3-1.5 1.8-.7 3.3-1.6 4.9-2.7 1.6-1.1 3.3-2.1 4.9-3.2 1.7-1.1 3.1-2.6 4.5-3.9.7-.7 1.5-1.3 2.2-2 .7-.6 1.3-1.3 2.1-1.9.7-.5 1.5-1.1 2.1-1.8.7-.7 1.1-1.5 2-2 .3-.2.7-.3 1-.6.3-.4.6-.7 1-1 .4-.2.8-.5 1.1-.7.4-.3.7-.6 1.1-.9.6-.7 1.4-1 2.2-1.5.7-.5 1.5-1 2.2-1.6 1.4-1.2 2.9-2.3 4.3-3.4 1.5-1.2 2.9-2.4 4.4-3.5 1.5-1.1 3.2-2 4.9-2.9 1.8-1 3.5-2 5.2-3.1.9-.5 1.7-1 2.3-1.8.6-.6 1.1-1.4 1.8-2 .7-.6 1.6-.8 2.3-1.3.7-.5 1.4-1.1 2-1.7.7-.6 1.5-1.1 2.2-1.7.666-.533 1.3-1.1 1.9-1.7 1.3-1.4 2.3-2.9 3.7-4.2 1.4-1.4 3.1-2.4 4.8-3.4.8-.4 1.6-.9 2.4-1.5.2-.2.3-.4.1-.6-.4-.4-.9-.2-1.2.1-.4.3.1.9.5.5.066-.133.1-.166.1-.1.066-.2.1-.4.1-.6-1.5 1.2-3.3 2-4.9 3.1-1.5 1-2.9 2.3-4.1 3.7-1.2 1.4-2.3 2.8-3.7 3.9-.7.6-1.4 1.1-2.1 1.7-.7.6-1.4 1.3-2.1 1.8-.7.5-1.6.7-2.3 1.3-.7.5-1.2 1.2-1.7 1.9-.6.7-1.4 1.3-2.2 1.8-.9.5-1.7 1.1-2.6 1.6-1.7 1.1-3.6 1.9-5.3 2.9-1.6.9-3 2-4.4 3.1-1.4 1.2-2.9 2.4-4.4 3.5-1.4 1.1-2.8 2.4-4.3 3.4-.8.4-1.5.8-2.2 1.3l-.9.9c-.4.3-.8.6-1.2.8-.4.267-.734.533-1 .8-.4.3-.6.7-1 .9-.4.2-.7.4-1.1.6-.3.3-.6.7-.9 1-.6.8-1.267 1.467-2 2-.8.6-1.5 1.2-2.2 1.9-.6.6-1.3 1.2-2 1.9-.8.667-1.567 1.334-2.3 2-.7.7-1.4 1.4-2.2 2-.8.6-1.6 1.1-2.5 1.6-1.6 1-3.2 2.1-4.8 3.1-.8.534-1.6.967-2.4 1.3l-1.2.6c-.4.2-.8.5-1.2.8-.7.5-1.6.8-2.4 1.2-.9.5-1.6 1.1-2.4 1.6-.4.3-.8.5-1.2.7-.4.3-.9.4-1.3.6-.3.2-.6.5-.9.8-.4.3-.9.4-1.4.6-.9.3-1.7.7-2.5 1.1-.6.334-1.234.667-1.9 1-.5.2-1.2.6-1.8.5-.5 0-.7.7-.2.8z" fill="#fff"/><path d="M227.9 51.2c0-.133.034-.233.1-.3v-.3a.883.883 0 00.1-.4l.1-.1c-.1 0 0 0 0-.1a1.19 1.19 0 01.2-.3c0-.067.034-.1.1-.1 0-.1-.1 0 0 0 0-.067.034-.133.1-.2.067 0 .1-.033.1-.1.067 0 .067 0 0 0h.1c.067-.066.134-.1.2-.1 0-.1-.1 0 0 0 0-.067.034-.1.1-.1.2 0 .3-.2.2-.4 0-.2-.2-.4-.4-.3-1.2.4-1.7 1.7-1.7 2.8 0 .2.2.4.4.4s.3-.2.3-.4zm-68 1.7c0 1.6.1 3.3 0 4.9-.1.8-.3 1.6-.3 2.4-.1.8 0 1.6 0 2.4-.1 1.5-.5 3-.4 4.5.1 1.6.4 3.1 1 4.6.2.6.4 1.1.4 1.7v2.5c0 .8.1 1.6.1 2.4l-.3 2.4c0 .8 0 1.6-.1 2.5l-.3 2.4V88c-.1.9-.2 1.7-.3 2.5-.1.9-.1 1.8-.1 2.7-.1.9-.3 1.7-.6 2.6-.2.8-.3 1.6-.4 2.5-.1.8-.6 1.6-.7 2.5-.1.4.6.6.7.2.1-.8.5-1.4.6-2.2.2-.8.2-1.5.4-2.3.2-.8.5-1.5.6-2.2.2-.8.1-1.6.2-2.4 0-.8.1-1.6.2-2.4.1-.9.1-1.7.1-2.5.1-.8.1-1.6.2-2.4.1-.8.2-1.6.2-2.4.1-.9.1-1.7.2-2.6.1-.7.1-1.5.1-2.2v-2.6c0-.7.1-1.5-.1-2.2-.1-.6-.4-1.2-.6-1.8-.266-.8-.466-1.6-.6-2.4-.133-.8-.2-1.6-.2-2.4.1-.7.2-1.5.3-2.3.1-.8.2-1.7.1-2.5v-1.3c.1-.5.2-.9.2-1.4.3-1.9.2-3.7.2-5.6 0-.5-.8-.5-.8 0zm-4.9 81.5c0 2.7.1 5.4-.2 8.2-.1 1.4-.1 2.7-.1 4.1v1c0 .3-.1.6-.2.9-.2.5-.2 1.1-.2 1.7v3.9c0 1.3 0 2.7-.2 4-.2 1.4-.7 2.6-.9 3.9-.3 1.3-.4 2.6-.6 3.9-.3 1.3-.6 2.5-1.1 3.8-.4 1.2-.7 2.5-1.1 3.7-.2.6-.4 1.2-.6 1.9-.1.6-.1 1.2 0 1.9 0 .6.1 1.2 0 1.9-.1.5-.3 1-.4 1.6v1.8c.066.733.066 1.433 0 2.1v4.2c0 2.7.2 5.5-.2 8.2-.2 1.3-.6 2.6-1 3.8-.4 1.3-.9 2.5-1.3 3.7-.5 1.3-.8 2.6-1 3.8-.3 1.3-.3 2.6-.3 4v2h.8V212c0-.4-.8-.4-.8 0v2.4c0 .5.8.5.8 0 0-1.4-.1-2.8 0-4.1 0-1.3.4-2.7.7-3.9.3-1.3.8-2.5 1.3-3.7.5-1.2.8-2.5 1.2-3.8.6-2.6.6-5.3.6-8s.1-5.5 0-8.3c0-.6-.1-1.2 0-1.8 0-.6.3-1.1.4-1.7.1-1.2-.2-2.5 0-3.8.3-1.3.8-2.5 1.2-3.8.3-1.3.9-2.5 1.2-3.7.3-1.3.4-2.6.6-3.9.133-.6.266-1.233.4-1.9.1-.6.3-1.3.5-1.9.6-2.6.7-5.3.6-7.9-.1-1.3-.2-2.5.2-3.7.4-1.3.1-2.6.1-3.9.1-1.4.3-2.7.4-4.1v-6.1c0-.5-.8-.5-.8 0z" fill="#fff"/><path d="M148.4 194.4c.2 1.5-.4 2.8-.9 4.2-.5 1.4-.7 2.9-1.2 4.3.267.067.5.1.7.1 0-.5 0-1 .3-1.4.3-.4-.2-.9-.5-.5-.5.5-.6 1.2-.5 1.9 0 .4.6.5.7.1.3-.7.4-1.5.6-2.3.2-.733.434-1.433.7-2.1.5-1.4 1-2.8.9-4.3-.1-.4-.9-.5-.8 0zm15.7 18.7c0-.5.2-.9.3-1.3.2-.467.334-.933.4-1.4.1-1 0-1.9.2-2.9.2-.9.4-1.9.6-2.8.3-.9.7-1.8 1-2.7.3-.8.4-1.9.9-2.7.4-.7 1-1.3 1.4-2 .5-.8 1.2-1.5 1.8-2.2.6-.7 1.1-1.4 1.7-2.2 1.1-1.3 2.2-2.7 3.1-4.2.5-.9.9-1.7 1.4-2.6.467-.8.967-1.6 1.5-2.4 1.1-1.6 2.1-3.3 3.1-5 .467-.867.934-1.7 1.4-2.5.5-.9 1-1.7 1.6-2.5.5-.9 1-1.8 1.4-2.8.4-.9.8-1.7 1.5-2.4.7-.6 1.4-1.1 2-1.7.4-.5 1.1-1.5 1.8-1.3.5 0 .7-.7.2-.8-.8-.1-1.4.3-1.9.8-.5.6-1 1.1-1.5 1.6-.7.5-1.3 1-1.8 1.7-.6.7-.9 1.6-1.3 2.5-.8 1.8-2 3.4-3 5.1-1 1.7-1.9 3.5-3 5.2-1.1 1.6-2.2 3.3-3.2 5-.4.9-.9 1.8-1.4 2.6l-1.6 2.2-1.8 2.2c-.6.8-1.3 1.5-1.9 2.3l-1.5 2.1c-.2.3-.5.6-.7 1-.2.4-.3.9-.5 1.3-.1.6-.2 1.1-.4 1.7-.2.5-.4 1-.7 1.5-.4 1-.5 2.1-.8 3.1-.2 1.1-.3 2.2-.4 3.3 0 .533-.066 1.067-.2 1.6-.2.5-.4 1-.4 1.6-.1.5.7.5.7 0z" fill="#fff"/><path d="M191.7 165.1c.9-.1 1.6-.6 2.4-.9.8-.3 1.5-.2 2.2.3.8.5 1.4 1.1 2.1 1.7.6.5 1.5.9 2.2 1.4 1.4 1.1 2.5 2.7 3.8 4 .2.3.6.6.8 1 .2.267.4.6.6 1 .1.3.3.6.5.9.2.3.6.6.6 1 .1.4.1.7.3 1.1.2.4.4.8.7 1.2.2.4.3.8.5 1.2.2.467.434.9.7 1.3.3.7.5 1.4 1 2.1.5.7 1.1 1.4 1.6 2.1.6.8.9 1.6 1.4 2.4.2.4.5.8.7 1.1.3.5.5.9.7 1.3.4.8.9 1.5 1.2 2.3l.9 2.4c.267.8.567 1.6.9 2.4.134.333.3.667.5 1 .2.4.5.7.8 1.1.4.8.7 1.6 1.2 2.4.5.7 1.1 1.4 1.6 2.1.6.6 1.3 1.2 2 1.8.7.6 1.4 1.1 2.2 1.6 1.6.9 3.3 1.5 5 2.2.867.4 1.767.733 2.7 1 .9.3 1.8.5 2.7.8 1.8.4 3.7.9 5.6.7.9-.1 1.5-.5 2.3-1 .8-.4 1.6-.8 2.5-1 .8-.2 1.7-.3 2.5-.7.8-.3 1.6-.8 2.4-1.2 1.7-.7 3.3-1.8 4.8-3 .7-.5 1.3-1.2 2-1.8.6-.7 1.4-1.3 2.1-2 .8-.667 1.567-1.333 2.3-2 .8-.6 1.5-1.3 2.4-1.8.6-.3 1.3-.6 2-.8.5-.2 1-.2 1.5-.4.4-.2.9-.4 1.1-.8.1-.5-.6-.7-.7-.2-.1.2-1 .4-1.2.4-.5.2-1 .3-1.5.5-.8.3-1.6.6-2.2 1.1-.8.6-1.5 1.2-2.3 1.9-1.5 1.2-3 2.4-4.4 3.8-.6.7-1.3 1.3-2 1.9l-2.4 1.6c-.7.5-1.6.8-2.4 1.2-.9.4-1.6.9-2.4 1.2-.9.2-1.8.3-2.6.6-.8.333-1.566.733-2.3 1.2-.4.2-.8.4-1.2.5-.4.1-.9.1-1.4.1-.9 0-1.9-.2-2.8-.4-1.8-.4-3.7-.8-5.4-1.5-1.8-.7-3.5-1.4-5.2-2.2-1.6-.8-3.1-1.9-4.4-3.1-.7-.6-1.2-1.3-1.7-2.1-.6-.7-1.1-1.4-1.5-2.3-.3-.7-.8-1.4-1.2-2.1-.4-.8-.7-1.6-1-2.4-.6-1.5-1-3.1-1.8-4.6-.5-.7-.9-1.6-1.4-2.3-.6-.8-.9-1.6-1.4-2.4-.4-.8-1-1.5-1.6-2.2-.5-.6-.8-1.2-1.2-1.9-.3-.9-.8-1.7-1.1-2.5l-.6-1.2c-.2-.4-.5-.8-.7-1.2 0-.4 0-.7-.1-1.1-.2-.3-.5-.6-.7-.9-.4-.6-.7-1.3-1.1-1.9-.5-.7-1.2-1.3-1.8-2-.6-.6-1.1-1.3-1.8-2-.6-.6-1.3-1.2-2.1-1.6-.4-.3-.7-.5-1.1-.8-.3-.3-.7-.6-1-.9-.6-.5-1.2-1-1.9-1.3-.7-.3-1.5-.3-2.2 0-.8.3-1.5.7-2.4.9-.4.1-.2.8.2.7z" fill="#fff"/><path d="M241.1 209.6c-.5.1-1 0-1.5-.3 0 .266-.033.5-.1.7.6 0 1.2 0 1.9.1.6.1 1.2.3 1.8.3.5 0 .5-.8 0-.8-.6 0-1.2-.1-1.7-.3-.7-.1-1.4 0-2 0-.4-.1-.6.5-.2.7.533.333 1.133.466 1.8.4.2 0 .4-.2.4-.4s-.2-.4-.4-.4zm-85-68.7c1.4-.1 2.7-.4 4-.9.6-.2 1.2-.5 1.8-.7a6.8 6.8 0 011.1-.1h1c.7 0 1.3-.2 1.9-.3.7-.1 1.4-.1 2.2-.1.7 0 1.4.1 2 0 .7-.1 1.4-.2 2-.4.6-.2 1.3-.3 1.9-.4.7-.2 1.4-.1 2.1-.1h8.9c.7 0 1.4-.1 2.1 0 .7.1 1.3.3 2 .3 1.5.1 3 0 4.5 0h22.3c1.3 0 2.6.1 3.9.3 1.3.2 2.6.7 3.9 1l4.2.9c1.3.4 2.6.6 4 .6.7 0 1.4-.1 2.1 0h1.2l.9.3h.9c.2 0 .3.1.4.3.1.4.2.7.4 1 .2.3.5.5.9.5.5-.1.5-.8 0-.8-.4 0-.4-.4-.5-.6-.1-.4-.3-.7-.6-.9a.68.68 0 00-.5-.2c-.4 0-.7 0-1-.1-.667-.2-1.367-.3-2.1-.3-1.4 0-2.8.1-4.3-.1-1.3-.3-2.6-.7-3.9-.9-1.4-.3-2.8-.6-4.2-1-1.2-.4-2.434-.633-3.7-.7-1.4-.1-2.9-.1-4.3 0h-4.5c-5.9 0-11.8-.1-17.8 0-.7 0-1.5 0-2.2-.1-.7 0-1.4-.1-2-.2-1.5-.2-3-.1-4.4-.1h-4.4c-1.4 0-2.8-.1-4.2.1-1.4.2-2.6.7-3.9.8-1.5.2-2.9-.1-4.3.1-.6.1-1.2.4-1.9.4s-1.3-.1-2 .1c-1.3.2-2.5.9-3.8 1.2-.734.2-1.434.334-2.1.4-.5.1-.5.8 0 .7zm27.2-55.5c.1.6.5 1.1.6 1.6.3.7.3 1.4.5 2 .2.7.4 1.3.6 2 .2.667.3 1.333.3 2 .1 1.3.1 2.7 0 4 0 .667.066 1.367.2 2.1.1.6.2 1.3.2 1.9 0 .7 0 1.4.1 2 .1.7.3 1.3.2 2 0 .7.1 1.3.3 1.9.3.6.5 1.2.4 1.8 0 .6.2 1.1.5 1.7.2.6.3 1.2.3 1.8.1 1.2 0 2.4-.1 3.7 0 1.5.2 3.1-.2 4.6-.4 1.5-.5 3-.5 4.6 0 .4.8.4.8 0 0-1.4 0-2.8.3-4.2.4-1.3.4-2.6.4-4 0-1.3.1-2.6.1-3.8 0-.667-.034-1.3-.1-1.9-.1-.6-.4-1.1-.6-1.7-.2-.5 0-1.1-.2-1.7-.1-.6-.4-1.2-.6-1.8-.1-.7.1-1.4-.1-2.1-.1-.6-.2-1.3-.2-2-.1-.6 0-1.3-.1-1.9-.1-.7-.3-1.4-.3-2.1-.1-1.4 0-2.8 0-4.1 0-.733-.067-1.467-.2-2.2-.1-.8-.4-1.5-.6-2.3-.3-.7-.4-1.4-.5-2.1l-.4-1c-.1-.3-.3-.6-.4-1-.1-.4-.8-.2-.7.2z" fill="#fff"/><path d="M249.5 85.8c.1.5.4.9.4 1.4 0 .5-.1.9-.1 1.4v3.2c0 .5.1 1 0 1.5 0 .5-.2 1-.4 1.5s-.3 1-.5 1.5c-.1.6-.4 1-.7 1.5-.1.4-.2.8-.2 1.3 0 .6-.1 1.1-.2 1.7-.3 1.1-.6 2.1-.8 3.2a54.575 54.575 0 00-.3 3.1c0 1.1 0 2.1-.1 3.2s-.4 2.1-.6 3.2c-.1 1.1-.3 2.1-.5 3.1-.5 2.1-1.3 4-2 6-.4 1.067-.767 2.1-1.1 3.1-.3 1-.5 2-.8 2.9-.2.5-.5.9-.7 1.4-.2.4-.2.9-.2 1.3-.1 1.1-.4 2.2-.7 3.2-.5 2.1-1 4.3-1.4 6.4-.1 1.1-.2 2.1-.3 3.2-.1 1.1-.4 2.2-.6 3.3-1 4.3-.8 8.7-.8 13.1 0 1 0 2 .2 3 .2 1.1.1 2.2.1 3.3 0 1 .4 2 .4 3.1 0 .4-.1.9 0 1.3 0 .4.2.8.3 1.3.3.9.2 1.9.4 2.8.3 1.1.7 2 .8 3.1.1.9.2 1.9.6 2.7.3.7.8 1.2 1.4 1.6.6.5 1.3.9 1.9 1.3.8.5 1.5 1 2.4 1.4 1.5.7 3.4 1 5.1.8 1.7-.2 3.4-1 4.7-2.2.7-.6 1.3-1.2 2-1.8.8-.667 1.667-1.233 2.6-1.7 1-.5 2-.3 2.9-.6.2 0 .3-.1.3-.2 0-.133.033-.233.1-.3.1-.5-.7-.7-.8-.2v.3c.067-.133.133-.233.2-.3-.9.3-1.9.1-2.8.5-.9.4-1.7 1-2.5 1.6-1.4 1-2.5 2.5-4.1 3.3-1.7.9-3.7 1.1-5.6.7-.8-.2-1.6-.5-2.4-.9-.7-.4-1.4-.9-2.1-1.4-.7-.4-1.4-.7-1.9-1.3-.7-.6-1-1.4-1.1-2.3-.2-.9-.2-1.9-.5-2.9s-.6-1.8-.7-2.9c0-.4 0-.8-.1-1.3s-.4-.9-.4-1.4c0-.4.1-.9 0-1.3 0-.5-.1-1-.2-1.5-.2-1.1 0-2.2-.1-3.2 0-1-.3-2-.3-3-.1-2.2 0-4.4 0-6.6 0-2.2.1-4.3.4-6.4.2-1.1.5-2.1.7-3.2.2-1 .3-2.1.4-3.1.2-2.2.7-4.3 1.2-6.4l.8-3.2c.1-.4.2-.9.2-1.3.1-.6.1-1.1.3-1.7.2-.4.5-.7.6-1.2.2-.4.2-.9.4-1.4.2-1 .6-2 .9-3 .7-2 1.5-4 2.1-6 .6-1.9.9-3.9 1.3-6 .2-.9.4-1.9.4-2.9.1-1.1 0-2.2.1-3.2.067-1.066.233-2.133.5-3.2.3-1.1.6-2.1.8-3.2v-1.4c.1-.5.4-.9.6-1.4.2-.4.4-.9.5-1.4.1-.5.4-1 .5-1.6.3-.9.2-1.8.2-2.8 0-1-.1-2.1 0-3.1 0-.4.1-.9 0-1.3 0-.4-.3-.8-.4-1.3-.1-.5-.8-.3-.7.2zM142.8 28.5v-.3c-.1-.5-.7-.5-.8 0-.1 1 .4 1.8.8 2.6.5 1 .8 2 1.1 3.1.3 1.5.5 3 .8 4.4.2.7.4 1.4.8 1.9.4.6 1 .8 1.7.7 2.1-.2 4-1.2 5.8-2 1-.5 2-.9 3.1-1.4.467-.267.967-.5 1.5-.7.5-.3 1-.4 1.6-.7.5-.2 1-.4 1.4-.7.3-.4.7-.8 1.2-.8.9-.1 1.6.6 2.1 1.2.6.7 1.1 1.4 1.7 2.1.7.7 1.5 1.4 2.1 2.2 1.5 1.7 2.1 3.8 3.4 5.6.4.6.8 1.2 1.5 1.4.8.2 1.7-.1 2.4-.4.9-.5 1.7-1.1 2.6-1.7.9-.6 1.8-1.1 2.8-1.7 1-.533 2.034-1.1 3.1-1.7 1-.5 2.1-1 3.2-1.5.5-.2.9-.4 1.3-.8.3-.2.5-.7.9-.8.7-.2 1.4.1 2 .4 1.5.8 2.7 1.9 4 2.8 1.7 1.2 3.6 2.1 5.3 3.3 1.4 1.1 2.4 2.8 4.2 3.4 1.9.6 3.9-.7 5.4-1.6 1.9-1.1 3.6-2.5 5.4-3.7 1.4-.8 2.7-2 4.3-2.5.7-.3 1.2-.3 1.9 0 .7.4 1.4.8 2.1 1.3l.8.6c.4.3.8.7 1.2 1.1.8.6 1.8.9 2.7 1.4.8.4 1.3 1.2 2.2 1.5 0-.2-.033-.4-.1-.6-.3.1-.5.4-.5.8 0 .5.7.5.8 0 0-.133.034-.2.1-.2.3-.2.2-.6-.1-.7-.9-.3-1.4-1.2-2.3-1.6-.5-.2-.9-.4-1.4-.6-.5-.3-.9-.6-1.3-1-1.1-1-2.5-2-3.9-2.7-.7-.2-1.2-.3-1.9-.2-.8.2-1.5.6-2.2 1-.7.4-1.4.9-2 1.3-.8.6-1.6 1.1-2.4 1.6-1.8 1.3-3.6 2.5-5.5 3.5-.9.4-1.8.8-2.8.6-.8-.1-1.5-.7-2.1-1.2-.7-.7-1.4-1.4-2.2-2-.7-.7-1.6-1.2-2.4-1.7-.9-.5-1.8-1-2.6-1.5-.7-.5-1.3-1-2-1.5-1.2-.9-2.5-2-4.1-2.1a3.72 3.72 0 00-.9.1c-.5.2-.6.5-.9.8-.8.8-2.1 1.2-3.1 1.6-2.1 1-4.1 2.1-6 3.3-.9.5-1.7 1.2-2.6 1.7-.8.6-1.7 1.1-2.7 1.2-.7.1-1.2-.5-1.6-1.1-.6-.9-1.1-1.9-1.6-2.9-.5-.9-.9-1.8-1.6-2.6-.6-.7-1.4-1.4-2.1-2.2-.6-.6-1.2-1.3-1.8-2.1-.5-.6-1-1.2-1.8-1.5-.333-.133-.7-.2-1.1-.2-.5.1-.8.3-1.1.6-.5.4-.9.7-1.5.9-.5.3-1 .5-1.5.7-1.1.4-2.1.9-3.1 1.4-1 .467-2.033.934-3.1 1.4-1 .4-2 .9-3.1 1.2-.6.1-1.6.4-2 0-.5-.5-.7-1.2-.8-1.8-.2-.733-.366-1.467-.5-2.2-.3-1.7-.6-3.6-1.3-5.2-.5-.9-1-1.6-.9-2.6h-.8v.3c0 .5.8.5.8 0z" fill="#fff"/><path d="M143.6 28c0 2.8.8 5.4 1 8.1.1 1.1 0 2.2.2 3.3.1.8.4 1.9 1.4 2 1 .1 1.9-.6 2.7-1 1.1-.5 2.2-1 3.4-1.2 2.7-.6 5.3-1.5 7.6-2.9a19.198 19.198 0 011.6-.9c.3-.3.8-.6 1.3-.6.6.1.9.7 1 1.1.2.6.3 1.1.5 1.6.4 1.1 1.4 1.6 2.1 2.5.5.4.8 1 1.1 1.6.333.6.633 1.2.9 1.8.5.9.9 1.9 1.4 2.8.5.8 1.1 1.7 2.1 1.7 1 .1 1.9-.6 2.8-1.1.5-.2 1-.5 1.5-.7.6-.333 1.2-.7 1.8-1.1.5-.4 1.1-.7 1.5-1.1.4-.4.8-.8 1.3-.9.7-.3 1.4-.3 2.1-.5.6-.2 1.233-.4 1.9-.6 1-.3 2-.7 3-1.1.8-.3 1.7-.5 2.4-1 .3-.2.5-.5.6-.8.2-.4-.5-.6-.7-.2-.1.3-.4.4-.6.5l-1.2.6c-.9.3-1.7.6-2.6 1-.6.2-1.2.367-1.8.5-.7.2-1.3.4-1.9.5-.6.2-1.3.2-1.8.5-.5.2-.8.6-1.2.9-1 .9-2.1 1.6-3.3 2.2-.5.2-1 .5-1.4.7-.5.3-.9.5-1.3.7-.4.2-.9.4-1.4.2-.4-.1-.7-.6-.9-.9-.6-.8-1-1.8-1.4-2.7a31.9 31.9 0 00-1.8-3.3 4.37 4.37 0 00-1-1.2c-.4-.4-.8-.7-1.1-1.1-.8-.9-.6-2.1-1.2-3-.6-.9-1.5-1-2.5-.6-1 .5-2 1.3-3 1.8-1.1.7-2.4 1.1-3.6 1.6-1.3.3-2.5.6-3.8 1-1.1.3-2.1.8-3.2 1.3-.5.3-1.8 1.1-2.3.3-.4-.8-.4-1.9-.4-2.7 0-1.3-.1-2.5-.3-3.7-.2-1.3-.5-2.6-.7-3.9-.067-.667-.1-1.333-.1-2 0-.5-.7-.5-.7 0z" fill="#fff"/><path d="M191 39.1h-.2c.067.066.1.066.1 0a.657.657 0 00-.3.3c.6-.2 1 .6 1.3 1 .5.6 1.1 1 1.8 1.3.7.5 1.5.9 2.2 1.4.8.5 1.5 1 2.2 1.5.7.5 1.5.8 2.2 1.3.734.4 1.367.867 1.9 1.4.5.5.9 1.1 1.4 1.7.4.4.9 1 1.5 1 .5 0 1-.4 1.4-.7.4-.3.8-.7 1.3-1.1.6-.5 1.4-.8 2.1-1.2a52.524 52.524 0 012.6-1.5c.9-.4 1.7-.8 2.6-1.3.8-.4 1.5-.9 2.3-1.4.7-.5 1.5-1 2.2-1.4l1.2-.6c.3-.2.6-.5 1-.4.3 0 .6.2.8.5.267.2.534.467.8.8.6.6 1.2 1 1.9 1.4 1.7 1 3.2 2 4.6 3.3.4.4.9-.1.6-.5-1.3-1.2-2.7-2.2-4.1-3.1-.7-.4-1.5-.7-2.1-1.3-.4-.4-.8-.9-1.3-1.4-.6-.4-1.2-.6-1.8-.4-.4.1-.7.4-1 .5-.466.267-.9.5-1.3.7-1.5 1-3 2.1-4.6 2.9-1.8.867-3.566 1.8-5.3 2.8-.7.4-1.3.7-1.9 1.2-.5.4-.9.8-1.4 1.2-.2.1-.4.3-.6.3-.2 0-.5-.3-.6-.5-.5-.5-.9-1.1-1.4-1.6a10.283 10.283 0 00-1.8-1.6c-.7-.5-1.5-.9-2.2-1.3-.9-.5-1.7-1.1-2.5-1.7-.8-.6-1.7-1-2.5-1.5-.5-.3-.9-.5-1.3-.9-.2-.2-.4-.4-.6-.7-.5-.5-1-1-1.8-.9l-.3.3c-.1.6.3.9.9.9.5 0 .5-.8 0-.7z" fill="#fff"/></g><defs><clipPath id="clip0_39_37184"><path fill="#fff" d="M0 0h278v229H0z"/></clipPath></defs></svg>