<svg version="1.2" xmlns="http://www.w3.org/2000/svg" viewBox="0 0 278 229" width="278" height="229"><style>.b{fill:#afe8d9}.c{fill:#fff}.d{fill:#6fcfa1}.e{fill:#222221}</style><path d="M129.2 151.7s-39-19.6-46.3-33.3c-7.2-13.8-16.6-21-17.3-31.9-.8-10.8-.8-26.8 15.2-24.6 15.9 2.2 28.2 6.5 31.8 12.3 3.5 5.6 3.6 5.8 3.6 5.8-9.9-15.8 20.3-31.1 30.9-19 2.6 2.9 4 6.7 5 10.5 6.1 22 3.7 47.2-9.1 66.5-5.8 8.6-13.8 13.7-13.8 13.7z" fill="#0fa6a6"/><g style="mix-blend-mode:multiply"><path class="b" d="M162.6 141.2l-9.8 72.4 16.4.8 26.3-48.5s5.9-1.5 9.2 3.6c3.2 5.1 16.4 31.8 19 34 2.6 2.2 10.5 8.7 19 6.5 8.6-2.1 23-15.9 23-15.9l-5.9-15.2-10.5 6.5s-12.5 3.6-13.1-14.5c-.7-18.1 1.3-28.2 1.3-28.2s-33.5-12.3-74.9-1.5z"/><path fill-rule="evenodd" class="b" d="M169.3 214.5l-16.7-.7v-.2l9.9-72.5h.1c21.4-5.6 40.6-4.9 53-3.4 13.4 1.8 21.9 4.8 22 4.9h.1v.1c-.1.1-2 10.4-1.4 28.2.3 6.4 2 10.7 5.1 13 3.4 2.5 7.5 1.5 7.8 1.4l10.7-6.6 6 15.5h-.1c-.1.2-14.6 13.8-23 16q-1.8.4-3.6.4c-7.2 0-13.4-5.1-15.6-7-1.6-1.3-7.1-11.7-11.9-20.9-3-5.7-5.9-11.2-7.2-13.1-3-4.7-8.3-3.7-8.9-3.6zm-16.4-1l16.2.7 26.3-48.5c.1 0 6.1-1.4 9.4 3.7 1.3 2 4.1 7.4 7.2 13.2 4.8 9.1 10.2 19.5 11.8 20.8 2.6 2.1 10.4 8.6 18.9 6.5 8.1-2.1 21.7-14.8 22.8-15.8l-5.8-15-10.3 6.4c-.1.1-4.5 1.3-8.2-1.4-3.2-2.3-4.9-6.7-5.2-13.2-.6-16.8 1.1-26.9 1.3-28.1-1-.4-9.2-3.2-21.7-4.8-12.4-1.5-31.5-2.2-52.8 3.3z"/></g><path class="c" d="M109.7 62.6l3.6 6.6s5.8-8.7 14.5-9.4c8.7-.8 17.4 5.8 20.3 13 2.9 7.2 2.9 8 2.9 8l13-5.1-2.1 25.3 26-13.7 3.6 40.5-31.1 10.9s-3.6 9.4 0 8.7c3.6-.7 75.3-3.6 79.6-.7 4.4 2.9 16-54.3 16-57.2 0-2.9 2.9-29.7-3.6-36.2-6.5-6.5-9.4-8.7-9.4-8.7l-6.5 6.5-13.1-8L208.9 54l-16.6-11.6-18.1 10.9-9.4-16-15.2 8-3.7-16s-31.8 25.4-36.2 33.3z"/><g style="mix-blend-mode:multiply"><path class="b" d="M146 25l2.8 14.5 16-2.2 7.9 9.4 16.7-7.2 17.4 9.4 16.6-5.8 8 2.2 9.4-3.6s-5.1-13.8-15.9-15.2c-10.9-1.5-32.6-5.8-39.8-5.8-7.3 0-33.4 0-39.1 4.3z"/><path fill-rule="evenodd" class="b" d="M206.8 49.1h-.1l-17.3-9.4-16.7 7.2-8-9.4-16 2.2-2.9-14.8h.1c3.8-2.9 17-4.4 39.2-4.4 4.6 0 15 1.8 25.1 3.5 5.5.9 10.8 1.8 14.7 2.3 10.8 1.5 16 15.2 16 15.3l.1.2-9.6 3.7-8-2.2zm-17.3-9.8v.1l17.4 9.4 16.6-5.8 8 2.2 9.2-3.6c-.6-1.4-5.7-13.6-15.8-15-3.9-.5-9.1-1.4-14.7-2.3-10-1.7-20.4-3.5-25.1-3.5-21.9 0-35 1.4-38.9 4.3l2.8 14.2 15.9-2.1 8 9.4z"/></g><path class="c" d="M199.5 5.5s-7.9 0-8.6 2.1c-.8 2.2-6.6 9.5-2.9 10.9 3.6 1.5 13.7 3.6 15.9 2.9 2.2-.7 7.2-7.2 6.5-9.4-.7-2.2-10.9-6.5-10.9-6.5zm-139 91.2L46 103.2l5.1 1.4-5.1 3.6 5.8.8s-8.7 5-5.8 5c2.9 0 8 .8 8 .8l-2.9 3.6s20.2 2.2 26 1.4c5.8-.7-16.6-23.1-16.6-23.1zM99.6 67l10.1 10.1 3.6-7.9-3.6-6.6zm84.7 20.3l4.3 33.3s-11.6 9.4-28.2 12.3c-16.7 2.9-21.7-2.9-21.7-2.9l-2.2-2.9v-4.3l2.2-4.4-4.4-1.4s13.1-8 17.4-10.2c4.4-2.1 32.6-19.5 32.6-19.5z"/><g style="mix-blend-mode:multiply"><path class="d" d="M25.7 173.4S6.9 153.8 7.6 137.9c.7-15.9-4.3-26.8 8.7-26.1 13 .8 17.4 2.9 18.8 6.6 1.5 3.6 1.5 13.7 1.5 13.7s6.5-9.4 16.6-8.7c10.2.8 16.7 2.9 16 8-.8 5.1.7 13-9.5 23.2-10.1 10.1-34 18.8-34 18.8z"/><path fill-rule="evenodd" class="d" d="M25.7 173.6l-.1-.1c-.2-.2-18.9-19.8-18.1-35.6.1-4.1-.1-7.8-.2-11.2-.4-6.2-.6-10.7 1.9-13.2 1.4-1.4 3.7-2 7.1-1.8 12 .7 17.3 2.5 19 6.6 1.3 3.2 1.4 11.3 1.4 13.4 1.4-1.8 7.6-9.1 16.5-8.4 8.2.6 13.2 2.1 15.2 4.5q1.2 1.6.9 3.6c-.1.9-.2 1.9-.2 2.9-.4 5-.8 11.9-9.3 20.4-5.2 5.2-14.2 10.1-20.8 13.2-7.2 3.4-13.2 5.6-13.3 5.6zM15.2 112c-2.7 0-4.5.6-5.7 1.8-2.4 2.3-2.2 6.8-1.8 13 .1 3.3.3 7.1.1 11.2-.6 15.2 16.8 34 18 35.3.8-.3 6.5-2.4 13.1-5.6 6.6-3.1 15.6-7.9 20.8-13.2 8.4-8.3 8.8-15.2 9.1-20.2.1-1 .2-2 .3-2.8q.3-2-.9-3.4c-1.9-2.4-6.8-3.9-14.9-4.4-9.9-.8-16.4 8.5-16.5 8.6l-.3.4v-.5c0-.1 0-10.2-1.4-13.7-1.6-4-6.8-5.8-18.7-6.4q-.6-.1-1.2-.1z"/></g><path class="c" d="M9.8 138.6s-2.2-15.2 2.2-17.3c4.3-2.2 3.6 6.5 2.8 9.4-.7 2.9-.7 7.2-5 7.9zm71.7-34s-12.3-7.9-11.6-14.5c.7-6.5-.7-18.8 5.1-17.3 5.8 1.4 3.6 5 4.3 12.3.7 7.2 2.9 12.3 4.3 15.9 1.5 3.6-2.1 3.6-2.1 3.6z"/><path class="e" d="M155.9 134.4c-.3 13.2-1.6 26.4-3.5 39.4q-1.4 9.6-3.2 19.2c-.5 2.9-1.2 5.8-1.5 8.7-.4 2.7-.6 5.4-.9 8.1-.3 3-.8 6.1-1.8 8.9-1 3.1-2.7 5.9-4.9 8.2-.2.2-.1.5.1.6 1.5.9 3.2.9 4.7.2.8-.4 1.3-.9 2-1.4q1.1-.7 2.4-1.2c1.5-.7 3.1-1.2 4.7-1.8q1-.4 2-1c.6-.4 1.2-.9 1.8-1.3 2.1-1.4 5.1-1.7 6.9-3.6.9-1 1-2.2 1.3-3.5q.4-2.3 1.1-4.6c1.9-6.7 5-13 8.3-19.2 3.3-6 6.9-11.9 10.4-17.8.7-1.3 1.4-2.7 2.5-3.8.9-1 2.1-1.8 3.5-2.2 2.5-.9 5.4-.5 7.6 1.1 1.4 1 2.4 2.4 3.4 3.8q1.6 2.2 2.9 4.5c1.9 3.1 3.5 6.3 5.2 9.5 1.9 3.6 3.9 7 6.1 10.4 1.8 2.7 3.6 5.3 5.7 7.8 2 2.3 4.4 4.3 7.2 5.7 3.1 1.5 6.5 2.1 9.9 2 3.9-.1 7.8-1.1 11.4-2.5 1.6-.6 3.1-1.2 4.6-2 1.1-.7 2.2-1.4 3.3-2.3 2.4-1.8 4.8-3.8 7.3-5.5 1.1-.7 2.3-1.4 3.5-1.8.6-.1 1.2-.3 1.7-.2.6.2 1.2.6 1.8 1 1.1.7 2.3 1.6 3.6 1.8.2 0 .4 0 .5-.2 1.3-2.4-.2-4.7-1.6-6.7-.7-1.1-1.5-2.2-2.1-3.4-.5-1.1-.9-2.2-1.4-3.3-1-2-2-4.1-3.9-5.5-.7-.6-1.9-1.2-2.8-1.2-.4 0-.9.2-1.2.4q-.9.4-1.7.8c-2.2 1.2-4.4 2.6-6.7 3.9-2.2 1.2-4.7 2.4-7.2 2.7-1.7.2-3.3-.1-4.6-1.2-1.2-.9-2.1-2.2-2.8-3.6-1.7-3.5-2.4-7.5-2.7-11.3-.4-3.6-.5-7.3-.1-10.9.1-2 .5-4 .7-6 .5-3.5 1-7 1.6-10.5 1.3-6.8 3.3-13.5 5-20.3 3.2-12.2 6-24.5 6.6-37.1q.2-2.5.2-5.1c0-.5-.7-.5-.7 0q-.2 9.8-1.8 19.5c-1 6.1-2.4 12.2-3.9 18.2q-1.2 4.9-2.5 9.8c-.9 3.4-1.9 6.8-2.7 10.2-.7 3.4-1.3 6.8-1.8 10.2-.5 3-.8 6.1-1.2 9.1-.5 3.2-.6 6.5-.4 9.7.2 4 .6 8 1.8 11.7.9 2.9 2.4 6.2 5.2 7.7 3.8 2 8.5-.4 11.9-2.3 2.2-1.2 4.4-2.6 6.7-3.8l1.4-.8c.3-.1.5-.2.8-.3.3 0 .7.2.9.2 1.1.4 2 1.1 2.7 2 1.6 1.8 2.4 4.1 3.4 6.2.5 1.2 1.1 2.3 1.8 3.4s1.6 2.2 2.2 3.5c.6 1.2.9 2.5.2 3.7l.4-.2c-1.4-.2-2.7-1.3-3.9-2-1.1-.6-1.9-.9-3.1-.6-2.6.6-4.9 2.4-6.9 3.9-2.4 1.8-4.7 3.8-7.2 5.4-1.4.9-2.9 1.5-4.4 2.1q-2.7 1.1-5.5 1.8c-3.8 1-7.9 1.3-11.8.5-3.2-.7-6.1-2.3-8.5-4.4-2.4-2.1-4.4-4.7-6.2-7.3q-3.3-4.7-6.1-9.6c-3.6-6.3-6.5-13.1-11-18.9-.9-1.1-1.8-2.3-3.1-3.1-1.1-.8-2.3-1.2-3.6-1.4-2.5-.4-5.1.2-7.1 1.8-1 .8-1.8 1.8-2.5 3l-2.4 4q-2.7 4.4-5.2 8.8c-3.6 6.1-7 12.3-9.7 18.9-1.2 3-2.3 6.1-3.2 9.3-.3 1.5-.5 3-.9 4.4-.4 1.3-1.4 2.1-2.5 2.6-1.2.6-2.6 1-3.8 1.6-1.3.7-2.4 1.8-3.8 2.5-2.9 1.4-6.2 2-8.8 4-.8.5-1.5 1-2.5 1.3-1.1.2-2 0-3-.5q.1.3.1.6c3.9-4.1 5.8-9.3 6.6-14.7.4-2.7.6-5.4.9-8.2.3-2.9.7-5.7 1.3-8.6 2.5-13 4.6-26.2 5.9-39.4.7-7.4 1.2-14.8 1.3-22.2.1-.5-.7-.5-.7 0zm-5.4-53.5c2.1-1.7 4.2-3.5 6.5-5q1.7-1.3 3.6-2.4c.2-.1.5-.4.7-.4h.4c.2.1.1.1.1.2.2.8.3 1.5.4 2.3.2 2.9-.2 5.9-.3 8.8-.1 1.4-.3 2.8-.6 4.2l-.8 4.2c-.5 3-1 6.1-.9 9.2 0 .4.8.4.8 0-.1-3 .3-5.9.8-8.8l.8-4.4c.3-1.4.6-2.8.6-4.2.2-3.2.6-6.3.3-9.4-.1-.7-.2-1.4-.3-2.2-.1-.5-.7-.6-1.2-.7-.3 0-.5.2-.8.4q-.5.2-1 .5-1 .6-1.9 1.3c-2.7 1.8-5.3 3.8-7.8 5.9-.4.3.2.8.6.5zM63.2 95.4c-1.9 1.2-3.9 2.1-5.9 2.8-1.9.7-3.8 1.3-5.7 2-2.1.7-4.1 1.6-6 2.7-.4.3-1 .5-1.3.9-.2.3-.2.6-.1.9.2.9 1 1.5 1.8 1.8 2.2 1 4.7.8 6.9 0 .2-.1.4-.4.2-.6-.1-.3-.4-.6-.8-.6-.2 0-.5.2-.6.5 0 .3.1.6.3.7.3.2.7.1 1-.1.2-.1.3-.4.1-.5-1.7-1.6-4.8-1.5-6.5.1-.7.7-1.2 1.9-.8 2.9.4.8 1.5 1.2 2.4 1.3 1 .2 2.1.2 3.2.2q-.1-.3-.3-.6l-.1.2s.1.1.2.1c0 .1-.1.2-.2.2l.3.1q-.1-.4-.1-.7c-.8.8-1.7 1.4-2.5 2.1-.8.7-1.9 1.6-2 2.8 0 1.2 1.5 1.6 2.5 1.5l2.4-.3c.4 0 1.3 0 1.4.6.1.7-.7 1.4-1.1 1.8-.6.5-1.3 1-1.6 1.7-.1.2-.1.5.2.6 3.7.8 7.5 1.4 11.4 1.4 3.6.1 7.3-.3 10.9-1q3.3-.7 6.5-1.6c.4-.2.2-.9-.2-.8-3.7 1.1-7.4 2-11.2 2.4-3.5.4-7.1.4-10.6 0q-3.3-.4-6.6-1.2l.2.6c.3-.6.9-1.1 1.4-1.5.5-.5 1.1-1 1.4-1.7.2-.6.1-1.3-.5-1.7-.5-.4-1.3-.4-1.9-.3-.8 0-1.5.2-2.3.3-.5 0-1.1-.1-1.4-.5-.2-.2-.1-.6.1-.9.3-.5.7-1 1.2-1.4.9-.8 1.9-1.5 2.8-2.3.2-.2.1-.6-.2-.7-.3-.1-.6-.1-.9.1-.2.2-.2.4-.2.7.1.2.4.4.6.4.4-.1.6-.3.8-.6.1-.3-.1-.6-.4-.6-.8 0-1.6.1-2.4 0-.7-.1-1.7-.2-2.2-.7-.7-.6-.3-1.5.1-2.1.6-.8 1.6-1.2 2.6-1.3 1-.1 2.2.1 3 .9q.1-.3.1-.6l-.2.1c0-.1.1 0 .1.1-.1-.1 0 0 0 0l-.2.1.2.2q.1-.3.2-.5c-1.9.6-3.9.9-5.8.2-.7-.2-1.7-.6-2-1.4-.1-.4.2-.5.5-.7q.8-.5 1.5-.9c3.4-1.8 7.1-2.8 10.7-4.1 2.1-.8 4.1-1.7 6-2.8.4-.3 0-.9-.4-.7zm103.8-76c-6 .9-11.8 2.4-17.4 4.6q-4.3 1.7-8.3 3.8c-2.7 1.4-5.3 3-7.7 4.7-4.4 3.1-8.5 6.5-12.4 10.3-3.7 3.6-7.1 7.5-10.5 11.4-3.5 4.1-7 8.3-10.6 12.4l-1.4 1.6c-.3.3.2.9.6.5 3.6-4.1 7.1-8.2 10.6-12.4 3.3-3.9 6.7-7.8 10.4-11.5 3.7-3.8 7.7-7.3 12-10.4 2.3-1.7 4.7-3.4 7.2-4.8q4.1-2.3 8.3-4.1c5.5-2.3 11.3-4 17.2-5l2.2-.4c.4 0 .2-.7-.2-.7z"/><path class="e" d="M167.8 20c8.5.2 17.1.4 25.6 1.1q6.1.5 12.2 1.3 3.3.4 6.7.9c2.1.3 4.2.5 6.3 1 7.3 1.6 13.4 6.4 18.5 11.6 2.6 2.7 5 5.6 7.3 8.6 1.1 1.4 2.3 2.9 3.3 4.4q1.4 2.4 2.5 5c2.9 7 3.7 14.9 3.5 22.5q-.1 1.3-.2 2.7c0 .5.8.5.8 0 .5-7.7 0-15.6-2.5-23-1.1-3.5-2.8-6.8-5-9.8-2.3-3-4.7-6-7.2-8.8-5-5.5-10.8-10.6-17.9-13.1-1.8-.6-3.6-1-5.5-1.3l-6.8-1q-6.4-.8-12.7-1.4c-8.5-.8-16.9-1.2-25.4-1.4h-3.5c-.5 0-.5.7 0 .7z"/><path class="e" d="M156.9 103.4c-4.6 2.6-9.2 5.4-14.1 7.7-1.6.7-3.2 1.4-4.8 2.2-1 .6-2.6 1.6-2.4 3 .2 1.9 2.9.9 4.1 1.5q-.1-.3-.2-.5s-.2.3-.2.4q-.2.1.1.2.2.1.1 0l.1-.1h.3q-.2-.3-.4-.5c-.9 1.9-3.3 2.7-4.1 4.7-.3 1.1-.2 2.5.5 3.4 1 1.3 2.9.6 4 0 .5-.3.1-.9-.3-.7q-.4.2-.8.3.2.4.3.7.4-.2.7-.3-.1-.3-.3-.6c-.7.8-1.9.8-2.6 1.7-.7.7-.8 1.7-.2 2.6.6.9 1.6 1.4 2.6 1.8 1 .4-.1 2.4-.5 2.9-.1.2 0 .5.2.6 4.1 1.8 8.5 2.3 12.9 1.9 4.6-.5 9-2 13.3-3.6 4.4-1.6 8.8-3.1 13.3-4.5q3.3-1 6.7-1.8 1.8-.5 3.5-.9.8-.2 1.7-.3c.2-.1.5-.1.7-.2.3-.1.6-.4.9-.5 7.8-4.4 17-5.5 24.9-9.8 7.4-4 14.4-8.9 20.8-14.4q2.5-2.2 4.8-4.4c.3-.3.7-.6.9-1 .3-.3.4-.7.6-1.1.2-.5.5-.7.8-1.1q.7-.6 1.3-1.3c1.4-1.5 2.6-3.3 3.8-5q.9-1.4 1.8-2.7c.6-.9 1.2-1.6 1.5-2.6.3-.9.5-1.9 1.1-2.7.3-.4-.4-.8-.7-.4-.5.8-.8 1.7-1 2.6-.3 1-.9 1.8-1.5 2.6-1.2 1.8-2.3 3.6-3.6 5.3q-1 1.3-2.1 2.5-.5.6-1.1 1.2c-.3.3-.7.6-.9 1-.1.3-.2.7-.4 1-.3.5-.8.9-1.1 1.2q-1.2 1.1-2.3 2.2c-6.2 5.6-12.9 10.5-20.1 14.7-1.9 1.2-3.8 2.3-5.9 3.2-2 .9-4.1 1.6-6.2 2.3-4.1 1.4-8.3 2.6-12.3 4.3q-1.5.7-2.9 1.4c-.5.3-1 .7-1.6.8-.6.2-1.2.3-1.8.4q-3.4.8-6.7 1.7c-4.5 1.2-8.8 2.6-13.1 4.2-4.4 1.5-8.7 3.3-13.2 4.3-4.3.9-8.9 1.1-13.2-.1q-1.7-.4-3.2-1.1 0 .3.1.5c.6-.8 1.1-2 .9-3-.2-1-1.1-1-1.8-1.4-.9-.6-2.1-1.7-1.2-2.8.3-.4.8-.6 1.3-.8.5-.2 1-.5 1.3-.9.2-.3 0-.8-.4-.6q-.4.1-.8.3c-.4.2-.2.9.2.7q.5-.1.9-.3-.2-.4-.3-.7c-.7.4-1.5.7-2.3.6-.7-.1-1-.5-1.1-1.2-.3-.9-.2-1.8.4-2.6 1-1.4 2.8-2.2 3.6-3.9.1-.2 0-.5-.3-.5-.6-.1-1.3.4-1.1 1.1.1.2.4.4.6.3.4-.1.6-.5.8-.9.1-.1 0-.4-.2-.5-.5-.3-1.2-.3-1.9-.3-.5 0-1.6.1-1.8-.5-.1-.6.5-1.1.9-1.4.5-.5 1.1-.9 1.8-1.2 1.5-.8 3.1-1.4 4.6-2.2 2.2-1 4.4-2.2 6.5-3.4 2.4-1.3 4.8-2.7 7.2-4 .5-.2.1-.9-.4-.7zm82.9-63c-2.3 2.1-5.2 3.5-7.6 5.4-1.3 1-2.5 2.3-3.7 3.4q-1.7 1.8-3.5 3.5-7.1 6.6-14.4 12.8-7.5 6.3-15.3 12.1c-5.4 4-10.9 7.9-16.6 11.6-5.7 3.6-11.4 7.2-17 11q-1 .7-2.1 1.4c-.4.2 0 .9.4.6 5.6-3.8 11.2-7.4 16.9-11 3-1.9 5.9-3.8 8.8-5.8q4.1-2.8 8.2-5.8 7.8-5.7 15.3-11.9 7.4-6.2 14.5-12.8 3.7-3.4 7.2-6.9c.6-.6 1.2-1.1 1.8-1.7l2-1.4c1.3-.9 2.6-1.7 3.9-2.6q.9-.6 1.7-1.4c.4-.3-.2-.8-.5-.5z"/><path class="e" d="M158.5 103.5c.4-.1.7-.3 1.1-.5q.2-.2.4-.3.1-.1.3-.2h.1q-.1 0 0 0 0-.1.1-.1l-.4-.6q-.2.2-.5.4c-.1.1-.1.4 0 .5.2.2.4.2.6 0q.2-.2.5-.4c.2-.2-.1-.7-.4-.6-.4.1-.7.3-1.1.6q-.2.1-.4.3-.1 0-.3.1s.1 0 0 0h-.2c-.2.1-.3.3-.3.5.1.2.3.3.5.3zm30.4-85.2c.1-2.8-.2-5.8 1-8.4.6-1.3 1.7-2.4 3-3 1.4-.6 3-.7 4.5-.6q1.1 0 2.2.2c.7 0 1.4.1 2.1.3 1.3.4 2.3 1.1 3.2 2.1 1.5 1.9 2 4.5 2.3 6.8.2 2.1.3 5.3-2.3 6-.5.1-.3.8.2.7 2.5-.6 3-3.4 2.9-5.6 0-1.2-.2-2.3-.5-3.5-.2-1.4-.7-2.7-1.4-3.9-.7-1.2-1.7-2.2-3-2.8-1.4-.7-2.9-.9-4.4-1-3.2-.3-6.7 0-8.7 2.7-1.1 1.4-1.4 3.1-1.6 4.8-.2 1.7-.2 3.5-.3 5.2 0 .5.7.5.8 0zm-33.2 124.8c1.1.3 2.1-.4 3.1-.8.6-.2 1.3-.4 1.9-.6q1-.3 2-.7c1.3-.5 2.6-1.1 4-1.4q2.1-.5 4.2-.7c1.5-.1 3-.1 4.5-.2q2.3-.1 4.6-.1c3.1 0 6.1.3 9.2.4 1.4 0 2.9-.3 4.3-.4 1.5-.2 3-.1 4.6 0l9.4.4 9.4.4q2.3.1 4.7.1c1.5.1 3 .2 4.5.4 2.6.5 5.1 1.3 7.7 1.7 1.8.3 3.9.5 5.2 2 .3.3.6.8.7 1.3.2.4.9.3.8-.2-.4-1-.9-1.8-1.7-2.4-.8-.5-1.7-.8-2.6-1-1-.3-2-.4-2.9-.5-1.3-.2-2.6-.6-3.9-.9-1.4-.4-2.8-.7-4.3-.9-1.5-.2-3.1-.2-4.6-.2l-9.6-.4q-4.7-.2-9.5-.4l-4.8-.2c-1.5-.1-2.9 0-4.4.2-3.1.4-6.1.1-9.2-.1-3.1-.1-6.2 0-9.3.2-1.4 0-2.9.1-4.4.2q-2.1.3-4.1.9c-1.4.5-2.7 1.1-4 1.6q-1.1.4-2.1.6c-.6.2-1.1.4-1.6.7-.5.2-1.1.4-1.6.3-.5-.1-.7.6-.2.7zm-10.2 74.1c1.4 1.9 4.2 1.2 6.1.7 1-.3 2-.7 2.9-.8.8-.1 1.7.1 2.5 0 .7 0 1.4-.5 2.1-.7 1-.1 1.9.3 2.8.2 1 0 1.8-.5 2.8-.6.5 0 .5-.8 0-.7-.8.1-1.5.3-2.2.5-.9.2-1.7 0-2.5-.1s-1.4.1-2.1.4c-.4.1-.7.3-1.1.3-.4 0-.8 0-1.3-.1-1.1-.1-2.1.2-3.1.6-1.1.3-2.2.6-3.3.7-1 .1-2.3.1-3-.8-.3-.4-.9 0-.6.4zm124.3-21c0-1.4.3-2.8.1-4.2 0-1.2-.8-2.1-1.2-3.2-.5-1.3-1.1-2.5-1.6-3.8-.5-1.1-.7-2.2-1.2-3.3-.4-1-1.1-1.9-1.8-2.7-.4-.4-.9.1-.6.5.7.7 1.3 1.5 1.7 2.3.4 1 .6 2.1 1 3.1.5 1.2 1.1 2.4 1.6 3.6q.3.9.7 1.7c.3.4.5.9.6 1.4.2.7.1 1.5.1 2.3-.1.8-.2 1.5-.2 2.3 0 .5.7.5.8 0zM150.3 108c.1-3.9 1.4-7.6 1.5-11.6.1-3.1 0-6.2-.2-9.3-.6-6.1-2.1-12.3-5.3-17.7-3.1-4.9-7.7-9.1-13.6-10.1-5.3-1-10.7.7-14.7 4.1-2.2 1.8-4.2 4.2-5.2 6.8-1.3 3-1.5 6.4-1.5 9.7v2.3c0 .5.8.5.8 0 .1-1.4-1.3-2.3-2-3.4-1.1-1.4-2.2-2.8-3.5-4.1-2.4-2.4-5.1-4.6-8.1-6.4-3.2-2-6.6-3.4-10.2-4.5q-2.7-.9-5.5-1.4c-1.7-.4-3.5-.6-5.2-.5-3.3.1-6.5 1.4-9.2 3.3-2.6 1.7-4.8 4-6.5 6.7-.8 1.3-1.4 2.8-1.8 4.3-.4 1.6-.5 3.2-.5 4.9-.1 2-.1 3.9.3 5.8s1 3.7 1.7 5.6c1.2 3.3 2.4 6.7 4 9.9q2.4 4.9 5.9 8.9c2.5 2.9 5.4 5.6 7.8 8.6 1.1 1.5 2.2 2.9 3.6 4.2 1.4 1.3 2.8 2.5 4.3 3.7 3 2.5 5.7 5.3 8.6 7.8 1.4 1.1 2.8 2.2 4.1 3.3 1 .8 1.9 1.6 2.9 2.4 2.1 1.6 4.5 2.9 6.7 4.4 2.3 1.6 4.6 3.4 7 4.8.8.5 1.8.8 2.6 1.3 1 .7 1.9 1.4 2.9 2 .8.5 1.8 1.1 2.7 1.1.5-.1.8-.3 1.1-.6q.9-.9 1.8-1.9c4.3-4.7 8.1-9.9 11.5-15.3q.9-1.3 1.7-2.6c.2-.4-.4-.8-.7-.4-2.9 4.7-6 9.3-9.5 13.7q-1.6 1.9-3.3 3.8-.8 1-1.7 1.9c-.3.3-.5.6-1 .6-1-.1-1.9-.8-2.7-1.3-.9-.6-1.8-1.3-2.7-1.8-.4-.2-.8-.4-1.2-.5q-.7-.4-1.5-.9c-1.1-.7-2.2-1.4-3.3-2.2-2.1-1.5-4.2-3-6.4-4.3-1.2-.8-2.4-1.5-3.6-2.4-.9-.7-1.8-1.5-2.8-2.3l-3.9-3.3q-2.2-1.8-4.2-3.7c-1.4-1.2-2.7-2.5-4.1-3.7-1.4-1.2-2.9-2.4-4.2-3.6-1.4-1.2-2.5-2.6-3.6-4q-1.7-2.2-3.6-4.2c-2.6-2.7-5.3-5.4-7.4-8.4-2-2.9-3.5-6-4.8-9.1q-1-2.4-1.8-4.9c-.7-1.7-1.3-3.5-1.8-5.3-.5-1.9-.8-3.7-.7-5.7 0-.9.1-1.9.1-2.9q0-1.1.2-2.3c1.2-6 6.1-11 11.5-13.4 1.6-.7 3.3-1.1 5.1-1.2 1.7-.2 3.5 0 5.2.4 3.6.6 7.2 1.7 10.6 3.2 3.2 1.4 6.2 3.1 8.9 5.3 2.8 2.1 5.3 4.5 7.3 7.3.4.6.9 1.1 1.3 1.6.5.5.9 1 .8 1.7h.8c-.1-3.2-.1-6.4.7-9.6.7-2.8 2.2-5.3 4.3-7.4 3.6-3.7 8.8-5.8 14-5.4 5.7.5 10.5 4.2 13.7 8.8 3.5 5 5.1 11 5.8 17 .4 3 .5 6 .5 9-.1 1.7-.1 3.4-.4 5.1-.3 1.9-.7 3.7-1 5.6q-.2 1.3-.2 2.7c0 .5.7.5.8 0zM22 173.1c-2.8-2.9-5.3-6-7.5-9.3q-3.7-5.4-6.4-11.2c-1.9-3.8-3.4-7.8-4.5-11.8-.9-3.4-1.6-6.9-1.4-10.4.1-3 .7-6 1.9-8.8 1.1-2.7 2.7-5.3 4.9-7.2 2.1-1.9 4.8-3 7.7-3.1 2.8-.1 5.8.6 8.2 2.2 2.4 1.6 4.4 3.9 5.5 6.6 1.5 3.3 1.7 7.1.9 10.7q-.4 1.6-1 3.1c-.1.4.5.7.7.3 2.8-5.9 7.3-11.3 13.9-12.8 5.4-1.2 11.5.5 15.5 4.2 1.5 1.4 2.7 3 3.4 4.9.7 1.9.9 4 .8 6-.4 4.2-2.3 8.1-4.9 11.3-2.6 3.2-5.7 5.9-8.8 8.4-3 2.5-6.2 4.7-9.5 6.8-6.7 4.4-13.7 8.3-20.8 11.9q-1.2.6-2.3 1.2c-.4.2-.1.8.4.6q5.2-2.5 10.2-5.4 5.6-3 11-6.4c3.4-2.2 6.8-4.5 10-6.9 3.2-2.5 6.4-5.2 9.1-8.2 2.8-3.2 5.2-6.9 6-11.1.8-4.1.2-8.4-2.3-11.8-2.2-2.7-5.3-4.6-8.5-5.7-2.5-.8-5.1-1.1-7.6-.8-2.8.3-5.5 1.3-7.8 2.9-2.9 2-5.2 4.7-7 7.7q-.8 1.4-1.5 2.8.4.2.7.3c1.5-3.8 2-7.9 1-11.9-.8-3-2.5-5.8-4.9-7.9-2.2-2-4.8-3.2-7.7-3.6-3-.5-6.1 0-8.8 1.6-2.6 1.5-4.6 3.8-6 6.4-1.5 2.7-2.5 5.8-2.9 8.9-.5 3.3-.3 6.5.3 9.8.9 4.2 2.2 8.2 3.8 12.1 1.8 4.1 3.8 8.1 6.2 11.8 2.2 3.6 4.7 7.1 7.5 10.2l2 2.2c.3.3.8-.2.5-.6z"/><path class="e" d="M189 18.8v1c0 .2.2.4.4.4s.3-.2.4-.4v-1c0-.2-.2-.4-.4-.4s-.4.2-.4.4zm8.8-9.1c-.1 1.3 0 2.6-.2 3.9-.1 1.1-.6 2.1-.6 3.2h.7v-.3c.1-.5-.7-.5-.7 0v.3c-.1.5.7.5.7 0 .1-1.1.5-2.1.7-3.2.1-1.3.1-2.6.1-3.9 0-.5-.7-.5-.7 0zm-3.1 1.6c.5 0 .5-.8 0-.8-.4 0-.4.8 0 .8zm5.2 7.8c.8 0 1.7-.1 2.5-.5.7-.4 1.2-1.1 1.4-1.8.2-.5.2-1.1.3-1.6 0-.5-.8-.5-.8 0 0 .7-.1 1.5-.6 2.1 0 .1 0 .1-.1.1l-.2.2v.1h-.1l-.2.2-.4.2q-.2 0-.5.1-.6.1-1.3.1c-.5 0-.5.7 0 .8zm-15 68q.1-.5.1-.9c-.1-.5-.8-.5-.8 0 0 2.5.7 5 1.5 7.4.3 1.2.8 2.4 1.1 3.7.4 1.2.6 2.5.8 3.8.5 2.7.9 5.5.9 8.2 0 1.4-.1 2.8 0 4.1.1 1.3.2 2.6.2 4v3.4c.1 1.1 0 2.3-.4 3.3q.4-.1.7-.1l-.4-.4c-.4-.3-.9.2-.6.5l.4.4c.3.2.6.1.7-.2.3-.9.4-1.9.4-2.9 0-1.1 0-2.1-.1-3.2 0-1.2.1-2.4 0-3.6-.1-1.3-.3-2.7-.2-4 .1-2.8-.2-5.5-.6-8.3-.2-1.3-.4-2.6-.7-3.9-.3-1.3-.7-2.5-1.1-3.8-.9-2.7-1.9-5.5-1.8-8.4h-.8v.9c-.1.5.7.5.7 0zm-77-28.7c.1 1.1.5 2.1 1 3 .3.5.5 1.1.7 1.6.2.6.3 1.2.5 1.7.3.9.9 1.5 1.5 2.2.5.6 1.2 1.3 1.1 2.1 0 .5.8.5.8 0 .1-1.8-1.9-2.7-2.5-4.2-.3-.5-.4-1.1-.5-1.7q-.3-.8-.7-1.5c-.5-1-1.1-2.1-1.1-3.2 0-.5-.8-.5-.8 0zM161 74c.5 0 .5-.8 0-.8-.4 0-.5.8 0 .8zm1.4.2c.1-1.3-.1-2.6-.3-3.8-.2-1.4-.1-2.9-.1-4.3 0-1.3-.2-2.7-.2-4.1-.1-1.4 0-2.7.1-4.1.1-1.6.3-3.1.3-4.7.1-.5-.7-.5-.7 0-.1 2.8-.5 5.5-.5 8.3 0 1.3.2 2.7.2 4 .1 1.5 0 2.9.1 4.3l.3 2.1q.1 1.1.1 2.3c0 .4.7.4.7 0zm39.1-62.4c.5 0 .5-.8 0-.8-.4 0-.4.8 0 .8z"/><path class="e" d="M208.1 19.5c1.2-1.2 2.2-2.7 2.6-4.4.2-.8.2-1.7.3-2.6q0-1.3-.2-2.6c-.1-.9-.3-1.7-.7-2.4-.4-.7-.7-1.4-1.1-2.1-.4-.8-.9-1.4-1.6-1.8q-.6-.4-1.1-.8c-.5-.3-.9-.6-1.3-1-1.4-1.1-3.1-1.2-4.8-1.2h-9.5c-.9 0-1.8 0-2.7.2-1.5.4-3.3 1.6-3.5 3.3-.1.8.2 1.7.9 2.2.6.6 1.4.6 2.2.9 1.5.6 1.5 2.3 1.5 3.7 0 .5.8.5.8 0 0-1.2 0-2.5-.8-3.5-.4-.5-.9-.8-1.5-1-.6-.2-1.3-.3-1.8-.7-.6-.5-.7-1.4-.4-2 .3-.8 1-1.4 1.7-1.8 1.6-.8 3.5-.6 5.2-.6h6.1c1.7 0 3.5-.2 5 .4.9.4 1.5 1 2.2 1.6.7.4 1.4.8 2 1.4.5.6.9 1.3 1.2 2 .3.6.7 1.3 1 1.9.6 1.8.5 3.7.3 5.5-.2 1.9-1.2 3.6-2.6 4.9-.3.3.2.9.6.5z"/><path class="e" d="M185.4 2.7c-1.1-.3-1.6.6-1.6 1.6-.1 1 .2 2.1.7 2.9.8 1.2 2 2.5 3.4 2.6 1.1 0 1.8-.8 2.2-1.7.4-1 .6-2.2.4-3.2-.2-1.3-1-2.3-2.1-2.9-.6-.3-1.4-.5-2-.2-.5.3-.7.7-.7 1.2 0 1 .7 2.2 1.4 2.9.7.5 1.8 1 2.7.6.5-.2.7-.6.7-1.1-.1-.6-.4-1-1-1.3-.5-.2-1.1-.3-1.6-.4-.5-.1-1-.3-1.5-.4-.5-.1-.9.1-1 .7 0 .6.3 1.3.7 1.8.8 1.1 2.3 1.8 3.7 1.5.7-.2 1.3-.7 1.3-1.5 0-.7-.4-1.4-.6-2.1-.1-.3-.1-.7-.1-.9 0-.2.2-.3.5-.4q.3-.1.7-.1c.2 0 .1 0 .3.1.4.1.8.3 1.1.4 1 .5 1.9 1 2.9 1.5.8.3 1.7.7 2.5.6.4-.1.7-.4.7-.7.2-.6-.6-1-1.1-1.1-.5-.1-1.1 0-1.6.2-.2.2-.3.5-.1.6.5.5 1.2 1.1 2 1.2.8.1 1.5-.5 1.6-1.3 0-.8-.6-1.5-1.2-1.9-.6-.3-1.4-.4-2.1-.5-1.4-.2-3.1-.4-4.5 0-.8.2-1.4.8-1.5 1.6 0 .8.5 1.5 1 2.1 1.9 1.8 4.5.9 6.7 0 .2-.1.2-.5 0-.6-.3-.4-.9-.5-1.4-.6q-1.2-.2-2.4-.3-1.1-.1-2.3 0c-.5 0-1.2 0-1.6.3-.3.2-.3.6.1.7 1 .3 2.1.1 3.2 0 1.2-.2 2.6-.2 3.8-.1q2 0 3.9.5c1.2.2 2.3.6 3.2 1.4q.6.4 1 1c.2.3.5.8.2 1.1h.5c-.9-.6-1.4-1.7-2.1-2.5-.3-.4-.7-.7-1-1.1-.3-.3-.7-.7-.6-1.2q-.3.2-.5.4c2 .6 4.6 1.7 4.6 4.2l.2-.4c-.7.4-1.7-.1-2.4-.4-.8-.4-1.5-1-2.3-1.5-.9-.6-1.7-1.2-2.5-2q-.6-.6-1.1-1.4c-.2-.3-.6-.9-.4-1.3.1-.3.6-.4.9-.4.6-.1 1.1 0 1.7.2 1.1.3 2.1 1 3 1.8.9.8 1.8 1.8 2.6 2.8q1.2 1.6 2.1 3.4c.7 1.3 1.5 3.9-.5 4.5q.2 0 .4.1c-.5-.4-.5-1.1-.6-1.6-.1-.7-.1-1.5-.2-2.2-.2-1.7-1.2-3.3-2.2-4.7-.2-.2-.5-.3-.7 0-.4.8.2 1.8.4 2.6.3 1.3.6 2.5 1 3.7.2 1 .4 1.9.5 2.9.1 1 .2 2 .7 2.8.2.3.7.2.7-.2v-.9c0-.5-.8-.5-.8 0q0 .5.1.9.3-.1.7-.2c-.5-.7-.6-1.7-.7-2.5-.1-1-.2-1.9-.4-2.8q-.5-1.6-1-3.3c-.1-.5-.2-.9-.3-1.4-.2-.3-.4-.9-.2-1.2h-.7c.9 1.3 1.9 2.7 2.2 4.2.1 1.2 0 2.6.5 3.7.1.2.2.5.4.6.2.3.5.2.8 0 .6-.2 1-.7 1.2-1.3.4-1 .1-2.3-.3-3.4-.7-1.7-1.8-3.3-3-4.8-1.2-1.4-2.5-2.8-4.1-3.6-.8-.4-1.6-.8-2.5-.9-.7 0-1.5 0-2 .4-1.3 1 .3 3 1.1 3.8 1.1 1.3 2.6 2.3 4 3.2 1.2.7 2.8 1.7 4.3 1.1.1-.1.2-.2.2-.3 0-2.9-2.8-4.2-5.2-5-.2 0-.5.2-.5.4-.1 1.1 1.1 2 1.7 2.7.8.9 1.4 2.1 2.4 2.7.2.1.4.1.5 0 .7-.8.1-1.8-.4-2.5-.8-.9-1.7-1.5-2.8-1.9-2.7-1-5.6-1.1-8.4-1-1.4 0-2.8.6-4.1.2q0 .3.1.7c.3-.2.8-.3 1.3-.3q1.1-.1 2.2 0 1 .1 2.1.3l.8.2c.1.1.3.1.4.2q0-.3.1-.6c-1.6.7-3.5 1.5-5.1.6-.9-.5-2.2-2.2-.8-2.8 1.1-.4 2.3-.2 3.4-.1q1 0 1.9.2c.6.1 1.1.2 1.5.6.3.4.6 1.3-.2 1.4-.6.1-1.4-.5-1.8-.9q0 .3-.1.6c.4-.2 1-.2 1.4-.1q.1 0 .2.1s0 .1.1.1V4v.1s-.1 0 0 0c-.5.2-1.3-.2-1.8-.4-.9-.3-1.7-.8-2.5-1.2-.6-.3-1.3-.7-2-.9-.6-.1-1.4-.1-1.9.3-.6.3-.6 1-.5 1.5.1.6.3 1.2.5 1.8.1.4.2.9-.1 1.2-.8.5-2 .1-2.7-.4-.5-.3-.9-.7-1.1-1.3q-.1-.3-.1-.7c0-.1 0 0-.1 0h.3c.4.1.7.3 1.2.4.4.1.9.1 1.3.3.4.1.8.3.8.7 0 .4-.2.5-.5.5-.7 0-1.4-.4-1.9-1-.3-.3-.5-.7-.7-1.2-.1-.3-.3-.7-.1-1 .3-.4.9-.3 1.3-.1.6.2 1.1.7 1.5 1.2.5.6.5 1.5.5 2.3-.1.8-.3 1.8-.8 2.4-.7.8-1.6.5-2.3 0-.8-.6-1.7-1.6-2-2.6-.1-.6-.3-1.6 0-2.2.1-.3.3-.4.5-.3.5.1.7-.6.2-.7z"/><path class="e" d="M200.2 3.8q.4.5.9.6c.3.1.7.1 1.1.1.2-.1.3-.3.2-.5 0-.2-.2-.3-.4-.3h-.1s-.1.1 0 0c.1 0 0 0 0 0q0 .1-.1.1h-.3v-.1c.1.1 0 .1 0 0h-.3q-.1-.1-.2-.1v-.1c-.1 0 0 .1 0 0h-.1q-.1-.1-.1-.2c-.2-.1-.4-.1-.6 0-.1.2-.1.4 0 .5z"/><path class="e" d="M200.8 3.8c.8-.7 1.3-1.8 2.1-2.6.1-.1.1-.4 0-.5-.2-.1-.4-.2-.6 0-.8.8-1.3 1.8-2.1 2.6-.1.2-.1.4 0 .5.2.2.4.2.6 0zm-53.2 215.4h.2q-.1-.2-.1 0 .2-.1.5-.2c-.3-.1-.3-.3-.3-.5 0-.3-.4-.5-.7-.3-.3.3-.5.7-.6 1.2-.1.4-.2.8-.7 1q.3.2.6.3c0-.4.1-.8.3-1.1q.2-.6.1-1.2c-.1-.3-.5-.4-.7-.2-.9.9-1.4 2.2-1.9 3.4-.3.5-.5 1-.8 1.4-.4.6-.8 1.2-1 1.8-.2.4-.4 1.1.1 1.3.3.2.7.2 1 .1.9-.3 1.6-1.1 2.3-1.7.6-.7 1.3-1.4 1.8-2.2.2-.3-.2-.6-.5-.5-1 .4-1.8 1.1-2.4 2.1-.1.2.1.5.3.5 1.9 0 3.1-1.6 4.5-2.6 1.2-.8 3-1.4 3.5-2.9 0-.1 0-.3-.1-.4-1.1-1.1-3.1.7-3.1 1.9-.1.2.1.3.2.4.7.2 1.5.1 2.1-.2.4-.2.6-.5.8-.8.2-.4.1-.7-.2-.9-.6-.4-1.3-.4-2-.3-.4 0-1.3.2-1.6-.3q-.1.3-.2.5c1-.2 2-.2 2.9-.2.7 0 1.4-.2 2.1-.2 1-.2 2.7-.2 3.2-1.3.1-.2 0-.5-.2-.6-1.5-.3-3-.1-4.4-.1q-1.1 0-2.1-.2c-.7-.1-1.4-.3-2.1-.3v.7c2.3.1 4.6 0 6.8 0 1.9 0 3.9-.4 5.8.1q-.2-.1-.3-.2c.2.3.2.4.1.5-.2.2-.5.4-.7.5-.7.4-1.5.6-2.3.7-.5.1-1 .2-1.5.4-.7.3-1.4.7-2.1 1.1l-2.2 1.2c-.5.3-1 .5-1.6.8-.4.3-1 .6-1.1 1.2 0 .2.1.4.3.4.7.3 1.4.1 2.1-.1.7-.1 1.4-.4 2-.7.8-.6 1.4-1.3 2.1-2 .6-.5 1.2-.9 1.7-1.5.2-.3.4-.7.2-1-.2-.3-.6-.5-1-.6-.8 0-1.5.6-2.2.9q-1.4.8-2.8 1.4c-1 .5-2 .8-3 1.2-1 .5-2 1.1-3 1.7l-1.4 1c-.4.3-.9.6-1.4.6-.5.1-.5.8 0 .8.7 0 1.2-.4 1.7-.7q.8-.6 1.7-1.1c1.2-.8 2.4-1.5 3.7-2q2-.7 3.9-1.7l1.8-1c.5-.2 1-.5 1.4 0v-.3c-.3.7-1 1.2-1.6 1.6-.7.5-1.2 1.2-1.9 1.7-.5.5-1.2.8-1.9.9-.5.2-1.3.4-1.9.2q.1.2.3.5c0-.4.4-.6.7-.7.4-.2.8-.4 1.1-.5 1.1-.6 2.1-1.3 3.1-1.8q.4-.3.9-.5l.4-.2q.1 0 .2-.1s.2 0 0 0q.2-.1.5-.1l1.6-.4c.6-.1 1.2-.3 1.8-.6.4-.2.9-.5 1.1-.9q.2-.4.1-.8c-.1-.4-.4-.5-.8-.6-1.1-.2-2.3-.2-3.4-.1-3 .2-6 .2-9 .1-.5 0-.5.7 0 .7.7.1 1.3.2 2 .4q1 .2 2 .2c1.5 0 2.9-.2 4.4 0q-.1-.2-.3-.5c-.2.5-.7.6-1.1.7-.6.1-1.2.2-1.8.2l-2.1.3c-.9 0-1.8 0-2.7.2-.2.1-.3.3-.2.6.4.6 1.1.7 1.8.6.7 0 1.6-.2 2.1.3q-.1-.1-.1-.3c-.3.8-1.3 1-2.1.7q.2.2.3.4c0-.4.5-.8.8-1.1.2-.2.7-.5 1-.2q0-.2-.1-.4c-.2.7-.8 1.1-1.4 1.4-.6.4-1.2.7-1.8 1.1l-1.8 1.5c-.6.5-1.3 1-2.2 1q.2.3.4.5c.4-.8 1.2-1.4 2.1-1.7q-.3-.3-.5-.6c-.4.6-.9 1.1-1.3 1.6-.6.6-1.2 1.3-2 1.7-.2.2-.5.3-.8.3.1 0 0 0 0 0s-.1 0 0 0 0 .2.1 0v-.3l.2-.4c.3-.5.6-.9.9-1.4.3-.4.5-.9.7-1.3l.8-1.8c.3-.6.6-1.1 1.1-1.5q-.4-.1-.7-.2c.1.4 0 .7-.2 1-.1.4-.2.7-.2 1.1.1.3.3.5.6.3.5-.2.7-.6.9-1 .2-.4.2-.9.6-1.2q-.3-.2-.7-.3c.1.5.3 1.1.9 1.2.2 0 .4-.1.4-.3.2-.6-.2-.9-.8-.9-.5 0-.5.8 0 .7z"/><path class="e" d="M149.2 214.8c-.7 0-1.4 0-2.1.1-.2.1-.3.2-.3.4-.1.8-.7 1.6-.6 2.5q.4-.2.7-.3c-.4-.7-.8-1.7-.5-2.4.4-1.2 2.2.1 2.9.3.7.2 1.5.2 2.2.4.7.1 1.4.4 2.1.6 1.4.4 2.8.4 4.3.4 1.6 0 3.2-.2 4.9-.2.5 0 .5-.7 0-.7-3.1 0-6.5.6-9.5-.4-.7-.3-1.5-.5-2.3-.6-.4 0-.8-.1-1.2-.2-.4-.1-.8-.2-1.1-.4-.6-.3-1.3-.6-2-.4-.4.1-.8.4-1 .9-.4.9 0 2.2.6 3 .2.4.7.2.7-.2-.1-.4.1-.8.2-1.1.2-.4.3-.8.4-1.2q-.2.2-.3.4c.6-.2 1.3-.1 1.9-.1.5 0 .5-.8 0-.8zm116.7-33.4c.1.5.4 1 .6 1.5q.5.7.7 1.5c.3 1.2.2 2.4.3 3.6.1 2.2.5 4.4 1.6 6.4.2.3.7.2.7-.2-.2-3 0-6.1 0-9.1h-.8c0 2 .6 3.9.5 5.9 0 1.7-.2 3.6.7 5.1.1.2.3.2.5.2.7-.2 1-.9 1.2-1.6.2-.9.2-1.9.1-2.9q0-1.4-.3-2.7c-.2-1.2-.6-2.4-.9-3.5-.3-.9-.6-1.7-.8-2.6-.3-.8-.5-1.6-.9-2.3-.2-.3-.5-.3-.7 0-.7 1-.3 2.1 0 3.3q.4 1.8 1.2 3.6c.4 1 1 2 1.4 3.1.4.9.7 1.9 1.2 2.9s1.2 1.9 2.2 2.5c.2.1.5 0 .5-.2.3-1.3.3-2.6-.8-3.5-.6-.6-1.8-1.5-2.7-.9-.8.5-.4 1.6-.1 2.3.3.8.9 1.8 1.6 2.3.5.3 1 .2 1.5-.1.3-.1.5-.2.8.1.4.2.6.6.8.9l.6-.4q-.6-1.1-1.1-2.3c-.2-.3-.7-.1-.7.2-.1 1.5.7 2.9.5 4.4h.8c0-1.7.3-3.6-.4-5.2-.5-1.4-1.6-2.6-1.7-4-.1-.5-.8-.5-.8 0 .1 1.5 1.1 2.6 1.7 4 .8 1.6.4 3.5.4 5.2 0 .5.7.5.8 0 .1-1.5-.7-2.9-.6-4.4q-.3.1-.7.2.5 1.2 1.2 2.3c.2.5.8.1.6-.4-.4-.9-1.4-1.8-2.4-1.3-.4.2-.6.4-.9.1-.3-.2-.5-.5-.7-.8-.4-.6-.9-1.4-.9-2.1 0-.9 1.2-.2 1.5.1.4.2.8.6.9 1 .3.6.3 1.4.1 2.1q.3-.2.5-.3c-1.6-1-2.2-3-2.9-4.7-.3-.9-.8-1.8-1.2-2.7q-.8-1.6-1.2-3.3-.3-.9-.5-1.8c-.2-.7-.2-1.3.2-1.8h-.7c.4.5.6 1.2.8 1.8l.6 2.2c.4 1.2.9 2.5 1.1 3.7.4 1.7.5 3.4.3 5 0 .6-.2 1.6-.7 1.8q.2 0 .4.1c-.9-1.4-.6-3.3-.6-4.9.1-1.9-.5-3.8-.5-5.7 0-.5-.8-.5-.8 0 0 3-.1 6.1.1 9.1q.3-.1.7-.2c-1.2-1.9-1.4-4.1-1.6-6.4 0-1.1 0-2.3-.3-3.4q-.2-.8-.6-1.5c-.3-.5-.6-.9-.7-1.5 0-.5-.8-.3-.7.2z"/><path class="e" d="M265.4 180.3q.1.4-.1.7.2-.1.3-.2-.5.1-.9.2c-.1 0-.2.2-.3.3-.3 1.4 0 2.8.3 4.2q.4 2.1 1 4.2c.3 1.3.6 2.6 1 3.8.2.6.4 1.1.8 1.6.4.4.8.9 1 1.4.2.5.9.3.7-.2-.2-.5-.5-.9-.8-1.3-.4-.5-.7-1-.9-1.6-.4-1.2-.7-2.4-1-3.6q-.6-2.1-1-4.1c-.2-1.4-.7-2.9-.3-4.2q-.2.1-.3.2c.4 0 1 0 1.1-.4.2-.4.2-.8.1-1.2-.1-.4-.8-.2-.7.2z"/><path class="e" d="M267.2 187.2c-1.2.3-1.4 1.8-1.3 2.9.1.4.8.3.8-.1 0-1 .1-2.2-.2-3.2-.3-.8-.9-1.5-.9-2.4 0-.5-.7-.5-.7 0-.1.9.5 1.7.8 2.5.4 1 .2 2.1.2 3.1q.4 0 .7-.1c-.1-.6 0-1.8.8-2 .5-.1.3-.8-.2-.7zM10.4 119c-2.7 1.5-3.3 4.5-3.9 7.2-.3 1.8-.7 3.6-.4 5.5.1.9.5 1.8.6 2.7.1.9 0 1.7.3 2.5.2.5.4.9.5 1.3.2.4.3.8.5 1.2.4.7.9 1.2 1.6 1.4.4.2 1.1.4 1.5-.1.1-.1.2-.4.2-.6q.2-.6.3-1.2c.4-1.9.4-3.8.8-5.7.3-.9.2-1.8.3-2.7.1-.9.3-1.8.3-2.8.1-1 .5-1.9.6-2.9.2-1.1.2-2.1.1-3.1 0-.9 0-1.8-.7-2.4-.5-.4-1.2-.8-1.8-.7-.5.1-.3.9.2.8.4-.1 1.1.4 1.3.7.2.3.3.7.3 1v1.2c0 .8.1 1.6-.1 2.5-.2.7-.5 1.5-.6 2.3 0 .4 0 .8-.1 1.1q0 .7-.1 1.4c-.2.8-.2 1.6-.2 2.4-.1.8-.3 1.6-.5 2.5q-.1 1.2-.3 2.4-.1 1.3-.4 2.6c0 .2 0 .5-.2.6 0 .2-.1.2-.3.1-.7-.1-1.2-.5-1.5-1.1-.2-.3-.2-.7-.4-1q-.2-.6-.5-1.2c-.3-.8-.3-1.5-.3-2.3-.1-.8-.4-1.6-.5-2.4-.4-1.7-.2-3.3.1-5 .5-2.7 1-6.1 3.7-7.5.4-.3 0-.9-.4-.7zm59.4-46.5c-1.5 2.8-2.5 5.9-2.9 9.1-.3 3.1-.1 6.2.7 9.2.9 3.1 2.3 6.1 4 8.9.7 1.2 1.5 2.3 2.5 3.3.9 1 2.1 1.9 3.5 2.3 1.1.3 2.6.2 3.3-.8.5-.7.5-1.5.5-2.2-.2-2-1-4-1.8-5.8-.3-.7-.7-1.4-1-2.1-.6-1.4-1-2.9-1.3-4.4-.6-3.1-.6-6.3-.8-9.5-.1-1.9-.4-3.8-1.2-5.6-.7-1.6-2-3.2-3.9-3q-.7.1-1.4.5c-.5.2-.1.8.4.6 3.7-1.7 5 3.8 5.3 6.4.2 2.9.2 5.8.6 8.7.3 2.5.9 5 1.9 7.3.8 1.6 1.6 3.3 2.1 5.1.2.8.4 1.7.3 2.5q-.1 1.3-1.3 1.6c-1.3.3-2.7-.4-3.7-1.2-1-.8-1.9-1.9-2.7-3-1.7-2.5-3-5.2-4-8-.9-2.8-1.5-5.8-1.4-8.7.1-3 .7-5.9 1.9-8.7q.5-1.1 1.1-2.1c.2-.5-.4-.8-.7-.4z"/><path class="e" d="M33.2 129.1v-2.9c0-.9 0-1.8-.1-2.6-.2-1.6-.7-3.1-1.6-4.5-1-1.5-1.9-3-3-4.4-1-1.2-2.3-2.2-3.6-3q-1.1-.5-2.2-.9c-.8-.3-1.6-.5-2.3-.8-.4-.1-.7-.3-1.1-.4q-.7-.1-1.3-.1h-2.7c-.8 0-1.6.2-2.4.5q-1.2.5-2.3 1c-1.5.6-3.1 1.3-4.1 2.5-.5.6-.8 1.4-1.3 2-.2.3-.5.5-.7.8-.2.3-.3.7-.4 1.1-.2.8-.6 1.5-.9 2.3-.3.9-.5 1.8-.7 2.7-.1.9-.3 1.8-.3 2.7-.1.9-.1 1.8 0 2.7v5.7c0 1.9.3 3.8.6 5.7.2.8.2 1.7.5 2.6.3.9.6 1.7.9 2.6 1.2 3.4 2.4 6.9 4.3 10l1.4 2.2c.3.4.6.7.8 1.1q.3.6.5 1.1c.3.8.6 1.5 1.1 2.2.6.7 1.1 1.4 1.5 2.2.8 1.5 1.4 3.1 2.3 4.6 1 1.7 2.2 3.2 3.3 4.7q.8 1.1 1.6 2.3c.1.1.4.2.6 0 .2-.3.2-.6.1-.9-.2-.5-.9-.1-.7.3v.1q.3 0 .6.1c-2-3-4.4-5.7-5.9-9-.7-1.5-1.4-3-2.4-4.4-.5-.7-1-1.3-1.3-2.1-.3-.8-.6-1.5-1-2.1-1-1.4-1.9-2.8-2.7-4.4-.8-1.5-1.5-3.2-2.2-4.8-.6-1.7-1.1-3.4-1.7-5.1-.4-.8-.6-1.6-.7-2.5-.1-.9-.3-1.8-.4-2.7-.3-1.8-.4-3.7-.4-5.6v-5.3c0-1.8.3-3.6.7-5.3.2-.9.5-1.6.9-2.4.3-.7.3-1.6.8-2.2.2-.3.4-.5.6-.8.3-.3.5-.6.7-1 .4-.7.9-1.2 1.6-1.7 1.3-.9 2.8-1.4 4.3-2 .8-.3 1.5-.7 2.4-.7h3.8c.4 0 .8.2 1.3.4.7.3 1.4.4 2.2.7 1.4.5 2.8 1.2 4 2.1 1.3 1.1 2.2 2.4 3.2 3.8.9 1.3 1.9 2.7 2.5 4.2.5 1.6.6 3.2.6 4.8v2.8c0 .5.7.5.7 0z"/><path class="e" d="M31.7 132.9c1.1-1.2 1.4-2.8 2.5-3.9.6-.7 1.3-1.3 2-1.9.7-.6 1.2-1.2 1.9-1.7 1.4-1 2.6-2.2 4.1-2.9.4-.1.9-.2 1.4-.3l1.2-.4c.3-.1.6-.3.9-.3h1.2c.8-.1 1.6-.2 2.4-.1.4.1.8.3 1.1.4.5.1.9.2 1.3.4.7.4 1.5.6 2.3.9q1.1.3 2.1.9 1.2.7 2.3 1.5c.7.6 1.5 1.1 2 1.8.6.6.9 1.3 1.4 1.9.6.7 1.1 1.3 1.5 2.1.5.8.9 1.7 1.1 2.6.2.8.2 1.8.1 2.6 0 1.8-.5 3.4-1.5 4.9-1 1.4-2.3 2.5-3.3 3.9q-.8 1-1.2 2.2c-.3.9-.6 1.7-1.1 2.4-1 1.4-2.3 2.5-3.5 3.7-.6.5-1.1 1.1-1.8 1.6s-1.4.9-2.1 1.4c-1.4 1-2.6 2.3-3.8 3.5-1.2 1.3-2.4 2.7-3.9 3.7-1.5.9-3.1 1.5-4.4 2.6-.7.5-1.3 1-2 1.3q-1.2.7-2.3 1.3c-1.6.9-3.3 1.3-4.9 1.9-1.7.7-3.2 1.8-4.9 2.5-.7.3-1.4.6-2.1.8q.2.2.4.3v-.2c-.2-.5-.9-.3-.8.2q.1.1.1.2c0 .2.3.3.5.3.8-.2 1.6-.6 2.4-1 .8-.3 1.6-.8 2.4-1.2 1.6-1 3.3-1.6 5.1-2.2q1.2-.4 2.4-1c.8-.5 1.6-.9 2.3-1.3.8-.5 1.5-1.1 2.2-1.6.7-.5 1.4-.9 2.2-1.3.7-.4 1.5-.8 2.2-1.2.7-.6 1.4-1.2 2.1-1.9 1.3-1.4 2.5-2.7 3.9-4 .7-.6 1.4-1.2 2.1-1.7.7-.4 1.4-.8 2-1.3.6-.6 1.2-1.2 1.9-1.8.6-.6 1.3-1.2 1.9-1.8.5-.7 1.1-1.3 1.5-2.1.4-.8.6-1.7 1-2.5.7-1.6 2.1-2.8 3.2-4.2 1.2-1.3 2-2.9 2.4-4.6.2-.9.2-1.7.2-2.6 0-.9 0-1.8-.3-2.7-.4-.9-.8-1.8-1.3-2.6-.4-.7-1-1.3-1.5-1.9-.5-.7-.9-1.5-1.5-2-.6-.7-1.4-1.2-2.1-1.8-1.5-1-2.9-1.9-4.6-2.4-.3-.1-.7-.2-1.1-.4-.4-.1-.8-.4-1.3-.5-.4-.2-.8-.3-1.2-.4-.4-.2-.7-.3-1.1-.3-.8-.2-1.7 0-2.5 0-.8.1-1.4 0-2.2.3q-.6.3-1.2.5c-.5 0-.9.1-1.4.3-.8.3-1.5.8-2.2 1.4-.7.5-1.3 1-2 1.5-.8.5-1.3 1.1-1.9 1.7-.7.7-1.5 1.3-2.2 2-.5.6-.9 1.2-1.3 1.9-.3.7-.7 1.5-1.2 2-.3.4.2.9.5.6z"/><path class="e" d="M52.5 116.7c-.4.4-.6.8-.9 1.3-.3.3-.7.6-.9 1-.2.4-.2.8-.2 1.2 0 .4 0 .8.2 1.2.3.8 1.1.7 1.8.8 1.2.2 2.3.4 3.4.4 2.4.1 4.8-.1 7.2-.1 1.2 0 2.4.1 3.6-.1 1.1-.1 2.2-.5 3.3-.6.6-.1 1.3-.2 1.9-.4q.4-.2.9-.2c.3-.1.7-.1 1-.1 1.2-.2 2.4-.6 3.7-.7.5 0 .5-.7 0-.7-1.1 0-2 .3-3 .5-.6.1-1.1.2-1.6.2-.6 0-1 .2-1.5.4-1.1.2-2.2.3-3.3.5q-.6.2-1.3.3c-.6.2-1.2.2-1.8.2q-3.3 0-6.6.1c-1.2 0-2.3 0-3.4-.1-1-.1-1.9-.3-2.9-.4-.4 0-.7 0-.8-.4-.1-.4-.1-.9 0-1.4.1-.4.5-.6.7-1 .4-.4.6-1 1-1.4.3-.4-.2-.9-.5-.5z"/><path class="e" d="M77.4 118.6c-.1.7.1 1.2.8 1.4.3.1.6.1.8.2.4.1.7.4 1 .7.3.3.6.7 1 1q.5.6 1.2 1c.9.7 1.9 1.3 2.8 2 .8.7 1.5 1.6 2.3 2.4.3.3.7.6 1 1 .4.4.8.8 1.3 1.2l1.2.9c.4.4.8.9 1.2 1.3.6.9 1.4 1.7 2.2 2.4.4.3.8.7 1.2 1 .4.4.7.8 1 1.2.7.8 1.7 1.1 2.6 1.7.9.6 1.4 1.6 2.3 2.2.7.7 1.7 1.1 2.6 1.6.8.5 1.5 1.2 2.3 1.7.9.6 1.9 1.2 2.7 1.9q1.4 1.1 2.9 2.3.6.5 1.1.9.4.3.7.5c.3.1.6.2.9.4.2.2.4.4.5.7.2.2.4.3.6.4.6.2 1 .4 1.4.8.4.4.7.8 1.1 1.1.5.3 1 .4 1.4.8.4.3.8.7 1.2 1 .5.3 1 .4 1.4.6.7.4 1.1 1.5 2 1.4q.3 0 .4-.2c.1-.7 0-1.3-.4-1.8-.4-.3-.9.2-.6.5.3.3.3.7.2 1.1q.2-.2.4-.3c-.3 0-.6-.4-.7-.6q-.4-.4-.9-.7c-.4-.2-.8-.3-1.2-.5-.4-.2-.7-.6-1.1-.9-.3-.3-.7-.6-1.2-.8-.4-.2-.7-.4-1.1-.8-.3-.3-.5-.7-.9-.9q-.3-.2-.6-.3c-.2-.1-.5-.1-.7-.3-.3-.3-.5-.7-.9-1-.2-.1-.5-.2-.7-.3q-.3-.2-.7-.5c-.9-.6-1.8-1.4-2.7-2.1-.8-.7-1.7-1.5-2.6-2.1-.8-.5-1.8-1-2.5-1.7-.7-.6-1.6-1.1-2.4-1.5-.5-.3-.9-.5-1.3-.8-.4-.3-.8-.7-1.1-1.1-.4-.4-.7-.8-1.1-1.2-.4-.3-.9-.5-1.3-.7-.5-.2-.9-.5-1.3-.8-.3-.4-.6-.8-.9-1.1-.7-.8-1.6-1.4-2.4-2.2l-2.1-2.4c-.4-.4-.8-.7-1.2-1q-.6-.5-1.2-1.1c-.7-.8-1.5-1.5-2.2-2.2-.8-.9-1.7-1.7-2.7-2.4-1-.7-2-1.3-2.9-2.2-.7-.6-1.2-1.6-2.1-1.9-.3-.1-.6-.1-.9-.2-.3-.1-.4-.2-.3-.5.1-.5-.7-.7-.8-.2zm2.5.1c.1-.7-.7-1.1-1.2-1.5-.7-.5-1.2-1.3-1.7-2-.6-.8-1.3-1.5-1.9-2.2-.7-.8-1.3-1.6-1.8-2.4-1-1.7-2.5-3.1-3.9-4.4-.7-.6-1.4-1.3-2-2.1-.6-.8-1.1-1.6-1.7-2.4-.6-.8-1.3-1.7-1.8-2.6q-.3-.6-.5-1.2c-.1-.4-.2-.8-.4-1.2-.1-.2-.3-.4-.4-.6-.1-.2-.1-.5-.1-.7 0-.6-.1-1.1-.2-1.7q-.1-.7-.1-1.4c0-.5-.2-1-.3-1.5-.2-1-.1-2.1-.1-3.2v-3.2c-.1-1.1-.3-2.1-.4-3.2q-.2-1.5-.3-3.1c0-1-.3-2-.3-3s.3-1.9.6-2.8c.6-1.6 1.4-3.1 2.7-4.3.8-.6 1.6-.9 2.5-1.3.9-.4 1.8-.9 2.7-1.3q.6-.2 1.3-.4c.4-.2.9-.4 1.3-.6.9-.4 1.8-.5 2.7-.6l1.4-.2c.5 0 1-.2 1.6-.3.9-.1 1.8.4 2.8.4.5 0 1 .1 1.5.2l1.4.4c1 .4 2 .4 3.1.6 1 .3 2 .6 3 .8q.8.2 1.5.3c.5.1 1 .1 1.4.3.4.1.8.3 1.1.5l1.4.6q.6.2 1.3.5c.5.2 1 .5 1.5.8 1.8 1.1 3.7 2.1 5.5 3.1.5.2.9.4 1.3.7l1 1c.6.7 1.1 1.4 1.7 2.1.8.8 1.4 1.7 2 2.6.5.9 1.1 1.8 1.3 2.8.1.1.1.3.1.4 0 0 0 .1 0 0 0 0 .1 0 0 0-.5.1-.3.8.2.7 1.7-.3-1-4.3-1.4-4.9q-.3-.5-.7-1c-.6-.8-1.3-1.5-1.9-2.3-.6-.7-1.1-1.4-1.9-2-.8-.6-1.8-1-2.7-1.5q-1.5-.8-2.9-1.7c-1-.5-1.9-1.2-2.9-1.6-.9-.4-1.9-.6-2.8-1.1q-.5-.3-1.1-.5c-.5-.2-1-.2-1.5-.2-1.1-.2-2.2-.5-3.2-.8q-1.6-.4-3.1-.6c-1.1-.2-2-.6-3-.9-.5-.1-1 0-1.4-.1-.6 0-1.1-.2-1.6-.3-1-.2-2 .2-3 .3-1 .2-1.9.2-2.9.5-1 .2-1.8.7-2.8 1q-.6.3-1.3.5c-.5.2-.9.4-1.3.7-.9.5-2 .7-2.8 1.3-.8.4-1.4 1-1.9 1.7-1.2 1.4-1.9 3.1-2.4 4.8-.2 1-.2 2 0 2.9 0 .6.2 1.1.2 1.6q0 .9.1 1.8c0 1 .2 2.1.4 3.2.1 1.1.2 2.2.2 3.3 0 1.1-.1 2.2 0 3.3 0 1.1.3 2.1.4 3.1q0 .8.1 1.5c.1.6.1 1.2.2 1.7 0 .5.2.8.5 1.2.2.4.3.9.5 1.3.7 2 2.1 3.6 3.3 5.2.6.8 1.1 1.6 1.8 2.3.7.8 1.5 1.4 2.3 2.2.7.7 1.4 1.4 2 2.3.6.8 1 1.7 1.6 2.4.7.8 1.4 1.5 2.1 2.4.7.7 1.2 1.6 1.9 2.4.2.2.5.4.8.5.2.2.6.4.6.7 0 .5.7.5.7 0z"/><path class="e" d="M111.7 81.8c0-1.7.3-3.3.8-4.9.4-1.6 1-3.2 1.7-4.6.7-1.5 1.6-2.8 2.4-4.2.4-.6.8-1.3 1.1-2 .2-.6.5-1.1.9-1.6.3-.4.6-1 1-1.4.3-.2.7-.3 1-.4.4-.1.8-.2 1.1-.3.7-.3 1.4-.7 2.1-.9q1.1-.4 2.2-.6c1.5-.3 3-.3 4.6-.4 1.6 0 3.3-.2 4.9.3.7.2 1.5.3 2.1.6.5.3.9.8 1.4 1.2.4.4.9.7 1.3 1.1.2.3.3.6.5.9q.3.4.7.8c.5.6 1 1.1 1.4 1.7.4.6.9 1.2 1.3 1.7.5.6 1.1 1.1 1.5 1.7.4.6.8 1.2 1.1 1.9.6 1.5 1.2 3.1 1.8 4.7.6 1.5 1.1 3 1.3 4.6.1 1.6.1 3.2 0 4.7 0 1.7-.1 3.3 0 5 .1 1.6.5 3.3.6 4.9.2 1.7.1 3.4.1 5.1q0 1.5.1 3c0 .7.1 1.6-.2 2.3-.2.2-.2.2-.5.1-.4-.1-.6.6-.2.8 1.9.6 1.6-2.7 1.6-3.7-.1-1.3 0-2.6 0-3.9 0-1.7-.1-3.5-.3-5.2-.1-.9-.3-1.8-.4-2.7-.1-.9-.1-1.7 0-2.6v-5.1c.1-1.6 0-3.3-.4-4.8-.2-.9-.6-1.7-.9-2.5l-1-2.6c-.6-1.4-1.1-3-2-4.3-.4-.6-1-1.1-1.5-1.7-.5-.6-.9-1.2-1.4-1.9-.5-.6-1-1.2-1.5-1.7-.5-.6-.8-1.3-1.3-1.8-.4-.5-.9-.8-1.4-1.2-.4-.4-.8-.9-1.4-1.1-.6-.4-1.4-.5-2.1-.7-.8-.3-1.7-.3-2.5-.3-1.7 0-3.4 0-5 .1s-3.2.4-4.7.9c-.8.2-1.5.6-2.2.9-.7.3-1.5.3-2.2.8-.5.3-.7.9-1.1 1.4-.4.5-.7 1-1 1.6-.6 1.5-1.6 2.9-2.4 4.3-1.7 2.9-3 6.2-3.6 9.5q-.2 1.2-.2 2.5c0 .4.8.4.8 0zm13.5 73.5c.5 0 .5-.7 0-.7s-.5.7 0 .7z"/><path class="e" d="M125.5 155.1c1.1-1.5 2.2-2.9 3.5-4.3 1.2-1.3 2.5-2.5 3.8-3.8.6-.6 1.4-1.2 2-1.8.6-.6 1.1-1.4 1.7-1.9.3-.3.6-.5.8-.8.3-.3.5-.7.7-1l.6-1c.3-.3.4-.6.6-.9.3-.8.8-1.4 1.3-2.1.5-.7.8-1.4.7-2.2 0-.5-.8-.3-.7.2.1.7-.5 1.4-.8 1.8-.4.6-.8 1.2-1.1 1.8-.2.4-.3.7-.5.9q-.4.5-.7 1c-.2.3-.4.7-.6 1-.3.3-.6.5-.9.8-.6.6-1.1 1.3-1.7 1.9-.6.6-1.2 1.1-1.9 1.7-1.3 1.2-2.6 2.4-3.8 3.8-1.3 1.4-2.5 3-3.6 4.5-.3.4.3.8.6.4zm-11.8-83.9v-.1c0-.1.1-.1.1-.2q.1-.2.3-.4c.3-.3.5-.6.8-.8.7-.8 1.1-1.8 1.3-2.8 0-.2-.1-.4-.3-.5-.2 0-.4.1-.5.3q-.1.8-.5 1.6-.2.3-.4.7c-.1 0-.1.1-.2.1q0 .1-.1.2c-.5.5-1.4 1.3-1.2 2.1.1.5.9.3.7-.2z"/><path class="e" d="M115.1 69.9c.1-.4 0-.9-.2-1.3-.2-.3-.5-.5-.8-.7-.4-.4-.6-.8-.9-1.3q-.5-.8-1-1.5c-.4-.5-.9-.9-1.3-1.4q-.5-.7-1-1.5c-.2-.5-.4-1-.8-1.5-.2-.4-.7-.9-.6-1.5.1-.5-.6-.7-.7-.2-.2 1.2.7 2 1.2 3s1.2 2.1 2 3q.7.7 1.2 1.5c.3.5.6 1 1 1.5.2.3.5.5.8.8.4.3.4.7.4 1.1-.1.5.7.5.7 0z"/><path class="e" d="M99.4 68.8c0-.4.4-.8.7-1.1q.4-.6 1-1.2.5-.7 1-1.2c.4-.3.8-.5 1.1-.8.2-.4.3-.8.5-1.1.3-.4.7-.7 1-1.1.7-.6 1.2-1.3 1.6-2.1.2-.5.4-.9.7-1.2.3-.4.6-.8 1-1.1.7-.7 1.2-1.6 1.9-2.3.7-.8 1.4-1.5 2-2.3.7-.8 1.4-1.7 2-2.5q1-1.4 2-2.7c.7-.7 1.5-1.2 2.2-1.9.7-.7 1.3-1.4 2-2 .8-.7 1.7-1.2 2.6-1.7 1.8-1.1 3.5-2.4 5.2-3.6.9-.5 1.5-1.2 2.2-1.9.7-.7 1.4-1.4 2.2-2 1.7-1.1 3.5-1.9 5.2-2.9.9-.5 1.8-1 2.6-1.7.8-.5 1.6-1 2.4-1.6.8-.5 1.5-1.2 2.2-1.9.8-.6 1.7-1.2 2.6-1.7 1.9-.9 4.1-1.4 6.1-2.1 2.1-.7 4.1-1.4 6.3-2 1.9-.5 3.9-.3 5.9-.3 2.2.1 4.5 0 6.7 0 1.1 0 2.2 0 3.2.1 1.1.1 2 .3 3.1.3 2.2 0 4.5-.1 6.8 0 1.1.1 3.7 1 4-.8 0-.4-.1-.7-.2-1.1-.3-.5-.4-1-.6-1.5q-.4-1.5-.3-3.1c0-1.6.2-3.6 1.3-4.8.5-.6 1-1.1 1.2-1.9 0-.4-.7-.7-.8-.2-.1.8-.8 1.3-1.2 1.9-.5.6-.8 1.5-1 2.3-.4 1.7-.5 3.7 0 5.5q.2.8.4 1.5c.2.4.5.9.4 1.3-.1.8-1.5.4-2 .3-1-.2-2.1-.2-3.1-.2H180c-1.1 0-2.2 0-3.3-.1q-1.5-.3-3-.2h-6.9c-2 0-4-.3-6 0-1 .1-2 .5-3 .8q-1.6.4-3.1.9c-1.1.4-2.1.8-3.1 1.1-1 .3-2.1.7-3.1 1-.9.4-1.8.8-2.7 1.3-.8.5-1.6 1.2-2.3 1.8-.8.7-1.5 1.3-2.4 1.9-.9.5-1.7 1.1-2.5 1.7-1.7 1.1-3.5 1.9-5.3 2.9-.8.5-1.7 1-2.5 1.7-.7.6-1.3 1.4-2 2.1-.7.7-1.6 1.1-2.4 1.7-.9.6-1.7 1.3-2.6 1.9q-1.4.9-2.8 1.7c-.8.5-1.5 1.1-2.2 1.8-.7.7-1.3 1.4-2.1 2-.8.6-1.4 1.4-2.1 2.2-1.3 1.7-2.5 3.5-4 5.1-.7.7-1.4 1.5-2.1 2.3-.3.4-.5.8-.8 1.1-.4.4-.8.7-1.1 1.1-.6.7-.9 1.6-1.3 2.3-.5.9-1.3 1.4-1.9 2.1-.3.4-.5.7-.6 1-.2.5-.6.6-1 1-.8.6-1.4 1.5-2.1 2.3-.4.6-1.1 1.2-1 2.1.1.4.8.2.7-.2z"/><path class="e" d="M189 20.6q0-.2.1-.3-.2.1-.3.2c.8-.2 1.6-.1 2.4.1.3.1.6.2 1 .3h1.3c.4 0 .8.1 1.2.2q.6.3 1.2.4.6.1 1.3.2c.4 0 .8.1 1.3.2 1.8.4 3.7.3 5.5.4 1.9 0 3.8.3 5.6.7 1.8.3 3.5.8 5.3 1.2 1.7.3 3.4.7 5.1 1.3.8.3 1.6.7 2.3 1.1.8.3 1.7.6 2.5.8.8.3 1.7.5 2.4 1 .6.4 1.1 1 1.8 1.4.7.4 1.4.7 2 1.2l1.8 1.8c1.3 1.2 2.5 2.4 3.6 3.8 1.1 1.3 2.3 2.7 3.5 4 .6.6 1.1 1.2 1.6 1.9.4.7.7 1.3 1.1 2 .9 1.3 2.3 2.2 3.1 3.6.5.7.7 1.5 1.1 2.2.5.8 1 1.5 1.4 2.4q.7 1.2 1.3 2.4c.4.8.9 1.5 1.2 2.4.3.8.5 1.7.7 2.6.1.9.4 1.7.7 2.5.4 1.8.8 3.6 1 5.4.1 1.8.1 3.7 0 5.5-.1 1.8 0 3.6-.2 5.5-.1.9-.3 1.8-.7 2.6-.3.8-.7 1.5-.9 2.4q-.2 1.2-.4 2.5.1-.1.3-.2h-.3c-.5.1-.3.9.2.8q.1-.1.3-.1c.1 0 .2-.1.2-.3.2-.9.3-1.8.5-2.7.2-.8.6-1.6.9-2.4.7-1.7.8-3.6.8-5.5s.1-3.8.1-5.7q0-2.8-.5-5.5-.3-1.3-.7-2.7c-.2-.8-.5-1.7-.6-2.6-.2-.9-.4-1.7-.8-2.6-.3-.8-.8-1.6-1.2-2.4q-.7-1.3-1.3-2.5c-.5-.8-1-1.6-1.4-2.4-.4-.8-.7-1.6-1.2-2.3-.5-.7-1.1-1.3-1.7-1.8-.5-.6-1-1.2-1.5-1.9-.4-.7-.7-1.4-1.2-2-.4-.7-1-1.3-1.6-1.9l-1.8-2c-1.2-1.4-2.3-2.9-3.6-4.2l-2-1.8c-.5-.6-1.1-1.2-1.8-1.7-.6-.5-1.4-.8-2-1.3-.7-.5-1.2-1-2-1.4-.8-.3-1.6-.6-2.5-.8q-1.2-.4-2.4-1c-3.3-1.6-6.9-2.1-10.3-2.9-1.9-.5-3.8-.8-5.7-1-1.9-.2-3.8-.1-5.8-.3-.9 0-1.8-.3-2.8-.4-.8-.2-1.7-.2-2.5-.5-.8-.4-1.6-.3-2.5-.4-.8 0-1.5-.3-2.3-.4q-.6-.1-1.2 0c-.1 0-.3.1-.5.2s-.2.3-.2.5c-.1.4.6.6.7.2z"/><path class="e" d="M149.8 107.6c1.3.2 2.6-.8 3.7-1.3.8-.4 1.6-.9 2.5-1.3.8-.3 1.6-.5 2.3-1.1.4-.3.7-.5 1.2-.7l1.2-.6c.8-.5 1.6-1.2 2.4-1.7.8-.5 1.7-.8 2.6-1.3.8-.4 1.4-1.1 2.3-1.4 1.7-.8 3.3-1.7 4.8-2.8 1.7-1.1 3.4-2.1 5-3.2 1.6-1.2 3-2.6 4.4-3.9.8-.7 1.6-1.3 2.3-2 .6-.7 1.3-1.4 2-1.9.8-.6 1.5-1.2 2.2-2 .6-.6 1.1-1.4 1.9-1.9.4-.2.7-.4 1-.7.3-.3.7-.7 1.1-.9.3-.3.7-.5 1-.8.4-.2.8-.6 1.1-.9.7-.6 1.4-1 2.2-1.5.8-.5 1.5-1 2.2-1.6 1.4-1.2 2.9-2.3 4.3-3.4 1.5-1.2 2.9-2.4 4.4-3.6 1.6-1.1 3.2-2 4.9-2.9 1.8-.9 3.5-2 5.3-3.1.8-.5 1.6-1.1 2.3-1.8.6-.6 1-1.4 1.7-2 .7-.6 1.6-.9 2.3-1.4.8-.5 1.4-1.1 2-1.7.7-.6 1.5-1.1 2.2-1.7q1-.8 1.9-1.7c1.3-1.4 2.4-3 3.7-4.3 1.5-1.3 3.1-2.3 4.8-3.3.8-.5 1.7-1 2.4-1.6.2-.1.3-.4.1-.6-.4-.4-.8-.2-1.2.1-.4.4.2.9.5.6q.2-.3.2-.2 0-.3.1-.6c-1.6 1.2-3.3 2-5 3.1-1.5 1.1-2.9 2.4-4.1 3.8-1.2 1.4-2.2 2.8-3.6 4-.7.5-1.5 1-2.2 1.6-.7.6-1.3 1.3-2.1 1.8-.7.5-1.6.8-2.3 1.3-.6.6-1.1 1.3-1.7 1.9-.6.8-1.4 1.4-2.2 1.9-.9.5-1.7 1.1-2.6 1.6-1.7 1.1-3.5 1.9-5.3 2.9-1.5.9-3 2-4.4 3.2-1.4 1.2-2.8 2.3-4.3 3.5-1.5 1.1-2.9 2.4-4.4 3.4-.7.5-1.5.8-2.1 1.4-.4.2-.7.5-1 .8-.3.3-.8.6-1.2.9q-.5.3-1 .8c-.3.3-.6.6-1 .9-.4.2-.7.3-1 .6-.4.3-.7.7-1 1q-.9 1.1-2 2c-.8.6-1.5 1.2-2.2 1.9-.6.7-1.3 1.3-2 1.9q-1.1 1-2.2 2.1c-.8.6-1.5 1.3-2.3 1.9-.8.6-1.6 1.1-2.4 1.7-1.7 1-3.2 2.1-4.9 3.2q-1.1.7-2.4 1.3c-.4.1-.8.3-1.2.5-.4.3-.7.5-1.1.8-.8.5-1.7.8-2.5 1.3-.9.4-1.6 1-2.4 1.6-.4.2-.7.5-1.1.7-.5.2-.9.4-1.4.6-.3.2-.6.5-.9.7-.4.3-.9.5-1.4.6-.9.3-1.6.8-2.5 1.2l-1.8 1c-.6.2-1.3.6-1.9.5-.4 0-.6.7-.2.8z"/><path class="e" d="M229.1 51.5v-.6q.1-.2.1-.4l.1-.1v-.1h.1q0-.2.1-.4h.1c0-.1-.1 0 0-.1q.1 0 .1-.1.1 0 .2-.1v-.1h.2c.1-.1-.1 0 0-.1h.1c.2 0 .3-.2.3-.4-.1-.2-.3-.4-.5-.3-1.1.3-1.7 1.7-1.7 2.8 0 .2.2.4.4.4s.4-.2.4-.4zm-68 1.7c0 1.7.1 3.3-.1 5-.1.8-.3 1.6-.3 2.4 0 .8.1 1.6 0 2.4-.1 1.5-.5 3-.4 4.6.1 1.5.5 3.1 1 4.6.2.6.5 1.1.5 1.7v5c0 .8-.2 1.6-.3 2.4 0 .8 0 1.6-.1 2.5 0 .8-.2 1.6-.2 2.4-.1.8-.1 1.7-.1 2.5s-.2 1.6-.3 2.5c-.1.9 0 1.8-.1 2.7 0 .9-.3 1.7-.5 2.6-.3.8-.4 1.6-.5 2.5-.1.9-.6 1.7-.7 2.5-.1.5.6.7.7.2.1-.7.5-1.4.7-2.1.2-.8.2-1.6.3-2.4.2-.7.5-1.5.6-2.2.2-.8.2-1.6.2-2.4 0-.8.2-1.7.3-2.5 0-.8.1-1.6.1-2.4 0-.9 0-1.7.1-2.5s.2-1.6.3-2.5c0-.8 0-1.7.1-2.5.2-.8.1-1.5.1-2.3v-2.5c0-.8.1-1.6-.1-2.3-.1-.6-.4-1.2-.6-1.8l-.6-2.4q-.2-1.2-.1-2.4c0-.8.1-1.6.2-2.4.2-.8.2-1.6.2-2.5q-.1-.7 0-1.4c0-.4.1-.9.2-1.3.2-1.9.1-3.8.1-5.7 0-.5-.7-.5-.7 0zm-4.9 82.2c0 2.8 0 5.6-.2 8.3-.2 1.4-.2 2.8-.2 4.2q.1.5 0 1c0 .3-.1.6-.2.9-.2.6-.2 1.2-.2 1.7 0 1.3.1 2.6.1 3.9-.1 1.4-.1 2.8-.3 4.1-.2 1.4-.6 2.6-.9 3.9-.3 1.3-.4 2.6-.6 3.9-.2 1.4-.6 2.6-1 3.9-.5 1.2-.8 2.5-1.2 3.7-.2.7-.4 1.3-.5 1.9-.1.7-.1 1.3-.1 1.9 0 .7.1 1.3 0 1.9 0 .6-.3 1.1-.3 1.7-.1.6 0 1.2 0 1.8v6.3c0 2.8.1 5.6-.3 8.3-.2 1.3-.6 2.7-1 3.9-.3 1.3-.9 2.5-1.3 3.8-.5 1.2-.7 2.5-1 3.8-.3 1.3-.3 2.6-.3 3.9v2.1h.8v-2.4c0-.5-.8-.5-.8 0v2.4c0 .5.8.5.8 0V212c0-1.3.4-2.6.7-3.9.3-1.3.9-2.5 1.3-3.7.5-1.2.9-2.5 1.2-3.8.6-2.7.6-5.4.6-8.1 0-2.8.1-5.6 0-8.4v-1.8c.1-.6.3-1.1.4-1.7.1-1.3-.2-2.6.1-3.9.2-1.3.8-2.5 1.1-3.8.3-1.3.9-2.5 1.2-3.7.3-1.3.5-2.6.6-4q.2-.9.4-1.9c.1-.6.4-1.3.5-1.9.7-2.6.7-5.4.6-8 0-1.2-.1-2.5.2-3.7.4-1.3.1-2.7.2-4 0-1.3.2-2.7.3-4.1.1-1.3 0-2.7 0-4.1v-2.1c0-.5-.7-.5-.7 0z"/><path class="e" d="M149.5 196.1c.2 1.4-.4 2.8-.9 4.2-.5 1.4-.7 2.9-1.2 4.3q.4.1.8.1c-.1-.5-.1-1 .2-1.4.3-.4-.2-.9-.5-.5-.4.5-.6 1.2-.5 1.9 0 .4.6.5.7.1.3-.7.5-1.5.6-2.3q.3-1.1.7-2.2c.5-1.3 1-2.8.9-4.2-.1-.5-.8-.5-.8 0zm15.8 18.8c0-.5.1-.9.3-1.3q.2-.7.3-1.4c.1-1 .1-2 .3-2.9.1-1 .3-2 .5-2.9.3-.9.8-1.8 1.1-2.7.3-.9.4-1.9.8-2.7.4-.7 1-1.3 1.5-2 .5-.8 1.1-1.5 1.7-2.3.6-.7 1.1-1.4 1.7-2.2 1.1-1.3 2.2-2.7 3.1-4.3.5-.8.9-1.7 1.4-2.5q.7-1.3 1.5-2.5c1.1-1.6 2.2-3.3 3.1-5l1.4-2.6c.5-.8 1.1-1.7 1.6-2.5.6-.9 1-1.8 1.4-2.8.4-.9.8-1.7 1.6-2.4.6-.6 1.4-1.1 1.9-1.7.5-.5 1.1-1.5 1.8-1.4.5.1.7-.6.2-.7-.7-.1-1.3.3-1.8.8-.6.5-1 1.1-1.6 1.6-.6.5-1.3 1-1.8 1.7s-.9 1.6-1.3 2.5c-.8 1.8-2 3.4-3 5.1-1 1.8-1.9 3.6-3 5.3-1.1 1.7-2.2 3.3-3.1 5.1-.5.8-.9 1.7-1.5 2.6q-.7 1.1-1.6 2.2l-1.8 2.2c-.6.8-1.2 1.6-1.9 2.3-.5.7-.9 1.4-1.5 2.1-.2.4-.5.7-.7 1.1-.2.4-.3.9-.4 1.3-.2.6-.3 1.1-.5 1.7l-.6 1.5c-.4 1-.6 2.1-.8 3.2-.3 1.1-.4 2.1-.4 3.2q-.1.9-.3 1.7c-.2.5-.4 1-.4 1.6 0 .5.7.5.8 0z"/><path class="e" d="M192.9 166.5c.8-.2 1.5-.7 2.3-1 .9-.3 1.6-.1 2.3.4.7.5 1.3 1.1 2 1.6.7.6 1.5.9 2.2 1.5 1.5 1.1 2.5 2.7 3.8 4.1.3.3.6.6.8.9q.4.5.6 1c.2.3.3.6.5.9.3.4.6.6.7 1.1 0 .4 0 .7.2 1 .2.4.5.8.7 1.3l.6 1.2q.3.6.6 1.3c.3.7.6 1.4 1 2.1.5.7 1.1 1.4 1.7 2.2.5.7.9 1.6 1.3 2.4.2.4.5.7.7 1.1.3.4.5.9.7 1.3.5.8.9 1.5 1.2 2.3.4.8.6 1.6.9 2.4q.4 1.2.9 2.4.2.5.5 1c.3.4.6.8.8 1.2.4.8.7 1.6 1.2 2.3.6.8 1.1 1.5 1.7 2.2.6.6 1.2 1.2 1.9 1.8.7.6 1.5 1.1 2.2 1.6 1.6.9 3.4 1.6 5.1 2.3q1.3.6 2.6 1c.9.3 1.8.5 2.7.7 1.9.5 3.8 1 5.7.8.8-.1 1.5-.5 2.2-1 .8-.4 1.6-.8 2.5-1 .8-.3 1.7-.4 2.5-.7.8-.4 1.6-.9 2.4-1.3 1.8-.7 3.4-1.8 4.8-3 .7-.5 1.3-1.2 2-1.8.7-.7 1.4-1.3 2.2-2q1.1-1 2.3-2c.7-.6 1.4-1.3 2.3-1.8.6-.4 1.3-.7 2-.9.5-.1 1-.2 1.6-.4.4-.1.9-.3 1-.8.2-.5-.6-.7-.7-.2-.1.2-1 .4-1.2.5-.5.1-1 .2-1.5.4-.8.3-1.5.6-2.2 1.1-.8.6-1.5 1.3-2.3 1.9-1.4 1.3-3 2.5-4.3 3.9-.7.7-1.3 1.3-2.1 1.9q-1.1.9-2.3 1.6c-.8.5-1.7.9-2.5 1.2-.8.4-1.5.9-2.4 1.2-.9.3-1.7.4-2.6.7q-1.2.4-2.3 1.1c-.4.3-.7.5-1.2.6-.4.1-.9.1-1.3.1-1 0-1.9-.2-2.9-.4-1.8-.4-3.6-.9-5.4-1.5-1.7-.7-3.5-1.4-5.2-2.3-1.6-.8-3.1-1.9-4.4-3.1-.6-.6-1.2-1.4-1.7-2.1-.6-.7-1-1.4-1.4-2.3-.4-.8-.9-1.4-1.3-2.2-.4-.7-.7-1.5-1-2.3-.5-1.6-1-3.2-1.8-4.7-.5-.8-.9-1.6-1.4-2.4-.5-.7-.9-1.6-1.4-2.4-.4-.8-1-1.5-1.5-2.2-.5-.6-.9-1.2-1.2-1.9-.4-.9-.8-1.7-1.2-2.5-.2-.4-.4-.9-.6-1.3-.2-.3-.5-.7-.6-1.2-.1-.3 0-.7-.2-1-.2-.4-.5-.6-.7-1-.4-.6-.6-1.3-1.1-1.9-.5-.7-1.2-1.3-1.7-2-.6-.7-1.2-1.4-1.8-2-.7-.7-1.3-1.2-2.1-1.7-.4-.2-.8-.4-1.2-.7-.3-.3-.6-.6-1-.9-.6-.5-1.2-1.1-1.9-1.4-.7-.3-1.5-.3-2.2 0-.8.3-1.5.8-2.3.9-.5.1-.3.9.2.8z"/><path class="e" d="M242.2 211.4c-.5 0-1-.1-1.4-.3q-.1.3-.2.7c.6 0 1.3-.1 1.9.1.6.1 1.2.2 1.8.2.5.1.5-.7 0-.7-.6 0-1.1-.2-1.7-.3-.7-.1-1.3 0-2-.1-.4 0-.5.5-.2.7q.8.5 1.8.4c.2 0 .4-.1.4-.3 0-.2-.2-.4-.4-.4zm-85-69.3c1.4-.2 2.7-.5 4-1 .6-.2 1.2-.5 1.9-.6q.5-.2 1-.2c.4 0 .7.1 1.1.1.6-.1 1.2-.3 1.8-.4.7-.1 1.5-.1 2.2-.1.7 0 1.4.1 2.1 0 .6-.1 1.3-.2 1.9-.4.7-.2 1.3-.3 1.9-.4.7-.2 1.4-.1 2.1-.1h8.9c.7 0 1.4-.1 2.1 0 .7.1 1.4.3 2.1.3 1.4.1 2.9 0 4.4 0H217c1.3 0 2.6.1 3.9.3 1.4.2 2.7.7 4 1 1.4.3 2.7.6 4.1.9 1.3.4 2.6.6 4 .6h2.2q.5 0 1.1.1c.3 0 .6.1 1 .2.3.1.5 0 .8 0 .2.1.3.2.4.4.1.3.2.7.4 1 .2.3.5.4.9.4.5 0 .5-.8 0-.8-.3.1-.4-.3-.5-.6-.1-.3-.2-.7-.5-.9q-.3-.2-.6-.2c-.4 0-.7 0-1-.1q-1-.2-2-.3c-1.5 0-2.9.2-4.3-.1-1.4-.2-2.7-.6-4-.9-1.4-.3-2.8-.6-4.2-1q-1.8-.6-3.7-.7c-1.4-.1-2.8-.1-4.3 0h-4.4c-6 0-11.9-.1-17.9 0-.7 0-1.5 0-2.2-.1-.7 0-1.3-.2-2-.2-1.4-.2-2.9-.1-4.4-.1h-4.3c-1.5 0-2.9-.1-4.3.1-1.3.2-2.6.7-3.9.8-1.4.2-2.8-.1-4.2.1-.7.1-1.3.4-1.9.4-.7 0-1.4-.1-2.1.1-1.3.3-2.5.9-3.8 1.3q-1 .2-2.1.3c-.4.1-.4.8 0 .8zm27.2-56c.1.5.5 1 .7 1.6.2.6.3 1.3.4 2 .2.6.5 1.3.7 2q.2.9.3 2v4q-.1 1.1.1 2.1c.1.7.2 1.3.2 2 .1.7.1 1.3.1 2 .1.7.3 1.3.3 2s0 1.3.3 2c.2.6.4 1.1.4 1.7-.1.7.1 1.2.4 1.7.2.6.3 1.2.4 1.9 0 1.2-.1 2.4-.1 3.7 0 1.5.1 3.1-.3 4.6-.4 1.6-.4 3.1-.4 4.6 0 .5.7.5.7 0 0-1.4 0-2.8.4-4.1.4-1.4.4-2.7.3-4.1 0-1.3.1-2.6.1-3.9q.1-.9-.1-1.8c-.1-.6-.3-1.1-.6-1.7-.2-.6 0-1.2-.1-1.8-.2-.6-.5-1.1-.6-1.7-.2-.8 0-1.5-.1-2.2-.2-.7-.3-1.3-.3-2s0-1.3-.1-2-.2-1.3-.3-2c0-1.4.1-2.8 0-4.2q0-1.2-.2-2.3c-.1-.7-.4-1.4-.6-2.2-.2-.7-.3-1.5-.5-2.2q-.1-.5-.4-1c-.1-.3-.3-.6-.3-.9-.1-.5-.9-.3-.8.2z"/><path class="e" d="M250.6 86.4c.1.5.4.9.4 1.4v1.5q-.1 1.5 0 3.1V94c-.1.5-.3 1-.5 1.5s-.3 1-.4 1.5c-.2.6-.5 1-.7 1.6-.2.4-.2.8-.2 1.2 0 .6-.1 1.2-.3 1.8-.2 1.1-.5 2.1-.7 3.2q-.3 1.6-.4 3.1c0 1.1 0 2.2-.1 3.3-.1 1-.3 2.1-.5 3.2s-.4 2.1-.6 3.2c-.5 2-1.3 4-2 6q-.6 1.5-1.1 3.1c-.3 1-.5 2-.8 3-.2.4-.5.8-.6 1.3-.2.4-.3.9-.3 1.4 0 1.1-.4 2.1-.6 3.2-.6 2.1-1.1 4.3-1.4 6.5-.2 1-.3 2.1-.4 3.1-.1 1.2-.4 2.3-.6 3.4-.9 4.3-.8 8.8-.8 13.2 0 1 .1 2 .2 3 .2 1.1.2 2.2.2 3.3-.1 1.1.3 2.1.3 3.2 0 .4-.1.9 0 1.3 0 .5.3.8.4 1.3.2.9.1 1.9.3 2.9.3 1 .7 2 .8 3 .1 1 .2 2 .6 2.9.3.6.9 1.1 1.4 1.5.7.5 1.3.9 2 1.3.7.6 1.5 1.1 2.3 1.4 1.6.7 3.4 1 5.1.8 1.8-.2 3.5-.9 4.8-2.1.6-.7 1.3-1.3 2-1.9q1.2-1 2.5-1.7c1-.5 2-.3 3-.6.1 0 .2-.1.2-.2q.1-.2.1-.3c.1-.5-.6-.7-.7-.2q-.1.1-.1.3.1-.2.3-.3c-1 .2-1.9.1-2.8.5-.9.4-1.8 1-2.6 1.6-1.4 1-2.4 2.6-4 3.3-1.8.9-3.7 1.1-5.7.7q-1.2-.2-2.3-.8c-.8-.4-1.5-1-2.2-1.4-.7-.5-1.3-.8-1.9-1.4-.7-.6-.9-1.4-1.1-2.3-.1-1-.2-2-.5-2.9-.3-1-.6-1.9-.6-2.9-.1-.5-.1-.9-.2-1.3-.1-.6-.4-1-.4-1.5 0-.4.1-.9.1-1.3l-.3-1.5c-.2-1.1 0-2.2-.1-3.3 0-1-.3-1.9-.3-2.9-.1-2.3 0-4.5 0-6.8 0-2.1.1-4.3.5-6.4.2-1.1.4-2.1.6-3.2.2-1.1.3-2.1.4-3.2.2-2.2.7-4.3 1.2-6.4l.8-3.2c.1-.5.2-.9.3-1.4 0-.6 0-1.1.3-1.6.2-.4.4-.8.5-1.2.2-.5.3-1 .4-1.5.3-1 .6-2 1-3.1.6-2 1.5-3.9 2.1-5.9.6-2 .9-4.1 1.2-6.1.2-1 .4-2 .5-3v-3.2q.1-1.6.5-3.2c.3-1.1.6-2.2.8-3.2.1-.5 0-1 .1-1.4 0-.6.4-1 .6-1.4.2-.5.3-1 .4-1.5.2-.5.4-1 .6-1.6.2-.9.1-1.9.1-2.8v-3.2c.1-.4.1-.8 0-1.3 0-.4-.3-.8-.4-1.3 0-.4-.8-.2-.7.2zM143.9 28.6v-.3c0-.5-.7-.5-.8 0-.1 1 .4 1.8.8 2.6.6 1 .8 2.1 1.1 3.1.3 1.5.5 3 .9 4.5.1.7.3 1.4.7 1.9.5.6 1 .8 1.7.7 2.1-.2 4-1.2 5.8-2 1-.5 2.1-1 3.1-1.5q.7-.3 1.5-.7c.5-.2 1.1-.4 1.6-.6.5-.2 1-.4 1.4-.8.4-.3.7-.8 1.3-.8.8 0 1.5.7 2 1.3.6.7 1.1 1.4 1.7 2 .7.8 1.5 1.5 2.2 2.3 1.4 1.7 2 3.9 3.3 5.7.4.5.9 1.1 1.5 1.3.8.3 1.7-.1 2.4-.4 1-.4 1.8-1 2.6-1.6.9-.7 1.8-1.2 2.8-1.7q1.5-.9 3.1-1.7c1.1-.6 2.1-1.1 3.2-1.6.5-.2.9-.4 1.3-.8.3-.2.5-.7.9-.8.7-.2 1.5.1 2 .4 1.5.8 2.7 1.9 4.1 2.9 1.7 1.1 3.6 2 5.2 3.3 1.4 1.1 2.5 2.8 4.2 3.3 1.9.7 3.9-.6 5.4-1.5 1.9-1.2 3.7-2.5 5.5-3.7 1.3-.9 2.7-2.1 4.2-2.6.7-.3 1.3-.3 1.9 0 .7.4 1.4.8 2.1 1.3q.4.3.9.6c.4.3.7.7 1.1 1.1.8.7 1.8.9 2.7 1.4.8.5 1.4 1.2 2.2 1.6q0-.3-.1-.7c-.3.2-.4.5-.5.9 0 .4.7.4.8 0q0-.2.1-.2c.3-.2.2-.6-.1-.7-.8-.4-1.4-1.2-2.3-1.6-.4-.3-.9-.5-1.4-.7-.5-.2-.9-.6-1.3-.9-1.1-1.1-2.5-2.1-3.9-2.8-.6-.2-1.2-.3-1.9-.2-.8.2-1.5.6-2.2 1-.7.4-1.3.9-2 1.4-.8.5-1.6 1-2.4 1.6-1.7 1.2-3.5 2.5-5.5 3.5-.8.4-1.8.8-2.7.6-.9-.2-1.6-.7-2.2-1.3-.7-.6-1.3-1.4-2.1-2-.8-.6-1.6-1.1-2.5-1.6-.9-.6-1.8-1.1-2.6-1.6-.7-.5-1.3-1-2-1.5-1.1-.9-2.5-2-4.1-2.1q-.4 0-.9.1c-.4.2-.6.5-.9.8-.8.8-2 1.2-3.1 1.6-2 1-4.1 2.1-6 3.3-.9.6-1.7 1.2-2.6 1.8-.8.5-1.7 1.1-2.7 1.1-.7.1-1.1-.5-1.5-1-.7-.9-1.2-1.9-1.7-2.9-.4-1-.9-1.8-1.6-2.7-.6-.7-1.3-1.4-2-2.2-.7-.7-1.3-1.4-1.8-2.1-.5-.6-1.1-1.2-1.8-1.5q-.6-.3-1.1-.2c-.5 0-.8.2-1.2.5-.5.4-.9.7-1.4 1-.5.2-1.1.4-1.6.6-1.1.4-2.1 1-3.1 1.5l-3 1.4c-1.1.4-2.1.9-3.2 1.2-.6.1-1.6.4-2 0-.5-.5-.6-1.2-.8-1.8q-.3-1.1-.4-2.2c-.3-1.8-.6-3.7-1.4-5.3-.4-.8-1-1.6-.9-2.6h-.8v.3c.1.5.8.5.8 0z"/><path class="e" d="M144.7 28.1c0 2.8.8 5.4 1 8.2.1 1.1 0 2.2.2 3.3.2.8.4 1.9 1.5 2 .9.1 1.9-.6 2.7-1 1.1-.5 2.2-1 3.4-1.2 2.6-.6 5.2-1.5 7.5-2.9l1.6-1c.4-.2.9-.6 1.4-.5.5 0 .8.6 1 1.1.1.5.2 1.1.4 1.6.4 1.1 1.4 1.6 2.2 2.5.4.4.7 1.1 1 1.6q.5.9.9 1.8c.5 1 .9 2 1.4 2.9.5.8 1.1 1.7 2.2 1.7 1 0 1.9-.6 2.7-1.1.5-.3 1-.5 1.6-.8q.9-.5 1.7-1.1c.6-.3 1.1-.7 1.6-1.1.4-.3.7-.7 1.2-.9.7-.2 1.4-.3 2.1-.5q1-.3 1.9-.6c1.1-.3 2-.7 3.1-1.1.8-.3 1.6-.5 2.4-1 .2-.2.5-.5.6-.8.1-.5-.6-.6-.8-.2 0 .3-.4.4-.6.5l-1.2.6c-.9.3-1.7.7-2.6 1q-.9.3-1.8.5c-.6.2-1.3.4-1.9.6-.6.1-1.2.2-1.8.4-.5.3-.8.6-1.2 1-.9.8-2.1 1.5-3.2 2.1-.5.3-1 .5-1.5.8-.4.2-.9.5-1.3.7-.4.2-.9.4-1.3.2-.4-.1-.7-.6-1-.9-.5-.9-1-1.8-1.4-2.8q-.8-1.7-1.7-3.3-.5-.7-1.1-1.2c-.4-.4-.8-.7-1.1-1.1-.7-.9-.6-2.1-1.2-3.1-.6-.8-1.5-1-2.4-.5-1.1.5-2 1.2-3.1 1.8-1.1.7-2.3 1.1-3.6 1.5-1.2.4-2.5.7-3.8 1-1.1.4-2.1.9-3.1 1.4-.6.3-1.9 1.1-2.3.3-.5-.8-.5-1.9-.5-2.7 0-1.3-.1-2.5-.3-3.8-.2-1.3-.5-2.6-.6-3.9q-.1-1-.1-2c0-.5-.8-.5-.8 0z"/><path class="e" d="M192.1 39.3h-.2q.1.1.1 0l-.3.3c.6-.2 1.1.6 1.4 1 .4.6 1.1 1 1.7 1.3.8.5 1.5.9 2.3 1.4l2.1 1.5c.8.5 1.5.9 2.3 1.3q1 .6 1.8 1.5c.5.5 1 1.1 1.4 1.6.4.5.9 1.1 1.5 1.1.5 0 1-.4 1.4-.7.4-.4.9-.8 1.3-1.1.7-.5 1.4-.9 2.1-1.3l2.6-1.4c.9-.5 1.7-.9 2.6-1.3.8-.4 1.6-.9 2.3-1.4.8-.5 1.5-1 2.3-1.5q.5-.3 1.1-.6c.3-.2.6-.5 1-.4.4 0 .6.2.9.5q.4.4.7.8c.6.6 1.2 1 2 1.4 1.6 1 3.2 2.1 4.5 3.4.4.4.9-.2.6-.5-1.3-1.2-2.6-2.2-4.1-3.2-.7-.4-1.5-.7-2-1.2s-.9-1-1.4-1.5c-.5-.4-1.1-.6-1.8-.4-.4.1-.7.4-1 .5q-.6.4-1.3.8c-1.5.9-2.9 2-4.6 2.8q-2.7 1.4-5.3 2.9c-.6.3-1.3.7-1.9 1.2-.4.4-.9.8-1.4 1.2-.1 0-.4.2-.5.3-.3 0-.5-.3-.7-.5-.5-.5-.9-1.1-1.4-1.7q-.8-.9-1.7-1.6c-.8-.5-1.6-.8-2.3-1.3-.9-.5-1.6-1.1-2.5-1.7-.8-.5-1.6-1-2.5-1.5-.5-.3-.9-.5-1.3-.9-.2-.2-.4-.4-.6-.7-.4-.5-1-1.1-1.8-.9-.1.1-.2.2-.2.3-.1.6.2 1 .8.9.5 0 .5-.8 0-.7z"/><path class="c" d="M198.4 5.6s-8 0-8.7 2.1c-.7 2.2-6.5 9.4-2.9 10.8 3.6 1.4 13.8 3.6 15.9 2.9 2.2-.7 7.3-7.2 6.6-9.4-.8-2.1-10.9-6.4-10.9-6.4zm-139 90.3l-14.5 6.5 5 1.4-5 3.6 5.8.7s-8.7 5-5.8 5.1c2.9 0 7.9.7 7.9.7l-2.9 3.6s20.3 2.1 26.1 1.4c5.8-.7-16.6-23-16.6-23zm39.1-29.4l10.1 10.1 3.6-7.9-3.6-6.5zm84.7 20.2l4.3 33s-11.6 9.3-28.2 12.1c-16.7 2.9-21.8-2.8-21.8-2.8l-2.1-2.9v-4.3l2.1-4.3-4.3-1.4s13-7.9 17.4-10.1c4.3-2.1 32.6-19.3 32.6-19.3zM8.6 137.5s-2.1-15 2.2-17.2c4.4-2.1 3.6 6.5 2.9 9.3-.7 2.9-.7 7.2-5.1 7.9z"/><path class="e" d="M154.8 133.4c-.3 13-1.6 26.1-3.5 39q-1.4 9.5-3.2 19c-.6 2.9-1.2 5.7-1.6 8.7-.3 2.6-.5 5.3-.8 7.9-.3 3-.8 6-1.8 8.9-1.1 3-2.7 5.8-4.9 8.1-.2.2-.2.5 0 .6 1.5.9 3.2.8 4.8.1.7-.3 1.3-.8 2-1.3q1.1-.7 2.4-1.2c1.5-.7 3.1-1.1 4.6-1.8q1.1-.4 2.1-1c.6-.3 1.2-.9 1.8-1.3 2.1-1.4 5.1-1.6 6.8-3.5.9-1 1.1-2.2 1.4-3.5q.4-2.3 1.1-4.5c1.9-6.7 5-13 8.3-19.1 3.3-6 6.8-11.8 10.3-17.6.8-1.3 1.5-2.7 2.5-3.8 1-1 2.2-1.8 3.5-2.2 2.6-.8 5.5-.5 7.6 1.1 1.4 1 2.5 2.4 3.4 3.8q1.6 2.2 3 4.5c1.8 3.1 3.5 6.2 5.2 9.4 1.8 3.5 3.9 6.9 6.1 10.3 1.7 2.6 3.5 5.3 5.7 7.7 2 2.3 4.4 4.3 7.2 5.7 3 1.5 6.5 2 9.9 1.9 3.9-.1 7.7-1 11.4-2.4 1.5-.6 3.1-1.2 4.5-2 1.2-.7 2.3-1.5 3.4-2.2 2.4-1.9 4.7-3.9 7.3-5.5 1.1-.7 2.3-1.4 3.5-1.8.5-.2 1.1-.3 1.7-.2.6.2 1.2.6 1.8.9 1.1.7 2.2 1.6 3.6 1.8.2 0 .3 0 .4-.2 1.3-2.3-.2-4.6-1.5-6.6-.8-1.1-1.5-2.2-2.1-3.4-.5-1.1-1-2.1-1.5-3.2-.9-2-2-4.1-3.8-5.5-.7-.5-1.9-1.2-2.9-1.2-.4 0-.8.2-1.2.4l-1.6.8c-2.3 1.2-4.4 2.6-6.7 3.8-2.3 1.3-4.7 2.5-7.3 2.8-1.6.2-3.2-.2-4.5-1.2-1.3-.9-2.2-2.3-2.8-3.6-1.7-3.5-2.4-7.4-2.8-11.2-.3-3.5-.4-7.2-.1-10.8.2-2 .5-4 .8-5.9.5-3.5 1-7 1.6-10.4 1.2-6.8 3.3-13.5 5-20.1 3.2-12.1 5.9-24.3 6.6-36.8l.2-5c0-.5-.8-.5-.8 0q-.1 9.7-1.7 19.3c-1 6-2.4 12-3.9 18q-1.3 4.8-2.5 9.7c-.9 3.4-2 6.7-2.7 10.1-.8 3.4-1.3 6.7-1.8 10.1-.5 3-.8 6-1.3 9-.5 3.2-.5 6.5-.4 9.7.2 3.9.7 7.8 1.9 11.5.9 2.9 2.3 6.2 5.2 7.6 3.8 2 8.5-.4 11.9-2.2 2.2-1.2 4.4-2.6 6.7-3.8q.7-.4 1.4-.7c.2-.1.5-.3.7-.3.3-.1.7.1 1 .2 1.1.3 1.9 1 2.7 1.9 1.5 1.8 2.4 4.1 3.4 6.2.5 1.1 1.1 2.3 1.8 3.3.7 1.2 1.5 2.2 2.2 3.4.6 1.2.9 2.5.2 3.8l.4-.2c-1.5-.2-2.7-1.3-3.9-2-1.1-.6-2-.9-3.1-.6-2.6.6-4.9 2.3-7 3.9-2.3 1.8-4.6 3.7-7.1 5.3-1.4.9-2.9 1.5-4.4 2.1q-2.7 1-5.5 1.8c-3.9.9-7.9 1.2-11.8.4-3.2-.6-6.1-2.2-8.5-4.3-2.4-2.1-4.4-4.6-6.3-7.2q-3.2-4.7-6-9.6c-3.6-6.2-6.6-12.9-11-18.6-.9-1.2-1.8-2.4-3.1-3.2-1.1-.7-2.3-1.2-3.6-1.4-2.5-.4-5.1.3-7.1 1.8-1.1.8-1.9 1.8-2.5 3q-1.3 2-2.5 4-2.6 4.3-5.2 8.7c-3.5 6-6.9 12.2-9.6 18.7-1.3 3-2.4 6.1-3.2 9.3-.4 1.4-.5 2.9-.9 4.3-.4 1.3-1.4 2.1-2.5 2.6-1.3.6-2.6 1-3.8 1.6-1.4.7-2.4 1.7-3.8 2.4-2.9 1.5-6.2 2-8.9 4-.8.5-1.5 1-2.5 1.2-1 .3-2 .1-2.9-.4q.1.3.1.6c3.9-4.1 5.7-9.2 6.6-14.6.4-2.7.6-5.4.9-8.1.3-2.8.7-5.7 1.3-8.5 2.5-12.9 4.5-26 5.8-39.1.8-7.3 1.3-14.6 1.4-21.9 0-.5-.7-.5-.7 0zm-5.5-53c2.1-1.8 4.3-3.5 6.5-5.1q1.8-1.2 3.6-2.3c.3-.1.6-.4.8-.4h.4c.1.1.1.1.1.2.1.8.3 1.5.3 2.3.3 2.9-.1 5.8-.2 8.7-.1 1.4-.4 2.7-.6 4.1l-.8 4.2c-.6 3-1 6-.9 9.1 0 .5.8.5.7 0-.1-2.9.4-5.8.9-8.7q.4-2.1.8-4.3c.3-1.4.5-2.8.6-4.3.2-3 .6-6.1.3-9.2-.1-.7-.2-1.5-.4-2.2-.1-.5-.6-.6-1.1-.7-.3 0-.6.2-.9.4q-.5.2-.9.5-1 .6-1.9 1.2c-2.7 1.8-5.3 3.9-7.8 5.9-.4.3.2.9.5.6zM62.1 94.7c-1.9 1.2-3.9 2-5.9 2.8-1.9.7-3.8 1.3-5.7 1.9-2.1.8-4.2 1.7-6.1 2.8-.4.2-1 .4-1.2.8-.2.3-.2.6-.1.9.2.9 1 1.5 1.8 1.8 2.2 1 4.7.8 6.9 0 .2-.1.3-.4.2-.6-.2-.3-.4-.6-.8-.6-.3 0-.5.2-.6.5-.1.3 0 .5.3.7.3.2.7.1 1-.1.2-.1.2-.4.1-.5-1.7-1.6-4.8-1.5-6.5.1-.7.7-1.3 1.9-.8 2.8.4.9 1.5 1.2 2.3 1.4 1.1.2 2.2.2 3.3.1q-.2-.3-.3-.5l-.2.2s.2 0 .2.1l-.1.2h.3l-.2-.6c-.7.7-1.6 1.3-2.4 2-.8.7-1.9 1.7-2 2.8-.1 1.2 1.5 1.6 2.5 1.5.7-.1 1.5-.2 2.3-.3.5 0 1.4 0 1.5.6.1.7-.8 1.3-1.2 1.7-.5.6-1.2 1.1-1.6 1.8 0 .2 0 .5.3.5 3.7.9 7.5 1.4 11.3 1.5 3.7 0 7.4-.4 11-1.1q3.2-.6 6.4-1.6c.5-.1.3-.8-.2-.7-3.6 1.1-7.3 1.9-11.1 2.3-3.5.4-7.1.4-10.7 0q-3.3-.3-6.5-1.1.1.3.2.5c.3-.5.9-1 1.3-1.4.6-.5 1.2-1 1.4-1.7.3-.6.1-1.3-.4-1.7-.5-.4-1.3-.4-1.9-.3-.8.1-1.6.2-2.3.3-.5 0-1.1-.1-1.4-.5-.2-.2-.1-.6.1-.9.3-.5.7-.9 1.1-1.3.9-.9 2-1.5 2.9-2.4.2-.2.1-.5-.2-.6-.3-.1-.7-.1-.9.1-.2.1-.3.4-.2.6.1.3.3.4.6.4s.6-.3.7-.6c.2-.2 0-.5-.3-.5-.8 0-1.6 0-2.4-.1-.8 0-1.7-.1-2.3-.7-.6-.5-.3-1.4.2-2 .6-.8 1.6-1.2 2.5-1.3 1.1-.1 2.3.1 3.1.9q.1-.3.1-.6l-.3.1c.1-.1.1 0 .1.1 0-.1 0 0 0 0 .1 0-.1.1-.1.1l.2.2q.1-.3.2-.5c-1.9.6-3.9.9-5.9.2-.7-.2-1.6-.6-1.9-1.4-.1-.4.2-.5.5-.7q.7-.4 1.5-.8c3.4-1.8 7.1-2.8 10.7-4.1 2.1-.8 4.1-1.7 5.9-2.8.4-.3.1-.9-.3-.7zm103.7-75.3c-5.9.8-11.7 2.4-17.3 4.5q-4.3 1.7-8.4 3.8c-2.6 1.4-5.2 3-7.7 4.7-4.4 3-8.5 6.4-12.3 10.2-3.7 3.5-7.2 7.4-10.5 11.3-3.5 4-7 8.2-10.6 12.2l-1.4 1.6c-.3.4.2.9.5.6 3.7-4.1 7.1-8.2 10.7-12.4 3.3-3.8 6.7-7.7 10.3-11.3 3.8-3.8 7.7-7.3 12-10.4 2.3-1.7 4.7-3.3 7.3-4.7q4-2.3 8.3-4.1c5.5-2.3 11.3-3.9 17.1-4.9l2.2-.4c.5 0 .3-.8-.2-.7z"/><path class="e" d="M166.7 20c8.5.1 17.1.4 25.6 1.1q6.1.5 12.1 1.2 3.4.4 6.7.9c2.2.3 4.3.5 6.4 1 7.3 1.7 13.4 6.3 18.4 11.6 2.7 2.7 5.1 5.5 7.4 8.5 1.1 1.4 2.3 2.8 3.2 4.3q1.5 2.4 2.6 4.9c2.8 7 3.7 14.8 3.4 22.3q0 1.4-.1 2.7c0 .5.7.5.8 0 .5-7.6-.1-15.4-2.5-22.7-1.2-3.5-2.8-6.8-5.1-9.7-2.3-3-4.6-6-7.2-8.8-4.9-5.4-10.7-10.5-17.8-13-1.8-.6-3.6-1-5.5-1.3q-3.4-.5-6.8-.9-6.4-.9-12.7-1.5c-8.5-.7-17-1.1-25.4-1.3h-3.5c-.5 0-.5.7 0 .7z"/><path class="e" d="M155.8 102.7c-4.7 2.5-9.3 5.2-14.1 7.5-1.6.8-3.3 1.4-4.8 2.3-1 .5-2.6 1.5-2.4 2.9.2 1.9 2.9.9 4 1.5q0-.3-.1-.5s-.2.3-.2.4q-.2.1.1.2.1.1.1 0s0-.1.1-.1h.2q-.1-.3-.3-.5c-.9 1.9-3.3 2.6-4.1 4.7-.4 1-.2 2.5.5 3.3.9 1.3 2.9.6 4 0 .4-.2.1-.9-.4-.7q-.3.2-.7.3.2.4.3.7.4-.1.7-.3l-.4-.6c-.6.8-1.9.9-2.6 1.7-.7.7-.7 1.7-.1 2.6.6.9 1.6 1.4 2.5 1.8 1 .4 0 2.3-.4 2.9-.1.1 0 .4.1.5 4.1 1.8 8.6 2.3 13 1.9 4.6-.5 8.9-1.9 13.3-3.5 4.3-1.6 8.8-3.1 13.2-4.5q3.4-1 6.8-1.8 1.7-.5 3.5-.9.8-.1 1.6-.3c.3-.1.6-.1.8-.2.3-.1.6-.3.8-.5 7.9-4.3 17-5.4 24.9-9.6 7.5-4 14.5-8.9 20.9-14.4q2.4-2.1 4.7-4.3c.4-.3.7-.6 1-1 .3-.3.4-.7.5-1.1.2-.4.5-.7.9-1.1q.7-.6 1.3-1.2c1.4-1.6 2.6-3.3 3.8-5q.9-1.4 1.8-2.7c.5-.8 1.2-1.6 1.5-2.5.3-1 .5-1.9 1-2.7.3-.4-.3-.8-.6-.4-.6.7-.8 1.6-1.1 2.5-.2 1-.9 1.8-1.4 2.6-1.2 1.8-2.3 3.6-3.6 5.3q-1 1.3-2.1 2.5l-1.1 1.1c-.4.3-.7.6-.9 1-.2.3-.3.7-.4 1.1-.3.4-.8.8-1.2 1.1q-1.1 1.1-2.3 2.2c-6.1 5.6-12.8 10.4-20 14.6-1.9 1.1-3.9 2.2-5.9 3.1-2 .9-4.1 1.6-6.2 2.3-4.1 1.4-8.3 2.5-12.3 4.2q-1.5.7-3 1.5c-.5.2-1 .6-1.5.8l-1.8.3q-3.4.8-6.8 1.7c-4.4 1.2-8.7 2.6-13.1 4.1-4.3 1.6-8.6 3.4-13.1 4.3-4.4.9-8.9 1.1-13.2 0q-1.7-.5-3.3-1.2l.2.6c.5-.9 1-2 .8-3-.2-1-1-1-1.8-1.5-.9-.5-2-1.6-1.2-2.7.4-.4.9-.5 1.3-.7.6-.3 1-.5 1.4-1 .2-.2 0-.7-.4-.6q-.4.2-.9.4c-.4.1-.1.8.3.7q.5-.2.9-.4-.2-.3-.4-.7c-.7.4-1.5.8-2.3.7-.7-.1-.9-.6-1.1-1.2-.3-1-.1-1.9.5-2.7 1-1.4 2.8-2.1 3.6-3.8.1-.2-.1-.5-.4-.5-.6-.1-1.2.4-1 1 .1.3.3.5.6.4.4-.1.6-.6.8-.9 0-.1 0-.4-.2-.5-.6-.3-1.3-.3-1.9-.3-.5 0-1.6.1-1.8-.5-.1-.6.5-1.1.8-1.4.6-.5 1.2-.8 1.8-1.2 1.5-.8 3.1-1.4 4.7-2.1 2.2-1.1 4.4-2.2 6.5-3.4 2.4-1.3 4.8-2.7 7.2-4 .4-.2 0-.9-.4-.6zm82.8-62.5c-2.3 2.1-5.1 3.4-7.6 5.4-1.3 1-2.4 2.2-3.6 3.4q-1.8 1.7-3.6 3.3-7 6.6-14.4 12.8-7.4 6.2-15.2 11.9c-5.4 4.1-11 7.9-16.7 11.5-5.6 3.6-11.3 7.2-16.9 10.9q-1.1.7-2.1 1.4c-.4.3 0 .9.4.7 5.5-3.8 11.2-7.4 16.9-11 3-1.8 5.9-3.7 8.8-5.7q4.1-2.8 8.1-5.8 7.9-5.7 15.3-11.8 7.5-6.1 14.6-12.7 3.6-3.3 7.2-6.8c.5-.5 1.1-1.1 1.8-1.6q1-.8 2-1.5c1.3-.8 2.6-1.6 3.9-2.5q.9-.7 1.7-1.4c.3-.3-.2-.8-.6-.5z"/><path class="e" d="M157.4 102.7c.4-.1.7-.3 1-.5q.3-.2.5-.3l.2-.2h.2q-.1 0 0 0h.1q-.2-.4-.4-.7-.3.2-.5.4c-.2.2-.1.4 0 .6.2.1.4.1.5 0q.3-.2.5-.4c.3-.3 0-.8-.3-.7-.4.2-.8.4-1.1.6q-.2.1-.5.3-.1 0-.2.1c-.1 0 .1 0 0 0h-.1q0 .1-.1.1c-.2 0-.4.2-.3.4.1.2.3.4.5.3zm30.3-84.4c.2-2.7-.1-5.8 1.1-8.3.6-1.4 1.6-2.4 3-3 1.4-.6 2.9-.7 4.4-.6q1.2 0 2.3.2c.7 0 1.4.1 2.1.3 1.2.4 2.3 1.1 3.1 2.1 1.6 1.9 2.1 4.4 2.3 6.7.3 2.1.3 5.3-2.2 5.9-.5.1-.3.9.2.7 2.5-.6 3-3.3 2.9-5.5-.1-1.1-.2-2.3-.5-3.5-.3-1.3-.7-2.7-1.4-3.9-.8-1.1-1.8-2.1-3-2.7-1.4-.7-2.9-.8-4.4-1-3.2-.3-6.7 0-8.8 2.7-1 1.4-1.4 3.1-1.6 4.7-.1 1.7-.1 3.5-.2 5.2-.1.5.7.5.7 0zM154.6 142c1.1.3 2.1-.5 3.1-.8.6-.2 1.3-.4 1.9-.6q1-.3 1.9-.7c1.4-.6 2.7-1.1 4.1-1.4q2.1-.5 4.2-.7c1.5-.1 3-.1 4.5-.2q2.3-.1 4.6-.1c3 0 6.1.3 9.2.4 1.4 0 2.8-.3 4.3-.4 1.5-.2 3-.1 4.5 0l9.4.4q4.7.2 9.5.4 2.3.1 4.7.1c1.5.1 3 .1 4.5.4 2.6.5 5.1 1.3 7.7 1.7 1.8.3 3.9.4 5.2 1.9.3.4.5.9.7 1.3.2.5.9.3.7-.2-.3-.9-.8-1.7-1.7-2.3-.7-.6-1.6-.9-2.5-1.1-1-.2-2-.3-3-.4-1.3-.3-2.5-.6-3.8-.9-1.4-.4-2.9-.7-4.3-.9-1.6-.2-3.1-.2-4.6-.2l-9.6-.4q-4.8-.2-9.5-.4l-4.8-.2c-1.5-.1-2.9 0-4.4.2-3.1.4-6.2.1-9.3-.1-3-.1-6.1 0-9.2.2-1.5 0-3 .1-4.4.2q-2.1.3-4.1.9c-1.4.4-2.7 1.1-4.1 1.6l-2 .6c-.6.2-1.1.4-1.6.6-.5.2-1.1.5-1.6.4-.5-.2-.7.6-.2.7zm-10.3 73.4c1.4 1.9 4.3 1.2 6.2.6 1-.2 1.9-.6 2.9-.7.8-.2 1.6.1 2.4 0 .8-.1 1.5-.5 2.2-.7.9-.1 1.9.3 2.8.2.9 0 1.8-.5 2.8-.6.4 0 .4-.8 0-.7-.8.1-1.5.3-2.3.5-.8.2-1.6 0-2.4-.1-.8-.1-1.4.1-2.2.4-.3.1-.6.3-1 .3s-.9 0-1.3-.1c-1.1-.1-2.1.2-3.1.5-1.1.4-2.2.7-3.3.8-1.1.1-2.3.1-3-.8-.3-.4-.9 0-.7.4zm124.3-20.8c.1-1.4.3-2.8.2-4.2-.1-1.2-.8-2.1-1.2-3.2-.5-1.2-1.1-2.5-1.7-3.7-.4-1.1-.7-2.2-1.1-3.3-.4-1-1.1-1.9-1.9-2.7-.3-.4-.8.2-.5.5.6.7 1.2 1.5 1.6 2.3.5 1 .7 2.1 1.1 3 .5 1.3 1.1 2.5 1.6 3.7q.3.8.7 1.6c.3.5.5.9.6 1.4.2.7.1 1.5 0 2.3 0 .7-.1 1.5-.1 2.3 0 .5.7.5.7 0zm-119.5-87.4c.1-3.9 1.4-7.6 1.5-11.5.1-3 .1-6.1-.2-9.2-.5-6.1-2-12.3-5.3-17.5-3-4.9-7.7-9.1-13.5-10.1-5.3-.9-10.7.7-14.8 4.1-2.1 1.8-4.1 4.1-5.2 6.7-1.2 3-1.4 6.4-1.4 9.6v2.4c0 .4.7.4.8 0 .1-1.5-1.3-2.4-2.1-3.4-1-1.5-2.1-2.8-3.4-4.1-2.5-2.4-5.1-4.6-8.1-6.4-3.2-1.9-6.7-3.4-10.2-4.5q-2.7-.8-5.5-1.3c-1.7-.4-3.5-.6-5.3-.5-3.3.1-6.4 1.4-9.1 3.2-2.6 1.8-4.9 4-6.5 6.7-.8 1.3-1.4 2.7-1.8 4.2-.5 1.6-.5 3.3-.6 4.9-.1 2 0 3.9.4 5.8s1 3.7 1.6 5.5c1.2 3.3 2.5 6.7 4.1 9.9q2.3 4.8 5.9 8.8c2.5 2.9 5.4 5.5 7.8 8.5 1.1 1.4 2.2 2.9 3.6 4.1 1.3 1.3 2.8 2.5 4.3 3.7 2.9 2.5 5.6 5.2 8.6 7.7 1.3 1.1 2.7 2.2 4.1 3.3.9.8 1.9 1.6 2.8 2.4 2.2 1.6 4.6 2.8 6.8 4.4 2.3 1.6 4.5 3.3 7 4.7.8.5 1.7.8 2.6 1.3 1 .6 1.9 1.3 2.9 1.9.8.5 1.8 1.2 2.7 1.1.5 0 .8-.2 1.1-.5q.9-.9 1.7-1.9c4.4-4.7 8.1-9.9 11.6-15.2l1.6-2.6c.3-.4-.4-.8-.6-.4-2.9 4.7-6.1 9.3-9.5 13.6q-1.6 1.9-3.3 3.8-.9.9-1.7 1.8c-.3.3-.6.7-1 .7-1-.1-1.9-.8-2.7-1.3-.9-.6-1.8-1.3-2.8-1.8-.3-.2-.7-.4-1.1-.5q-.8-.4-1.5-.9c-1.1-.6-2.3-1.4-3.4-2.2-2.1-1.4-4.1-3-6.3-4.3-1.2-.7-2.4-1.5-3.6-2.3-1-.7-1.9-1.5-2.8-2.3-1.3-1.1-2.6-2.1-3.9-3.2q-2.2-1.8-4.3-3.7c-1.3-1.3-2.6-2.5-4-3.7-1.4-1.2-2.9-2.4-4.3-3.6-1.3-1.2-2.4-2.5-3.5-3.9q-1.8-2.2-3.7-4.2c-2.5-2.7-5.2-5.3-7.3-8.4-2-2.8-3.5-5.8-4.8-9q-1-2.3-1.9-4.7c-.6-1.8-1.3-3.5-1.7-5.3-.5-1.9-.8-3.7-.8-5.7 0-.9.1-1.9.2-2.8q0-1.2.2-2.3c1.2-5.9 6.1-10.9 11.5-13.3 1.6-.7 3.3-1.1 5.1-1.3 1.7-.1 3.4.1 5.2.4 3.6.7 7.2 1.8 10.6 3.3 3.2 1.3 6.2 3.1 8.9 5.2s5.3 4.5 7.3 7.3c.4.5.8 1 1.3 1.5.4.5.9 1.1.8 1.8h.8c-.1-3.2-.1-6.5.6-9.6.7-2.8 2.3-5.3 4.4-7.3 3.6-3.7 8.7-5.8 14-5.4 5.7.5 10.5 4.1 13.7 8.7 3.4 5 5.1 10.9 5.8 16.9.4 2.9.5 5.9.4 8.9 0 1.7-.1 3.4-.3 5.1-.3 1.8-.7 3.6-1 5.5q-.2 1.3-.2 2.7c0 .5.7.5.7 0zM20.9 171.7c-2.8-2.8-5.3-6-7.5-9.3q-3.7-5.3-6.5-11.1c-1.8-3.7-3.3-7.6-4.4-11.7-.9-3.3-1.6-6.7-1.5-10.2.2-3 .8-6 1.9-8.8 1.1-2.6 2.7-5.2 4.9-7.1 2.2-1.8 4.9-2.9 7.7-3.1 2.9-.1 5.9.7 8.3 2.2 2.4 1.6 4.3 3.9 5.5 6.5 1.5 3.4 1.6 7.1.8 10.6q-.3 1.6-.9 3.1c-.2.4.5.7.7.3 2.8-5.8 7.3-11.2 13.9-12.7 5.4-1.1 11.4.6 15.5 4.3 1.5 1.3 2.7 2.9 3.4 4.8.7 1.9.9 3.9.7 5.9-.3 4.2-2.2 8-4.8 11.2-2.6 3.2-5.7 5.9-8.8 8.4-3.1 2.4-6.3 4.6-9.5 6.7-6.7 4.3-13.7 8.2-20.9 11.8q-1.1.6-2.2 1.1c-.5.2-.1.9.3.7q5.2-2.6 10.3-5.4 5.6-3 10.9-6.4c3.5-2.1 6.8-4.4 10.1-6.8 3.2-2.5 6.3-5.1 9-8.1 2.9-3.1 5.2-6.8 6.1-11 .8-4 .2-8.3-2.4-11.6-2.1-2.8-5.2-4.7-8.5-5.7-2.4-.8-5-1.2-7.6-.9-2.8.3-5.4 1.4-7.8 2.9-2.9 2-5.1 4.7-6.9 7.7q-.8 1.3-1.5 2.8.4.1.7.2c1.4-3.7 2-7.8 1-11.7-.8-3.1-2.5-5.8-4.9-7.9-2.2-1.9-4.8-3.1-7.7-3.5-3.1-.5-6.2 0-8.9 1.6-2.5 1.5-4.5 3.8-5.9 6.3-1.5 2.7-2.5 5.7-3 8.8-.4 3.3-.2 6.5.4 9.7.8 4.1 2.2 8.1 3.8 12 1.7 4.1 3.8 8 6.2 11.7 2.2 3.6 4.7 7 7.5 10.1q.9 1.1 1.9 2.1c.4.4.9-.1.6-.5z"/><path class="e" d="M187.9 18.8v1c0 .2.1.4.3.4.3 0 .4-.2.4-.4q0-.5.1-1c0-.2-.2-.4-.4-.4s-.4.2-.4.4zm8.7-9c0 1.3.1 2.5-.1 3.8-.2 1.1-.6 2.1-.7 3.2h.8v-.3c0-.5-.7-.5-.8 0v.3c0 .5.8.5.8 0 0-1.1.5-2.1.6-3.2.2-1.3.2-2.5.2-3.8 0-.5-.7-.5-.8 0zm-3 1.5c.5 0 .5-.7 0-.7s-.5.7 0 .7zm5.1 7.7c.9.1 1.8 0 2.6-.4.7-.4 1.1-1.1 1.4-1.8.2-.5.2-1.1.2-1.6s-.7-.5-.7 0c0 .8-.2 1.5-.6 2.1 0 .1 0 .1-.1.2q-.1 0-.2.1 0 .1-.1.1l-.2.2-.4.2q-.3 0-.5.1-.7.1-1.3.1c-.5 0-.5.7-.1.7zm-14.9 67.5v-.9c0-.5-.7-.5-.7 0-.1 2.5.7 4.9 1.4 7.3.4 1.2.8 2.4 1.2 3.7.3 1.2.6 2.5.8 3.7.5 2.7.8 5.5.8 8.2 0 1.4 0 2.7.1 4.1.1 1.3.2 2.6.2 3.9-.1 1.1 0 2.2 0 3.3 0 1.1 0 2.3-.4 3.4l.6-.2-.4-.4c-.3-.3-.9.2-.5.6q.2.1.4.3c.2.2.5.1.6-.1.4-1 .5-2 .5-2.9 0-1.1-.1-2.2-.1-3.2v-3.6c-.2-1.3-.3-2.6-.2-4 .1-2.7-.2-5.4-.6-8.1-.3-1.4-.5-2.7-.8-4-.3-1.2-.6-2.5-1-3.7-.9-2.7-1.9-5.4-1.9-8.3h-.7q0 .4-.1.9c0 .4.8.4.8 0zm-77-28.5c.1 1.1.5 2.1 1 3 .2.5.5 1 .7 1.6.2.6.3 1.1.5 1.7.3.8.9 1.5 1.5 2.1.5.6 1.1 1.3 1.1 2.2 0 .4.7.4.8 0 0-1.8-1.9-2.8-2.6-4.2-.2-.6-.3-1.1-.5-1.7q-.2-.8-.6-1.5c-.5-1-1.1-2.1-1.1-3.2-.1-.5-.8-.5-.8 0zm53.1 15.5c.5 0 .5-.8 0-.8s-.5.8 0 .8zm1.4.1c.1-1.2-.1-2.4-.3-3.7-.2-1.4-.1-2.8-.1-4.2 0-1.4-.3-2.7-.3-4.1 0-1.3.1-2.7.2-4.1.1-1.5.2-3.1.3-4.6 0-.5-.7-.5-.7 0-.2 2.7-.5 5.4-.5 8.2 0 1.3.2 2.7.2 4 .1 1.4-.1 2.8.1 4.2 0 .7.2 1.4.3 2.2q.1 1 .1 2.1c-.1.5.7.5.7 0zm39.1-61.8c.5.1.5-.7 0-.7s-.5.7 0 .7z"/><path class="e" d="M206.9 19.5c1.3-1.2 2.2-2.7 2.6-4.4.2-.8.3-1.7.3-2.6q.1-1.3-.1-2.6c-.1-.8-.4-1.6-.8-2.3-.3-.7-.7-1.4-1.1-2.1-.4-.8-.9-1.3-1.6-1.8q-.5-.4-1-.7c-.5-.3-.9-.7-1.3-1-1.4-1.2-3.1-1.3-4.8-1.3h-9.5c-.9 0-1.9 0-2.7.2-1.5.4-3.4 1.7-3.6 3.3-.1.8.3 1.7 1 2.2.6.6 1.4.6 2.1.9 1.6.6 1.6 2.3 1.6 3.7 0 .4.8.4.8 0-.1-1.2-.1-2.5-.8-3.5-.4-.5-1-.8-1.5-1-.7-.2-1.3-.3-1.8-.7-.6-.5-.8-1.3-.5-2 .4-.7 1.1-1.4 1.8-1.7 1.5-.9 3.5-.6 5.2-.6h6.1c1.6 0 3.4-.2 5 .4.8.3 1.4 1 2.2 1.5.6.5 1.4.9 2 1.4.5.6.8 1.3 1.2 2 .3.6.7 1.2.9 1.9.6 1.8.6 3.7.3 5.5-.2 1.8-1.2 3.5-2.5 4.8-.3.3.2.9.5.5z"/><path class="e" d="M184.3 2.8c-1.1-.3-1.6.7-1.6 1.6-.1 1 .2 2.1.7 2.9.7 1.1 2 2.4 3.4 2.5 1 .1 1.8-.7 2.2-1.6.4-1 .5-2.2.4-3.2-.2-1.3-1.1-2.3-2.1-2.8-.7-.4-1.4-.5-2-.2-.5.2-.7.7-.7 1.2 0 1 .7 2.1 1.4 2.8.6.5 1.8 1 2.6.6.5-.1.8-.6.7-1.1 0-.6-.4-1-.9-1.3-.5-.2-1.1-.3-1.6-.4-.5-.1-1-.3-1.5-.4-.5-.1-.9.2-1 .7-.1.7.2 1.3.6 1.8.9 1.1 2.4 1.8 3.7 1.5.8-.2 1.4-.7 1.3-1.5 0-.7-.3-1.4-.5-2.1-.1-.3-.2-.6-.1-.8 0-.3.1-.4.4-.5q.4-.1.7-.1c.3 0 .2 0 .4.1.4.1.7.3 1.1.5 1 .4 1.9.9 2.9 1.4.7.3 1.7.8 2.5.6.3-.1.6-.3.7-.7.1-.6-.6-1-1.1-1-.6-.1-1.2-.1-1.7.2-.2.1-.2.4 0 .6.5.4 1.2 1 1.9 1.1.8.1 1.6-.5 1.6-1.3.1-.7-.5-1.5-1.1-1.8-.6-.4-1.4-.4-2.1-.5-1.5-.2-3.1-.5-4.5-.1-.8.3-1.4.8-1.5 1.6-.1.8.4 1.6 1 2.1 1.9 1.8 4.5.9 6.6 0 .2-.1.3-.5.1-.6-.4-.4-1-.5-1.5-.6q-1.1-.2-2.3-.3-1.2-.1-2.3 0c-.6 0-1.2 0-1.7.3-.2.2-.2.6.1.7 1.1.4 2.2.1 3.3 0 1.2-.2 2.5-.1 3.8-.1q2 0 3.9.5c1.1.2 2.3.6 3.2 1.4q.6.4 1 1c.2.3.5.8.2 1.1h.5c-1-.6-1.5-1.7-2.1-2.5-.4-.3-.7-.7-1-1-.3-.4-.7-.8-.6-1.3q-.3.2-.5.4c2 .6 4.6 1.7 4.6 4.2l.2-.4c-.8.3-1.8-.1-2.4-.4-.8-.4-1.6-1-2.3-1.5-.9-.6-1.8-1.2-2.5-2q-.7-.6-1.1-1.4c-.2-.3-.6-.8-.5-1.2.2-.4.7-.4 1-.5.5 0 1.1.1 1.6.3 1.2.3 2.2.9 3.1 1.7.9.8 1.8 1.8 2.5 2.8q1.3 1.6 2.2 3.3c.6 1.4 1.5 3.9-.5 4.5q.1 0 .3.1c-.4-.3-.4-1.1-.5-1.6-.1-.7-.1-1.4-.2-2.1-.2-1.7-1.3-3.3-2.2-4.7-.2-.2-.5-.2-.7 0-.5.8.1 1.8.3 2.6.3 1.2.7 2.4 1 3.6.3 1 .4 2 .5 3 .1.9.3 1.9.8 2.7.2.3.7.2.7-.2v-.9c0-.4-.8-.4-.8 0v.9q.4-.1.7-.1c-.4-.8-.5-1.7-.6-2.6-.1-.9-.2-1.8-.5-2.7q-.4-1.7-.9-3.3c-.1-.5-.2-.9-.4-1.4-.1-.3-.3-.8-.1-1.2h-.7c.9 1.3 1.9 2.7 2.1 4.2.2 1.2.1 2.5.6 3.7 0 .2.2.4.3.6.3.2.6.1.9 0 .6-.3 1-.7 1.2-1.3.4-1.1.1-2.4-.3-3.4-.8-1.7-1.9-3.3-3.1-4.8-1.1-1.4-2.4-2.7-4.1-3.6-.7-.4-1.6-.7-2.4-.8-.7-.1-1.5 0-2 .4-1.4 1 .3 2.9 1 3.7 1.2 1.3 2.6 2.3 4.1 3.2 1.2.7 2.8 1.7 4.3 1.1.1-.1.2-.2.2-.3-.1-2.9-2.9-4.2-5.2-4.9-.3-.1-.5.1-.5.3-.1 1.1 1.1 2 1.7 2.7.8.9 1.3 2.1 2.4 2.7.1.1.3.1.5 0 .6-.8.1-1.8-.5-2.5-.7-.9-1.7-1.5-2.7-1.9-2.7-1-5.6-1-8.4-1-1.4.1-2.8.6-4.2.2q.1.3.1.7c.3-.2.9-.2 1.3-.3q1.1 0 2.2.1 1.1 0 2.2.2l.8.2c.1.1.3.2.4.2v-.6c-1.5.7-3.5 1.5-5.1.6-.8-.5-2.2-2.1-.7-2.8 1-.4 2.3-.2 3.4-.1q1 .1 1.9.2c.6.1 1 .3 1.4.7.4.4.6 1.2-.2 1.4-.6.1-1.3-.6-1.7-1q-.1.3-.1.6c.4-.2.9-.2 1.3-.1q.1.1.3.2l.1.1v-.2s-.1.1 0 .1h-.1c-.5.2-1.3-.2-1.8-.4-.8-.3-1.6-.7-2.4-1.1-.6-.4-1.3-.7-2-.9-.6-.2-1.4-.1-2 .2-.5.4-.5 1-.4 1.6.1.6.3 1.1.5 1.7.1.4.2.9-.1 1.2-.8.5-2.1.1-2.7-.4-.5-.3-1-.7-1.1-1.3q-.2-.3-.1-.7c0-.1 0 0-.1 0h.2c.4.1.8.3 1.2.4.5.1.9.2 1.4.3.4.1.8.3.8.8 0 .3-.2.4-.5.4-.8 0-1.5-.4-1.9-.9-.3-.4-.6-.8-.7-1.2-.1-.3-.3-.8-.1-1.1.3-.4.9-.2 1.3-.1.6.3 1.1.7 1.5 1.2.4.6.5 1.5.5 2.3-.1.8-.3 1.7-.8 2.4-.7.7-1.6.5-2.3 0-.9-.6-1.7-1.6-2-2.6-.2-.6-.4-1.6-.1-2.2.1-.3.3-.3.6-.3.5.2.7-.6.2-.7z"/><path class="e" d="M199.1 4q.4.4.9.6c.3.1.7.1 1 0 .2 0 .4-.3.3-.5-.1-.2-.3-.3-.5-.2 0 0-.1 0 0 0h-.5.1q-.1 0-.2-.1h-.1c-.1 0 0 0 0 0q-.1-.1-.2-.1c-.1-.1 0 0 0 0l-.1-.1-.2-.2c-.1-.1-.4-.1-.5 0-.2.2-.1.4 0 .6z"/><path class="e" d="M199.6 4c.8-.8 1.4-1.8 2.1-2.6.2-.2.2-.4 0-.5-.1-.2-.4-.2-.5 0-.8.8-1.3 1.8-2.1 2.5-.1.2-.1.4 0 .6.1.1.4.1.5 0zm-53.1 213.4h.2q-.1-.2-.1 0 .2-.1.4-.3c-.2 0-.2-.2-.2-.4-.1-.4-.4-.5-.7-.3-.3.3-.5.7-.6 1.1-.2.4-.3.8-.7 1l.6.4c-.1-.5.1-.8.2-1.2q.3-.5.1-1.1c0-.3-.4-.4-.6-.2-.9.9-1.5 2.2-2 3.3-.2.5-.4 1-.7 1.5-.4.5-.8 1.1-1 1.7-.2.4-.4 1.1.1 1.4.3.1.6.1 1 0 .8-.3 1.6-1 2.2-1.7.7-.6 1.4-1.3 1.9-2.1.2-.4-.2-.7-.5-.5-1 .4-1.9 1.1-2.4 2-.1.2 0 .6.3.6 1.9-.1 3.1-1.7 4.5-2.7 1.2-.8 2.9-1.3 3.4-2.8.1-.1 0-.3-.1-.4-1-1.1-3 .7-3.1 1.8 0 .2.2.3.3.4.7.3 1.5.2 2.1-.2.3-.2.6-.4.8-.7.2-.4.1-.7-.3-1-.5-.4-1.2-.3-1.9-.3-.5.1-1.3.2-1.6-.3l-.2.6c.9-.3 1.9-.2 2.9-.2l2.1-.3c1-.1 2.7-.1 3.2-1.2.1-.3 0-.5-.3-.6-1.4-.3-2.9-.1-4.4-.1q-1 0-2.1-.2c-.7-.1-1.3-.3-2-.3v.7c2.3.1 4.5 0 6.8 0 1.9 0 3.9-.4 5.7.1l-.2-.2c.1.2.2.3 0 .5-.1.2-.4.4-.6.5-.7.3-1.5.5-2.3.7-.5.1-1.1.2-1.5.4-.8.2-1.4.7-2.1 1q-1.1.7-2.2 1.3c-.5.3-1.1.5-1.6.8-.5.2-1 .6-1.1 1.1 0 .2.1.4.3.5.6.2 1.4 0 2.1-.1.6-.2 1.4-.4 1.9-.8.8-.5 1.4-1.3 2.1-1.9.6-.5 1.3-.9 1.8-1.5.2-.3.4-.7.2-1-.3-.3-.6-.6-1-.6-.8 0-1.6.6-2.2.9q-1.4.8-2.9 1.4c-.9.4-1.9.8-2.9 1.2-1.1.5-2.1 1.1-3.1 1.7q-.7.4-1.3.9c-.4.3-.9.6-1.4.7-.5 0-.5.7 0 .7.6 0 1.2-.3 1.7-.7q.8-.6 1.7-1.1c1.2-.8 2.4-1.4 3.7-1.9q2-.8 3.9-1.7l1.8-1c.4-.2 1-.6 1.4 0q0-.2-.1-.3c-.2.7-1 1.1-1.5 1.6-.7.5-1.2 1.1-1.9 1.7-.5.4-1.2.7-1.9.9-.6.1-1.3.4-1.9.1q.1.3.2.5c.1-.3.5-.5.8-.7.3-.2.7-.3 1.1-.5 1.1-.5 2.1-1.2 3.1-1.8l.8-.4q.2-.1.5-.2.1-.1.2-.1s.2-.1 0 0q.2-.1.4-.1l1.6-.4q1-.2 1.8-.6c.5-.2 1-.5 1.2-.9q.1-.4 0-.8c-.1-.4-.3-.5-.7-.6-1.1-.2-2.3-.2-3.5-.1-2.9.2-5.9.1-8.9.1-.5 0-.5.7 0 .7.6.1 1.3.2 2 .4q1 .2 2 .2c1.4-.1 2.9-.3 4.3 0q-.1-.3-.2-.5c-.2.4-.7.6-1.2.7-.5.1-1.1.2-1.7.2-.7.1-1.4.2-2.2.2-.9 0-1.8 0-2.6.3-.3 0-.4.3-.2.5.3.7 1.1.7 1.8.7.6 0 1.6-.2 2.1.3q-.1-.2-.1-.4c-.3.9-1.4 1.1-2.1.8q.1.2.3.3c0-.4.4-.8.7-1 .3-.2.8-.5 1.1-.3q-.1-.1-.1-.3c-.2.6-.8 1-1.4 1.4-.6.3-1.2.6-1.8 1-.6.5-1.2 1.1-1.8 1.5-.6.5-1.4 1-2.2 1q.2.3.3.6c.5-.8 1.3-1.4 2.1-1.8q-.2-.3-.5-.5c-.3.6-.8 1-1.2 1.5-.6.7-1.3 1.3-2 1.8-.2.1-.5.3-.8.2 0 0-.1 0 0 0s-.1.2 0 0c.1 0 .1-.2.1-.2q.1-.3.2-.5c.2-.5.6-.9.9-1.4.2-.4.4-.8.6-1.3q.4-.9.9-1.8c.3-.5.6-1 1-1.5q-.3 0-.6-.1c.1.3-.1.6-.2 1-.1.3-.2.7-.2 1.1 0 .3.3.4.6.3.4-.2.7-.6.9-1.1.1-.4.2-.8.5-1.2l-.6-.2c0 .5.3 1 .8 1.1.2.1.4 0 .5-.2.2-.6-.2-1-.8-.9-.5 0-.5.7 0 .7z"/><path class="e" d="M148.1 213c-.7 0-1.4 0-2.1.1-.2.1-.3.2-.3.4-.1.8-.7 1.6-.6 2.4q.4-.1.7-.3c-.4-.6-.8-1.6-.5-2.3.4-1.2 2.2.1 2.9.3.7.2 1.4.2 2.2.3.7.2 1.3.5 2 .7 1.4.3 2.9.4 4.3.4 1.7 0 3.3-.2 5-.2.4 0 .4-.7 0-.7-3.2 0-6.5.6-9.5-.4-.8-.3-1.5-.5-2.3-.6-.4 0-.8-.1-1.2-.2-.4 0-.8-.2-1.1-.4-.7-.3-1.3-.5-2-.4-.5.1-.8.4-1 .9-.4.9 0 2.2.5 3 .3.4.8.1.7-.3 0-.3.2-.7.3-1 .2-.4.3-.8.3-1.2l-.2.4c.6-.2 1.2-.1 1.9-.1.5 0 .5-.8 0-.8zm116.7-33.1c.1.5.3 1 .6 1.5q.4.7.7 1.5c.2 1.2.2 2.4.3 3.6.1 2.2.5 4.4 1.6 6.3.2.3.7.2.7-.2-.2-3 0-6 0-9h-.8c0 2 .6 3.9.5 5.8-.1 1.7-.3 3.6.7 5.1.1.1.3.2.4.2.8-.2 1.1-1 1.2-1.6.2-.9.2-1.9.2-2.9q-.1-1.3-.3-2.7c-.2-1.2-.6-2.3-.9-3.4-.3-.9-.6-1.7-.9-2.6-.2-.8-.4-1.6-.9-2.3-.1-.3-.4-.2-.6 0-.7 1-.3 2.1-.1 3.2q.5 1.9 1.2 3.6c.5 1.1 1 2.1 1.5 3.1.3 1 .7 1.9 1.2 2.9s1.2 1.9 2.1 2.5c.2.1.5 0 .6-.3.3-1.2.2-2.5-.8-3.4-.6-.6-1.8-1.4-2.7-.9-.8.5-.4 1.6-.1 2.3.3.8.8 1.8 1.6 2.3.5.3 1 .2 1.5-.1.3-.1.5-.2.8 0 .3.3.6.6.7 1q.4-.2.7-.4-.7-1.1-1.2-2.3c-.1-.3-.7-.1-.7.2-.1 1.5.7 2.9.6 4.4h.7c0-1.7.4-3.6-.3-5.2-.5-1.4-1.7-2.5-1.8-4 0-.5-.7-.5-.7 0 .1 1.5 1.1 2.6 1.7 4 .7 1.5.4 3.5.4 5.2 0 .4.7.4.7 0 .2-1.5-.6-2.9-.5-4.4q-.4.1-.7.2.5 1.2 1.1 2.3c.3.4.9 0 .7-.4-.4-.9-1.4-1.8-2.5-1.3-.3.2-.5.3-.9.1-.2-.2-.5-.5-.7-.8-.4-.6-.8-1.4-.8-2.1 0-.8 1.1-.1 1.5.1.4.3.7.6.9 1 .3.6.2 1.4.1 2q.2-.1.5-.2c-1.6-1-2.2-3-2.9-4.7-.4-.9-.8-1.7-1.2-2.6q-.8-1.6-1.3-3.3-.2-.9-.5-1.8c-.1-.7-.2-1.3.2-1.8h-.6c.4.5.6 1.2.7 1.8q.3 1.1.7 2.1c.4 1.3.8 2.5 1.1 3.8.3 1.6.5 3.3.3 4.9-.1.6-.2 1.6-.8 1.7q.3.1.5.2c-1-1.5-.7-3.3-.6-4.9 0-1.9-.5-3.7-.5-5.6 0-.5-.8-.5-.8 0 0 3-.2 6 0 9q.4-.1.7-.2c-1.1-1.9-1.4-4.1-1.5-6.3 0-1.1 0-2.3-.3-3.4q-.2-.8-.6-1.5c-.3-.5-.6-.9-.7-1.5-.1-.5-.8-.3-.7.2z"/><path class="e" d="M264.3 178.9q.1.3-.1.6.1-.1.2-.1-.4 0-.8.1c-.2.1-.3.2-.3.3-.3 1.4 0 2.8.3 4.1q.4 2.1 1 4.2c.3 1.3.6 2.6 1 3.8.2.6.4 1.1.8 1.5.3.5.8 1 1 1.5.2.5.9.3.7-.2-.2-.5-.5-.9-.9-1.4-.3-.4-.6-.9-.8-1.5-.4-1.2-.7-2.4-1-3.6q-.6-2-1-4c-.3-1.4-.7-2.9-.4-4.2l-.2.2c.4 0 .9 0 1.1-.4.2-.4.2-.8.1-1.1-.1-.5-.9-.3-.7.2z"/><path class="e" d="M266.1 185.7c-1.3.3-1.5 1.8-1.3 2.8 0 .5.7.4.7-.1 0-1 .2-2.1-.1-3.1-.3-.8-.9-1.5-.9-2.4 0-.5-.8-.5-.8 0 0 .9.5 1.6.9 2.5.4.9.2 2 .2 3q.3 0 .7-.1c-.1-.6 0-1.7.8-1.9.5-.1.3-.9-.2-.7zM9.3 118.1c-2.7 1.4-3.3 4.4-3.9 7.1-.3 1.8-.7 3.6-.4 5.4.1 1 .4 1.9.6 2.8.1.8 0 1.6.3 2.4.1.5.3.9.5 1.3s.3.8.5 1.2c.3.7.9 1.1 1.5 1.4.5.2 1.1.3 1.5-.1.2-.1.3-.4.3-.6q.2-.6.3-1.2c.3-1.9.4-3.8.8-5.6.2-.9.2-1.8.3-2.7.1-.9.3-1.8.3-2.8 0-1 .4-1.9.6-2.9.2-1 .2-2 .1-3.1 0-.8 0-1.7-.7-2.3-.5-.4-1.2-.8-1.9-.7-.4.1-.2.8.2.7.5 0 1.2.5 1.4.8.2.3.2.6.2.9q.1.6.1 1.2c0 .9 0 1.7-.1 2.5-.2.8-.5 1.5-.6 2.3-.1.4-.1.8-.1 1.1l-.2 1.4c-.1.8-.1 1.5-.1 2.4-.1.8-.4 1.6-.5 2.4q-.2 1.2-.3 2.5-.1 1.3-.4 2.5c-.1.2-.1.5-.2.6-.1.2-.1.1-.3.1-.7-.1-1.2-.5-1.5-1.1-.2-.3-.3-.7-.4-1q-.2-.6-.5-1.2c-.4-.7-.3-1.5-.4-2.3 0-.8-.3-1.6-.5-2.3-.3-1.7-.1-3.3.2-5 .5-2.6 1-6 3.6-7.5.5-.2.1-.8-.3-.6zM68.7 72c-1.5 2.8-2.6 5.9-2.9 9.1-.4 3-.1 6.1.7 9 .8 3.1 2.2 6.1 3.9 8.8.8 1.2 1.6 2.4 2.6 3.4.9.9 2.1 1.8 3.4 2.2 1.2.3 2.6.2 3.4-.8.5-.6.5-1.5.5-2.2-.2-2-1.1-3.9-1.9-5.7l-.9-2.1c-.6-1.4-1-2.9-1.3-4.4-.6-3.1-.6-6.2-.8-9.3-.2-2-.4-3.9-1.2-5.7-.7-1.5-2-3.1-3.9-2.9q-.8.1-1.5.5c-.4.2 0 .8.4.6 3.8-1.7 5.1 3.8 5.3 6.4.3 2.8.3 5.7.6 8.6.4 2.4 1 4.9 2 7.2.8 1.6 1.5 3.3 2 5 .3.8.5 1.7.4 2.5q-.1 1.3-1.4 1.6c-1.3.3-2.6-.4-3.6-1.2-1.1-.8-1.9-1.8-2.7-2.9-1.7-2.5-3.1-5.2-4-8-1-2.8-1.5-5.7-1.4-8.6.1-3 .7-5.9 1.9-8.6q.5-1.1 1.1-2.1c.2-.4-.5-.8-.7-.4z"/><path class="e" d="M32.1 128.1v-2.9c0-.9 0-1.7-.1-2.6-.3-1.6-.8-3.1-1.7-4.4-.9-1.5-1.9-3-3-4.4-.9-1.2-2.2-2.2-3.6-2.9q-1-.6-2.1-1c-.8-.3-1.6-.4-2.4-.7-.3-.2-.7-.3-1.1-.4q-.6-.1-1.2-.1h-2.7c-.9 0-1.6.2-2.4.5q-1.2.5-2.4.9c-1.4.6-3 1.3-4 2.5-.6.6-.8 1.4-1.3 2-.3.3-.5.5-.7.8-.3.3-.4.7-.5 1.1-.1.8-.5 1.5-.8 2.3-.4.8-.5 1.7-.7 2.7-.1.8-.3 1.7-.4 2.6v2.7c.1 1.9 0 3.8 0 5.7.1 1.8.3 3.7.7 5.5.2.9.2 1.8.5 2.6.2.9.6 1.8.9 2.6 1.2 3.4 2.4 6.9 4.3 10q.7 1.1 1.4 2.1c.3.4.5.8.8 1.2q.2.5.4 1.1c.3.7.7 1.4 1.2 2.1l1.5 2.1c.8 1.5 1.4 3.2 2.3 4.6 1 1.7 2.1 3.2 3.2 4.7q.9 1.1 1.6 2.2c.2.2.5.3.6.1.3-.3.3-.6.1-1-.1-.4-.8 0-.6.4v.1h.6c-2-2.9-4.4-5.6-5.9-8.8-.7-1.6-1.4-3-2.4-4.4-.6-.7-1-1.3-1.4-2.1-.2-.7-.5-1.4-1-2.1-.9-1.4-1.9-2.8-2.6-4.3-.9-1.5-1.6-3.2-2.2-4.8-.6-1.7-1.2-3.4-1.8-5-.3-.9-.5-1.7-.6-2.5-.1-.9-.3-1.8-.5-2.7-.3-1.8-.3-3.6-.3-5.5v-5.3c-.1-1.8.2-3.6.6-5.3.2-.8.6-1.6.9-2.3.3-.7.3-1.6.8-2.2.2-.3.5-.5.7-.7.2-.4.4-.7.6-1.1.5-.7 1-1.2 1.7-1.7 1.3-.8 2.8-1.3 4.2-1.9.9-.3 1.6-.7 2.5-.8.8 0 1.7.1 2.5.1q.6-.1 1.2 0c.5 0 .9.1 1.3.3.7.3 1.5.5 2.2.7 1.5.5 2.9 1.2 4.1 2.1 1.3 1.1 2.2 2.4 3.1 3.8.9 1.3 2 2.6 2.5 4.2.6 1.5.7 3.1.7 4.7v2.8c0 .5.7.5.7 0z"/><path class="e" d="M30.6 131.8c1.1-1.1 1.4-2.7 2.5-3.8.6-.7 1.3-1.3 2-1.9.6-.5 1.2-1.2 1.9-1.7 1.4-.9 2.6-2.2 4.1-2.8.4-.2.9-.3 1.3-.4q.7-.1 1.3-.4c.3-.1.6-.2.9-.2.4-.1.8-.1 1.2-.1.8 0 1.6-.2 2.4 0 .4 0 .7.2 1.1.3.4.2.8.3 1.2.5.8.3 1.5.6 2.3.8q1.2.3 2.2 1 1.2.7 2.3 1.5c.7.5 1.4 1 2 1.7.5.6.9 1.3 1.4 1.9.6.7 1.1 1.3 1.5 2.1.4.8.9 1.6 1.1 2.5.2.9.1 1.8.1 2.6-.1 1.8-.6 3.4-1.6 4.9-.9 1.3-2.2 2.5-3.2 3.8q-.8 1.1-1.3 2.3c-.3.8-.5 1.6-1 2.3-1 1.4-2.3 2.5-3.5 3.6-.6.6-1.2 1.2-1.8 1.6-.7.5-1.5.9-2.1 1.4-1.4 1-2.7 2.3-3.9 3.5-1.2 1.3-2.4 2.7-3.9 3.7-1.4.9-3 1.5-4.4 2.5-.6.5-1.2 1-1.9 1.4l-2.4 1.2c-1.5.9-3.2 1.3-4.9 1.9-1.6.7-3.1 1.8-4.8 2.5-.7.3-1.4.6-2.2.8q.3.2.5.3 0-.1-.1-.2c-.1-.5-.8-.3-.7.2q0 .1.1.2c0 .2.2.3.4.2.9-.2 1.6-.6 2.4-.9.9-.3 1.7-.8 2.4-1.2 1.6-1 3.4-1.6 5.2-2.2q1.2-.4 2.4-1c.7-.5 1.5-.9 2.3-1.3.8-.4 1.4-1 2.1-1.5.7-.5 1.5-.9 2.3-1.3.7-.4 1.4-.8 2.1-1.3.8-.5 1.5-1.2 2.1-1.8 1.3-1.4 2.6-2.7 4-4 .7-.6 1.3-1.2 2.1-1.6.7-.5 1.4-.9 2-1.4.6-.5 1.2-1.2 1.8-1.7.7-.6 1.3-1.2 1.9-1.9.6-.6 1.2-1.2 1.5-2 .4-.8.7-1.7 1-2.5.8-1.6 2.2-2.8 3.3-4.1 1.1-1.4 2-2.9 2.4-4.6.1-.9.2-1.7.2-2.6 0-.9 0-1.8-.4-2.6-.3-.9-.7-1.8-1.2-2.6-.4-.7-1-1.3-1.5-1.9-.5-.7-.9-1.5-1.5-2-.7-.7-1.4-1.2-2.2-1.7-1.4-1-2.8-1.9-4.5-2.5-.4-.1-.8-.2-1.1-.3-.5-.2-.9-.4-1.3-.6-.4-.1-.8-.2-1.2-.4-.4-.1-.7-.2-1.1-.3-.9-.1-1.7 0-2.5.1-.8 0-1.5 0-2.2.3q-.6.3-1.3.4c-.4.1-.9.2-1.3.4-.8.3-1.5.8-2.2 1.3-.7.5-1.4 1.1-2.1 1.6-.7.5-1.2 1-1.9 1.6-.7.7-1.4 1.3-2.1 2-.5.6-.9 1.2-1.3 1.9-.3.7-.7 1.4-1.2 2-.4.3.2.9.5.5z"/><path class="e" d="M51.3 115.8c-.3.4-.5.8-.9 1.3-.2.3-.6.6-.8 1-.2.3-.2.8-.2 1.2 0 .3 0 .8.1 1.1.4.9 1.1.8 1.9.9 1.1.1 2.2.3 3.4.4 2.4 0 4.8-.1 7.2-.1 1.2 0 2.4.1 3.6-.1 1.1-.2 2.1-.6 3.2-.7.7-.1 1.3-.2 2-.4l.8-.2h1.1c1.2-.2 2.4-.7 3.6-.7.5 0 .5-.7 0-.7-1 0-2 .3-3 .5-.5.1-1 .1-1.6.2-.5 0-1 .2-1.5.3-1 .3-2.1.3-3.2.6q-.7.2-1.3.3c-.6.1-1.2.1-1.8.1q-3.3 0-6.7.1-1.6.1-3.3 0c-1-.1-2-.4-3-.4-.3 0-.6-.1-.7-.5-.1-.4-.1-.9 0-1.3 0-.4.4-.7.7-1 .4-.4.6-1 1-1.4.3-.4-.3-.9-.6-.5z"/><path class="e" d="M76.3 117.7c-.1.6.1 1.2.8 1.4.3.1.5.1.8.1.4.1.7.4 1 .7.3.4.6.8.9 1.1l1.2 1c.9.7 1.9 1.2 2.8 2 .9.6 1.6 1.5 2.3 2.3.4.3.7.6 1.1 1l1.2 1.2c.4.3.9.6 1.3.9.4.4.8.9 1.1 1.3.7.8 1.4 1.6 2.3 2.3.4.4.8.7 1.2 1.1.4.3.7.8 1 1.2.7.8 1.7 1 2.6 1.6.8.6 1.4 1.5 2.2 2.2.8.7 1.7 1.1 2.6 1.5.9.5 1.6 1.2 2.4 1.8.9.6 1.8 1.1 2.7 1.8q1.4 1.2 2.9 2.3.5.5 1.1.9.3.3.7.5c.3.1.6.2.8.4.3.2.4.4.6.7.2.2.3.3.6.4.5.2 1 .4 1.4.8.4.4.7.8 1.1 1.1.4.3 1 .4 1.4.7.4.4.7.8 1.2 1.1.4.2.9.3 1.4.6.7.4 1.1 1.5 2 1.4q.2 0 .3-.3c.2-.6.1-1.3-.4-1.7-.3-.4-.9.2-.5.5.3.3.3.6.2 1q.2-.1.4-.3c-.4.1-.6-.3-.8-.5q-.3-.5-.8-.8c-.4-.2-.8-.3-1.2-.5-.4-.2-.8-.5-1.1-.8-.4-.4-.7-.6-1.2-.8-.4-.2-.8-.4-1.1-.8-.3-.3-.5-.7-.9-.9q-.3-.2-.6-.3c-.2-.1-.6-.1-.7-.3-.3-.3-.5-.7-.9-1-.2-.1-.5-.2-.7-.3q-.4-.2-.7-.4c-.9-.7-1.8-1.5-2.7-2.2-.9-.7-1.7-1.4-2.6-2-.9-.6-1.8-1-2.5-1.7-.8-.7-1.6-1.1-2.5-1.5-.4-.3-.8-.5-1.2-.8-.4-.3-.8-.7-1.2-1.1-.3-.4-.7-.8-1.1-1.1-.4-.4-.8-.6-1.2-.8-.5-.2-.9-.4-1.3-.8-.3-.3-.6-.7-.9-1.1-.7-.8-1.7-1.4-2.4-2.1-.8-.8-1.4-1.7-2.1-2.5l-1.2-.9q-.7-.5-1.2-1.1c-.8-.8-1.5-1.5-2.3-2.2-.8-.9-1.6-1.7-2.6-2.4s-2.1-1.3-2.9-2.1c-.7-.7-1.2-1.7-2.2-2-.2 0-.5-.1-.8-.1-.4-.1-.4-.2-.4-.5.1-.5-.6-.7-.7-.2zm2.5.1c0-.7-.7-1.1-1.2-1.5-.7-.5-1.2-1.3-1.7-1.9-.6-.8-1.3-1.6-2-2.3-.7-.7-1.2-1.5-1.7-2.4-1.1-1.6-2.5-3-3.9-4.3-.7-.6-1.4-1.3-2-2.1-.6-.8-1.1-1.6-1.7-2.4-.7-.8-1.3-1.6-1.8-2.5q-.3-.6-.5-1.2c-.2-.4-.2-.9-.5-1.2l-.3-.6c-.1-.2-.1-.5-.1-.7-.1-.6-.1-1.1-.2-1.7q-.1-.7-.1-1.4l-.3-1.5c-.2-1-.1-2.1-.1-3.1 0-1.1 0-2.1-.1-3.2 0-1.1-.2-2.1-.4-3.2q-.1-1.5-.2-3.1c0-1-.3-1.9-.4-3 0-.9.3-1.8.6-2.7.6-1.6 1.5-3.1 2.8-4.2.7-.6 1.6-1 2.5-1.3.9-.4 1.7-1 2.7-1.3l1.2-.4c.5-.2.9-.4 1.4-.6.9-.4 1.8-.5 2.7-.6l1.4-.2c.5 0 1-.2 1.5-.3 1-.2 1.9.4 2.9.4.5 0 .9 0 1.4.2l1.4.4c1 .3 2.1.4 3.1.6 1.1.2 2.1.6 3.1.8q.7.2 1.5.3c.5.1 1 .1 1.4.2.4.2.7.4 1.1.5q.7.4 1.3.6.7.2 1.4.5c.5.2 1 .5 1.5.8 1.8 1.1 3.7 2.1 5.5 3.1.4.2.9.4 1.3.7l1 1c.5.7 1.1 1.4 1.7 2.1.8.8 1.4 1.7 1.9 2.6.6.8 1.1 1.7 1.4 2.7.1.2.1.3.1.4 0 0-.1.1 0 .1 0-.1.1-.1-.1-.1-.4.1-.2.8.2.7 1.8-.2-.9-4.2-1.3-4.8q-.3-.6-.7-1.1c-.6-.8-1.3-1.4-2-2.2-.5-.7-1.1-1.4-1.8-2-.8-.6-1.8-1-2.7-1.5l-3-1.6c-.9-.6-1.8-1.2-2.8-1.6-1-.4-1.9-.7-2.8-1.2q-.5-.2-1.1-.4c-.5-.2-1-.2-1.6-.3-1-.1-2.1-.5-3.2-.7q-1.5-.5-3.1-.7c-1-.1-2-.5-3-.8-.4-.1-.9-.1-1.4-.1-.5 0-1-.2-1.5-.3-1-.2-2 .2-3 .3-1 .2-2 .2-2.9.4-1 .3-1.8.8-2.8 1.1q-.7.2-1.3.5c-.5.2-.9.4-1.4.7-.9.4-1.9.7-2.7 1.2-.8.5-1.4 1.1-2 1.8-1.1 1.3-1.8 3-2.3 4.7-.2 1-.2 1.9-.1 2.9.1.5.2 1.1.3 1.6v1.7c.1 1.1.3 2.1.4 3.2.2 1.1.2 2.2.2 3.3.1 1.1 0 2.2 0 3.3 0 1 .3 2 .4 3q.1.8.2 1.5c.1.6.1 1.1.1 1.7.1.5.3.8.5 1.2.3.3.4.8.5 1.3.8 1.9 2.2 3.5 3.4 5.2.5.7 1.1 1.5 1.8 2.2.7.8 1.5 1.4 2.2 2.1.8.8 1.5 1.5 2.1 2.4.5.7 1 1.6 1.6 2.4.6.8 1.4 1.5 2.1 2.3.6.7 1.1 1.6 1.9 2.4.2.2.5.4.7.5.2.2.7.4.6.7 0 .4.8.4.8 0z"/><path class="e" d="M110.5 81.2c0-1.7.4-3.3.8-4.9.5-1.5 1.1-3.1 1.8-4.5s1.5-2.8 2.4-4.1c.4-.7.8-1.3 1.1-2 .2-.6.4-1.1.8-1.6.4-.4.6-1.1 1.1-1.4.3-.2.6-.3 1-.4.4-.1.7-.2 1.1-.3.7-.3 1.3-.7 2.1-.9q1-.4 2.2-.6c1.5-.2 3-.3 4.5-.3 1.7-.1 3.4-.3 5 .2.7.2 1.4.3 2.1.6.5.3.9.8 1.4 1.2.4.4.9.7 1.2 1.1l.6.9.6.8c.5.5 1 1.1 1.5 1.7.4.5.8 1.1 1.3 1.7.5.5 1 1 1.5 1.6.4.6.7 1.2 1 1.9.7 1.5 1.3 3.1 1.9 4.6.6 1.6 1.1 3 1.3 4.6.1 1.6.1 3.1 0 4.7 0 1.6-.1 3.3 0 4.9 0 1.7.4 3.3.6 4.9.1 1.7.1 3.4.1 5.1v2.9c.1.7.1 1.6-.2 2.3-.1.2-.2.2-.4.1-.5-.1-.7.6-.2.8 1.8.6 1.6-2.7 1.6-3.7-.1-1.2-.1-2.5-.1-3.8 0-1.8 0-3.5-.2-5.2-.2-.9-.4-1.8-.4-2.7-.1-.8-.1-1.7-.1-2.6q.1-2.5.1-5c0-1.6 0-3.2-.4-4.8-.3-.8-.6-1.6-.9-2.5q-.5-1.2-1-2.5c-.6-1.4-1.1-3-2-4.3-.4-.6-1-1.1-1.5-1.7-.5-.6-1-1.2-1.4-1.8l-1.5-1.8c-.5-.5-.8-1.2-1.3-1.7-.4-.5-.9-.8-1.4-1.2-.5-.4-.9-.8-1.4-1.1-.7-.4-1.4-.5-2.1-.7-.9-.3-1.7-.3-2.6-.3-1.6 0-3.3 0-5 .1-1.6.1-3.1.4-4.6.9-.8.2-1.5.6-2.2.9-.7.3-1.6.3-2.2.8-.5.3-.7.9-1.1 1.4-.4.5-.7.9-1 1.5-.6 1.6-1.6 2.9-2.4 4.3-1.7 2.9-3 6.1-3.6 9.4q-.2 1.2-.2 2.5c0 .5.7.5.7 0zm13.6 72.9c.4 0 .4-.8 0-.8-.5 0-.5.8 0 .8z"/><path class="e" d="M124.4 153.9c1.1-1.5 2.2-2.9 3.4-4.3 1.2-1.3 2.5-2.5 3.8-3.7.7-.7 1.4-1.2 2.1-1.9.6-.6 1-1.3 1.7-1.9.2-.2.5-.5.8-.7.2-.4.4-.7.7-1.1q.3-.5.6-.9c.3-.3.4-.6.6-.9.3-.8.8-1.4 1.3-2.1.4-.6.8-1.4.7-2.1-.1-.5-.8-.3-.7.2.1.6-.5 1.3-.9 1.7-.4.6-.8 1.2-1.1 1.8-.1.4-.2.7-.5.9q-.3.5-.6.9c-.2.4-.4.7-.7 1-.2.4-.6.6-.9.9-.6.5-1 1.2-1.6 1.8-.6.6-1.3 1.2-1.9 1.7-1.3 1.2-2.6 2.5-3.8 3.8-1.3 1.4-2.5 2.9-3.7 4.5-.3.4.4.8.7.4zm-11.8-83.2v-.1s0-.1.1-.1q.1-.3.3-.5c.2-.3.5-.5.8-.8.6-.8 1.1-1.8 1.2-2.8.1-.2 0-.4-.2-.4-.2-.1-.5 0-.5.2q-.1.9-.5 1.6-.2.4-.4.7l-.2.2-.2.2c-.5.5-1.3 1.2-1.1 2 .1.5.8.3.7-.2z"/><path class="e" d="M114 69.4c.1-.4 0-.9-.3-1.2-.2-.3-.5-.5-.7-.8-.4-.3-.7-.8-.9-1.2q-.5-.8-1.1-1.5c-.3-.5-.8-.9-1.2-1.4q-.6-.7-1-1.5c-.3-.5-.5-1-.8-1.5-.3-.4-.7-.9-.6-1.5.1-.4-.7-.6-.7-.2-.2 1.2.7 2 1.1 3 .6 1 1.2 2.1 2.1 2.9q.7.7 1.2 1.5c.3.5.6 1.1.9 1.5.3.3.6.6.9.8.3.4.4.7.4 1.1-.1.5.7.5.7 0zm73.9-48.9v-.2l-.2.2c.7-.2 1.6-.1 2.3.1.4.1.7.2 1.1.2.4.1.8.1 1.3.1.4 0 .8.1 1.2.2q.6.3 1.2.4.6.1 1.2.1c.5.1.9.2 1.4.3 1.8.4 3.7.3 5.5.3q2.8.1 5.6.7c1.7.4 3.5.8 5.3 1.2 1.7.4 3.4.8 5 1.4.9.3 1.6.6 2.4 1 .8.3 1.6.6 2.4.8.9.3 1.7.5 2.5 1 .6.4 1.1 1 1.7 1.3.7.5 1.4.8 2 1.3.7.5 1.3 1.2 1.9 1.7 1.2 1.2 2.5 2.4 3.6 3.8 1.1 1.3 2.2 2.7 3.5 4 .6.6 1.1 1.2 1.5 1.9.4.6.8 1.3 1.2 1.9.9 1.4 2.3 2.3 3.1 3.6.5.7.7 1.5 1.1 2.2.4.8 1 1.5 1.4 2.3q.6 1.2 1.3 2.4l1.2 2.4c.3.8.5 1.7.7 2.6.1.9.4 1.7.6 2.5.5 1.8.9 3.5 1 5.3.2 1.8.1 3.7.1 5.5-.1 1.8 0 3.6-.2 5.4-.2.9-.4 1.8-.7 2.6-.3.8-.7 1.5-.9 2.4-.2.8-.3 1.7-.4 2.5q.1-.1.2-.3-.1.1-.2.1c-.5.1-.3.8.2.7h.2c.2-.1.3-.2.3-.3.1-.9.3-1.8.5-2.7.2-.8.6-1.6.9-2.4.7-1.7.8-3.6.8-5.4 0-1.9.1-3.8.1-5.7q0-2.7-.6-5.4-.2-1.3-.6-2.7c-.2-.8-.5-1.7-.7-2.6-.1-.9-.3-1.7-.7-2.5-.4-.9-.8-1.7-1.2-2.5l-1.4-2.4c-.4-.8-1-1.6-1.4-2.4-.3-.8-.6-1.6-1.1-2.3-.5-.6-1.1-1.2-1.7-1.8-.6-.6-1.1-1.2-1.5-1.8-.4-.7-.8-1.4-1.2-2-.5-.7-1.1-1.3-1.7-1.9q-.9-1-1.7-2c-1.2-1.4-2.3-2.8-3.6-4.1q-1-.9-2-1.9c-.6-.5-1.1-1.1-1.8-1.6s-1.4-.8-2.1-1.3c-.6-.5-1.2-1-1.9-1.4-.8-.3-1.7-.6-2.5-.8q-1.3-.4-2.5-1c-3.2-1.5-6.8-2.1-10.2-2.9-1.9-.4-3.8-.8-5.7-1-1.9-.2-3.9-.1-5.8-.2-1-.1-1.9-.3-2.8-.5-.9-.1-1.7-.1-2.5-.5-.8-.3-1.7-.2-2.5-.3-.8 0-1.5-.3-2.3-.4q-.6-.1-1.2 0c-.2 0-.4 0-.5.1-.2.2-.2.4-.3.5 0 .5.7.7.8.2z"/><path class="e" d="M148.7 106.8c1.3.1 2.5-.8 3.6-1.3.9-.4 1.7-.9 2.5-1.3.9-.3 1.7-.5 2.4-1.1.4-.3.7-.5 1.1-.7.5-.2.9-.3 1.3-.6.8-.5 1.5-1.1 2.4-1.6.8-.5 1.7-.9 2.5-1.3.8-.5 1.5-1.1 2.3-1.5 1.8-.7 3.3-1.6 4.9-2.7 1.6-1.1 3.3-2.1 4.9-3.2 1.7-1.1 3.1-2.6 4.5-3.9.7-.7 1.5-1.3 2.2-2 .7-.6 1.3-1.3 2.1-1.9.7-.5 1.5-1.1 2.1-1.8.7-.7 1.1-1.5 2-2 .3-.2.7-.3 1-.6.3-.4.6-.7 1-1 .4-.2.8-.5 1.1-.7.4-.3.7-.6 1.1-.9.6-.7 1.4-1 2.2-1.5.7-.5 1.5-1 2.2-1.6 1.4-1.2 2.9-2.3 4.3-3.4 1.5-1.2 2.9-2.4 4.4-3.5 1.5-1.1 3.2-2 4.9-2.9 1.8-1 3.5-2 5.2-3.1.9-.5 1.7-1 2.3-1.8.6-.6 1.1-1.4 1.8-2 .7-.6 1.6-.8 2.3-1.3.7-.5 1.4-1.1 2-1.7.7-.6 1.5-1.1 2.2-1.7q1-.8 1.9-1.7c1.3-1.4 2.3-2.9 3.7-4.2 1.4-1.4 3.1-2.4 4.8-3.4.8-.4 1.6-.9 2.4-1.5.2-.2.3-.4.1-.6-.4-.4-.9-.2-1.2.1-.4.3.1.9.5.5q.1-.2.1-.1.1-.3.1-.6c-1.5 1.2-3.3 2-4.9 3.1-1.5 1-2.9 2.3-4.1 3.7-1.2 1.4-2.3 2.8-3.7 3.9-.7.6-1.4 1.1-2.1 1.7-.7.6-1.4 1.3-2.1 1.8-.7.5-1.6.7-2.3 1.3-.7.5-1.2 1.2-1.7 1.9-.6.7-1.4 1.3-2.2 1.8-.9.5-1.7 1.1-2.6 1.6-1.7 1.1-3.6 1.9-5.3 2.9-1.6.9-3 2-4.4 3.1-1.4 1.2-2.9 2.4-4.4 3.5-1.4 1.1-2.8 2.4-4.3 3.4-.8.4-1.5.8-2.2 1.3l-.9.9c-.4.3-.8.6-1.2.8q-.6.4-1 .8c-.4.3-.6.7-1 .9-.4.2-.7.4-1.1.6-.3.3-.6.7-.9 1q-.9 1.2-2 2c-.8.6-1.5 1.2-2.2 1.9-.6.6-1.3 1.2-2 1.9q-1.2 1-2.3 2c-.7.7-1.4 1.4-2.2 2-.8.6-1.6 1.1-2.5 1.6-1.6 1-3.2 2.1-4.8 3.1q-1.2.8-2.4 1.3l-1.2.6c-.4.2-.8.5-1.2.8-.7.5-1.6.8-2.4 1.2-.9.5-1.6 1.1-2.4 1.6-.4.3-.8.5-1.2.7-.4.3-.9.4-1.3.6-.3.2-.6.5-.9.8-.4.3-.9.4-1.4.6-.9.3-1.7.7-2.5 1.1q-.9.5-1.9 1c-.5.2-1.2.6-1.8.5-.5 0-.7.7-.2.8z"/><path class="e" d="M227.9 51.2q0-.2.1-.3v-.3q.1-.2.1-.4l.1-.1c-.1 0 0 0 0-.1q.1-.2.2-.3 0-.1.1-.1c0-.1-.1 0 0 0q0-.1.1-.2.1 0 .1-.1.1 0 0 0h.1q.1-.1.2-.1c0-.1-.1 0 0 0q0-.1.1-.1c.2 0 .3-.2.2-.4 0-.2-.2-.4-.4-.3-1.2.4-1.7 1.7-1.7 2.8 0 .2.2.4.4.4s.3-.2.3-.4zm-68 1.7c0 1.6.1 3.3 0 4.9-.1.8-.3 1.6-.3 2.4-.1.8 0 1.6 0 2.4-.1 1.5-.5 3-.4 4.5.1 1.6.4 3.1 1 4.6.2.6.4 1.1.4 1.7v2.5c0 .8.1 1.6.1 2.4l-.3 2.4c0 .8 0 1.6-.1 2.5l-.3 2.4V88c-.1.9-.2 1.7-.3 2.5-.1.9-.1 1.8-.1 2.7-.1.9-.3 1.7-.6 2.6-.2.8-.3 1.6-.4 2.5-.1.8-.6 1.6-.7 2.5-.1.4.6.6.7.2.1-.8.5-1.4.6-2.2.2-.8.2-1.5.4-2.3.2-.8.5-1.5.6-2.2.2-.8.1-1.6.2-2.4 0-.8.1-1.6.2-2.4.1-.9.1-1.7.1-2.5.1-.8.1-1.6.2-2.4.1-.8.2-1.6.2-2.4.1-.9.1-1.7.2-2.6.1-.7.1-1.5.1-2.2v-2.6c0-.7.1-1.5-.1-2.2-.1-.6-.4-1.2-.6-1.8q-.4-1.2-.6-2.4-.2-1.2-.2-2.4c.1-.7.2-1.5.3-2.3.1-.8.2-1.7.1-2.5v-1.3c.1-.5.2-.9.2-1.4.3-1.9.2-3.7.2-5.6 0-.5-.8-.5-.8 0zm-4.9 81.5c0 2.7.1 5.4-.2 8.2-.1 1.4-.1 2.7-.1 4.1v1c0 .3-.1.6-.2.9-.2.5-.2 1.1-.2 1.7v3.9c0 1.3 0 2.7-.2 4-.2 1.4-.7 2.6-.9 3.9-.3 1.3-.4 2.6-.6 3.9-.3 1.3-.6 2.5-1.1 3.8-.4 1.2-.7 2.5-1.1 3.7-.2.6-.4 1.2-.6 1.9-.1.6-.1 1.2 0 1.9 0 .6.1 1.2 0 1.9-.1.5-.3 1-.4 1.6v1.8q.1 1.1 0 2.1v4.2c0 2.7.2 5.5-.2 8.2-.2 1.3-.6 2.6-1 3.8-.4 1.3-.9 2.5-1.3 3.7-.5 1.3-.8 2.6-1 3.8-.3 1.3-.3 2.6-.3 4v2h.8V212c0-.4-.8-.4-.8 0v2.4c0 .5.8.5.8 0 0-1.4-.1-2.8 0-4.1 0-1.3.4-2.7.7-3.9.3-1.3.8-2.5 1.3-3.7.5-1.2.8-2.5 1.2-3.8.6-2.6.6-5.3.6-8s.1-5.5 0-8.3c0-.6-.1-1.2 0-1.8 0-.6.3-1.1.4-1.7.1-1.2-.2-2.5 0-3.8.3-1.3.8-2.5 1.2-3.8.3-1.3.9-2.5 1.2-3.7.3-1.3.4-2.6.6-3.9q.2-.9.4-1.9c.1-.6.3-1.3.5-1.9.6-2.6.7-5.3.6-7.9-.1-1.3-.2-2.5.2-3.7.4-1.3.1-2.6.1-3.9.1-1.4.3-2.7.4-4.1v-6.1c0-.5-.8-.5-.8 0z"/><path class="e" d="M148.4 194.4c.2 1.5-.4 2.8-.9 4.2-.5 1.4-.7 2.9-1.2 4.3q.4.1.7.1c0-.5 0-1 .3-1.4.3-.4-.2-.9-.5-.5-.5.5-.6 1.2-.5 1.9 0 .4.6.5.7.1.3-.7.4-1.5.6-2.3q.3-1.1.7-2.1c.5-1.4 1-2.8.9-4.3-.1-.4-.9-.5-.8 0zm15.7 18.7c0-.5.2-.9.3-1.3q.3-.7.4-1.4c.1-1 0-1.9.2-2.9.2-.9.4-1.9.6-2.8.3-.9.7-1.8 1-2.7.3-.8.4-1.9.9-2.7.4-.7 1-1.3 1.4-2 .5-.8 1.2-1.5 1.8-2.2.6-.7 1.1-1.4 1.7-2.2 1.1-1.3 2.2-2.7 3.1-4.2.5-.9.9-1.7 1.4-2.6q.7-1.2 1.5-2.4c1.1-1.6 2.1-3.3 3.1-5q.7-1.3 1.4-2.5c.5-.9 1-1.7 1.6-2.5.5-.9 1-1.8 1.4-2.8.4-.9.8-1.7 1.5-2.4.7-.6 1.4-1.1 2-1.7.4-.5 1.1-1.5 1.8-1.3.5 0 .7-.7.2-.8-.8-.1-1.4.3-1.9.8-.5.6-1 1.1-1.5 1.6-.7.5-1.3 1-1.8 1.7-.6.7-.9 1.6-1.3 2.5-.8 1.8-2 3.4-3 5.1-1 1.7-1.9 3.5-3 5.2-1.1 1.6-2.2 3.3-3.2 5-.4.9-.9 1.8-1.4 2.6l-1.6 2.2-1.8 2.2c-.6.8-1.3 1.5-1.9 2.3l-1.5 2.1c-.2.3-.5.6-.7 1-.2.4-.3.9-.5 1.3-.1.6-.2 1.1-.4 1.7-.2.5-.4 1-.7 1.5-.4 1-.5 2.1-.8 3.1-.2 1.1-.3 2.2-.4 3.3q0 .8-.2 1.6c-.2.5-.4 1-.4 1.6-.1.5.7.5.7 0z"/><path class="e" d="M191.7 165.1c.9-.1 1.6-.6 2.4-.9.8-.3 1.5-.2 2.2.3.8.5 1.4 1.1 2.1 1.7.6.5 1.5.9 2.2 1.4 1.4 1.1 2.5 2.7 3.8 4 .2.3.6.6.8 1q.3.4.6 1c.1.3.3.6.5.9.2.3.6.6.6 1 .1.4.1.7.3 1.1.2.4.4.8.7 1.2.2.4.3.8.5 1.2q.3.7.7 1.3c.3.7.5 1.4 1 2.1.5.7 1.1 1.4 1.6 2.1.6.8.9 1.6 1.4 2.4.2.4.5.8.7 1.1.3.5.5.9.7 1.3.4.8.9 1.5 1.2 2.3l.9 2.4q.4 1.2.9 2.4.2.5.5 1c.2.4.5.7.8 1.1.4.8.7 1.6 1.2 2.4.5.7 1.1 1.4 1.6 2.1.6.6 1.3 1.2 2 1.8.7.6 1.4 1.1 2.2 1.6 1.6.9 3.3 1.5 5 2.2q1.3.6 2.7 1c.9.3 1.8.5 2.7.8 1.8.4 3.7.9 5.6.7.9-.1 1.5-.5 2.3-1 .8-.4 1.6-.8 2.5-1 .8-.2 1.7-.3 2.5-.7.8-.3 1.6-.8 2.4-1.2 1.7-.7 3.3-1.8 4.8-3 .7-.5 1.3-1.2 2-1.8.6-.7 1.4-1.3 2.1-2q1.2-1 2.3-2c.8-.6 1.5-1.3 2.4-1.8.6-.3 1.3-.6 2-.8.5-.2 1-.2 1.5-.4.4-.2.9-.4 1.1-.8.1-.5-.6-.7-.7-.2-.1.2-1 .4-1.2.4-.5.2-1 .3-1.5.5-.8.3-1.6.6-2.2 1.1-.8.6-1.5 1.2-2.3 1.9-1.5 1.2-3 2.4-4.4 3.8-.6.7-1.3 1.3-2 1.9l-2.4 1.6c-.7.5-1.6.8-2.4 1.2-.9.4-1.6.9-2.4 1.2-.9.2-1.8.3-2.6.6q-1.2.5-2.3 1.2c-.4.2-.8.4-1.2.5-.4.1-.9.1-1.4.1-.9 0-1.9-.2-2.8-.4-1.8-.4-3.7-.8-5.4-1.5-1.8-.7-3.5-1.4-5.2-2.2-1.6-.8-3.1-1.9-4.4-3.1-.7-.6-1.2-1.3-1.7-2.1-.6-.7-1.1-1.4-1.5-2.3-.3-.7-.8-1.4-1.2-2.1-.4-.8-.7-1.6-1-2.4-.6-1.5-1-3.1-1.8-4.6-.5-.7-.9-1.6-1.4-2.3-.6-.8-.9-1.6-1.4-2.4-.4-.8-1-1.5-1.6-2.2-.5-.6-.8-1.2-1.2-1.9-.3-.9-.8-1.7-1.1-2.5l-.6-1.2c-.2-.4-.5-.8-.7-1.2 0-.4 0-.7-.1-1.1-.2-.3-.5-.6-.7-.9-.4-.6-.7-1.3-1.1-1.9-.5-.7-1.2-1.3-1.8-2-.6-.6-1.1-1.3-1.8-2-.6-.6-1.3-1.2-2.1-1.6-.4-.3-.7-.5-1.1-.8-.3-.3-.7-.6-1-.9-.6-.5-1.2-1-1.9-1.3-.7-.3-1.5-.3-2.2 0-.8.3-1.5.7-2.4.9-.4.1-.2.8.2.7z"/><path class="e" d="M241.1 209.6c-.5.1-1 0-1.5-.3q0 .4-.1.7c.6 0 1.2 0 1.9.1.6.1 1.2.3 1.8.3.5 0 .5-.8 0-.8-.6 0-1.2-.1-1.7-.3-.7-.1-1.4 0-2 0-.4-.1-.6.5-.2.7q.8.5 1.8.4c.2 0 .4-.2.4-.4s-.2-.4-.4-.4zm-85-68.7c1.4-.1 2.7-.4 4-.9.6-.2 1.2-.5 1.8-.7q.6-.1 1.1-.1h1c.7 0 1.3-.2 1.9-.3.7-.1 1.4-.1 2.2-.1.7 0 1.4.1 2 0 .7-.1 1.4-.2 2-.4.6-.2 1.3-.3 1.9-.4.7-.2 1.4-.1 2.1-.1h8.9c.7 0 1.4-.1 2.1 0 .7.1 1.3.3 2 .3 1.5.1 3 0 4.5 0h22.3c1.3 0 2.6.1 3.9.3 1.3.2 2.6.7 3.9 1l4.2.9c1.3.4 2.6.6 4 .6.7 0 1.4-.1 2.1 0h1.2l.9.3h.9c.2 0 .3.1.4.3.1.4.2.7.4 1 .2.3.5.5.9.5.5-.1.5-.8 0-.8-.4 0-.4-.4-.5-.6-.1-.4-.3-.7-.6-.9q-.2-.2-.5-.2c-.4 0-.7 0-1-.1q-1-.3-2.1-.3c-1.4 0-2.8.1-4.3-.1-1.3-.3-2.6-.7-3.9-.9-1.4-.3-2.8-.6-4.2-1q-1.8-.6-3.7-.7c-1.4-.1-2.9-.1-4.3 0h-4.5c-5.9 0-11.8-.1-17.8 0-.7 0-1.5 0-2.2-.1-.7 0-1.4-.1-2-.2-1.5-.2-3-.1-4.4-.1h-4.4c-1.4 0-2.8-.1-4.2.1-1.4.2-2.6.7-3.9.8-1.5.2-2.9-.1-4.3.1-.6.1-1.2.4-1.9.4s-1.3-.1-2 .1c-1.3.2-2.5.9-3.8 1.2q-1.1.3-2.1.4c-.5.1-.5.8 0 .7zm27.2-55.5c.1.6.5 1.1.6 1.6.3.7.3 1.4.5 2 .2.7.4 1.3.6 2q.3 1 .3 2c.1 1.3.1 2.7 0 4q0 1 .2 2.1c.1.6.2 1.3.2 1.9 0 .7 0 1.4.1 2 .1.7.3 1.3.2 2 0 .7.1 1.3.3 1.9.3.6.5 1.2.4 1.8 0 .6.2 1.1.5 1.7.2.6.3 1.2.3 1.8.1 1.2 0 2.4-.1 3.7 0 1.5.2 3.1-.2 4.6-.4 1.5-.5 3-.5 4.6 0 .4.8.4.8 0 0-1.4 0-2.8.3-4.2.4-1.3.4-2.6.4-4 0-1.3.1-2.6.1-3.8q0-1-.1-1.9c-.1-.6-.4-1.1-.6-1.7-.2-.5 0-1.1-.2-1.7-.1-.6-.4-1.2-.6-1.8-.1-.7.1-1.4-.1-2.1-.1-.6-.2-1.3-.2-2-.1-.6 0-1.3-.1-1.9-.1-.7-.3-1.4-.3-2.1-.1-1.4 0-2.8 0-4.1q0-1.1-.2-2.2c-.1-.8-.4-1.5-.6-2.3-.3-.7-.4-1.4-.5-2.1l-.4-1c-.1-.3-.3-.6-.4-1-.1-.4-.8-.2-.7.2z"/><path class="e" d="M249.5 85.8c.1.5.4.9.4 1.4 0 .5-.1.9-.1 1.4v3.2c0 .5.1 1 0 1.5 0 .5-.2 1-.4 1.5s-.3 1-.5 1.5c-.1.6-.4 1-.7 1.5-.1.4-.2.8-.2 1.3 0 .6-.1 1.1-.2 1.7-.3 1.1-.6 2.1-.8 3.2q-.2 1.6-.3 3.1c0 1.1 0 2.1-.1 3.2s-.4 2.1-.6 3.2c-.1 1.1-.3 2.1-.5 3.1-.5 2.1-1.3 4-2 6q-.6 1.6-1.1 3.1c-.3 1-.5 2-.8 2.9-.2.5-.5.9-.7 1.4-.2.4-.2.9-.2 1.3-.1 1.1-.4 2.2-.7 3.2-.5 2.1-1 4.3-1.4 6.4-.1 1.1-.2 2.1-.3 3.2-.1 1.1-.4 2.2-.6 3.3-1 4.3-.8 8.7-.8 13.1 0 1 0 2 .2 3 .2 1.1.1 2.2.1 3.3 0 1 .4 2 .4 3.1 0 .4-.1.9 0 1.3 0 .4.2.8.3 1.3.3.9.2 1.9.4 2.8.3 1.1.7 2 .8 3.1.1.9.2 1.9.6 2.7.3.7.8 1.2 1.4 1.6.6.5 1.3.9 1.9 1.3.8.5 1.5 1 2.4 1.4 1.5.7 3.4 1 5.1.8 1.7-.2 3.4-1 4.7-2.2.7-.6 1.3-1.2 2-1.8q1.2-1 2.6-1.7c1-.5 2-.3 2.9-.6.2 0 .3-.1.3-.2q0-.2.1-.3c.1-.5-.7-.7-.8-.2v.3q.1-.2.2-.3c-.9.3-1.9.1-2.8.5-.9.4-1.7 1-2.5 1.6-1.4 1-2.5 2.5-4.1 3.3-1.7.9-3.7 1.1-5.6.7q-1.2-.3-2.4-.9c-.7-.4-1.4-.9-2.1-1.4-.7-.4-1.4-.7-1.9-1.3-.7-.6-1-1.4-1.1-2.3-.2-.9-.2-1.9-.5-2.9s-.6-1.8-.7-2.9c0-.4 0-.8-.1-1.3s-.4-.9-.4-1.4c0-.4.1-.9 0-1.3 0-.5-.1-1-.2-1.5-.2-1.1 0-2.2-.1-3.2 0-1-.3-2-.3-3-.1-2.2 0-4.4 0-6.6 0-2.2.1-4.3.4-6.4.2-1.1.5-2.1.7-3.2.2-1 .3-2.1.4-3.1.2-2.2.7-4.3 1.2-6.4l.8-3.2c.1-.4.2-.9.2-1.3.1-.6.1-1.1.3-1.7.2-.4.5-.7.6-1.2.2-.4.2-.9.4-1.4.2-1 .6-2 .9-3 .7-2 1.5-4 2.1-6 .6-1.9.9-3.9 1.3-6 .2-.9.4-1.9.4-2.9.1-1.1 0-2.2.1-3.2q.1-1.6.5-3.2c.3-1.1.6-2.1.8-3.2v-1.4c.1-.5.4-.9.6-1.4.2-.4.4-.9.5-1.4.1-.5.4-1 .5-1.6.3-.9.2-1.8.2-2.8 0-1-.1-2.1 0-3.1 0-.4.1-.9 0-1.3 0-.4-.3-.8-.4-1.3-.1-.5-.8-.3-.7.2zM142.8 28.5v-.3c-.1-.5-.7-.5-.8 0-.1 1 .4 1.8.8 2.6.5 1 .8 2 1.1 3.1.3 1.5.5 3 .8 4.4.2.7.4 1.4.8 1.9.4.6 1 .8 1.7.7 2.1-.2 4-1.2 5.8-2 1-.5 2-.9 3.1-1.4q.7-.4 1.5-.7c.5-.3 1-.4 1.6-.7.5-.2 1-.4 1.4-.7.3-.4.7-.8 1.2-.8.9-.1 1.6.6 2.1 1.2.6.7 1.1 1.4 1.7 2.1.7.7 1.5 1.4 2.1 2.2 1.5 1.7 2.1 3.8 3.4 5.6.4.6.8 1.2 1.5 1.4.8.2 1.7-.1 2.4-.4.9-.5 1.7-1.1 2.6-1.7.9-.6 1.8-1.1 2.8-1.7q1.5-.8 3.1-1.7c1-.5 2.1-1 3.2-1.5.5-.2.9-.4 1.3-.8.3-.2.5-.7.9-.8.7-.2 1.4.1 2 .4 1.5.8 2.7 1.9 4 2.8 1.7 1.2 3.6 2.1 5.3 3.3 1.4 1.1 2.4 2.8 4.2 3.4 1.9.6 3.9-.7 5.4-1.6 1.9-1.1 3.6-2.5 5.4-3.7 1.4-.8 2.7-2 4.3-2.5.7-.3 1.2-.3 1.9 0 .7.4 1.4.8 2.1 1.3l.8.6c.4.3.8.7 1.2 1.1.8.6 1.8.9 2.7 1.4.8.4 1.3 1.2 2.2 1.5q0-.3-.1-.6c-.3.1-.5.4-.5.8 0 .5.7.5.8 0q0-.2.1-.2c.3-.2.2-.6-.1-.7-.9-.3-1.4-1.2-2.3-1.6-.5-.2-.9-.4-1.4-.6-.5-.3-.9-.6-1.3-1-1.1-1-2.5-2-3.9-2.7-.7-.2-1.2-.3-1.9-.2-.8.2-1.5.6-2.2 1-.7.4-1.4.9-2 1.3-.8.6-1.6 1.1-2.4 1.6-1.8 1.3-3.6 2.5-5.5 3.5-.9.4-1.8.8-2.8.6-.8-.1-1.5-.7-2.1-1.2-.7-.7-1.4-1.4-2.2-2-.7-.7-1.6-1.2-2.4-1.7-.9-.5-1.8-1-2.6-1.5-.7-.5-1.3-1-2-1.5-1.2-.9-2.5-2-4.1-2.1q-.5 0-.9.1c-.5.2-.6.5-.9.8-.8.8-2.1 1.2-3.1 1.6-2.1 1-4.1 2.1-6 3.3-.9.5-1.7 1.2-2.6 1.7-.8.6-1.7 1.1-2.7 1.2-.7.1-1.2-.5-1.6-1.1-.6-.9-1.1-1.9-1.6-2.9-.5-.9-.9-1.8-1.6-2.6-.6-.7-1.4-1.4-2.1-2.2-.6-.6-1.2-1.3-1.8-2.1-.5-.6-1-1.2-1.8-1.5q-.5-.2-1.1-.2c-.5.1-.8.3-1.1.6-.5.4-.9.7-1.5.9-.5.3-1 .5-1.5.7-1.1.4-2.1.9-3.1 1.4q-1.5.7-3.1 1.4c-1 .4-2 .9-3.1 1.2-.6.1-1.6.4-2 0-.5-.5-.7-1.2-.8-1.8q-.3-1.1-.5-2.2c-.3-1.7-.6-3.6-1.3-5.2-.5-.9-1-1.6-.9-2.6h-.8v.3c0 .5.8.5.8 0z"/><path class="e" d="M143.6 28c0 2.8.8 5.4 1 8.1.1 1.1 0 2.2.2 3.3.1.8.4 1.9 1.4 2 1 .1 1.9-.6 2.7-1 1.1-.5 2.2-1 3.4-1.2 2.7-.6 5.3-1.5 7.6-2.9q.8-.5 1.6-.9c.3-.3.8-.6 1.3-.6.6.1.9.7 1 1.1.2.6.3 1.1.5 1.6.4 1.1 1.4 1.6 2.1 2.5.5.4.8 1 1.1 1.6q.5.9.9 1.8c.5.9.9 1.9 1.4 2.8.5.8 1.1 1.7 2.1 1.7 1 .1 1.9-.6 2.8-1.1.5-.2 1-.5 1.5-.7q.9-.5 1.8-1.1c.5-.4 1.1-.7 1.5-1.1.4-.4.8-.8 1.3-.9.7-.3 1.4-.3 2.1-.5q.9-.3 1.9-.6c1-.3 2-.7 3-1.1.8-.3 1.7-.5 2.4-1 .3-.2.5-.5.6-.8.2-.4-.5-.6-.7-.2-.1.3-.4.4-.6.5l-1.2.6c-.9.3-1.7.6-2.6 1q-.9.3-1.8.5c-.7.2-1.3.4-1.9.5-.6.2-1.3.2-1.8.5-.5.2-.8.6-1.2.9-1 .9-2.1 1.6-3.3 2.2-.5.2-1 .5-1.4.7-.5.3-.9.5-1.3.7-.4.2-.9.4-1.4.2-.4-.1-.7-.6-.9-.9-.6-.8-1-1.8-1.4-2.7q-.8-1.7-1.8-3.3-.4-.7-1-1.2c-.4-.4-.8-.7-1.1-1.1-.8-.9-.6-2.1-1.2-3-.6-.9-1.5-1-2.5-.6-1 .5-2 1.3-3 1.8-1.1.7-2.4 1.1-3.6 1.6-1.3.3-2.5.6-3.8 1-1.1.3-2.1.8-3.2 1.3-.5.3-1.8 1.1-2.3.3-.4-.8-.4-1.9-.4-2.7 0-1.3-.1-2.5-.3-3.7-.2-1.3-.5-2.6-.7-3.9q-.1-1-.1-2c0-.5-.7-.5-.7 0z"/><path class="e" d="M191 39.1h-.2q.1.1.1 0-.2.1-.3.3c.6-.2 1 .6 1.3 1 .5.6 1.1 1 1.8 1.3.7.5 1.5.9 2.2 1.4.8.5 1.5 1 2.2 1.5.7.5 1.5.8 2.2 1.3q1.1.6 1.9 1.4c.5.5.9 1.1 1.4 1.7.4.4.9 1 1.5 1 .5 0 1-.4 1.4-.7.4-.3.8-.7 1.3-1.1.6-.5 1.4-.8 2.1-1.2q1.3-.8 2.6-1.5c.9-.4 1.7-.8 2.6-1.3.8-.4 1.5-.9 2.3-1.4.7-.5 1.5-1 2.2-1.4l1.2-.6c.3-.2.6-.5 1-.4.3 0 .6.2.8.5q.4.3.8.8c.6.6 1.2 1 1.9 1.4 1.7 1 3.2 2 4.6 3.3.4.4.9-.1.6-.5-1.3-1.2-2.7-2.2-4.1-3.1-.7-.4-1.5-.7-2.1-1.3-.4-.4-.8-.9-1.3-1.4-.6-.4-1.2-.6-1.8-.4-.4.1-.7.4-1 .5q-.7.4-1.3.7c-1.5 1-3 2.1-4.6 2.9q-2.7 1.3-5.3 2.8c-.7.4-1.3.7-1.9 1.2-.5.4-.9.8-1.4 1.2-.2.1-.4.3-.6.3-.2 0-.5-.3-.6-.5-.5-.5-.9-1.1-1.4-1.6q-.8-.9-1.8-1.6c-.7-.5-1.5-.9-2.2-1.3-.9-.5-1.7-1.1-2.5-1.7-.8-.6-1.7-1-2.5-1.5-.5-.3-.9-.5-1.3-.9-.2-.2-.4-.4-.6-.7-.5-.5-1-1-1.8-.9l-.3.3c-.1.6.3.9.9.9.5 0 .5-.8 0-.7z"/></svg>