<svg width="780" height="728" viewBox="0 0 780 728" fill="none" xmlns="http://www.w3.org/2000/svg"><g clip-path="url(#clip0_411_839)"><path fill="#F6DCD7" d="M0 0h780v728H0z"/><g clip-path="url(#clip1_411_839)"><path d="M300.878 79V59.48h-6.368v-3.36h17.024v3.36h-6.368V79h-4.288zm17.242-2.688c1.429 0 2.549-.49 3.36-1.472.832-1.003 1.248-2.368 1.248-4.096v-.224c0-1.728-.416-3.083-1.248-4.064-.811-1.003-1.931-1.504-3.36-1.504-1.451 0-2.592.49-3.424 1.472-.811.981-1.216 2.336-1.216 4.064v.256c0 1.728.405 3.093 1.216 4.096.832.981 1.973 1.472 3.424 1.472zm6.144.64c-1.621 1.579-3.68 2.368-6.176 2.368s-4.555-.79-6.176-2.368c-1.6-1.579-2.4-3.627-2.4-6.144v-.256c0-2.56.811-4.64 2.432-6.24 1.621-1.6 3.68-2.4 6.176-2.4 2.475 0 4.523.79 6.144 2.368 1.621 1.579 2.432 3.637 2.432 6.176v.256c0 2.581-.811 4.661-2.432 6.24zm11.819-.64c1.429 0 2.549-.49 3.36-1.472.832-1.003 1.248-2.368 1.248-4.096v-.224c0-1.728-.416-3.083-1.248-4.064-.811-1.003-1.931-1.504-3.36-1.504-1.451 0-2.592.49-3.424 1.472-.811.981-1.216 2.336-1.216 4.064v.256c0 1.728.405 3.093 1.216 4.096.832.981 1.973 1.472 3.424 1.472zm6.144.64c-1.622 1.579-3.68 2.368-6.176 2.368s-4.555-.79-6.176-2.368c-1.6-1.579-2.4-3.627-2.4-6.144v-.256c0-2.56.81-4.64 2.432-6.24 1.621-1.6 3.68-2.4 6.176-2.4 2.474 0 4.522.79 6.144 2.368 1.621 1.579 2.432 3.637 2.432 6.176v.256c0 2.581-.811 4.661-2.432 6.24zM346.653 79V54.52h3.872V79h-3.872zm16.473 0l-5.12-16.736h4.128l3.328 12.096 3.552-12.096h3.232l3.264 12.096 3.488-12.096h3.776L377.526 79h-3.936l-3.104-11.264L367.094 79h-3.968zm28.025-2.688c1.43 0 2.55-.49 3.36-1.472.832-1.003 1.248-2.368 1.248-4.096v-.224c0-1.728-.416-3.083-1.248-4.064-.81-1.003-1.93-1.504-3.36-1.504-1.45 0-2.592.49-3.424 1.472-.81.981-1.216 2.336-1.216 4.064v.256c0 1.728.406 3.093 1.216 4.096.832.981 1.974 1.472 3.424 1.472zm6.144.64c-1.621 1.579-3.68 2.368-6.176 2.368s-4.554-.79-6.176-2.368c-1.6-1.579-2.4-3.627-2.4-6.144v-.256c0-2.56.811-4.64 2.432-6.24 1.622-1.6 3.68-2.4 6.176-2.4 2.475 0 4.523.79 6.144 2.368 1.622 1.579 2.432 3.637 2.432 6.176v.256c0 2.581-.81 4.661-2.432 6.24zM401.626 79V62.264h3.872V65.4c1.109-2.24 2.923-3.37 5.44-3.392v3.616c-1.813.021-3.179.384-4.096 1.088-.896.704-1.344 1.899-1.344 3.584V79h-3.872zm11.119 0V54.52h3.872v15.104l5.984-7.36h4.224l-6.496 7.68 7.04 9.056h-4.48l-6.272-8.224V79h-3.872zm16.353 0V65.176h-2.272v-2.912h2.272v-2.24c0-1.835.48-3.232 1.44-4.192.96-.981 2.336-1.472 4.128-1.472.789 0 1.493.096 2.112.288v3.008c-.405-.17-.949-.256-1.632-.256-1.451 0-2.176.821-2.176 2.464v2.4h3.808v2.912h-3.808V79h-3.872zm8.98 0V54.52h3.872V79h-3.872zm14.48-2.688c1.429 0 2.549-.49 3.36-1.472.832-1.003 1.248-2.368 1.248-4.096v-.224c0-1.728-.416-3.083-1.248-4.064-.811-1.003-1.931-1.504-3.36-1.504-1.451 0-2.592.49-3.424 1.472-.811.981-1.216 2.336-1.216 4.064v.256c0 1.728.405 3.093 1.216 4.096.832.981 1.973 1.472 3.424 1.472zm6.144.64c-1.622 1.579-3.68 2.368-6.176 2.368s-4.555-.79-6.176-2.368c-1.6-1.579-2.4-3.627-2.4-6.144v-.256c0-2.56.81-4.64 2.432-6.24 1.621-1.6 3.68-2.4 6.176-2.4 2.474 0 4.522.79 6.144 2.368 1.621 1.579 2.432 3.637 2.432 6.176v.256c0 2.581-.811 4.661-2.432 6.24zM466.019 79l-5.12-16.736h4.128l3.328 12.096 3.552-12.096h3.232l3.264 12.096 3.488-12.096h3.776L480.419 79h-3.936l-3.104-11.264L469.987 79h-3.968z" fill="#000"/><g clip-path="url(#clip2_411_839)"><g filter="url(#filter0_d_411_839)"><path d="M636.138 235.066H510.591c-10.948 0-19.823 8.875-19.823 19.823v125.547c0 10.948 8.875 19.824 19.823 19.824h125.547c10.948 0 19.823-8.876 19.823-19.824V254.889c0-10.948-8.875-19.823-19.823-19.823z" fill="#fff"/><path d="M590.996 274.357c5.724 8.417 8.55 17.911 7.493 28.84a.157.157 0 01-.066.116c-4.335 3.183-8.536 5.116-12.675 6.396a.152.152 0 01-.099-.002.16.16 0 01-.08-.058 33.923 33.923 0 01-2.587-4.209.16.16 0 01.086-.224 26.084 26.084 0 003.957-1.882.162.162 0 00.013-.269c-.268-.2-.534-.408-.788-.618a.155.155 0 00-.165-.02c-8.197 3.786-17.179 3.786-25.473 0a.156.156 0 00-.164.022c-.254.209-.52.416-.786.616a.162.162 0 00.017.269 27.52 27.52 0 003.954 1.883.161.161 0 01.088.223 30.14 30.14 0 01-2.589 4.211.162.162 0 01-.178.058c-4.122-1.28-8.323-3.213-12.657-6.396a.169.169 0 01-.066-.118c-.882-9.454.916-19.025 7.488-28.839a.142.142 0 01.068-.058 41.705 41.705 0 0110.318-3.2c.064-.01.13.02.165.08.447.791.958 1.807 1.305 2.636a38.724 38.724 0 0111.586 0c.347-.811.84-1.845 1.286-2.636a.154.154 0 01.071-.067.156.156 0 01.096-.013 41.846 41.846 0 0110.316 3.2.13.13 0 01.066.059zm-21.482 17.975c.04-2.795-1.997-5.108-4.556-5.108-2.536 0-4.554 2.293-4.554 5.108 0 2.815 2.058 5.106 4.554 5.106 2.539 0 4.556-2.291 4.556-5.106zm16.842 0c.039-2.795-1.998-5.108-4.555-5.108-2.537 0-4.556 2.293-4.556 5.108 0 2.815 2.059 5.106 4.556 5.106 2.557 0 4.555-2.291 4.555-5.106z" fill="#5865F2"/><path d="M532.646 338.198l-6.082 16.12h-2.428l-6.083-16.12h2.244l5.064 13.9 5.065-13.9h2.22zm7.373 16.328c-1.188 0-2.266-.269-3.238-.81a5.86 5.86 0 01-2.266-2.289c-.54-1.001-.81-2.158-.81-3.469 0-1.295.278-2.435.833-3.423.57-1.001 1.341-1.764 2.313-2.29.971-.538 2.058-.809 3.26-.809 1.203 0 2.29.271 3.261.809a5.696 5.696 0 012.29 2.267c.57.988.856 2.136.856 3.446 0 1.311-.294 2.468-.879 3.469a5.948 5.948 0 01-2.336 2.289c-.988.541-2.081.81-3.284.81zm0-1.85c.755 0 1.464-.177 2.128-.532.662-.354 1.194-.886 1.595-1.596.417-.709.625-1.573.625-2.59 0-1.018-.202-1.88-.601-2.59-.402-.709-.926-1.233-1.573-1.573a4.323 4.323 0 00-2.105-.532 4.36 4.36 0 00-2.127.532c-.633.34-1.142.864-1.527 1.573-.386.71-.578 1.572-.578 2.59 0 1.034.185 1.904.555 2.613.385.71.894 1.242 1.527 1.596.631.34 1.324.509 2.081.509zm9.89-13.09a1.38 1.38 0 01-1.017-.417 1.38 1.38 0 01-.417-1.017c0-.4.139-.74.417-1.018a1.384 1.384 0 011.017-.416c.385 0 .709.139.971.416.278.278.417.618.417 1.018 0 .401-.139.74-.417 1.017a1.282 1.282 0 01-.971.417zm1.018 2.058v12.674h-2.105v-12.674h2.105zm2.337 6.314c0-1.31.263-2.452.787-3.423.525-.986 1.248-1.749 2.173-2.29.942-.538 2.013-.809 3.215-.809 1.558 0 2.838.378 3.839 1.133 1.018.757 1.688 1.804 2.012 3.145h-2.266a3.236 3.236 0 00-1.272-1.827c-.616-.446-1.388-.67-2.313-.67-1.202 0-2.174.416-2.914 1.249-.74.817-1.11 1.982-1.11 3.492 0 1.526.37 2.706 1.11 3.538.74.833 1.712 1.249 2.914 1.249.925 0 1.697-.215 2.313-.647.618-.432 1.041-1.048 1.272-1.851h2.266c-.338 1.295-1.017 2.336-2.035 3.123-1.017.771-2.289 1.156-3.816 1.156-1.202 0-2.273-.269-3.215-.81-.925-.538-1.648-1.301-2.173-2.289-.524-.986-.787-2.143-.787-3.469zm25.936-.463c0 .402-.024.826-.07 1.272h-10.129c.077 1.249.5 2.229 1.271 2.937.787.694 1.735 1.041 2.845 1.041.91 0 1.665-.208 2.267-.624a3.401 3.401 0 001.295-1.712h2.266a5.495 5.495 0 01-2.035 2.984c-1.018.756-2.281 1.133-3.793 1.133-1.202 0-2.281-.269-3.238-.81-.94-.538-1.68-1.301-2.22-2.289-.54-1.001-.809-2.158-.809-3.469 0-1.31.262-2.458.786-3.446a5.484 5.484 0 012.197-2.267c.957-.538 2.05-.809 3.284-.809 1.203 0 2.267.263 3.192.786a5.362 5.362 0 012.127 2.174c.509.91.764 1.943.764 3.099zm-2.174-.439c0-.801-.177-1.487-.532-2.059a3.371 3.371 0 00-1.457-1.318 4.363 4.363 0 00-2.012-.462c-1.064 0-1.974.34-2.729 1.017-.74.679-1.165 1.619-1.272 2.822h8.002zm19.73-5.643c.987 0 1.865.208 2.637.624.77.402 1.379 1.011 1.827 1.827.446.818.671 1.812.671 2.984v7.47h-2.082v-7.17c0-1.263-.317-2.226-.948-2.891-.618-.677-1.457-1.017-2.521-1.017-1.095 0-1.966.355-2.613 1.064-.648.694-.972 1.704-.972 3.029v6.985h-2.081v-7.17c0-1.263-.317-2.226-.948-2.891-.618-.677-1.457-1.017-2.521-1.017-1.095 0-1.966.355-2.614 1.064-.647.694-.971 1.704-.971 3.029v6.985h-2.104v-12.674h2.104v1.827a4.183 4.183 0 011.665-1.526 5.154 5.154 0 012.336-.532c1.064 0 2.004.239 2.822.717.816.479 1.425 1.179 1.827 2.104a4.155 4.155 0 011.757-2.081 5.188 5.188 0 012.729-.74zm7.338 6.522c0-1.295.261-2.429.787-3.4.523-.986 1.24-1.749 2.15-2.29.925-.538 1.95-.809 3.076-.809 1.11 0 2.073.239 2.891.717.816.479 1.426 1.08 1.827 1.804v-2.313h2.128v12.674h-2.128v-2.359c-.416.74-1.041 1.358-1.873 1.85-.818.479-1.774.717-2.868.717-1.127 0-2.144-.278-3.053-.833-.91-.555-1.627-1.333-2.15-2.336-.526-1.001-.787-2.142-.787-3.422zm10.731.023c0-.955-.193-1.788-.578-2.498-.387-.709-.91-1.249-1.573-1.619a4.128 4.128 0 00-2.151-.578c-.786 0-1.503.185-2.15.555-.648.37-1.165.91-1.55 1.619-.386.71-.578 1.543-.578 2.498 0 .971.192 1.82.578 2.544.385.71.902 1.257 1.55 1.642.647.37 1.364.555 2.15.555.787 0 1.504-.185 2.151-.555a4.142 4.142 0 001.573-1.642c.385-.724.578-1.565.578-2.521zm6.309-8.372c-.402 0-.74-.139-1.018-.417a1.384 1.384 0 01-.416-1.017c0-.4.139-.74.416-1.018a1.386 1.386 0 011.018-.416c.385 0 .709.139.971.416.278.278.416.618.416 1.018 0 .401-.138.74-.416 1.017a1.282 1.282 0 01-.971.417zm1.017 2.058v12.674h-2.104v-12.674h2.104zm5.229-4.44v17.114h-2.105v-17.114h2.105z" fill="#000" fill-opacity=".6"/></g><g filter="url(#filter1_d_411_839)"><path d="M449.37 676H323.823C312.875 676 304 684.875 304 695.823V821.37c0 10.948 8.875 19.823 19.823 19.823H449.37c10.948 0 19.823-8.875 19.823-19.823V695.823c0-10.948-8.875-19.823-19.823-19.823z" fill="#fff"/><path d="M404.228 715.291c5.724 8.417 8.55 17.91 7.493 28.84a.153.153 0 01-.066.115c-4.335 3.184-8.536 5.116-12.675 6.397a.167.167 0 01-.179-.06 33.997 33.997 0 01-2.587-4.209.161.161 0 01.086-.225 25.984 25.984 0 003.957-1.881.162.162 0 00.013-.269c-.268-.2-.534-.409-.788-.618a.153.153 0 00-.165-.02c-8.197 3.786-17.179 3.786-25.473 0a.155.155 0 00-.164.021c-.254.21-.52.417-.786.617a.162.162 0 00.016.269 27.69 27.69 0 003.955 1.883.161.161 0 01.088.223 30.199 30.199 0 01-2.589 4.211.164.164 0 01-.178.058c-4.122-1.281-8.323-3.213-12.657-6.397a.167.167 0 01-.066-.117c-.883-9.454.916-19.025 7.488-28.839a.133.133 0 01.068-.058 41.65 41.65 0 0110.318-3.2c.064-.01.13.02.165.079.447.791.958 1.807 1.305 2.637a38.658 38.658 0 0111.586 0 29.37 29.37 0 011.286-2.637.147.147 0 01.071-.066.141.141 0 01.095-.013 41.854 41.854 0 0110.317 3.2.126.126 0 01.066.059zm-21.482 17.975c.04-2.795-1.997-5.108-4.556-5.108-2.536 0-4.554 2.293-4.554 5.108 0 2.815 2.058 5.106 4.554 5.106 2.539 0 4.556-2.291 4.556-5.106zm16.842 0c.039-2.795-1.998-5.108-4.555-5.108-2.537 0-4.556 2.293-4.556 5.108 0 2.815 2.058 5.106 4.556 5.106 2.557 0 4.555-2.291 4.555-5.106z" fill="#5865F2"/></g><g filter="url(#filter2_d_411_839)"><path d="M452.773 309.403H327.227c-10.949 0-19.824 8.875-19.824 19.824v125.546c0 10.949 8.875 19.824 19.824 19.824h125.546c10.949 0 19.824-8.875 19.824-19.824V329.227c0-10.949-8.875-19.824-19.824-19.824z" fill="#fff"/><path fill-rule="evenodd" clip-rule="evenodd" d="M382.951 339.085a5.291 5.291 0 00-5.286 5.296 5.293 5.293 0 005.288 5.295h5.286v-5.293a5.294 5.294 0 00-5.288-5.298zm0 14.124h-14.094a5.293 5.293 0 00-5.288 5.296 5.29 5.29 0 005.285 5.298h14.097a5.29 5.29 0 005.286-5.296 5.291 5.291 0 00-5.286-5.298z" fill="#36C5F0"/><path fill-rule="evenodd" clip-rule="evenodd" d="M416.431 358.505a5.293 5.293 0 00-5.288-5.296 5.292 5.292 0 00-5.286 5.296v5.298h5.286a5.293 5.293 0 005.288-5.298zm-14.096 0v-14.124a5.294 5.294 0 00-5.286-5.296 5.291 5.291 0 00-5.286 5.296v14.124a5.29 5.29 0 005.284 5.298 5.292 5.292 0 005.288-5.298z" fill="#2EB67D"/><path fill-rule="evenodd" clip-rule="evenodd" d="M397.047 392.053a5.293 5.293 0 005.288-5.296 5.293 5.293 0 00-5.288-5.296h-5.286v5.296a5.294 5.294 0 005.286 5.296zm0-14.127h14.096a5.293 5.293 0 005.288-5.297 5.292 5.292 0 00-5.285-5.297h-14.097a5.291 5.291 0 00-5.286 5.296 5.29 5.29 0 005.284 5.298z" fill="#ECB22E"/><path fill-rule="evenodd" clip-rule="evenodd" d="M363.569 372.629a5.293 5.293 0 005.288 5.297 5.292 5.292 0 005.286-5.297v-5.296h-5.286a5.294 5.294 0 00-5.288 5.296zm14.096 0v14.126a5.295 5.295 0 005.286 5.298 5.291 5.291 0 005.286-5.296v-14.123a5.287 5.287 0 10-10.572-.005z" fill="#E01E5A"/><path d="M361.861 420.536v1.711h-4.394v14.408h-2.105v-14.408h-4.417v-1.711h10.916zm13.691 9.297c0 .401-.023.826-.069 1.272h-10.13c.078 1.248.502 2.228 1.272 2.937.787.694 1.735 1.04 2.845 1.04.91 0 1.665-.208 2.266-.624a3.388 3.388 0 001.295-1.711h2.267a5.498 5.498 0 01-2.035 2.983c-1.018.757-2.282 1.133-3.793 1.133-1.203 0-2.281-.269-3.238-.809-.94-.539-1.68-1.302-2.22-2.29-.539-1.001-.81-2.157-.81-3.469 0-1.31.263-2.458.787-3.446.525-.986 1.257-1.741 2.197-2.266.956-.539 2.052-.81 3.284-.81 1.202 0 2.266.263 3.191.787a5.346 5.346 0 012.128 2.174c.509.91.763 1.942.763 3.099zm-2.174-.44c0-.801-.176-1.487-.532-2.058a3.343 3.343 0 00-1.457-1.318 4.348 4.348 0 00-2.012-.463c-1.063 0-1.972.34-2.729 1.018-.74.679-1.163 1.619-1.272 2.821h8.002zm11.105 7.262l-3.007-4.718-2.891 4.718h-2.197l4.094-6.29-4.094-6.384h2.382l3.007 4.695 2.868-4.695h2.197l-4.071 6.268 4.094 6.406h-2.382zm6.556-10.939v7.47c0 .618.131 1.057.393 1.318.263.248.717.37 1.365.37h1.549v1.781h-1.896c-1.171 0-2.05-.269-2.637-.809-.586-.539-.878-1.426-.878-2.66v-7.47h-1.642v-1.735h1.642v-3.191h2.104v3.191h3.307v1.735h-3.307zm6.482-3.793c-.401 0-.74-.139-1.017-.416a1.383 1.383 0 01-.417-1.018c0-.399.139-.74.417-1.017a1.38 1.38 0 011.017-.417c.385 0 .709.139.972.417.277.277.416.618.416 1.017 0 .402-.139.74-.416 1.018a1.288 1.288 0 01-.972.416zm1.018 2.058v12.674h-2.105v-12.674h2.105zm9.299-.231c1.541 0 2.79.471 3.746 1.411.957.925 1.434 2.266 1.434 4.024v7.47h-2.081v-7.169c0-1.264-.316-2.227-.949-2.891-.632-.677-1.495-1.018-2.59-1.018-1.11 0-1.997.347-2.659 1.041-.648.694-.972 1.705-.972 3.03v7.007h-2.104v-12.674h2.104v1.804a4.21 4.21 0 011.689-1.503 5.366 5.366 0 012.382-.532zm13.382.023c1.095 0 2.05.24 2.868.717.832.479 1.448 1.081 1.85 1.804v-2.313h2.128v12.952c0 1.156-.247 2.182-.74 3.076a5.24 5.24 0 01-2.128 2.127c-.91.509-1.974.763-3.192.763-1.665 0-3.052-.393-4.163-1.179-1.11-.786-1.766-1.857-1.965-3.215h2.081c.231.772.709 1.388 1.434 1.85.725.48 1.596.717 2.613.717 1.157 0 2.097-.361 2.822-1.087.74-.723 1.11-1.741 1.11-3.052v-2.66c-.416.74-1.033 1.358-1.85 1.85-.818.494-1.773.74-2.868.74-1.125 0-2.151-.277-3.076-.832-.91-.555-1.627-1.333-2.151-2.336-.523-1.001-.786-2.143-.786-3.423 0-1.295.263-2.428.786-3.4.524-.986 1.241-1.749 2.151-2.289.925-.539 1.951-.81 3.076-.81zm4.718 6.522c0-.955-.193-1.787-.578-2.498-.385-.708-.91-1.248-1.573-1.618a4.128 4.128 0 00-2.151-.579c-.786 0-1.503.185-2.151.555-.647.37-1.164.911-1.549 1.619-.385.711-.578 1.543-.578 2.498 0 .971.193 1.82.578 2.544.385.71.902 1.257 1.549 1.642.648.37 1.365.555 2.151.555.787 0 1.504-.185 2.151-.555a4.129 4.129 0 001.573-1.642c.385-.724.578-1.564.578-2.521z" fill="#000" fill-opacity=".6"/></g><g filter="url(#filter3_d_411_839)"><path d="M636.138 418.431H510.591c-10.948 0-19.823 8.875-19.823 19.823v125.547c0 10.948 8.875 19.823 19.823 19.823h125.547c10.948 0 19.823-8.875 19.823-19.823V438.254c0-10.948-8.875-19.823-19.823-19.823z" fill="#fff"/><mask id="a" style="mask-type:luminance" maskUnits="userSpaceOnUse" x="546" y="443" width="54" height="61"><path d="M599.795 443.626h-52.861v60.29h52.861v-60.29z" fill="#fff"/></mask><g mask="url(#a)"><path d="M593.14 455.466a.585.585 0 00-.526-.488c-.216-.018-4.827-.358-4.827-.358s-3.201-3.18-3.553-3.532c-.352-.35-1.039-.245-1.305-.165-.04.011-.699.215-1.792.553-1.069-3.077-2.957-5.905-6.278-5.905-.09 0-.185.003-.28.008-.944-1.249-2.113-1.791-3.124-1.791-7.736 0-11.432 9.669-12.59 14.583-3.006.932-5.142 1.594-5.415 1.68-1.676.526-1.729.579-1.951 2.159-.165 1.198-4.556 35.147-4.556 35.147l34.209 6.409 18.534-4.009s-6.507-43.989-6.546-44.291zm-13.893-3.405l-2.894.895.001-.624c0-1.913-.266-3.453-.692-4.673 1.712.214 2.851 2.16 3.585 4.402zm-5.708-4.022c.476 1.191.787 2.902.787 5.21 0 .119-.002.226-.004.335l-5.976 1.852c1.15-4.444 3.309-6.588 5.193-7.397zm-2.297-2.176c.333 0 .67.112.992.334-2.479 1.168-5.135 4.105-6.259 9.972l-4.724 1.464c1.313-4.475 4.435-11.77 9.991-11.77z" fill="#95BF46"/><path d="M592.614 454.978c-.216-.018-4.827-.36-4.827-.36s-3.201-3.178-3.553-3.53a.872.872 0 00-.494-.226l-2.587 52.905 18.533-4.01s-6.507-43.991-6.546-44.291a.581.581 0 00-.526-.488z" fill="#5E8E3E"/><path d="M574.86 465.219l-2.285 6.799s-2.002-1.069-4.457-1.069c-3.6 0-3.78 2.258-3.78 2.827 0 3.105 8.093 4.295 8.093 11.568 0 5.721-3.629 9.406-8.522 9.406-5.871 0-8.874-3.654-8.874-3.654l1.572-5.195s3.086 2.65 5.691 2.65c1.702 0 2.394-1.34 2.394-2.32 0-4.05-6.639-4.23-6.639-10.886 0-5.6 4.019-11.022 12.135-11.022 3.127 0 4.672.896 4.672.896z" fill="#fff"/></g><path d="M535.867 532.513v16.004h-2.104v-11.933l-5.319 11.933h-1.48l-5.343-11.956v11.956h-2.104v-16.004h2.266l5.921 13.229 5.92-13.229h2.243zm2.321 9.621c0-1.295.261-2.428.787-3.399.523-.987 1.24-1.75 2.151-2.29.925-.54 1.949-.809 3.075-.809 1.111 0 2.074.239 2.891.717.816.477 1.426 1.078 1.827 1.804v-2.313h2.128v12.673h-2.128v-2.359c-.416.741-1.04 1.357-1.873 1.851-.818.477-1.774.717-2.868.717-1.126 0-2.144-.278-3.052-.833-.911-.555-1.628-1.333-2.151-2.336-.526-1.003-.787-2.142-.787-3.423zm10.731.024c0-.957-.193-1.79-.578-2.498-.386-.709-.91-1.249-1.572-1.619a4.133 4.133 0 00-2.151-.578c-.787 0-1.504.185-2.151.555-.648.37-1.165.91-1.55 1.619-.386.708-.578 1.541-.578 2.497 0 .972.192 1.819.578 2.544.385.709.902 1.257 1.55 1.642.647.37 1.364.555 2.151.555.786 0 1.503-.185 2.151-.555a4.147 4.147 0 001.572-1.642c.385-.725.578-1.564.578-2.52zm7.327-4.256a4.052 4.052 0 011.572-1.688c.694-.402 1.533-.601 2.521-.601v2.173h-.555c-2.359 0-3.538 1.281-3.538 3.84v6.891h-2.105v-12.673h2.105v2.058zm13.136 10.615l-4.972-5.596v5.596h-2.105v-17.114h2.105v10.061l4.879-5.62h2.937l-5.966 6.314 5.99 6.359h-2.868zm15.926-6.822c0 .401-.023.824-.069 1.272h-10.13c.078 1.249.502 2.228 1.272 2.937.786.694 1.735 1.041 2.845 1.041.91 0 1.665-.208 2.266-.625a3.392 3.392 0 001.295-1.711h2.267a5.509 5.509 0 01-2.035 2.983c-1.018.755-2.282 1.134-3.793 1.134-1.203 0-2.282-.27-3.238-.81a5.783 5.783 0 01-2.22-2.289c-.539-1.003-.81-2.16-.81-3.469 0-1.31.263-2.46.787-3.446.525-.987 1.257-1.743 2.197-2.267.956-.54 2.051-.809 3.284-.809 1.202 0 2.266.262 3.191.786a5.34 5.34 0 012.128 2.174c.509.91.763 1.943.763 3.099zm-2.174-.439c0-.802-.177-1.489-.532-2.059a3.325 3.325 0 00-1.457-1.318c-.601-.309-1.272-.463-2.012-.463-1.064 0-1.972.339-2.729 1.018-.74.679-1.163 1.619-1.272 2.822h8.002zm7.057-3.678v7.47c0 .617.131 1.056.393 1.319.263.246.717.37 1.365.37h1.549v1.78h-1.896c-1.171 0-2.05-.269-2.636-.809-.587-.54-.879-1.426-.879-2.66v-7.47h-1.642v-1.734h1.642v-3.192h2.104v3.192h3.307v1.734h-3.307zm6.482-3.793a1.38 1.38 0 01-1.017-.416 1.38 1.38 0 01-.416-1.017c0-.402.138-.74.416-1.018a1.384 1.384 0 011.017-.416c.385 0 .709.139.972.416.277.278.416.616.416 1.018 0 .401-.139.74-.416 1.017a1.284 1.284 0 01-.972.416zm1.018 2.059v12.673h-2.105v-12.673h2.105zm9.299-.231c1.541 0 2.79.47 3.746 1.41.957.925 1.434 2.267 1.434 4.024v7.47h-2.081v-7.169c0-1.264-.316-2.228-.948-2.891-.633-.679-1.495-1.017-2.591-1.017-1.11 0-1.997.346-2.659 1.04-.648.694-.972 1.703-.972 3.03v7.007h-2.104v-12.673h2.104v1.804a4.213 4.213 0 011.689-1.504 5.339 5.339 0 012.382-.531zm13.382.023c1.095 0 2.05.239 2.868.717.832.477 1.449 1.078 1.85 1.804v-2.313h2.128v12.951c0 1.156-.246 2.182-.74 3.076a5.242 5.242 0 01-2.128 2.128c-.91.508-1.974.763-3.192.763-1.665 0-3.052-.393-4.162-1.18-1.111-.786-1.766-1.858-1.966-3.214h2.081c.231.771.709 1.387 1.434 1.85.725.477 1.596.717 2.613.717 1.157 0 2.097-.362 2.822-1.087.74-.725 1.11-1.743 1.11-3.053v-2.66c-.416.74-1.032 1.357-1.85 1.851-.818.493-1.773.74-2.868.74-1.125 0-2.151-.278-3.076-.833-.91-.555-1.627-1.333-2.151-2.336-.523-1.003-.786-2.142-.786-3.423 0-1.295.263-2.428.786-3.399.524-.987 1.241-1.75 2.151-2.29.925-.54 1.951-.809 3.076-.809zm4.718 6.522c0-.957-.193-1.79-.578-2.498-.385-.709-.91-1.249-1.573-1.619a4.128 4.128 0 00-2.151-.578c-.786 0-1.503.185-2.15.555-.648.37-1.165.91-1.55 1.619-.385.708-.578 1.541-.578 2.497 0 .972.193 1.819.578 2.544.385.709.902 1.257 1.55 1.642.647.37 1.364.555 2.15.555.787 0 1.504-.185 2.151-.555a4.135 4.135 0 001.573-1.642c.385-.725.578-1.564.578-2.52z" fill="#000" fill-opacity=".6"/></g><g filter="url(#filter4_d_411_839)"><path d="M269.37 717H143.823C132.875 717 124 725.875 124 736.823V862.37c0 10.948 8.875 19.823 19.823 19.823H269.37c10.948 0 19.823-8.875 19.823-19.823V736.823c0-10.948-8.875-19.823-19.823-19.823z" fill="#fff"/></g><g filter="url(#filter5_d_411_839)"><path d="M452.773 126.039H327.227c-10.949 0-19.824 8.875-19.824 19.823v125.547c0 10.948 8.875 19.823 19.824 19.823h125.546c10.949 0 19.824-8.875 19.824-19.823V145.862c0-10.948-8.875-19.823-19.824-19.823z" fill="#fff"/><path d="M381.44 203.179l.811-5.149-1.806-.042h-8.623l5.992-37.998a.491.491 0 01.487-.416h14.54c4.827 0 8.157 1.005 9.897 2.987.816.93 1.335 1.902 1.586 2.972.264 1.122.269 2.463.011 4.098l-.018.12v1.048l.815.461a5.772 5.772 0 011.652 1.259c.697.796 1.148 1.806 1.338 3.004.196 1.233.132 2.699-.19 4.359-.372 1.91-.973 3.573-1.786 4.934a10.134 10.134 0 01-2.83 3.101c-1.079.765-2.36 1.347-3.809 1.719-1.404.366-3.007.55-4.763.55h-1.131c-.81 0-1.594.291-2.212.814a3.427 3.427 0 00-1.153 2.058l-.086.464-1.432 9.076-.065.333c-.016.105-.046.158-.091.194a.24.24 0 01-.148.054h-6.986z" fill="#253B80"/><path d="M405.903 169.875c-.043.277-.092.561-.148.852-1.917 9.845-8.478 13.246-16.855 13.246h-4.267a2.07 2.07 0 00-2.047 1.755l-2.185 13.851-.618 3.927a1.084 1.084 0 00.248.879 1.087 1.087 0 00.829.383h7.566a1.82 1.82 0 001.799-1.535l.074-.384 1.424-9.041.093-.496a1.818 1.818 0 011.797-1.537h1.131c7.332 0 13.071-2.977 14.747-11.589.701-3.598.337-6.602-1.516-8.715a7.233 7.233 0 00-2.072-1.596z" fill="#179BD7"/><path d="M403.898 169.071a15.131 15.131 0 00-1.865-.414 23.66 23.66 0 00-3.76-.274h-11.397a1.817 1.817 0 00-1.797 1.538l-2.423 15.355-.07.448a2.07 2.07 0 012.047-1.755h4.267c8.377 0 14.938-3.402 16.855-13.245.057-.292.105-.576.148-.853a10.152 10.152 0 00-1.576-.665 16.382 16.382 0 00-.429-.135z" fill="#222D65"/><path d="M385.079 169.925a1.812 1.812 0 011.797-1.537h11.397c1.349 0 2.61.089 3.76.275.778.122 1.546.305 2.296.547.566.187 1.092.409 1.576.665.571-3.638-.004-6.115-1.971-8.358-2.169-2.47-6.082-3.527-11.091-3.527h-14.54a2.079 2.079 0 00-2.055 1.756l-6.056 38.389a1.25 1.25 0 001.232 1.445h8.977l2.254-14.3 2.424-15.355z" fill="#253B80"/><path d="M367.554 241.066a3.336 3.336 0 011.595.717c.494.386.879.864 1.157 1.434.294.571.439 1.18.439 1.827 0 .818-.208 1.558-.624 2.221-.417.647-1.025 1.164-1.827 1.549-.787.37-1.718.555-2.799.555h-6.013V233.25h5.782c1.095 0 2.029.185 2.798.555.772.354 1.35.84 1.735 1.457.386.616.578 1.31.578 2.081 0 .956-.261 1.75-.786 2.382-.509.617-1.186 1.064-2.035 1.341zm-5.967-.855h3.538c.988 0 1.751-.231 2.29-.694.54-.463.809-1.102.809-1.92 0-.817-.269-1.457-.809-1.919-.539-.463-1.318-.694-2.336-.694h-3.492v5.227zm3.723 7.424c1.049 0 1.867-.247 2.452-.74.586-.494.879-1.18.879-2.059 0-.894-.308-1.596-.926-2.104-.616-.525-1.44-.787-2.474-.787h-3.654v5.69h3.723zm8.98-12.998c-.4 0-.74-.139-1.017-.416a1.384 1.384 0 01-.417-1.018c0-.401.139-.74.417-1.017a1.382 1.382 0 011.017-.417c.387 0 .71.139.971.417.278.277.417.616.417 1.017 0 .401-.139.74-.417 1.018a1.28 1.28 0 01-.971.416zm1.018 2.058v12.674h-2.105v-12.674h2.105zm5.23-4.44v17.114h-2.105v-17.114h2.105zm5.228 0v17.114h-2.104v-17.114h2.104zm4.211 2.382c-.4 0-.74-.139-1.018-.416a1.387 1.387 0 01-.416-1.018c0-.401.139-.74.416-1.017a1.386 1.386 0 011.018-.417c.386 0 .71.139.971.417.278.277.417.616.417 1.017 0 .401-.139.74-.417 1.018a1.281 1.281 0 01-.971.416zm1.017 2.058v12.674h-2.104v-12.674h2.104zm9.301-.231c1.541 0 2.79.471 3.746 1.411.955.925 1.434 2.266 1.434 4.024v7.47h-2.081V242.2c0-1.265-.317-2.228-.948-2.891-.633-.679-1.497-1.018-2.591-1.018-1.11 0-1.997.347-2.659 1.041-.648.694-.972 1.704-.972 3.03v7.007h-2.104v-12.674h2.104v1.804a4.197 4.197 0 011.689-1.503 5.333 5.333 0 012.382-.532zm13.382.023c1.094 0 2.05.239 2.868.717.833.478 1.449 1.079 1.85 1.804v-2.313h2.128v12.952c0 1.156-.248 2.181-.74 3.076a5.245 5.245 0 01-2.128 2.127c-.91.509-1.974.763-3.192.763-1.665 0-3.052-.393-4.162-1.179-1.11-.786-1.766-1.858-1.966-3.215h2.081c.232.771.709 1.388 1.434 1.85.724.478 1.596.717 2.613.717 1.157 0 2.097-.362 2.822-1.087.74-.724 1.11-1.742 1.11-3.052v-2.66c-.416.74-1.034 1.357-1.85 1.85-.818.494-1.774.74-2.868.74-1.126 0-2.151-.277-3.076-.832-.91-.555-1.627-1.334-2.151-2.336-.525-1.002-.786-2.143-.786-3.423 0-1.295.261-2.428.786-3.4.524-.986 1.241-1.75 2.151-2.289.925-.54 1.95-.81 3.076-.81zm4.718 6.522c0-.956-.193-1.788-.578-2.498-.387-.709-.91-1.248-1.573-1.618a4.119 4.119 0 00-2.151-.579c-.786 0-1.503.185-2.15.555-.648.37-1.165.91-1.55 1.619-.386.709-.578 1.542-.578 2.498 0 .971.192 1.819.578 2.544.385.709.902 1.257 1.55 1.642.647.37 1.364.555 2.15.555.787 0 1.504-.185 2.151-.555a4.149 4.149 0 001.573-1.642c.385-.725.578-1.565.578-2.521z" fill="#000" fill-opacity=".6"/></g><g filter="url(#filter6_d_411_839)"><path d="M269.37 534H143.823C132.875 534 124 542.875 124 553.823V679.37c0 10.948 8.875 19.823 19.823 19.823H269.37c10.948 0 19.823-8.875 19.823-19.823V553.823c0-10.948-8.875-19.823-19.823-19.823z" fill="#fff"/><path d="M198.036 611.14l.811-5.149-1.805-.042h-8.623l5.991-37.998a.493.493 0 01.488-.415h14.54c4.827 0 8.157 1.004 9.897 2.987.816.93 1.334 1.902 1.586 2.971.264 1.122.269 2.463.011 4.099l-.018.119v1.048l.814.462a5.71 5.71 0 011.652 1.259c.697.795 1.148 1.805 1.338 3.004.197 1.232.132 2.698-.19 4.359-.371 1.909-.973 3.573-1.785 4.934a10.142 10.142 0 01-2.83 3.1c-1.079.766-2.361 1.347-3.81 1.719-1.404.366-3.006.55-4.762.55h-1.132c-.809 0-1.594.292-2.212.814a3.43 3.43 0 00-1.153 2.059l-.086.463-1.432 9.076-.064.333c-.017.106-.046.158-.091.194a.235.235 0 01-.149.054h-6.986z" fill="#253B80"/><path d="M222.5 577.836a23.99 23.99 0 01-.149.852c-1.916 9.845-8.477 13.246-16.854 13.246h-4.267a2.07 2.07 0 00-2.047 1.755l-2.186 13.852-.617 3.926a1.094 1.094 0 00.621 1.162c.142.066.299.1.456.1h7.565a1.82 1.82 0 001.799-1.535l.075-.384 1.424-9.04.092-.496a1.819 1.819 0 011.798-1.538h1.131c7.331 0 13.07-2.976 14.747-11.589.7-3.598.337-6.602-1.517-8.715a7.229 7.229 0 00-2.071-1.596z" fill="#179BD7"/><path d="M220.494 577.033a14.773 14.773 0 00-1.865-.414 23.648 23.648 0 00-3.759-.275h-11.397a1.816 1.816 0 00-1.797 1.538l-2.424 15.356-.069.448a2.07 2.07 0 012.047-1.755h4.267c8.377 0 14.938-3.403 16.854-13.246.058-.291.106-.575.149-.853a10.334 10.334 0 00-1.576-.665 12.596 12.596 0 00-.43-.134z" fill="#222D65"/><path d="M201.675 577.886a1.818 1.818 0 011.798-1.536h11.396c1.35 0 2.611.088 3.76.274.778.122 1.546.305 2.296.547.567.188 1.092.409 1.576.665.572-3.638-.003-6.115-1.97-8.358-2.169-2.469-6.083-3.527-11.091-3.527h-14.541a2.08 2.08 0 00-2.055 1.757l-6.056 38.388a1.262 1.262 0 00.284 1.007 1.265 1.265 0 00.949.438h8.976l2.255-14.3 2.423-15.355z" fill="#253B80"/><path d="M184.15 649.028a3.316 3.316 0 011.596.717c.494.385.879.863 1.156 1.434.294.57.44 1.179.44 1.827 0 .817-.208 1.557-.625 2.22-.416.647-1.024 1.164-1.827 1.549-.786.37-1.718.555-2.798.555h-6.013v-16.119h5.782c1.095 0 2.028.185 2.798.555.771.355 1.35.84 1.735 1.457a3.84 3.84 0 01.578 2.081c0 .956-.261 1.75-.787 2.382-.508.617-1.186 1.064-2.035 1.342zm-5.967-.856h3.539c.988 0 1.751-.231 2.289-.694.541-.462.81-1.102.81-1.919s-.269-1.457-.81-1.92c-.538-.462-1.318-.694-2.335-.694h-3.493v5.227zm3.724 7.424c1.049 0 1.867-.247 2.451-.74.587-.494.879-1.18.879-2.058 0-.895-.307-1.596-.925-2.105-.616-.524-1.44-.786-2.475-.786h-3.654v5.689h3.724zm8.98-12.998c-.4 0-.74-.138-1.018-.416a1.384 1.384 0 01-.416-1.017c0-.401.139-.74.416-1.018a1.385 1.385 0 011.018-.416c.386 0 .71.138.971.416.278.278.416.617.416 1.018s-.138.74-.416 1.017a1.278 1.278 0 01-.971.416zm1.017 2.059v12.673H189.8v-12.673h2.104zm5.23-4.441v17.114h-2.104v-17.114h2.104zm5.229 0v17.114h-2.105v-17.114h2.105zm4.211 2.382c-.4 0-.741-.138-1.018-.416a1.38 1.38 0 01-.416-1.017c0-.401.138-.74.416-1.018a1.384 1.384 0 011.018-.416c.386 0 .71.138.971.416.277.278.416.617.416 1.018s-.139.74-.416 1.017a1.278 1.278 0 01-.971.416zm1.017 2.059v12.673h-2.104v-12.673h2.104zm9.301-.231c1.541 0 2.79.47 3.746 1.41.955.925 1.434 2.267 1.434 4.024v7.47h-2.081v-7.169c0-1.264-.318-2.228-.949-2.891-.632-.678-1.496-1.017-2.59-1.017-1.11 0-1.997.346-2.659 1.04-.648.694-.972 1.704-.972 3.03v7.007h-2.104v-12.673h2.104v1.804a4.19 4.19 0 011.688-1.504 5.353 5.353 0 012.383-.531zm13.382.023c1.093 0 2.05.239 2.868.717.832.477 1.448 1.079 1.85 1.803v-2.312h2.127v12.951c0 1.156-.247 2.182-.74 3.076a5.24 5.24 0 01-2.127 2.128c-.911.508-1.974.763-3.192.763-1.665 0-3.053-.393-4.163-1.18-1.11-.786-1.766-1.858-1.966-3.214h2.082c.231.771.709 1.387 1.434 1.85.723.478 1.596.717 2.613.717 1.157 0 2.096-.363 2.822-1.087.74-.725 1.11-1.743 1.11-3.053v-2.66c-.417.74-1.034 1.357-1.85 1.85-.818.494-1.775.741-2.868.741-1.127 0-2.151-.278-3.076-.833-.91-.555-1.627-1.334-2.151-2.336-.525-1.002-.786-2.143-.786-3.423 0-1.295.261-2.428.786-3.399.524-.987 1.241-1.75 2.151-2.29.925-.54 1.949-.809 3.076-.809zm4.718 6.521c0-.956-.193-1.788-.578-2.497-.387-.709-.911-1.249-1.573-1.619a4.123 4.123 0 00-2.151-.578c-.786 0-1.503.185-2.151.555-.647.37-1.164.909-1.549 1.619-.387.709-.578 1.541-.578 2.497 0 .972.191 1.82.578 2.544.385.709.902 1.257 1.549 1.642.648.37 1.365.555 2.151.555.786 0 1.503-.185 2.151-.555a4.156 4.156 0 001.573-1.642c.385-.724.578-1.565.578-2.521z" fill="#000" fill-opacity=".6"/></g><g filter="url(#filter7_d_411_839)"><path d="M449.47 492.768H323.923c-10.948 0-19.824 8.875-19.824 19.823v125.547c0 10.948 8.876 19.823 19.824 19.823H449.47c10.948 0 19.823-8.875 19.823-19.823V512.591c0-10.948-8.875-19.823-19.823-19.823z" fill="#fff"/><mask id="b" style="mask-type:luminance" maskUnits="userSpaceOnUse" x="360" y="531" width="54" height="35"><path d="M413.127 531.075h-52.862v34.064h52.862v-34.064z" fill="#fff"/></mask><g mask="url(#b)"><path d="M387.405 543.046l6.936 8.375 5.863-10.045c-.449-1.398-3.738-10.301-14.577-10.301-10.49 0-15.312 9.391-14.127 16.75-.991-.827-10.789-.274-11.23 8.207h19.187l7.948-12.986zm16.679-1.262l-10.293 17.672-7.444-8.373-4.869 8.501H360.66c1.829 5.952 9.148 5.499 9.148 5.499h27.664s15.65.423 15.65-12.181c0-8.055-5.248-10.442-9.039-11.118h.001z" fill="#2D9EEB"/></g><path d="M358.013 593.739v16.004h-2.104v-11.934l-5.319 11.934h-1.48l-5.343-11.957v11.957h-2.104v-16.004h2.266l5.921 13.229 5.92-13.229h2.243zm2.321 9.621c0-1.295.261-2.428.787-3.4.523-.988 1.24-1.751 2.151-2.289.925-.541 1.949-.81 3.075-.81 1.111 0 2.074.238 2.891.717.816.478 1.426 1.079 1.827 1.804v-2.313h2.128v12.674h-2.128v-2.359c-.416.74-1.04 1.356-1.873 1.85-.818.478-1.774.717-2.868.717-1.126 0-2.144-.277-3.052-.832-.911-.555-1.628-1.335-2.151-2.336-.526-1.003-.787-2.145-.787-3.423zm10.731.023c0-.956-.193-1.789-.578-2.498-.386-.71-.91-1.249-1.572-1.619a4.123 4.123 0 00-2.151-.578c-.787 0-1.504.185-2.151.555-.648.37-1.165.909-1.55 1.619-.386.709-.578 1.541-.578 2.498 0 .971.192 1.819.578 2.544a4.198 4.198 0 001.55 1.642c.647.37 1.364.555 2.151.555.786 0 1.503-.185 2.151-.555a4.16 4.16 0 001.572-1.642c.385-.725.578-1.566.578-2.521zm11.395-6.545c1.543 0 2.792.469 3.747 1.411.956.925 1.434 2.266 1.434 4.024v7.47h-2.082v-7.169c0-1.266-.315-2.229-.948-2.891-.631-.679-1.495-1.018-2.59-1.018-1.11 0-1.996.347-2.66 1.041-.647.694-.971 1.703-.971 3.029v7.008h-2.105v-12.674h2.105v1.804a4.2 4.2 0 011.688-1.503 5.348 5.348 0 012.382-.532zm7.371 6.522c0-1.295.261-2.428.787-3.4.523-.988 1.24-1.751 2.15-2.289.926-.541 1.95-.81 3.076-.81 1.11 0 2.074.238 2.891.717.816.478 1.426 1.079 1.827 1.804v-2.313h2.128v12.674h-2.128v-2.359c-.416.74-1.04 1.356-1.873 1.85-.818.478-1.774.717-2.868.717-1.126 0-2.144-.277-3.053-.832-.91-.555-1.627-1.335-2.15-2.336-.526-1.003-.787-2.145-.787-3.423zm10.731.023c0-.956-.193-1.789-.578-2.498-.386-.71-.91-1.249-1.573-1.619a4.117 4.117 0 00-2.15-.578c-.787 0-1.504.185-2.151.555-.648.37-1.165.909-1.55 1.619-.386.709-.578 1.541-.578 2.498 0 .971.192 1.819.578 2.544a4.198 4.198 0 001.55 1.642c.647.37 1.364.555 2.151.555.786 0 1.503-.185 2.15-.555a4.155 4.155 0 001.573-1.642c.385-.725.578-1.566.578-2.521zm10.447-6.522c1.095 0 2.052.238 2.868.717.832.478 1.45 1.079 1.85 1.804v-2.313h2.128v12.952c0 1.156-.246 2.18-.74 3.075a5.242 5.242 0 01-2.128 2.128c-.909.509-1.972.763-3.192.763-1.665 0-3.052-.393-4.162-1.179-1.111-.786-1.765-1.859-1.966-3.215h2.081c.231.77.711 1.388 1.434 1.85.725.478 1.596.717 2.613.717 1.157 0 2.098-.363 2.822-1.087.74-.725 1.11-1.743 1.11-3.052v-2.66c-.416.74-1.032 1.356-1.85 1.85-.816.492-1.773.74-2.868.74-1.125 0-2.151-.277-3.076-.832-.908-.555-1.625-1.335-2.151-2.336-.523-1.003-.786-2.145-.786-3.423 0-1.295.263-2.428.786-3.4.526-.988 1.243-1.751 2.151-2.289.925-.541 1.951-.81 3.076-.81zm4.718 6.522c0-.956-.192-1.789-.578-2.498-.385-.71-.909-1.249-1.573-1.619a4.118 4.118 0 00-2.151-.578c-.786 0-1.503.185-2.15.555-.648.37-1.163.909-1.55 1.619-.385.709-.578 1.541-.578 2.498 0 .971.193 1.819.578 2.544.387.709.902 1.255 1.55 1.642.647.37 1.364.555 2.15.555.787 0 1.504-.185 2.151-.555a4.142 4.142 0 001.573-1.642c.386-.725.578-1.566.578-2.521zm16.785-.463c0 .4-.023.825-.069 1.272h-10.13c.078 1.249.502 2.227 1.272 2.938.787.693 1.735 1.04 2.845 1.04.91 0 1.665-.208 2.266-.624a3.405 3.405 0 001.295-1.711h2.267a5.512 5.512 0 01-2.035 2.983c-1.018.755-2.282 1.133-3.793 1.133-1.203 0-2.281-.271-3.238-.809a5.792 5.792 0 01-2.22-2.29c-.539-1.003-.81-2.159-.81-3.469 0-1.312.263-2.46.787-3.446.525-.988 1.257-1.743 2.197-2.266.956-.541 2.052-.81 3.284-.81 1.203 0 2.266.261 3.191.787a5.325 5.325 0 012.128 2.173c.509.909.763 1.943.763 3.099zm-2.174-.439c0-.803-.176-1.488-.532-2.058a3.319 3.319 0 00-1.457-1.318c-.601-.309-1.272-.463-2.012-.463-1.063 0-1.972.339-2.729 1.018-.74.677-1.163 1.618-1.272 2.821h8.002z" fill="#000" fill-opacity=".6"/></g><g filter="url(#filter8_d_411_839)"><path d="M269.409 160.729H143.862c-10.948 0-19.823 8.875-19.823 19.823v125.547c0 10.948 8.875 19.824 19.823 19.824h125.547c10.948 0 19.823-8.876 19.823-19.824V180.552c0-10.948-8.875-19.823-19.823-19.823z" fill="#fff"/><path d="M183.809 235.897h8.409v-20.424l-12.014-9.011v25.831a3.603 3.603 0 003.605 3.604z" fill="#4285F4"/><path d="M221.052 235.897h8.41a3.603 3.603 0 003.604-3.604v-25.831l-12.014 9.011v20.424z" fill="#34A853"/><path d="M221.052 199.855v15.618l12.014-9.01v-4.806c0-4.454-5.085-6.998-8.65-4.325l-3.364 2.523z" fill="#FBBC04"/><path fill-rule="evenodd" clip-rule="evenodd" d="M192.219 215.473v-15.618l14.416 10.812 14.417-10.812v15.618l-14.417 10.813-14.416-10.813z" fill="#EA4335"/><path d="M180.204 201.657v4.806l12.014 9.01v-15.618l-3.363-2.523c-3.566-2.673-8.651-.129-8.651 4.325z" fill="#C5221F"/><path d="M162.735 266.091v5.389h5.874v1.734h-5.874v5.551h6.568v1.734h-8.673v-16.142h8.673v1.734h-6.568zm24.53 1.503c.987 0 1.866.209 2.637.625.771.401 1.38 1.009 1.827 1.827.447.818.671 1.812.671 2.983v7.47h-2.082v-7.169c0-1.264-.316-2.228-.948-2.891-.617-.679-1.457-1.018-2.521-1.018-1.095 0-1.966.356-2.613 1.064-.648.694-.972 1.703-.972 3.03v6.984h-2.081v-7.169c0-1.264-.316-2.228-.948-2.891-.617-.679-1.457-1.018-2.521-1.018-1.095 0-1.966.356-2.613 1.064-.648.694-.972 1.703-.972 3.03v6.984h-2.104v-12.673h2.104v1.827a4.199 4.199 0 011.665-1.527 5.147 5.147 0 012.336-.532c1.064 0 2.005.24 2.822.717.817.478 1.426 1.18 1.827 2.105a4.152 4.152 0 011.757-2.081c.818-.494 1.727-.741 2.729-.741zm7.338 6.522c0-1.295.262-2.428.786-3.399.525-.987 1.242-1.75 2.151-2.29.925-.54 1.951-.809 3.076-.809 1.11 0 2.074.239 2.891.717.817.477 1.426 1.078 1.827 1.803v-2.312h2.128v12.673h-2.128v-2.359c-.416.74-1.041 1.357-1.873 1.851-.817.477-1.773.717-2.868.717-1.126 0-2.143-.278-3.053-.833-.909-.555-1.626-1.333-2.151-2.336-.524-1.003-.786-2.142-.786-3.423zm10.731.023c0-.956-.193-1.789-.578-2.497-.386-.709-.91-1.249-1.573-1.619a4.128 4.128 0 00-2.151-.578c-.786 0-1.503.185-2.151.555-.647.37-1.163.91-1.549 1.619-.385.708-.578 1.541-.578 2.497 0 .972.193 1.819.578 2.544.386.709.902 1.257 1.549 1.642.648.37 1.365.555 2.151.555.787 0 1.504-.185 2.151-.555a4.142 4.142 0 001.573-1.642c.385-.725.578-1.564.578-2.521zm6.309-8.372c-.401 0-.74-.138-1.018-.416a1.384 1.384 0 01-.416-1.017c0-.402.139-.741.416-1.018a1.384 1.384 0 011.018-.416c.385 0 .709.138.971.416.278.277.416.616.416 1.018 0 .401-.138.74-.416 1.017a1.28 1.28 0 01-.971.416zm1.017 2.059v12.673h-2.104v-12.673h2.104zm5.229-4.441v17.114h-2.104v-17.114h2.104zm4.211 2.382a1.38 1.38 0 01-1.017-.416 1.38 1.38 0 01-.416-1.017c0-.402.138-.741.416-1.018a1.38 1.38 0 011.017-.416c.386 0 .71.138.972.416.277.277.416.616.416 1.018 0 .401-.139.74-.416 1.017a1.281 1.281 0 01-.972.416zm1.018 2.059v12.673h-2.105v-12.673h2.105zm9.299-.232c1.542 0 2.791.471 3.747 1.411.956.925 1.434 2.267 1.434 4.024v7.47h-2.082v-7.169c0-1.264-.316-2.228-.948-2.891-.632-.679-1.495-1.018-2.59-1.018-1.11 0-1.997.347-2.66 1.041-.647.694-.971 1.703-.971 3.03v7.007h-2.105v-12.673h2.105v1.804a4.203 4.203 0 011.688-1.504 5.342 5.342 0 012.382-.532zm13.383.024c1.094 0 2.05.239 2.867.717.833.477 1.45 1.078 1.851 1.803v-2.312h2.127v12.951c0 1.156-.246 2.182-.74 3.076a5.225 5.225 0 01-2.127 2.127c-.91.509-1.974.764-3.192.764-1.665 0-3.053-.393-4.163-1.18-1.11-.786-1.765-1.858-1.966-3.214h2.082c.231.771.709 1.387 1.434 1.85.724.477 1.595.717 2.613.717 1.156 0 2.097-.362 2.822-1.087.74-.726 1.11-1.743 1.11-3.053v-2.66c-.417.74-1.033 1.357-1.851 1.85-.817.494-1.773.741-2.867.741-1.126 0-2.151-.278-3.076-.833-.91-.555-1.627-1.333-2.151-2.336-.524-1.003-.786-2.142-.786-3.423 0-1.295.262-2.428.786-3.399.524-.987 1.241-1.75 2.151-2.29.925-.54 1.95-.809 3.076-.809zm4.718 6.521c0-.956-.193-1.789-.579-2.497-.385-.709-.909-1.249-1.572-1.619a4.133 4.133 0 00-2.151-.578c-.786 0-1.503.185-2.151.555-.647.37-1.164.91-1.549 1.619-.386.708-.579 1.541-.579 2.497 0 .972.193 1.819.579 2.544.385.709.902 1.257 1.549 1.642.648.37 1.365.555 2.151.555.786 0 1.503-.185 2.151-.555a4.133 4.133 0 001.572-1.642c.386-.725.579-1.564.579-2.521z" fill="#000" fill-opacity=".6"/></g><g filter="url(#filter9_d_411_839)"><path d="M636.37 597H510.823C499.875 597 491 605.875 491 616.823V742.37c0 10.948 8.875 19.823 19.823 19.823H636.37c10.948 0 19.823-8.875 19.823-19.823V616.823c0-10.948-8.875-19.823-19.823-19.823z" fill="#fff"/><path d="M550.77 672.168h8.41v-20.424l-12.014-9.011v25.83a3.603 3.603 0 003.604 3.605z" fill="#4285F4"/><path d="M588.014 672.168h8.41a3.603 3.603 0 003.604-3.605v-25.83l-12.014 9.011v20.424z" fill="#34A853"/><path d="M588.014 636.126v15.618l12.014-9.011v-4.805c0-4.454-5.085-6.998-8.65-4.325l-3.364 2.523z" fill="#FBBC04"/><path fill-rule="evenodd" clip-rule="evenodd" d="M559.18 651.744v-15.619l14.416 10.813 14.417-10.813v15.619l-14.417 10.812-14.416-10.812z" fill="#EA4335"/><path d="M547.166 637.928v4.805l12.014 9.011v-15.618l-3.364-2.523c-3.566-2.673-8.65-.129-8.65 4.325z" fill="#C5221F"/><path d="M529.696 702.362v5.389h5.875v1.734h-5.875v5.551h6.568v1.734h-8.672v-16.143h8.672v1.735h-6.568zm24.531 1.503c.987 0 1.866.208 2.637.625.771.401 1.379 1.009 1.827 1.827.447.817.67 1.812.67 2.983v7.47h-2.081v-7.169c0-1.264-.316-2.229-.948-2.891-.617-.679-1.457-1.018-2.521-1.018-1.095 0-1.966.355-2.614 1.064-.647.694-.971 1.703-.971 3.03v6.984h-2.081v-7.169c0-1.264-.316-2.229-.949-2.891-.616-.679-1.457-1.018-2.52-1.018-1.095 0-1.966.355-2.614 1.064-.647.694-.971 1.703-.971 3.03v6.984h-2.105v-12.674h2.105v1.828a4.178 4.178 0 011.665-1.527 5.144 5.144 0 012.336-.532c1.064 0 2.004.24 2.821.717.818.478 1.427 1.18 1.827 2.105a4.165 4.165 0 011.758-2.082c.817-.494 1.727-.74 2.729-.74zm7.338 6.522c0-1.295.262-2.428.786-3.4.524-.986 1.241-1.749 2.151-2.289.925-.54 1.95-.81 3.076-.81 1.11 0 2.074.24 2.891.717.817.478 1.426 1.079 1.827 1.804v-2.313h2.127v12.674h-2.127v-2.359c-.417.74-1.041 1.356-1.874 1.85-.817.478-1.773.717-2.867.717-1.126 0-2.143-.277-3.053-.832-.91-.555-1.627-1.333-2.151-2.336-.524-1.003-.786-2.143-.786-3.423zm10.731.023c0-.956-.193-1.789-.579-2.498-.385-.708-.909-1.248-1.572-1.618a4.134 4.134 0 00-2.151-.579c-.786 0-1.503.185-2.151.555-.647.37-1.164.911-1.549 1.619-.386.709-.579 1.542-.579 2.498 0 .971.193 1.819.579 2.544.385.709.902 1.257 1.549 1.642.648.37 1.365.555 2.151.555.786 0 1.503-.185 2.151-.555a4.133 4.133 0 001.572-1.642c.386-.725.579-1.564.579-2.521zm6.308-8.372c-.401 0-.74-.139-1.017-.416a1.383 1.383 0 01-.417-1.018c0-.401.139-.74.417-1.017a1.38 1.38 0 011.017-.417c.386 0 .71.139.972.417.277.277.416.616.416 1.017 0 .402-.139.74-.416 1.018a1.285 1.285 0 01-.972.416zm1.018 2.058v12.674h-2.105v-12.674h2.105zm5.229-4.44v17.114h-2.105v-17.114h2.105zm4.211 2.382c-.401 0-.74-.139-1.018-.416a1.386 1.386 0 01-.416-1.018c0-.401.139-.74.416-1.017a1.384 1.384 0 011.018-.417c.385 0 .709.139.971.417.278.277.417.616.417 1.017 0 .402-.139.74-.417 1.018a1.284 1.284 0 01-.971.416zm1.018 2.058v12.674h-2.105v-12.674h2.105zm9.299-.231c1.542 0 2.79.471 3.746 1.411.956.925 1.434 2.266 1.434 4.024v7.47h-2.081v-7.169c0-1.264-.316-2.229-.948-2.891-.632-.679-1.496-1.018-2.591-1.018-1.11 0-1.996.347-2.659 1.041-.648.694-.971 1.703-.971 3.03v7.007h-2.105v-12.674h2.105v1.804a4.2 4.2 0 011.688-1.503 5.34 5.34 0 012.382-.532zm13.382.023c1.095 0 2.051.24 2.868.717.833.478 1.449 1.079 1.85 1.804v-2.313h2.128v12.952c0 1.156-.247 2.182-.74 3.076a5.24 5.24 0 01-2.128 2.127c-.909.509-1.973.763-3.191.763-1.665 0-3.053-.393-4.163-1.179-1.11-.786-1.766-1.858-1.966-3.215h2.081c.232.772.71 1.388 1.434 1.85.725.478 1.596.717 2.614.717 1.156 0 2.096-.361 2.821-1.087.74-.725 1.11-1.742 1.11-3.052v-2.66c-.416.74-1.033 1.356-1.85 1.85-.817.494-1.773.74-2.868.74-1.125 0-2.15-.277-3.076-.832-.909-.555-1.626-1.333-2.15-2.336-.525-1.003-.787-2.143-.787-3.423 0-1.295.262-2.428.787-3.4.524-.986 1.241-1.749 2.15-2.289.926-.54 1.951-.81 3.076-.81zm4.718 6.522c0-.956-.192-1.789-.578-2.498-.385-.708-.91-1.248-1.573-1.618a4.127 4.127 0 00-2.15-.579c-.787 0-1.504.185-2.151.555-.648.37-1.164.911-1.55 1.619-.385.709-.578 1.542-.578 2.498 0 .971.193 1.819.578 2.544.386.709.902 1.257 1.55 1.642.647.37 1.364.555 2.151.555.786 0 1.503-.185 2.15-.555a4.135 4.135 0 001.573-1.642c.386-.725.578-1.564.578-2.521z" fill="#000" fill-opacity=".6"/></g><g filter="url(#filter10_d_411_839)"><path d="M269.409 347.398H143.862c-10.948 0-19.823 8.875-19.823 19.823v125.547c0 10.948 8.875 19.823 19.823 19.823h125.547c10.948 0 19.823-8.875 19.823-19.823V367.221c0-10.948-8.875-19.823-19.823-19.823z" fill="#fff"/><path d="M193.42 380.235l-13.215 8.478 13.215 8.354 13.215-8.354-13.215-8.478zm26.431 0l-13.216 8.478 13.216 8.354 13.215-8.354-13.215-8.478zm-39.646 25.309l13.215 8.478 13.215-8.478-13.215-8.477-13.215 8.477zm39.646-8.477l-13.216 8.477 13.216 8.478 13.215-8.478-13.215-8.477zm-26.431 19.697l13.215 8.478 13.216-8.478-13.216-8.354-13.215 8.354z" fill="#0062FF"/><path d="M169.406 472.124c-1.064 0-2.02-.185-2.868-.555-.832-.385-1.488-.909-1.966-1.573-.478-.677-.724-1.457-.74-2.336h2.244c.077.757.385 1.396.925 1.92.555.509 1.356.763 2.405.763 1.002 0 1.788-.246 2.359-.74.586-.509.879-1.156.879-1.943 0-.616-.17-1.116-.509-1.503a3.27 3.27 0 00-1.272-.879c-.509-.2-1.195-.416-2.058-.647-1.064-.278-1.92-.555-2.568-.833a4.27 4.27 0 01-1.642-1.295c-.447-.601-.67-1.403-.67-2.405 0-.879.223-1.657.67-2.336.447-.677 1.072-1.203 1.874-1.573.817-.37 1.75-.555 2.798-.555 1.511 0 2.744.378 3.7 1.133.972.757 1.519 1.758 1.642 3.007h-2.312c-.077-.616-.401-1.156-.972-1.619-.57-.477-1.326-.717-2.266-.717-.879 0-1.596.231-2.151.694-.555.448-.832 1.08-.832 1.896 0 .587.161 1.064.485 1.434.339.37.748.656 1.226.856a26.47 26.47 0 002.058.647c1.064.294 1.92.587 2.567.879a4.148 4.148 0 011.666 1.319c.462.586.693 1.387.693 2.405 0 .786-.208 1.526-.624 2.22-.416.694-1.033 1.257-1.85 1.688-.817.433-1.781.648-2.891.648zm10.567-11.101v7.47c0 .618.131 1.057.393 1.318.262.248.717.37 1.365.37h1.549v1.781h-1.896c-1.172 0-2.051-.269-2.637-.81-.586-.538-.879-1.425-.879-2.659v-7.47h-1.642v-1.735h1.642v-3.191h2.105v3.191h3.307v1.735h-3.307zm10.922 11.147c-1.187 0-2.267-.269-3.238-.809a5.87 5.87 0 01-2.266-2.29c-.54-1.001-.81-2.157-.81-3.469 0-1.295.278-2.435.833-3.423.57-1.001 1.341-1.764 2.313-2.289.971-.539 2.058-.81 3.26-.81 1.203 0 2.29.271 3.261.81a5.687 5.687 0 012.29 2.266c.57.988.856 2.136.856 3.446 0 1.312-.293 2.468-.879 3.469a5.945 5.945 0 01-2.336 2.29c-.987.54-2.081.809-3.284.809zm0-1.85c.755 0 1.465-.177 2.128-.532.663-.354 1.194-.886 1.595-1.596.417-.709.625-1.572.625-2.59 0-1.018-.201-1.88-.601-2.59-.401-.709-.926-1.233-1.573-1.573a4.33 4.33 0 00-2.105-.532 4.37 4.37 0 00-2.127.532c-.633.34-1.141.864-1.527 1.573-.385.71-.578 1.572-.578 2.59 0 1.034.185 1.905.555 2.613.385.711.894 1.243 1.526 1.596.633.34 1.326.509 2.082.509zm10.908-8.973a4.073 4.073 0 011.572-1.689c.694-.399 1.534-.601 2.521-.601v2.174h-.555c-2.359 0-3.538 1.28-3.538 3.839v6.892h-2.105v-12.674h2.105v2.059zm5.274 4.232c0-1.295.262-2.429.786-3.4.524-.986 1.241-1.749 2.151-2.289.925-.539 1.95-.81 3.076-.81 1.11 0 2.073.24 2.891.717.817.479 1.426 1.08 1.827 1.804v-2.313h2.127v12.674h-2.127v-2.359c-.417.74-1.041 1.358-1.874 1.85-.817.479-1.773.717-2.867.717-1.126 0-2.143-.278-3.053-.833-.91-.555-1.627-1.333-2.151-2.335-.524-1.001-.786-2.143-.786-3.423zm10.731.023c0-.955-.193-1.787-.578-2.498-.386-.708-.91-1.249-1.573-1.619a4.133 4.133 0 00-2.151-.578c-.786 0-1.503.185-2.151.555-.647.37-1.164.91-1.549 1.619-.386.71-.578 1.543-.578 2.498 0 .971.192 1.82.578 2.544.385.71.902 1.257 1.549 1.642.648.37 1.365.555 2.151.555.786 0 1.503-.185 2.151-.555a4.136 4.136 0 001.573-1.642c.385-.724.578-1.565.578-2.521zm10.448-6.522c1.095 0 2.051.24 2.868.717.832.479 1.449 1.08 1.85 1.804v-2.313h2.128v12.951c0 1.157-.247 2.183-.74 3.076a5.236 5.236 0 01-2.128 2.128c-.91.509-1.974.763-3.192.763-1.665 0-3.052-.393-4.163-1.179-1.11-.787-1.765-1.857-1.965-3.215h2.081c.231.771.709 1.388 1.434 1.85.725.479 1.596.717 2.613.717 1.157 0 2.097-.362 2.822-1.087.74-.723 1.11-1.741 1.11-3.053v-2.659c-.416.74-1.033 1.358-1.85 1.85-.817.494-1.773.74-2.868.74-1.125 0-2.151-.278-3.076-.833-.909-.555-1.626-1.333-2.151-2.335-.524-1.001-.786-2.143-.786-3.423 0-1.295.262-2.429.786-3.4.525-.986 1.242-1.749 2.151-2.289.925-.539 1.951-.81 3.076-.81zm4.718 6.522c0-.955-.193-1.787-.578-2.498-.386-.708-.91-1.249-1.573-1.619a4.128 4.128 0 00-2.151-.578c-.786 0-1.503.185-2.15.555-.648.37-1.164.91-1.55 1.619-.385.71-.578 1.543-.578 2.498 0 .971.193 1.82.578 2.544.386.71.902 1.257 1.55 1.642.647.37 1.364.555 2.15.555.787 0 1.504-.185 2.151-.555a4.136 4.136 0 001.573-1.642c.385-.724.578-1.565.578-2.521zm16.785-.463c0 .402-.023.826-.069 1.272h-10.13c.077 1.249.501 2.229 1.272 2.938.787.693 1.735 1.04 2.845 1.04.91 0 1.665-.208 2.266-.624a3.392 3.392 0 001.295-1.712h2.267a5.497 5.497 0 01-2.035 2.984c-1.018.756-2.282 1.133-3.793 1.133-1.203 0-2.282-.269-3.238-.809-.94-.539-1.68-1.302-2.22-2.29-.54-1.001-.81-2.157-.81-3.469 0-1.31.263-2.458.787-3.446.524-.986 1.256-1.741 2.197-2.266.956-.539 2.05-.81 3.284-.81 1.202 0 2.266.263 3.191.786a5.358 5.358 0 012.128 2.174c.509.911.763 1.943.763 3.099zm-2.174-.439c0-.801-.177-1.487-.532-2.058a3.356 3.356 0 00-1.457-1.319 4.36 4.36 0 00-2.012-.462c-1.064 0-1.973.34-2.729 1.017-.74.679-1.164 1.619-1.272 2.822h8.002z" fill="#000" fill-opacity=".6"/></g></g></g><path fill="url(#paint0_linear_411_839)" d="M0 127h781v626H0z"/></g><defs><filter id="filter0_d_411_839" x="470.768" y="215.066" width="205.193" height="205.193" filterUnits="userSpaceOnUse" color-interpolation-filters="sRGB"><feFlood flood-opacity="0" result="BackgroundImageFix"/><feColorMatrix in="SourceAlpha" values="0 0 0 0 0 0 0 0 0 0 0 0 0 0 0 0 0 0 127 0" result="hardAlpha"/><feOffset/><feGaussianBlur stdDeviation="10"/><feComposite in2="hardAlpha" operator="out"/><feColorMatrix values="0 0 0 0 0 0 0 0 0 0 0 0 0 0 0 0 0 0 0.08 0"/><feBlend in2="BackgroundImageFix" result="effect1_dropShadow_411_839"/><feBlend in="SourceGraphic" in2="effect1_dropShadow_411_839" result="shape"/></filter><filter id="filter1_d_411_839" x="284" y="656" width="205.193" height="205.193" filterUnits="userSpaceOnUse" color-interpolation-filters="sRGB"><feFlood flood-opacity="0" result="BackgroundImageFix"/><feColorMatrix in="SourceAlpha" values="0 0 0 0 0 0 0 0 0 0 0 0 0 0 0 0 0 0 127 0" result="hardAlpha"/><feOffset/><feGaussianBlur stdDeviation="10"/><feComposite in2="hardAlpha" operator="out"/><feColorMatrix values="0 0 0 0 0 0 0 0 0 0 0 0 0 0 0 0 0 0 0.08 0"/><feBlend in2="BackgroundImageFix" result="effect1_dropShadow_411_839"/><feBlend in="SourceGraphic" in2="effect1_dropShadow_411_839" result="shape"/></filter><filter id="filter2_d_411_839" x="287.403" y="289.403" width="205.193" height="205.193" filterUnits="userSpaceOnUse" color-interpolation-filters="sRGB"><feFlood flood-opacity="0" result="BackgroundImageFix"/><feColorMatrix in="SourceAlpha" values="0 0 0 0 0 0 0 0 0 0 0 0 0 0 0 0 0 0 127 0" result="hardAlpha"/><feOffset/><feGaussianBlur stdDeviation="10"/><feComposite in2="hardAlpha" operator="out"/><feColorMatrix values="0 0 0 0 0 0 0 0 0 0 0 0 0 0 0 0 0 0 0.08 0"/><feBlend in2="BackgroundImageFix" result="effect1_dropShadow_411_839"/><feBlend in="SourceGraphic" in2="effect1_dropShadow_411_839" result="shape"/></filter><filter id="filter3_d_411_839" x="470.768" y="398.431" width="205.193" height="205.193" filterUnits="userSpaceOnUse" color-interpolation-filters="sRGB"><feFlood flood-opacity="0" result="BackgroundImageFix"/><feColorMatrix in="SourceAlpha" values="0 0 0 0 0 0 0 0 0 0 0 0 0 0 0 0 0 0 127 0" result="hardAlpha"/><feOffset/><feGaussianBlur stdDeviation="10"/><feComposite in2="hardAlpha" operator="out"/><feColorMatrix values="0 0 0 0 0 0 0 0 0 0 0 0 0 0 0 0 0 0 0.08 0"/><feBlend in2="BackgroundImageFix" result="effect1_dropShadow_411_839"/><feBlend in="SourceGraphic" in2="effect1_dropShadow_411_839" result="shape"/></filter><filter id="filter4_d_411_839" x="104" y="697" width="205.193" height="205.193" filterUnits="userSpaceOnUse" color-interpolation-filters="sRGB"><feFlood flood-opacity="0" result="BackgroundImageFix"/><feColorMatrix in="SourceAlpha" values="0 0 0 0 0 0 0 0 0 0 0 0 0 0 0 0 0 0 127 0" result="hardAlpha"/><feOffset/><feGaussianBlur stdDeviation="10"/><feComposite in2="hardAlpha" operator="out"/><feColorMatrix values="0 0 0 0 0 0 0 0 0 0 0 0 0 0 0 0 0 0 0.08 0"/><feBlend in2="BackgroundImageFix" result="effect1_dropShadow_411_839"/><feBlend in="SourceGraphic" in2="effect1_dropShadow_411_839" result="shape"/></filter><filter id="filter5_d_411_839" x="287.403" y="106.039" width="205.193" height="205.193" filterUnits="userSpaceOnUse" color-interpolation-filters="sRGB"><feFlood flood-opacity="0" result="BackgroundImageFix"/><feColorMatrix in="SourceAlpha" values="0 0 0 0 0 0 0 0 0 0 0 0 0 0 0 0 0 0 127 0" result="hardAlpha"/><feOffset/><feGaussianBlur stdDeviation="10"/><feComposite in2="hardAlpha" operator="out"/><feColorMatrix values="0 0 0 0 0 0 0 0 0 0 0 0 0 0 0 0 0 0 0.08 0"/><feBlend in2="BackgroundImageFix" result="effect1_dropShadow_411_839"/><feBlend in="SourceGraphic" in2="effect1_dropShadow_411_839" result="shape"/></filter><filter id="filter6_d_411_839" x="104" y="514" width="205.193" height="205.193" filterUnits="userSpaceOnUse" color-interpolation-filters="sRGB"><feFlood flood-opacity="0" result="BackgroundImageFix"/><feColorMatrix in="SourceAlpha" values="0 0 0 0 0 0 0 0 0 0 0 0 0 0 0 0 0 0 127 0" result="hardAlpha"/><feOffset/><feGaussianBlur stdDeviation="10"/><feComposite in2="hardAlpha" operator="out"/><feColorMatrix values="0 0 0 0 0 0 0 0 0 0 0 0 0 0 0 0 0 0 0.08 0"/><feBlend in2="BackgroundImageFix" result="effect1_dropShadow_411_839"/><feBlend in="SourceGraphic" in2="effect1_dropShadow_411_839" result="shape"/></filter><filter id="filter7_d_411_839" x="284.099" y="472.768" width="205.193" height="205.193" filterUnits="userSpaceOnUse" color-interpolation-filters="sRGB"><feFlood flood-opacity="0" result="BackgroundImageFix"/><feColorMatrix in="SourceAlpha" values="0 0 0 0 0 0 0 0 0 0 0 0 0 0 0 0 0 0 127 0" result="hardAlpha"/><feOffset/><feGaussianBlur stdDeviation="10"/><feComposite in2="hardAlpha" operator="out"/><feColorMatrix values="0 0 0 0 0 0 0 0 0 0 0 0 0 0 0 0 0 0 0.08 0"/><feBlend in2="BackgroundImageFix" result="effect1_dropShadow_411_839"/><feBlend in="SourceGraphic" in2="effect1_dropShadow_411_839" result="shape"/></filter><filter id="filter8_d_411_839" x="104.039" y="140.729" width="205.193" height="205.193" filterUnits="userSpaceOnUse" color-interpolation-filters="sRGB"><feFlood flood-opacity="0" result="BackgroundImageFix"/><feColorMatrix in="SourceAlpha" values="0 0 0 0 0 0 0 0 0 0 0 0 0 0 0 0 0 0 127 0" result="hardAlpha"/><feOffset/><feGaussianBlur stdDeviation="10"/><feComposite in2="hardAlpha" operator="out"/><feColorMatrix values="0 0 0 0 0 0 0 0 0 0 0 0 0 0 0 0 0 0 0.08 0"/><feBlend in2="BackgroundImageFix" result="effect1_dropShadow_411_839"/><feBlend in="SourceGraphic" in2="effect1_dropShadow_411_839" result="shape"/></filter><filter id="filter9_d_411_839" x="471" y="577" width="205.193" height="205.193" filterUnits="userSpaceOnUse" color-interpolation-filters="sRGB"><feFlood flood-opacity="0" result="BackgroundImageFix"/><feColorMatrix in="SourceAlpha" values="0 0 0 0 0 0 0 0 0 0 0 0 0 0 0 0 0 0 127 0" result="hardAlpha"/><feOffset/><feGaussianBlur stdDeviation="10"/><feComposite in2="hardAlpha" operator="out"/><feColorMatrix values="0 0 0 0 0 0 0 0 0 0 0 0 0 0 0 0 0 0 0.08 0"/><feBlend in2="BackgroundImageFix" result="effect1_dropShadow_411_839"/><feBlend in="SourceGraphic" in2="effect1_dropShadow_411_839" result="shape"/></filter><filter id="filter10_d_411_839" x="104.039" y="327.398" width="205.193" height="205.193" filterUnits="userSpaceOnUse" color-interpolation-filters="sRGB"><feFlood flood-opacity="0" result="BackgroundImageFix"/><feColorMatrix in="SourceAlpha" values="0 0 0 0 0 0 0 0 0 0 0 0 0 0 0 0 0 0 127 0" result="hardAlpha"/><feOffset/><feGaussianBlur stdDeviation="10"/><feComposite in2="hardAlpha" operator="out"/><feColorMatrix values="0 0 0 0 0 0 0 0 0 0 0 0 0 0 0 0 0 0 0.08 0"/><feBlend in2="BackgroundImageFix" result="effect1_dropShadow_411_839"/><feBlend in="SourceGraphic" in2="effect1_dropShadow_411_839" result="shape"/></filter><clipPath id="clip0_411_839"><path fill="#fff" d="M0 0h780v728H0z"/></clipPath><clipPath id="clip1_411_839"><rect x="46" y="16" width="688" height="712" rx="16" fill="#fff"/></clipPath><clipPath id="clip2_411_839"><path fill="#fff" transform="translate(91 93)" d="M0 0h598v650H0z"/></clipPath><linearGradient id="paint0_linear_411_839" x1="390.5" y1="127" x2="390.5" y2="753" gradientUnits="userSpaceOnUse"><stop offset=".453" stop-color="#F6DCD7" stop-opacity="0"/><stop offset="1" stop-color="#F6DCD7"/></linearGradient></defs></svg>