<svg width="56" height="58" viewBox="0 0 56 58" fill="none" xmlns="http://www.w3.org/2000/svg"><circle cx="17.434" cy="17.434" r="17.434" fill="#0AB975" fill-opacity=".13"/><path fill-rule="evenodd" clip-rule="evenodd" d="M40.15 19.019h9.51a3.174 3.174 0 013.17 3.17v15.849a15.847 15.847 0 01-30.426 6.215A15.864 15.864 0 018.453 28.528V12.68a3.173 3.173 0 013.17-3.17H36.98a3.174 3.174 0 013.17 3.17v6.34zm-28.528-6.34v15.85a12.693 12.693 0 009.776 12.33 15.79 15.79 0 01-.266-2.821v-15.85a3.173 3.173 0 013.17-3.17H36.98V12.68H11.622zm34.325 34.324a12.68 12.68 0 003.713-8.965v-15.85H24.302v15.85a12.679 12.679 0 0021.645 8.965zM30.64 28.528a3.17 3.17 0 103.17 3.17 3.138 3.138 0 00-3.17-3.17zm10.919.535a3.17 3.17 0 011.76-.535 3.14 3.14 0 013.17 3.17 3.17 3.17 0 11-4.93-2.635zm-9.826 15.583a11.08 11.08 0 005.247 1.316 11.08 11.08 0 009.245-4.959l-2.64-1.755a7.926 7.926 0 01-13.21 0l-2.64 1.755a11.079 11.079 0 003.998 3.643z" fill="#0AB975"/></svg>