<svg version="1.2" xmlns="http://www.w3.org/2000/svg" viewBox="0 0 154 309" width="154" height="309"><style>.a{fill:#6fcfa1}.b{fill:#fff}.d{fill:#222221}</style><g style="mix-blend-mode:multiply"><path class="a" d="M47.9 63.7l-6.2 4.9-8.2-1.3s6.7-27.4 10.3-28.6c3.6-1.3 6.6-1.9 6.6-1.9l7.3 5.5L67.4 60s-5.1 4.3-8.2 3.7c-3.1-.6-11.3 0-11.3 0z"/><path fill-rule="evenodd" class="a" d="M41.7 68.7l-8.4-1.3v-.1c.3-1.1 6.8-27.5 10.4-28.7 3.6-1.3 6.7-1.9 6.7-1.9h.1l7.3 5.6 9.8 17.8h-.1c-.2.2-5.2 4.3-8.3 3.7-3-.6-10.7 0-11.3 0zm-8.1-1.4l8 1.2 6.2-4.9c.1 0 8.3-.6 11.4 0 2.8.5 7.4-3.1 8.1-3.6l-9.7-17.6-7.2-5.4c-.4.1-3.3.7-6.6 1.8-3.4 1.1-9.7 26.4-10.2 28.5z"/></g><path class="b" d="M55 64.9s3.3-5.7 3.3-9.3c0-3.7-3.3-10.6-6.5-11.8-3.3-1.3-17.1.4-9.8 17.8 7.3 17.5 13 3.3 13 3.3zm-19.1 5.7S66 81.2 52.2 98.7c-13.9 17.5-20.8 13.4-22.4 22.7-1.7 9.4-.9 21.6 3.2 25.3 4.1 3.6 9.8 14.6 9.4 17.1-.4 2.4 2.4 3.6-.4 6.1-2.9 2.4-1.3 3.2-3.7 4.4-2.4 1.3 1.2 4.9-2.9 4.5-4-.4-34.5-22-34.5-41.9s13.8-52.9 35-66.3zm19.5-3.2S74.1 85.3 74.1 91c0 5.6 59.4-26.9 63.1-35.8 3.7-9 4.9-11.4 4.9-11.4l5.7-4.9s7.7-11 4.9-13.8c-2.9-2.9-5.3-7.3-5.3-7.3l-4.9-2.1-7.3 5.3-6.1-4.5s-4.1-3.6-4.5 3.3c-.4 6.9-.8 11.8-6.1 20.3-5.3 8.6-20 27.3-32.2 27.3H55.4z"/><path class="b" d="M37.5 141.4s45.6-15.1 49.2-13c3.7 2 3.3 5.3 3.3 5.3s-15.9 8.9-23.6 9.3c-7.8.4-28.9-1.6-28.9-1.6zm-1.3 59l37.9.4-17.5 80.1-11.8.4z"/><path class="b" d="M101.3 190.2l-27.2 10.6s11 28.1 3.2 38.6c-7.7 10.6-17.1 20-17.1 23.6 0 3.7 3.7 14.3 3.7 14.3s19.9-11.4 24-12.6c4.1-1.2 17.1-8.2 18.7-22.8 1.6-14.6-4-47.2-5.3-51.7z"/><path d="M125.8 1.5c.8 5.3 9.4 19.5 9.4 19.5l1.6-4.9-6.5-15zm12.6 33.3l6.9 17.1 4.5-3.6-4.9-9z" fill="#0fa6a6"/><g style="mix-blend-mode:multiply"><path class="a" d="M37.5 141.4l-1.2 9.7s6.9 7.8 6.5 10.6c-.4 2.9 0 6.1 0 6.1l-.8 2.1-2.1 2.4-1.6 2-.8 2.1-3.7 3.2v20s22.8 3.2 36.2 0c13.4-3.3 33.4-10.6 33.4-12.2 0-1.6-13.4-53.7-13.4-53.7s-11 8.1-21.2 8.5c-10.2.4-28.1 2-31.3-.8z"/><path fill-rule="evenodd" class="a" d="M54.7 201.1c-10.7 0-20.8-1.4-20.9-1.4h-.1v-20.1l3.7-3.3.8-2 1.6-2.1 2.1-2.4.7-2c0-.3-.3-3.4.1-6.1.4-2.7-6.5-10.4-6.5-10.5h-.1l1.3-10.1.2.2c2.6 2.3 15.1 1.6 25.1 1.1 2.2-.1 4.3-.2 6.1-.3 10-.4 21-8.4 21.1-8.5l.1-.1.1.1c.5 2.2 13.4 52.2 13.4 53.8 0 1.2-8.2 4.3-11.7 5.6-7.2 2.6-15.6 5.2-21.8 6.7-4.4 1.1-9.9 1.4-15.3 1.4zm-20.8-1.6c1.7.2 23.3 3.1 36.1 0 14-3.4 33.3-10.7 33.3-12.1 0-1.6-12.6-50.3-13.4-53.5-1.3.9-11.6 8.1-21.1 8.4-1.8.1-3.9.2-6 .3-9.9.6-22.2 1.2-25.2-1l-1.2 9.5c.6.7 6.9 7.9 6.5 10.6-.4 2.8 0 6.1 0 6.1l-.9 2.1-2 2.5-1.6 2-.8 2.1-3.7 3.2z"/></g><path class="d" d="M44.2 64c-8 4.1-14 11-19.6 17.9-2.9 3.5-5.7 6.9-8.6 10.3-3.4 4-6.3 8.4-9.3 12.8-1.4 1.9-2.4 4-3.3 6.3-.8 2.2-1.4 4.6-1.9 6.9-.3 1.2-.6 2.4-.7 3.6-.2 1.3-.3 2.6-.3 3.9v4c-.1 1.4-.2 2.7-.2 4.1 0 1.3.1 2.6.4 3.8.3 1.3.8 2.5 1.2 3.7.9 2.4 1.6 4.9 2.7 7.2s2.6 4.4 4.2 6.5c1.5 2 2.9 4.2 4.6 6.2 3.1 4 6.8 7.5 10.4 11.2 1.5 1.6 2.9 3.4 4.6 4.8 1.7 1.3 3.8 1.9 5.8 2.4 1 .3 2.1.5 3.2.2.2 0 .4-.3.4-.6 0-2.2-1.9-4.1-3.3-5.6-1.8-1.9-3.4-4.1-5.5-5.6-.4-.3-.9.1-.9.5-.2 1.7 1.1 3.4 2.3 4.5 1.4 1.4 3.1 2.6 5 3.2 1.6.5 4 .2 4.1-1.8.2-2.1-1.8-3.5-2.8-5-.7-1-1.3-2.1-2-3-.6-.9-1.5-1.8-2.6-1.8-.2 0-.4.1-.5.3-.7 1.5.2 3.2 1.3 4.3 1.3 1.5 3 2.7 4.9 3.5 1.4.5 3.3 1 4.6-.1 1.5-1.4.6-3.7-.2-5.2-.7-1.1-1.5-2.1-2.4-3-.7-.7-1.5-1.5-2.5-1.7-.5-.2-.9.4-.7.8.8 1.3 1.5 2.7 2.5 3.8 1 1 2.5 1.8 3.8.7 1.2-.9 1.1-2.8.9-4.2-.3-1.6-.8-3-1.5-4.5-2.3-4.6-5.4-8.8-8.4-13-1.4-2-2.9-4.1-3.8-6.5-.5-1.1-.8-2.3-.9-3.6-.1-1.3 0-2.5.1-3.8.2-2.3.1-4.7.8-6.9.7-2.3 2.1-4.2 3.9-5.8.9-.8 1.9-1.5 2.8-2.4.8-.8 1.6-1.8 2.5-2.6 1.9-1.7 4.1-3.1 6.2-4.7 1.1-.7 2.1-1.5 3-2.4 1-.9 1.8-1.8 2.8-2.7.8-.8 1.8-1.5 2.6-2.3q1.2-1.2 2.1-2.7c1.1-2 2.1-4.1 2.8-6.2.8-2 1.4-4.2 1.7-6.3.6-4.4.5-9.3-1.9-13.1-1.3-2.1-3.2-4-5-5.6-1-.8-2-1.4-3-2.1-1-.7-1.9-1.5-3.1-1.7-1.2-.2-2.5.2-3.6-.2q.2.2.4.5 0-.3-.1-.7c-.1-.8-1.2-.8-1.2 0q.1.4.1.7.1.5.4.6c1.2.4 2.4.1 3.5.2 1.2.2 2.2 1.1 3.1 1.7 2.1 1.4 3.9 2.9 5.6 4.8 1.5 1.7 2.8 3.5 3.4 5.8.5 2.1.6 4.3.5 6.5-.3 4.4-1.6 8.6-3.6 12.5q-.7 1.4-1.5 2.7c-.6.9-1.4 1.8-2.2 2.5-.9.8-1.9 1.5-2.7 2.4-.9.8-1.7 1.7-2.7 2.5-1.9 1.7-4 3-6 4.5-1 .7-2 1.5-2.8 2.3-.9.8-1.6 1.8-2.4 2.6-1.7 1.6-3.6 2.8-5 4.7-1.2 1.8-1.9 3.8-2.2 6-.1 1.1-.2 2.3-.3 3.4 0 1.2-.2 2.4-.2 3.6 0 2.4.4 4.6 1.4 6.8 1.1 2.2 2.5 4.2 3.9 6.2s2.9 4 4.2 6.1c1.4 2 2.7 4.2 3.8 6.4.7 1.3 1.2 2.7 1.3 4.2.2 1 .3 3.1-1.1 3.2-.6 0-1.2-.5-1.6-1-.5-.5-.9-1.2-1.3-1.9-.3-.5-.6-1.1-.9-1.6q-.4.5-.7.9c.7.2 1.2.7 1.7 1.1q1.1 1 1.9 2.2c.5.8 1 1.6 1.3 2.5.2.6.3 1.4-.1 1.9-.7 1-2.3.5-3.2.2-1.6-.5-3.1-1.5-4.3-2.6-.8-.8-2.2-2.4-1.7-3.6q-.2.1-.5.3c.7 0 1.3.8 1.7 1.3l1.5 2.4c.9 1.4 2.3 2.5 2.9 4.1.3.7.1 1.3-.7 1.6-.6.2-1.2.1-1.7-.1-1.6-.5-3.1-1.5-4.3-2.6-1-1-2.4-2.5-2.2-4q-.5.3-.9.5c2 1.4 3.4 3.5 5 5.3.7.7 1.4 1.4 2 2.2.6.8 1.2 1.7 1.2 2.7l.5-.5c-1.1.2-2.3-.1-3.3-.4-1-.3-2-.6-3-1-1.8-.9-3.1-2.5-4.5-3.9-3.3-3.7-7-7.1-10.3-10.8-1.6-1.9-3.1-3.9-4.5-5.9-1.5-2-3.1-4-4.4-6.2-1.3-2.1-2.3-4.4-3.1-6.8q-.6-1.8-1.2-3.5c-.4-1.2-.9-2.4-1.1-3.6-.5-2.6-.1-5.3 0-8 0-2.5-.1-5.1.4-7.6.9-4.6 1.9-9.3 4.3-13.3 1.2-2.2 2.7-4.1 4.1-6.1 1.5-2.2 3-4.3 4.6-6.4 1.4-1.8 3-3.5 4.4-5.3l4.2-5c5.4-6.7 10.9-13.7 18.3-18.3l2.8-1.6c.7-.3.1-1.3-.6-1z"/><path class="d" d="M40.1 113.2q-.4.1-.7.2c-.2 0-.4.2-.5.4-.4 2.4-1.2 4.7-1.8 7.1-.5 2.3-.7 4.6-.7 7-.1 2.4-.1 4.9-.1 7.3q-.2 3.8-.3 7.6-.1 4.3-.3 8.6c0 .8 1.2.8 1.2 0q.3-7.6.5-15.2.1-3.6.1-7.2c.1-2.4.1-4.8.6-7.1.6-2.6 1.5-5.2 2-7.8l-.4.4q.3-.1.7-.1c.7-.2.4-1.3-.3-1.2zm-6.6 66.5c-.1 3.5.1 7 .7 10.5.3 2.1.8 4.2 1.1 6.4.3 2.1.4 4.3.6 6.4.4 4.4 1.1 8.7 1.2 13 .1 4.5-.2 8.9.1 13.3.5 8.9 2.4 17.5 3.8 26.3q.5 3.3.8 6.7c.1 1 .2 2.1.1 3.1 0 1-.2 2.1-.2 3.1 0 .9.3 1.7.6 2.5.4 1 .3 2 .3 3-.1 1 .1 1.9.3 2.8.3 1 .4 2 .5 3 .3 2.1.5 4.3.9 6.4.5 2.1 1 4.3 1.5 6.5.3 1 .5 2 .7 3 .1 1 .2 2.1.3 3.1.2 1.6.7 3 2.2 3.9 1.5 1 3.3 1.6 5 2.2 1 .4 2 .8 2.9 1.3.8.5 1.5.9 2.3 1.3.8.4 1.7.8 2.6.9.6.1 1.9.2 2.3-.4.4-.7.3-1.8.2-2.5-.3-1-.8-1.8-1.3-2.6-1.2-1.7-2.4-3.3-3.5-5-1-1.6-2.2-3.2-2.7-5-.5-1.9-.2-3.9 0-5.9.2-2 .2-4 .6-6 .8-4 2.4-7.8 3.9-11.6 1.6-4 3.1-8.1 4.1-12.3.5-2.1 1.1-4.2 1.4-6.4.3-2 .3-4.1.7-6.1.4-2.1.8-4.1 1.1-6.1q.5-3.2 1.1-6.5c.7-4.3 1.6-8.7 2.4-13.1.7-4.2 1.8-8.4 2.4-12.7.3-2.1.4-4.3.4-6.4 0-.8-1.1-.7-1.2 0-.2 2.4.9 4.6 1.5 6.9.4 1.2.6 2.5 1 3.7.3 1.1.8 2.3 1.2 3.4.4 1.3.7 2.4.9 3.7.2 1.2.3 2.5.6 3.7.6 2.3 1.2 4.6 1.1 7 0 2.3.3 4.7-.1 6.9s-1.9 3.8-3.3 5.4c-1.5 1.7-2.8 3.4-4.1 5.3q-.9 1.6-1.8 3.3c-.6 1-1.1 2.1-1.7 3-1.4 1.9-3.2 3.4-4.3 5.5-1 2-2.6 3.9-2.9 6.1-.1.8 1.1.8 1.2 0 .1-1 .7-1.9 1.2-2.8.5-.9 1-1.7 1.5-2.6 1-1.9 2.5-3.3 3.8-5 1.5-1.8 2.4-4 3.5-6 1.2-2 2.6-3.8 4.1-5.6 1.4-1.5 2.9-3.1 3.6-5.1.8-2.1.6-4.5.5-6.6 0-1.2.1-2.4 0-3.6q-.2-1.7-.6-3.2c-.2-1.3-.6-2.4-.8-3.7-.2-1.2-.3-2.5-.6-3.7-.6-2.7-1.9-5.3-2.5-8-.6-2.6-2.1-5.2-1.8-8h-1.2c.1 3.9-.5 7.7-1.3 11.5q-1.2 5.6-2.2 11.2c-.7 3.8-1.4 7.5-2 11.3q-.5 2.9-1 5.7c-.2 1.8-.7 3.5-1 5.3-.3 1.8-.2 3.6-.5 5.4-.3 1.8-.8 3.6-1.2 5.4-.8 3.7-2 7.3-3.3 10.8-1.2 3.4-2.7 6.7-3.8 10.2-.6 1.7-1.1 3.4-1.4 5.2-.2 1.7-.2 3.3-.4 5-.2 1.9-.4 3.8-.1 5.7.3 1.8 1.3 3.3 2.3 4.8q1.6 2.6 3.3 5c1.1 1.5 2.6 3.3 1.9 5.3q.2-.2.4-.5c-1.9.6-3.9-.7-5.5-1.7-2-1.1-4.2-1.7-6.2-2.6-.8-.4-1.6-.7-2.3-1.2-.8-.6-1.1-1.3-1.3-2.2-.2-1.1-.3-2.2-.4-3.3-.1-1.1-.4-2.2-.6-3.3-.5-2.3-1.2-4.6-1.6-7-.5-2.3-.7-4.7-1-7.1-.1-1.1-.4-2-.7-3.1-.2-1.1.1-2.1 0-3.2 0-1.1-.5-1.9-.8-2.9-.2-1-.1-2.1 0-3.2.2-2.4-.1-4.7-.4-7.1q-.4-3.5-1-7c-.8-4.8-1.7-9.6-2.3-14.4-.7-4.8-1.2-9.7-1.1-14.6.1-2.4.2-4.8.1-7.2-.1-2.4-.3-4.7-.6-7.1-.6-4.7-.7-9.4-1.5-14.1-.3-2.1-.8-4.2-1.1-6.4q-.4-2.7-.5-5.4 0-1.7.1-3.3c0-.8-1.2-.8-1.2 0z"/><path class="d" d="M59 279.5c1.6.4 3.2-.5 4.5-1.3 1.7-1.1 3.2-2.4 4.7-3.7 4-3.4 8.9-4.9 13.7-6.8 2.6-1.1 5.3-2.2 7.9-3.5 1.2-.7 2.3-1.4 3.6-2 1.1-.6 2.2-1.1 3.3-1.8 3.2-2.2 5.5-5.9 7.1-9.4 3.4-7.2 4.3-15.3 4.3-23.2 0-8.9-1.1-17.7-2.6-26.4-1.3-7.9-3-15.6-4.4-23.5-2-11.6-4.6-23.2-7.8-34.6-3.2-11.5-7-22.9-11.4-34q-3.2-8.2-6.8-16.2c-1.4-2.9-2.7-5.8-4.4-8.5-3.3-5.4-7.2-10.6-11.8-14.9-3.6-3.4-9.2-7.8-14.4-5.4-1.1.5-2.1 1.3-2.9 2.3-.2.2-.2.6 0 .8q.3.4.6.7c.5.6 1.3-.3.8-.8q-.3-.4-.5-.7v.8c1.6-1.9 3.7-2.9 6.2-2.5 2.7.4 5.1 2.1 7.2 3.8 4.9 3.9 8.9 9.1 12.4 14.3 4.4 6.5 7.3 13.9 10.3 21.1 4.3 10.6 8.2 21.4 11.5 32.3 3.3 11.1 6.1 22.4 8.3 33.7 1.7 8.2 3.2 16.5 4.7 24.8 1.6 8.4 3 16.8 3.6 25.3.5 8.1.4 16.5-1.8 24.3-.9 3.6-2.3 6.9-4.4 10-1.1 1.7-2.4 3.4-4.1 4.7-1.1.7-2.2 1.2-3.3 1.8-1.2.6-2.4 1.3-3.6 2-4.9 2.6-10.2 4.2-15.3 6.4-2.2 1-4.3 2.1-6.1 3.6-1.4 1.2-2.7 2.4-4.2 3.5-1.2.8-3 2.2-4.5 1.9-.8-.2-1.1.9-.4 1.1z"/><path class="d" d="M43.5 62.5q-.1.1-.2.1c-.1 0 .1 0 0 0h-.4c-.1-.1.1 0 0 0q-.1-.1-.2-.1c0-.1.1 0 0-.1q-.1 0-.1-.1c-.1-.1 0 .1-.1 0l-.2-.4q-.1-.2-.2-.7c-.4-1.3-.4-2.7-.4-4.1 0-1.3.1-2.7.2-4 .1-1.6.1-3.2.5-4.8.4-1.7 1.2-3.4 2.6-4.4 1.6-1.2 3.6-1.5 5.5-1 2 .5 3.7 1.9 5.1 3.5 1.3 1.6 2.3 3.6 2.4 5.7.1 1.3 0 2.6-.2 3.9q-.1.9-.1 1.9c-.1.6-.1 1.1-.2 1.7-.2 1-.7 1.8-1 2.7-.4.9-.6 1.8-1 2.7-.2.4-.3.7-.7 1-.2.2-.2.6 0 .8.3.2.6.2.9 0 .8-.6 1.1-1.8 1.4-2.7q.2-.7.5-1.4c.2-.5.4-1 .6-1.4.5-1.2.6-2.3.7-3.5l.3-4.2c0-1.2 0-2.5-.4-3.7-.3-1.1-.8-2.1-1.4-3.1-1.3-1.9-3.2-3.6-5.3-4.6-1-.4-2.1-.7-3.2-.7-1.1-.1-2.2.2-3.2.6-1.9.9-3.2 2.5-3.9 4.3-.8 2-1 4.1-1.1 6.2 0 1.2-.1 2.5-.2 3.7 0 1.6 0 3.2.3 4.8.3 1.1.8 2.5 2.1 2.7q.5 0 .9-.1c.8-.2.4-1.4-.3-1.2zm-4.4 77.3c.2-2.5 3.2-3.5 5.2-4.1 1.3-.4 2.7-.6 4-1 1.9-.6 3.9-1.3 5.7-2.1 1.9-.8 3.6-1.7 5.5-2.2 1.8-.6 3.7-.8 5.5-1 2.1-.3 4.2-.7 6.3-.9q3.3-.4 6.5-.8c1.9-.2 3.8-.5 5.8-.4 1.7.1 3.5.3 5 1.2q.2-.5.3-1.1h-.6c-.3-.1-.6.3-.6.5 0 .4.3.6.6.6q.3.1.6.1c.6.1.8-.8.3-1.1-1.4-.9-3.1-1.2-4.8-1.3-1.6-.2-3.3-.1-5 .1-4.4.6-8.8 1-13.3 1.7-1.9.3-3.8.5-5.7.9-2.1.5-4 1.4-5.9 2.2-1.9.8-3.8 1.6-5.9 2.3-1.4.4-2.8.7-4.3 1.1-2.7.7-6.1 2.1-6.4 5.3-.1.8 1.1.8 1.2 0zm-4.3 60.7q7.5.3 15 .5c2.5.1 4.9.1 7.4.3 2.3.1 4.6.4 6.9.3 1.1-.1 2.2-.4 3.3-.7 1.1-.3 2.2-.2 3.3-.2 1.2 0 2.3-.2 3.5-.5q1.7-.5 3.5-1.1 3.4-1.1 6.7-2.3c2.2-.8 4.4-1.6 6.4-2.8l3.3-1.8c.9-.4 1.8-.7 2.6-1.2.8-.4 1.7-.9 2.5-1.3.6-.3 1.5-.6 2-.6q.1-.5.2-1.1h-1.5c-.8-.1-.8 1.1 0 1.1q.7.1 1.5.1c.6 0 .8-1.1.1-1.2-.7-.1-1.4.1-2 .3l-2.4 1.2c-.6.3-1.2.7-1.9 1q-1.5.6-2.9 1.3c-1 .6-2 1.1-2.9 1.7-1.1.5-2.1.9-3.2 1.3q-3.4 1.4-6.8 2.5-1.8.6-3.5 1.1c-1.2.4-2.3.8-3.5 1-1.1.2-2.3 0-3.4.1-1.1 0-2.2.4-3.3.6-1.1.3-2.2.3-3.3.3-1.2 0-2.4-.1-3.5-.2-2.4-.2-4.8-.2-7.2-.3q-8.5-.3-16.9-.6c-.8 0-.8 1.2 0 1.2z"/><path class="d" d="M55.3 66.3c.9 0 1.7.2 2.6.5.8.3 1.7.5 2.6.7 1.9.3 3.9.3 5.8.2 4.1 0 8.3.2 12.4.1q3.1-.1 6.3-.4c1.7-.2 3.3-.4 5-.9 1.6-.5 3.3-1.2 4.8-2 1.6-.9 2.9-2 4.2-3.1 1.7-1.3 3.3-2.6 4.8-3.9 1.5-1.3 2.9-2.7 4.4-3.9 2.5-2.1 5.5-3.9 7.4-6.7.5-.8.9-1.6 1.4-2.4q.9-1.2 1.8-2.3c.6-.8 1.2-1.6 1.7-2.5.4-.8.7-1.7 1-2.6.5-1.8 1.4-3.6 2.2-5.3.8-1.8 1.5-3.7 2.1-5.5.3-1.2.6-2.3.6-3.5.1-.9.1-1.9.1-2.8 0-1 .1-2 .4-2.9.1-.5.2-.7.4-1.1l.1-.1c0-.1-.1.1 0 0l.2-.2c0-.1 0 0-.1 0q.1 0 .2-.1c.1-.1-.1 0 .1 0l.2-.1h.2s.1 0 0 0q.1 0 .1.1.2 0 .4.1c.7.2 1-.9.3-1.2-.9-.3-1.8-.2-2.4.5-.6.6-.9 1.5-1 2.4-.4 1.9-.3 3.9-.4 5.9v.5q-.1.3-.1.6-.4 1.5-.9 2.8c-.6 1.9-1.4 3.7-2.3 5.5-.4.9-.8 1.8-1.1 2.7-.4.9-.6 1.8-.9 2.7-.7 1.8-2 3.3-3.1 4.8q-.9 1.2-1.7 2.5c-.4.7-.9 1.4-1.5 2.1-1 1.2-2.3 2.2-3.6 3.2-1.4 1.1-2.8 2.1-4 3.2q-2.3 2.2-4.7 4.2-2.3 1.9-4.7 3.8c-1.3 1-2.8 1.8-4.3 2.5-1.5.6-3.1 1.1-4.8 1.5-1.8.3-3.8.4-5.7.6-4.2.2-8.3.1-12.5 0-2 0-4 .1-6 0-.9 0-1.9-.1-2.9-.2-.9-.2-1.7-.5-2.5-.8-.9-.2-1.7-.4-2.6-.3-.8 0-.8 1.2 0 1.1zm88.8-50.4c-2.7-.2-5.3.2-7.2 2.3-.9.9-1.4 2.1-2.1 3.2-.7 1.1-1.5 2.3-1.6 3.6-.1 1.4.9 2.6 2.3 2.7.8 0 1.6-.1 2.2-.4q1.3-.6 2.5-1.3c.8-.5 1.8-.8 2.7-1 .4-.2.7-.4 1-.7q1.1-.8 2-1.9c.7-.8 1.4-1.8 1.7-2.8.2-1.1-.3-2-1.4-2.3-.2 0-.5.1-.6.3-.9 1.9-2.4 3.4-4 4.8-1.3 1.1-2.6 2.3-3.8 3.5-1.2 1.2-2.4 2.6-2.9 4.3-.4 1.3-.1 3.1 1.3 3.7 1.3.6 2.7.1 3.9-.5 1.3-.6 2.4-1.4 3.5-2.3.8-.6 1.4-1.3 2.2-2 1-1 2.1-2 3-3.2.8-.9 1.8-2 1.8-3.3q0-.4-.2-.8c-.2-.4-.6-.4-1-.3-.8.1-1.5.5-2 1-1.3 1.1-2.1 2.6-2.9 4-.8 1.3-1.8 2.5-2.7 3.7-.9 1.3-2.1 2.8-2.4 4.5-.1.7-.1 1.5.3 2.2.4.7 1 1.2 1.8 1.5.7.2 1.5.3 2.3.3.9 0 1.8 0 2.6-.2 1.7-.4 3-1.6 3.9-3 .6-.9 1.1-1.9 1.6-2.9.5-1.1 1-2.3 1.2-3.5.3-1 .5-2.1.3-3.1-.1-1-.7-1.5-1.6-2-.4-.1-.8-.3-1.1-.6-.4-.3-.7-.7-1-1.1-.7-.8-1.3-1.8-1.9-2.7-.5-.8-1.1-1.7-1.9-2.4-.7-.7-1.6-1.1-2.5-1.5q-1.4-.6-2.8-.8c-.7-.1-1 1-.3 1.1q1.5.3 2.8.9c.8.3 1.6.7 2.3 1.4 1.4 1.6 2.3 3.6 3.7 5.3.3.3.7.7 1.1.9.4.3.8.5 1.2.7.3.1.6.3.8.6.1.5.1 1 0 1.4-.1 2.4-1.2 4.5-2.3 6.6-.7 1.4-1.7 2.8-3.2 3.4-.8.3-1.7.3-2.5.3s-1.5 0-2.2-.2c-3.7-1.2.5-6 1.6-7.5.5-.6.9-1.2 1.4-1.8.4-.6.7-1.2 1.1-1.8.4-.7.8-1.4 1.3-2 .5-.6 1-1.2 1.7-1.4.2-.2.5-.2.8-.1q-.3-.2-.5-.3s0-.1 0 0v.4q0 .1-.1.3c0 .1-.2.3-.2.5q-.3.3-.5.7c-.7 1-1.6 1.9-2.5 2.8-1.3 1.3-2.6 2.7-4.1 3.8-1 .7-2 1.3-3.1 1.7-.5.2-1 .4-1.5.4-.4 0-.7-.1-1-.3-.8-.8-.5-2.1 0-3 .6-1.3 1.7-2.4 2.7-3.4 1.2-1.2 2.5-2.3 3.7-3.4 1.5-1.4 3-2.8 3.8-4.7q-.4.1-.7.3c.2 0 .2 0 .4.1 0 .1.1.1.1.2 0-.1 0 .1.1.1 0 .1-.1-.1 0 0v.1s-.1.3 0 .2q-.1.1-.1.2c-.2.7-.7 1.4-1.2 2q-.8 1-1.8 1.8c-.2.3-.4.4-.6.5l-.6.3q-.7.2-1.3.4c-.3.1-.7.3-1.1.4q-.6.4-1.1.7c-.7.4-1.4.8-2.2.9-.5.1-1 .2-1.5-.1-.4-.2-.7-.6-.7-1.1 0-1.1.8-2.1 1.3-3 .3-.4.6-.8.9-1.3.3-.5.5-1 .9-1.5.7-.9 1.7-1.6 2.7-2 1.3-.4 2.6-.4 4-.3.7 0 .7-1.2 0-1.2z"/><path class="d" d="M133.7 22.4c.1-2.8-1.1-5.4-2.2-7.9-1.3-2.7-2.2-5.5-3.3-8.2q-.9-2.4-1.9-4.7-.2.3-.4.7c.8-.1 1.5-.5 2.2-.8.5-.2 1.2-.5 1.7-.1.4.2.6.8.8 1.2.2.6.3 1.3.5 1.9.2 1.5.6 2.9 1.1 4.3.7 1.8 1.5 3.5 2.3 5.3.9 2 1.8 3.9 2.6 5.9.3.7 1.4.4 1.1-.3-1.4-3.8-3.4-7.3-4.8-11.2-.4-.9-.7-1.8-.9-2.7l-.3-1.8c-.3-1.3-.6-2.8-1.7-3.6-1.6-1.1-3.3.5-4.9.7-.3.1-.5.5-.4.8 1.1 2.7 2.2 5.5 3.2 8.3.5 1.4 1 2.7 1.6 4.1.6 1.2 1.2 2.4 1.7 3.7.5 1.4.9 2.9.8 4.4-.1.8 1.1.8 1.2 0zm5.2 9.5q-.3.1-.6.1-.1 0-.2-.1c.1.1 0-.1 0 0q0-.1-.1-.1c0-.2 0-.2-.1-.3-.2-.7-.5-1.2-1.2-1.4-.3-.2-.7.1-.7.4-.4 1.5.4 3 1.1 4.3.3.7.7 1.4 1 2.1.4.8.7 1.7 1 2.6q.6 1.5 1.2 2.9c.3.7.6 1.4.9 2 .4 1.4.7 2.7 1.2 4 .2.6.4 1.2.8 1.8.2.4.6.9 1.1 1.1.6.2 1.2.1 1.7-.1q1-.3 1.9-.8c1.1-.6 2.1-1.7 2.1-3.1 0-.8-.3-1.6-.5-2.3q-.5-1.2-1.3-2.2c-.6-.8-1.2-1.5-1.8-2.3-.1-.2-.1-.2 0-.4 0-.1.2-.3.3-.4.3-.4.8-.7 1-1.2.3-.6.2-1.2-.3-1.7s-1.4.3-.8.9c.1.1.1.1.1.2 0-.1 0-.1 0 0 0-.1-.1.1 0 0l-.1.2-.9.9c-.3.4-.6.8-.6 1.3.1.7.6 1.2 1 1.7.4.6.9 1.2 1.4 1.8.4.7.8 1.4 1 2.1.2.6.4 1.2.3 1.9q-.2.4-.5.7-.1.2-.3.4l-.1.1c-.9.6-2 1.2-3 1.2h-.2s-.1-.1 0 0c0 0-.1-.1 0 0q-.3-.2-.4-.5c-.3-.5-.5-1-.7-1.5-.5-1.2-.8-2.5-1.2-3.7-.4-1.5-1.2-2.8-1.7-4.3-.7-1.7-1.3-3.5-2.2-5.1-.4-.8-.8-1.5-1.1-2.3-.2-.6-.4-1.3-.3-2q-.3.2-.7.4c-.1 0 .1.1.1 0q0 .1.1.2c-.1-.1 0 .1 0 .1l.1.1c.1.2.2.6.4.8.4.8 1.3.9 2.1.7.7-.2.4-1.4-.3-1.2z"/><path class="d" d="M141.7 45c-.6 3.2-3 5.6-4.5 8.4-.8 1.4-1.4 2.8-2.7 3.9-.6.4-1.2.8-1.8 1.3-.6.5-1 1.1-1.5 1.7-3.1 4-7 7.5-11 10.6-4.6 3.6-9.6 6.7-14.7 9.4-5.2 2.8-10.6 5.1-16.2 6.9-4.9 1.6-10 2.8-15.2 3.1q-.8.1-1.7.1c-.7 0-.7 1.2 0 1.2 5.2-.1 10.3-1.2 15.3-2.6 5.7-1.7 11.2-4 16.5-6.6 5.3-2.7 10.4-5.8 15.2-9.4 4.3-3.1 8.3-6.6 11.7-10.7.9-1.1 1.6-2.2 2.7-3 .6-.5 1.3-1 1.9-1.5.6-.5 1.1-1.2 1.5-1.9.4-.7.7-1.4 1.1-2q.6-1.1 1.2-2c.9-1.4 1.9-2.7 2.5-4.2q.6-1.2.8-2.4c.1-.7-1-1-1.1-.3zM41.9 281.6c2.9.9 5.8 1.3 8.7 1.7 1.4.3 2.8.5 4.2.9 1.3.3 2.5.6 3.8.7v-1.2c-2.5-.1-5 .1-7.4-.2q-1.6-.2-3-.7c-.9-.4-1.8-.8-2.8-1.1-1-.3-2.1-.5-3.1-.2-.2 0-.4.3-.4.6.1 1.2.8 2.5 1.5 3.6.6 1 1.4 2.3 2.5 3 .3.2.7 0 .8-.4.3-1 .3-2 .3-3-.1-.8-1.2-.8-1.2 0-.2 3.8.1 7.6 1.8 11.1.2.4.8.3 1 0 .4-.6.7-1.2.9-1.8q.6-1.3.9-2.7c.4-1.4.6-3.5-.9-4.4-.3-.2-.7 0-.9.4-.6 2-.3 4.2-.4 6.3 0 .8 1.2.8 1.2 0 .1-2.2 1.1-5.1-.7-6.8-.2-.3-.7-.3-.9.1-.8 1.6-.4 3.5-.4 5.2h1.2c0-1.7.1-3.5-.6-5.2-.4-.8-1.5-2.4-.4-3h-.5c.3.1.4.2.6.5q.3.4.4 1c.3.7.4 1.4.3 2.2l1.2-.2c-.1-.2-.1-.4.1-.5h-.6c1.1.5 1.2 1.8 1.4 2.8.2 1.1.4 2.3 1.5 2.9.5.2.9-.1.9-.5.1-1.2-.2-2.4-.5-3.6-.2-1.1-.5-2.3.1-3.4h-1.1c.8 1.2 1.3 2.5 1.6 3.8.1.7 1.1.5 1.1-.1 0-.7-.1-1.4-.1-2.1-.1-.7 0-1.4.4-1.8q-.3 0-.6.1c.9.2 1.1.8 1 1.6q.6.1 1.1.2c0-.9 0-1.9.6-2.6q-.5-.1-.9-.2c.5 1.8.4 3.8.2 5.6-.2 2-.5 4-.3 5.9q.5-.1 1.1-.1c-.3-1-1.1-2.2-2.2-2.4-.5-.2-1.4 0-1.6.6-.2.7-.3 1.6-.2 2.3.1.8 1.2.8 1.2 0q.1-1.5.1-3c0-.6-1.1-.8-1.2-.1-.1 1.1-.1 2.4.7 3.3.4.5 1.1 0 1-.6-.4-1.3-1.7-4.6-3.7-3.2-.7.5-1.1 1.2-1.4 2-.3.7-.5 1.5-.5 2.3-.1.7 0 1.7.7 2 .4.2.8 0 .9-.4.4-1.2.4-2.4 0-3.6-.1-.5-1-.6-1.1 0-.3 1.5.5 2.7.9 4q.5-.3.9-.7c-.6-.3-1.3-.5-2-.6-.5-.1-.8.7-.4 1 .9.8 1.9 1.5 2.9 2s2.2 1 3.4.7c.2 0 .4-.2.4-.4.2-1.2 0-2.6-.3-3.8-.4-1.1-1.1-2.7-2.5-2.6-.4 0-.6.4-.6.7.3 1.6.9 3.2 1.6 4.6.7 1.6 1.7 3.1 3.2 4.2.7.5 1.6.8 2.5.9.3 0 .6-.3.6-.6.2-1.7-.7-3.4-1.8-4.7-1-1.3-2.3-2.5-3.7-3.5-.5-.3-1 .2-.9.6.7 2.6 2.8 4.6 4.5 6.6.2.2.5.2.7.1 1.8-.9.1-3.6-.6-4.6-1.4-2-3-3.8-4.8-5.4-.7-.6-1.4-1.3-2.3-1.6-.5-.1-.9.3-.7.7.3 1.5.8 3 1.7 4.3.8 1.3 2 2.3 3.5 2.9.2.1.5-.1.6-.3 1.2-2.1-.1-4.2-1.5-5.9-.7-.9-1.5-1.8-2.3-2.7-.6-.8-1.2-1.7-1.5-2.7-.1-.4-.2-1-.1-1.4.1-.6.4-1.1.8-1.6l-.4.2c.8 0 1 1.2 1.2 1.8.1.3.4.5.7.4.7-.2 1.2-.6 1.7-1.1.5-.4 1-.9 1.5-1.1.3 0 .4 0 .6.1.3.2.6.6.7.8.3.6.2 1.5.1 2.1-.1.7-.3 1.7-.8 2.2q.4 0 .9.1c-.3-.5-.2-1.1-.2-1.7.1-.6.2-1.2.2-1.9h-1.2q-.1 4.6-.3 9.1c0 .8 1.2.8 1.2 0 .1-1.4.3-2.7.1-4.1-.1-.7-.4-1.4-.9-1.9q-.4-.3-1-.5c-.5-.1-.8.1-1.2.4-1.2 1.1-1.6 2.6-2 4-.5 1.3-.9 2.6-2.3 3.2-.8.4-1.8.5-2.7.2-.8-.4-1.4-1.2-1.7-2-.3-.6-1.2-.5-1.2.2-.1 2.8.5 5.5.7 8.3.1.7 1.2.7 1.2 0 0-1.2.1-2.4.1-3.6 0-.8-1.1-.8-1.2 0q-.1.7 0 1.4c.1.3.3.6.6.6s.6-.3.6-.6c-.1-1.6-.1-3.1-.2-4.7-.1-.9-.2-1.8-.4-2.6-.1-.7-.3-1.4-.9-1.8-.3-.2-.9.1-.8.5q.4 3.7.2 7.3h1.2c0-1.3.1-2.7.1-4.1l-1.2.2c.4 1.7 1.1 3.5.8 5.3q.6.1 1.1.2c.2-3.1-.4-6.1-1-9-.3-1.4-.5-2.7-.7-4.1-.3-1.2-.6-2.5-1.2-3.7-.1-.3-.5-.3-.8-.2-.3.2-.3.5-.2.8 2 4.6 4.1 9.2 7.1 13.1q1.3 1.6 2.8 3 .4-.4.9-.8c-.7-.6-1.7-1-2.6-.7-.8.4-1.1 1.3-.6 2 .9 1.7 3.1.9 4.4 2 .9.7 1.5 1.7 2.7 2.2.3.1.7-.2.7-.5.2-1-.1-2.1-.6-3-.5-.9-1.2-1.8-2.1-2.2-.3-.2-.8-.1-.8.3-.3 1.4.6 2.8 1.4 3.9.9 1 2.1 2.1 3.4 2.5.2 0 .4 0 .5-.2.7-.7.9-1.6.7-2.5-.1-.9-.7-1.7-1.2-2.4-.5-.6-1.1-1.2-1.7-1.8-.7-.6-1.2-1.3-1.8-2-.7-.8-1.4-1.6-2.3-2-.3-.1-.7.2-.8.5-.1.3.1.6.4.7.4.1.8.5 1 .7q.6.7 1.2 1.3.9 1.1 1.9 2.1c1 1 3.1 3 1.8 4.6l.6-.2c-1-.3-2-1.2-2.7-2q-.6-.7-1-1.5c-.2-.5-.4-1-.3-1.3q-.4.1-.9.3c.7.4 1.3 1 1.6 1.7.4.7.7 1.5.6 2.2q.3-.2.7-.4c-.9-.3-1.5-1.3-2.2-1.9-.8-.6-1.6-.8-2.5-.9-.6-.1-1.6-.2-1.8-.9v-.1c0 .1.1 0 0 0 .1-.1.2-.1.3-.1.4 0 .8.2 1.1.4.6.6 1.4-.3.9-.8-3.7-3.3-6-7.8-8.1-12.2q-.8-1.8-1.7-3.7l-1 .6c.6 1.1.8 2.4 1 3.6.3 1.3.5 2.6.8 3.9.5 2.9 1.1 5.7 1 8.7-.1.7 1 .8 1.1.2.4-2.1-.3-4.1-.7-6-.2-.7-1.2-.6-1.2.1 0 1.4 0 2.8-.1 4.1 0 .8 1.2.8 1.2 0q.2-3.6-.3-7.2-.4.2-.9.5c-.1-.2 0 0 .1 0-.1-.2 0 0 0 .1.1.1.1.1.1.2q.2.5.3 1c.1.7.2 1.6.2 2.4.1 1.4.1 2.8.2 4.3h1.2q-.1-.7 0-1.4h-1.2c0 1.2-.1 2.4-.1 3.6h1.2c-.2-2.8-.8-5.5-.7-8.3q-.6 0-1.2.1c.5 1.2 1.3 2.3 2.5 2.8 1.1.4 2.5.3 3.6-.2 2.1-.9 2.6-3.1 3.2-5 .3-1 .8-2 1.7-2.7q-.2.1-.4.1c1 .2 1.3 1.2 1.3 2.2.1 1.1-.1 2.1-.2 3.2h1.2q.2-4.5.3-9.1c0-.7-1.1-.7-1.2 0 0 1.4-.6 3 .2 4.2.2.3.6.4.9.1.6-.6.9-1.5 1.1-2.3.2-.9.3-2 0-2.9-.2-.8-.9-1.7-1.8-1.9-.8-.2-1.6.2-2.2.7-.6.5-1.3 1.3-2 1.5q.3.2.7.4c-.2-.9-.5-1.9-1.3-2.4-.4-.3-1.1-.5-1.5-.1-.2.2-.4.6-.6.9-.6 1.2-.7 2.5-.2 3.8 1.1 2.5 3.4 4.3 4.8 6.6.4.5.6 1 .8 1.7v.7c0 .3-.1.6-.3.8q.4-.1.7-.3c-2.6-1-3.7-3.7-4.4-6.3q-.4.4-.7.8h.1c-.1-.1 0 0 .1 0q.2.2.4.3c.4.2.5.4.9.7q1.2 1 2.3 2.2 1.1 1.2 2.1 2.6.5.6.9 1.3.2.3.3.6.1.1.1.2.1.1.1.2s.1.2.1.1q.1.2.1.5c.1.1.1.4.1.2v.4c-.1 0 0-.1-.1 0 .2-.1 0 0 0 0s-.1.1 0 0h-.1q.4.1.7.1c-1.6-1.7-3.5-3.6-4.1-6q-.5.4-.9.7c1.2.9 2.4 2 3.4 3.2.9 1.1 1.7 2.5 1.5 4l.6-.6c-1.4-.1-2.6-1.2-3.4-2.2-.9-1.3-1.6-2.8-2.1-4.4q-.4-1-.6-2.2l-.6.8c.2 0 .2 0 .4.1.1 0 .3.2.4.4.3.4.4.9.6 1.4q.2.9.3 1.7v1.1c0 .1-.1.4 0 .2l.4-.4c-.8.2-1.9-.3-2.7-.7-.9-.5-1.7-1-2.5-1.7l-.4 1q.8.1 1.4.5c.4.2 1.1-.2.9-.7-.4-1.1-1.2-2.2-1-3.4h-1.1q.5 1.5 0 3 .4-.2.8-.3s-.1-.1 0-.1c0 .1-.1 0 0 0 0 .1-.1 0-.1 0v-.3c-.1-.1 0 .1 0 0q-.1-.2-.1-.4c0-.4.1-.5.1-.8q.1-.6.3-1c.2-.5.5-1.2.8-1.5l.2-.2c.1-.1-.1.1.1 0l.1-.1h.1c.1 0 0 0 0 0h.2s.1.1 0 0l.1.1c.1 0 0-.1.1 0l.2.2c.1.1.2.3.3.5.3.6.5 1.2.7 1.8q.5-.2 1-.5c-.4-.6-.4-1.5-.3-2.2l-1.2-.2q0 1.5-.1 3h1.2q-.1-1 .2-2-.2.1-.3.3c.8-.5 1.6.9 1.8 1.5.2.6 1.2.5 1.1-.2-.2-3.9 1.3-8 .1-11.9-.1-.4-.7-.5-1-.2-.9.9-1.1 2.1-.9 3.4 0 .2.2.5.5.5.2.1.6-.1.6-.4.1-.8.1-1.6-.4-2.3q-.4-.4-.9-.6c-.2-.1-.5-.2-.8-.1-.2 0-.3.2-.4.4-1 1.2-.5 3-.5 4.5l1.2-.2c-.3-1.4-.8-2.9-1.6-4.1-.3-.3-.8-.4-1.1 0-.6 1.2-.5 2.6-.2 3.9.2 1.2.7 2.4.5 3.7q.5-.3.9-.5c-.9-.5-.9-1.8-1.1-2.7-.2-1.2-.6-2.4-1.8-3.1-.1-.1-.4-.1-.6 0-.6.5-.9 1.1-.7 1.9.2.7 1.1.5 1.2-.1.1-.9-.1-1.8-.3-2.6-.3-.8-.7-1.7-1.5-2.1-1.1-.5-1.9.9-1.9 1.8.1 1.1.7 2 1.1 2.9.6 1.4.4 3 .4 4.5-.1.8 1.1.8 1.2 0 0-.8-.1-1.6-.1-2.4 0-.7 0-1.5.3-2.2q-.4 0-.9.1c.7.7.7 1.9.6 2.8 0 1.1-.2 2.1-.3 3.2h1.2c.1-2-.2-4.1.4-6q-.5.2-.9.3l.5.5c0 .2.1.5.1.8 0 .7-.1 1.5-.3 2.2-.3 1.3-.8 2.7-1.6 3.8h1c-1.5-3.3-1.8-7-1.6-10.5h-1.2c0 .9.1 1.8-.2 2.7q.4-.2.9-.3c-.4-.2-.7-.7-1-1q-.6-.8-1.1-1.6-.5-.9-.9-1.8-.2-.3-.3-.7 0-.2-.1-.3v-.2c0-.1 0 .1 0 0l-.5.5c.9-.2 1.7 0 2.5.2.9.3 1.8.7 2.7 1.1 2.1.8 4.4.9 6.6 1 1.4 0 2.8-.1 4.2 0 .8 0 .8-1.2 0-1.2-1.3 0-2.4-.4-3.7-.7-1.3-.3-2.7-.6-4.1-.8-2.9-.5-5.8-.9-8.6-1.7-.7-.2-1 .9-.3 1.1z"/><path class="d" d="M58.9 296.9c0 .8.1 1.5 0 2.2v.5c-.1.1-.1.2-.2.2-.1.2-.4.2-.8.2s-.6.4-.5.8c.3 1.1.7 2.2 1.2 3.3.5 1 1 2.2 1.9 2.9.3.3 1 .1 1-.4 0-1-.5-2-1-2.8-.5-1-1.1-1.9-1.7-2.8-.5-.8-1.1-1.6-1.7-2.4-.6-.7-1.4-1.6-1.5-2.6q-.4.3-.9.5c1.6 1.2 2.6 2.9 3.8 4.3.6.8 1.2 1.4 1.9 1.9s1.4 1 1.7 1.8q.3-.4.7-.9c-.4-.1-.7-.5-1-.8l-.9-1.8c-.5-1.1-.8-2.4-1.6-3.3q-.4.3-.9.7c.7.8 1.6 1.5 2.2 2.3.7.9 1 1.8.9 2.8l.6-.6s.3.1.2.1c0 0 .1.1 0 0l-.1-.1q-.1-.2-.2-.3c-.1-.1-.1 0-.1-.1l-.2-.2q-.7-1-1.3-2.1-1.5-2.4-2.8-4.9-.2-.4-.5-.9v-.1c0-.1.1.1 0 0q0-.1-.1-.2v-.2l-.6.8c1.8.2 3.1 1.9 4.1 3.3.4.6.9 1.3 1.4 2 .5.7 1 1.4 1.6 2.2.4.6 1 1.5 1 2.3q.2-.3.3-.5c-.1.1.1 0 0 0h-.1c-.1.1-.1.1 0 0q-.1.1-.2.1c-.1 0 0 0-.1-.1q-.2 0-.4-.1c-.3-.1-.7-.4-1-.7-.9-.7-1.7-1.6-2.5-2.5-.5-.7-1-1.4-1.6-2-1-.9-2.1-1.8-3.1-2.7-1-1-2.3-2.3-2.3-3.8l-.6.6c3.8-.3 5.5 4.1 6.8 7 .3.8.7 1.7 1.2 2.5.3.6 1.3.2 1.1-.5q-.7-1.5-2-2.7c-.8-.6-1.7-1.2-2.6-1.8-2.1-1.5-3.6-3.7-5.4-5.6-.5-.5-1.4.3-.8.9 1.7 1.8 3.2 3.9 5.3 5.5 1.6 1.1 3.6 2.1 4.3 4.1q.6-.3 1.1-.5c-.9-1.6-1.5-3.3-2.3-4.9-.9-1.7-1.9-3.5-3.6-4.5-.9-.5-2-.8-3.1-.7-.3 0-.6.3-.6.6.1 1.6 1 2.9 2 4 1.1 1.1 2.3 2 3.4 3 .7.7 1.3 1.5 2 2.3.7.9 1.6 1.9 2.5 2.7.9.7 2.1 1.4 3.2.8.2-.1.3-.3.3-.5 0-.9-.4-1.7-.9-2.4-.5-.9-1.2-1.7-1.8-2.5-1.1-1.5-2-3.3-3.5-4.6-.9-.8-1.9-1.4-3.1-1.5-.4-.1-.6.4-.6.7.1.5.4 1 .6 1.5q.7 1.2 1.3 2.4c1 1.6 1.9 3.3 3 4.8.3.4.8 1.3 1.4 1.2q.6 0 .6-.6c.3-2.6-1.9-4.2-3.5-6-.4-.5-1.3.2-.9.7.8 1.1 1.2 2.5 1.7 3.7.5 1.1 1.2 2.5 2.5 2.9.5.1.8-.5.6-.9-.3-.9-1-1.4-1.8-2-.7-.6-1.4-1.1-2-1.9-1.3-1.6-2.3-3.3-4-4.5-.3-.2-.9.1-.9.5.1 1.1.7 2 1.4 2.8.6.9 1.3 1.6 1.8 2.5.6.9 1.1 1.7 1.7 2.6.4.8 1 1.7 1 2.7l1-.4c-.8-.7-1.3-1.8-1.7-2.7q-.6-1.5-1.1-3-.3.3-.6.7c1.1.1 1.9-.5 2.2-1.5.2-.9 0-1.9 0-2.8 0-.7-1.1-.7-1.2 0zm1.9-20.5c0-.5.2-1 .4-1.5q.4-1.1.8-2.3c.5-1.4 1-3 .9-4.6-.1-.7-.3-1.4-1-1.8-.2-.2-.5-.1-.7.1-.7.6-1.2 1.5-1.3 2.6q-.1.7-.1 1.4c0 .5-.1 1 0 1.5.2.6 0 1.3-.3 1.9-.3.8-.8 1.5-1.3 2.3-.4.7-.9 1.4-1.3 2.2q-.3.5-.4 1c-.1.2-.1.4-.1.6 0 .4.3.6.5.8.8.6 1.7.9 2.7.6.9-.3 1.6-1 2.1-1.8 1.4-2.1.9-4.5 1-6.9 0-.7-1.2-.7-1.2 0 0 .9.2 1.8.5 2.6s.6 1.7 1.1 2.3c.3.3.8.2 1-.1.6-1.4 0-2.9-.8-4.2-.4-.7-.8-1.3-1.3-2-.3-.5-.7-1.1-.9-1.7l-1 .6c.9 1.1 1.7 2.5 2.2 3.9.6 1.3 1 2.8.9 4.3q0 .9-.3 1.8v.1c-.1.1 0-.1 0 0 0 0-.1.1 0-.1 0 0-.1.2 0 0v.1c-.1 0-.2 0 0 0h-.2c-1.2 0-2.3.2-3.4.6-1.5.4-3.1 1.1-4.3 2.2-.5.5.3 1.3.9.8 1-1 2.5-1.5 3.8-1.9.7-.2 1.3-.4 2-.5.5 0 1 0 1.4-.1 1.1-.2 1.2-1.7 1.3-2.5.1-1.6-.3-3.3-.8-4.8-.6-1.7-1.5-3.4-2.7-4.8-.4-.4-1.2 0-1 .6.5 1.3 1.4 2.4 2.1 3.6.6.9 1.5 2.3 1.1 3.4q.4 0 .9-.1c-.4-.5-.7-1.3-.9-1.9-.2-.7-.4-1.4-.4-2.2h-1.2c0 1.9.4 4-.4 5.7-.4.7-.9 1.5-1.7 1.8-.8.4-1.5 0-2-.6q.1.3.1.6c.2-.9.6-1.6 1-2.3.5-.8 1.1-1.6 1.6-2.4.4-.7.8-1.5.9-2.4q.1-.6 0-1.3c0-.2-.1-.3-.1-.5q0-.5.1-.9c0-1.2.1-2.3 1-3.1q-.3 0-.7.1s.1.1.2.1c-.1 0 .1.3.1.2.1.2.1.5.1.7 0 .6-.1 1.3-.2 1.9-.4 1.5-.9 2.9-1.4 4.3-.2.6-.4 1.1-.5 1.7 0 .3.1.6.4.7.3.1.7-.1.8-.4z"/><path class="d" d="M60.2 277.7c.2.1.3.2.4.4.3.5 1.1.3 1.1-.3-.1-2.1.1-4.2.1-6.3l-1.2.2c.4 1.4.3 3.7 2 4.3.3.1.6-.1.7-.4.3-1.1.5-2.4.5-3.6 0-1.2-.1-2.6-1.1-3.4-.3-.2-.9 0-.9.4-.1.7 0 1.5.2 2.2.1.8.4 1.5.4 2.2 0 .8 1.2.8 1.2 0 0-1.3.1-2.5-.1-3.8-.1-1.3-.5-2.8-1.8-3.3-.3-.1-.6.1-.7.4-.5 1.1-.2 2.4.2 3.5.4 1.4 1.1 2.7 1.7 4 .5 1.1 1 2.3 1 3.6q.1.3 0 .6c0 .1-.1.2-.2.3-.4.3-1.1.5-1.6.6q-1.1.4-2.3.6c-.7.2-1.6.3-2.3.2-.3-.1-.6.1-.7.4-.1.3.1.7.4.7 1.5.3 3.2-.1 4.7-.6 1-.3 2.6-.5 3.1-1.7.2-.6.1-1.2.1-1.8q-.2-1-.6-1.9c-.5-1.4-1.2-2.8-1.8-4.1-.5-1.3-1.1-2.8-.6-4.1q-.4.2-.7.4c.3.1.5.5.7.9.2.5.2 1.1.3 1.7.1 1.2 0 2.3 0 3.4h1.2c0-.7-.2-1.4-.4-2.1-.2-.7-.4-1.3-.3-2q-.4.1-.8.3c-.1 0 .1.2.1.1q0 .1.1.3c.1.1.2.4.2.6.1.5.1 1.1.1 1.7 0 1-.2 2-.4 3q.3-.2.7-.4c-.1-.1-.3-.3-.4-.5-.2-.3-.3-.7-.3-1-.2-.7-.3-1.3-.4-2-.2-.7-1.2-.5-1.2.1 0 2.1-.2 4.2-.1 6.3q.6-.2 1.1-.3c-.3-.6-.8-.9-1.4-.9-.4-.1-.6.3-.6.6s.2.5.6.5zm2.3-166.4q-1.9 1.4-3.4 3.2c-1 1.2-1.8 2.5-2.6 3.8l1 .6c.4-.7.9-1.3 1.3-2 .6-.7 1.1-1.5 1.6-2.3.9-1.6 1.5-3.4.3-5-.2-.2-.6-.2-.8-.1-1.6 1.2-2.3 3.1-2.8 5-.6 1.8-.8 3.8-1.1 5.7-.1.7.7 1.1 1.1.5.4-.7.6-1.4.8-2.2q.3-1.5.3-3.1c.2-2.1.1-4.4-.8-6.3-.4-.6-1.2-1.7-2-1.5-.9.2-1.6.8-2.2 1.5-1.3 1.8-1.9 4.1-2.3 6.2-.4 2.3-.7 4.6-.6 6.9 0 .4.5.8.9.5 1-.7 1.3-2 1.6-3.1.4-1.4.6-2.8.3-4.2-.1-.6-.2-1.1-.6-1.6-.3-.3-.6-.4-1.1-.2q-.6.1-1.2.4c-1.2.7-1.8 2-2.1 3.3-.3 1.4-.4 2.9-1.4 4l1 .6c.3-1.3.7-2.5 1-3.7.3-1.4.7-3.1 0-4.5q-.2-.4-.6-.7c-.4-.3-.7-.3-1.1-.1-.6.2-1.1.8-1.3 1.4-.7 1.4-.8 2.9-1 4.4q0 .5-.1.9c0 .1 0 .1 0 0v.4q-.1.5-.3 1c-.3 1.4-.6 2.9-.6 4.3.1.8 1.2.8 1.2 0q.2-1.8.2-3.6c0-1.5 0-3.1-.5-4.5-.2-.6-.5-1.2-1-1.4q-.4-.3-.8-.2c-.6 0-.7.4-1 .8-.9 1.7-1.6 3.6-2.2 5.5-.5 1.9-1.1 4.3-.1 6.2.2.4.8.4 1 0 .7-1.2.9-2.7 1-4.1.2-1.5.2-3.1-.4-4.6-.3-.7-.7-1.3-1.4-1.7-.2-.1-.6-.1-.8.2-.9 1.8-1.3 3.9-1.6 5.9-.2 1.9-.2 4 .3 6 .1.4.7.6 1 .2q.5-.5.8-1.2-.5-.2-1.1-.3c-.1 3.3-.1 6.7-.4 10.1 0 .6 1 .8 1.2.1.5-2.5 1.8-5 .9-7.6-.1-.5-.8-.6-1-.2-.7 1-.9 2.1-.9 3.3 0 .7 1.1.7 1.2 0q0-.6-.1-1.2-.4.2-.8.5c.7.5 1.3 1.2 1.6 2.1.1.3.4.5.8.4 1.1-.3 2-1.4 2.7-2.3q1.6-2 2.8-4.3c.7-1.4 1.4-2.9 1.6-4.5.1-1.2-.2-2.5-1.4-3.1-.6-.3-1.3.2-1.8.5q-.7.5-1.1 1.3c-.6.9-.9 2-1.6 2.9l1 .4c0-1.7 1.1-3.2 1.1-5-.1-.3-.3-.6-.6-.6-1.6 0-2.1 1.9-2.4 3.1-.4 1.7-.5 3.5-.3 5.2.1.7.2 1.5.5 2.1.2.3.6.4.8.2 1.5-.9 2.3-2.5 2.9-4.1.5-1.6.9-3.3.8-5-.1-.5-.9-.9-1.1-.3-.6 1.3-1 2.7-1.1 4.2-.2 1.4-.2 2.9.2 4.3 0 .3.5.5.8.3 3.8-2.3 4.2-6.8 5.5-10.7.3-.7-.9-1-1.1-.3-.5 1.1-.8 2.3-.9 3.5-.1 1.2.1 2.6 1.3 3.1.2.1.5.1.7-.1 3-3.5 3.3-8.4 4.7-12.6q-.6-.2-1.1-.4c-.5 2.1-1 4-1.1 6.1-.1 1-.1 2.2.2 3.2q.3.7.7 1.3c.2.2.4.4.7.4.3 0 .6-.1 1-.2 1.4-.5 2.6-1.7 3.4-2.9.2-.3 0-.7-.2-.9-.6-.4-1.5-.2-2.1 0-1 .3-1.9.8-2.8 1.3-1.9 1.2-3.8 2.6-5.2 4.3-.4.5-1.1 1.4-.8 2.2.1.3.3.4.6.5 1.8 0 3.6-.4 5.3-1.1 1.7-.6 3.3-1.5 5-2.3.6-.3.1-1.2-.5-1.1-.7.2-1.3.3-2 .3l-2.8.4c-1.4.2-3.4.5-4 2-.1.3.1.6.4.7 1.2.4 2.6.5 3.8.5 1.3 0 2.7-.2 3.8-.9.3-.2.4-.8 0-1-1.8-1-4.1-.2-5.8.5-.9.3-1.7.7-2.6 1-.9.3-1.8.5-2.8.9-.9.3-1.9.7-2.5 1.6-.2.3 0 .8.4.8.8.2 1.5.1 2.3-.1.7-.2 1.4-.4 2.2-.3q-.3-.5-.5-.9c-.4.8-1.6 1-2.5 1.3-1.1.4-2.2 1-2.5 2.3-.1.2 0 .4.1.6 2.3 2 5.3-.8 7.1-2.2q-.4-.4-.7-.9c-2 1.5-4.4 2.3-5.9 4.3-.2.3 0 .8.4.9 2.5.5 4.8-1.1 7.1-2.1 2.5-1.2 5.1-2.5 7.7-3.6 2-1 4.1-1.9 6.3-2.4 1.7-.4 3.4-.8 5.1-1.3.9-.2 1.8-.5 2.6-1 .7-.3 1.4-.7 1.7-1.4.2-.2.1-.5-.1-.7-1.6-1.7-4-1.9-6.3-2.3-2.9-.5-5.9-1-8.8-1.7l.5.5c.2-1.6 1.6-2.8 2.9-3.7 1.4-1.1 2.9-2.2 3.7-3.8.1-.3.1-.7-.2-.9-3.7-1.8-6.7 1.5-9.7 3.1-.8.5-1.6.8-2.5.7q.3.2.6.5c-.6-1.5-.2-2.9.4-4.2.6-1.4 1.5-2.7 2-4.1.2-.5-.4-.9-.8-.7-2.8 1.5-5.3 3.7-7.1 6.2-.2.2-.1.6.1.7.3.2.6.2.8 0 1-.8 1.7-2 2.5-3 .5-.6-.2-1.3-.8-.9-2 1.6-4.3 2.8-6.6 3.9q.4.5.7 1c1.9-1.5 3.4-3.2 4.6-5.2.3-.4-.1-.8-.5-.8-2.4-.3-3.9 2-5.8 2.9l.6 1c1.6-1.1 3.3-2.1 4.7-3.5.4-.4 0-1.2-.6-1q-1.1.3-2 1c-.6.4-.1 1.3.6 1 1-.5 2-1.1 2.8-1.9.8-.9 1.3-1.9 1.8-2.9.9-1.7 1.5-3.6 2.7-5.2.5-.7 1.2-1.4 2.2-1.5q-.3-.4-.6-.7c-.5 1.6-1.1 3.1-1.4 4.8-.1.6.8 1.1 1.1.5 2.2-4.7 3.3-9.8 4.4-14.8.2-.7-.7-1.1-1-.5-1.1 2.3-1.7 4.8-2.3 7.3-.2 1.1-.5 2.2-.9 3.3-.3 1.1-.7 2.1-1.1 3.2-.3 1.1-.6 2.3-.6 3.6 0 .5.8.8 1.1.3 1.4-2.9 2.6-5.8 3.5-8.8.2-.7-.7-1-1.1-.5-.9 1.5-2 2.8-2.9 4.3-.8 1.3-1.8 3.3-.9 4.8.2.2.6.4.8.2 2.5-1.7 5.1-3.5 6.5-6.3.2-.6-.5-1.2-1-.7-2.4 2.2-4.6 4.8-6.1 7.8-.4.6.4 1.2.9.7 1.3-1.2 2.5-2.7 3.4-4.2 1-1.6 1.9-3.4 2-5.2 0-.7-.8-.8-1.1-.3-1.5 2-3.1 4-4.4 6.3q-1 1.7-1.7 3.5c-.3 1-.5 2-.4 3 .3 1.7 1.8 2.7 3.5 2.6 1.3 0 2.4-.5 3.4-1.4.8-.7 1.6-1.7 2.3-2.6q1.3-1.7 2.4-3.6c1.5-2.7 2.9-5.5 3.8-8.4.3-1.2.6-2.4.5-3.6 0-.9-.2-1.9-1-2.6q-.2-.2-.5-.4c-.3-.1-.7-.1-.8.2-2.2 3.6-4.3 7.3-4.9 11.5-.3 2.2-.7 4.4-.3 6.6.1 1.1.7 2.3 2 2.2.2-.1.5-.2.5-.5 1-3.7 1.4-7.6 1.9-11.5 0-.6-1.1-.8-1.2-.1-1.2 5.4-1.6 11-1.4 16.6.1.4.7.8 1.1.4.9-1.2 1.4-2.7 1.6-4.2.3-1.6.3-3.2.3-4.8.1-1.9.1-3.8.1-5.6q-.1-3.3-.6-6.6-.5-3.6-1.5-7.1c-.1-.4-.6-.6-.9-.4-2.7 1.8-2.3 5.6-2 8.3.2 1.4.4 2.9.6 4.3.2 2.4.4 4.8.8 7.2q.3 1.8.7 3.5l.4 1.8q.1.4.3.8c.1.3.2.4.5.5.7.3 1.6.2 2.1-.5.6-.6.8-1.5 1-2.4.1-1.1.2-2.2.2-3.3q0-1.6-.2-3.3 0-.5-.1-1c0-.2 0-.4-.1-.6-.2-.5-1-.6-1.1 0v.2h1.1c-.2-2.3-.5-4.7-1-7-.5-2.5-1.2-5-2.3-7.2-.6-1.2-1.4-2.2-2.3-3.1-.4-.3-1-.1-1 .4-.1 3.1 0 6.2.5 9.2.5 2.9 1.4 5.6 2.7 8.3q1.1 2.4 2.7 4.6c.1.2.5.4.8.2 1-.6 1.4-1.8 1.6-2.9.3-1.4.3-2.9.2-4.3-.2-2.7-.7-5.4-1.1-8-.5-2.8-1-5.7-1.8-8.4q-.5.2-1.1.3c2 6 4.4 11.9 6.8 17.8q1 2.5 1.9 5.1c.3.7 1.4.4 1.2-.3-2.3-6-4.8-11.8-7-17.8q-.9-2.5-1.8-5.1c-.2-.7-1.3-.4-1.1.3 1 3.8 1.6 7.7 2.2 11.5.5 2.6.8 5.3.6 7.9-.1.6-.2 1.2-.4 1.8-.2.4-.5.9-.8 1.1l.8.2c-1.7-2.5-3.1-5.1-4.1-7.9-.9-2.7-1.4-5.5-1.6-8.4q-.1-2.6 0-5.2-.5.2-1.1.4c1.7 1.5 2.6 3.7 3.3 5.7.8 2.4 1.3 4.8 1.6 7.3q.3 1.7.5 3.5c0 .3.2.6.6.6.2 0 .6-.3.5-.6 0-.1.1 0 0 .1h-1.1c0 .1 0 .1 0 0v.2q.1.4.1.9l.2 2.6q0 1.6-.1 3.2c0 .5-.1.8-.2 1.3l-.2.6v.2s-.1.2-.1 0v.2l-.2.2v.1l-.1.1q0 .1-.1.1c.1-.1-.1.1-.2.1.2-.1 0 0-.1 0h.1-.3c.2 0 0 0 0 0q-.1 0-.2-.1h-.1q.2.2.3.4c-1.2-4.3-1.8-8.6-2.1-13-.3-2.7-1-5.5-.8-8.3.1-1.2.5-2.6 1.6-3.4q-.4-.1-.9-.3c1.2 4 1.8 8.2 2.1 12.3v5.8c-.1 1.5-.1 3.1-.2 4.6-.2 1.5-.5 3.2-1.5 4.5l1 .4c-.2-5.5.2-11 1.3-16.3q-.5-.1-1.1-.2c-.4 3.8-.8 7.6-1.8 11.2l.6-.4H63c.1 0-.1 0 0 0l-.1-.1c-.1-.1.1.1 0 0q-.1 0-.1-.1c-.1-.1 0 0-.1 0-.2-.3-.2-.7-.3-1.1-.2-1.1-.1-2.3 0-3.3.3-2.7.8-5.5 1.9-8.1.9-2 2-3.9 3.2-5.8l-.8.2.2.2c.1 0 0 0 0 0q.1 0 .1.1l.2.2s0-.1 0 0q.1 0 .1.1.1.1.1.2c.1.2 0 0 0 .1q.1 0 .1.1.1.3.1.6v.2q.1.2.1.4 0 .4-.1.7-.1.8-.3 1.6c-.6 2.7-1.8 5.3-3.2 7.7-1.2 2.3-2.6 4.5-4.4 6.4q-.4.5-1 1l-.1.1s.1-.1 0 0q-.1.1-.2.1-.1.1-.2.1c-.1.1-.3.2-.1.1-1.2.5-3 .8-3.7-.5-.4-.6-.4-1.4-.3-2.1.3-1.1.7-2.1 1.2-3.1 1.1-2.2 2.6-4.2 4.1-6.2q.5-.6 1-1.3-.5-.2-1.1-.3c-.1 1.6-1 3.3-1.8 4.7-.9 1.4-2 2.8-3.3 3.9q.5.4 1 .7c1.5-2.9 3.6-5.4 6-7.6q-.5-.4-1-.7c-1.2 2.6-3.6 4.3-6 5.9l.8.2c-.1-.3-.1-.4-.1-.7 0-.3 0-.6.1-1 .3-.8.7-1.5 1.1-2.2.8-1.4 1.9-2.7 2.8-4q-.6-.2-1.1-.4c-.9 2.9-2.1 5.7-3.4 8.5q.5.1 1.1.3c-.1-2.1.9-4.2 1.5-6.1.8-2.2 1.2-4.5 1.8-6.7.4-1.4.8-2.7 1.4-4q-.6-.2-1.1-.5c-1.1 4.9-2.2 10-4.3 14.6l1 .4c.4-1.6 1-3.2 1.4-4.8.1-.4-.1-.8-.5-.8-2.2.2-3.5 2.2-4.3 3.9-1 1.8-1.6 3.9-2.9 5.6-.7 1-1.8 1.7-2.9 2.2l.6 1q.8-.6 1.7-.9-.3-.5-.6-.9c-1.2 1.3-2.9 2.2-4.4 3.3-.6.5-.1 1.4.6 1 .9-.4 1.7-1.1 2.5-1.8.8-.5 1.7-1.1 2.7-1q-.2-.4-.5-.8-1.8 2.7-4.4 4.8c-.6.5.1 1.2.7.9 2.4-1.1 4.7-2.3 6.8-4q-.4-.4-.8-.9c-.8 1.1-1.5 2.2-2.5 3q.4.4.9.8c1.7-2.4 4.1-4.4 6.7-5.8q-.5-.3-.9-.6c-1.2 2.8-3.7 5.6-2.5 8.9.1.2.3.4.6.4 3.6.1 5.8-3.5 9.1-4.2.8-.2 1.7-.1 2.5.3l-.2-.8c-.8 1.6-2.4 2.6-3.8 3.7-1.5 1.2-2.8 2.5-3 4.4 0 .3.2.5.4.6 2.8.8 5.7 1.2 8.5 1.7 2.1.4 4.6.4 6.1 2.1q-.1-.4-.1-.8l-.1.2-.3.3c-.2.1-.5.4-.8.5-.7.3-1.4.6-2.1.8-1.7.5-3.3.8-5 1.2-2 .5-3.9 1.3-5.7 2.1-2.6 1.1-5 2.3-7.5 3.5q-1.9.9-3.9 1.8c-1.2.6-2.5 1.1-3.8.8q.1.4.3.9c.7-.9 1.7-1.6 2.7-2.1 1-.7 2.1-1.2 3-2 .5-.4-.2-1.3-.7-.9-.9.7-1.8 1.4-2.8 2-.8.5-2 1-2.9.3l.2.6c.3-1 1.4-1.4 2.3-1.6 1-.4 2.1-.7 2.6-1.7.2-.4 0-.9-.5-.9-.7-.1-1.5.1-2.2.2-.6.2-1.3.4-2 .3q.2.4.3.9c.4-.6 1.2-.9 1.9-1.1.8-.3 1.7-.5 2.5-.8 1.7-.5 3.3-1.4 5-1.8.8-.2 1.9-.4 2.7.1v-1c-1 .6-2.2.7-3.3.7-1.1 0-2.3-.1-3.4-.5l.4.8c0 .1.1-.1.1-.1.1-.1-.1 0 0-.1s.2-.1.3-.2c.2-.1.5-.2.8-.3.7-.3 1.5-.4 2.3-.5 1.5-.2 3.1-.2 4.5-.6q-.2-.6-.4-1.1c-1.6.7-3.1 1.6-4.7 2.2-1.6.6-3.3 1-5 1l.6.4-.1-.1c0 .2.1.1.1 0v-.3c0 .2.1 0 .1-.1q0-.1.1-.2.1-.2.3-.4s.1-.1.1-.2l.2-.2.5-.5q.5-.5 1.1-1c1.5-1.3 3.3-2.6 5.1-3.2l.6-.2q.1-.1.3-.1h.1c.1 0-.1 0 0 0h.6c-.2 0 0 0 0 .1l-.2-.8c-.7 1-2 2.5-3.4 2.5l.4.2c-1.1-1.1-.9-3.3-.7-4.7.1-1.7.6-3.3.9-4.9.2-.8-.9-1.1-1.1-.4-1.4 4.1-1.6 8.8-4.5 12.2q.4 0 .8-.1c-.9-.4-.8-1.5-.7-2.3.1-1 .5-2 .8-3q-.6-.1-1.1-.3c-1.2 3.5-1.5 7.9-5 10q.5.2.9.4c-.3-1.3-.3-2.6-.2-3.9.2-1.3.5-2.6 1-3.7q-.6-.2-1.1-.3c.1 1.5-.2 3.1-.7 4.5-.5 1.3-1.1 2.8-2.4 3.6l.8.2v-.1s0 .1 0 0q-.1-.2-.1-.4c-.1-.2-.2-.6-.2-.7q-.1-1.2-.1-2.3 0-1.2.2-2.3.1-.6.3-1.1.1-.5.3-.9l.2-.4.1-.1q-.1.1 0 0l.1-.1s.1-.1.2-.1c-.1 0 .1-.1.1-.1h-.1.2l-.6-.6c0 .9-.3 1.7-.5 2.5-.3.8-.6 1.6-.5 2.5 0 .5.6.9 1 .4.6-.8 1-1.7 1.4-2.6.4-.9 1-1.6 2-1.9h-.5q.1 0 .3.1 0 .1.1.1c-.1-.1 0 0 0 0l.2.2c.1.1-.1-.1 0 0q.1.1.1.2v.1c.1.1 0-.1.1 0v.3q.1.1.1.2v.3c0 1-.3 2-.7 2.9-.8 2.2-2.2 4.3-3.7 6.1q-.5.6-1.1 1.1-.1 0-.1.1c-.1 0 0-.1-.1 0l-.2.2q-.1.1-.2.1c-.2.1.1-.1 0 0h-.2q.4.2.8.5c-.4-1.2-1.2-2.1-2.2-2.8-.4-.3-1 .1-.9.5v1.2h1.2c0-1 .2-1.9.7-2.7q-.6 0-1.1-.1c.7 2.4-.5 4.7-1 7l1.2.2c.2-3.4.2-6.8.4-10.1 0-.6-.8-.8-1.1-.3q-.3.5-.7 1 .5.1 1 .3c-.5-1.8-.4-3.8-.2-5.6.2-1.8.6-3.7 1.4-5.4l-.8.2c.5.3.8.9 1 1.6.3.8.3 1.7.3 2.5 0 1.6-.2 3.4-.9 4.7h1c-.6-1.2-.3-2.8-.1-4.1.4-1.7 1-3.3 1.7-4.9q.5-1 1.1-2l-.4.2c-.1.1 0 0 .1 0s-.1 0 0 0c.1.1.2.1 0 0q.1.1.2.1c-.1-.1.1.2.1.1l.1.1q0 .1.1.2c.1.2.2.5.2.8.1.3.2.7.2 1 .2 1.5.2 3.1.1 4.7l-.2 1.6h1.2c0-2 .7-4 .9-6.1.2-1.4.3-2.8.8-4.1l.4-.8.2-.2.1-.1c.1-.1.2-.1.3-.1q-.2-.1-.4-.1c.3.1.4.3.5.5.1.2.2.6.2.8 0 .8-.1 1.6-.2 2.4-.3 1.4-.9 2.7-1.2 4.1-.1.5.6 1 1 .6 1.2-1.3 1.4-2.8 1.7-4.4.1-.7.3-1.4.7-1.9.5-.7 1.3-1.1 2.1-1.3h-.5c.1 0 .3.2.3.4.1.2.2.6.2.8.1.8 0 1.6-.1 2.3q-.2 1.2-.6 2.3-.1.4-.4.8 0 .1-.1.2v.1q0-.1 0 0c-.1 0-.3.2-.2.2q.5.2.9.5c-.1-1.9.1-3.8.4-5.6.3-2.2.8-4.4 1.9-6.2.3-.5.5-.8.9-1.1.3-.3.6-.5 1-.6h-.3l.1.1q.1 0 .2.1s.1.1 0 0l.1.1.2.2.2.2c.1.2.2.4.2.5.4.7.5 1.6.6 2.5.2 1.8.1 3.8-.3 5.7q-.1.6-.3 1.2 0 .2-.1.3v.1c0 .1 0-.1 0 0l-.2.4q.5.2 1.1.4c.2-1.8.5-3.6.9-5.4.4-1.6 1-3.5 2.4-4.6h-.7c.9 1.1 0 2.9-.7 3.9-.8 1.3-1.9 2.5-2.6 3.9-.3.7.7 1.3 1 .6 1.5-2.5 3.2-4.8 5.6-6.5.2-.2.4-.6.2-.9-.2-.2-.6-.4-.8-.2z"/><path class="d" d="M70.2 113c0 .7.2 1.5.6 2.2.4.6.9 1 1.6 1.3.2.1.5 0 .6-.2.6-.6.9-1.5 1.2-2.3q.6-1.5.8-3.2c.1-.9.2-1.9-.2-2.8-.4-.9-1.3-1.2-2.2-.9-.9.3-1.4 1.3-1.6 2.2-.3 1.1-.4 2.4-.2 3.5.1.9.5 2.1 1.5 2.4.6.1 1.2-.4 1.6-.7.4-.4.6-.9.8-1.4.8-1.9.3-4.8-1.7-5.8-.9-.4-2.1-.4-3 0-.8.4-1.4 1.2-1.8 2-.9 2-1.1 4.4-.9 6.6.1 2 .4 4.2 1.4 5.9.2.4.5.9 1 .9q.6 0 1-.3c.6-.3 1.1-.8 1.4-1.3.9-1.6 1.2-3.5 1.3-5.2.2-2.2.1-4.3-.2-6.5-.3-2-.7-3.9-1.6-5.7-.6-1.3-1.6-2.6-3.1-2.8-.2 0-.5 0-.7.2-.1.1-.2.4-.3.6q-.2.3-.4.7-.7 1.3-1.3 2.7c-.6 1.8-1.1 3.7-1.4 5.6-.3 2-.5 4-.6 5.9-.1 1-.2 2-.3 2.9-.1 1.2-.2 2.3 0 3.5.1.8.3 2 1.3 2.2.6.1 1.2-.7 1.5-1.2q.6-.7 1.1-1.5c.6-1.2 1-2.4 1.1-3.6.1-1.1 0-2.3-.6-3.3-.6-1.1-1.7-1.7-3-2-2.5-.4-5 .9-7 2.4-2 1.7-3.9 4-4.5 6.6-.3 1.2-.3 2.3.1 3.4q.2.4.6.5c2.2.2 4.6-.5 6.6-1.4 2.1-.9 4.2-2.1 5.7-3.9.2-.2.3-.5.1-.7-.9-1.5-3-1.3-4.5-.9-2.2.6-4.2 1.6-6 2.8-.8.6-1.6 1.2-2.4 2-.5.5-1 1.2-1.3 2 0 .1-.1.3-.1.5 0 .4.6.7.9.9.6.5 1.3.7 2.1.8 1.5.1 3-.3 4.4-.7 3.2-1 6.9-1.5 9.5-3.8.4-.3.1-1-.4-1-2.1.1-4.1 1.3-5.9 2.4-.8.4-1.7.9-2.5 1.2-.9.3-1.8.5-2.7.8-1 .4-1.9 1-2.4 1.9-.2.2-.1.7.2.8 1.7.8 3.6.8 5.4.8 1.9 0 3.8-.2 5.7-.5 2-.2 3.8-.7 5.6-1.4 1.9-.8 3.7-1.8 5-3.5.5-.6.9-1.4.8-2.2 0-.8-.5-1.4-1.1-1.8-.8-.5-1.8-.8-2.6-1.2-1-.3-2-.6-3-.8-1-.2-2.1-.3-3.2-.2q-.7.1-1.5.5c-.4.1-1.1.4-1.1 1-.2 1.6 1.8 2.5 3.1 2.9.7.2 1.4.4 2.1.3 1-.1 2-.5 2.9-1.2 1.4-1 2.3-2.5 2.3-4.2.1-1.4-.2-2.9-.6-4.2-.4-1.5-1-2.9-2-4.1-.7-1-1.9-1.8-3.2-1.7-.5 0-1 .8-1.3 1.3q-.4.7-.7 1.5c-.4.9-.6 1.9-.5 2.9.1 2.1 1.1 3.9 2.4 5.4q1.1 1.2 2.4 2.1.6.4 1.3.8.4.2.7.4c.3.1.6.3.9.3.3 0 .7-.4 1-.6q.3-.4.6-.9c.5-.6.7-1.4.9-2.2.4-1.6.4-3.3.3-5-.1-2-.6-3.9-1.1-5.8q-1-3.7-2.7-7.2-.7-1.6-1.7-3.2c-.2-.4-.7-.3-1 0-.8 1.2-.7 2.9-.5 4.3.2 1.9.7 3.8 1.3 5.7q.8 2.6 1.8 5.1c.8 2.1 1.9 4.2 2.9 6.2.4.7.7 1.4 1.1 2.2l.6 1.5c.4 1.1 1 2.2 2.2 2.6.2.1.5 0 .7-.3.8-1.2.9-2.8.8-4.2-.1-1.6-.3-3.1-.6-4.6-.7-3.5-1.6-6.9-2.6-10.3q-1.2-3.9-2.4-7.7c-.8-2.6-1.7-5.1-2.9-7.6-1.3-2.6-3-5-5.4-6.7-.2-.2-.5-.1-.7.1-1.6 1.6-.8 4.1-.3 6 .6 2.5 1.5 5 2.5 7.4q1.5 3.5 3.1 7.1c1.1 2.4 2.3 4.8 3.2 7.2 1.1 2.7 1.5 5.6 2.8 8.2 0 .2.3.4.5.3 1 0 1.8-.5 2.4-1.3.5-.9.7-1.9.7-2.9.2-2.5-.4-5.1-1.1-7.5-1.6-6.2-4.3-12.1-7.1-17.8q-1.7-3.6-3.6-7.1c-1.1-2.2-2.3-4.4-4-6.3-.3-.4-1-.1-1 .4.3 4.3 1.9 8.3 3.7 12.1l2.7 5.7c.7 1.6 1.4 3.3 2.2 4.9.8 1.9 1.8 3.7 3.2 5.2.3.2.8.2 1-.1.9-1.9.2-4.2-.5-6.1-.7-2.3-1.6-4.6-2.5-6.9-1.2-2.6-2.6-4.9-4.2-7.3l-2.4-3.6c-.8-1.1-1.6-2.2-2.4-3.4-.7-.9-1.3-2-2-2.9-.6-.9-1.4-1.9-2.5-2.4-.4-.2-.9 0-.9.5-.1 2.4.8 4.7 1.9 6.8.5 1.1 1.1 2.1 1.7 3.1.5 1 1 2 1.5 2.9.5 1.1 1.2 2.1 2.1 3 .4.3 1 .1 1-.5 0-2.7-1.9-4.9-3.7-6.9q-.7-.7-1.3-1.5-.3-.3-.6-.7c.1.1-.1 0-.1-.1q-.1-.1-.1-.2c-.6-.8-1.1-1.7-1.7-2.5-.5-.7-1.3-1.9-2.3-1.9-.4 0-.6.4-.6.8q.7 3 1.5 5.9.6 2 1.4 4c.4 1.1.9 2.3 1.6 3.3.5.8 1.3 1.7 2.3 1.7.4 0 .6-.4.6-.8-.8-3.4-1.8-6.8-3.2-10-.6-1.4-1.4-2.8-2.1-4.1-.7-1.2-1.4-2.4-2.2-3.5-.9-1.2-2-2.4-3.3-3.1-.4-.1-.7 0-.9.2-.7 1.1.6 2.4 1.2 3.1l1.5 1.5c.4.4.8.8 1 1.1l.8-.8c-1.4-.6-2.1-2.2-3.4-2.9-.6-.4-1.7-.7-2.3-.2-.4.3-.7.8-.7 1.3s.4.9.8 1.1c.4.3.8-.1.9-.5 0-1.1-.6-1.9-1.3-2.7-.7-.5-1.5-1.1-1.7-2q-.2.4-.5.8c1-.1 2.1.4 3 .8 1.1.5 2 1.1 3 1.6q.3-.5.5-1.1c-1.9-.6-3.5-1.9-5.1-3-.8-.6-1.6-1.1-2.5-1.5-.3-.1-.6-.1-.9-.2-.2-.1 0-.1 0 0 0-.2 0-.3.1-.5q-.4.2-.9.4 1.8.9 3.4 2.1c1 .7 2.2 1.6 2.5 2.8l.6-.8c-3.2.1-5.4-2.4-8.3-3.4-.5-.1-.9.5-.7.9 1.2 1.9 3.2 3 4.9 4.4 1.9 1.6 3.5 3.5 5.1 5.4l.8-.8c-1.2-1.2-2.6-2.1-3.9-3.1-.7-.6-1.4-1.2-2-1.9-.4-.5-.8-1.1-.8-1.7q-.4.2-.9.5c4 2.7 6.3 6.9 8 11.2.9 2.2 1.6 4.4 2.5 6.6.7 1.8 1.6 3.5 2.3 5.3.5 1.1.9 2.2 1.3 3.3.2 1 .5 2 .3 3q.6-.1 1.1-.2c-1.3-2.4-1.9-5.1-2.5-7.8-.7-2.8-1.6-5.5-2.6-8.2q-1-2.2-2-4.5l-1 .6c.9 1.3 1.5 2.7 2.4 4.1.9 1.4 1.9 2.8 3.3 3.8.7.5 1.5.8 2.4.8.2 0 .5-.2.6-.5.5-2.6.3-5.3-.8-7.8-1-2.3-2.8-4.3-4.7-5.9-2-1.8-4.3-3.2-6.6-4.5-2.4-1.3-5.1-2.5-7-4.5-.3-.3-.6-.7-.8-1.1 0 0-.1-.2 0 0q0-.1-.1-.2v.1q0 .1-.1.1c.1-.1 0 0 0 0h.2c.1-.1-.1 0-.1 0h.9c.8.2 1.6.4 2.3.7.7.2 1.4.5 2 .7.8.4 1.6 1 2.3 1.5l4 3.2c1.4 1.2 2.8 2.5 4 3.8.5.6.9 1 1.2 1.6q.1.2.2.3.1.1.1.2c0 .1 0-.1 0 0v.1q.1.1.1.3c0-.1 0-.1 0 0v.1c0-.1 0-.1 0 0s0-.1 0 0c-.1.1 0 .1 0 0l-.1.1q.4-.1.7-.1c-1.7-1.3-3.5-2.5-5-4-1.5-1.3-3.1-3-3.6-5.1q-.4.4-.9.7c3.3 2.3 6 5.4 8.2 8.8 2.2 3.4 4.1 7.1 5.9 10.7 2 4 4.2 7.9 6.1 11.8 1 2.1 1.9 4.3 2.7 6.5q.6 1.6 1.1 3.4c.4 1.1.6 2.3 1 3.4.3 1.1.9 2 1.3 3q.7 1.3 1.1 2.8c.6 1.9 1 4 1.8 5.8q.3.6.7 1.2c.2.3.8.4 1 0 .8-1.7 1.3-3.6 1.1-5.5q-.1-1.4-.5-2.8-.3-.6-.5-1.3c-.2-.4-.4-1.1-.9-1.2-1.1-.4-2.1.4-2.3 1.5-.3.9-.2 2 .1 3 .4 1.8 1.6 3 3.2 3.9.6.3 1.1-.4.7-.9-3.9-4.2-7.7-8.5-11.8-12.4-2.1-1.9-4.2-3.8-6.6-5.3-2.1-1.4-4.5-2.1-7.1-1.5-1.4.4-2.6 1.1-3.8 2-1.1.9-2.1 1.8-3.4 2.4q.4.5.7 1l1.8-2.4c.5-.8 1.1-1.5 1.9-2q-.4-.3-.9-.7c-1.2 3.3-3.8 6.4-3.7 10.1 0 .4.4.7.8.6.9-.2 1.8-.7 2.6-1.3q1.4-1.1 2.6-2.5c1.5-1.8 2.9-4 3.5-6.4.2-1.1.3-2.3-.2-3.3-.1-.2-.4-.3-.6-.3-3.1.4-5.9 1.8-8.3 3.9-2.3 2.1-4.2 4.6-5.9 7.1-1 1.4-2 2.9-3 4.2-.4.6.5 1.2 1 .8q.8-.9 1.7-1.8c.5-.6-.3-1.3-.8-.8q-1.3 1-1.8 2.5c-.2.5.4 1 .8.7 3.3-2.5 6-5.6 8.3-9 2.3-3.4 4.2-7.2 5.3-11.2 1.1-3.9 1.4-8 .3-11.9-.6-1.8-1.4-3.6-2.6-5.2-1.3-1.8-2.8-3.3-4.4-4.8-1.6-1.7-3.2-3.5-5.2-4.6-1.8-1.1-3.9-1.7-6-2.1q-.7-.1-1.4-.3.1.6.1 1.1c.9-.6 1.9-.6 3-.5 1 0 2.1.1 3.1-.3.4-.2.6-.8.1-1.1q-1.5-.9-3.2-1c-.4 0-.7.5-.5.9.8 1.5 2.6 1.6 4.1 1.3h-.3c2.5 1 4.8 2.5 6.6 4.6 2 2.3 3.3 5.1 4.3 7.9 1.1 3 1.9 6 2.6 9.1.3 1.6.7 3.2.9 4.9q.3 2.5.3 5c-.1.9-.1 1.8-.2 2.8-.1.5-.2 1.1-.4 1.6-.1.6-.3 1.3-.4 2-.1.5-.2 1.1 0 1.7.1.2.4.5.7.4 1.4-.6 2.2-1.7 2.9-2.9.5-1 1.1-2.2 2.3-2.5q-.3-.2-.7-.4.2 1.2 0 2.5.6.1 1.2.1c0-2.3 0-4.7.3-7 0-.4-.3-.6-.6-.6-.4 0-.6.2-.6.6-.3 2.4-.8 5.3-2.7 7q.5.3 1 .5c-.1-2.1.3-4.2.4-6.4 0-1 0-2-.3-3-.2-.9-.8-1.8-1.2-2.7-.6-1-.8-2.2-1-3.3-.3-1.2-.5-2.5-.8-3.7-.6-2.5-1.6-4.8-3.2-6.8-1.7-2.3-3.8-4.2-5.9-6.1-.2-.2-.6-.2-.9 0-.4.6-.4 1.5-.4 2.2 0 1.2.2 2.4.3 3.5q.5 3.7 1.3 7.3l.2 1.2c.1.2.1.5.4.7.2.1.6.1.8-.2q.1-.2.1-.3h-1.2c.3 4.4.2 8.9-.3 13.4-.3 3.2-.8 6.5-1.9 9.5-.6 1.5-1.3 2.9-2.4 4l1 .6c1.2-4.8 4.9-8.5 6.5-13.2.2-.6-.7-.9-1.1-.4-.5.7-.5 1.6.5 2 .2 0 .4.1.6.1.3 0 .5-.2.7-.4q.7-.4 1.2-.9c1.4-1.3 2.3-3 2.7-4.9.5-2.1.5-4.2.1-6.3-.3-2.2-1-4.3-1.9-6.3-.9-2.2-2.1-4.3-3.4-6.4-.3-.5-1.1-.3-1.1.3 0 1.6.4 3.3.7 4.9.2 1.3.5 2.7.5 4 0 2.4-.4 4.8-.2 7.2 0 1 .1 2.3 1 3 .4.3.9-.1.9-.5.4-3.5 1.4-7.1.8-10.6-.1-.9-.4-1.7-.9-2.4-.3-.4-1-.4-1.1.1-1 4.9-1.5 10-1.7 15h1.2c.1-3.7.8-7.4 1.3-11q-.5-.1-1.1-.2c-.1 1.5-.4 3-.5 4.6 0 .9-.1 1.8-.1 2.7.1.6.1 1.4.5 1.9.2.4 1 .4 1.1-.1.6-3.3 1.6-6.6 1.9-10 0-.6-1.1-.8-1.2-.1q-.7 3.9-1.6 7.8-.2.5-.3 1c0 .2-.1.5-.2.7 0 .1-.2.3-.2.4q-.2.2-.3.4-.3.3-.5.7c-.4 1-.5 2 0 3 .1.4.6.6 1 .3.9-1 1.7-2.1 2.5-3.1.9-1 1.8-2 2.9-2.7l-.8-.8c-1.6 3.3-4.3 5.9-6.2 9.1l1 .6q1.5-2.7 2.8-5.5c.2-.5.5-1 .6-1.4.2-.4.2-.8.3-1.2.3-.7.8-1.3 1.3-1.7q-.4-.4-.8-.7c-1.1 5.3-4.8 9.5-7.7 13.9-.8 1.2-1.6 2.5-2.3 3.8-.3.7.7 1.3 1.1.6 2.5-4.6 4.5-9.4 6.9-14q1-2 2.1-4-.5-.3-1.1-.6c-2.2 4.5-4.2 9-6.7 13.4q-1 1.8-2.2 3.6.5.2 1.1.5c1-4 2.2-8.3 5-11.5q-.5-.3-1-.7c-2 2.9-3.5 6.3-5.8 9.1l1 .6c1.6-4.3 3.3-8.6 5.2-12.7l-1-.6c-.7 1.6-1.3 3.1-2 4.7-.7 1.4-1.5 3-2.7 4l.8.8c.7-1.1 1.3-2.2 2-3.3.4-.6.8-1.1 1.3-1.7.3-.4.7-.8 1.2-1.1l-.8-.8c-1.5 3.3-3.4 6.3-4.6 9.7-.2.7.9 1 1.2.3 1.1-3.2 3-6.2 4.4-9.4.3-.5-.3-1-.8-.8-1.2.6-2.1 2-2.8 3.1-.7 1.1-1.4 2.3-2.2 3.4-.3.5.4 1.2.9.8 1.4-1.1 2.3-2.6 3-4.2.8-1.6 1.4-3.3 2.1-4.9.1-.3.1-.6-.2-.8-.3-.2-.7-.1-.8.2-2 4.2-3.7 8.6-5.3 13-.2.5.6 1 1 .6 2.3-3 3.8-6.4 6-9.4.3-.6-.5-1.2-1-.7-2.8 3.3-4.2 7.8-5.3 11.9-.2.7.7 1.1 1.1.5 2.7-4.2 4.9-8.7 7.1-13.1q.9-2 1.9-3.9c.3-.6-.7-1.2-1.1-.6-2.5 4.6-4.6 9.4-6.9 14.1q-1 2-2.1 3.9.5.3 1.1.6c2.4-4.8 6.2-8.8 8.6-13.7.6-1.4 1.1-2.8 1.4-4.3.1-.4-.4-1-.9-.6-.6.5-1.2 1-1.5 1.8q-.3.6-.5 1.2c-.1.5-.3.9-.5 1.4q-1.4 2.9-2.9 5.8c-.3.7.6 1.2 1 .6 1.9-3.2 4.6-5.8 6.2-9.1.3-.5-.2-1.1-.8-.8-2.4 1.4-3.8 4-5.7 5.9q.5.2 1 .3-.6-1.4.2-2.6.3-.4.6-.7c.2-.3.3-.5.3-.9q.3-.9.5-1.8.9-3.7 1.6-7.4l-1.2-.2c-.3 3.3-1.2 6.5-1.9 9.6q.6 0 1.1-.1 0-.1-.1-.1v-.1q-.1-.2-.1-.4c0-.1 0-.2-.1-.4v-.6c0-.8 0-1.7.1-2.6.1-1.5.4-2.9.5-4.4 0-.7-1.1-.8-1.2-.2-.6 3.8-1.3 7.6-1.4 11.4 0 .8 1.2.8 1.2 0 .2-4.9.6-9.8 1.7-14.7q-.6.1-1.1.2c.9 1.2.9 2.9.9 4.4 0 1.8-.3 3.6-.6 5.4l-.4 2.6q.5-.3.9-.5c.2.1 0-.1 0-.1l-.1-.1c-.1-.2-.1-.3-.2-.5-.1-.5-.1-.9-.1-1.4-.1-1.2-.1-2.5 0-3.7.1-1.1.2-2.2.2-3.3 0-1.3-.2-2.6-.5-3.8-.3-1.7-.7-3.5-.7-5.2q-.6.1-1.1.3c1.8 3 3.5 6.2 4.5 9.6 1 3.2 1.4 6.8.1 10.1-.7 1.6-1.8 2.9-3.3 3.8q.2-.1.3-.1s-.4-.1-.3 0c.1 0-.1.1 0 0s.2-.2.2-.3q-.5-.3-1.1-.5c-1.5 4.7-5.2 8.3-6.5 13.1-.1.6.6 1 1 .6 1.1-1 1.8-2.3 2.4-3.7.6-1.5 1.1-3.1 1.4-4.7.8-3.8 1.2-7.6 1.3-11.5q.1-3.9-.1-7.8c-.1-.8-1.3-.8-1.2 0q0-.2.1-.3l.8-.2c.4.2.3.5.2.2q0-.1-.1-.3-.1-.4-.1-.9-.4-1.5-.6-3c-.4-2.4-.9-4.7-1-7.1v-1.6c0-.1 0 .1 0 0q0-.1.1-.2v-.2c-.1.2.2-.2 0 .1h-.9c1.8 1.6 3.7 3.2 5.2 5.1q1.2 1.4 2.1 3.1c.6 1.1 1 2.2 1.4 3.4.3 1.2.5 2.4.8 3.6.2 1.2.4 2.4.9 3.6.3.8.9 1.6 1.2 2.5.4.9.5 1.8.5 2.8 0 2.3-.5 4.6-.4 7 0 .5.6.7 1 .4 2.2-2 2.7-5.1 3.1-7.9h-1.2c-.3 2.3-.2 4.7-.3 7 0 .7 1.1.9 1.2.2q.2-1.6-.1-3.1c0-.3-.4-.5-.7-.4-1.3.3-2.1 1.4-2.8 2.5-.6 1-1.2 2.4-2.4 2.8q.4.2.7.4c-.1-.4 0-.9.1-1.4.1-.7.3-1.3.5-2 .4-1.5.4-3.1.4-4.6q.1-2.9-.4-5.8c-.2-1.7-.6-3.5-1-5.2-.9-3.5-1.8-6.9-3.2-10.2-1.3-3-3-5.9-5.6-8q-2-1.7-4.4-2.8c-.4-.2-.9-.4-1.4-.3-.4 0-.8.1-1.2.1q-.9-.1-1.4-.9-.2.5-.5.9 1.4.1 2.6.8.1-.5.1-1.1c-1 .4-2 .3-3.1.3s-2.2.1-3.2.7c-.3.3-.4 1 .2 1.1 2 .3 4 .7 5.8 1.6 2 .8 3.6 2.3 5.1 3.8 2.9 2.9 5.9 5.7 7.4 9.5 2.9 7.4-.3 15.7-4.2 22.1-2.3 3.7-5.1 7.2-8.7 9.8q.5.4.9.7c.3-.8.8-1.5 1.5-2l-.8-.8q-.9.8-1.8 1.7.5.4 1 .7c1.7-2.3 3.3-4.8 5.1-7.2 1.8-2.3 3.8-4.5 6.4-5.9 1.4-.8 3-1.3 4.6-1.5q-.2-.2-.5-.3c.3.6.3 1.5.2 2.2-.2 1.1-.7 2-1.1 2.9-1.1 2-2.6 3.9-4.3 5.3-.8.6-1.6 1.2-2.6 1.3l.8.6c-.1-1.7.6-3.4 1.3-4.9.8-1.6 1.7-3.2 2.4-4.8.2-.6-.5-.9-.9-.7-1.8 1-2.7 3-3.9 4.5-.5.5.1 1.2.7.9 2.2-1 3.7-3 6-3.9 1.1-.4 2.3-.7 3.6-.5 1.1.2 2.2.7 3.2 1.2 1.1.7 2.1 1.5 3.1 2.4q1.6 1.3 3.2 2.7c2 1.9 3.9 3.8 5.8 5.9 2.1 2.2 4.2 4.5 6.3 6.8q.4-.5.8-.9c-.9-.5-1.6-1.1-2.2-1.9-.3-.6-.6-1.4-.6-2-.1-.6-.1-1.3 0-1.9.1-.1.1-.2.2-.3 0 0 .1-.2.1-.1 0-.1.2-.1.1-.1 0 0 .2-.1.1 0 .2-.1.3 0 .5 0q-.2-.1-.4-.3c.7 1.5 1.3 3.1 1.3 4.7.1 1.6-.2 3.2-.9 4.7h1c-1.1-1.7-1.5-3.7-2-5.6-.3-.9-.5-1.9-.9-2.8-.4-1-.9-2-1.4-2.9-.5-1.1-.8-2.2-1.1-3.3q-.4-1.8-1-3.5c-.7-2.3-1.7-4.5-2.7-6.6-1.8-4.1-4.1-8-6.1-12-1.9-3.7-3.7-7.4-5.9-11-2.2-3.4-4.7-6.7-7.9-9.2q-.6-.5-1.3-.9c-.4-.3-.9.2-.8.7.5 2.2 2.1 4 3.7 5.5 1.7 1.5 3.6 2.9 5.4 4.2.3.2.6.1.8-.1.9-.8.1-2.2-.5-3-1-1.4-2.3-2.6-3.6-3.8q-2.1-2-4.4-3.7c-1-.8-1.9-1.6-3-2.2-.5-.3-1-.5-1.6-.7q-1.1-.5-2.3-.8c-.9-.3-3.5-1.1-3.6.6-.1.8.7 1.5 1.2 2.1.9 1 2.2 1.8 3.4 2.6 2.4 1.5 5 2.6 7.3 4.3 4.3 2.9 8.5 7 8.3 12.6q0 1.1-.3 2.1l.6-.4c-1.8 0-3.2-1.8-4.1-3.1-1.1-1.6-1.9-3.4-3-5-.4-.7-1.3-.1-1 .6 1.1 2.7 2.3 5.3 3.3 8.1.8 2.6 1.3 5.4 2.1 8.1.4 1.5 1 2.9 1.7 4.3.2.4 1 .4 1.1-.1.3-2.1-.5-4.1-1.3-6-.7-1.9-1.7-3.8-2.5-5.6-.9-2.2-1.6-4.4-2.4-6.5-.9-2.3-1.9-4.6-3.2-6.6-1.4-2.4-3.3-4.5-5.6-6-.3-.3-.8.1-.9.5 0 1.7 1.7 3.2 2.9 4.2 1.3 1.2 2.9 2.1 4.2 3.3.5.6 1.3-.2.8-.8-1.5-1.9-3.1-3.8-4.9-5.3-1.6-1.4-3.7-2.4-4.9-4.3q-.3.4-.6.9c1.4.5 2.7 1.4 4 2.1 1.4.8 3 1.3 4.6 1.3.4 0 .7-.4.6-.7-.5-1.4-1.7-2.5-2.8-3.4q-1.7-1.3-3.7-2.3c-.3-.1-.7 0-.8.4-.2.4-.3.9-.1 1.3.2.4.6.5.9.6.4.2.8.3 1.2.4q.7.4 1.4.9c1.9 1.2 3.6 2.7 5.8 3.5.6.2 1-.8.4-1.1-1-.6-2.1-1.2-3.2-1.7s-2.2-1-3.4-.9c-.4 0-.7.3-.6.7.2 1 .9 1.7 1.6 2.3.7.6 1.3 1.2 1.3 2.1q.4-.2.9-.5c-.3-.2-.2-.2 0-.4 0-.1-.1-.1 0-.1h.2q.1 0 .3.1c.5.1.9.4 1.2.8.9.8 1.6 1.8 2.7 2.3.5.3 1.1-.2.8-.8-.2-.4-.6-.7-.9-1.1q-.7-.7-1.4-1.3c-.4-.5-.8-.9-1.1-1.4q-.1-.1-.2-.3c-.1-.1 0 0-.1-.2 0 0 0-.1 0 0v-.1c.1 0 0 0 0 .1q0-.1.1-.2-.4.1-.8.3c1.1.5 2 1.4 2.7 2.4.8 1 1.5 2.2 2.2 3.4 1.6 2.7 2.9 5.6 3.9 8.6q.8 2.7 1.4 5.5.3-.3.6-.7h-.1c-.1-.1.1 0 0 0q-.1-.1-.2-.1c.1.1-.1 0-.1 0q0-.1-.1-.1c-.1-.1 0 0-.1 0-.3-.3-.5-.6-.7-.9-.7-1-1.1-2-1.5-3.1-1-2.4-1.6-4.9-2.3-7.4q-.3-1.2-.5-2.4-.3.3-.6.7c.1 0 0 0 0 0h.1c0 .1 0 0-.1 0q.1 0 .1.1c.1 0 .2.1.4.3q.4.4.8 1c.6.7 1.1 1.5 1.6 2.3 1.3 1.9 3.1 3.4 4.4 5.3.7 1.1 1.3 2.3 1.3 3.6l1-.4c-1.5-1.3-2.2-3.4-3.1-5.1-1.1-2-2.3-3.9-3.1-6-.4-1.2-.6-2.5-.6-3.8q-.4.3-.9.5c.9.4 1.5 1.2 2 1.9.6.8 1.2 1.7 1.7 2.6.7 1 1.5 1.9 2.2 2.9q1.2 1.7 2.4 3.5c1.4 2.2 2.9 4.5 4.1 6.9 1.1 2.3 2 4.8 2.8 7.2.3.9.7 1.9.9 3 .2.9.4 2.1-.1 3q.5-.1 1-.1c-2.5-2.6-3.6-6.1-5-9.2-1.6-3.7-3.6-7.3-5-11.2-.7-2.2-1.3-4.4-1.5-6.7l-1 .4c1.4 1.6 2.5 3.5 3.4 5.4q1.6 2.9 3.1 5.9c2.1 4.3 4.1 8.7 5.9 13.2q.9 2.3 1.6 4.8c.7 2.3 1.3 4.8 1.4 7.2.1 1.2.1 2.2-.3 3.2-.1.3-.4.7-.7.9.1-.1-.1.1-.2.1v.1c-.2.1 0 0-.1 0q-.2.1-.4.1h-.1c.1 0-.1.1-.1.1q.2.1.5.3c-1.1-2.3-1.5-4.7-2.3-7.1-.8-2.4-2-4.7-3-7q-1.6-3.4-3.1-6.8c-.9-2.3-1.9-4.6-2.6-7q-.6-1.9-.9-3.8c-.2-1-.4-2.1.5-2.9q-.4 0-.8.1c2 1.4 3.4 3.5 4.6 5.6 1.2 2.3 2.1 4.7 2.9 7.2.8 2.4 1.5 4.8 2.2 7.2 1 3.3 2 6.5 2.7 9.9.3 1.6.7 3.3.9 5.1.2 1.5.2 3.2-.7 4.5q.4-.1.7-.2c-.8-.3-1.2-1.4-1.5-2.1-.4-1-.9-2.1-1.4-3.1-.6-1.3-1.3-2.6-1.9-3.9l-.8-1.6v-.1q0-.1-.1-.2l-.2-.4c-1.3-3.3-2.5-6.7-3-10.1-.2-.9-.3-1.8-.2-2.6 0-.7.1-1.3.4-1.8h-1c2.1 3.6 3.7 7.5 4.6 11.6.7 2.7 1.1 5.5.5 8.3-.2 1.3-.6 2.7-1.8 3.3h.6c-3.4-1.6-7.5-5-6.7-9.2.3-1.3.9-2.4 1.7-3.4l-.4.2c.6-.1 1 0 1.5.4.4.3.9.8 1.2 1.3.8 1.3 1.3 2.8 1.6 4.3q.3 1.1.3 2.1.1.5 0 .9v.3q0 .2-.1.4c-.4 1.8-2.5 3.4-4.4 3.3-.7 0-1.5-.2-2.2-.6-.4-.1-.7-.4-1-.6-.3-.3-.4-.5-.3-.8q-.2.2-.3.5c2-1.5 4.9-.7 7.1.1 1 .3 2.2.6 3 1.3q.4.3.4.7c0 .3-.2.7-.4 1.1-1.4 2.1-3.9 3.2-6.2 3.9-2.1.7-4.3 1-6.6 1.2-1.4.1-2.8.2-4.2.1-1.1 0-2.4-.1-3.4-.6l.2.8c.5-.9 1.6-1.3 2.5-1.6 1.1-.4 2.2-.6 3.2-1.1 1.1-.5 2.2-1.2 3.3-1.8 1.1-.6 2.3-1.1 3.5-1.2l-.4-1c-1.7 1.4-3.9 2-5.9 2.6l-3 .8c-1 .3-2 .6-3 .7-1.2.1-2.3-.1-3.2-1q.1.2.2.5v-.2q.1-.1.1-.2c0 .2.1-.1.1-.1q.1-.2.1-.3c.3-.3.5-.6.9-1 .8-.8 1.7-1.4 2.6-2q1.6-1 3.3-1.7c.9-.4 2-.8 3-.9h.7c.3 0 .3 0 .6.1l.4.2c.2.1 0-.1.1 0q0 .1.1.1c.1.2 0 .1.1.2q.1-.3.1-.7c-1.5 1.6-3.4 2.8-5.4 3.6-1.9.8-4 1.5-6.1 1.3l.6.4c-.7-1.7-.1-3.6.8-5.2 1.1-1.8 2.7-3.4 4.5-4.5 1.6-.9 3.5-1.6 5.3-1.1 1.7.6 2.2 2.3 2 3.9-.2 2-1.2 4.1-2.7 5.4l.6-.2H65c.1.1.1 0 0 0-.1-.1.1.1 0 0l-.1-.1c.1.2 0-.1 0-.1q-.1-.1-.1-.3c-.2-.5-.2-1-.2-1.5 0-1.2.1-2.4.2-3.5.2-1.4.2-2.8.3-4.2.2-2.1.5-4.1 1-6.1.6-2.2 1.4-4.4 2.7-6.4q-.3.2-.5.3h.2q.2.1.4.1c.1 0-.1 0 0 0q.1.1.2.1.1.1.2.1v.1c.1.1-.1-.1 0 0 .6.4.8.8 1.1 1.4.8 1.4 1.2 3 1.5 4.7.3 1.9.5 3.8.4 5.7 0 1.7-.2 3.3-.7 5q-.1.2-.2.5c-.1.1 0-.1 0 0q-.1.1-.1.2t-.1.2q-.1.2-.3.4c0 .1-.1.3 0 .2q-.1.1-.2.1-.1.2-.3.3l-.1.1-.1.1c-.2.1 0 0-.1 0q-.1 0-.2.1h-.3l.4.2q0-.1-.1-.2c-.1-.1 0 .1-.1-.1q-.1-.1-.2-.3c-.2-.4-.2-.5-.4-.9q-.4-1.2-.6-2.4c-.2-1.8-.3-3.6 0-5.4.1-.8.3-1.7.6-2.4q.2-.5.5-.9c.1-.2 0 0 .1 0v-.1l.2-.2.2-.2.1-.1c.5-.3 1.1-.5 1.7-.3.8.2 1.3.8 1.6 1.4.3.8.4 1.8.2 2.7-.1.4-.3.8-.6 1.1-.2.3-.5.5-.8.6h.2c.1.1 0 0-.1 0 0-.1.1 0 0-.1q-.1 0-.1-.1s-.1-.2-.2-.2c-.1-.2-.1-.2-.1-.3-.2-.6-.2-1.2-.2-1.8q0-1 .3-2c.1-.3.1-.5.3-.7.1-.3.1-.3.3-.5 0 0 .2-.1.1 0l.1-.1h.5c.1.1-.1 0 0 0 .1.1 0 0 0 0l.1.1c.1.1 0 0 0 0q.1.1.1.2s.1.1 0 0q0 .1.1.2v.3c.1.1 0-.1.1.1v.6q0 .4-.1.9c0 .6-.2 1.2-.3 1.8-.2.6-.4 1.4-.7 1.9q-.1.4-.3.8-.1.1-.2.3c-.1.1 0-.1 0 0q-.1 0-.1.1.2-.1.5-.2c-.9-.4-1.3-1.3-1.3-2.3 0-.8-1.2-.8-1.2 0z"/><path class="d" d="M50.2 125.4c1.3 1.4 3.4 1.4 5.2 1.1.9-.1 1.8-.3 2.7-.5 1-.2 2-.3 3-.6q2.1-.5 4.1-1.4c.2-.1.3-.4.3-.6-.1-.3-.3-.4-.6-.5-3-.4-5.7 1.1-8.2 2.5-1.7 1-3.6 1.6-5.3 2.7-.8.5-1.7 1.2-2.1 2.2-.1.2.1.5.3.6.7.4 1.6.5 2.4.5 1.1 0 2.2-.2 3.3-.5 2.2-.6 4.5-1.5 6.3-2.9.8-.6 1.6-1.4 1.8-2.4.1-.3-.1-.6-.4-.7-2.2-.8-4.7-.3-6.9.5-2.2.7-4.3 1.8-6.5 2.6-.6.2-.5 1.2.2 1.2 1.6-.1 3.2-.2 4.8-.2 1.6 0 3.3 0 4.8.5q-.1-.5-.3-1c-1.4 1.5-3.5 2.2-5.5 2.7-1 .2-2 .5-3 .8-1.2.3-2.3.8-3.4 1.3q-2.2 1-4.2 2.2c-.6.4 0 1.4.6 1.1.9-.5 1.8-.6 2.8-.5l-.4-1c-1.2 1.1-2.7 1.5-4.1 2.1-1.6.6-3 1.5-3.9 2.9-.3.5.2 1 .7.9 1.5-.4 2.6-1.6 3.9-2.4 1.4-.8 3-1.2 4.5-1.5 3.6-.7 7.1-1.2 10.6-1.8.9-.2 1.9-.3 2.8-.6.7-.2 1.5-.5 2.2-.8 1.6-.8 3.2-1.4 4.8-2 1.7-.6 3.5-1.1 5.1-1.7 1.6-.5 3-1.2 4.7-1.2 1.7 0 3.5.4 5.2.5 1.6.2 3.4.3 5-.3.3-.1.4-.3.4-.5.1-2-1.9-2.7-3.5-3.1-2.4-.4-5-.4-7.5-.2-2.3.1-4.6.4-6.9.6-2.4.3-4.8.5-7.1 1-3.8.8-7.8 2.3-10 5.7-.3.3 0 .8.3.9 6.2 1.5 12.9.3 18.6-2.6.6-.3 1.3-.7 1.9-1.1.6-.5 1.2-1 1.8-1.4.3-.2.6-.3.9-.4.5 0 .9.1 1.3.1.9-.1 1.7-.4 2.5-.6.8-.3 1.5-.3 2.4-.2.4.1.8.1 1.2.1.4 0 1 0 1.3-.2.4-.4.4-1.3.4-1.8q-.1-.9-.5-1.7c-1.1-2.5-3.6-4-5.4-6.1q-.4.5-.8.9c.6.7 1.4 1.3 2.1 2 .6.7 1.3 1.5 1.7 2.4.2.2.3.6.3.9-.1.2-.2.3-.5.5-.8.4-1.7.8-2.7 1-2.1.5-4.3.6-6.4 1-1.4.3-2.8.5-4.2.8-1.5.4-3.3 1-3.9 2.6-.1.3.1.6.4.7 2.8 1.2 5.7 1.2 8.7.6 2.7-.6 5.4-1.6 8.1-2.2 1.6-.3 3.2-.5 4.8-.4v-1.2h-.7c-.7 0-.7 1.2 0 1.2h.7c.8 0 .7-1.1 0-1.2-2.9-.2-5.7.5-8.4 1.3-2.6.8-5.3 1.7-8 1.7q-2.5 0-4.9-.9.2.4.4.7.1-.3.4-.5l.8-.6c.7-.3 1.4-.5 2.2-.7 1.5-.3 3-.6 4.5-.8 2.2-.5 4.5-.5 6.6-1.2.9-.2 1.9-.6 2.6-1.2.6-.5.8-1.3.5-2.1-.3-1.1-1.1-2-1.8-2.8-.8-.9-1.7-1.6-2.5-2.5-.5-.5-1.3.3-.8.9 1.1 1.3 2.6 2.4 3.8 3.7 1 1.2 2.1 2.7 1.5 4.4l.4-.4c-1.1.2-2.2-.2-3.3-.1-1.1.1-2.2.6-3.3.8-.5 0-1.1-.1-1.6 0q-.8 0-1.4.5c-.9.6-1.6 1.3-2.5 1.8-3.6 2.1-7.7 3.4-11.8 3.7-2.4.1-4.8 0-7.1-.6q.2.4.4.9c1.8-2.8 5.1-4.2 8.2-4.9 2.4-.6 4.9-.8 7.3-1.1 2.1-.3 4.2-.5 6.3-.7 2.4-.1 4.9-.3 7.3 0 .5.1 1.1.2 1.6.3q.4.1.7.2c.3.1.3.1.5.2q.2.1.3.2l.1.1c.1.1 0-.1 0 0q.1.1.3.2v.1c.1.1 0-.1 0 0l.2.2v.1c0 .1.1.4.1.2v.3l.4-.6c-1.4.5-2.9.4-4.4.3-1.6-.2-3.1-.4-4.7-.5-.7-.1-1.5-.1-2.2 0-.9.2-1.7.5-2.5.7-.7.3-1.5.7-2.3.9l-2.6.8c-1.7.6-3.5 1.2-5.1 1.9-1.5.7-3 1.4-4.6 1.7-1.9.4-3.8.6-5.6.9-1.8.3-3.5.7-5.2.9-1.8.4-3.6.7-5.3 1.5-1.5.8-2.7 2.2-4.3 2.6q.3.5.6.9c.9-1.3 2.2-2 3.7-2.6 1.5-.5 2.9-1 4.1-2.1.5-.4.1-1-.4-1-1.2-.2-2.3 0-3.4.5q.3.5.6 1.1c2.2-1.4 4.6-2.7 7.1-3.4 2.1-.7 4.3-1 6.3-1.8 1.1-.5 2.1-1.2 3-2.1.3-.3.2-.8-.3-1-3.2-.9-6.7-.4-9.9-.3q0 .6.1 1.1c2.2-.7 4.2-1.7 6.3-2.5 2.1-.7 4.4-1.3 6.5-.6q-.2-.3-.4-.7-.1.1-.1.2c0 .1 0 0-.1.2q-.1.2-.3.4c-.1.3-.5.6-.8.9-.7.6-1.6 1.1-2.5 1.5-1.9.9-4 1.5-6 1.7H51q-.1 0-.1-.1h-.3q-.2-.1-.3-.1c-.1 0 .1 0 0 0q-.1 0-.1-.1.1.4.2.7c.3-.6 1-1.1 1.6-1.5.9-.5 1.8-1 2.7-1.4.8-.4 1.6-.7 2.3-1.1 1.2-.6 2.2-1.3 3.4-1.8 1.5-.6 3-.9 4.5-.7q-.1-.5-.3-1.1-1.6.7-3.3 1.2l-3 .6c-1.6.3-3.3.8-5 .7-.8-.1-1.6-.3-2.2-1-.5-.5-1.4.3-.9.9z"/><path class="d" d="M43.6 134c1.3 2 4.1 1.7 6.2 1.4 1-.1 2-.4 3.1-.6 1.6-.3 3.2-.2 4.8-.4 3.5-.3 6.7-1.9 9.9-3.2 1.6-.7 3.3-1.2 5-1.5 1.8-.3 3.5-.4 5.2-.6 1-.1 1.9-.2 2.8-.5.8-.2 1.6-.6 2.4-.9 1.6-.6 3.3-1.3 5-1 .3.1.6 0 .7-.3.1-.2 0-.6-.2-.7-.8-.4-1.6-.7-2.3-1.3-.6-.5-1.1-1.1-1.5-1.8-.6-.8-1.1-1.7-1.7-2.5-.7-.9-1.5-1.7-2.2-2.5-.8-.9-1.6-1.8-2.1-2.9l-.8.8c1.3.8 2 2.3 2.7 3.6.8 1.4 1.6 2.8 3 3.5.5.3 1.2-.3.8-.8-.3-.5-.4-1-.7-1.5-.4-.7-1.4-.1-1 .6.3.5.4 1 .7 1.5l.8-.8c-1.3-.7-2.1-2.1-2.8-3.4-.7-1.4-1.5-2.8-2.9-3.7-.5-.3-1.1.3-.8.8 1 2 2.7 3.5 4.1 5.2 1.2 1.5 2 3.3 3.4 4.6.8.7 1.7 1.2 2.7 1.6q.2-.6.4-1.1c-3.1-.6-5.8 1.4-8.8 2.1-1.6.4-3.4.4-5 .6-1.8.2-3.5.5-5.1 1-3.3 1-6.3 2.7-9.6 3.6-1.7.4-3.4.4-5.1.5-1.2.1-2.4.4-3.6.6-1.3.2-2.5.4-3.8.4-.9 0-2.1-.1-2.7-1-.4-.6-1.5 0-1 .6zm-6.6 8q-.3-.3-.6-.7l-.2 1c1.5-.7 3.3-.6 4.9-.4 1.7.2 3.4.6 5.1.8 1.8.3 3.7.4 5.5.5q2.8.2 5.7.2c7.6-.2 15.3-1.4 22.4-4.2 4-1.5 7.7-3.6 11.1-6.2.3-.2.4-.5.2-.8-.1-.2-.5-.4-.8-.2-6 4.6-13.2 7.5-20.6 8.9-7.4 1.5-15.1 1.6-22.5.8-1.9-.2-3.8-.7-5.6-.9-1.9-.3-4-.4-5.7.3-.5.2-.6.6-.3 1l.6.8c.2.2.6.2.8 0 .3-.3.2-.6 0-.9zm90.3-126.2q0 .3-.1.5c0 .5.6 1.1 1 .6.3-.3.5-.4.8-.4.4.1.7.4 1 .7.6.5 1.1 1.2 1.7 1.8.7.6 1.5 1.1 2.2 1.7.3.3.7.6 1 1 .2.3.3.5.3.8-.1.3.3.6.6.6s.5-.3.6-.6c0-.8-.5-1.5-1-2-.6-.7-1.4-1.2-2.1-1.7-.6-.4-1-.9-1.5-1.4-.5-.7-1.1-1.3-1.8-1.7-.9-.5-1.9-.4-2.6.4q.5.2 1 .5 0-.2.1-.5c0-.3-.1-.6-.5-.7-.2-.1-.6.1-.7.4zm-70.6 89.9c-.6-.1-1.3-.1-1.8 0-.6.1-1 .5-1.5.8-1.2.9-2.2 2.2-3.3 3.4q.5.3 1 .7c.6-1.1 1.6-2.2 1.5-3.5 0-.4-.2-.6-.5-.6-2.5-.3-3.4 2.7-4.3 4.4q.5.2 1.1.4.6-1.9 1.7-3.7c.6-1.1 1.4-2.3 2.5-3.1q-.5-.4-.9-.7c-1.3 1.8-2.6 3.8-4.6 4.8q.4.4.8.7c1-2.8 3.6-4.6 4.9-7.2.3-.5-.3-1-.8-.8-1.4.7-2.5 1.8-3.5 3-.4.5-.8 1.1-1.1 1.7-.3.6-.7 1-1.3 1.2q.4.3.7.6c.2-1.2 1.3-2.2 2.3-2.6q-.4-.5-.8-.9c-.6 1.4-1.6 2.4-2.5 3.5-1 1.1-1.9 2.3-2.4 3.7-.3.6.5 1 .9.6 2.7-2.6 4.9-5.6 7.6-8q-.4-.4-.8-.9c-1.8 1.7-3.8 3.1-5.3 5-.6.7-1 1.5-1.5 2.2-.5.7-1 1.3-1.9 1.5l.8.6q0-.9.4-1.6c.3-.6-.5-1.2-.9-.7-1.5 1.5-3.7 2.6-4.4 4.7-.3.7-.2 1.5 0 2.2.2.8.6 1.6 1.2 2 .9.6 1.8 0 2.3-.7l-.8.2c.1 0-.1.3-.1.4-.4.6.6 1.2 1 .6.4-.8.4-1.6-.3-2.1-.3-.1-.7 0-.8.3-.1.1-.3.3-.4.3-.1.1-.1 0-.1.1 0-.1 0 0 0 0l-.2-.2c-.1-.1-.2-.1-.3-.3-.3-.6-.5-1.4-.5-2.1 0-.1.1-.2.1-.4q.2-.3.3-.6c.4-.5.8-.9 1.2-1.3.8-.8 1.8-1.5 2.6-2.3q-.5-.4-.9-.7-.6 1-.6 2.2c0 .4.4.7.7.6 2.1-.5 2.7-2.5 3.8-3.9 1.5-2 3.6-3.5 5.4-5.1.6-.5-.3-1.4-.8-.9-2.8 2.5-5 5.5-7.6 8.1q.5.2 1 .5c1-2.6 3.6-4.3 4.8-6.9.2-.5-.3-1-.8-.8-1.4.6-2.7 2.1-2.8 3.7-.1.4.4.6.7.5 1.5-.4 1.9-1.8 2.8-2.9.9-1.3 1.9-2.4 3.4-3.1l-.8-.8c-1.4 2.7-4 4.6-5 7.5-.2.5.4.9.9.6 2.1-1.1 3.6-3.3 5-5.2.1-.3 0-.6-.2-.8-.2-.2-.5-.2-.8 0-1.1.9-1.9 2.2-2.7 3.4q-1 1.9-1.8 4c-.2.6.8 1.1 1.1.5.5-.9.8-1.8 1.3-2.6.5-.7 1-1.3 2-1.2l-.6-.6c0 1.1-.9 2-1.5 2.9-.3.6.5 1.2 1 .7 1-1 1.8-2.3 3-3.1.3-.3.7-.6 1.1-.7.4-.1 1.1-.1 1.6-.1.7.1.7-1.1 0-1.1z"/><path class="d" d="M45.6 71.2c1.1 2.4 3.3 4.4 3.8 7.1l1-.6c-.8-.9-1.8-1.6-2.7-2.4-.9-.7-1.8-1.5-2.4-2.6q-.3.5-.6.9c1 .4 1.9 1.2 2.7 2 .9.9 1.7 1.9 2.5 2.9 1.9 2.2 4 4.2 5.9 6.4q.5-.4.9-.8c-2.1-2.1-3.6-4.7-5.4-7.1-.9-1.1-1.9-2.2-3.1-3.1-1.3-1-2.8-1.6-4.3-2-1.8-.5-3.7-.9-5.3-1.9q-.1.6-.3 1.2h1.2v-1.1q-1-.1-2.1-.1v1.2c3.2-.3 6 1.2 8.8 2.6 2.1 1.1 3.7 2.9 5.2 4.8.8 1 1.5 2.1 2.1 3.3q.4-.4.9-.7c-2.8-2.5-5.1-5.4-8.1-7.7-.5-.4-1.2.5-.7.9 2.1 2.2 4.4 4.4 6 7.1.6 1.1 1.1 2.2 1.4 3.4.2 1.1.4 2.3.8 3.4.4 1.2 1 2.3 2.1 3 .4.2.8-.1.9-.5.1-2.5-1.7-4.6-3.1-6.5-1.6-2.2-3-4.6-4.5-6.8-1-1.4-2-2.7-3.1-3.9-.5-.5-1.2.2-.9.7.9 1.8 2.1 3.3 3.1 5 1.1 1.7 1.8 3.5 2.4 5.4.6 1.9 1.1 3.8 1.5 5.8q.8 3.1 1.2 6.3c.1 1 .1 1.9.1 2.9.1 1 .2 2 .8 2.7.3.4.9.4 1.1-.1.7-2.5.4-5.2 0-7.7-.5-2.8-.9-5.6-1.6-8.3l-1.4-5c-.2-.5-.7-.6-1-.3-.8.7-.9 1.9-.8 2.9.2 1.1.5 2.2.6 3.3.1 1.6 0 3.2 0 4.7q-.1 2.4-.1 4.7c-.1 1.8-.1 3.6-.3 5.4-.1.3 0 .6.4.7.3.1.7-.1.7-.4q.3-1.7.9-3.4c.4-1 .9-2.1 1.8-2.9q-.5-.2-1-.3c.6 2-.1 4-1 5.8-1 2-2.4 3.9-3.8 5.8-.6.9-1.2 1.9-1.8 2.9-.3.6.7 1.2 1.1.6 1-2 2.4-3.7 3.6-5.6 1.3-1.9 2.7-4 3.1-6.3.3-1.1.3-2.4-.1-3.5-.1-.4-.6-.6-1-.3-.9.9-1.5 2.1-1.9 3.3q-.7 1.7-1 3.6.5.1 1.1.3c.4-3.1.3-6.1.4-9.2.1-1.5.2-3.1.1-4.6 0-1.3-.2-2.5-.4-3.7-.2-.8-.5-2.3.2-3l-1-.2c.9 2.8 1.7 5.7 2.2 8.6.3 1.3.5 2.6.7 3.9.2 1.2.4 2.5.5 3.8.1 1.3 0 2.7-.4 4.1q.6-.1 1.1-.2c-.5-.6-.6-1.4-.6-2.2 0-.9 0-1.7-.1-2.6q-.4-3.1-1.1-6.2c-.8-3.9-1.8-8-3.7-11.4-1.1-2-2.6-3.7-3.6-5.6q-.4.3-.9.7c1.9 2 3.4 4.3 4.9 6.6l2.1 3.3c.7.9 1.4 1.9 2.1 2.8.7 1.1 1.2 2.3 1.2 3.6q.4-.3.9-.5c-.9-.6-1.3-1.5-1.6-2.4-.4-1.1-.6-2.3-.8-3.4-.7-2.7-2.3-5.1-4.1-7.2-1.1-1.3-2.4-2.5-3.6-3.7q-.3.4-.7.9c2.9 2.2 5.2 5.1 7.9 7.5.5.4 1.2-.1.9-.7-.5-1.1-1.2-2.1-1.9-3.1q-1.3-1.6-2.7-3.1c-.8-.8-1.7-1.6-2.7-2.1-1.5-.7-2.9-1.5-4.4-2.1-1.7-.6-3.6-1.1-5.4-.9-.8 0-.8 1.1 0 1.2h2.1c.8.1.8-1.1 0-1.1q-.6-.1-1.2-.1c-.6-.1-.8.8-.3 1.1 2.8 1.6 6.3 1.6 9 3.4 2.5 1.6 4.1 4.2 5.7 6.5 1 1.4 2 2.7 3.1 3.9.6.5 1.4-.3.9-.8-2-2.3-4.2-4.4-6.1-6.7-1.6-1.9-3.2-4-5.6-5-.5-.2-.9.5-.7.9 1.3 2.2 3.6 3.5 5.3 5.2.4.5 1.1 0 1-.6-.6-2.8-2.8-4.8-4-7.3-.1-.3-.5-.4-.8-.3-.3.2-.3.6-.2.9z"/><path class="d" d="M43.3 110.8c1.4-.6 2.5-1.7 3.5-2.8 1.1-1.2 2-2.4 2.9-3.8.7-1 1.3-2.2 2-3.3.7-1.2 1.5-2.4 2.1-3.7.6-1.3 1.3-2.8 1.2-4.2 0-.8-1.1-.8-1.2 0v.6c-.1.8 1.1.8 1.2 0V93h-1.2c.1 1.1-.4 2.2-.9 3.3-.6 1.2-1.3 2.4-2 3.6-1.4 2.4-2.7 4.7-4.5 6.8-1.1 1.2-2.2 2.4-3.6 3.1-.7.3-.1 1.4.5 1zm31.7 23q0 .3-.1.6 0 .1.1.2 0 .1.1.2t.2.1.2.1h.2q.1-.1.3-.2v-.1q.1-.2.1-.3v-.8q0-.1-.1-.2t-.2-.1-.2-.1q-.1 0-.2.1-.2 0-.3.1 0 .1-.1.1v.3q0 .3-.1.6 0 .1.1.2 0 .1.1.2t.2.1.2.1h.2q.1-.1.3-.2v-.1q.1-.2.1-.3v-.8q0-.1-.1-.2t-.2-.1-.2-.1q-.1 0-.2.1-.2 0-.3.1 0 .1-.1.1v.3z"/><path class="d" d="M50.3 116.3q-.2 0-.4-.1.2.3.4.5c-.1-.7-.3-1.5-.9-1.9-.6-.3-1.2-.1-1.7.2-1 .7-1.7 1.9-2.8 2.4q.4.2.9.4l-.2-.6c0-.3-.4-.5-.7-.4-.8.2-1.5.6-2.1 1.1q.5.4 1 .7c.2-.3.4-.7.5-1.1.1-.5-.4-1-.9-.7-.5.3-1 .7-1.6 1q.3.5.7.9c.5-.5 1-1 1.2-1.8q0-.4-.3-.6c-.1-.1-.4-.3-.3-.5l-1 .2c.2.1.4.3.4.6s-.1.5-.2.8c-.2.3-.1.8.3.8 1.1.2 2-.9 2.6-1.6.7-.9 1.3-1.7 1.8-2.7.2-.3 0-.7-.3-.8-2.5-.5-3.7 2.8-4.3 4.7q-.6 1.9-.9 3.9-.1.8-.2 1.7c-.1.3-.2.8-.1 1.2.2.4.8.6 1.2.6.4-.1.7-.3.9-.6.5-.6.7-1.2 1.1-1.8q-.5-.2-1.1-.5c-.1.5-.3 1-.5 1.4q-.4 1-.7 2c-.3 1-.7 2.8.7 3.1.2 0 .4 0 .6-.2 1.2-1.5 1.8-3.4 2.5-5.2q.4-1.2.9-2.5c.2-.8.5-1.6 1.1-2.3l-1-.4c.1 1.9-.2 3.7-.3 5.5-.1 1.9-.1 3.8-.2 5.6-.1.3.3.6.6.6s.5-.3.5-.6c.6-4.2 2-8.3 3.1-12.3l-.6.4c-.1 0-.3-.1-.3-.1v-.1s.1.3 0 0v.2q.1.3.2.7.2 1.1.3 2.2.2 1.2.4 2.3c.1.5.2 1.1.5 1.5.3.5 1.1.3 1.1-.3.1-1.6-.9-3.6.1-5.1q-.5-.1-1.1-.2c1 3 .8 6.2 1.7 9.2.1.3.4.6.7.4.8-.2.9-1.1 1-1.8 0-.8 0-1.6-.1-2.4 0-1.2.1-2.4.1-3.6 0-1.5.1-3 .2-4.5q-.4.2-.9.5c.5.3.6.7.6 1.2.1.8.4 1.5.5 2.3.3 1.1.6 2.3.8 3.4.1.9.2 1.9.4 2.7.2.8.6 1.7 1.4 2 .4.2.7.1.8-.3.9-2.1.7-4.4.4-6.6-.2-1.9-.1-4-.9-5.8-.1-.2-.4-.4-.7-.3-.3.1-.4.3-.4.6-.2 1.3.4 2.5.7 3.7q.5 2 .7 4c.4 2.5 1 5 2.1 7.3.3.5 1 .3 1.1-.1q.3-1 .3-2.1 0-.4-.1-.9c-.1-.4-.1-.7-.1-1.1q-.1-2.2-.2-4.3c-.2-2.9-.5-5.7-.7-8.5q-.2-2.5-.3-4.9-.5.2-1.1.3.4.7.5 1.4c0 .3 0 .6.1.9q.1.4.2.9.6 1.8 1.1 3.7 1 3.8 1.8 7.6v-.4c-.2.9 0 1.8.6 2.5.4.4 1 0 1-.5.3-2.7.2-5.4-.1-8.1q-.2-1-.3-2c0-.7 0-1.4-.2-2-.1-.4-.3-.7-.4-1q-.1-.4-.1-.8-.1-.9.2-1.8h-1.1c.8 4.4 1.6 9 3 13.3.1.3.3.4.6.5.9 0 1.1-1.2 1.1-1.9.1-1.3-.1-2.6-.3-3.9-.4-3.1-1.1-6.2-1.8-9.3-.2-.9-.4-1.8-.6-2.8q-.5.2-1.1.3c1.4 5.4 2.7 10.7 4.1 16 .1.5.8.7 1.1.2.2-.6.2-1.3.1-1.9q-.1-1.3-.4-2.6-.3-1-.5-1.9c-.3-1.1-.5-2.2-.7-3.3q-.4-2.4-.7-4.8-.6.1-1.2.1c.7 2.8 1.6 5.4 2.3 8.1.6 2.2.9 4.5 2.3 6.4.2.3.8.4 1 0 .6-1.2.6-2.4.1-3.6-.3-.7-.3-1.4-.5-2.1q-.2-1-.4-2.1-.4-2.1-.9-4.1c-.3-1.4-.7-2.7-.9-4.1-.3-1.5-.5-3-.3-4.5q-.6.1-1.1.3c2.5 5 3.5 10.7 5.2 16.1q.7 2.3 1.7 4.5c.2.5.9.3 1.1-.1.2-.7.3-1.4.2-2.2-.1-.7-.3-1.4-.4-2.1q-.5-2.3-1.1-4.5-1.1-4.4-2.1-8.8-.6-2.5-1.3-4.9c-.3-.7-1.1-.5-1.2.2q-.2 1.2.1 2.4c.2.7.6 1.4.8 2.2q.7 2.4 1.5 4.9c1.1 3.2 2.2 6.5 3.2 9.8 0 .2.1.4.1.6.1.2 0 .4 0 .6l.2 1c.3.6.8 1.1 1.4 1.5.4.2.8-.1.8-.5.2-3.6-.4-7.1-1.1-10.6q-.5-2.6-1-5.3c-.4-1.7-.8-3.4-1.4-5-.3-.9-.7-1.8-1.1-2.6-.3-.7-.9-1.5-.8-2.2q-.5.2-.9.5c.7.5 1.4 1.1 2.4 1.1.4 0 .7-.5.5-.9-.4-.8-1-1.5-1.1-2.3-.1-.4-.1-.8-.2-1.2q-.1-.7-.6-1.2c-.4-.5-1.3.2-.9.7 1 1.6 1.9 3.2 3.3 4.5.4.3.9 0 1-.5.1-.6 0-1.3-.2-2q-.2-.5-.5-.9c-.2-.3-.4-.7-.5-1.1q-1-2.1-2-4.3c-1.2-2.4-2.2-5-3.8-7.2-1.7-2.2-4.1-4-6.5-5.2-.6-.3-1.2-.6-1.6-1.1-.5-.4-.8-1-1.1-1.5-.7-1.2-1.3-2.4-2.1-3.5-.5-.7-1.1-1.1-1.9-1.5-.6-.3-1.1-1-1.6-1.6-.4-.4-.8-.6-1.2-.9q-.4-.2-.6-.5-.1 0-.2-.1c-.1-.2 0-.1 0-.1s0-.1 0 0l-.4.4c.4-.1.9-.2 1.4 0 .4.1.7.4 1 .7 1 .9 1.9 1.9 2.9 2.9 1 1.1 2.1 2.1 3 3.2.9 1.1 1.7 2.2 2.3 3.4.8 1.4 1.5 2.9 2.2 4.3q.4-.3.9-.7c-.3-.4-1-.8-1-1.3 0-.8-1.2-.8-1.2 0 0 .9.8 1.5 1.4 2.1.4.6 1.2-.1.9-.7-1.3-2.7-2.5-5.4-4.5-7.7-.9-1.2-2-2.3-3.1-3.4-1-1-2-2.1-3.1-3.1-.4-.4-.9-.8-1.5-.9-.7-.2-1.3-.1-2 .1-.1 0-.3.2-.4.4-.2 1 .9 1.7 1.6 2.2.5.2.7.5 1.1.9.5.5.9 1.1 1.5 1.4.7.3 1.2.7 1.7 1.3.4.6.7 1.2 1.1 1.9.6 1.1 1.1 2.4 2.1 3.2.9.9 2.3 1.4 3.4 2.1 1.2.8 2.3 1.7 3.3 2.7 2 2 3.1 4.5 4.3 7q1 2.3 2.1 4.6c.4.8.7 1.6 1.2 2.3q.6 1.1.4 2.2l1-.4c-1.2-1.2-2.1-2.7-3.1-4.2q-.4.4-.9.7c.2.3.3.7.3 1 0 .4.1.9.2 1.3.3.8.8 1.5 1.2 2.2q.2-.4.5-.9c-.7 0-1.3-.6-1.8-.9-.4-.3-.9 0-.9.5 0 .7.3 1.4.7 2.1.3.7.6 1.4.9 2.2.7 1.5 1.1 3.2 1.5 4.9.4 1.7.7 3.5 1.1 5.2.3 1.8.7 3.5.9 5.3.3 1.9.4 4 .4 6q.4-.3.9-.6-.7-.3-.9-1-.1-.4-.1-.8c0-.4-.1-.8-.2-1.2l-1.4-4.6q-1.6-4.6-3-9.3-.2-.7-.4-1.3c-.2-.4-.4-.8-.5-1.3q-.4-1.2-.2-2.4-.6 0-1.2.1c.9 2.8 1.5 5.6 2.2 8.5.7 2.8 1.5 5.7 2.1 8.6q.2 1.2.5 2.4t-.1 2.4q.6-.1 1.1-.2c-2.2-5.2-3.2-10.8-5-16.2q-.8-2.3-1.9-4.4c-.3-.6-1-.3-1.1.3-.2 2.6.4 5.3 1 7.9q.9 3.9 1.7 8c.1.3.1.7.3 1.1.1.3.3.6.3 1 .2.6.1 1.3-.2 1.9h1c-1.3-1.8-1.6-4.1-2.2-6.2-.7-2.7-1.6-5.3-2.3-8-.1-.6-1.2-.5-1.1.2.3 2.7.8 5.4 1.4 8.1l.9 3.9q.1.6.1 1.2v.6c0 .1-.1.2-.1.1q.6.1 1.1.1c-1.3-5.3-2.6-10.7-4.1-16-.2-.7-1.2-.4-1.1.3.4 2.1.9 4.2 1.3 6.3.6 2.8 1.2 5.7 1.3 8.5v1.2c0 .1 0 .1 0 0v.2q-.1.1-.1.2c0 .1.1 0 0 0v.1c-.1 0 .1-.1 0-.1-.1.1.1 0 .1 0h.1q.3.2.5.4c-1.4-4.4-2.1-8.9-3-13.4-.1-.6-1-.5-1.1 0-.5 1.5-.3 3 .3 4.4q0-.1-.1-.3c.5 4 1.1 8 .6 12l1-.4q-.3-.3-.3-.7c-.1-.3 0-.6 0-.9-.1-.7-.3-1.5-.5-2.2q-.4-2.2-1-4.3-.6-2.2-1.2-4.3-.2-.6-.3-1.2c-.1-.3-.1-.6-.1-.9q-.1-1-.7-1.8c-.3-.5-1.1-.3-1.1.3.2 5.6 1 11.2 1.2 16.8v1.2c0 .4.1.8.2 1.2q.1 1.1-.2 2.2.5 0 1.1-.1c-1.1-2.2-1.7-4.6-2-7q-.3-1.9-.7-3.8c-.2-.6-.3-1.2-.5-1.8q-.4-.9-.2-1.8-.6.1-1.1.3c.7 1.6.5 3.6.8 5.3.2 2.1.4 4.2-.4 6.2q.4-.2.9-.4c-.6-.2-.8-1.1-1-1.8-.2-.8-.2-1.7-.4-2.5-.2-1.4-.5-2.7-.8-4.1-.1-.3-.3-.6-.3-1 0-.3 0-.6-.1-.9q-.3-.8-1.1-1.3c-.4-.3-.8.1-.9.5q-.2 2-.2 4.1c0 1.2-.1 2.5-.1 3.7.1.7.1 1.3.1 2 0 .3 0 .7-.1 1q0 .2-.1.4c.1-.1 0 .1 0 .1l.1-.1.8.4c-1-3-.8-6.2-1.7-9.2-.2-.5-.8-.5-1.1-.1-1.2 1.8-.2 3.8-.3 5.7q.6-.1 1.1-.3c-.1-.2-.1-.2-.2-.5l-.2-1q-.2-1.2-.4-2.5l-.3-2.1c-.2-.5-.4-1.2-1-1.2-.3 0-.5.2-.6.4-1.1 4.2-2.5 8.4-3 12.7h1.1c.2-1.8.1-3.7.3-5.6.1-1.8.4-3.6.3-5.5 0-.5-.6-.8-1-.4-1.2 1.3-1.6 3.2-2.2 4.9-.6 1.7-1.1 3.6-2.4 5.1l.6-.2H43c0 .1 0 0 0 0s0-.1 0 0c0 0 0-.1 0 0v-.1c-.1-.1 0 .1 0 0q-.1-.2 0-.4c0-.4.2-1.1.4-1.6q.3-.8.6-1.7c.2-.3.4-.7.5-1.1.1-.7-.7-1-1.1-.5-.3.4-.4.8-.7 1.2-.1.2-.3.4-.4.5l-.1.1c-.1 0 .1.1 0 0l.2.4c0-1.5.3-2.9.6-4.3.4-1.7.9-3.7 2-5.1.2-.2.5-.5.7-.6q0-.1.1-.1c.1-.1 0 0 0 0q.1-.1.3-.1H46h.3c.1 0-.1 0 0 0q-.1-.4-.3-.8c-.4.7-.9 1.4-1.5 2.1l-1 1.2c-.2.1-.3.2-.5.3q0 .1-.1.1s.1-.1 0 0h.1q.1.4.3.9c.2-.5.4-1 .4-1.5s-.3-1-.7-1.4c-.3-.2-.8-.2-.9.1-.4.9 0 1.6.7 2.1q-.1-.3-.3-.7c-.1.5-.5.9-.8 1.3-.5.5.1 1.2.7.9.6-.2 1.1-.6 1.6-1q-.4-.3-.8-.7c-.1.4-.3.6-.5.9-.3.6.5 1.2 1 .7.4-.4 1-.6 1.5-.8q-.3-.2-.7-.4.1.3.1.6c.1.4.6.5.9.4 1-.6 1.7-1.5 2.5-2.2.2-.2.3-.3.5-.4.1-.1 0 0 .2-.1h.1c-.1 0 0 0 0 0 .1.1.1.1.1.2.1.3.2.6.3 1 0 .2.2.3.4.4q.2 0 .3.1c.8.2 1.1-1 .4-1.2z"/><path class="d" d="M55.9 77.9c0-.5.1-1 .3-1.4.2-.4.5-.9.9-1.1q-.4 0-.7-.1c.2.3.3.5.4.9.1.3.2.7.3 1 .3.6 1.1.3 1.1-.3v-1.1c0-.7-1.1-.7-1.2 0 0 .7.2 1.3.3 1.9.1.5.3 1.1.1 1.5h1l-.6-1c-.4-.7-1.4-.1-1.1.6.4.7.6 1.5.9 2.3.4.7.7 1.5 1.3 2 .4.3.9.2 1-.2.2-.8.3-1.7.5-2.5q-.4.2-.9.4.4.3.8.5c.7.3 1.3-.7.6-1.1l-.8-.4c-.3-.3-.7 0-.8.3-.2.8-.3 1.6-.5 2.4l1-.2c-.6-.5-.9-1.2-1.2-1.9-.3-.7-.5-1.5-.8-2.2q-.6.3-1.1.6.3.5.7 1c.2.4.8.4 1 0 .8-1.2-.2-2.7-.2-4H57v1.1q.6-.1 1.1-.3c-.3-.7-.2-1.5-.9-2.1q-.3-.3-.7-.1c-.6.3-1 .9-1.3 1.5-.3.6-.5 1.3-.5 2 .1.7 1.3.8 1.2 0zm-13.3-9.4c-.6.6-1.6.4-2.4.3-.8-.1-1.8-.3-2.6-.1-.3.2-.6.6-.4.9.9 1.2 2.4 1.6 3.8 2 1.5.4 3 1 4.1 2.2q.3-.5.7-.9c-.7-.5-1.3-.9-1.9-1.5l-.8.8c1 1.1 2.2 2.1 3.3 3 .5.4 1.4 1.2 2.1 1 1-.3.6-1.7.3-2.3-.5-1-1.4-1.9-2.2-2.6q-1.3-1.1-3-1.7c-1.1-.3-2.3-.4-3.4-.5-1.1-.1-2.4-.2-3.4.2-.6.2-1.1.6-1.6 1q-.9.7-1.8 1.3c-1.1.7-2.2 1.4-3 2.4l-1.2 1.5c-.5.5-1 .7-1.6 1-.6.2-1.1.6-1.5 1.1-.4.5-.7 1.1-1 1.6l-1 1.8c-.3.7-.8 1.3-1.2 2-.7 1.1-1.1 2.3-2 3.3-.9 1-1.9 2-2.9 2.9-1.9 1.8-3.9 3.6-5.6 5.7-1.8 2.2-3.2 4.8-4.3 7.4-1.3 2.9-2.4 5.8-3.6 8.6-1.1 2.7-2.4 5.4-2.8 8.3l-.3 2.1c-.1.8-.3 1.6-.3 2.3v2.3c0 .8-.1 1.5-.3 2.2-.4 1.5-.4 2.9 0 4.4.3 1.5.6 2.9 1 4.3.5 1.4 1.1 2.8 1.5 4.2.2.4.3.8.3 1.2.1.3 0 .7.1 1 .1.7.5 1.3.9 1.9.6 1.2 1.2 2.5 1.5 3.8.3 1.4.3 2.8.9 4 .6 1.4 1.6 2.5 2.4 3.7.8 1.2 1.8 2.4 2.7 3.5 1 1.1 1.8 2.2 2.5 3.5.7 1.2 1.4 2.3 2.3 3.3 1.9 2.2 3.9 4.3 6.3 6 2.4 1.7 5.1 2.8 7.5 4.5 1 .7 1.7 1.7 2.8 2.3.6.3 1.3.7 2 .6.9 0 1.2-.8 1-1.6-.2-.7-1.4-.4-1.2.3l.1.3c-.2-.2.3 0 0-.1l-.9-.3c-.9-.4-1.5-1.1-2.3-1.7-2-1.8-4.5-2.9-6.8-4.2-2.3-1.4-4.3-3.2-6.1-5.2-.9-1-1.9-1.9-2.6-3.1-.7-1-1.3-2.1-2-3.2s-1.6-2.1-2.5-3.2c-.9-1-1.7-2.2-2.5-3.3-.7-1.1-1.6-2.2-2-3.4-.3-1.3-.3-2.6-.7-3.8-.4-1.2-.9-2.4-1.5-3.5-.4-.6-.6-1.1-.7-1.8 0-.7-.2-1.3-.4-2-.4-1.3-1-2.6-1.4-4-.5-1.3-.8-2.6-1-4-.4-1.4-.4-2.7-.1-4.1.4-1.4.4-2.7.4-4.1 0-1.4.3-2.7.4-4.1.2-1.4.5-2.7 1-4.1.9-2.6 2.1-5.1 3.1-7.6 1.1-2.7 2.1-5.4 3.4-8 1.2-2.4 2.7-4.5 4.5-6.4 1.6-1.8 3.5-3.4 5.3-5.1.9-.9 1.8-1.8 2.5-2.8.6-1 1-2.1 1.7-3.1.8-1.1 1.4-2.4 2.1-3.6.3-.4.5-1 .9-1.4.4-.4 1-.6 1.6-.8 1-.6 1.7-1.5 2.4-2.4.9-1 1.9-1.7 3-2.4l1.4-1c.5-.4 1-.9 1.5-1.1 1-.4 2.2-.2 3.2-.1 1.2.1 2.3.2 3.3.6 1 .4 1.9 1 2.6 1.7.7.6 1.5 1.4 1.7 2.3v.4q.1-.2.3-.3l-.2-.1c-.4-.2-.7-.5-1.1-.8-1-.9-2-1.7-3-2.7-.5-.6-1.3.3-.8.8.6.7 1.3 1.2 2.1 1.7.6.4 1.1-.5.7-.9-1-1.2-2.5-2-4-2.4-.7-.2-1.4-.4-2-.6-.6-.2-1.3-.5-1.6-1q-.2.4-.4.9c.9-.3 2 0 2.9.1.9.1 2 .1 2.7-.6.5-.6-.4-1.4-.9-.9z"/><path class="d" d="M49.1 103.6c-1.7.1-3 1.6-4 2.8-1.2 1.5-2.1 3.3-3.3 4.7-.7.7-1.4 1.3-2.2 1.9-.8.6-1.5 1.3-2.2 2-.7.7-1.3 1.4-2.1 2-.8.6-1.3 1.4-2.1 2.1-.8.6-1.4 1.3-1.9 2.2q-.3.6-.6 1.3c-.2.4-.3.9-.5 1.4-.2.4-.5.7-.7 1.1-.2.5-.1 1-.2 1.5-.1 1-.4 2-.5 3.1-.1 1.1-.1 2.3-.1 3.4 0 1-.1 2 .2 3 .1.4.2.8.4 1.3.1.5.2 1.1.3 1.7q.1.7.3 1.5c.1.5.3 1 .5 1.5.3 1.1.3 2.3.9 3.3.3.5.6.8.9 1.2.4.4.6.9.8 1.4.2.8.6 1.4 1.1 2 .3.5.9 1.3 1.5 1.5.3.1.7-.1.8-.4.1-.4.2-.8.4-1.2.1-.4.2-.9.2-1.4.1-.9.5-1.7.6-2.6v-1.6c0-.5.2-1 .3-1.5.2-1 .3-2.1.5-3.1.2-1.1.4-2.2.4-3.3 0-1.1 0-2.2.2-3.3.4-2.2.8-4.4 1-6.7.1-2.5.1-5.1.2-7.7 0-.7-1.1-.7-1.2 0 0 2.3-.1 4.6-.2 6.9-.1 2.2-.4 4.4-.8 6.6-.2 1.1-.4 2.2-.4 3.3 0 1.1 0 2.2-.2 3.3q-.2.7-.3 1.4c-.1.5-.1 1.1-.2 1.6-.2 1-.5 2-.5 3.1 0 .6 0 1.1-.2 1.6l-.3 1.5c-.1.5-.1.9-.2 1.4-.2.5-.4.9-.5 1.4l.8-.4-.1-.1c-.1-.1.1.1 0 0q-.2-.1-.3-.3-.3-.3-.6-.7c-.4-.5-.7-1-.9-1.6-.1-.4-.3-.9-.5-1.3-.3-.4-.6-.7-.9-1.1-.6-.7-.8-1.6-1-2.5-.2-1-.5-1.9-.7-3-.2-.9-.4-1.9-.6-2.9-.3-.9-.6-1.6-.6-2.6q.1-1.6.1-3.2.1-1.5.4-3.1c0-.4.2-.9.2-1.4 0-.4-.1-.8.2-1.2.2-.4.5-.8.7-1.2.1-.4.3-.9.5-1.3.3-.8.7-1.7 1.3-2.4.4-.3.7-.5 1.1-.8.4-.3.7-.7 1-1.1.6-.7 1.4-1.2 2-1.8.7-.7 1.3-1.5 2-2.1.7-.6 1.5-1.1 2.2-1.7 1.6-1.3 2.6-3.2 3.8-4.9q.8-1.1 1.7-2c.5-.6 1.3-1.2 2.1-1.3.7 0 .8-1.2 0-1.2zm-15 78.3q.1-.6.1-1.2H33c-.1 2.6.1 5.3.1 7.9v4.1c-.1 1.3-.1 2.6-.2 3.9 0 1.1-.2 2.1 0 3.2.1.5.5.7.9.8q.5.1 1 0c1.2-.3 1.5-1.7 1.7-2.8.1-1.3-.1-2.6 0-3.9h-1.2c-.1 1.5.1 3.1-.2 4.6q.3-.3.7-.5c-.1 0-.2-.1-.3-.2q-.2-.2-.4-.5-.4-.7-.6-1.4-.2-.7-.3-1.5v-1.2s0-.1 0 0q-.6-.1-1.1-.2c-.1 1.1-.2 2.1 0 3.2.1 1.1.6 2 1.4 2.8 1.5 1.5 3.6 1.9 5.5 2.5 2.4.7 4.7.8 7.1.8 1.2 0 2.5.1 3.7 0 1.1-.1 2.3-.5 3.4-.7 1.2-.1 2.5-.1 3.6-.3 1.3-.3 2.4-.7 3.7-.8 1.2-.1 2.4-.2 3.6-.5q.9-.2 1.8-.2h1.9c2.6 0 5.2-.3 7.7-.9 1.2-.3 2.5-.7 3.8-.9.6-.1 1.2-.1 1.8-.3.6-.2 1.2-.4 1.9-.5 1.2-.3 2.4-.5 3.6-.9 1.2-.4 2.3-.9 3.4-1.4 1.1-.5 2.3-.8 3.4-1.2 1.2-.4 2.2-1 3.3-1.4 1.1-.4 2.1-1 2.9-1.8.8-.8 1.5-1.7 2.1-2.6 1.3-1.8.3-4.4-.4-6.2-.8-2.5-1.6-4.9-2.2-7.4-.4-1.3-.6-2.6-.8-3.9-.1-1.2-.3-2.5-.7-3.7q-.3-.8-.6-1.7c-.2-.6-.3-1.2-.3-1.8 0-.6.1-1.2.1-1.8l-.2-1.8c-.2-1.2-.3-2.5-.6-3.7q-.5-1.8-1.2-3.5c-.4-1.2-1-2.3-1.5-3.5-.5-1.1-.7-2.3-.9-3.5-.1-.6-.2-1.2-.4-1.8-.2-.5-.5-1.1-.7-1.6-.5-1.1-.7-2.2-.9-3.3-.3-1.2-.4-2.4-.6-3.6-.3-1.2-.7-2.3-1.1-3.4-.5-1.2-1.1-2.2-1.6-3.4-.4-.8-.6-1.7-1.1-2.5-.4-.8-1-1.5-1.8-1.9-.4-.2-.8.1-.9.5q0 .4-.1.7c0 .4.3.6.6.6.4 0 .6-.2.6-.6q.1-.3.1-.7-.5.3-.9.6c.8.3 1.2 1 1.6 1.7.3.9.6 1.8 1 2.6 1.1 2.1 2.2 4.3 2.5 6.6.2 1.1.4 2.3.6 3.4.2 1.1.5 2.2 1 3.3l.6 1.5c.2.6.3 1.2.4 1.7.2 1.2.4 2.3.9 3.4.4 1.2 1 2.3 1.5 3.4q.7 1.7 1.1 3.5c.3 1.2.5 2.3.6 3.5.2 1.2.2 2.3.1 3.5 0 .6 0 1.2.2 1.7.1.6.4 1.2.6 1.7.4 1.2.6 2.3.8 3.6.2 1.3.3 2.5.6 3.8l1 3.6 1.2 3.6c.4 1.1.8 2.3 1.1 3.5.1.8.2 1.8-.2 2.5-.2.4-.5.7-.8 1.1q-.5.6-1.1 1.3c-.4.4-.8.8-1.3 1.1-.5.3-1 .5-1.5.7-1.1.4-2.1.9-3.2 1.3s-2.2.7-3.3 1.2c-1.1.5-2.2 1-3.3 1.4-1.2.3-2.3.5-3.5.8-1.2.3-2.3.7-3.6.8-2.5.4-4.8 1.2-7.3 1.5q-1.9.3-3.8.3c-1.2 0-2.4 0-3.6.2-1.2.1-2.3.4-3.4.5-1.3.1-2.4.3-3.6.6-.6.1-1.2.3-1.8.4q-.9 0-1.7.1c-1.2 0-2.3.3-3.5.6-1.1.2-2.2.1-3.4.1h-3.5c-1.2-.1-2.3-.2-3.4-.5q-1.5-.4-3-.9c-1.9-.6-3.7-1.6-4-3.7-.1-1 0-2 0-3 .1-.6-1-.8-1.1-.2-.2 1.2 0 2.5.4 3.6.3 1.1.8 2.3 2 2.8.3.1.6-.1.7-.4.4-1.6.2-3.3.3-4.9 0-.8-1.2-.8-1.2 0-.1 1.3.1 2.6 0 3.9l-.2.8q-.1.3-.1.4l-.1.1c0 .1-.1.2-.1.1q0 .1-.1.1c0 .1.1 0 0 .1-.2.1-.1 0-.1 0q-.1.1-.2.1h-.2l-.6-.2q.2.2.5.4c-.3-1-.1-2.1 0-3 .1-1.3.1-2.6.1-3.8.1-2.6.1-5.2 0-7.8q-.1-2.2 0-4.4c0-.8-1.2-.8-1.2 0v1.2c-.1.8 1.1.8 1.1 0zM56.9 66.8c.4.1.8.3 1.2.4.4.2.9.2 1.5.2.9 0 1.9 0 2.9.3q.6.1 1.3.2c.5.1.9.1 1.4.2.3 0 .7.2 1 .3q.7.2 1.4.2h3q1.6.1 3.2.1c1.1.1 2.1.2 3.2.2 1 0 1.9-.4 2.9-.4.4-.1.9 0 1.4 0 .5 0 1.1-.1 1.6-.2q.6-.2 1.2-.3c.5-.2 1-.2 1.5-.3.4 0 .9-.1 1.3-.2.5-.1.9-.1 1.4-.2q1.2-.1 2.4-.6c.9-.3 1.9-.5 2.8-.9q1.1-.4 2.1-1.1c1.8-1 3.4-2.1 5-3.3.8-.7 1.6-1.3 2.3-2 .7-.6 1.4-1.1 2.2-1.6q1.2-.7 2.3-1.7c.7-.7 1.3-1.5 1.8-2.3.7-.8 1.3-1.6 1.9-2.4.6-.7 1.3-1.4 1.9-2.2.5-.7 1.2-1.3 1.7-2s.8-1.4 1.3-2.1c.4-.8 1-1.4 1.6-2.1.5-.6.9-1.4 1.3-2.2.4-.8.8-1.7 1.4-2.4.6-.7 1.4-1.2 1.9-2 .5-.7.9-1.5 1.2-2.3.2-.5.3-.9.4-1.4.1-.5.3-.8.6-1.2.5-.8.7-1.8.8-2.8q.2-1.4.3-2.9c0-1.1.1-2 .3-3 .1-1 .4-2 .6-3q.1-.7.2-1.3c.1-.4.1-.7.2-1 .1-.6.9-.7 1.5-.5.7.3 1.1 1 1.5 1.7q.3.6.6 1.1c.3.5.6.8.9 1.2.5.8.8 1.6 1 2.4.4 1 .5 2 .5 3s-.1 1.9-.1 2.9c0 .8 1.2.8 1.2 0 .1-2.3.6-4.8-.3-7-.1-.3-.4-.5-.7-.5-.3.1-.5.5-.4.8.8 2.1.3 4.5.2 6.7h1.2c.1-2 .3-4.1-.4-6-.3-.9-.6-1.7-1-2.5-.2-.4-.5-.8-.7-1.1q-.5-.6-.8-1.3c-.4-.8-.8-1.6-1.6-2.1-.7-.5-1.6-.7-2.4-.5-.7.2-1.2.7-1.4 1.5-.1.3-.1.6-.1.9-.1.5-.2.9-.3 1.4-.4 2.1-.8 4.1-.9 6.2 0 .9-.1 1.9-.2 2.9q-.2.7-.3 1.4c-.2.5-.5.8-.7 1.2-.2.4-.4.9-.5 1.3q-.1.7-.4 1.4c-.4.8-.8 1.6-1.4 2.3-.7.7-1.4 1.2-1.9 2s-.9 1.7-1.3 2.6c-.8 1.5-2.2 2.7-3.1 4.2-.4.7-.7 1.5-1.3 2-.3.4-.6.7-.9 1l-.9 1.2c-.7.8-1.3 1.5-1.9 2.3-.7.8-1.3 1.6-1.9 2.4q-.9 1.2-2 2.1c-.8.5-1.6 1-2.4 1.6-.8.5-1.5 1.2-2.2 1.8q-1.1 1-2.4 1.9-1.3.9-2.6 1.7c-.7.5-1.4 1-2.2 1.3-.9.4-1.7.6-2.6.9-.9.3-1.6.6-2.5.8-.4.1-.8.1-1.2.1-.6 0-1 .2-1.5.3-.5.1-.9.1-1.4.2q-.7.1-1.3.3c-.5.1-.9.2-1.4.3-.5.1-1 0-1.5 0q-.8-.1-1.5.1l-1.5.3c-1 .1-2.1-.1-3.2-.1q-1.6-.1-3.3-.1-1.5-.1-3-.1c-.4 0-.8 0-1.2-.1-.4-.1-.8-.3-1.1-.4-.5-.1-1-.1-1.4-.1-.5-.1-1-.2-1.4-.3-1-.2-2-.3-3-.3-.4 0-.9 0-1.4-.1-.4-.1-.8-.3-1.2-.4-.7-.2-1.1 1-.3 1.1zm78.9-35.3q0 .4.4-.2.2.2.4.5c-.4-1-.2-1.9.4-2.7.6-.8 1.4-1.5 2.1-2.2q.6-.6 1.3-1.1c.5-.4 1-.7 1.6-1 1-.7 2.1-1.4 3-2.3.4-.4.8-.9 1.1-1.4.2-.4.3-.8.4-1.2.1-.2.1-.2.3 0 .2.2.4.6.5 1 .4.9.4 1.8.1 2.7-.4 1-1.1 1.9-1.8 2.7-.7.8-1.6 1.6-2.3 2.4-.8.9-1.6 1.8-2.1 2.9q-.9 1.6-1 3.4c-.1.9-.1 1.9.3 2.8.5.9 1.3 1.6 2.3 1.7 1 .2 2 .1 3-.1 2-.6 3.5-2.1 4.6-3.9.5-.8 1-1.8 1.4-2.7.6-1.1 1.2-2.2 1.4-3.5.1-.9.1-1.7-.2-2.6-.1-.8-.4-1.6-1-2.1-.3-.3-.6-.4-1-.4-.3 0-.6.2-.6.6 0 .3.3.6.6.6h.2c-.1 0 0 .1.1.1q0 .1.1.2c.2.3.3.7.4 1 .3.9.4 1.6.2 2.5-.2 1.2-.8 2.3-1.4 3.4-.4.9-.9 1.8-1.5 2.7-1 1.6-2.7 3-4.7 3.1-.9.1-1.8.1-2.5-.7-.6-.7-.6-1.6-.6-2.5.2-2.5 1.6-4.5 3.3-6.2 1.5-1.6 3.3-3.1 4-5.3q.5-1.6-.1-3.2c-.3-.7-.7-1.7-1.6-1.9-.5-.1-1 .1-1.2.5-.3.3-.4.7-.5 1.1-.3 1.1-1.4 1.9-2.2 2.5-.6.3-1.1.7-1.7 1.1-.5.3-1.1.6-1.6 1-.9.7-1.7 1.5-2.5 2.3-.7.7-1.4 1.5-1.8 2.5-.1.4-.2 1-.2 1.5.1.6.2 1.4.9 1.4.6 0 .9-.5.9-1-.1-.7-1.3-.8-1.2 0zM70.5 90.2c1.6.3 3.1.8 4.7 1 1.6.2 3.2 0 4.7-.3 1.5-.2 3-.6 4.6-.9 1.6-.3 3.1-.7 4.7-1.1 1.5-.4 3.1-.7 4.5-1.2q2.1-.7 3.9-1.8c1.3-.8 2.5-1.7 3.7-2.4 1.3-.7 2.6-1.4 4-1.9q1.1-.4 2.1-.7c.7-.2 1.4-.4 2-.8 1.1-.5 2.1-1.4 3.1-2.1.6-.4 1.2-.6 1.9-.8.7-.3 1.3-.7 1.9-1.2.5-.5 1.1-1 1.7-1.4l2-1.4 3.8-2.6c1.2-.9 2.2-1.8 3.2-2.9 1.1-1.1 2.1-2.1 2.9-3.3.7-1.2 1.3-2.4 2.3-3.4.5-.5 1.2-.7 1.8-1.1.6-.3 1-.8 1.5-1.3.9-1.2 1.6-2.5 2.3-3.8 1.4-2.5 3-5.1 3.5-8q.2-1.1.2-2.1c0-.8-1.2-.8-1.2 0 0 1.3-.3 2.6-.7 3.8-.5 1.5-1.2 2.8-1.9 4.1-.7 1.3-1.4 2.6-2.2 3.9-.4.5-.7 1.1-1.2 1.6-.4.5-1 .8-1.6 1.1-1.2.7-2.1 1.8-2.8 2.9-.8 1.2-1.4 2.4-2.4 3.4s-1.9 2.1-3 3c-1.1.9-2.3 1.7-3.4 2.5-1.3 1-2.6 1.8-3.9 2.8-.6.4-1.2.9-1.7 1.4-.6.4-1.1.7-1.8 1-1.3.4-2.3 1.1-3.3 1.9-.5.4-1 .7-1.6 1-.6.3-1.3.5-2 .7q-2 .7-4 1.6c-1.3.6-2.6 1.4-3.8 2.2-2.3 1.6-4.8 2.8-7.6 3.5-1.5.4-3.1.8-4.7 1.2-1.5.3-3 .6-4.6 1-1.4.3-2.9.6-4.4.8-1.6.1-3.1-.1-4.6-.5q-1.1-.3-2.3-.5c-.7-.2-1 .9-.3 1.1zm60-89.6q-.3.1-.5.1c-.2 0-.4.3-.4.6 0 .6.4.9.7 1.4.4.6.7 1.4 1 2 .3.7.7 1.4 1 2.1l1 2.2c.3.7.7 1.3 1 2.1.2.6.3 1.3.6 2 .2.6.6 1.1.9 1.7.3.6.4 1.4.5 2.1.1.7 1.3.4 1.1-.4-.1-.7-.2-1.4-.5-2.1-.3-.5-.7-1-.9-1.6-.2-.7-.3-1.3-.5-1.9-.3-.8-.6-1.4-1-2.1q-.9-2.1-1.9-4.1c-.4-.7-.7-1.4-1-2.1q-.2-.4-.5-.8c-.2-.2-.3-.3-.3-.5q-.2.3-.4.5h.4c.3-.1.5-.5.4-.7-.1-.4-.4-.5-.7-.5z"/><path class="d" d="M74.4 202.1q0-1.1.1-2.1c0-.8-1.2-.8-1.2 0-.2 4.4-.4 8.8-.4 13.2 0 2 0 4-.7 5.9-.3 1-.7 1.9-.9 2.9-.2 1-.5 2.1-.7 3.1q-.2.7-.5 1.4c-.1.4-.5.7-.7 1.2-.2.5-.2.9-.2 1.4-.1.6-.3 1.1-.4 1.6-.4 1.1-.7 2.1-1 3.1-.3 1.1-.6 2.1-.8 3.2-.3 1-.6 1.8-1 2.8-.4.9-.5 1.9-.6 2.9-.1 1-.4 2-.6 3-.2.9-.2 1.8-.3 2.7-.1 2.5-.8 4.9-1.3 7.3-.6 2.4-.9 4.8-.9 7.2-.1.7 1.1.7 1.1 0 .1-2.2.3-4.3.8-6.4.5-2.2 1.1-4.3 1.4-6.4.1-1.1.1-2.2.2-3.2.1-.9.4-1.8.6-2.7.2-1 .2-2 .4-3s.7-1.9 1-2.8c.4-1 .5-2 .8-3 .2-1.1.6-2.1.9-3.1.3-1 .8-2.1.9-3.2 0-.4 0-.8.2-1.2.3-.5.6-.9.8-1.4.6-1.9.9-4 1.5-6 .4-.9.7-1.8.9-2.8q.2-1.5.3-2.9v-3.5q0-1.8.1-3.7.1-3.8.3-7.6h-1.2q-.1 1-.1 2.1c0 .8 1.2.7 1.2 0z"/><path class="d" d="M72.5 220.5c0-.6.3-1 .5-1.5s.3-1 .4-1.6c.2-1.3 1-2.3 1.1-3.6 0-.8-1.2-.8-1.2 0-.1 1.2-.9 2.3-1.1 3.5-.1.5-.2 1-.4 1.4-.3.6-.5 1.1-.5 1.8-.1.7 1.1.7 1.2 0z"/><path class="d" d="M74.9 201.2v-.3c0-.8-1.2-.7-1.2 0-.1.9.2 1.7.5 2.5s.6 1.6.8 2.5q1 3.3 2 6.5c.6 2.3 1.5 4.4 2.2 6.6.7 2.1 1.2 4.3 1.5 6.5.2 2.2.3 4.5 0 6.6-.2 1.9-.9 3.7-2.1 5.2-.6.8-1.3 1.3-2.2 1.9-.8.5-1.6 1.1-2.3 1.9-.7.8-1.3 1.7-1.9 2.6q-.9 1.3-1.9 2.6c-.7 1-1.3 1.9-1.7 3.1-.5 1.1-1 2.2-1.6 3.2l-1.5 2.7c-.3.7-.7 1.6-1.4 2q.5.2.9.5c-.1-.6.2-1 .5-1.4.4-.5.8-1.2 1.1-1.8.6-1.2 1.1-2.4 1.9-3.6q1-1.6 2.4-2.9c.9-1 1.8-1.9 2.5-3.1.6-1 1.4-2.1 1.5-3.3.1-.4-.3-.6-.6-.6s-.5.2-.6.6c0 .4-.3.9-.5 1.3q-.4.7-.9 1.4c-.6 1.2-1.5 2.1-2.4 3q-1.4 1.4-2.4 3c-.8 1.2-1.3 2.4-1.9 3.6q-.5 1-1.2 1.9c-.4.6-.6 1.2-.6 1.9.1.4.5.7.9.5.7-.4 1.2-1.1 1.6-1.8.3-.7.6-1.5 1.1-2.2l1.6-3c.5-.9.7-1.9 1.2-2.8.6-.9 1.3-1.8 2-2.7l1.8-2.7c.6-.8 1.3-1.7 2.1-2.3.8-.6 1.8-1.1 2.5-1.8 1.4-1.3 2.4-3.1 2.9-5 .6-2 .6-4.2.5-6.4-.1-2.2-.5-4.5-1-6.7-.6-2.3-1.5-4.4-2.2-6.6-.8-2.5-1.5-5.1-2.2-7.6-.4-1-.7-2-1.1-3.1-.3-.8-.7-1.8-.6-2.7h-1.2v.3c0 .8 1.2.8 1.2 0z"/><path class="d" d="M101.5 188.6c0 1.8.4 3.6.8 5.3.4 1.7.8 3.5 1.3 5.2.5 1.8.9 3.7 1.3 5.6.1 1 .4 1.9.5 2.8.1 1 .1 1.9.3 2.8.1 1 .4 1.9.5 2.9l.2 2.8c0 1.9-.1 3.8-.1 5.7-.1 1.9.1 3.8.3 5.7.2 1.9.3 3.8.2 5.8q0 1.4-.1 2.9c0 .9 0 1.8-.2 2.7-.2.8-.5 1.7-.7 2.5-.2.9-.2 1.8-.5 2.7-.2.9-.5 1.8-.7 2.7l-.9 2.4c-.2.9-.3 1.8-.6 2.6q-.5 1.1-1.1 2c-.9 1.4-2.2 2.5-3.5 3.5-1.4 1.1-2.7 2.4-4.2 3.4-1.4 1-2.9 1.9-4.5 2.5-1.6.7-3.4 1-5 1.5q-2.5.8-4.7 2c-1.6.9-3.1 2-4.7 2.7-.7.4-1.6.7-2.3 1.1-.8.5-1.5 1-2.3 1.3-.8.4-1.7.5-2.5.8-.8.3-1.6.8-2.3 1.3-.7.5-1.3 1-2 1.5q.4.2.9.3c-.1-.1-.1-.2-.1-.4.2-.7-.9-1-1.1-.3q-.2.5 0 1.1c.2.3.5.5.9.3 1.5-.9 2.7-2.2 4.4-2.7.8-.3 1.7-.5 2.6-.9.8-.4 1.5-.9 2.2-1.3.8-.5 1.6-.8 2.4-1.1.8-.4 1.6-1 2.3-1.4q2.3-1.4 4.7-2.5c1.7-.6 3.4-1.1 5.1-1.5 1.7-.5 3.3-1.2 4.8-2.1 1.5-.9 2.9-2 4.2-3.1 1.4-1.2 2.9-2.3 4.2-3.5 1.1-1.1 2-2.4 2.6-3.9.4-.8.5-1.7.7-2.6.2-.9.6-1.6.9-2.5.2-.9.5-1.8.7-2.7.3-.9.3-1.8.5-2.7.2-.8.5-1.7.7-2.5.2-.9.3-1.8.3-2.7 0-1.9.2-3.9.1-5.9 0-1.9-.3-3.8-.4-5.8-.3-3.8.2-7.7-.2-11.5q-.2-1.4-.5-2.8c-.2-1-.2-1.9-.3-2.9-.1-1-.4-1.9-.5-2.9q-.3-1.4-.5-2.9c-.4-1.8-1.1-3.6-1.6-5.5-.4-1.7-.8-3.5-1.1-5.3q-.2-1.2-.2-2.5c0-.7-1.2-.7-1.2 0zm-67.3 12.1c-.2.5-.1.9.3 1.2q.3.4.4.9c.3 1.4.5 2.8.8 4.1.4 1.4.7 2.8 1 4.2q.3 2.2.7 4.3.2 1 .2 2.1c.1.7 0 1.4.1 2.1 0 .7.1 1.3.2 2 .1.6.1 1.3.1 2-.1.6-.2 1.3-.1 2 0 .7.1 1.3.2 2q.1 1 .1 2.1v2.1c0 1.4.5 2.7.6 4.1.1 1.3-.2 2.6-.2 3.9 0 1.3.4 2.7.7 4q.5 2.2 1 4.3c.2 1.4.7 2.7 1 4.1.4 1.4.4 2.8.7 4.3.2.7.2 1.4.2 2.1q0 1.1.2 2.1.3 1.1.5 2.2c.1.7.3 1.5.4 2.2 0 .7-.1 1.4 0 2.2.1.6.2 1.3.3 2 .1 1.4-.1 2.8-.1 4.3-.1 1.4-.2 2.8-.2 4.2 0 1.4.3 2.8.6 4.2q.2 1 .2 2.1.5-.2 1-.5-.2-.2-.4-.5c-.3-.7-1.4-.1-1 .6q.2.4.6.8c.3.4 1 .1 1-.4 0-1.5-.4-2.8-.6-4.2-.3-1.4-.2-2.8-.1-4.2.1-1.4.1-2.8.2-4.2v-2.2c-.1-.7-.3-1.4-.3-2-.1-.8 0-1.5 0-2.2-.1-.7-.2-1.4-.4-2.2-.2-1.4-.7-2.8-.7-4.2-.1-.7 0-1.4-.2-2.2l-.3-2.1c-.2-1.4-.4-2.8-.9-4.1-.4-1.4-.7-2.8-1-4.2q-.5-2.1-.9-4.3c-.1-.7-.3-1.3-.3-2 0-.6.1-1.2.1-1.9.1-.6.2-1.2.1-1.9 0-.6-.1-1.3-.3-2-.1-.7-.3-1.3-.3-2-.1-.7 0-1.4 0-2.1.1-1.4-.3-2.7-.4-4.1 0-1.3.3-2.7.1-4 0-.7-.2-1.3-.2-2-.1-.7-.1-1.3-.1-2 0-1.5-.3-2.9-.5-4.3-.3-1.4-.5-2.8-.8-4.3-.3-1.4-.7-2.7-1-4.1q-.2-1.1-.4-2.1c0-.5-.1-.9-.3-1.3q-.2-.3-.4-.5l-.2-.2c.1.1 0 .2.1 0 .2-.7-.9-1.1-1.1-.3zm3.7-60.3c.3 1.1 1.6 1.6 2.6 1.7 1.3.3 2.6.4 4 .4 1.3 0 2.6 0 4 .1 1.1.1 2.2.3 3.3.6 1.1.2 2.2.7 3.3.9 1.1.1 2.3.1 3.4.1 1.1.1 2.3.1 3.5.1q1.7-.1 3.4-.4c1-.3 2.1-.4 3.2-.6 1-.1 2.1-.3 3-.7q.4-.1.6-.3c.2-.1.3-.3.5-.3.2-.1.5 0 .8-.1q.3 0 .7-.1c2-.5 3.9-1.4 5.7-2.4 1.1-.5 2.2-1.1 3.3-1.5.6-.3 1.2-.4 1.7-.7.7-.2 1.3-.5 1.9-.7 1.1-.4 3.4 0 3.7-1.6.1-.7-1-1.1-1.2-.3v.2q-.1 0-.3.1c-.2.1-.5.1-.8.2-.6.1-1.2.1-1.8.3l-1.5.6c-.5.2-1 .3-1.5.5-1 .4-2 .9-3 1.3-1.7.9-3.5 1.9-5.3 2.5q-.7.2-1.3.4c-.5.1-1 0-1.5.1-.5.2-.7.5-1.1.7q-.7.3-1.5.4c-1 .3-1.9.4-2.9.5-1.1.2-2.1.5-3.2.6-2.2.2-4.4 0-6.6 0-.5 0-1 0-1.6-.1-.5 0-1.1-.2-1.6-.4-1.1-.3-2.1-.6-3.2-.8-1.6-.3-3.3-.4-4.9-.4-1.4 0-2.8 0-4.1-.2-.6 0-1.2-.1-1.8-.4q-.1 0-.3-.1c-.1-.1-.2-.1-.2-.1l-.1-.1-.1-.1v-.2c-.2-.7-1.3-.4-1.2.3z"/><path class="d" d="M94.3 193c1.5-.1 2.4-1 3.5-1.9q.3-.2.7-.5c.3-.1.7-.3 1.1-.4q.4-.2.7-.5c0-.1.2-.2.1-.2v.1c-.1-.1.2 0 .2 0 .7.2 1-.9.3-1.1-.3-.1-.7-.2-1 0-.3.1-.4.3-.6.5-.2.1-.5.2-.8.3q-.5.2-1 .6c-1 .7-1.9 1.8-3.2 1.9-.3 0-.6.3-.6.6s.3.6.6.6zm-44-151.3c-.8 0-1.6-.7-2.2-1.2-.7-.7-1.4-1.4-2.2-1.8-2-.8-4.3-.9-6.2 0-1 .4-1.7 1.1-2.4 2q-1.1 1.6-2 3.4c-1.1 2.2-1.9 4.5-2.7 6.9-.4 1.2-.9 2.5-1.2 3.8-.2 1.3-.4 2.6-.7 3.9-.2 1.3-.5 2.6-.8 3.9-.4 1.1-.8 2.3-1.6 3.3-.5.6-1.4 1.4-1.2 2.4.2 1 1.4 1.4 2.2 1.5 1.7.1 3.3-.3 4.9-.2 1.5 0 3 .1 4.5 0 1.1-.1 2.9-.3 3.4-1.6.1-.3.1-.5 0-.8 0-.4-.4-.5-.7-.5-.3.1-.5.5-.4.8v.1s-.1.1 0 0l-.1.1c0 .1.1 0 0 .1q-.1 0-.1.1h-.1q-.1.1-.2.1c-.1.1-.1.1-.2.1q-.2.1-.5.1l-.8.2c-1.5.1-2.9.1-4.3 0-.5 0-1.1-.1-1.6 0-.8 0-1.7.1-2.6.2-.6 0-1.8.1-2.2-.5-.1-.2.1-.5.3-.7.2-.3.5-.6.8-1 .7-.9 1.1-2.1 1.5-3.2.4-1.2.6-2.4.9-3.6.4-2.4.7-4.9 1.5-7.2.8-2.2 1.5-4.4 2.5-6.6q.7-1.6 1.6-3.1c.5-.9 1.2-1.9 2-2.5 1.5-1.1 3.6-1.2 5.3-.6 1.8.5 2.7 2.3 4.4 3q.6.3 1.2.3c.8-.1.8-1.2 0-1.2z"/><path class="d" d="M46 38.3c-.2 0-.6.1-.6-.2q-.2.4-.4.7c1.5-.5 3.1-.5 4.6 0 1.6.5 2.8 1.4 4 2.4.6.5 1.1.9 1.5 1.5.6.6 1 1.2 1.3 2 .5.7.9 1.5 1.4 2.3.4.6.9 1.2 1.5 1.7.5.5.8 1 1.1 1.6q.5 1.2 1.1 2.4c.9 1.5 1.9 2.9 3.1 4.2.4.4.7.9 1.2 1.2.3.3.6.7 1 .9.1.1-.2-.3-.1-.2v.1c-.1.2-.1.3-.2.5-.3.4-.6.8-1 1.2q-1.2 1.3-2.6 2.5s-.1 0 0 0h-.1l-.2.2q-.6.3-1.2.5c-.9.1-1.9 0-2.8 0-.8 0-.8 1.2 0 1.2 1.6 0 3.3.2 4.8-.8.8-.6 1.6-1.4 2.3-2.1.8-.8 1.7-1.7 2.1-2.7.1-.4.1-.9-.2-1.2-.3-.4-.7-.7-1.1-1-.5-.4-.9-.9-1.3-1.4q-.9-1.1-1.7-2.2-.8-1.2-1.5-2.4c-.4-.8-.6-1.7-1.1-2.5-.4-.5-.9-.9-1.4-1.4-.6-.7-1.1-1.5-1.5-2.3-.5-.8-.8-1.6-1.4-2.4q-.7-.9-1.5-1.7c-1.4-1.3-2.9-2.5-4.7-3.1-1.9-.7-3.9-.8-5.8-.1-.3.1-.5.4-.4.7.2 1.1 1.3 1.2 2.2 1 .7-.2.4-1.3-.4-1.1zm7.4 21.6q-.1.1 0 0v.1h-.1q.1-.1 0 0s-.1.1 0 .1c0-.1-.1.1-.1.1l-.1.1c.1-.1 0 0-.1 0l-.2.2c.1-.1-.1 0-.1 0h-.2q-.2.1-.3.1c-.1 0-.2.1-.2 0 .1 0-.1.1-.1.1h-.3q-.1 0-.2-.1c.2.1 0 0 0 0h-.1c-.1 0 .1 0 0 0q-.5-.2-.9-.5c-.4-.3-.9-.7-1.1-1.2-.1-.3-.4-.5-.7-.4-.3.1-.5.5-.4.8.3.8.9 1.4 1.6 1.8.6.4 1.2.7 1.8.7 1.2.1 2.9-.5 2.9-1.9.1-.3-.2-.6-.6-.6-.3 0-.5.3-.5.6zm-4.6-8.2c-1-.4-2-1-3.1-1.2q.2.2.4.5 0-.2-.1-.3c0-.3-.4-.5-.7-.4-.3.1-.5.4-.4.7v.3c.1.1.3.4.5.4q.3 0 .7.2.2 0 .4.1.1 0 .2.1c-.2-.1 0 0 0 0 .5.2 1 .4 1.5.7.3.1.6.1.8-.2.1-.3.1-.7-.2-.9z"/><path class="d" d="M48.7 51.9c-.5 0-1 .1-1.5.2-.6.2-1.3.5-1.5 1.1-.1.3.1.6.4.7.3.1.7-.1.8-.4 0-.1 0-.1-.1.1v-.1c.1-.1 0 .1 0 .1v-.1h.1c.1-.1-.2.1 0 0l.1-.1s.2-.1 0 0q.1 0 .2-.1.2 0 .4-.1h.4c.1-.1-.2 0 0 0q.1 0 .2-.1h.5c.4 0 .7-.3.6-.6 0-.3-.2-.6-.6-.6zm2.5-2.1c.1 1.2.5 2.3.8 3.5.2.5.3 1.1.5 1.6.3.5.5 1 .6 1.6.1.3.4.5.7.4.4-.1.5-.4.4-.7 0-.5-.3-1-.5-1.5s-.3-1.1-.5-1.6c-.3-1.1-.7-2.2-.8-3.3-.1-.3-.3-.6-.6-.6s-.7.3-.6.6zm4.4 1.3q-.1 0-.3.1h-.2v.1q-.1 0-.2.1 0 .1-.1.1 0 .1-.1.2v.2q0 .1.1.3.1 0 .1.1.1.1.2.1h.1q.2.1.3 0h.1l.2-.2q.1-.2.1-.3v-.2q0-.1-.1-.2l-.1-.1q0-.1-.2-.1 0-.1-.1-.1t-.2.1q-.2 0-.3.1-.1.1-.1.2-.1.1-.1.2v.3q.6-.1 1.1-.3 0-.1-.1-.1l-.2-.2c-.1 0-.2-.1-.3-.1h-.1q-.1 0-.2.1-.1 0-.2.1t-.2.3v.5c.1.2.1.3.2.4h.1l.2.2h.5q.1-.1.2-.1.1-.1.1-.3.1-.1.1-.2.1-.2 0-.3v-.3q0-.1-.1-.2t-.2-.1-.2-.1h-.2q-.3.1-.4.3c-.1.1-.1.3 0 .4V52v.1l.1-.1h-.1q.4 0 .8-.1h-.1q.1 0 .1.1v-.1.1l.1.1-.1-.1q.1.1.1.2v-.1q0 .1-.1.2l.1-.1-.4.4h-.2.1-.2.1q-.1 0-.2-.1l.1.1-.1-.1q-.1 0-.1-.1.1.1.1.2.1 0 .2.1h.4q.1 0 .3-.1 0-.1.1-.2v-.6q-.5.2-1.1.3v-.6.1q.5.2 1.1.4 0 .1-.1.1v.1l-.1.1h-.1.1-.1q.1 0 .2-.1.1 0 .2-.1t.1-.2.1-.2q0-.2-.2-.4 0-.1-.1-.1-.1-.1-.3-.1zm-3.8 245c-.5.1-.9.1-1.1.6q-.1.5-.2 1.1c0 .8.2 1.5.5 2.2q.3-.5.5-.9c-1.1 0-2.1-.4-3.2-.4-.4 0-.6.3-.6.6-.1 1 .8 2.1 1.6 2.7.7.6 2 1.2 2.9.3.1-.1.2-.4.1-.6-.5-1.2-1.6-2.5-3-2.5-.5 0-.7.6-.4 1 1.1 1.3 2.6 2.2 4.1 3.1.7.4 1.5.8 2.2 1.2.7.5 1.4 1.2 2.4.9l-.8-.4c.7 2.4 3.5 2 5.4 2.5 1 .2 1.9.6 3 .8 1 .2 2.2.3 3-.5.6-.6.8-1.6.3-2.4-.4-.8-1.2-1.4-1.9-1.9-1.5-1-3.3-1.7-4.8-2.7-1.4-.8-2.9-1.7-3.9-3-.9-1.2-1.6-2.5-3.1-2.8-.5-.1-1 .4-.6.9 1.5 2.3 3.6 4.3 5.7 6.1.7.6 1.3 1.2 1.9 1.9.6.7 1.3 1.3 2 1.9.6.5 1.5 1.1 2.3.7.3-.1.3-.4.3-.7-.2-1.4-1.3-2.6-2.5-3.3-.6-.4-1.2-.6-2-.7-.5-.1-1.6 0-1.9.5-.7 1.2.3 2.5 1.3 3.1.5.3 1.1.5 1.7.6q.3 0 .7-.2c.5-.1.6-.5.5-1-.1-1.6-1.6-3.1-3-3.9-.4-.2-1 .2-.9.7.6 1.6 2.2 3.1 3.9 3.4.5 0 .9-.3.8-.8-.6-2.8-3.3-4.5-5.2-6.4q-1-1-2-1.9l.1.1s-.2-.3-.2-.4q-.2-.2-.3-.4-.4-.5-.7-1.1-.3-.5-.5-1-.1-.2-.1-.5v-.1q-.1-.9-.1-1.8c.1-.3.1-.6.1-.8 0-.1 0-.2.1-.3 0-.2-.1 0-.1 0q-.4-.1-.9-.2.7 1.5 1.3 2.9c.2.3.4.5.7.4.3 0 .5-.2.5-.5-.1-1.8.2-3.7-1-5.1-.4-.4-1.1.1-1 .6.4 1.8.7 3.7 1.6 5.4.3.5 1.1.3 1.1-.3V291c-.1-.7-1.2-.7-1.2 0-.1 1.4.5 2.6 1.3 3.6.4.6 1.3.1 1-.6-.8-1.6-1.4-3.3-2.4-4.8l-1 .6c.7 1.1.8 2.6 1.9 3.5.2.2.7.2.9-.2.3-.7.3-1.4.1-2.2-.3-.7-.6-1.3-.7-2.1 0-.7-1.1-.7-1.1 0-.1 3.5 1.7 6.8 3.8 9.5q1.4 1.9 3.2 3.4c.9.7 1.8 1.4 2.6 2.3.3.4.7 1 .8 1.6.1.5-.1 1-.6 1.4l1 .2q-.1-.2-.2-.5c-.2-.7-1.4-.4-1.1.4l.2.4c.1.5.6.6 1 .3 2.3-2.1-.3-4.8-2-6.3-1-.9-2.1-1.7-3-2.7-1.2-1.3-2.3-2.8-3.1-4.4-.9-1.7-1.5-3.6-1.5-5.6h-1.1c0 .7.2 1.3.5 2 .2.5.4 1.2.2 1.8q.4-.1.9-.2c-.9-.8-1-2.2-1.7-3.2-.5-.6-1.5 0-1 .6 1 1.5 1.6 3.2 2.4 4.8l1-.6c-.7-.9-1.2-1.8-1.1-3h-1.2v1.8q.6-.1 1.1-.3c-.8-1.5-1.1-3.4-1.5-5.1l-1 .6c1 1 .7 2.8.7 4.2l1.2-.2q-.7-1.6-1.5-3.2c-.1-.3-.6-.3-.9-.1-.3.3-.4.9-.4 1.3q-.1.9 0 1.8c0 .5 0 1 .1 1.5.2.8.7 1.5 1.2 2.2l.6 1c.1.2.2.3.4.4-.2-.2 0 0 0 .1q.6.5 1.1 1 1.3 1.3 2.6 2.5c1.2 1.1 2.6 2.4 2.9 4q.4-.3.8-.7c-1.4-.2-2.7-1.2-3.1-2.5q-.5.3-.9.6c1.2.6 2.6 1.9 2.4 3.3q.2-.2.3-.5c-.4.2-1.2-.1-1.6-.5-.4-.3-.9-.9-.7-1.3q-.2.1-.3.2c1.9-.7 4.2 1.1 4.6 3l.2-.6c.1 0-.1 0 0 0q-.2-.1-.3-.1-.5-.3-.8-.6c-.7-.6-1.2-1.2-1.8-1.8-1.4-1.6-3.1-2.9-4.6-4.4-1-1-2-2.1-2.8-3.3q-.4.4-.7.8c1.1.3 1.6 1.3 2.3 2.1.8 1.1 1.8 1.9 2.9 2.7.9.6 1.8 1.2 2.7 1.7.7.4 1.5.7 2.2 1.1.7.4 1.5.9 2.2 1.4q.4.4.6.8c.2.1.1.2.2.3v.1s0-.1 0 0v.2c0 .2-.2.5-.4.6-.3.2-.8.2-1.1.2-1-.1-2-.5-2.9-.8-1-.3-1.9-.3-2.9-.5-.9-.1-2-.3-2.3-1.3-.1-.3-.4-.5-.7-.4-.3.1-.6-.2-.8-.3q-.5-.4-1.1-.7l-2-1.2c-1.3-.7-2.7-1.5-3.6-2.7q-.3.5-.5 1c.9 0 1.6.9 1.9 1.6q0-.2.1-.5c-.1.1-.1.1-.2.1H51q-.1 0-.2-.1c-.3-.1-.6-.3-.9-.5q-.5-.4-.8-.9l-.2-.4c-.1-.2-.1-.2 0-.4l-.6.6c1.1 0 2.1.4 3.2.4.5 0 .8-.5.6-.9-.5-.8-.5-1.7-.2-2.5q-.2.3-.4.5l.6-.2c.7-.1.4-1.3-.3-1.1zm82.6-269.7c0-.4 0-.8.1-1.2.1-.4.3-.7.5-1 .6-.9 1-1.9 1.5-2.8 1-1.7 3.2-2.3 4-4.1.2-.4 0-.9-.5-.9-1.6 0-2.6 1.5-3.2 2.7q-.5 1.1-.8 2.3c-.3.8-.5 1.5-.5 2.4 0 .7.1 1.3-.1 2-.2.6-.5 1.2-.6 1.8 0 .3.1.7.4.8q.4 0 .7.1c.7.1 1-1 .3-1.2q-.3 0-.6-.1.2.4.4.7c.1-.6.4-1.3.6-1.9.2-.7.1-1.4.1-2.2 0-.9.3-1.8.5-2.6.3-.9.7-1.7 1.2-2.5.4-.6.9-1.1 1.6-1.1q-.2-.4-.5-.9c-.4.9-1.3 1.5-2.1 2.1-.8.6-1.5 1.3-2 2.2-.3.5-.5 1-.8 1.5-.2.5-.5.9-.8 1.4-.4.8-.6 1.6-.5 2.5 0 .8 1.2.8 1.1 0zm-2.3 4.9c.8.5 1.4.9 2.3 1l-.5-.5c.2 1.6 1.2 2.8 1.8 4.1.7 1.4.7 3 .6 4.5-.1 1.7-.5 3.2-1.3 4.7-.3.7-.7 1.5-1.1 2.2-.3.6-.5 1.1-.9 1.6s-.9 1-1.3 1.6c-.3.4-.7 1-.6 1.5 0 .8 1.2.8 1.1 0 0 0 .1-.1 0-.1 0 .1.1-.1.1-.1l.1-.1.4-.8c.4-.4.8-.9 1.2-1.4.4-.5.6-1 .9-1.6.4-.7.8-1.5 1.2-2.2.7-1.6 1.2-3.1 1.4-4.8.1-1.6.1-3.3-.4-4.8-.6-1.6-1.9-2.9-2.1-4.6 0-.2-.3-.4-.6-.4-.6-.1-1.2-.5-1.7-.8-.7-.3-1.3.7-.6 1z"/></svg>