<svg width="154" height="309" viewBox="0 0 154 309" fill="none" xmlns="http://www.w3.org/2000/svg"><g clip-path="url(#clip0_39_37068)"><path d="M47.9 63.7l-6.2 4.9-8.2-1.3s6.7-27.4 10.3-28.6c3.6-1.3 6.6-1.9 6.6-1.9l7.3 5.5L67.4 60s-5.1 4.3-8.2 3.7c-3.1-.6-11.3 0-11.3 0z" fill="#6FCFA1"/><path fill-rule="evenodd" clip-rule="evenodd" d="M41.7 68.7l-8.4-1.3v-.1c.3-1.1 6.8-27.5 10.4-28.7 3.6-1.3 6.7-1.9 6.7-1.9h.1l7.3 5.6 9.8 17.8h-.1c-.2.2-5.2 4.3-8.3 3.7-3-.6-10.7 0-11.3 0l-6.2 4.9zm-8.1-1.4l8 1.2 6.2-4.9c.1 0 8.3-.6 11.4 0 2.8.5 7.4-3.1 8.1-3.6l-9.7-17.6-7.2-5.4c-.4.1-3.3.7-6.6 1.8-3.4 1.1-9.7 26.4-10.2 28.5z" fill="#6FCFA1"/><path d="M55 64.9s3.3-5.7 3.3-9.3c0-3.7-3.3-10.6-6.5-11.8-3.3-1.3-17.1.4-9.8 17.8 7.3 17.5 13 3.3 13 3.3zm-19.1 5.7S66 81.2 52.2 98.7c-13.9 17.5-20.8 13.4-22.4 22.7-1.7 9.4-.9 21.6 3.2 25.3 4.1 3.6 9.8 14.6 9.4 17.1-.4 2.4 2.4 3.6-.4 6.1-2.9 2.4-1.3 3.2-3.7 4.4-2.4 1.3 1.2 4.9-2.9 4.5-4-.4-34.5-22-34.5-41.9s13.8-52.9 35-66.3zm19.5-3.2S74.1 85.3 74.1 91c0 5.6 59.4-26.9 63.1-35.8 3.7-9 4.9-11.4 4.9-11.4l5.7-4.9s7.7-11 4.9-13.8c-2.9-2.9-5.3-7.3-5.3-7.3l-4.9-2.1-7.3 5.3-6.1-4.5s-4.1-3.6-4.5 3.3c-.4 6.9-.8 11.8-6.1 20.3-5.3 8.6-20 27.3-32.2 27.3H55.4z" fill="#1D1C20"/><path d="M37.5 141.4s45.6-15.1 49.2-13c3.7 2 3.3 5.3 3.3 5.3s-15.9 8.9-23.6 9.3c-7.8.4-28.9-1.6-28.9-1.6zm-1.3 59l37.9.4-17.5 80.1-11.8.4-8.6-80.9z" fill="#1D1C20"/><path d="M101.3 190.2l-27.2 10.6s11 28.1 3.2 38.6c-7.7 10.6-17.1 20-17.1 23.6 0 3.7 3.7 14.3 3.7 14.3s19.9-11.4 24-12.6c4.1-1.2 17.1-8.2 18.7-22.8 1.6-14.6-4-47.2-5.3-51.7z" fill="#1D1C20"/><path d="M125.8 1.5c.8 5.3 9.4 19.5 9.4 19.5l1.6-4.9-6.5-15-4.5.4zm12.6 33.3l6.9 17.1 4.5-3.6-4.9-9-6.5-4.5z" fill="#0FA6A6"/><path d="M37.5 141.4l-1.2 9.7s6.9 7.8 6.5 10.6c-.4 2.9 0 6.1 0 6.1l-.8 2.1-2.1 2.4-1.6 2-.8 2.1-3.7 3.2v20s22.8 3.2 36.2 0c13.4-3.3 33.4-10.6 33.4-12.2 0-1.6-13.4-53.7-13.4-53.7s-11 8.1-21.2 8.5c-10.2.4-28.1 2-31.3-.8z" fill="#6FCFA1"/><path fill-rule="evenodd" clip-rule="evenodd" d="M54.7 201.1c-10.7 0-20.8-1.4-20.9-1.4h-.1v-20.1l3.7-3.3.8-2 1.6-2.1 2.1-2.4.7-2c0-.3-.3-3.4.1-6.1.4-2.7-6.5-10.4-6.5-10.5h-.1l1.3-10.1.2.2c2.6 2.3 15.1 1.6 25.1 1.1 2.2-.1 4.3-.2 6.1-.3 10-.4 21-8.4 21.1-8.5l.1-.1.1.1c.5 2.2 13.4 52.2 13.4 53.8 0 1.2-8.2 4.3-11.7 5.6-7.2 2.6-15.6 5.2-21.8 6.7-4.4 1.1-9.9 1.4-15.3 1.4zm-20.8-1.6c1.7.2 23.3 3.1 36.1 0 14-3.4 33.3-10.7 33.3-12.1 0-1.6-12.6-50.3-13.4-53.5-1.3.9-11.6 8.1-21.1 8.4-1.8.1-3.9.2-6 .3-9.9.6-22.2 1.2-25.2-1l-1.2 9.5c.6.7 6.9 7.9 6.5 10.6-.4 2.8 0 6.1 0 6.1l-.9 2.1-2 2.5-1.6 2-.8 2.1-3.7 3.2v19.8z" fill="#6FCFA1"/><path d="M44.2 64c-8 4.1-14 11-19.6 17.9-2.9 3.5-5.7 6.9-8.6 10.3-3.4 4-6.3 8.4-9.3 12.8-1.4 1.9-2.4 4-3.3 6.3-.8 2.2-1.4 4.6-1.9 6.9-.3 1.2-.6 2.4-.7 3.6-.2 1.3-.3 2.6-.3 3.9v4c-.1 1.4-.2 2.7-.2 4.1 0 1.3.1 2.6.4 3.8.3 1.3.8 2.5 1.2 3.7.9 2.4 1.6 4.9 2.7 7.2s2.6 4.4 4.2 6.5c1.5 2 2.9 4.2 4.6 6.2 3.1 4 6.8 7.5 10.4 11.2 1.5 1.6 2.9 3.4 4.6 4.8 1.7 1.3 3.8 1.9 5.8 2.4 1 .3 2.1.5 3.2.2.2 0 .4-.3.4-.6 0-2.2-1.9-4.1-3.3-5.6-1.8-1.9-3.4-4.1-5.5-5.6-.4-.3-.9.1-.9.5-.2 1.7 1.1 3.4 2.3 4.5 1.4 1.4 3.1 2.6 5 3.2 1.6.5 4 .2 4.1-1.8.2-2.1-1.8-3.5-2.8-5-.7-1-1.3-2.1-2-3-.6-.9-1.5-1.8-2.6-1.8-.2 0-.4.1-.5.3-.7 1.5.2 3.2 1.3 4.3 1.3 1.5 3 2.7 4.9 3.5 1.4.5 3.3 1 4.6-.1 1.5-1.4.6-3.7-.2-5.2-.7-1.1-1.5-2.1-2.4-3-.7-.7-1.5-1.5-2.5-1.7-.5-.2-.9.4-.7.8.8 1.3 1.5 2.7 2.5 3.8 1 1 2.5 1.8 3.8.7 1.2-.9 1.1-2.8.9-4.2-.3-1.6-.8-3-1.5-4.5-2.3-4.6-5.4-8.8-8.4-13-1.4-2-2.9-4.1-3.8-6.5-.5-1.1-.8-2.3-.9-3.6-.1-1.3 0-2.5.1-3.8.2-2.3.1-4.7.8-6.9.7-2.3 2.1-4.2 3.9-5.8.9-.8 1.9-1.5 2.8-2.4.8-.8 1.6-1.8 2.5-2.6 1.9-1.7 4.1-3.1 6.2-4.7 1.1-.7 2.1-1.5 3-2.4 1-.9 1.8-1.8 2.8-2.7.8-.8 1.8-1.5 2.6-2.3.8-.8 1.5-1.7 2.1-2.7 1.1-2 2.1-4.1 2.8-6.2.8-2 1.4-4.2 1.7-6.3.6-4.4.5-9.3-1.9-13.1-1.3-2.1-3.2-4-5-5.6-1-.8-2-1.4-3-2.1-1-.7-1.9-1.5-3.1-1.7-1.2-.2-2.5.2-3.6-.2.133.133.267.3.4.5 0-.2-.033-.433-.1-.7-.1-.8-1.2-.8-1.2 0 .066.267.1.5.1.7.066.333.2.533.4.6 1.2.4 2.4.1 3.5.2 1.2.2 2.2 1.1 3.1 1.7 2.1 1.4 3.9 2.9 5.6 4.8 1.5 1.7 2.8 3.5 3.4 5.8.5 2.1.6 4.3.5 6.5-.3 4.4-1.6 8.6-3.6 12.5a35.13 35.13 0 01-1.5 2.7c-.6.9-1.4 1.8-2.2 2.5-.9.8-1.9 1.5-2.7 2.4-.9.8-1.7 1.7-2.7 2.5-1.9 1.7-4 3-6 4.5-1 .7-2 1.5-2.8 2.3-.9.8-1.6 1.8-2.4 2.6-1.7 1.6-3.6 2.8-5 4.7-1.2 1.8-1.9 3.8-2.2 6-.1 1.1-.2 2.3-.3 3.4 0 1.2-.2 2.4-.2 3.6 0 2.4.4 4.6 1.4 6.8 1.1 2.2 2.5 4.2 3.9 6.2s2.9 4 4.2 6.1c1.4 2 2.7 4.2 3.8 6.4.7 1.3 1.2 2.7 1.3 4.2.2 1 .3 3.1-1.1 3.2-.6 0-1.2-.5-1.6-1-.5-.5-.9-1.2-1.3-1.9-.3-.5-.6-1.1-.9-1.6-.267.333-.5.633-.7.9.7.2 1.2.7 1.7 1.1.733.667 1.366 1.4 1.9 2.2.5.8 1 1.6 1.3 2.5.2.6.3 1.4-.1 1.9-.7 1-2.3.5-3.2.2-1.6-.5-3.1-1.5-4.3-2.6-.8-.8-2.2-2.4-1.7-3.6-.133.067-.3.167-.5.3.7 0 1.3.8 1.7 1.3l1.5 2.4c.9 1.4 2.3 2.5 2.9 4.1.3.7.1 1.3-.7 1.6-.6.2-1.2.1-1.7-.1-1.6-.5-3.1-1.5-4.3-2.6-1-1-2.4-2.5-2.2-4-.334.2-.634.367-.9.5 2 1.4 3.4 3.5 5 5.3.7.7 1.4 1.4 2 2.2.6.8 1.2 1.7 1.2 2.7l.5-.5c-1.1.2-2.3-.1-3.3-.4-1-.3-2-.6-3-1-1.8-.9-3.1-2.5-4.5-3.9-3.3-3.7-7-7.1-10.3-10.8-1.6-1.9-3.1-3.9-4.5-5.9-1.5-2-3.1-4-4.4-6.2-1.3-2.1-2.3-4.4-3.1-6.8-.4-1.2-.8-2.367-1.2-3.5-.4-1.2-.9-2.4-1.1-3.6-.5-2.6-.1-5.3 0-8 0-2.5-.1-5.1.4-7.6.9-4.6 1.9-9.3 4.3-13.3 1.2-2.2 2.7-4.1 4.1-6.1 1.5-2.2 3-4.3 4.6-6.4 1.4-1.8 3-3.5 4.4-5.3l4.2-5c5.4-6.7 10.9-13.7 18.3-18.3l2.8-1.6c.7-.3.1-1.3-.6-1z" fill="#fff"/><path d="M40.1 113.2c-.267.066-.5.133-.7.2-.2 0-.4.2-.5.4-.4 2.4-1.2 4.7-1.8 7.1-.5 2.3-.7 4.6-.7 7-.1 2.4-.1 4.9-.1 7.3a289.606 289.606 0 00-.3 7.6 371.053 371.053 0 01-.3 8.6c0 .8 1.2.8 1.2 0 .2-5.067.367-10.134.5-15.2.067-2.4.1-4.8.1-7.2.1-2.4.1-4.8.6-7.1.6-2.6 1.5-5.2 2-7.8l-.4.4c.2-.067.433-.1.7-.1.7-.2.4-1.3-.3-1.2zm-6.6 66.5c-.1 3.5.1 7 .7 10.5.3 2.1.8 4.2 1.1 6.4.3 2.1.4 4.3.6 6.4.4 4.4 1.1 8.7 1.2 13 .1 4.5-.2 8.9.1 13.3.5 8.9 2.4 17.5 3.8 26.3.334 2.2.6 4.433.8 6.7.1 1 .2 2.1.1 3.1 0 1-.2 2.1-.2 3.1 0 .9.3 1.7.6 2.5.4 1 .3 2 .3 3-.1 1 .1 1.9.3 2.8.3 1 .4 2 .5 3 .3 2.1.5 4.3.9 6.4.5 2.1 1 4.3 1.5 6.5.3 1 .5 2 .7 3 .1 1 .2 2.1.3 3.1.2 1.6.7 3 2.2 3.9 1.5 1 3.3 1.6 5 2.2 1 .4 2 .8 2.9 1.3.8.5 1.5.9 2.3 1.3.8.4 1.7.8 2.6.9.6.1 1.9.2 2.3-.4.4-.7.3-1.8.2-2.5-.3-1-.8-1.8-1.3-2.6-1.2-1.7-2.4-3.3-3.5-5-1-1.6-2.2-3.2-2.7-5-.5-1.9-.2-3.9 0-5.9.2-2 .2-4 .6-6 .8-4 2.4-7.8 3.9-11.6 1.6-4 3.1-8.1 4.1-12.3.5-2.1 1.1-4.2 1.4-6.4.3-2 .3-4.1.7-6.1.4-2.1.8-4.1 1.1-6.1.334-2.133.7-4.3 1.1-6.5.7-4.3 1.6-8.7 2.4-13.1.7-4.2 1.8-8.4 2.4-12.7.3-2.1.4-4.3.4-6.4 0-.8-1.1-.7-1.2 0-.2 2.4.9 4.6 1.5 6.9.4 1.2.6 2.5 1 3.7.3 1.1.8 2.3 1.2 3.4.4 1.3.7 2.4.9 3.7.2 1.2.3 2.5.6 3.7.6 2.3 1.2 4.6 1.1 7 0 2.3.3 4.7-.1 6.9s-1.9 3.8-3.3 5.4c-1.5 1.7-2.8 3.4-4.1 5.3-.6 1.067-1.2 2.167-1.8 3.3-.6 1-1.1 2.1-1.7 3-1.4 1.9-3.2 3.4-4.3 5.5-1 2-2.6 3.9-2.9 6.1-.1.8 1.1.8 1.2 0 .1-1 .7-1.9 1.2-2.8.5-.9 1-1.7 1.5-2.6 1-1.9 2.5-3.3 3.8-5 1.5-1.8 2.4-4 3.5-6 1.2-2 2.6-3.8 4.1-5.6 1.4-1.5 2.9-3.1 3.6-5.1.8-2.1.6-4.5.5-6.6 0-1.2.1-2.4 0-3.6a22.72 22.72 0 00-.6-3.2c-.2-1.3-.6-2.4-.8-3.7-.2-1.2-.3-2.5-.6-3.7-.6-2.7-1.9-5.3-2.5-8-.6-2.6-2.1-5.2-1.8-8h-1.2c.1 3.9-.5 7.7-1.3 11.5a332.03 332.03 0 00-2.2 11.2c-.7 3.8-1.4 7.5-2 11.3a970.383 970.383 0 01-1 5.7c-.2 1.8-.7 3.5-1 5.3-.3 1.8-.2 3.6-.5 5.4-.3 1.8-.8 3.6-1.2 5.4-.8 3.7-2 7.3-3.3 10.8-1.2 3.4-2.7 6.7-3.8 10.2-.6 1.7-1.1 3.4-1.4 5.2-.2 1.7-.2 3.3-.4 5-.2 1.9-.4 3.8-.1 5.7.3 1.8 1.3 3.3 2.3 4.8a92.865 92.865 0 003.3 5c1.1 1.5 2.6 3.3 1.9 5.3.133-.133.267-.3.4-.5-1.9.6-3.9-.7-5.5-1.7-2-1.1-4.2-1.7-6.2-2.6-.8-.4-1.6-.7-2.3-1.2-.8-.6-1.1-1.3-1.3-2.2-.2-1.1-.3-2.2-.4-3.3-.1-1.1-.4-2.2-.6-3.3-.5-2.3-1.2-4.6-1.6-7-.5-2.3-.7-4.7-1-7.1-.1-1.1-.4-2-.7-3.1-.2-1.1.1-2.1 0-3.2 0-1.1-.5-1.9-.8-2.9-.2-1-.1-2.1 0-3.2.2-2.4-.1-4.7-.4-7.1a126.23 126.23 0 00-1-7c-.8-4.8-1.7-9.6-2.3-14.4-.7-4.8-1.2-9.7-1.1-14.6.1-2.4.2-4.8.1-7.2-.1-2.4-.3-4.7-.6-7.1-.6-4.7-.7-9.4-1.5-14.1-.3-2.1-.8-4.2-1.1-6.4-.267-1.8-.433-3.6-.5-5.4 0-1.133.033-2.233.1-3.3 0-.8-1.2-.8-1.2 0z" fill="#fff"/><path d="M59 279.5c1.6.4 3.2-.5 4.5-1.3 1.7-1.1 3.2-2.4 4.7-3.7 4-3.4 8.9-4.9 13.7-6.8 2.6-1.1 5.3-2.2 7.9-3.5 1.2-.7 2.3-1.4 3.6-2 1.1-.6 2.2-1.1 3.3-1.8 3.2-2.2 5.5-5.9 7.1-9.4 3.4-7.2 4.3-15.3 4.3-23.2 0-8.9-1.1-17.7-2.6-26.4-1.3-7.9-3-15.6-4.4-23.5-2-11.6-4.6-23.2-7.8-34.6-3.2-11.5-7-22.9-11.4-34a346.17 346.17 0 00-6.8-16.2c-1.4-2.9-2.7-5.8-4.4-8.5-3.3-5.4-7.2-10.6-11.8-14.9-3.6-3.4-9.2-7.8-14.4-5.4-1.1.5-2.1 1.3-2.9 2.3-.2.2-.2.6 0 .8.2.267.4.5.6.7.5.6 1.3-.3.8-.8-.2-.266-.367-.5-.5-.7v.8c1.6-1.9 3.7-2.9 6.2-2.5 2.7.4 5.1 2.1 7.2 3.8 4.9 3.9 8.9 9.1 12.4 14.3 4.4 6.5 7.3 13.9 10.3 21.1 4.3 10.6 8.2 21.4 11.5 32.3 3.3 11.1 6.1 22.4 8.3 33.7 1.7 8.2 3.2 16.5 4.7 24.8 1.6 8.4 3 16.8 3.6 25.3.5 8.1.4 16.5-1.8 24.3-.9 3.6-2.3 6.9-4.4 10-1.1 1.7-2.4 3.4-4.1 4.7-1.1.7-2.2 1.2-3.3 1.8-1.2.6-2.4 1.3-3.6 2-4.9 2.6-10.2 4.2-15.3 6.4-2.2 1-4.3 2.1-6.1 3.6-1.4 1.2-2.7 2.4-4.2 3.5-1.2.8-3 2.2-4.5 1.9-.8-.2-1.1.9-.4 1.1z" fill="#fff"/><path d="M43.5 62.5c-.067.066-.133.1-.2.1.1 0-.1 0 0 0h-.4c.1 0-.1-.1 0 0-.067-.067-.133-.1-.2-.1 0-.1.1 0 0-.1-.067 0-.1-.033-.1-.1-.1-.1 0 .1-.1 0l-.2-.4c-.067-.133-.133-.367-.2-.7-.4-1.3-.4-2.7-.4-4.1 0-1.3.1-2.7.2-4 .1-1.6.1-3.2.5-4.8.4-1.7 1.2-3.4 2.6-4.4 1.6-1.2 3.6-1.5 5.5-1 2 .5 3.7 1.9 5.1 3.5 1.3 1.6 2.3 3.6 2.4 5.7.1 1.3 0 2.6-.2 3.9-.067.6-.1 1.233-.1 1.9-.1.6-.1 1.1-.2 1.7-.2 1-.7 1.8-1 2.7-.4.9-.6 1.8-1 2.7-.2.4-.3.7-.7 1-.2.2-.2.6 0 .8.3.2.6.2.9 0 .8-.6 1.1-1.8 1.4-2.7.133-.467.3-.933.5-1.4.2-.5.4-1 .6-1.4.5-1.2.6-2.3.7-3.5l.3-4.2c0-1.2 0-2.5-.4-3.7-.3-1.1-.8-2.1-1.4-3.1-1.3-1.9-3.2-3.6-5.3-4.6-1-.4-2.1-.7-3.2-.7-1.1-.1-2.2.2-3.2.6-1.9.9-3.2 2.5-3.9 4.3-.8 2-1 4.1-1.1 6.2 0 1.2-.1 2.5-.2 3.7 0 1.6 0 3.2.3 4.8.3 1.1.8 2.5 2.1 2.7.333 0 .633-.033.9-.1.8-.2.4-1.4-.3-1.2zm-4.4 77.3c.2-2.5 3.2-3.5 5.2-4.1 1.3-.4 2.7-.6 4-1 1.9-.6 3.9-1.3 5.7-2.1 1.9-.8 3.6-1.7 5.5-2.2 1.8-.6 3.7-.8 5.5-1 2.1-.3 4.2-.7 6.3-.9 2.2-.267 4.367-.533 6.5-.8 1.9-.2 3.8-.5 5.8-.4 1.7.1 3.5.3 5 1.2.134-.333.234-.7.3-1.1h-.6c-.3-.1-.6.3-.6.5 0 .4.3.6.6.6.2.067.4.1.6.1.6.1.8-.8.3-1.1-1.4-.9-3.1-1.2-4.8-1.3-1.6-.2-3.3-.1-5 .1-4.4.6-8.8 1-13.3 1.7-1.9.3-3.8.5-5.7.9-2.1.5-4 1.4-5.9 2.2-1.9.8-3.8 1.6-5.9 2.3-1.4.4-2.8.7-4.3 1.1-2.7.7-6.1 2.1-6.4 5.3-.1.8 1.1.8 1.2 0zm-4.3 60.7c5 .2 10 .367 15 .5 2.5.1 4.9.1 7.4.3 2.3.1 4.6.4 6.9.3 1.1-.1 2.2-.4 3.3-.7 1.1-.3 2.2-.2 3.3-.2 1.2 0 2.3-.2 3.5-.5 1.133-.333 2.3-.7 3.5-1.1 2.267-.733 4.5-1.5 6.7-2.3 2.2-.8 4.4-1.6 6.4-2.8l3.3-1.8c.9-.4 1.8-.7 2.6-1.2.8-.4 1.7-.9 2.5-1.3.6-.3 1.5-.6 2-.6.067-.333.134-.7.2-1.1h-1.5c-.8-.1-.8 1.1 0 1.1.467.067.967.1 1.5.1.6 0 .8-1.1.1-1.2-.7-.1-1.4.1-2 .3l-2.4 1.2c-.6.3-1.2.7-1.9 1-1 .4-1.966.834-2.9 1.3-1 .6-2 1.1-2.9 1.7-1.1.5-2.1.9-3.2 1.3a92.775 92.775 0 01-6.8 2.5c-1.2.4-2.367.767-3.5 1.1-1.2.4-2.3.8-3.5 1-1.1.2-2.3 0-3.4.1-1.1 0-2.2.4-3.3.6-1.1.3-2.2.3-3.3.3-1.2 0-2.4-.1-3.5-.2-2.4-.2-4.8-.2-7.2-.3-5.667-.2-11.3-.4-16.9-.6-.8 0-.8 1.2 0 1.2z" fill="#fff"/><path d="M55.3 66.3c.9 0 1.7.2 2.6.5.8.3 1.7.5 2.6.7 1.9.3 3.9.3 5.8.2 4.1 0 8.3.2 12.4.1 2.067-.067 4.167-.2 6.3-.4 1.7-.2 3.3-.4 5-.9 1.6-.5 3.3-1.2 4.8-2 1.6-.9 2.9-2 4.2-3.1 1.7-1.3 3.3-2.6 4.8-3.9 1.5-1.3 2.9-2.7 4.4-3.9 2.5-2.1 5.5-3.9 7.4-6.7.5-.8.9-1.6 1.4-2.4.6-.8 1.2-1.567 1.8-2.3.6-.8 1.2-1.6 1.7-2.5.4-.8.7-1.7 1-2.6.5-1.8 1.4-3.6 2.2-5.3.8-1.8 1.5-3.7 2.1-5.5.3-1.2.6-2.3.6-3.5.1-.9.1-1.9.1-2.8 0-1 .1-2 .4-2.9.1-.5.2-.7.4-1.1l.1-.1c0-.1-.1.1 0 0l.2-.2c0-.1 0 0-.1 0 .067 0 .134-.034.2-.1.1-.1-.1 0 .1 0l.2-.1h.2c.067 0 .1.033.1.1a.88.88 0 01.4.1c.7.2 1-.9.3-1.2-.9-.3-1.8-.2-2.4.5-.6.6-.9 1.5-1 2.4-.4 1.9-.3 3.9-.4 5.9v.5c-.066.2-.1.4-.1.6-.266 1-.566 1.933-.9 2.8-.6 1.9-1.4 3.7-2.3 5.5-.4.9-.8 1.8-1.1 2.7-.4.9-.6 1.8-.9 2.7-.7 1.8-2 3.3-3.1 4.8-.6.8-1.166 1.633-1.7 2.5-.4.7-.9 1.4-1.5 2.1-1 1.2-2.3 2.2-3.6 3.2-1.4 1.1-2.8 2.1-4 3.2a91.92 91.92 0 01-4.7 4.2 289.47 289.47 0 01-4.7 3.8c-1.3 1-2.8 1.8-4.3 2.5-1.5.6-3.1 1.1-4.8 1.5-1.8.3-3.8.4-5.7.6-4.2.2-8.3.1-12.5 0-2 0-4 .1-6 0-.9 0-1.9-.1-2.9-.2-.9-.2-1.7-.5-2.5-.8-.9-.2-1.7-.4-2.6-.3-.8 0-.8 1.2 0 1.1zm88.8-50.4c-2.7-.2-5.3.2-7.2 2.3-.9.9-1.4 2.1-2.1 3.2-.7 1.1-1.5 2.3-1.6 3.6-.1 1.4.9 2.6 2.3 2.7.8 0 1.6-.1 2.2-.4.867-.4 1.7-.833 2.5-1.3.8-.5 1.8-.8 2.7-1 .4-.2.7-.4 1-.7.734-.533 1.4-1.167 2-1.9.7-.8 1.4-1.8 1.7-2.8.2-1.1-.3-2-1.4-2.3-.2 0-.5.1-.6.3-.9 1.9-2.4 3.4-4 4.8-1.3 1.1-2.6 2.3-3.8 3.5-1.2 1.2-2.4 2.6-2.9 4.3-.4 1.3-.1 3.1 1.3 3.7 1.3.6 2.7.1 3.9-.5 1.3-.6 2.4-1.4 3.5-2.3.8-.6 1.4-1.3 2.2-2 1-1 2.1-2 3-3.2.8-.9 1.8-2 1.8-3.3 0-.267-.066-.533-.2-.8-.2-.4-.6-.4-1-.3-.8.1-1.5.5-2 1-1.3 1.1-2.1 2.6-2.9 4-.8 1.3-1.8 2.5-2.7 3.7-.9 1.3-2.1 2.8-2.4 4.5-.1.7-.1 1.5.3 2.2.4.7 1 1.2 1.8 1.5.7.2 1.5.3 2.3.3.9 0 1.8 0 2.6-.2 1.7-.4 3-1.6 3.9-3 .6-.9 1.1-1.9 1.6-2.9.5-1.1 1-2.3 1.2-3.5.3-1 .5-2.1.3-3.1-.1-1-.7-1.5-1.6-2-.4-.1-.8-.3-1.1-.6-.4-.3-.7-.7-1-1.1-.7-.8-1.3-1.8-1.9-2.7-.5-.8-1.1-1.7-1.9-2.4-.7-.7-1.6-1.1-2.5-1.5-.933-.4-1.866-.667-2.8-.8-.7-.1-1 1-.3 1.1 1 .2 1.934.5 2.8.9.8.3 1.6.7 2.3 1.4 1.4 1.6 2.3 3.6 3.7 5.3.3.3.7.7 1.1.9.4.3.8.5 1.2.7.3.1.6.3.8.6.1.5.1 1 0 1.4-.1 2.4-1.2 4.5-2.3 6.6-.7 1.4-1.7 2.8-3.2 3.4-.8.3-1.7.3-2.5.3s-1.5 0-2.2-.2c-3.7-1.2.5-6 1.6-7.5.5-.6.9-1.2 1.4-1.8.4-.6.7-1.2 1.1-1.8.4-.7.8-1.4 1.3-2 .5-.6 1-1.2 1.7-1.4.2-.2.5-.2.8-.1a4.797 4.797 0 00-.5-.3v.4c0 .067-.033.167-.1.3 0 .1-.2.3-.2.5-.2.2-.366.433-.5.7-.7 1-1.6 1.9-2.5 2.8-1.3 1.3-2.6 2.7-4.1 3.8-1 .7-2 1.3-3.1 1.7-.5.2-1 .4-1.5.4-.4 0-.7-.1-1-.3-.8-.8-.5-2.1 0-3 .6-1.3 1.7-2.4 2.7-3.4 1.2-1.2 2.5-2.3 3.7-3.4 1.5-1.4 3-2.8 3.8-4.7-.266.067-.5.167-.7.3.2 0 .2 0 .4.1 0 .1.1.1.1.2 0-.1 0 .1.1.1 0 .1-.1-.1 0 0v.1s-.1.3 0 .2c-.066.067-.1.133-.1.2-.2.7-.7 1.4-1.2 2a11.468 11.468 0 01-1.8 1.8c-.2.3-.4.4-.6.5l-.6.3c-.466.133-.9.267-1.3.4-.3.1-.7.3-1.1.4-.4.267-.766.5-1.1.7-.7.4-1.4.8-2.2.9-.5.1-1 .2-1.5-.1-.4-.2-.7-.6-.7-1.1 0-1.1.8-2.1 1.3-3 .3-.4.6-.8.9-1.3.3-.5.5-1 .9-1.5.7-.9 1.7-1.6 2.7-2 1.3-.4 2.6-.4 4-.3.7 0 .7-1.2 0-1.2z" fill="#fff"/><path d="M133.7 22.4c.1-2.8-1.1-5.4-2.2-7.9-1.3-2.7-2.2-5.5-3.3-8.2-.6-1.6-1.233-3.167-1.9-4.7-.133.2-.267.433-.4.7.8-.1 1.5-.5 2.2-.8.5-.2 1.2-.5 1.7-.1.4.2.6.8.8 1.2.2.6.3 1.3.5 1.9.2 1.5.6 2.9 1.1 4.3.7 1.8 1.5 3.5 2.3 5.3.9 2 1.8 3.9 2.6 5.9.3.7 1.4.4 1.1-.3-1.4-3.8-3.4-7.3-4.8-11.2-.4-.9-.7-1.8-.9-2.7l-.3-1.8c-.3-1.3-.6-2.8-1.7-3.6-1.6-1.1-3.3.5-4.9.7-.3.1-.5.5-.4.8 1.1 2.7 2.2 5.5 3.2 8.3.5 1.4 1 2.7 1.6 4.1.6 1.2 1.2 2.4 1.7 3.7.5 1.4.9 2.9.8 4.4-.1.8 1.1.8 1.2 0zm5.2 9.5c-.2.067-.4.1-.6.1-.067 0-.134-.033-.2-.1.1.1 0-.1 0 0 0-.067-.034-.1-.1-.1 0-.2 0-.2-.1-.3-.2-.7-.5-1.2-1.2-1.4-.3-.2-.7.1-.7.4-.4 1.5.4 3 1.1 4.3.3.7.7 1.4 1 2.1.4.8.7 1.7 1 2.6.4 1 .8 1.967 1.2 2.9.3.7.6 1.4.9 2 .4 1.4.7 2.7 1.2 4 .2.6.4 1.2.8 1.8.2.4.6.9 1.1 1.1.6.2 1.2.1 1.7-.1a9.57 9.57 0 001.9-.8c1.1-.6 2.1-1.7 2.1-3.1 0-.8-.3-1.6-.5-2.3a9.147 9.147 0 00-1.3-2.2c-.6-.8-1.2-1.5-1.8-2.3-.1-.2-.1-.2 0-.4 0-.1.2-.3.3-.4.3-.4.8-.7 1-1.2.3-.6.2-1.2-.3-1.7s-1.4.3-.8.9c.1.1.1.1.1.2 0-.1 0-.1 0 0 0-.1-.1.1 0 0l-.1.2-.9.9c-.3.4-.6.8-.6 1.3.1.7.6 1.2 1 1.7.4.6.9 1.2 1.4 1.8.4.7.8 1.4 1 2.1.2.6.4 1.2.3 1.9-.134.267-.3.5-.5.7a1.583 1.583 0 01-.3.4l-.1.1c-.9.6-2 1.2-3 1.2h-.2a.96.96 0 01-.4-.5c-.3-.5-.5-1-.7-1.5-.5-1.2-.8-2.5-1.2-3.7-.4-1.5-1.2-2.8-1.7-4.3-.7-1.7-1.3-3.5-2.2-5.1-.4-.8-.8-1.5-1.1-2.3-.2-.6-.4-1.3-.3-2-.2.133-.434.267-.7.4-.1 0 .1.1.1 0 0 .067.033.133.1.2-.1-.1 0 .1 0 .1l.1.1c.1.2.2.6.4.8.4.8 1.3.9 2.1.7.7-.2.4-1.4-.3-1.2z" fill="#fff"/><path d="M141.7 45c-.6 3.2-3 5.6-4.5 8.4-.8 1.4-1.4 2.8-2.7 3.9-.6.4-1.2.8-1.8 1.3-.6.5-1 1.1-1.5 1.7-3.1 4-7 7.5-11 10.6-4.6 3.6-9.6 6.7-14.7 9.4-5.2 2.8-10.6 5.1-16.2 6.9-4.9 1.6-10 2.8-15.2 3.1-.533.067-1.1.1-1.7.1-.7 0-.7 1.2 0 1.2 5.2-.1 10.3-1.2 15.3-2.6 5.7-1.7 11.2-4 16.5-6.6 5.3-2.7 10.4-5.8 15.2-9.4 4.3-3.1 8.3-6.6 11.7-10.7.9-1.1 1.6-2.2 2.7-3 .6-.5 1.3-1 1.9-1.5.6-.5 1.1-1.2 1.5-1.9.4-.7.7-1.4 1.1-2 .4-.733.8-1.4 1.2-2 .9-1.4 1.9-2.7 2.5-4.2.4-.8.667-1.6.8-2.4.1-.7-1-1-1.1-.3zM41.9 281.6c2.9.9 5.8 1.3 8.7 1.7 1.4.3 2.8.5 4.2.9 1.3.3 2.5.6 3.8.7v-1.2c-2.5-.1-5 .1-7.4-.2a14.151 14.151 0 01-3-.7c-.9-.4-1.8-.8-2.8-1.1-1-.3-2.1-.5-3.1-.2-.2 0-.4.3-.4.6.1 1.2.8 2.5 1.5 3.6.6 1 1.4 2.3 2.5 3 .3.2.7 0 .8-.4.3-1 .3-2 .3-3-.1-.8-1.2-.8-1.2 0-.2 3.8.1 7.6 1.8 11.1.2.4.8.3 1 0 .4-.6.7-1.2.9-1.8.4-.867.7-1.767.9-2.7.4-1.4.6-3.5-.9-4.4-.3-.2-.7 0-.9.4-.6 2-.3 4.2-.4 6.3 0 .8 1.2.8 1.2 0 .1-2.2 1.1-5.1-.7-6.8-.2-.3-.7-.3-.9.1-.8 1.6-.4 3.5-.4 5.2h1.2c0-1.7.1-3.5-.6-5.2-.4-.8-1.5-2.4-.4-3h-.5c.3.1.4.2.6.5.2.266.334.6.4 1 .3.7.4 1.4.3 2.2l1.2-.2c-.1-.2-.1-.4.1-.5h-.6c1.1.5 1.2 1.8 1.4 2.8.2 1.1.4 2.3 1.5 2.9.5.2.9-.1.9-.5.1-1.2-.2-2.4-.5-3.6-.2-1.1-.5-2.3.1-3.4h-1.1c.8 1.2 1.3 2.5 1.6 3.8.1.7 1.1.5 1.1-.1 0-.7-.1-1.4-.1-2.1-.1-.7 0-1.4.4-1.8-.2 0-.4.033-.6.1.9.2 1.1.8 1 1.6.4.066.767.133 1.1.2 0-.9 0-1.9.6-2.6a20.908 20.908 0 01-.9-.2c.5 1.8.4 3.8.2 5.6-.2 2-.5 4-.3 5.9.334-.067.7-.1 1.1-.1-.3-1-1.1-2.2-2.2-2.4-.5-.2-1.4 0-1.6.6-.2.7-.3 1.6-.2 2.3.1.8 1.2.8 1.2 0 .067-1 .1-2 .1-3 0-.6-1.1-.8-1.2-.1-.1 1.1-.1 2.4.7 3.3.4.5 1.1 0 1-.6-.4-1.3-1.7-4.6-3.7-3.2-.7.5-1.1 1.2-1.4 2-.3.7-.5 1.5-.5 2.3-.1.7 0 1.7.7 2 .4.2.8 0 .9-.4.4-1.2.4-2.4 0-3.6-.1-.5-1-.6-1.1 0-.3 1.5.5 2.7.9 4 .334-.2.634-.434.9-.7-.6-.3-1.3-.5-2-.6-.5-.1-.8.7-.4 1 .9.8 1.9 1.5 2.9 2s2.2 1 3.4.7c.2 0 .4-.2.4-.4.2-1.2 0-2.6-.3-3.8-.4-1.1-1.1-2.7-2.5-2.6-.4 0-.6.4-.6.7.3 1.6.9 3.2 1.6 4.6.7 1.6 1.7 3.1 3.2 4.2.7.5 1.6.8 2.5.9.3 0 .6-.3.6-.6.2-1.7-.7-3.4-1.8-4.7-1-1.3-2.3-2.5-3.7-3.5-.5-.3-1 .2-.9.6.7 2.6 2.8 4.6 4.5 6.6.2.2.5.2.7.1 1.8-.9.1-3.6-.6-4.6-1.4-2-3-3.8-4.8-5.4-.7-.6-1.4-1.3-2.3-1.6-.5-.1-.9.3-.7.7.3 1.5.8 3 1.7 4.3.8 1.3 2 2.3 3.5 2.9.2.1.5-.1.6-.3 1.2-2.1-.1-4.2-1.5-5.9-.7-.9-1.5-1.8-2.3-2.7-.6-.8-1.2-1.7-1.5-2.7-.1-.4-.2-1-.1-1.4.1-.6.4-1.1.8-1.6l-.4.2c.8 0 1 1.2 1.2 1.8.1.3.4.5.7.4.7-.2 1.2-.6 1.7-1.1.5-.4 1-.9 1.5-1.1.3 0 .4 0 .6.1.3.2.6.6.7.8.3.6.2 1.5.1 2.1-.1.7-.3 1.7-.8 2.2.267 0 .567.033.9.1-.3-.5-.2-1.1-.2-1.7.1-.6.2-1.2.2-1.9h-1.2a393.99 393.99 0 01-.3 9.1c0 .8 1.2.8 1.2 0 .1-1.4.3-2.7.1-4.1-.1-.7-.4-1.4-.9-1.9-.266-.2-.6-.367-1-.5-.5-.1-.8.1-1.2.4-1.2 1.1-1.6 2.6-2 4-.5 1.3-.9 2.6-2.3 3.2-.8.4-1.8.5-2.7.2-.8-.4-1.4-1.2-1.7-2-.3-.6-1.2-.5-1.2.2-.1 2.8.5 5.5.7 8.3.1.7 1.2.7 1.2 0 0-1.2.1-2.4.1-3.6 0-.8-1.1-.8-1.2 0a4.923 4.923 0 000 1.4c.1.3.3.6.6.6s.6-.3.6-.6c-.1-1.6-.1-3.1-.2-4.7-.1-.9-.2-1.8-.4-2.6-.1-.7-.3-1.4-.9-1.8-.3-.2-.9.1-.8.5.267 2.466.334 4.9.2 7.3h1.2c0-1.3.1-2.7.1-4.1l-1.2.2c.4 1.7 1.1 3.5.8 5.3.4.066.767.133 1.1.2.2-3.1-.4-6.1-1-9-.3-1.4-.5-2.7-.7-4.1-.3-1.2-.6-2.5-1.2-3.7-.1-.3-.5-.3-.8-.2-.3.2-.3.5-.2.8 2 4.6 4.1 9.2 7.1 13.1a29.959 29.959 0 002.8 3c.267-.267.567-.534.9-.8-.7-.6-1.7-1-2.6-.7-.8.4-1.1 1.3-.6 2 .9 1.7 3.1.9 4.4 2 .9.7 1.5 1.7 2.7 2.2.3.1.7-.2.7-.5.2-1-.1-2.1-.6-3-.5-.9-1.2-1.8-2.1-2.2-.3-.2-.8-.1-.8.3-.3 1.4.6 2.8 1.4 3.9.9 1 2.1 2.1 3.4 2.5.2 0 .4 0 .5-.2.7-.7.9-1.6.7-2.5-.1-.9-.7-1.7-1.2-2.4-.5-.6-1.1-1.2-1.7-1.8-.7-.6-1.2-1.3-1.8-2-.7-.8-1.4-1.6-2.3-2-.3-.1-.7.2-.8.5-.1.3.1.6.4.7.4.1.8.5 1 .7.4.466.8.9 1.2 1.3.6.733 1.234 1.433 1.9 2.1 1 1 3.1 3 1.8 4.6l.6-.2c-1-.3-2-1.2-2.7-2a7.367 7.367 0 01-1-1.5c-.2-.5-.4-1-.3-1.3a6.882 6.882 0 00-.9.3c.7.4 1.3 1 1.6 1.7.4.7.7 1.5.6 2.2.2-.134.434-.267.7-.4-.9-.3-1.5-1.3-2.2-1.9-.8-.6-1.6-.8-2.5-.9-.6-.1-1.6-.2-1.8-.9v-.1c.1 0 0 .1 0 0 .1-.1.2-.1.3-.1.4 0 .8.2 1.1.4.6.6 1.4-.3.9-.8-3.7-3.3-6-7.8-8.1-12.2-.533-1.2-1.1-2.434-1.7-3.7l-1 .6c.6 1.1.8 2.4 1 3.6.3 1.3.5 2.6.8 3.9.5 2.9 1.1 5.7 1 8.7-.1.7 1 .8 1.1.2.4-2.1-.3-4.1-.7-6-.2-.7-1.2-.6-1.2.1 0 1.4 0 2.8-.1 4.1 0 .8 1.2.8 1.2 0 .134-2.4.034-4.8-.3-7.2-.266.133-.566.3-.9.5-.1-.2 0 0 .1 0-.1-.2 0 0 0 .1.1.1.1.1.1.2.134.333.234.666.3 1 .1.7.2 1.6.2 2.4.1 1.4.1 2.8.2 4.3h1.2a4.923 4.923 0 010-1.4h-1.2c0 1.2-.1 2.4-.1 3.6h1.2c-.2-2.8-.8-5.5-.7-8.3-.4 0-.8.033-1.2.1.5 1.2 1.3 2.3 2.5 2.8 1.1.4 2.5.3 3.6-.2 2.1-.9 2.6-3.1 3.2-5 .3-1 .8-2 1.7-2.7a.897.897 0 01-.4.1c1 .2 1.3 1.2 1.3 2.2.1 1.1-.1 2.1-.2 3.2h1.2c.134-3 .234-6.034.3-9.1 0-.7-1.1-.7-1.2 0 0 1.4-.6 3 .2 4.2.2.3.6.4.9.1.6-.6.9-1.5 1.1-2.3.2-.9.3-2 0-2.9-.2-.8-.9-1.7-1.8-1.9-.8-.2-1.6.2-2.2.7-.6.5-1.3 1.3-2 1.5.2.133.434.266.7.4-.2-.9-.5-1.9-1.3-2.4-.4-.3-1.1-.5-1.5-.1-.2.2-.4.6-.6.9-.6 1.2-.7 2.5-.2 3.8 1.1 2.5 3.4 4.3 4.8 6.6.4.5.6 1 .8 1.7v.7c0 .3-.1.6-.3.8.267-.067.5-.167.7-.3-2.6-1-3.7-3.7-4.4-6.3a7.41 7.41 0 00-.7.8h.1c-.1-.1 0 0 .1 0a1.6 1.6 0 00.4.3c.4.2.5.4.9.7.8.666 1.567 1.4 2.3 2.2.734.8 1.434 1.666 2.1 2.6.334.4.634.833.9 1.3.134.2.234.4.3.6.067.066.1.133.1.2.067.066.1.133.1.2 0 0 .1.2.1.1.067.133.1.3.1.5.1.1.1.4.1.2v.4c-.1 0 0-.1-.1 0h-.1c.267.066.5.1.7.1-1.6-1.7-3.5-3.6-4.1-6-.333.266-.633.5-.9.7 1.2.9 2.4 2 3.4 3.2.9 1.1 1.7 2.5 1.5 4l.6-.6c-1.4-.1-2.6-1.2-3.4-2.2-.9-1.3-1.6-2.8-2.1-4.4a10.61 10.61 0 01-.6-2.2l-.6.8c.2 0 .2 0 .4.1.1 0 .3.2.4.4.3.4.4.9.6 1.4.134.6.234 1.166.3 1.7v1.1c0 .1-.1.4 0 .2l.4-.4c-.8.2-1.9-.3-2.7-.7-.9-.5-1.7-1-2.5-1.7l-.4 1c.534.066 1 .233 1.4.5.4.2 1.1-.2.9-.7-.4-1.1-1.2-2.2-1-3.4h-1.1c.334 1 .334 2 0 3a3.83 3.83 0 01.8-.3s-.1-.1 0-.1c0 .1-.1 0 0 0 0 .1-.1 0-.1 0v-.3c0 .1-.1-.1 0 0a.89.89 0 01-.1-.4c0-.4.1-.5.1-.8.067-.4.167-.734.3-1 .2-.5.5-1.2.8-1.5l.2-.2c.1-.1-.1.1.1 0l.1-.1h.3l.1.1c.1 0 0-.1.1 0l.2.2c.1.1.2.3.3.5.3.6.5 1.2.7 1.8.334-.134.667-.3 1-.5-.4-.6-.4-1.5-.3-2.2l-1.2-.2c0 1-.033 2-.1 3h1.2c-.066-.667 0-1.334.2-2a.647.647 0 00-.3.3c.8-.5 1.6.9 1.8 1.5.2.6 1.2.5 1.1-.2-.2-3.9 1.3-8 .1-11.9-.1-.4-.7-.5-1-.2-.9.9-1.1 2.1-.9 3.4 0 .2.2.5.5.5.2.1.6-.1.6-.4.1-.8.1-1.6-.4-2.3a2.655 2.655 0 00-.9-.6c-.2-.1-.5-.2-.8-.1-.2 0-.3.2-.4.4-1 1.2-.5 3-.5 4.5l1.2-.2c-.3-1.4-.8-2.9-1.6-4.1-.3-.3-.8-.4-1.1 0-.6 1.2-.5 2.6-.2 3.9.2 1.2.7 2.4.5 3.7.334-.2.634-.367.9-.5-.9-.5-.9-1.8-1.1-2.7-.2-1.2-.6-2.4-1.8-3.1-.1-.1-.4-.1-.6 0-.6.5-.9 1.1-.7 1.9.2.7 1.1.5 1.2-.1.1-.9-.1-1.8-.3-2.6-.3-.8-.7-1.7-1.5-2.1-1.1-.5-1.9.9-1.9 1.8.1 1.1.7 2 1.1 2.9.6 1.4.4 3 .4 4.5-.1.8 1.1.8 1.2 0 0-.8-.1-1.6-.1-2.4 0-.7 0-1.5.3-2.2a4.62 4.62 0 00-.9.1c.7.7.7 1.9.6 2.8 0 1.1-.2 2.1-.3 3.2h1.2c.1-2-.2-4.1.4-6a7.207 7.207 0 01-.9.3l.5.5c0 .2.1.5.1.8 0 .7-.1 1.5-.3 2.2-.3 1.3-.8 2.7-1.6 3.8h1c-1.5-3.3-1.8-7-1.6-10.5h-1.2c0 .9.1 1.8-.2 2.7.267-.134.567-.234.9-.3-.4-.2-.7-.7-1-1-.4-.534-.766-1.067-1.1-1.6-.333-.6-.633-1.2-.9-1.8a2.226 2.226 0 01-.3-.7c0-.134-.033-.234-.1-.3v-.2c0 .1 0-.1 0 0l-.5.5c.9-.2 1.7 0 2.5.2.9.3 1.8.7 2.7 1.1 2.1.8 4.4.9 6.6 1 1.4 0 2.8-.1 4.2 0 .8 0 .8-1.2 0-1.2-1.3 0-2.4-.4-3.7-.7-1.3-.3-2.7-.6-4.1-.8-2.9-.5-5.8-.9-8.6-1.7-.7-.2-1 .9-.3 1.1z" fill="#fff"/><path d="M58.9 296.9c0 .8.1 1.5 0 2.2v.5c-.1.1-.1.2-.2.2-.1.2-.4.2-.8.2s-.6.4-.5.8c.3 1.1.7 2.2 1.2 3.3.5 1 1 2.2 1.9 2.9.3.3 1 .1 1-.4 0-1-.5-2-1-2.8-.5-1-1.1-1.9-1.7-2.8-.5-.8-1.1-1.6-1.7-2.4-.6-.7-1.4-1.6-1.5-2.6-.267.2-.567.367-.9.5 1.6 1.2 2.6 2.9 3.8 4.3.6.8 1.2 1.4 1.9 1.9s1.4 1 1.7 1.8c.2-.266.433-.566.7-.9-.4-.1-.7-.5-1-.8l-.9-1.8c-.5-1.1-.8-2.4-1.6-3.3-.267.2-.566.433-.9.7.7.8 1.6 1.5 2.2 2.3.7.9 1 1.8.9 2.8l.6-.6s.3.1.2.1l-.1-.1a1.173 1.173 0 00-.2-.3c-.1-.1-.1 0-.1-.1l-.2-.2c-.467-.667-.9-1.366-1.3-2.1-1-1.6-1.933-3.233-2.8-4.9-.133-.267-.3-.567-.5-.9v-.1c.1.1 0-.1 0 0 0-.067-.033-.133-.1-.2v-.2l-.6.8c1.8.2 3.1 1.9 4.1 3.3.4.6.9 1.3 1.4 2 .5.7 1 1.4 1.6 2.2.4.6 1 1.5 1 2.3.133-.2.234-.366.3-.5.1 0-.1.1 0 0h-.1c-.1.1-.1.1 0 0-.067.067-.133.1-.2.1-.1 0 0 0-.1-.1a.884.884 0 01-.4-.1c-.3-.1-.7-.4-1-.7-.9-.7-1.7-1.6-2.5-2.5-.5-.7-1-1.4-1.6-2-1-.9-2.1-1.8-3.1-2.7-1-1-2.3-2.3-2.3-3.8l-.6.6c3.8-.3 5.5 4.1 6.8 7 .3.8.7 1.7 1.2 2.5.3.6 1.3.2 1.1-.5-.467-1-1.133-1.9-2-2.7-.8-.6-1.7-1.2-2.6-1.8-2.1-1.5-3.6-3.7-5.4-5.6-.5-.5-1.4.3-.8.9 1.7 1.8 3.2 3.9 5.3 5.5 1.6 1.1 3.6 2.1 4.3 4.1a15 15 0 011.1-.5c-.9-1.6-1.5-3.3-2.3-4.9-.9-1.7-1.9-3.5-3.6-4.5-.9-.5-2-.8-3.1-.7-.3 0-.6.3-.6.6.1 1.6 1 2.9 2 4 1.1 1.1 2.3 2 3.4 3 .7.7 1.3 1.5 2 2.3.7.9 1.6 1.9 2.5 2.7.9.7 2.1 1.4 3.2.8.2-.1.3-.3.3-.5 0-.9-.4-1.7-.9-2.4-.5-.9-1.2-1.7-1.8-2.5-1.1-1.5-2-3.3-3.5-4.6-.9-.8-1.9-1.4-3.1-1.5-.4-.1-.6.4-.6.7.1.5.4 1 .6 1.5.467.8.9 1.6 1.3 2.4 1 1.6 1.9 3.3 3 4.8.3.4.8 1.3 1.4 1.2.4 0 .6-.2.6-.6.3-2.6-1.9-4.2-3.5-6-.4-.5-1.3.2-.9.7.8 1.1 1.2 2.5 1.7 3.7.5 1.1 1.2 2.5 2.5 2.9.5.1.8-.5.6-.9-.3-.9-1-1.4-1.8-2-.7-.6-1.4-1.1-2-1.9-1.3-1.6-2.3-3.3-4-4.5-.3-.2-.9.1-.9.5.1 1.1.7 2 1.4 2.8.6.9 1.3 1.6 1.8 2.5.6.9 1.1 1.7 1.7 2.6.4.8 1 1.7 1 2.7l1-.4c-.8-.7-1.3-1.8-1.7-2.7-.4-1-.767-2-1.1-3-.2.2-.4.434-.6.7 1.1.1 1.9-.5 2.2-1.5.2-.9 0-1.9 0-2.8 0-.7-1.1-.7-1.2 0zm1.9-20.5c0-.5.2-1 .4-1.5.267-.734.533-1.5.8-2.3.5-1.4 1-3 .9-4.6-.1-.7-.3-1.4-1-1.8-.2-.2-.5-.1-.7.1-.7.6-1.2 1.5-1.3 2.6-.067.466-.1.933-.1 1.4 0 .5-.1 1 0 1.5.2.6 0 1.3-.3 1.9-.3.8-.8 1.5-1.3 2.3-.4.7-.9 1.4-1.3 2.2a3.15 3.15 0 00-.4 1c-.1.2-.1.4-.1.6 0 .4.3.6.5.8.8.6 1.7.9 2.7.6.9-.3 1.6-1 2.1-1.8 1.4-2.1.9-4.5 1-6.9 0-.7-1.2-.7-1.2 0 0 .9.2 1.8.5 2.6s.6 1.7 1.1 2.3c.3.3.8.2 1-.1.6-1.4 0-2.9-.8-4.2-.4-.7-.8-1.3-1.3-2-.3-.5-.7-1.1-.9-1.7l-1 .6c.9 1.1 1.7 2.5 2.2 3.9.6 1.3 1 2.8.9 4.3 0 .6-.1 1.2-.3 1.8v.1c0-.1-.1.1 0 0 0 0-.1.1 0-.1v.1c-.1 0-.2 0 0 0h-.2c-1.2 0-2.3.2-3.4.6-1.5.4-3.1 1.1-4.3 2.2-.5.5.3 1.3.9.8 1-1 2.5-1.5 3.8-1.9.7-.2 1.3-.4 2-.5.5 0 1 0 1.4-.1 1.1-.2 1.2-1.7 1.3-2.5.1-1.6-.3-3.3-.8-4.8-.6-1.7-1.5-3.4-2.7-4.8-.4-.4-1.2 0-1 .6.5 1.3 1.4 2.4 2.1 3.6.6.9 1.5 2.3 1.1 3.4.267 0 .567-.033.9-.1-.4-.5-.7-1.3-.9-1.9-.2-.7-.4-1.4-.4-2.2h-1.2c0 1.9.4 4-.4 5.7-.4.7-.9 1.5-1.7 1.8-.8.4-1.5 0-2-.6.067.2.1.4.1.6.2-.9.6-1.6 1-2.3.5-.8 1.1-1.6 1.6-2.4.4-.7.8-1.5.9-2.4.067-.4.067-.833 0-1.3 0-.2-.1-.3-.1-.5 0-.333.033-.633.1-.9 0-1.2.1-2.3 1-3.1-.2 0-.433.033-.7.1 0 0 .1.1.2.1-.1 0 .1.3.1.2.1.2.1.5.1.7 0 .6-.1 1.3-.2 1.9-.4 1.5-.9 2.9-1.4 4.3-.2.6-.4 1.1-.5 1.7 0 .3.1.6.4.7.3.1.7-.1.8-.4z" fill="#fff"/><path d="M60.2 277.7c.2.1.3.2.4.4.3.5 1.1.3 1.1-.3-.1-2.1.1-4.2.1-6.3l-1.2.2c.4 1.4.3 3.7 2 4.3.3.1.6-.1.7-.4.3-1.1.5-2.4.5-3.6 0-1.2-.1-2.6-1.1-3.4-.3-.2-.9 0-.9.4-.1.7 0 1.5.2 2.2.1.8.4 1.5.4 2.2 0 .8 1.2.8 1.2 0 0-1.3.1-2.5-.1-3.8-.1-1.3-.5-2.8-1.8-3.3-.3-.1-.6.1-.7.4-.5 1.1-.2 2.4.2 3.5.4 1.4 1.1 2.7 1.7 4 .5 1.1 1 2.3 1 3.6.067.2.067.4 0 .6 0 .1-.1.2-.2.3-.4.3-1.1.5-1.6.6-.733.267-1.5.467-2.3.6-.7.2-1.6.3-2.3.2-.3-.1-.6.1-.7.4-.1.3.1.7.4.7 1.5.3 3.2-.1 4.7-.6 1-.3 2.6-.5 3.1-1.7.2-.6.1-1.2.1-1.8a9.006 9.006 0 00-.6-1.9c-.5-1.4-1.2-2.8-1.8-4.1-.5-1.3-1.1-2.8-.6-4.1-.266.133-.5.267-.7.4.3.1.5.5.7.9.2.5.2 1.1.3 1.7.1 1.2 0 2.3 0 3.4h1.2c0-.7-.2-1.4-.4-2.1-.2-.7-.4-1.3-.3-2a3.95 3.95 0 00-.8.3c-.1 0 .1.2.1.1 0 .067.034.167.1.3.1.1.2.4.2.6.1.5.1 1.1.1 1.7 0 1-.2 2-.4 3 .2-.133.434-.267.7-.4-.1-.1-.3-.3-.4-.5-.2-.3-.3-.7-.3-1-.2-.7-.3-1.3-.4-2-.2-.7-1.2-.5-1.2.1 0 2.1-.2 4.2-.1 6.3.4-.133.767-.233 1.1-.3-.3-.6-.8-.9-1.4-.9-.4-.1-.6.3-.6.6s.2.5.6.5zm2.3-166.4c-1.267.934-2.4 2-3.4 3.2-1 1.2-1.8 2.5-2.6 3.8l1 .6c.4-.7.9-1.3 1.3-2 .6-.7 1.1-1.5 1.6-2.3.9-1.6 1.5-3.4.3-5-.2-.2-.6-.2-.8-.1-1.6 1.2-2.3 3.1-2.8 5-.6 1.8-.8 3.8-1.1 5.7-.1.7.7 1.1 1.1.5.4-.7.6-1.4.8-2.2.2-1 .3-2.033.3-3.1.2-2.1.1-4.4-.8-6.3-.4-.6-1.2-1.7-2-1.5-.9.2-1.6.8-2.2 1.5-1.3 1.8-1.9 4.1-2.3 6.2-.4 2.3-.7 4.6-.6 6.9 0 .4.5.8.9.5 1-.7 1.3-2 1.6-3.1.4-1.4.6-2.8.3-4.2-.1-.6-.2-1.1-.6-1.6-.3-.3-.6-.4-1.1-.2-.4.067-.8.2-1.2.4-1.2.7-1.8 2-2.1 3.3-.3 1.4-.4 2.9-1.4 4l1 .6c.3-1.3.7-2.5 1-3.7.3-1.4.7-3.1 0-4.5a1.992 1.992 0 00-.6-.7c-.4-.3-.7-.3-1.1-.1-.6.2-1.1.8-1.3 1.4-.7 1.4-.8 2.9-1 4.4 0 .334-.034.634-.1.9 0 .1 0 .1 0 0v.4a5.681 5.681 0 01-.3 1c-.3 1.4-.6 2.9-.6 4.3.1.8 1.2.8 1.2 0 .133-1.2.2-2.4.2-3.6 0-1.5 0-3.1-.5-4.5-.2-.6-.5-1.2-1-1.4-.267-.2-.534-.266-.8-.2-.6 0-.7.4-1 .8-.9 1.7-1.6 3.6-2.2 5.5-.5 1.9-1.1 4.3-.1 6.2.2.4.8.4 1 0 .7-1.2.9-2.7 1-4.1.2-1.5.2-3.1-.4-4.6-.3-.7-.7-1.3-1.4-1.7-.2-.1-.6-.1-.8.2-.9 1.8-1.3 3.9-1.6 5.9-.2 1.9-.2 4 .3 6 .1.4.7.6 1 .2.333-.333.6-.733.8-1.2a5.347 5.347 0 00-1.1-.3c-.1 3.3-.1 6.7-.4 10.1 0 .6 1 .8 1.2.1.5-2.5 1.8-5 .9-7.6-.1-.5-.8-.6-1-.2-.7 1-.9 2.1-.9 3.3 0 .7 1.1.7 1.2 0 0-.4-.034-.8-.1-1.2-.267.134-.534.3-.8.5.7.5 1.3 1.2 1.6 2.1.1.3.4.5.8.4 1.1-.3 2-1.4 2.7-2.3 1.066-1.333 2-2.766 2.8-4.3.7-1.4 1.4-2.9 1.6-4.5.1-1.2-.2-2.5-1.4-3.1-.6-.3-1.3.2-1.8.5a3.489 3.489 0 00-1.1 1.3c-.6.9-.9 2-1.6 2.9l1 .4c0-1.7 1.1-3.2 1.1-5-.1-.3-.3-.6-.6-.6-1.6 0-2.1 1.9-2.4 3.1-.4 1.7-.5 3.5-.3 5.2.1.7.2 1.5.5 2.1.2.3.6.4.8.2 1.5-.9 2.3-2.5 2.9-4.1.5-1.6.9-3.3.8-5-.1-.5-.9-.9-1.1-.3-.6 1.3-1 2.7-1.1 4.2-.2 1.4-.2 2.9.2 4.3 0 .3.5.5.8.3 3.8-2.3 4.2-6.8 5.5-10.7.3-.7-.9-1-1.1-.3-.5 1.1-.8 2.3-.9 3.5-.1 1.2.1 2.6 1.3 3.1.2.1.5.1.7-.1 3-3.5 3.3-8.4 4.7-12.6-.4-.133-.767-.266-1.1-.4-.5 2.1-1 4-1.1 6.1-.1 1-.1 2.2.2 3.2.2.467.433.9.7 1.3.2.2.4.4.7.4.3 0 .6-.1 1-.2 1.4-.5 2.6-1.7 3.4-2.9.2-.3 0-.7-.2-.9-.6-.4-1.5-.2-2.1 0-1 .3-1.9.8-2.8 1.3-1.9 1.2-3.8 2.6-5.2 4.3-.4.5-1.1 1.4-.8 2.2.1.3.3.4.6.5 1.8 0 3.6-.4 5.3-1.1 1.7-.6 3.3-1.5 5-2.3.6-.3.1-1.2-.5-1.1-.7.2-1.3.3-2 .3l-2.8.4c-1.4.2-3.4.5-4 2-.1.3.1.6.4.7 1.2.4 2.6.5 3.8.5 1.3 0 2.7-.2 3.8-.9.3-.2.4-.8 0-1-1.8-1-4.1-.2-5.8.5-.9.3-1.7.7-2.6 1-.9.3-1.8.5-2.8.9-.9.3-1.9.7-2.5 1.6-.2.3 0 .8.4.8.8.2 1.5.1 2.3-.1.7-.2 1.4-.4 2.2-.3-.2-.333-.367-.633-.5-.9-.4.8-1.6 1-2.5 1.3-1.1.4-2.2 1-2.5 2.3-.1.2 0 .4.1.6 2.3 2 5.3-.8 7.1-2.2a4.608 4.608 0 01-.7-.9c-2 1.5-4.4 2.3-5.9 4.3-.2.3 0 .8.4.9 2.5.5 4.8-1.1 7.1-2.1 2.5-1.2 5.1-2.5 7.7-3.6 2-1 4.1-1.9 6.3-2.4 1.7-.4 3.4-.8 5.1-1.3.9-.2 1.8-.5 2.6-1 .7-.3 1.4-.7 1.7-1.4.2-.2.1-.5-.1-.7-1.6-1.7-4-1.9-6.3-2.3-2.9-.5-5.9-1-8.8-1.7l.5.5c.2-1.6 1.6-2.8 2.9-3.7 1.4-1.1 2.9-2.2 3.7-3.8.1-.3.1-.7-.2-.9-3.7-1.8-6.7 1.5-9.7 3.1-.8.5-1.6.8-2.5.7.2.134.4.3.6.5-.6-1.5-.2-2.9.4-4.2.6-1.4 1.5-2.7 2-4.1.2-.5-.4-.9-.8-.7-2.8 1.5-5.3 3.7-7.1 6.2-.2.2-.1.6.1.7.3.2.6.2.8 0 1-.8 1.7-2 2.5-3 .5-.6-.2-1.3-.8-.9-2 1.6-4.3 2.8-6.6 3.9.266.334.5.667.7 1 1.9-1.5 3.4-3.2 4.6-5.2.3-.4-.1-.8-.5-.8-2.4-.3-3.9 2-5.8 2.9l.6 1c1.6-1.1 3.3-2.1 4.7-3.5.4-.4 0-1.2-.6-1-.734.2-1.4.534-2 1-.6.4-.1 1.3.6 1 1-.5 2-1.1 2.8-1.9.8-.9 1.3-1.9 1.8-2.9.9-1.7 1.5-3.6 2.7-5.2.5-.7 1.2-1.4 2.2-1.5-.2-.266-.4-.5-.6-.7-.5 1.6-1.1 3.1-1.4 4.8-.1.6.8 1.1 1.1.5 2.2-4.7 3.3-9.8 4.4-14.8.2-.7-.7-1.1-1-.5-1.1 2.3-1.7 4.8-2.3 7.3-.2 1.1-.5 2.2-.9 3.3-.3 1.1-.7 2.1-1.1 3.2-.3 1.1-.6 2.3-.6 3.6 0 .5.8.8 1.1.3 1.4-2.9 2.6-5.8 3.5-8.8.2-.7-.7-1-1.1-.5-.9 1.5-2 2.8-2.9 4.3-.8 1.3-1.8 3.3-.9 4.8.2.2.6.4.8.2 2.5-1.7 5.1-3.5 6.5-6.3.2-.6-.5-1.2-1-.7-2.4 2.2-4.6 4.8-6.1 7.8-.4.6.4 1.2.9.7 1.3-1.2 2.5-2.7 3.4-4.2 1-1.6 1.9-3.4 2-5.2 0-.7-.8-.8-1.1-.3-1.5 2-3.1 4-4.4 6.3a24.205 24.205 0 00-1.7 3.5c-.3 1-.5 2-.4 3 .3 1.7 1.8 2.7 3.5 2.6 1.3 0 2.4-.5 3.4-1.4.8-.7 1.6-1.7 2.3-2.6a33.734 33.734 0 002.4-3.6c1.5-2.7 2.9-5.5 3.8-8.4.3-1.2.6-2.4.5-3.6 0-.9-.2-1.9-1-2.6a3.274 3.274 0 00-.5-.4c-.3-.1-.7-.1-.8.2-2.2 3.6-4.3 7.3-4.9 11.5-.3 2.2-.7 4.4-.3 6.6.1 1.1.7 2.3 2 2.2.2-.1.5-.2.5-.5 1-3.7 1.4-7.6 1.9-11.5 0-.6-1.1-.8-1.2-.1-1.2 5.4-1.6 11-1.4 16.6.1.4.7.8 1.1.4.9-1.2 1.4-2.7 1.6-4.2.3-1.6.3-3.2.3-4.8.1-1.9.1-3.8.1-5.6a55.19 55.19 0 00-.6-6.6 51.723 51.723 0 00-1.5-7.1c-.1-.4-.6-.6-.9-.4-2.7 1.8-2.3 5.6-2 8.3.2 1.4.4 2.9.6 4.3.2 2.4.4 4.8.8 7.2.2 1.2.433 2.367.7 3.5l.4 1.8c.066.267.166.534.3.8.1.3.2.4.5.5.7.3 1.6.2 2.1-.5.6-.6.8-1.5 1-2.4.1-1.1.2-2.2.2-3.3 0-1.066-.067-2.166-.2-3.3a5.1 5.1 0 00-.1-1c0-.2 0-.4-.1-.6-.2-.5-1-.6-1.1 0v.2h1.1c-.2-2.3-.5-4.7-1-7-.5-2.5-1.2-5-2.3-7.2-.6-1.2-1.4-2.2-2.3-3.1-.4-.3-1-.1-1 .4-.1 3.1 0 6.2.5 9.2.5 2.9 1.4 5.6 2.7 8.3a26.752 26.752 0 002.7 4.6c.1.2.5.4.8.2 1-.6 1.4-1.8 1.6-2.9.3-1.4.3-2.9.2-4.3-.2-2.7-.7-5.4-1.1-8-.5-2.8-1-5.7-1.8-8.4a5.31 5.31 0 01-1.1.3c2 6 4.4 11.9 6.8 17.8.666 1.667 1.3 3.367 1.9 5.1.3.7 1.4.4 1.2-.3-2.3-6-4.8-11.8-7-17.8-.6-1.666-1.2-3.367-1.8-5.1-.2-.7-1.3-.4-1.1.3 1 3.8 1.6 7.7 2.2 11.5.5 2.6.8 5.3.6 7.9-.1.6-.2 1.2-.4 1.8-.2.4-.5.9-.8 1.1l.8.2c-1.7-2.5-3.1-5.1-4.1-7.9-.9-2.7-1.4-5.5-1.6-8.4a67.591 67.591 0 010-5.2c-.334.133-.7.267-1.1.4 1.7 1.5 2.6 3.7 3.3 5.7.8 2.4 1.3 4.8 1.6 7.3.2 1.134.366 2.3.5 3.5 0 .3.2.6.6.6.2 0 .6-.3.5-.6 0-.1.1 0 0 .1h-1.1c0 .1 0 .1 0 0v.2c.066.267.1.567.1.9l.2 2.6a51.78 51.78 0 01-.1 3.2c0 .5-.1.8-.2 1.3l-.2.6v.2s-.1.2-.1 0v.2l-.2.2v.1l-.1.1c0 .067-.034.1-.1.1.1-.1-.1.1-.2.1.2-.1 0 0-.1 0h.1-.3c-.067 0-.134-.033-.2-.1h-.1a1.6 1.6 0 01.3.4c-1.2-4.3-1.8-8.6-2.1-13-.3-2.7-1-5.5-.8-8.3.1-1.2.5-2.6 1.6-3.4a7.099 7.099 0 01-.9-.3c1.2 4 1.8 8.2 2.1 12.3v5.8c-.1 1.5-.1 3.1-.2 4.6-.2 1.5-.5 3.2-1.5 4.5l1 .4c-.2-5.5.2-11 1.3-16.3-.334-.067-.7-.133-1.1-.2-.4 3.8-.8 7.6-1.8 11.2l.6-.4H63c.1 0-.1 0 0 0l-.1-.1c.1.1-.1-.1 0 0-.067 0-.1-.033-.1-.1-.1-.1 0 0-.1 0-.2-.3-.2-.7-.3-1.1-.2-1.1-.1-2.3 0-3.3.3-2.7.8-5.5 1.9-8.1.9-2 2-3.9 3.2-5.8l-.8.2.2.2c.066 0 .1.033.1.1l.2.2c.066 0 .1.034.1.1.066.067.1.133.1.2.1.2 0 0 0 .1.066 0 .1.034.1.1.066.2.1.4.1.6v.2c.066.133.1.267.1.4 0 .267-.034.5-.1.7a13.51 13.51 0 01-.3 1.6c-.6 2.7-1.8 5.3-3.2 7.7-1.2 2.3-2.6 4.5-4.4 6.4a7.02 7.02 0 01-1 1l-.1.1c-.067.067-.134.1-.2.1-.067.067-.134.1-.2.1-.1.1-.3.2-.1.1-1.2.5-3 .8-3.7-.5-.4-.6-.4-1.4-.3-2.1.3-1.1.7-2.1 1.2-3.1 1.1-2.2 2.6-4.2 4.1-6.2.333-.4.666-.833 1-1.3a5.297 5.297 0 00-1.1-.3c-.1 1.6-1 3.3-1.8 4.7-.9 1.4-2 2.8-3.3 3.9.333.267.666.5 1 .7 1.5-2.9 3.6-5.4 6-7.6a9.104 9.104 0 00-1-.7c-1.2 2.6-3.6 4.3-6 5.9l.8.2c-.1-.3-.1-.4-.1-.7 0-.3 0-.6.1-1 .3-.8.7-1.5 1.1-2.2.8-1.4 1.9-2.7 2.8-4-.4-.133-.767-.267-1.1-.4-.9 2.9-2.1 5.7-3.4 8.5.333.067.7.167 1.1.3-.1-2.1.9-4.2 1.5-6.1.8-2.2 1.2-4.5 1.8-6.7.4-1.4.8-2.7 1.4-4a5.53 5.53 0 01-1.1-.5c-1.1 4.9-2.2 10-4.3 14.6l1 .4c.4-1.6 1-3.2 1.4-4.8.1-.4-.1-.8-.5-.8-2.2.2-3.5 2.2-4.3 3.9-1 1.8-1.6 3.9-2.9 5.6-.7 1-1.8 1.7-2.9 2.2l.6 1c.533-.4 1.1-.7 1.7-.9-.2-.333-.4-.633-.6-.9-1.2 1.3-2.9 2.2-4.4 3.3-.6.5-.1 1.4.6 1 .9-.4 1.7-1.1 2.5-1.8.8-.5 1.7-1.1 2.7-1a5.309 5.309 0 00-.5-.8c-1.2 1.8-2.667 3.4-4.4 4.8-.6.5.1 1.2.7.9 2.4-1.1 4.7-2.3 6.8-4a10.679 10.679 0 01-.8-.9c-.8 1.1-1.5 2.2-2.5 3 .266.267.566.534.9.8 1.7-2.4 4.1-4.4 6.7-5.8-.334-.2-.634-.4-.9-.6-1.2 2.8-3.7 5.6-2.5 8.9.1.2.3.4.6.4 3.6.1 5.8-3.5 9.1-4.2.8-.2 1.7-.1 2.5.3a667.55 667.55 0 01-.2-.8c-.8 1.6-2.4 2.6-3.8 3.7-1.5 1.2-2.8 2.5-3 4.4 0 .3.2.5.4.6 2.8.8 5.7 1.2 8.5 1.7 2.1.4 4.6.4 6.1 2.1a3.28 3.28 0 01-.1-.8l-.1.2-.3.3c-.2.1-.5.4-.8.5-.7.3-1.4.6-2.1.8-1.7.5-3.3.8-5 1.2-2 .5-3.9 1.3-5.7 2.1-2.6 1.1-5 2.3-7.5 3.5-1.267.6-2.567 1.2-3.9 1.8-1.2.6-2.5 1.1-3.8.8.066.267.166.567.3.9.7-.9 1.7-1.6 2.7-2.1 1-.7 2.1-1.2 3-2 .5-.4-.2-1.3-.7-.9-.9.7-1.8 1.4-2.8 2-.8.5-2 1-2.9.3l.2.6c.3-1 1.4-1.4 2.3-1.6 1-.4 2.1-.7 2.6-1.7.2-.4 0-.9-.5-.9-.7-.1-1.5.1-2.2.2-.6.2-1.3.4-2 .3.133.267.233.567.3.9.4-.6 1.2-.9 1.9-1.1.8-.3 1.7-.5 2.5-.8 1.7-.5 3.3-1.4 5-1.8.8-.2 1.9-.4 2.7.1v-1c-1 .6-2.2.7-3.3.7-1.1 0-2.3-.1-3.4-.5l.4.8c0 .1.1-.1.1-.1.1-.1-.1 0 0-.1s.2-.1.3-.2c.2-.1.5-.2.8-.3.7-.3 1.5-.4 2.3-.5 1.5-.2 3.1-.2 4.5-.6-.134-.4-.267-.766-.4-1.1-1.6.7-3.1 1.6-4.7 2.2-1.6.6-3.3 1-5 1l.6.4-.1-.1c0 .2.1.1.1 0v-.3c0 .2.1 0 .1-.1 0-.066.033-.133.1-.2.066-.133.166-.266.3-.4 0 0 .1-.1.1-.2l.2-.2.5-.5c.333-.333.7-.666 1.1-1 1.5-1.3 3.3-2.6 5.1-3.2l.6-.2c.066-.066.166-.1.3-.1h.1c.1 0-.1 0 0 0h.6c-.2 0 0 0 0 .1a667.55 667.55 0 01-.2-.8c-.7 1-2 2.5-3.4 2.5l.4.2c-1.1-1.1-.9-3.3-.7-4.7.1-1.7.6-3.3.9-4.9.2-.8-.9-1.1-1.1-.4-1.4 4.1-1.6 8.8-4.5 12.2.266 0 .533-.033.8-.1-.9-.4-.8-1.5-.7-2.3.1-1 .5-2 .8-3a5.222 5.222 0 01-1.1-.3c-1.2 3.5-1.5 7.9-5 10 .333.134.633.267.9.4-.3-1.3-.3-2.6-.2-3.9.2-1.3.5-2.6 1-3.7a9.376 9.376 0 00-1.1-.3c.1 1.5-.2 3.1-.7 4.5-.5 1.3-1.1 2.8-2.4 3.6l.8.2v-.1a.884.884 0 01-.1-.4c-.1-.2-.2-.6-.2-.7-.067-.8-.1-1.566-.1-2.3 0-.8.066-1.566.2-2.3.066-.4.166-.766.3-1.1.066-.333.166-.633.3-.9l.2-.4.1-.1c-.067.067-.067.067 0 0l.1-.1s.1-.1.2-.1c-.1 0 .1-.1.1-.1h-.1.2l-.6-.6c0 .9-.3 1.7-.5 2.5-.3.8-.6 1.6-.5 2.5 0 .5.6.9 1 .4.6-.8 1-1.7 1.4-2.6.4-.9 1-1.6 2-1.9h-.5c.066 0 .166.034.3.1 0 .067.033.1.1.1l.2.2c.1.1-.1-.1 0 0 .066.067.1.134.1.2v.1c.1.1 0-.1.1 0v.3c.066.067.1.134.1.2v.3c0 1-.3 2-.7 2.9-.8 2.2-2.2 4.3-3.7 6.1-.334.4-.7.767-1.1 1.1-.067 0-.1.034-.1.1-.1 0 0-.1-.1 0l-.2.2c-.067.067-.134.1-.2.1.1-.1-.2.1 0 0h-.2c.266.134.533.3.8.5-.4-1.2-1.2-2.1-2.2-2.8-.4-.3-1 .1-.9.5v1.2h1.2c0-1 .2-1.9.7-2.7-.4 0-.767-.033-1.1-.1.7 2.4-.5 4.7-1 7l1.2.2c.2-3.4.2-6.8.4-10.1 0-.6-.8-.8-1.1-.3-.2.334-.434.667-.7 1a5.76 5.76 0 011 .3c-.5-1.8-.4-3.8-.2-5.6.2-1.8.6-3.7 1.4-5.4l-.8.2c.5.3.8.9 1 1.6.3.8.3 1.7.3 2.5 0 1.6-.2 3.4-.9 4.7h1c-.6-1.2-.3-2.8-.1-4.1.4-1.7 1-3.3 1.7-4.9.333-.666.7-1.333 1.1-2l-.4.2c-.1.1 0 0 .1 0s-.1 0 0 0c.2.1.1.1 0 0 .066.067.133.1.2.1-.1-.1.1.2.1.1l.1.1c0 .067.033.134.1.2.1.2.2.5.2.8.1.3.2.7.2 1 .2 1.5.2 3.1.1 4.7l-.2 1.6h1.2c0-2 .7-4 .9-6.1.2-1.4.3-2.8.8-4.1l.4-.8.2-.2.1-.1c.1-.1.2-.1.3-.1a.897.897 0 00-.4-.1c.3.1.4.3.5.5.1.2.2.6.2.8 0 .8-.1 1.6-.2 2.4-.3 1.4-.9 2.7-1.2 4.1-.1.5.6 1 1 .6 1.2-1.3 1.4-2.8 1.7-4.4.1-.7.3-1.4.7-1.9.5-.7 1.3-1.1 2.1-1.3h-.5c.1 0 .3.2.3.4.1.2.2.6.2.8.1.8 0 1.6-.1 2.3-.134.8-.334 1.567-.6 2.3a2.25 2.25 0 01-.4.8c0 .067-.034.134-.1.2v.1c0-.066 0-.066 0 0-.1 0-.3.2-.2.2.333.134.633.3.9.5-.1-1.9.1-3.8.4-5.6.3-2.2.8-4.4 1.9-6.2.3-.5.5-.8.9-1.1.3-.3.6-.5 1-.6h-.3l.1.1c.066 0 .133.034.2.1l.1.1a34.284 34.284 0 00.4.4c.1.2.2.4.2.5.4.7.5 1.6.6 2.5.2 1.8.1 3.8-.3 5.7-.067.4-.167.8-.3 1.2 0 .134-.034.234-.1.3v.1c0 .1 0-.1 0 0l-.2.4c.333.134.7.267 1.1.4.2-1.8.5-3.6.9-5.4.4-1.6 1-3.5 2.4-4.6h-.7c.9 1.1 0 2.9-.7 3.9-.8 1.3-1.9 2.5-2.6 3.9-.3.7.7 1.3 1 .6 1.5-2.5 3.2-4.8 5.6-6.5.2-.2.4-.6.2-.9-.2-.2-.6-.4-.8-.2z" fill="#fff"/><path d="M70.2 113c0 .7.2 1.5.6 2.2.4.6.9 1 1.6 1.3.2.1.5 0 .6-.2.6-.6.9-1.5 1.2-2.3.4-1 .666-2.067.8-3.2.1-.9.2-1.9-.2-2.8-.4-.9-1.3-1.2-2.2-.9-.9.3-1.4 1.3-1.6 2.2-.3 1.1-.4 2.4-.2 3.5.1.9.5 2.1 1.5 2.4.6.1 1.2-.4 1.6-.7.4-.4.6-.9.8-1.4.8-1.9.3-4.8-1.7-5.8-.9-.4-2.1-.4-3 0-.8.4-1.4 1.2-1.8 2-.9 2-1.1 4.4-.9 6.6.1 2 .4 4.2 1.4 5.9.2.4.5.9 1 .9.4 0 .733-.1 1-.3.6-.3 1.1-.8 1.4-1.3.9-1.6 1.2-3.5 1.3-5.2.2-2.2.1-4.3-.2-6.5-.3-2-.7-3.9-1.6-5.7-.6-1.3-1.6-2.6-3.1-2.8-.2 0-.5 0-.7.2-.1.1-.2.4-.3.6a6.34 6.34 0 00-.4.7 33.75 33.75 0 00-1.3 2.7c-.6 1.8-1.1 3.7-1.4 5.6-.3 2-.5 4-.6 5.9-.1 1-.2 2-.3 2.9-.1 1.2-.2 2.3 0 3.5.1.8.3 2 1.3 2.2.6.1 1.2-.7 1.5-1.2.4-.467.766-.967 1.1-1.5.6-1.2 1-2.4 1.1-3.6.1-1.1 0-2.3-.6-3.3-.6-1.1-1.7-1.7-3-2-2.5-.4-5 .9-7 2.4-2 1.7-3.9 4-4.5 6.6-.3 1.2-.3 2.3.1 3.4a.895.895 0 00.6.5c2.2.2 4.6-.5 6.6-1.4 2.1-.9 4.2-2.1 5.7-3.9.2-.2.3-.5.1-.7-.9-1.5-3-1.3-4.5-.9-2.2.6-4.2 1.6-6 2.8-.8.6-1.6 1.2-2.4 2-.5.5-1 1.2-1.3 2 0 .1-.1.3-.1.5 0 .4.6.7.9.9.6.5 1.3.7 2.1.8 1.5.1 3-.3 4.4-.7 3.2-1 6.9-1.5 9.5-3.8.4-.3.1-1-.4-1-2.1.1-4.1 1.3-5.9 2.4-.8.4-1.7.9-2.5 1.2-.9.3-1.8.5-2.7.8-1 .4-1.9 1-2.4 1.9-.2.2-.1.7.2.8 1.7.8 3.6.8 5.4.8 1.9 0 3.8-.2 5.7-.5 2-.2 3.8-.7 5.6-1.4 1.9-.8 3.7-1.8 5-3.5.5-.6.9-1.4.8-2.2 0-.8-.5-1.4-1.1-1.8-.8-.5-1.8-.8-2.6-1.2-1-.3-2-.6-3-.8-1-.2-2.1-.3-3.2-.2-.467.067-.967.233-1.5.5-.4.1-1.1.4-1.1 1-.2 1.6 1.8 2.5 3.1 2.9.7.2 1.4.4 2.1.3 1-.1 2-.5 2.9-1.2 1.4-1 2.3-2.5 2.3-4.2.1-1.4-.2-2.9-.6-4.2-.4-1.5-1-2.9-2-4.1-.7-1-1.9-1.8-3.2-1.7-.5 0-1 .8-1.3 1.3-.267.467-.5.967-.7 1.5-.4.9-.6 1.9-.5 2.9.1 2.1 1.1 3.9 2.4 5.4.733.8 1.533 1.5 2.4 2.1.4.267.833.533 1.3.8.266.133.5.267.7.4.3.1.6.3.9.3.3 0 .7-.4 1-.6.2-.267.4-.567.6-.9.5-.6.7-1.4.9-2.2.4-1.6.4-3.3.3-5-.1-2-.6-3.9-1.1-5.8a40.818 40.818 0 00-2.7-7.2 24.778 24.778 0 00-1.7-3.2c-.2-.4-.7-.3-1 0-.8 1.2-.7 2.9-.5 4.3.2 1.9.7 3.8 1.3 5.7a66.012 66.012 0 001.8 5.1c.8 2.1 1.9 4.2 2.9 6.2.4.7.7 1.4 1.1 2.2l.6 1.5c.4 1.1 1 2.2 2.2 2.6.2.1.5 0 .7-.3.8-1.2.9-2.8.8-4.2-.1-1.6-.3-3.1-.6-4.6-.7-3.5-1.6-6.9-2.6-10.3-.8-2.6-1.6-5.167-2.4-7.7-.8-2.6-1.7-5.1-2.9-7.6-1.3-2.6-3-5-5.4-6.7-.2-.2-.5-.1-.7.1-1.6 1.6-.8 4.1-.3 6 .6 2.5 1.5 5 2.5 7.4 1 2.333 2.033 4.7 3.1 7.1 1.1 2.4 2.3 4.8 3.2 7.2 1.1 2.7 1.5 5.6 2.8 8.2 0 .2.3.4.5.3 1 0 1.8-.5 2.4-1.3.5-.9.7-1.9.7-2.9.2-2.5-.4-5.1-1.1-7.5-1.6-6.2-4.3-12.1-7.1-17.8a141.659 141.659 0 00-3.6-7.1c-1.1-2.2-2.3-4.4-4-6.3-.3-.4-1-.1-1 .4.3 4.3 1.9 8.3 3.7 12.1l2.7 5.7c.7 1.6 1.4 3.3 2.2 4.9.8 1.9 1.8 3.7 3.2 5.2.3.2.8.2 1-.1.9-1.9.2-4.2-.5-6.1-.7-2.3-1.6-4.6-2.5-6.9-1.2-2.6-2.6-4.9-4.2-7.3l-2.4-3.6c-.8-1.1-1.6-2.2-2.4-3.4-.7-.9-1.3-2-2-2.9-.6-.9-1.4-1.9-2.5-2.4-.4-.2-.9 0-.9.5-.1 2.4.8 4.7 1.9 6.8.5 1.1 1.1 2.1 1.7 3.1.5 1 1 2 1.5 2.9.5 1.1 1.2 2.1 2.1 3 .4.3 1 .1 1-.5 0-2.7-1.9-4.9-3.7-6.9a14.01 14.01 0 01-1.3-1.5c-.2-.2-.4-.433-.6-.7.1.1-.1 0-.1-.1-.067-.067-.1-.133-.1-.2-.6-.8-1.1-1.7-1.7-2.5-.5-.7-1.3-1.9-2.3-1.9-.4 0-.6.4-.6.8.466 2 .966 3.966 1.5 5.9.4 1.333.866 2.666 1.4 4 .4 1.1.9 2.3 1.6 3.3.5.8 1.3 1.7 2.3 1.7.4 0 .6-.4.6-.8-.8-3.4-1.8-6.8-3.2-10-.6-1.4-1.4-2.8-2.1-4.1-.7-1.2-1.4-2.4-2.2-3.5-.9-1.2-2-2.4-3.3-3.1-.4-.1-.7 0-.9.2-.7 1.1.6 2.4 1.2 3.1l1.5 1.5c.4.4.8.8 1 1.1l.8-.8c-1.4-.6-2.1-2.2-3.4-2.9-.6-.4-1.7-.7-2.3-.2-.4.3-.7.8-.7 1.3s.4.9.8 1.1c.4.3.8-.1.9-.5 0-1.1-.6-1.9-1.3-2.7-.7-.5-1.5-1.1-1.7-2-.134.267-.3.533-.5.8 1-.1 2.1.4 3 .8 1.1.5 2 1.1 3 1.6.2-.334.366-.7.5-1.1-1.9-.6-3.5-1.9-5.1-3-.8-.6-1.6-1.1-2.5-1.5-.3-.1-.6-.1-.9-.2 0-.1-.2-.1 0 0 0-.2 0-.3.1-.5-.267.133-.567.266-.9.4 1.2.6 2.333 1.3 3.4 2.1 1 .7 2.2 1.6 2.5 2.8l.6-.8c-3.2.1-5.4-2.4-8.3-3.4-.5-.1-.9.5-.7.9 1.2 1.9 3.2 3 4.9 4.4 1.9 1.6 3.5 3.5 5.1 5.4l.8-.8c-1.2-1.2-2.6-2.1-3.9-3.1-.7-.6-1.4-1.2-2-1.9-.4-.5-.8-1.1-.8-1.7-.267.133-.567.3-.9.5 4 2.7 6.3 6.9 8 11.2.9 2.2 1.6 4.4 2.5 6.6.7 1.8 1.6 3.5 2.3 5.3.5 1.1.9 2.2 1.3 3.3.2 1 .5 2 .3 3 .4-.067.766-.133 1.1-.2-1.3-2.4-1.9-5.1-2.5-7.8-.7-2.8-1.6-5.5-2.6-8.2a298.822 298.822 0 01-2-4.5l-1 .6c.9 1.3 1.5 2.7 2.4 4.1.9 1.4 1.9 2.8 3.3 3.8.7.5 1.5.8 2.4.8.2 0 .5-.2.6-.5.5-2.6.3-5.3-.8-7.8-1-2.3-2.8-4.3-4.7-5.9-2-1.8-4.3-3.2-6.6-4.5-2.4-1.3-5.1-2.5-7-4.5-.3-.3-.6-.7-.8-1.1 0-.067-.034-.133-.1-.2v.1c0 .066-.034.1-.1.1h.2c.1-.1-.1 0-.1 0h.9c.8.2 1.6.4 2.3.7.7.2 1.4.5 2 .7.8.4 1.6 1 2.3 1.5l4 3.2c1.4 1.2 2.8 2.5 4 3.8.5.6.9 1 1.2 1.6.066.133.133.233.2.3.066.067.1.133.1.2 0 .1 0-.1 0 0v.1c.066.067.1.166.1.3 0-.1 0-.1 0 0v.1c0-.1 0-.1 0 0s0-.1 0 0-.1.1 0 0l-.1.1c.266-.067.5-.1.7-.1-1.7-1.3-3.5-2.5-5-4-1.5-1.3-3.1-3-3.6-5.1-.267.266-.567.5-.9.7 3.3 2.3 6 5.4 8.2 8.8 2.2 3.4 4.1 7.1 5.9 10.7 2 4 4.2 7.9 6.1 11.8 1 2.1 1.9 4.3 2.7 6.5.4 1.067.766 2.2 1.1 3.4.4 1.1.6 2.3 1 3.4.3 1.1.9 2 1.3 3 .466.867.833 1.8 1.1 2.8.6 1.9 1 4 1.8 5.8.2.4.433.8.7 1.2.2.3.8.4 1 0 .8-1.7 1.3-3.6 1.1-5.5a13.732 13.732 0 00-.5-2.8c-.2-.4-.367-.833-.5-1.3-.2-.4-.4-1.1-.9-1.2-1.1-.4-2.1.4-2.3 1.5-.3.9-.2 2 .1 3 .4 1.8 1.6 3 3.2 3.9.6.3 1.1-.4.7-.9-3.9-4.2-7.7-8.5-11.8-12.4-2.1-1.9-4.2-3.8-6.6-5.3-2.1-1.4-4.5-2.1-7.1-1.5-1.4.4-2.6 1.1-3.8 2-1.1.9-2.1 1.8-3.4 2.4.266.333.5.667.7 1l1.8-2.4c.5-.8 1.1-1.5 1.9-2-.267-.2-.567-.433-.9-.7-1.2 3.3-3.8 6.4-3.7 10.1 0 .4.4.7.8.6.9-.2 1.8-.7 2.6-1.3.933-.733 1.8-1.567 2.6-2.5 1.5-1.8 2.9-4 3.5-6.4.2-1.1.3-2.3-.2-3.3-.1-.2-.4-.3-.6-.3-3.1.4-5.9 1.8-8.3 3.9-2.3 2.1-4.2 4.6-5.9 7.1-1 1.4-2 2.9-3 4.2-.4.6.5 1.2 1 .8.533-.6 1.1-1.2 1.7-1.8.5-.6-.3-1.3-.8-.8-.867.667-1.467 1.5-1.8 2.5-.2.5.4 1 .8.7 3.3-2.5 6-5.6 8.3-9 2.3-3.4 4.2-7.2 5.3-11.2 1.1-3.9 1.4-8 .3-11.9-.6-1.8-1.4-3.6-2.6-5.2-1.3-1.8-2.8-3.3-4.4-4.8-1.6-1.7-3.2-3.5-5.2-4.6-1.8-1.1-3.9-1.7-6-2.1a10.505 10.505 0 01-1.4-.3c.066.4.1.766.1 1.1.9-.6 1.9-.6 3-.5 1 0 2.1.1 3.1-.3.4-.2.6-.8.1-1.1-1-.6-2.067-.934-3.2-1-.4 0-.7.5-.5.9.8 1.5 2.6 1.6 4.1 1.3h-.3c2.5 1 4.8 2.5 6.6 4.6 2 2.3 3.3 5.1 4.3 7.9 1.1 3 1.9 6 2.6 9.1.3 1.6.7 3.2.9 4.9.2 1.666.3 3.333.3 5-.1.9-.1 1.8-.2 2.8-.1.5-.2 1.1-.4 1.6-.1.6-.3 1.3-.4 2-.1.5-.2 1.1 0 1.7.1.2.4.5.7.4 1.4-.6 2.2-1.7 2.9-2.9.5-1 1.1-2.2 2.3-2.5a6.544 6.544 0 00-.7-.4c.133.8.133 1.633 0 2.5.4.067.8.1 1.2.1 0-2.3 0-4.7.3-7 0-.4-.3-.6-.6-.6-.4 0-.6.2-.6.6-.3 2.4-.8 5.3-2.7 7 .333.2.666.367 1 .5-.1-2.1.3-4.2.4-6.4 0-1 0-2-.3-3-.2-.9-.8-1.8-1.2-2.7-.6-1-.8-2.2-1-3.3-.3-1.2-.5-2.5-.8-3.7-.6-2.5-1.6-4.8-3.2-6.8-1.7-2.3-3.8-4.2-5.9-6.1-.2-.2-.6-.2-.9 0-.4.6-.4 1.5-.4 2.2 0 1.2.2 2.4.3 3.5a87.46 87.46 0 001.3 7.3l.2 1.2c.1.2.1.5.4.7.2.1.6.1.8-.2.066-.133.1-.233.1-.3h-1.2c.3 4.4.2 8.9-.3 13.4-.3 3.2-.8 6.5-1.9 9.5-.6 1.5-1.3 2.9-2.4 4l1 .6c1.2-4.8 4.9-8.5 6.5-13.2.2-.6-.7-.9-1.1-.4-.5.7-.5 1.6.5 2 .2 0 .4.1.6.1.3 0 .5-.2.7-.4a5.664 5.664 0 001.2-.9c1.4-1.3 2.3-3 2.7-4.9.5-2.1.5-4.2.1-6.3-.3-2.2-1-4.3-1.9-6.3-.9-2.2-2.1-4.3-3.4-6.4-.3-.5-1.1-.3-1.1.3 0 1.6.4 3.3.7 4.9.2 1.3.5 2.7.5 4 0 2.4-.4 4.8-.2 7.2 0 1 .1 2.3 1 3 .4.3.9-.1.9-.5.4-3.5 1.4-7.1.8-10.6-.1-.9-.4-1.7-.9-2.4-.3-.4-1-.4-1.1.1-1 4.9-1.5 10-1.7 15h1.2c.1-3.7.8-7.4 1.3-11a34.57 34.57 0 00-1.1-.2c-.1 1.5-.4 3-.5 4.6 0 .9-.1 1.8-.1 2.7.1.6.1 1.4.5 1.9.2.4 1 .4 1.1-.1.6-3.3 1.6-6.6 1.9-10 0-.6-1.1-.8-1.2-.1-.467 2.6-1 5.2-1.6 7.8a5.704 5.704 0 00-.3 1c0 .2-.1.5-.2.7 0 .1-.2.3-.2.4a1.567 1.567 0 00-.3.4c-.2.2-.367.433-.5.7-.4 1-.5 2 0 3 .1.4.6.6 1 .3.9-1 1.7-2.1 2.5-3.1.9-1 1.8-2 2.9-2.7l-.8-.8c-1.6 3.3-4.3 5.9-6.2 9.1l1 .6c1-1.8 1.933-3.633 2.8-5.5.2-.5.5-1 .6-1.4.2-.4.2-.8.3-1.2.3-.7.8-1.3 1.3-1.7a7.506 7.506 0 00-.8-.7c-1.1 5.3-4.8 9.5-7.7 13.9-.8 1.2-1.6 2.5-2.3 3.8-.3.7.7 1.3 1.1.6 2.5-4.6 4.5-9.4 6.9-14a115.291 115.291 0 012.1-4c-.334-.2-.7-.4-1.1-.6-2.2 4.5-4.2 9-6.7 13.4-.667 1.2-1.4 2.4-2.2 3.6.333.133.7.3 1.1.5 1-4 2.2-8.3 5-11.5a9.042 9.042 0 01-1-.7c-2 2.9-3.5 6.3-5.8 9.1l1 .6c1.6-4.3 3.3-8.6 5.2-12.7l-1-.6c-.7 1.6-1.3 3.1-2 4.7-.7 1.4-1.5 3-2.7 4l.8.8c.7-1.1 1.3-2.2 2-3.3.4-.6.8-1.1 1.3-1.7.3-.4.7-.8 1.2-1.1l-.8-.8c-1.5 3.3-3.4 6.3-4.6 9.7-.2.7.9 1 1.2.3 1.1-3.2 3-6.2 4.4-9.4.3-.5-.3-1-.8-.8-1.2.6-2.1 2-2.8 3.1-.7 1.1-1.4 2.3-2.2 3.4-.3.5.4 1.2.9.8 1.4-1.1 2.3-2.6 3-4.2.8-1.6 1.4-3.3 2.1-4.9.1-.3.1-.6-.2-.8-.3-.2-.7-.1-.8.2-2 4.2-3.7 8.6-5.3 13-.2.5.6 1 1 .6 2.3-3 3.8-6.4 6-9.4.3-.6-.5-1.2-1-.7-2.8 3.3-4.2 7.8-5.3 11.9-.2.7.7 1.1 1.1.5 2.7-4.2 4.9-8.7 7.1-13.1a70.329 70.329 0 011.9-3.9c.3-.6-.7-1.2-1.1-.6-2.5 4.6-4.6 9.4-6.9 14.1a72.739 72.739 0 01-2.1 3.9c.333.2.7.4 1.1.6 2.4-4.8 6.2-8.8 8.6-13.7.6-1.4 1.1-2.8 1.4-4.3.1-.4-.4-1-.9-.6-.6.5-1.2 1-1.5 1.8-.2.4-.367.8-.5 1.2-.1.5-.3.9-.5 1.4a237.45 237.45 0 01-2.9 5.8c-.3.7.6 1.2 1 .6 1.9-3.2 4.6-5.8 6.2-9.1.3-.5-.2-1.1-.8-.8-2.4 1.4-3.8 4-5.7 5.9.333.133.666.233 1 .3-.4-.933-.334-1.8.2-2.6.2-.267.4-.5.6-.7.2-.3.3-.5.3-.9.2-.6.366-1.2.5-1.8.6-2.467 1.133-4.933 1.6-7.4l-1.2-.2c-.3 3.3-1.2 6.5-1.9 9.6.4 0 .766-.033 1.1-.1 0-.067-.034-.1-.1-.1v-.1a.887.887 0 01-.1-.4c0-.1 0-.2-.1-.4v-.6c0-.8 0-1.7.1-2.6.1-1.5.4-2.9.5-4.4 0-.7-1.1-.8-1.2-.2-.6 3.8-1.3 7.6-1.4 11.4 0 .8 1.2.8 1.2 0 .2-4.9.6-9.8 1.7-14.7-.4.066-.767.133-1.1.2.9 1.2.9 2.9.9 4.4 0 1.8-.3 3.6-.6 5.4l-.4 2.6c.333-.2.633-.367.9-.5.2.1 0-.1 0-.1l-.1-.1c-.1-.2-.1-.3-.2-.5-.1-.5-.1-.9-.1-1.4-.1-1.2-.1-2.5 0-3.7.1-1.1.2-2.2.2-3.3 0-1.3-.2-2.6-.5-3.8-.3-1.7-.7-3.5-.7-5.2-.4.066-.767.166-1.1.3 1.8 3 3.5 6.2 4.5 9.6 1 3.2 1.4 6.8.1 10.1-.7 1.6-1.8 2.9-3.3 3.8.133-.067.233-.1.3-.1 0 0-.4-.1-.3 0 .1 0-.1.1 0 0s.2-.2.2-.3c-.334-.2-.7-.367-1.1-.5-1.5 4.7-5.2 8.3-6.5 13.1-.1.6.6 1 1 .6 1.1-1 1.8-2.3 2.4-3.7.6-1.5 1.1-3.1 1.4-4.7.8-3.8 1.2-7.6 1.3-11.5.066-2.6.033-5.2-.1-7.8-.1-.8-1.3-.8-1.2 0 0-.133.033-.233.1-.3l.8-.2c.4.2.3.5.2.2 0-.067-.034-.167-.1-.3a3.716 3.716 0 01-.1-.9c-.267-1-.467-2-.6-3-.4-2.4-.9-4.7-1-7.1v-1.6c0 .1 0-.1 0 0 0-.067.033-.133.1-.2v-.2c-.1.2.2-.2 0 .1h-.9c1.8 1.6 3.7 3.2 5.2 5.1.8.933 1.5 1.966 2.1 3.1.6 1.1 1 2.2 1.4 3.4.3 1.2.5 2.4.8 3.6.2 1.2.4 2.4.9 3.6.3.8.9 1.6 1.2 2.5.4.9.5 1.8.5 2.8 0 2.3-.5 4.6-.4 7 0 .5.6.7 1 .4 2.2-2 2.7-5.1 3.1-7.9h-1.2c-.3 2.3-.2 4.7-.3 7 0 .7 1.1.9 1.2.2.133-1.067.1-2.1-.1-3.1 0-.3-.4-.5-.7-.4-1.3.3-2.1 1.4-2.8 2.5-.6 1-1.2 2.4-2.4 2.8.266.133.5.267.7.4-.1-.4 0-.9.1-1.4.1-.7.3-1.3.5-2 .4-1.5.4-3.1.4-4.6a28.308 28.308 0 00-.4-5.8c-.2-1.7-.6-3.5-1-5.2-.9-3.5-1.8-6.9-3.2-10.2-1.3-3-3-5.9-5.6-8a18.95 18.95 0 00-4.4-2.8c-.4-.2-.9-.4-1.4-.3-.4 0-.8.1-1.2.1-.6-.067-1.067-.367-1.4-.9-.134.333-.3.633-.5.9a5.93 5.93 0 012.6.8c.066-.334.1-.7.1-1.1-1 .4-2 .3-3.1.3s-2.2.1-3.2.7c-.3.3-.4 1 .2 1.1 2 .3 4 .7 5.8 1.6 2 .8 3.6 2.3 5.1 3.8 2.9 2.9 5.9 5.7 7.4 9.5 2.9 7.4-.3 15.7-4.2 22.1-2.3 3.7-5.1 7.2-8.7 9.8.333.267.633.5.9.7.3-.8.8-1.5 1.5-2l-.8-.8c-.6.533-1.2 1.1-1.8 1.7.333.267.666.5 1 .7 1.7-2.3 3.3-4.8 5.1-7.2 1.8-2.3 3.8-4.5 6.4-5.9 1.4-.8 3-1.3 4.6-1.5a1.263 1.263 0 00-.5-.3c.3.6.3 1.5.2 2.2-.2 1.1-.7 2-1.1 2.9-1.1 2-2.6 3.9-4.3 5.3-.8.6-1.6 1.2-2.6 1.3l.8.6c-.1-1.7.6-3.4 1.3-4.9.8-1.6 1.7-3.2 2.4-4.8.2-.6-.5-.9-.9-.7-1.8 1-2.7 3-3.9 4.5-.5.5.1 1.2.7.9 2.2-1 3.7-3 6-3.9 1.1-.4 2.3-.7 3.6-.5 1.1.2 2.2.7 3.2 1.2 1.1.7 2.1 1.5 3.1 2.4 1.066.867 2.133 1.767 3.2 2.7 2 1.9 3.9 3.8 5.8 5.9 2.1 2.2 4.2 4.5 6.3 6.8.266-.333.533-.633.8-.9-.9-.5-1.6-1.1-2.2-1.9-.3-.6-.6-1.4-.6-2-.1-.6-.1-1.3 0-1.9.1-.1.1-.2.2-.3 0 0 .1-.2.1-.1 0-.1.2-.1.1-.1 0 0 .2-.1.1 0 .2-.1.3 0 .5 0a1.583 1.583 0 01-.4-.3c.7 1.5 1.3 3.1 1.3 4.7.1 1.6-.2 3.2-.9 4.7h1c-1.1-1.7-1.5-3.7-2-5.6-.3-.9-.5-1.9-.9-2.8-.4-1-.9-2-1.4-2.9-.5-1.1-.8-2.2-1.1-3.3-.267-1.2-.6-2.367-1-3.5-.7-2.3-1.7-4.5-2.7-6.6-1.8-4.1-4.1-8-6.1-12-1.9-3.7-3.7-7.4-5.9-11-2.2-3.4-4.7-6.7-7.9-9.2a8.988 8.988 0 00-1.3-.9c-.4-.3-.9.2-.8.7.5 2.2 2.1 4 3.7 5.5 1.7 1.5 3.6 2.9 5.4 4.2.3.2.6.1.8-.1.9-.8.1-2.2-.5-3-1-1.4-2.3-2.6-3.6-3.8a46.15 46.15 0 00-4.4-3.7c-1-.8-1.9-1.6-3-2.2-.5-.3-1-.5-1.6-.7-.734-.334-1.5-.6-2.3-.8-.9-.3-3.5-1.1-3.6.6-.1.8.7 1.5 1.2 2.1.9 1 2.2 1.8 3.4 2.6 2.4 1.5 5 2.6 7.3 4.3 4.3 2.9 8.5 7 8.3 12.6 0 .733-.1 1.433-.3 2.1l.6-.4c-1.8 0-3.2-1.8-4.1-3.1-1.1-1.6-1.9-3.4-3-5-.4-.7-1.3-.1-1 .6 1.1 2.7 2.3 5.3 3.3 8.1.8 2.6 1.3 5.4 2.1 8.1.4 1.5 1 2.9 1.7 4.3.2.4 1 .4 1.1-.1.3-2.1-.5-4.1-1.3-6-.7-1.9-1.7-3.8-2.5-5.6-.9-2.2-1.6-4.4-2.4-6.5-.9-2.3-1.9-4.6-3.2-6.6-1.4-2.4-3.3-4.5-5.6-6-.3-.3-.8.1-.9.5 0 1.7 1.7 3.2 2.9 4.2 1.3 1.2 2.9 2.1 4.2 3.3.5.6 1.3-.2.8-.8-1.5-1.9-3.1-3.8-4.9-5.3-1.6-1.4-3.7-2.4-4.9-4.3-.2.266-.4.566-.6.9 1.4.5 2.7 1.4 4 2.1 1.4.8 3 1.3 4.6 1.3.4 0 .7-.4.6-.7-.5-1.4-1.7-2.5-2.8-3.4a23.01 23.01 0 00-3.7-2.3c-.3-.1-.7 0-.8.4-.2.4-.3.9-.1 1.3.2.4.6.5.9.6.4.2.8.3 1.2.4.466.266.933.567 1.4.9 1.9 1.2 3.6 2.7 5.8 3.5.6.2 1-.8.4-1.1-1-.6-2.1-1.2-3.2-1.7s-2.2-1-3.4-.9c-.4 0-.7.3-.6.7.2 1 .9 1.7 1.6 2.3.7.6 1.3 1.2 1.3 2.1.266-.133.566-.3.9-.5-.3-.2-.2-.2 0-.4 0-.1-.1-.1 0-.1h.2c.066 0 .166.033.3.1.5.1.9.4 1.2.8.9.8 1.6 1.8 2.7 2.3.5.3 1.1-.2.8-.8-.2-.4-.6-.7-.9-1.1a25.13 25.13 0 00-1.4-1.3c-.4-.5-.8-.9-1.1-1.4a1.165 1.165 0 01-.2-.3c-.1-.1 0 0-.1-.2v-.1c.1 0 0 0 0 .1 0-.067.033-.134.1-.2a3.9 3.9 0 00-.8.3c1.1.5 2 1.4 2.7 2.4.8 1 1.5 2.2 2.2 3.4 1.6 2.7 2.9 5.6 3.9 8.6.533 1.8 1 3.633 1.4 5.5.2-.2.4-.434.6-.7h-.1c.1 0-.1-.1 0 0-.067-.067-.134-.1-.2-.1.1.1-.1 0-.1 0 0-.067-.034-.1-.1-.1-.1-.1 0 0-.1 0-.3-.3-.5-.6-.7-.9-.7-1-1.1-2-1.5-3.1-1-2.4-1.6-4.9-2.3-7.4-.2-.8-.367-1.6-.5-2.4-.2.2-.4.433-.6.7h.1c0 .1 0 0-.1 0 .066 0 .1.033.1.1.1 0 .2.1.4.3.266.267.533.6.8 1 .6.7 1.1 1.5 1.6 2.3 1.3 1.9 3.1 3.4 4.4 5.3.7 1.1 1.3 2.3 1.3 3.6l1-.4c-1.5-1.3-2.2-3.4-3.1-5.1-1.1-2-2.3-3.9-3.1-6-.4-1.2-.6-2.5-.6-3.8-.267.2-.567.367-.9.5.9.4 1.5 1.2 2 1.9.6.8 1.2 1.7 1.7 2.6.7 1 1.5 1.9 2.2 2.9.8 1.133 1.6 2.3 2.4 3.5 1.4 2.2 2.9 4.5 4.1 6.9 1.1 2.3 2 4.8 2.8 7.2.3.9.7 1.9.9 3 .2.9.4 2.1-.1 3 .333-.067.666-.1 1-.1-2.5-2.6-3.6-6.1-5-9.2-1.6-3.7-3.6-7.3-5-11.2-.7-2.2-1.3-4.4-1.5-6.7l-1 .4c1.4 1.6 2.5 3.5 3.4 5.4 1.066 1.933 2.1 3.9 3.1 5.9 2.1 4.3 4.1 8.7 5.9 13.2a50.566 50.566 0 011.6 4.8c.7 2.3 1.3 4.8 1.4 7.2.1 1.2.1 2.2-.3 3.2-.1.3-.4.7-.7.9.1-.1-.1.1-.2.1v.1c-.2.1 0 0-.1 0a.883.883 0 01-.4.1h-.1c.1 0-.1.1-.1.1.133.067.3.167.5.3-1.1-2.3-1.5-4.7-2.3-7.1-.8-2.4-2-4.7-3-7a306.552 306.552 0 01-3.1-6.8c-.9-2.3-1.9-4.6-2.6-7-.4-1.267-.7-2.534-.9-3.8-.2-1-.4-2.1.5-2.9-.267 0-.534.033-.8.1 2 1.4 3.4 3.5 4.6 5.6 1.2 2.3 2.1 4.7 2.9 7.2.8 2.4 1.5 4.8 2.2 7.2 1 3.3 2 6.5 2.7 9.9.3 1.6.7 3.3.9 5.1.2 1.5.2 3.2-.7 4.5.266-.067.5-.133.7-.2-.8-.3-1.2-1.4-1.5-2.1-.4-1-.9-2.1-1.4-3.1-.6-1.3-1.3-2.6-1.9-3.9l-.8-1.6v-.1c0-.067-.034-.133-.1-.2l-.2-.4c-1.3-3.3-2.5-6.7-3-10.1-.2-.9-.3-1.8-.2-2.6 0-.7.1-1.3.4-1.8h-1c2.1 3.6 3.7 7.5 4.6 11.6.7 2.7 1.1 5.5.5 8.3-.2 1.3-.6 2.7-1.8 3.3h.6c-3.4-1.6-7.5-5-6.7-9.2.3-1.3.9-2.4 1.7-3.4l-.4.2c.6-.1 1 0 1.5.4.4.3.9.8 1.2 1.3.8 1.3 1.3 2.8 1.6 4.3.2.733.3 1.433.3 2.1.066.333.066.633 0 .9v.3a.887.887 0 01-.1.4c-.4 1.8-2.5 3.4-4.4 3.3-.7 0-1.5-.2-2.2-.6-.4-.1-.7-.4-1-.6-.3-.3-.4-.5-.3-.8-.134.133-.234.3-.3.5 2-1.5 4.9-.7 7.1.1 1 .3 2.2.6 3 1.3.266.2.4.433.4.7 0 .3-.2.7-.4 1.1-1.4 2.1-3.9 3.2-6.2 3.9-2.1.7-4.3 1-6.6 1.2-1.4.1-2.8.2-4.2.1-1.1 0-2.4-.1-3.4-.6l.2.8c.5-.9 1.6-1.3 2.5-1.6 1.1-.4 2.2-.6 3.2-1.1 1.1-.5 2.2-1.2 3.3-1.8 1.1-.6 2.3-1.1 3.5-1.2l-.4-1c-1.7 1.4-3.9 2-5.9 2.6l-3 .8c-1 .3-2 .6-3 .7-1.2.1-2.3-.1-3.2-1 .066.133.133.3.2.5v-.2c.066-.067.1-.133.1-.2 0 .2.1-.1.1-.1.066-.133.1-.233.1-.3.3-.3.5-.6.9-1 .8-.8 1.7-1.4 2.6-2a22.09 22.09 0 013.3-1.7c.9-.4 2-.8 3-.9h.7c.3 0 .3 0 .6.1l.4.2c.2.1 0-.1.1 0 0 .067.033.1.1.1.1.2 0 .1.1.2.066-.2.1-.433.1-.7-1.5 1.6-3.4 2.8-5.4 3.6-1.9.8-4 1.5-6.1 1.3l.6.4c-.7-1.7-.1-3.6.8-5.2 1.1-1.8 2.7-3.4 4.5-4.5 1.6-.9 3.5-1.6 5.3-1.1 1.7.6 2.2 2.3 2 3.9-.2 2-1.2 4.1-2.7 5.4l.6-.2H65c.1.1.1 0 0 0 .1.1-.1-.1 0 0l-.1-.1c.1.2 0-.1 0-.1-.067-.067-.1-.167-.1-.3-.2-.5-.2-1-.2-1.5 0-1.2.1-2.4.2-3.5.2-1.4.2-2.8.3-4.2.2-2.1.5-4.1 1-6.1.6-2.2 1.4-4.4 2.7-6.4-.2.133-.367.233-.5.3h.2a.88.88 0 00.4.1c.1 0-.1 0 0 0 .066.067.133.1.2.1.066.067.133.1.2.1v.1c.1.1-.1-.1 0 0 .6.4.8.8 1.1 1.4.8 1.4 1.2 3 1.5 4.7.3 1.9.5 3.8.4 5.7 0 1.7-.2 3.3-.7 5a3.86 3.86 0 00-.2.5c0-.1-.1.1 0 0-.067.067-.1.133-.1.2s-.034.133-.1.2a1.569 1.569 0 01-.3.4c0 .1-.1.3 0 .2-.067.067-.134.1-.2.1a.657.657 0 01-.3.3l-.1.1-.1.1c-.2.1 0 0-.1 0-.067 0-.134.033-.2.1h-.3l.4.2c0-.067-.034-.133-.1-.2-.1-.1 0 .1-.1-.1a1.175 1.175 0 01-.2-.3c-.2-.4-.2-.5-.4-.9-.267-.8-.467-1.6-.6-2.4-.2-1.8-.3-3.6 0-5.4.1-.8.3-1.7.6-2.4.133-.333.3-.633.5-.9.1-.2 0 0 .1 0v-.1l.2-.2.2-.2.1-.1c.5-.3 1.1-.5 1.7-.3.8.2 1.3.8 1.6 1.4.3.8.4 1.8.2 2.7-.1.4-.3.8-.6 1.1-.2.3-.5.5-.8.6h.2c.1.1 0 0-.1 0 0-.1.1 0 0-.1-.067 0-.1-.033-.1-.1 0 0-.1-.2-.2-.2-.1-.2-.1-.2-.1-.3-.2-.6-.2-1.2-.2-1.8 0-.667.1-1.333.3-2 .1-.3.1-.5.3-.7.1-.3.1-.3.3-.5 0 0 .2-.1.1 0l.1-.1h.5c.1.1-.1 0 0 0l.1.1c.066.067.1.133.1.2s.033.133.1.2v.3c.1.1 0-.1.1.1v.6c0 .267-.034.567-.1.9 0 .6-.2 1.2-.3 1.8-.2.6-.4 1.4-.7 1.9a3.912 3.912 0 01-.3.8 1.175 1.175 0 00-.2.3c0-.1-.1.1 0 0-.067 0-.1.033-.1.1.133-.067.3-.133.5-.2-.9-.4-1.3-1.3-1.3-2.3 0-.8-1.2-.8-1.2 0z" fill="#fff"/><path d="M50.2 125.4c1.3 1.4 3.4 1.4 5.2 1.1.9-.1 1.8-.3 2.7-.5 1-.2 2-.3 3-.6 1.4-.333 2.766-.8 4.1-1.4.2-.1.3-.4.3-.6-.1-.3-.3-.4-.6-.5-3-.4-5.7 1.1-8.2 2.5-1.7 1-3.6 1.6-5.3 2.7-.8.5-1.7 1.2-2.1 2.2-.1.2.1.5.3.6.7.4 1.6.5 2.4.5 1.1 0 2.2-.2 3.3-.5 2.2-.6 4.5-1.5 6.3-2.9.8-.6 1.6-1.4 1.8-2.4.1-.3-.1-.6-.4-.7-2.2-.8-4.7-.3-6.9.5-2.2.7-4.3 1.8-6.5 2.6-.6.2-.5 1.2.2 1.2 1.6-.1 3.2-.2 4.8-.2 1.6 0 3.3 0 4.8.5a5.715 5.715 0 00-.3-1c-1.4 1.5-3.5 2.2-5.5 2.7-1 .2-2 .5-3 .8-1.2.3-2.3.8-3.4 1.3a41.748 41.748 0 00-4.2 2.2c-.6.4 0 1.4.6 1.1.9-.5 1.8-.6 2.8-.5l-.4-1c-1.2 1.1-2.7 1.5-4.1 2.1-1.6.6-3 1.5-3.9 2.9-.3.5.2 1 .7.9 1.5-.4 2.6-1.6 3.9-2.4 1.4-.8 3-1.2 4.5-1.5 3.6-.7 7.1-1.2 10.6-1.8.9-.2 1.9-.3 2.8-.6.7-.2 1.5-.5 2.2-.8 1.6-.8 3.2-1.4 4.8-2 1.7-.6 3.5-1.1 5.1-1.7 1.6-.5 3-1.2 4.7-1.2 1.7 0 3.5.4 5.2.5 1.6.2 3.4.3 5-.3.3-.1.4-.3.4-.5.1-2-1.9-2.7-3.5-3.1-2.4-.4-5-.4-7.5-.2-2.3.1-4.6.4-6.9.6-2.4.3-4.8.5-7.1 1-3.8.8-7.8 2.3-10 5.7-.3.3 0 .8.3.9 6.2 1.5 12.9.3 18.6-2.6.6-.3 1.3-.7 1.9-1.1.6-.5 1.2-1 1.8-1.4.3-.2.6-.3.9-.4.5 0 .9.1 1.3.1.9-.1 1.7-.4 2.5-.6.8-.3 1.5-.3 2.4-.2.4.1.8.1 1.2.1.4 0 1 0 1.3-.2.4-.4.4-1.3.4-1.8a5.01 5.01 0 00-.5-1.7c-1.1-2.5-3.6-4-5.4-6.1-.267.334-.534.634-.8.9.6.7 1.4 1.3 2.1 2 .6.7 1.3 1.5 1.7 2.4.2.2.3.6.3.9-.1.2-.2.3-.5.5-.8.4-1.7.8-2.7 1-2.1.5-4.3.6-6.4 1-1.4.3-2.8.5-4.2.8-1.5.4-3.3 1-3.9 2.6-.1.3.1.6.4.7 2.8 1.2 5.7 1.2 8.7.6 2.7-.6 5.4-1.6 8.1-2.2 1.6-.3 3.2-.5 4.8-.4v-1.2h-.7c-.7 0-.7 1.2 0 1.2h.7c.8 0 .7-1.1 0-1.2-2.9-.2-5.7.5-8.4 1.3-2.6.8-5.3 1.7-8 1.7-1.667 0-3.3-.3-4.9-.9.133.267.266.5.4.7.066-.2.2-.366.4-.5l.8-.6c.7-.3 1.4-.5 2.2-.7 1.5-.3 3-.6 4.5-.8 2.2-.5 4.5-.5 6.6-1.2.9-.2 1.9-.6 2.6-1.2.6-.5.8-1.3.5-2.1-.3-1.1-1.1-2-1.8-2.8-.8-.9-1.7-1.6-2.5-2.5-.5-.5-1.3.3-.8.9 1.1 1.3 2.6 2.4 3.8 3.7 1 1.2 2.1 2.7 1.5 4.4l.4-.4c-1.1.2-2.2-.2-3.3-.1-1.1.1-2.2.6-3.3.8-.5 0-1.1-.1-1.6 0-.534 0-1 .167-1.4.5-.9.6-1.6 1.3-2.5 1.8-3.6 2.1-7.7 3.4-11.8 3.7-2.4.1-4.8 0-7.1-.6.133.267.266.567.4.9 1.8-2.8 5.1-4.2 8.2-4.9 2.4-.6 4.9-.8 7.3-1.1 2.1-.3 4.2-.5 6.3-.7 2.4-.1 4.9-.3 7.3 0 .5.1 1.1.2 1.6.3.266.067.5.134.7.2.3.1.3.1.5.2a1.188 1.188 0 01.4.3c.1.1 0-.1 0 0 .066.067.166.134.3.2v.1c.1.1 0-.1 0 0l.2.2v.1c0 .1.1.4.1.2v.3l.4-.6c-1.4.5-2.9.4-4.4.3-1.6-.2-3.1-.4-4.7-.5-.7-.1-1.5-.1-2.2 0-.9.2-1.7.5-2.5.7-.7.3-1.5.7-2.3.9l-2.6.8c-1.7.6-3.5 1.2-5.1 1.9-1.5.7-3 1.4-4.6 1.7-1.9.4-3.8.6-5.6.9-1.8.3-3.5.7-5.2.9-1.8.4-3.6.7-5.3 1.5-1.5.8-2.7 2.2-4.3 2.6.2.334.4.634.6.9.9-1.3 2.2-2 3.7-2.6 1.5-.5 2.9-1 4.1-2.1.5-.4.1-1-.4-1-1.2-.2-2.3 0-3.4.5.2.334.4.7.6 1.1 2.2-1.4 4.6-2.7 7.1-3.4 2.1-.7 4.3-1 6.3-1.8 1.1-.5 2.1-1.2 3-2.1.3-.3.2-.8-.3-1-3.2-.9-6.7-.4-9.9-.3 0 .4.033.767.1 1.1 2.2-.7 4.2-1.7 6.3-2.5 2.1-.7 4.4-1.3 6.5-.6a6.522 6.522 0 01-.4-.7c-.067.067-.1.134-.1.2 0 .1 0 0-.1.2a1.547 1.547 0 01-.3.4c-.1.3-.5.6-.8.9-.7.6-1.6 1.1-2.5 1.5-1.9.9-4 1.5-6 1.7H51c-.067 0-.1-.033-.1-.1h-.3c-.134-.066-.234-.1-.3-.1.1 0-.1 0 0 0-.067 0-.1-.033-.1-.1.066.267.133.5.2.7.3-.6 1-1.1 1.6-1.5.9-.5 1.8-1 2.7-1.4.8-.4 1.6-.7 2.3-1.1 1.2-.6 2.2-1.3 3.4-1.8 1.5-.6 3-.9 4.5-.7a9.238 9.238 0 00-.3-1.1 27.656 27.656 0 01-3.3 1.2l-3 .6c-1.6.3-3.3.8-5 .7-.8-.1-1.6-.3-2.2-1-.5-.5-1.4.3-.9.9z" fill="#fff"/><path d="M43.6 134c1.3 2 4.1 1.7 6.2 1.4 1-.1 2-.4 3.1-.6 1.6-.3 3.2-.2 4.8-.4 3.5-.3 6.7-1.9 9.9-3.2 1.6-.7 3.3-1.2 5-1.5 1.8-.3 3.5-.4 5.2-.6 1-.1 1.9-.2 2.8-.5.8-.2 1.6-.6 2.4-.9 1.6-.6 3.3-1.3 5-1 .3.1.6 0 .7-.3.1-.2 0-.6-.2-.7-.8-.4-1.6-.7-2.3-1.3-.6-.5-1.1-1.1-1.5-1.8-.6-.8-1.1-1.7-1.7-2.5-.7-.9-1.5-1.7-2.2-2.5-.8-.9-1.6-1.8-2.1-2.9l-.8.8c1.3.8 2 2.3 2.7 3.6.8 1.4 1.6 2.8 3 3.5.5.3 1.2-.3.8-.8-.3-.5-.4-1-.7-1.5-.4-.7-1.4-.1-1 .6.3.5.4 1 .7 1.5l.8-.8c-1.3-.7-2.1-2.1-2.8-3.4-.7-1.4-1.5-2.8-2.9-3.7-.5-.3-1.1.3-.8.8 1 2 2.7 3.5 4.1 5.2 1.2 1.5 2 3.3 3.4 4.6.8.7 1.7 1.2 2.7 1.6.133-.4.266-.767.4-1.1-3.1-.6-5.8 1.4-8.8 2.1-1.6.4-3.4.4-5 .6-1.8.2-3.5.5-5.1 1-3.3 1-6.3 2.7-9.6 3.6-1.7.4-3.4.4-5.1.5-1.2.1-2.4.4-3.6.6-1.3.2-2.5.4-3.8.4-.9 0-2.1-.1-2.7-1-.4-.6-1.5 0-1 .6zm-6.6 8c-.2-.2-.4-.433-.6-.7l-.2 1c1.5-.7 3.3-.6 4.9-.4 1.7.2 3.4.6 5.1.8 1.8.3 3.7.4 5.5.5 1.867.133 3.767.2 5.7.2 7.6-.2 15.3-1.4 22.4-4.2 4-1.5 7.7-3.6 11.1-6.2.3-.2.4-.5.2-.8-.1-.2-.5-.4-.8-.2-6 4.6-13.2 7.5-20.6 8.9-7.4 1.5-15.1 1.6-22.5.8-1.9-.2-3.8-.7-5.6-.9-1.9-.3-4-.4-5.7.3-.5.2-.6.6-.3 1l.6.8c.2.2.6.2.8 0 .3-.3.2-.6 0-.9zm90.3-126.2c0 .2-.033.367-.1.5 0 .5.6 1.1 1 .6.3-.3.5-.4.8-.4.4.1.7.4 1 .7.6.5 1.1 1.2 1.7 1.8.7.6 1.5 1.1 2.2 1.7.3.3.7.6 1 1 .2.3.3.5.3.8-.1.3.3.6.6.6s.5-.3.6-.6c0-.8-.5-1.5-1-2-.6-.7-1.4-1.2-2.1-1.7-.6-.4-1-.9-1.5-1.4-.5-.7-1.1-1.3-1.8-1.7-.9-.5-1.9-.4-2.6.4.334.133.667.3 1 .5 0-.133.034-.3.1-.5 0-.3-.1-.6-.5-.7-.2-.1-.6.1-.7.4zm-70.6 89.9c-.6-.1-1.3-.1-1.8 0-.6.1-1 .5-1.5.8-1.2.9-2.2 2.2-3.3 3.4.333.2.666.433 1 .7.6-1.1 1.6-2.2 1.5-3.5 0-.4-.2-.6-.5-.6-2.5-.3-3.4 2.7-4.3 4.4.333.133.7.267 1.1.4.4-1.267.966-2.5 1.7-3.7.6-1.1 1.4-2.3 2.5-3.1-.334-.267-.634-.5-.9-.7-1.3 1.8-2.6 3.8-4.6 4.8.266.267.533.5.8.7 1-2.8 3.6-4.6 4.9-7.2.3-.5-.3-1-.8-.8-1.4.7-2.5 1.8-3.5 3-.4.5-.8 1.1-1.1 1.7-.3.6-.7 1-1.3 1.2.266.2.5.4.7.6.2-1.2 1.3-2.2 2.3-2.6a11.02 11.02 0 00-.8-.9c-.6 1.4-1.6 2.4-2.5 3.5-1 1.1-1.9 2.3-2.4 3.7-.3.6.5 1 .9.6 2.7-2.6 4.9-5.6 7.6-8a11.02 11.02 0 01-.8-.9c-1.8 1.7-3.8 3.1-5.3 5-.6.7-1 1.5-1.5 2.2-.5.7-1 1.3-1.9 1.5l.8.6c0-.6.133-1.133.4-1.6.3-.6-.5-1.2-.9-.7-1.5 1.5-3.7 2.6-4.4 4.7-.3.7-.2 1.5 0 2.2.2.8.6 1.6 1.2 2 .9.6 1.8 0 2.3-.7l-.8.2c.1 0-.1.3-.1.4-.4.6.6 1.2 1 .6.4-.8.4-1.6-.3-2.1-.3-.1-.7 0-.8.3-.1.1-.3.3-.4.3-.1.1-.1 0-.1.1l-.2-.2c-.1-.1-.2-.1-.3-.3-.3-.6-.5-1.4-.5-2.1 0-.1.1-.2.1-.4.133-.2.233-.4.3-.6.4-.5.8-.9 1.2-1.3.8-.8 1.8-1.5 2.6-2.3-.334-.267-.634-.5-.9-.7-.4.667-.6 1.4-.6 2.2 0 .4.4.7.7.6 2.1-.5 2.7-2.5 3.8-3.9 1.5-2 3.6-3.5 5.4-5.1.6-.5-.3-1.4-.8-.9-2.8 2.5-5 5.5-7.6 8.1.333.133.666.3 1 .5 1-2.6 3.6-4.3 4.8-6.9.2-.5-.3-1-.8-.8-1.4.6-2.7 2.1-2.8 3.7-.1.4.4.6.7.5 1.5-.4 1.9-1.8 2.8-2.9.9-1.3 1.9-2.4 3.4-3.1l-.8-.8c-1.4 2.7-4 4.6-5 7.5-.2.5.4.9.9.6 2.1-1.1 3.6-3.3 5-5.2.1-.3 0-.6-.2-.8-.2-.2-.5-.2-.8 0-1.1.9-1.9 2.2-2.7 3.4a36.42 36.42 0 00-1.8 4c-.2.6.8 1.1 1.1.5.5-.9.8-1.8 1.3-2.6.5-.7 1-1.3 2-1.2l-.6-.6c0 1.1-.9 2-1.5 2.9-.3.6.5 1.2 1 .7 1-1 1.8-2.3 3-3.1.3-.3.7-.6 1.1-.7.4-.1 1.1-.1 1.6-.1.7.1.7-1.1 0-1.1z" fill="#fff"/><path d="M45.6 71.2c1.1 2.4 3.3 4.4 3.8 7.1l1-.6c-.8-.9-1.8-1.6-2.7-2.4-.9-.7-1.8-1.5-2.4-2.6-.2.333-.4.633-.6.9 1 .4 1.9 1.2 2.7 2 .9.9 1.7 1.9 2.5 2.9 1.9 2.2 4 4.2 5.9 6.4.333-.267.633-.534.9-.8-2.1-2.1-3.6-4.7-5.4-7.1-.9-1.1-1.9-2.2-3.1-3.1-1.3-1-2.8-1.6-4.3-2-1.8-.5-3.7-.9-5.3-1.9-.067.4-.167.8-.3 1.2h1.2v-1.1c-.667-.067-1.367-.1-2.1-.1v1.2c3.2-.3 6 1.2 8.8 2.6 2.1 1.1 3.7 2.9 5.2 4.8.8 1 1.5 2.1 2.1 3.3.267-.267.566-.5.9-.7-2.8-2.5-5.1-5.4-8.1-7.7-.5-.4-1.2.5-.7.9 2.1 2.2 4.4 4.4 6 7.1.6 1.1 1.1 2.2 1.4 3.4.2 1.1.4 2.3.8 3.4.4 1.2 1 2.3 2.1 3 .4.2.8-.1.9-.5.1-2.5-1.7-4.6-3.1-6.5-1.6-2.2-3-4.6-4.5-6.8-1-1.4-2-2.7-3.1-3.9-.5-.5-1.2.2-.9.7.9 1.8 2.1 3.3 3.1 5 1.1 1.7 1.8 3.5 2.4 5.4.6 1.9 1.1 3.8 1.5 5.8a50.017 50.017 0 011.2 6.3c.1 1 .1 1.9.1 2.9.1 1 .2 2 .8 2.7.3.4.9.4 1.1-.1.7-2.5.4-5.2 0-7.7-.5-2.8-.9-5.6-1.6-8.3l-1.4-5c-.2-.5-.7-.6-1-.3-.8.7-.9 1.9-.8 2.9.2 1.1.5 2.2.6 3.3.1 1.6 0 3.2 0 4.7-.067 1.6-.1 3.166-.1 4.7-.1 1.8-.1 3.6-.3 5.4-.1.3 0 .6.4.7.3.1.7-.1.7-.4.2-1.133.5-2.267.9-3.4.4-1 .9-2.1 1.8-2.9a5.69 5.69 0 00-1-.3c.6 2-.1 4-1 5.8-1 2-2.4 3.9-3.8 5.8-.6.9-1.2 1.9-1.8 2.9-.3.6.7 1.2 1.1.6 1-2 2.4-3.7 3.6-5.6 1.3-1.9 2.7-4 3.1-6.3.3-1.1.3-2.4-.1-3.5-.1-.4-.6-.6-1-.3-.9.9-1.5 2.1-1.9 3.3a15.949 15.949 0 00-1 3.6c.333.067.7.167 1.1.3.4-3.1.3-6.1.4-9.2.1-1.5.2-3.1.1-4.6 0-1.3-.2-2.5-.4-3.7-.2-.8-.5-2.3.2-3l-1-.2c.9 2.8 1.7 5.7 2.2 8.6.3 1.3.5 2.6.7 3.9.2 1.2.4 2.5.5 3.8.1 1.3 0 2.7-.4 4.1.4-.067.767-.133 1.1-.2-.5-.6-.6-1.4-.6-2.2 0-.9 0-1.7-.1-2.6a67.145 67.145 0 00-1.1-6.2c-.8-3.9-1.8-8-3.7-11.4-1.1-2-2.6-3.7-3.6-5.6-.267.2-.567.433-.9.7 1.9 2 3.4 4.3 4.9 6.6l2.1 3.3c.7.9 1.4 1.9 2.1 2.8.7 1.1 1.2 2.3 1.2 3.6.267-.2.566-.367.9-.5-.9-.6-1.3-1.5-1.6-2.4-.4-1.1-.6-2.3-.8-3.4-.7-2.7-2.3-5.1-4.1-7.2-1.1-1.3-2.4-2.5-3.6-3.7-.2.267-.433.567-.7.9 2.9 2.2 5.2 5.1 7.9 7.5.5.4 1.2-.1.9-.7-.5-1.1-1.2-2.1-1.9-3.1a59.928 59.928 0 00-2.7-3.1c-.8-.8-1.7-1.6-2.7-2.1-1.5-.7-2.9-1.5-4.4-2.1-1.7-.6-3.6-1.1-5.4-.9-.8 0-.8 1.1 0 1.2h2.1c.8.1.8-1.1 0-1.1-.4-.067-.8-.1-1.2-.1-.6-.1-.8.8-.3 1.1 2.8 1.6 6.3 1.6 9 3.4 2.5 1.6 4.1 4.2 5.7 6.5 1 1.4 2 2.7 3.1 3.9.6.5 1.4-.3.9-.8-2-2.3-4.2-4.4-6.1-6.7-1.6-1.9-3.2-4-5.6-5-.5-.2-.9.5-.7.9 1.3 2.2 3.6 3.5 5.3 5.2.4.5 1.1 0 1-.6-.6-2.8-2.8-4.8-4-7.3-.1-.3-.5-.4-.8-.3-.3.2-.3.6-.2.9z" fill="#fff"/><path d="M43.3 110.8c1.4-.6 2.5-1.7 3.5-2.8 1.1-1.2 2-2.4 2.9-3.8.7-1 1.3-2.2 2-3.3.7-1.2 1.5-2.4 2.1-3.7.6-1.3 1.3-2.8 1.2-4.2 0-.8-1.1-.8-1.2 0v.6c-.1.8 1.1.8 1.2 0V93h-1.2c.1 1.1-.4 2.2-.9 3.3-.6 1.2-1.3 2.4-2 3.6-1.4 2.4-2.7 4.7-4.5 6.8-1.1 1.2-2.2 2.4-3.6 3.1-.7.3-.1 1.4.5 1zm31.7 23c0 .2-.033.4-.1.6 0 .067.034.134.1.2 0 .067.034.134.1.2.067.067.134.1.2.1.067.067.134.1.2.1h.2a1.19 1.19 0 01.3-.2v-.1c.067-.133.1-.233.1-.3v-.8c0-.066-.033-.133-.1-.2-.066-.066-.133-.1-.2-.1-.066-.066-.133-.1-.2-.1-.066 0-.133.034-.2.1-.133 0-.233.034-.3.1 0 .067-.033.1-.1.1v.3c0 .2-.033.4-.1.6 0 .067.034.134.1.2 0 .067.034.134.1.2.067.067.134.1.2.1.067.067.134.1.2.1h.2a1.19 1.19 0 01.3-.2v-.1c.067-.133.1-.233.1-.3v-.8c0-.066-.033-.133-.1-.2-.066-.066-.133-.1-.2-.1-.066-.066-.133-.1-.2-.1-.066 0-.133.034-.2.1-.133 0-.233.034-.3.1 0 .067-.033.1-.1.1v.3z" fill="#fff"/><path d="M50.3 116.3a.884.884 0 01-.4-.1c.133.2.266.367.4.5-.1-.7-.3-1.5-.9-1.9-.6-.3-1.2-.1-1.7.2-1 .7-1.7 1.9-2.8 2.4.266.133.566.267.9.4l-.2-.6c0-.3-.4-.5-.7-.4-.8.2-1.5.6-2.1 1.1.333.267.666.5 1 .7.2-.3.4-.7.5-1.1.1-.5-.4-1-.9-.7-.5.3-1 .7-1.6 1 .2.333.433.633.7.9.5-.5 1-1 1.2-1.8 0-.267-.1-.467-.3-.6-.1-.1-.4-.3-.3-.5l-1 .2c.2.1.4.3.4.6s-.1.5-.2.8c-.2.3-.1.8.3.8 1.1.2 2-.9 2.6-1.6.7-.9 1.3-1.7 1.8-2.7.2-.3 0-.7-.3-.8-2.5-.5-3.7 2.8-4.3 4.7-.4 1.267-.7 2.567-.9 3.9-.067.533-.134 1.1-.2 1.7-.1.3-.2.8-.1 1.2.2.4.8.6 1.2.6.4-.1.7-.3.9-.6.5-.6.7-1.2 1.1-1.8-.334-.133-.7-.3-1.1-.5-.1.5-.3 1-.5 1.4a23.82 23.82 0 00-.7 2c-.3 1-.7 2.8.7 3.1.2 0 .4 0 .6-.2 1.2-1.5 1.8-3.4 2.5-5.2.266-.8.566-1.633.9-2.5.2-.8.5-1.6 1.1-2.3l-1-.4c.1 1.9-.2 3.7-.3 5.5-.1 1.9-.1 3.8-.2 5.6-.1.3.3.6.6.6s.5-.3.5-.6c.6-4.2 2-8.3 3.1-12.3l-.6.4c-.1 0-.3-.1-.3-.1v-.1.2c.066.2.133.433.2.7.133.733.233 1.467.3 2.2.133.8.266 1.567.4 2.3.1.5.2 1.1.5 1.5.3.5 1.1.3 1.1-.3.1-1.6-.9-3.6.1-5.1-.334-.067-.7-.133-1.1-.2 1 3 .8 6.2 1.7 9.2.1.3.4.6.7.4.8-.2.9-1.1 1-1.8 0-.8 0-1.6-.1-2.4 0-1.2.1-2.4.1-3.6 0-1.5.1-3 .2-4.5-.267.133-.567.3-.9.5.5.3.6.7.6 1.2.1.8.4 1.5.5 2.3.3 1.1.6 2.3.8 3.4.1.9.2 1.9.4 2.7.2.8.6 1.7 1.4 2 .4.2.7.1.8-.3.9-2.1.7-4.4.4-6.6-.2-1.9-.1-4-.9-5.8-.1-.2-.4-.4-.7-.3-.3.1-.4.3-.4.6-.2 1.3.4 2.5.7 3.7.333 1.333.566 2.667.7 4 .4 2.5 1 5 2.1 7.3.3.5 1 .3 1.1-.1.2-.667.3-1.367.3-2.1 0-.267-.034-.567-.1-.9-.1-.4-.1-.7-.1-1.1-.067-1.467-.134-2.9-.2-4.3-.2-2.9-.5-5.7-.7-8.5-.134-1.667-.234-3.3-.3-4.9-.334.133-.7.233-1.1.3.266.467.433.933.5 1.4 0 .3 0 .6.1.9.066.267.133.567.2.9.4 1.2.766 2.433 1.1 3.7a156.663 156.663 0 011.8 7.6v-.4c-.2.9 0 1.8.6 2.5.4.4 1 0 1-.5.3-2.7.2-5.4-.1-8.1a20.712 20.712 0 01-.3-2c0-.7 0-1.4-.2-2-.1-.4-.3-.7-.4-1a3.29 3.29 0 01-.1-.8c-.067-.6 0-1.2.2-1.8h-1.1c.8 4.4 1.6 9 3 13.3.1.3.3.4.6.5.9 0 1.1-1.2 1.1-1.9.1-1.3-.1-2.6-.3-3.9-.4-3.1-1.1-6.2-1.8-9.3-.2-.9-.4-1.8-.6-2.8-.334.133-.7.233-1.1.3 1.4 5.4 2.7 10.7 4.1 16 .1.5.8.7 1.1.2.2-.6.2-1.3.1-1.9-.067-.867-.2-1.733-.4-2.6-.2-.667-.367-1.3-.5-1.9-.3-1.1-.5-2.2-.7-3.3-.267-1.6-.5-3.2-.7-4.8-.4.067-.8.1-1.2.1.7 2.8 1.6 5.4 2.3 8.1.6 2.2.9 4.5 2.3 6.4.2.3.8.4 1 0 .6-1.2.6-2.4.1-3.6-.3-.7-.3-1.4-.5-2.1a124.28 124.28 0 01-.4-2.1 73.783 73.783 0 00-.9-4.1c-.3-1.4-.7-2.7-.9-4.1-.3-1.5-.5-3-.3-4.5a5.34 5.34 0 00-1.1.3c2.5 5 3.5 10.7 5.2 16.1a36.713 36.713 0 001.7 4.5c.2.5.9.3 1.1-.1.2-.7.3-1.4.2-2.2-.1-.7-.3-1.4-.4-2.1a88.91 88.91 0 00-1.1-4.5 421.174 421.174 0 01-2.1-8.8c-.4-1.667-.834-3.3-1.3-4.9-.3-.7-1.1-.5-1.2.2-.134.8-.1 1.6.1 2.4.2.7.6 1.4.8 2.2.466 1.6.966 3.233 1.5 4.9 1.1 3.2 2.2 6.5 3.2 9.8 0 .2.1.4.1.6.1.2 0 .4 0 .6l.2 1c.3.6.8 1.1 1.4 1.5.4.2.8-.1.8-.5.2-3.6-.4-7.1-1.1-10.6-.334-1.733-.667-3.5-1-5.3-.4-1.7-.8-3.4-1.4-5-.3-.9-.7-1.8-1.1-2.6-.3-.7-.9-1.5-.8-2.2a3.91 3.91 0 00-.9.5c.7.5 1.4 1.1 2.4 1.1.4 0 .7-.5.5-.9-.4-.8-1-1.5-1.1-2.3-.1-.4-.1-.8-.2-1.2a2.068 2.068 0 00-.6-1.2c-.4-.5-1.3.2-.9.7 1 1.6 1.9 3.2 3.3 4.5.4.3.9 0 1-.5.1-.6 0-1.3-.2-2a3.913 3.913 0 00-.5-.9c-.2-.3-.4-.7-.5-1.1-.667-1.4-1.334-2.833-2-4.3-1.2-2.4-2.2-5-3.8-7.2-1.7-2.2-4.1-4-6.5-5.2-.6-.3-1.2-.6-1.6-1.1-.5-.4-.8-1-1.1-1.5-.7-1.2-1.3-2.4-2.1-3.5-.5-.7-1.1-1.1-1.9-1.5-.6-.3-1.1-1-1.6-1.6-.4-.4-.8-.6-1.2-.9a1.51 1.51 0 01-.6-.5c-.067 0-.134-.033-.2-.1-.1-.2 0-.1 0-.1l-.4.4c.4-.1.9-.2 1.4 0 .4.1.7.4 1 .7 1 .9 1.9 1.9 2.9 2.9 1 1.1 2.1 2.1 3 3.2.9 1.1 1.7 2.2 2.3 3.4.8 1.4 1.5 2.9 2.2 4.3.266-.2.566-.433.9-.7-.3-.4-1-.8-1-1.3 0-.8-1.2-.8-1.2 0 0 .9.8 1.5 1.4 2.1.4.6 1.2-.1.9-.7-1.3-2.7-2.5-5.4-4.5-7.7-.9-1.2-2-2.3-3.1-3.4-1-1-2-2.1-3.1-3.1-.4-.4-.9-.8-1.5-.9-.7-.2-1.3-.1-2 .1-.1 0-.3.2-.4.4-.2 1 .9 1.7 1.6 2.2.5.2.7.5 1.1.9.5.5.9 1.1 1.5 1.4.7.3 1.2.7 1.7 1.3.4.6.7 1.2 1.1 1.9.6 1.1 1.1 2.4 2.1 3.2.9.9 2.3 1.4 3.4 2.1 1.2.8 2.3 1.7 3.3 2.7 2 2 3.1 4.5 4.3 7a140.596 140.596 0 002.1 4.6c.4.8.7 1.6 1.2 2.3.4.734.533 1.467.4 2.2l1-.4c-1.2-1.2-2.1-2.7-3.1-4.2-.267.267-.567.5-.9.7.2.3.3.7.3 1 0 .4.1.9.2 1.3.3.8.8 1.5 1.2 2.2.133-.267.3-.567.5-.9-.7 0-1.3-.6-1.8-.9-.4-.3-.9 0-.9.5 0 .7.3 1.4.7 2.1.3.7.6 1.4.9 2.2.7 1.5 1.1 3.2 1.5 4.9.4 1.7.7 3.5 1.1 5.2.3 1.8.7 3.5.9 5.3.3 1.9.4 4 .4 6 .266-.2.566-.4.9-.6-.467-.2-.767-.533-.9-1a3.29 3.29 0 01-.1-.8c0-.4-.1-.8-.2-1.2l-1.4-4.6a216.514 216.514 0 01-3-9.3 31.11 31.11 0 00-.4-1.3c-.2-.4-.4-.8-.5-1.3-.267-.8-.334-1.6-.2-2.4-.4 0-.8.034-1.2.1.9 2.8 1.5 5.6 2.2 8.5.7 2.8 1.5 5.7 2.1 8.6.133.8.3 1.6.5 2.4.2.8.166 1.6-.1 2.4.4-.067.766-.133 1.1-.2-2.2-5.2-3.2-10.8-5-16.2-.534-1.533-1.167-3-1.9-4.4-.3-.6-1-.3-1.1.3-.2 2.6.4 5.3 1 7.9.6 2.6 1.166 5.267 1.7 8 .1.3.1.7.3 1.1.1.3.3.6.3 1 .2.6.1 1.3-.2 1.9h1c-1.3-1.8-1.6-4.1-2.2-6.2-.7-2.7-1.6-5.3-2.3-8-.1-.6-1.2-.5-1.1.2.3 2.7.8 5.4 1.4 8.1l.9 3.9c.066.4.1.8.1 1.2v.6c0 .1-.1.2-.1.1.4.067.766.1 1.1.1-1.3-5.3-2.6-10.7-4.1-16-.2-.7-1.2-.4-1.1.3.4 2.1.9 4.2 1.3 6.3.6 2.8 1.2 5.7 1.3 8.5v1.2c0 .1 0 .1 0 0v.2c-.067.067-.1.133-.1.2.1 0 0 .1 0 0v.1c-.1 0 .1-.1 0-.1-.1.1.1 0 .1 0h.1c.2.133.366.267.5.4-1.4-4.4-2.1-8.9-3-13.4-.1-.6-1-.5-1.1 0-.5 1.5-.3 3 .3 4.4 0-.067-.034-.167-.1-.3.5 4 1.1 8 .6 12l1-.4c-.2-.2-.3-.433-.3-.7-.1-.3 0-.6 0-.9-.1-.7-.3-1.5-.5-2.2-.267-1.467-.6-2.9-1-4.3-.4-1.467-.8-2.9-1.2-4.3-.134-.4-.234-.8-.3-1.2-.1-.3-.1-.6-.1-.9a3.528 3.528 0 00-.7-1.8c-.3-.5-1.1-.3-1.1.3.2 5.6 1 11.2 1.2 16.8v1.2c0 .4.1.8.2 1.2a6.19 6.19 0 01-.2 2.2 6.7 6.7 0 001.1-.1c-1.1-2.2-1.7-4.6-2-7a75.88 75.88 0 00-.7-3.8c-.2-.6-.3-1.2-.5-1.8-.267-.6-.334-1.2-.2-1.8a5.34 5.34 0 00-1.1.3c.7 1.6.5 3.6.8 5.3.2 2.1.4 4.2-.4 6.2.266-.133.566-.267.9-.4-.6-.2-.8-1.1-1-1.8-.2-.8-.2-1.7-.4-2.5-.2-1.4-.5-2.7-.8-4.1-.1-.3-.3-.6-.3-1 0-.3 0-.6-.1-.9-.2-.533-.567-.967-1.1-1.3-.4-.3-.8.1-.9.5-.134 1.333-.2 2.7-.2 4.1 0 1.2-.1 2.5-.1 3.7.1.7.1 1.3.1 2 0 .3 0 .7-.1 1a.887.887 0 01-.1.4c.1-.1 0 .1 0 .1l.1-.1.8.4c-1-3-.8-6.2-1.7-9.2-.2-.5-.8-.5-1.1-.1-1.2 1.8-.2 3.8-.3 5.7.4-.067.766-.167 1.1-.3-.1-.2-.1-.2-.2-.5l-.2-1c-.134-.8-.267-1.633-.4-2.5l-.3-2.1c-.2-.5-.4-1.2-1-1.2-.3 0-.5.2-.6.4-1.1 4.2-2.5 8.4-3 12.7h1.1c.2-1.8.1-3.7.3-5.6.1-1.8.4-3.6.3-5.5 0-.5-.6-.8-1-.4-1.2 1.3-1.6 3.2-2.2 4.9-.6 1.7-1.1 3.6-2.4 5.1l.6-.2H43v-.1c0 .1-.1-.1 0 0a.425.425 0 010-.4c0-.4.2-1.1.4-1.6.2-.533.4-1.1.6-1.7.2-.3.4-.7.5-1.1.1-.7-.7-1-1.1-.5-.3.4-.4.8-.7 1.2-.1.2-.3.4-.4.5l-.1.1c.1.1-.1 0 0 0l.2.4c0-1.5.3-2.9.6-4.3.4-1.7.9-3.7 2-5.1.2-.2.5-.5.7-.6 0-.067.033-.1.1-.1.066-.067.166-.1.3-.1H46h.3c.1 0-.1 0 0 0a3.9 3.9 0 00-.3-.8c-.4.7-.9 1.4-1.5 2.1l-1 1.2c-.2.1-.3.2-.5.3 0 .067-.034.1-.1.1h.1c.066.267.166.567.3.9.2-.5.4-1 .4-1.5s-.3-1-.7-1.4c-.3-.2-.8-.2-.9.1-.4.9 0 1.6.7 2.1a5.488 5.488 0 00-.3-.7c-.1.5-.5.9-.8 1.3-.5.5.1 1.2.7.9.6-.2 1.1-.6 1.6-1a7.482 7.482 0 01-.8-.7c-.1.4-.3.6-.5.9-.3.6.5 1.2 1 .7.4-.4 1-.6 1.5-.8a6.535 6.535 0 00-.7-.4c.066.2.1.4.1.6.1.4.6.5.9.4 1-.6 1.7-1.5 2.5-2.2.2-.2.3-.3.5-.4.1-.1 0 0 .2-.1h.1c.1.1.1.1.1.2.1.3.2.6.3 1 0 .2.2.3.4.4.133 0 .233.033.3.1.8.2 1.1-1 .4-1.2z" fill="#fff"/><path d="M55.9 77.9c0-.5.1-1 .3-1.4.2-.4.5-.9.9-1.1-.267 0-.5-.034-.7-.1.2.3.3.5.4.9.1.3.2.7.3 1 .3.6 1.1.3 1.1-.3v-1.1c0-.7-1.1-.7-1.2 0 0 .7.2 1.3.3 1.9.1.5.3 1.1.1 1.5h1l-.6-1c-.4-.7-1.4-.1-1.1.6.4.7.6 1.5.9 2.3.4.7.7 1.5 1.3 2 .4.3.9.2 1-.2.2-.8.3-1.7.5-2.5-.267.133-.566.266-.9.4.267.2.533.367.8.5.7.3 1.3-.7.6-1.1l-.8-.4c-.3-.3-.7 0-.8.3-.2.8-.3 1.6-.5 2.4l1-.2c-.6-.5-.9-1.2-1.2-1.9-.3-.7-.5-1.5-.8-2.2-.4.2-.767.4-1.1.6.2.333.433.666.7 1 .2.4.8.4 1 0 .8-1.2-.2-2.7-.2-4H57v1.1a5.34 5.34 0 001.1-.3c-.3-.7-.2-1.5-.9-2.1-.2-.2-.433-.234-.7-.1-.6.3-1 .9-1.3 1.5-.3.6-.5 1.3-.5 2 .1.7 1.3.8 1.2 0zm-13.3-9.4c-.6.6-1.6.4-2.4.3-.8-.1-1.8-.3-2.6-.1-.3.2-.6.6-.4.9.9 1.2 2.4 1.6 3.8 2 1.5.4 3 1 4.1 2.2.2-.333.433-.633.7-.9-.7-.5-1.3-.9-1.9-1.5l-.8.8c1 1.1 2.2 2.1 3.3 3 .5.4 1.4 1.2 2.1 1 1-.3.6-1.7.3-2.3-.5-1-1.4-1.9-2.2-2.6a9.482 9.482 0 00-3-1.7c-1.1-.3-2.3-.4-3.4-.5-1.1-.1-2.4-.2-3.4.2-.6.2-1.1.6-1.6 1-.6.467-1.2.9-1.8 1.3-1.1.7-2.2 1.4-3 2.4l-1.2 1.5c-.5.5-1 .7-1.6 1-.6.2-1.1.6-1.5 1.1-.4.5-.7 1.1-1 1.6l-1 1.8c-.3.7-.8 1.3-1.2 2-.7 1.1-1.1 2.3-2 3.3-.9 1-1.9 2-2.9 2.9-1.9 1.8-3.9 3.6-5.6 5.7-1.8 2.2-3.2 4.8-4.3 7.4-1.3 2.9-2.4 5.8-3.6 8.6-1.1 2.7-2.4 5.4-2.8 8.3l-.3 2.1c-.1.8-.3 1.6-.3 2.3v2.3c0 .8-.1 1.5-.3 2.2-.4 1.5-.4 2.9 0 4.4.3 1.5.6 2.9 1 4.3.5 1.4 1.1 2.8 1.5 4.2.2.4.3.8.3 1.2.1.3 0 .7.1 1 .1.7.5 1.3.9 1.9.6 1.2 1.2 2.5 1.5 3.8.3 1.4.3 2.8.9 4 .6 1.4 1.6 2.5 2.4 3.7.8 1.2 1.8 2.4 2.7 3.5 1 1.1 1.8 2.2 2.5 3.5.7 1.2 1.4 2.3 2.3 3.3 1.9 2.2 3.9 4.3 6.3 6 2.4 1.7 5.1 2.8 7.5 4.5 1 .7 1.7 1.7 2.8 2.3.6.3 1.3.7 2 .6.9 0 1.2-.8 1-1.6-.2-.7-1.4-.4-1.2.3l.1.3c-.2-.2.3 0 0-.1l-.9-.3c-.9-.4-1.5-1.1-2.3-1.7-2-1.8-4.5-2.9-6.8-4.2-2.3-1.4-4.3-3.2-6.1-5.2-.9-1-1.9-1.9-2.6-3.1-.7-1-1.3-2.1-2-3.2s-1.6-2.1-2.5-3.2c-.9-1-1.7-2.2-2.5-3.3-.7-1.1-1.6-2.2-2-3.4-.3-1.3-.3-2.6-.7-3.8-.4-1.2-.9-2.4-1.5-3.5-.4-.6-.6-1.1-.7-1.8 0-.7-.2-1.3-.4-2-.4-1.3-1-2.6-1.4-4-.5-1.3-.8-2.6-1-4-.4-1.4-.4-2.7-.1-4.1.4-1.4.4-2.7.4-4.1 0-1.4.3-2.7.4-4.1.2-1.4.5-2.7 1-4.1.9-2.6 2.1-5.1 3.1-7.6 1.1-2.7 2.1-5.4 3.4-8 1.2-2.4 2.7-4.5 4.5-6.4 1.6-1.8 3.5-3.4 5.3-5.1.9-.9 1.8-1.8 2.5-2.8.6-1 1-2.1 1.7-3.1.8-1.1 1.4-2.4 2.1-3.6.3-.4.5-1 .9-1.4.4-.4 1-.6 1.6-.8 1-.6 1.7-1.5 2.4-2.4.9-1 1.9-1.7 3-2.4l1.4-1c.5-.4 1-.9 1.5-1.1 1-.4 2.2-.2 3.2-.1 1.2.1 2.3.2 3.3.6 1 .4 1.9 1 2.6 1.7.7.6 1.5 1.4 1.7 2.3v.4a.655.655 0 01.3-.3l-.2-.1c-.4-.2-.7-.5-1.1-.8-1-.9-2-1.7-3-2.7-.5-.6-1.3.3-.8.8.6.7 1.3 1.2 2.1 1.7.6.4 1.1-.5.7-.9-1-1.2-2.5-2-4-2.4-.7-.2-1.4-.4-2-.6-.6-.2-1.3-.5-1.6-1-.133.267-.267.567-.4.9.9-.3 2 0 2.9.1.9.1 2 .1 2.7-.6.5-.6-.4-1.4-.9-.9z" fill="#fff"/><path d="M49.1 103.6c-1.7.1-3 1.6-4 2.8-1.2 1.5-2.1 3.3-3.3 4.7-.7.7-1.4 1.3-2.2 1.9-.8.6-1.5 1.3-2.2 2-.7.7-1.3 1.4-2.1 2-.8.6-1.3 1.4-2.1 2.1-.8.6-1.4 1.3-1.9 2.2-.2.4-.4.833-.6 1.3-.2.4-.3.9-.5 1.4-.2.4-.5.7-.7 1.1-.2.5-.1 1-.2 1.5-.1 1-.4 2-.5 3.1-.1 1.1-.1 2.3-.1 3.4 0 1-.1 2 .2 3 .1.4.2.8.4 1.3.1.5.2 1.1.3 1.7.066.467.166.967.3 1.5.1.5.3 1 .5 1.5.3 1.1.3 2.3.9 3.3.3.5.6.8.9 1.2.4.4.6.9.8 1.4.2.8.6 1.4 1.1 2 .3.5.9 1.3 1.5 1.5.3.1.7-.1.8-.4.1-.4.2-.8.4-1.2.1-.4.2-.9.2-1.4.1-.9.5-1.7.6-2.6v-1.6c0-.5.2-1 .3-1.5.2-1 .3-2.1.5-3.1.2-1.1.4-2.2.4-3.3 0-1.1 0-2.2.2-3.3.4-2.2.8-4.4 1-6.7.1-2.5.1-5.1.2-7.7 0-.7-1.1-.7-1.2 0 0 2.3-.1 4.6-.2 6.9-.1 2.2-.4 4.4-.8 6.6-.2 1.1-.4 2.2-.4 3.3 0 1.1 0 2.2-.2 3.3-.134.467-.234.933-.3 1.4-.1.5-.1 1.1-.2 1.6-.2 1-.5 2-.5 3.1 0 .6 0 1.1-.2 1.6l-.3 1.5c-.1.5-.1.9-.2 1.4-.2.5-.4.9-.5 1.4l.8-.4-.1-.1c.1.1-.1-.1 0 0a.657.657 0 01-.3-.3c-.2-.2-.4-.433-.6-.7-.4-.5-.7-1-.9-1.6-.1-.4-.3-.9-.5-1.3-.3-.4-.6-.7-.9-1.1-.6-.7-.8-1.6-1-2.5-.2-1-.5-1.9-.7-3-.2-.9-.4-1.9-.6-2.9-.3-.9-.6-1.6-.6-2.6.066-1.067.1-2.133.1-3.2.066-1 .2-2.033.4-3.1 0-.4.2-.9.2-1.4 0-.4-.1-.8.2-1.2.2-.4.5-.8.7-1.2.1-.4.3-.9.5-1.3.3-.8.7-1.7 1.3-2.4.4-.3.7-.5 1.1-.8.4-.3.7-.7 1-1.1.6-.7 1.4-1.2 2-1.8.7-.7 1.3-1.5 2-2.1.7-.6 1.5-1.1 2.2-1.7 1.6-1.3 2.6-3.2 3.8-4.9.533-.733 1.1-1.4 1.7-2 .5-.6 1.3-1.2 2.1-1.3.7 0 .8-1.2 0-1.2zm-15 78.3c.067-.4.1-.8.1-1.2H33c-.1 2.6.1 5.3.1 7.9v4.1c-.1 1.3-.1 2.6-.2 3.9 0 1.1-.2 2.1 0 3.2.1.5.5.7.9.8.334.067.667.067 1 0 1.2-.3 1.5-1.7 1.7-2.8.1-1.3-.1-2.6 0-3.9h-1.2c-.1 1.5.1 3.1-.2 4.6.2-.2.434-.367.7-.5-.1 0-.2-.1-.3-.2a3.26 3.26 0 01-.4-.5 6.326 6.326 0 01-.6-1.4 9.976 9.976 0 01-.3-1.5v-1.2c-.4-.067-.766-.133-1.1-.2-.1 1.1-.2 2.1 0 3.2.1 1.1.6 2 1.4 2.8 1.5 1.5 3.6 1.9 5.5 2.5 2.4.7 4.7.8 7.1.8 1.2 0 2.5.1 3.7 0 1.1-.1 2.3-.5 3.4-.7 1.2-.1 2.5-.1 3.6-.3 1.3-.3 2.4-.7 3.7-.8 1.2-.1 2.4-.2 3.6-.5.6-.133 1.2-.2 1.8-.2h1.9c2.6 0 5.2-.3 7.7-.9 1.2-.3 2.5-.7 3.8-.9.6-.1 1.2-.1 1.8-.3.6-.2 1.2-.4 1.9-.5 1.2-.3 2.4-.5 3.6-.9 1.2-.4 2.3-.9 3.4-1.4 1.1-.5 2.3-.8 3.4-1.2 1.2-.4 2.2-1 3.3-1.4 1.1-.4 2.1-1 2.9-1.8.8-.8 1.5-1.7 2.1-2.6 1.3-1.8.3-4.4-.4-6.2-.8-2.5-1.6-4.9-2.2-7.4-.4-1.3-.6-2.6-.8-3.9-.1-1.2-.3-2.5-.7-3.7-.2-.533-.4-1.1-.6-1.7-.2-.6-.3-1.2-.3-1.8 0-.6.1-1.2.1-1.8l-.2-1.8c-.2-1.2-.3-2.5-.6-3.7a30.877 30.877 0 00-1.2-3.5c-.4-1.2-1-2.3-1.5-3.5-.5-1.1-.7-2.3-.9-3.5-.1-.6-.2-1.2-.4-1.8-.2-.5-.5-1.1-.7-1.6-.5-1.1-.7-2.2-.9-3.3-.3-1.2-.4-2.4-.6-3.6-.3-1.2-.7-2.3-1.1-3.4-.5-1.2-1.1-2.2-1.6-3.4-.4-.8-.6-1.7-1.1-2.5-.4-.8-1-1.5-1.8-1.9-.4-.2-.8.1-.9.5 0 .267-.033.5-.1.7 0 .4.3.6.6.6.4 0 .6-.2.6-.6.067-.2.1-.433.1-.7-.333.2-.633.4-.9.6.8.3 1.2 1 1.6 1.7.3.9.6 1.8 1 2.6 1.1 2.1 2.2 4.3 2.5 6.6.2 1.1.4 2.3.6 3.4.2 1.1.5 2.2 1 3.3l.6 1.5c.2.6.3 1.2.4 1.7.2 1.2.4 2.3.9 3.4.4 1.2 1 2.3 1.5 3.4a21.22 21.22 0 011.1 3.5c.3 1.2.5 2.3.6 3.5.2 1.2.2 2.3.1 3.5 0 .6 0 1.2.2 1.7.1.6.4 1.2.6 1.7.4 1.2.6 2.3.8 3.6.2 1.3.3 2.5.6 3.8l1 3.6 1.2 3.6c.4 1.1.8 2.3 1.1 3.5.1.8.2 1.8-.2 2.5-.2.4-.5.7-.8 1.1-.333.4-.7.833-1.1 1.3-.4.4-.8.8-1.3 1.1-.5.3-1 .5-1.5.7-1.1.4-2.1.9-3.2 1.3s-2.2.7-3.3 1.2c-1.1.5-2.2 1-3.3 1.4-1.2.3-2.3.5-3.5.8-1.2.3-2.3.7-3.6.8-2.5.4-4.8 1.2-7.3 1.5-1.266.2-2.533.3-3.8.3-1.2 0-2.4 0-3.6.2-1.2.1-2.3.4-3.4.5-1.3.1-2.4.3-3.6.6-.6.1-1.2.3-1.8.4-.6 0-1.166.033-1.7.1-1.2 0-2.3.3-3.5.6-1.1.2-2.2.1-3.4.1h-3.5c-1.2-.1-2.3-.2-3.4-.5-1-.267-2-.567-3-.9-1.9-.6-3.7-1.6-4-3.7-.1-1 0-2 0-3 .1-.6-1-.8-1.1-.2-.2 1.2 0 2.5.4 3.6.3 1.1.8 2.3 2 2.8.3.1.6-.1.7-.4.4-1.6.2-3.3.3-4.9 0-.8-1.2-.8-1.2 0-.1 1.3.1 2.6 0 3.9l-.2.8c-.066.2-.1.333-.1.4l-.1.1c0 .1-.1.2-.1.1 0 .067-.033.1-.1.1 0 .1.1 0 0 .1-.2.1-.1 0-.1 0-.066.067-.133.1-.2.1h-.2l-.6-.2c.134.133.3.267.5.4-.3-1-.1-2.1 0-3 .1-1.3.1-2.6.1-3.8.1-2.6.1-5.2 0-7.8a48.4 48.4 0 010-4.4c0-.8-1.2-.8-1.2 0v1.2c-.1.8 1.1.8 1.1 0zM56.9 66.8c.4.1.8.3 1.2.4.4.2.9.2 1.5.2.9 0 1.9 0 2.9.3.4.066.833.133 1.3.2.5.1.9.1 1.4.2.3 0 .7.2 1 .3.466.133.933.2 1.4.2h3c1.067.067 2.133.1 3.2.1 1.1.1 2.1.2 3.2.2 1 0 1.9-.4 2.9-.4.4-.1.9 0 1.4 0 .5 0 1.1-.1 1.6-.2.4-.133.8-.233 1.2-.3.5-.2 1-.2 1.5-.3.4 0 .9-.1 1.3-.2.5-.1.9-.1 1.4-.2a7.95 7.95 0 002.4-.6c.9-.3 1.9-.5 2.8-.9a9.041 9.041 0 002.1-1.1c1.8-1 3.4-2.1 5-3.3.8-.7 1.6-1.3 2.3-2 .7-.6 1.4-1.1 2.2-1.6.8-.467 1.567-1.033 2.3-1.7.7-.7 1.3-1.5 1.8-2.3.7-.8 1.3-1.6 1.9-2.4.6-.7 1.3-1.4 1.9-2.2.5-.7 1.2-1.3 1.7-2s.8-1.4 1.3-2.1c.4-.8 1-1.4 1.6-2.1.5-.6.9-1.4 1.3-2.2.4-.8.8-1.7 1.4-2.4.6-.7 1.4-1.2 1.9-2 .5-.7.9-1.5 1.2-2.3.2-.5.3-.9.4-1.4.1-.5.3-.8.6-1.2.5-.8.7-1.8.8-2.8.133-.933.233-1.9.3-2.9 0-1.1.1-2 .3-3 .1-1 .4-2 .6-3 .067-.467.133-.9.2-1.3.1-.4.1-.7.2-1 .1-.6.9-.7 1.5-.5.7.3 1.1 1 1.5 1.7.2.4.4.767.6 1.1.3.5.6.8.9 1.2.5.8.8 1.6 1 2.4.4 1 .5 2 .5 3s-.1 1.9-.1 2.9c0 .8 1.2.8 1.2 0 .1-2.3.6-4.8-.3-7-.1-.3-.4-.5-.7-.5-.3.1-.5.5-.4.8.8 2.1.3 4.5.2 6.7h1.2c.1-2 .3-4.1-.4-6-.3-.9-.6-1.7-1-2.5-.2-.4-.5-.8-.7-1.1a5.28 5.28 0 01-.8-1.3c-.4-.8-.8-1.6-1.6-2.1-.7-.5-1.6-.7-2.4-.5-.7.2-1.2.7-1.4 1.5-.1.3-.1.6-.1.9-.1.5-.2.9-.3 1.4-.4 2.1-.8 4.1-.9 6.2 0 .9-.1 1.9-.2 2.9a10.41 10.41 0 00-.3 1.4c-.2.5-.5.8-.7 1.2-.2.4-.4.9-.5 1.3a5.55 5.55 0 01-.4 1.4c-.4.8-.8 1.6-1.4 2.3-.7.7-1.4 1.2-1.9 2s-.9 1.7-1.3 2.6c-.8 1.5-2.2 2.7-3.1 4.2-.4.7-.7 1.5-1.3 2-.3.4-.6.7-.9 1l-.9 1.2c-.7.8-1.3 1.5-1.9 2.3-.7.8-1.3 1.6-1.9 2.4-.6.8-1.267 1.5-2 2.1-.8.5-1.6 1-2.4 1.6-.8.5-1.5 1.2-2.2 1.8a23.11 23.11 0 01-2.4 1.9 57.57 57.57 0 01-2.6 1.7c-.7.5-1.4 1-2.2 1.3-.9.4-1.7.6-2.6.9-.9.3-1.6.6-2.5.8-.4.1-.8.1-1.2.1-.6 0-1 .2-1.5.3-.5.1-.9.1-1.4.2-.467.066-.9.166-1.3.3-.5.1-.9.2-1.4.3-.5.1-1 0-1.5 0a3.729 3.729 0 00-1.5.1l-1.5.3c-1 .1-2.1-.1-3.2-.1a52.894 52.894 0 00-3.3-.1c-1-.067-2-.1-3-.1-.4 0-.8 0-1.2-.1-.4-.1-.8-.3-1.1-.4-.5-.1-1-.1-1.4-.1-.5-.1-1-.2-1.4-.3-1-.2-2-.3-3-.3-.4 0-.9 0-1.4-.1-.4-.1-.8-.3-1.2-.4-.7-.2-1.1 1-.3 1.1zm78.9-35.3c0 .267.134.2.4-.2.134.133.267.3.4.5-.4-1-.2-1.9.4-2.7.6-.8 1.4-1.5 2.1-2.2.4-.4.834-.766 1.3-1.1.5-.4 1-.7 1.6-1 1-.7 2.1-1.4 3-2.3.4-.4.8-.9 1.1-1.4.2-.4.3-.8.4-1.2.1-.2.1-.2.3 0 .2.2.4.6.5 1 .4.9.4 1.8.1 2.7-.4 1-1.1 1.9-1.8 2.7-.7.8-1.6 1.6-2.3 2.4-.8.9-1.6 1.8-2.1 2.9a7.73 7.73 0 00-1 3.4c-.1.9-.1 1.9.3 2.8.5.9 1.3 1.6 2.3 1.7 1 .2 2 .1 3-.1 2-.6 3.5-2.1 4.6-3.9.5-.8 1-1.8 1.4-2.7.6-1.1 1.2-2.2 1.4-3.5.1-.9.1-1.7-.2-2.6-.1-.8-.4-1.6-1-2.1-.3-.3-.6-.4-1-.4-.3 0-.6.2-.6.6 0 .3.3.6.6.6h.2c-.1 0 0 .1.1.1 0 .067.034.134.1.2.2.3.3.7.4 1 .3.9.4 1.6.2 2.5-.2 1.2-.8 2.3-1.4 3.4-.4.9-.9 1.8-1.5 2.7-1 1.6-2.7 3-4.7 3.1-.9.1-1.8.1-2.5-.7-.6-.7-.6-1.6-.6-2.5.2-2.5 1.6-4.5 3.3-6.2 1.5-1.6 3.3-3.1 4-5.3.334-1.066.3-2.133-.1-3.2-.3-.7-.7-1.7-1.6-1.9-.5-.1-1 .1-1.2.5-.3.3-.4.7-.5 1.1-.3 1.1-1.4 1.9-2.2 2.5-.6.3-1.1.7-1.7 1.1-.5.3-1.1.6-1.6 1-.9.7-1.7 1.5-2.5 2.3-.7.7-1.4 1.5-1.8 2.5-.1.4-.2 1-.2 1.5.1.6.2 1.4.9 1.4.6 0 .9-.5.9-1-.1-.7-1.3-.8-1.2 0zM70.5 90.2c1.6.3 3.1.8 4.7 1 1.6.2 3.2 0 4.7-.3 1.5-.2 3-.6 4.6-.9 1.6-.3 3.1-.7 4.7-1.1 1.5-.4 3.1-.7 4.5-1.2a18.93 18.93 0 003.9-1.8c1.3-.8 2.5-1.7 3.7-2.4 1.3-.7 2.6-1.4 4-1.9.733-.267 1.433-.5 2.1-.7.7-.2 1.4-.4 2-.8 1.1-.5 2.1-1.4 3.1-2.1.6-.4 1.2-.6 1.9-.8.7-.3 1.3-.7 1.9-1.2.5-.5 1.1-1 1.7-1.4l2-1.4 3.8-2.6c1.2-.9 2.2-1.8 3.2-2.9 1.1-1.1 2.1-2.1 2.9-3.3.7-1.2 1.3-2.4 2.3-3.4.5-.5 1.2-.7 1.8-1.1.6-.3 1-.8 1.5-1.3.9-1.2 1.6-2.5 2.3-3.8 1.4-2.5 3-5.1 3.5-8 .133-.733.2-1.433.2-2.1 0-.8-1.2-.8-1.2 0 0 1.3-.3 2.6-.7 3.8-.5 1.5-1.2 2.8-1.9 4.1-.7 1.3-1.4 2.6-2.2 3.9-.4.5-.7 1.1-1.2 1.6-.4.5-1 .8-1.6 1.1-1.2.7-2.1 1.8-2.8 2.9-.8 1.2-1.4 2.4-2.4 3.4s-1.9 2.1-3 3c-1.1.9-2.3 1.7-3.4 2.5-1.3 1-2.6 1.8-3.9 2.8-.6.4-1.2.9-1.7 1.4-.6.4-1.1.7-1.8 1-1.3.4-2.3 1.1-3.3 1.9-.5.4-1 .7-1.6 1-.6.3-1.3.5-2 .7-1.333.467-2.667 1-4 1.6-1.3.6-2.6 1.4-3.8 2.2-2.3 1.6-4.8 2.8-7.6 3.5-1.5.4-3.1.8-4.7 1.2-1.5.3-3 .6-4.6 1-1.4.3-2.9.6-4.4.8-1.6.1-3.1-.1-4.6-.5-.733-.2-1.5-.367-2.3-.5-.7-.2-1 .9-.3 1.1zm60-89.6c-.2.067-.367.1-.5.1-.2 0-.4.3-.4.6 0 .6.4.9.7 1.4.4.6.7 1.4 1 2 .3.7.7 1.4 1 2.1l1 2.2c.3.7.7 1.3 1 2.1.2.6.3 1.3.6 2 .2.6.6 1.1.9 1.7.3.6.4 1.4.5 2.1.1.7 1.3.4 1.1-.4-.1-.7-.2-1.4-.5-2.1-.3-.5-.7-1-.9-1.6-.2-.7-.3-1.3-.5-1.9-.3-.8-.6-1.4-1-2.1-.6-1.4-1.234-2.767-1.9-4.1-.4-.7-.7-1.4-1-2.1a5.307 5.307 0 00-.5-.8c-.2-.2-.3-.3-.3-.5a3.34 3.34 0 01-.4.5h.4c.3-.1.5-.5.4-.7-.1-.4-.4-.5-.7-.5z" fill="#fff"/><path d="M74.4 202.1c0-.733.033-1.433.1-2.1 0-.8-1.2-.8-1.2 0-.2 4.4-.4 8.8-.4 13.2 0 2 0 4-.7 5.9-.3 1-.7 1.9-.9 2.9-.2 1-.5 2.1-.7 3.1-.133.467-.3.933-.5 1.4-.1.4-.5.7-.7 1.2-.2.5-.2.9-.2 1.4-.1.6-.3 1.1-.4 1.6-.4 1.1-.7 2.1-1 3.1-.3 1.1-.6 2.1-.8 3.2-.3 1-.6 1.8-1 2.8-.4.9-.5 1.9-.6 2.9-.1 1-.4 2-.6 3-.2.9-.2 1.8-.3 2.7-.1 2.5-.8 4.9-1.3 7.3-.6 2.4-.9 4.8-.9 7.2-.1.7 1.1.7 1.1 0 .1-2.2.3-4.3.8-6.4.5-2.2 1.1-4.3 1.4-6.4.1-1.1.1-2.2.2-3.2.1-.9.4-1.8.6-2.7.2-1 .2-2 .4-3s.7-1.9 1-2.8c.4-1 .5-2 .8-3 .2-1.1.6-2.1.9-3.1.3-1 .8-2.1.9-3.2 0-.4 0-.8.2-1.2.3-.5.6-.9.8-1.4.6-1.9.9-4 1.5-6 .4-.9.7-1.8.9-2.8.133-1 .233-1.967.3-2.9v-3.5c0-1.2.033-2.433.1-3.7.066-2.533.166-5.067.3-7.6h-1.2c-.067.667-.1 1.367-.1 2.1 0 .8 1.2.7 1.2 0z" fill="#fff"/><path d="M72.5 220.5c0-.6.3-1 .5-1.5s.3-1 .4-1.6c.2-1.3 1-2.3 1.1-3.6 0-.8-1.2-.8-1.2 0-.1 1.2-.9 2.3-1.1 3.5-.1.5-.2 1-.4 1.4-.3.6-.5 1.1-.5 1.8-.1.7 1.1.7 1.2 0z" fill="#fff"/><path d="M74.9 201.2v-.3c0-.8-1.2-.7-1.2 0-.1.9.2 1.7.5 2.5s.6 1.6.8 2.5c.666 2.2 1.333 4.367 2 6.5.6 2.3 1.5 4.4 2.2 6.6.7 2.1 1.2 4.3 1.5 6.5.2 2.2.3 4.5 0 6.6-.2 1.9-.9 3.7-2.1 5.2-.6.8-1.3 1.3-2.2 1.9-.8.5-1.6 1.1-2.3 1.9-.7.8-1.3 1.7-1.9 2.6-.6.867-1.234 1.733-1.9 2.6-.7 1-1.3 1.9-1.7 3.1-.5 1.1-1 2.2-1.6 3.2l-1.5 2.7c-.3.7-.7 1.6-1.4 2 .333.133.633.3.9.5-.1-.6.2-1 .5-1.4.4-.5.8-1.2 1.1-1.8.6-1.2 1.1-2.4 1.9-3.6a14.25 14.25 0 012.4-2.9c.9-1 1.8-1.9 2.5-3.1.6-1 1.4-2.1 1.5-3.3.1-.4-.3-.6-.6-.6s-.5.2-.6.6c0 .4-.3.9-.5 1.3-.267.467-.567.933-.9 1.4-.6 1.2-1.5 2.1-2.4 3a16.908 16.908 0 00-2.4 3c-.8 1.2-1.3 2.4-1.9 3.6-.334.667-.733 1.3-1.2 1.9-.4.6-.6 1.2-.6 1.9.1.4.5.7.9.5.7-.4 1.2-1.1 1.6-1.8.3-.7.6-1.5 1.1-2.2l1.6-3c.5-.9.7-1.9 1.2-2.8.6-.9 1.3-1.8 2-2.7l1.8-2.7c.6-.8 1.3-1.7 2.1-2.3.8-.6 1.8-1.1 2.5-1.8 1.4-1.3 2.4-3.1 2.9-5 .6-2 .6-4.2.5-6.4-.1-2.2-.5-4.5-1-6.7-.6-2.3-1.5-4.4-2.2-6.6-.8-2.5-1.5-5.1-2.2-7.6-.4-1-.7-2-1.1-3.1-.3-.8-.7-1.8-.6-2.7h-1.2v.3c0 .8 1.2.8 1.2 0z" fill="#fff"/><path d="M101.5 188.6c0 1.8.4 3.6.8 5.3.4 1.7.8 3.5 1.3 5.2.5 1.8.9 3.7 1.3 5.6.1 1 .4 1.9.5 2.8.1 1 .1 1.9.3 2.8.1 1 .4 1.9.5 2.9l.2 2.8c0 1.9-.1 3.8-.1 5.7-.1 1.9.1 3.8.3 5.7.2 1.9.3 3.8.2 5.8 0 .934-.034 1.9-.1 2.9 0 .9 0 1.8-.2 2.7-.2.8-.5 1.7-.7 2.5-.2.9-.2 1.8-.5 2.7-.2.9-.5 1.8-.7 2.7l-.9 2.4c-.2.9-.3 1.8-.6 2.6a14.2 14.2 0 01-1.1 2c-.9 1.4-2.2 2.5-3.5 3.5-1.4 1.1-2.7 2.4-4.2 3.4-1.4 1-2.9 1.9-4.5 2.5-1.6.7-3.4 1-5 1.5a26.976 26.976 0 00-4.7 2c-1.6.9-3.1 2-4.7 2.7-.7.4-1.6.7-2.3 1.1-.8.5-1.5 1-2.3 1.3-.8.4-1.7.5-2.5.8-.8.3-1.6.8-2.3 1.3-.7.5-1.3 1-2 1.5a3.5 3.5 0 00.9.3c-.1-.1-.1-.2-.1-.4.2-.7-.9-1-1.1-.3-.134.334-.134.7 0 1.1.2.3.5.5.9.3 1.5-.9 2.7-2.2 4.4-2.7.8-.3 1.7-.5 2.6-.9.8-.4 1.5-.9 2.2-1.3.8-.5 1.6-.8 2.4-1.1.8-.4 1.6-1 2.3-1.4a45.67 45.67 0 014.7-2.5c1.7-.6 3.4-1.1 5.1-1.5 1.7-.5 3.3-1.2 4.8-2.1 1.5-.9 2.9-2 4.2-3.1 1.4-1.2 2.9-2.3 4.2-3.5 1.1-1.1 2-2.4 2.6-3.9.4-.8.5-1.7.7-2.6.2-.9.6-1.6.9-2.5.2-.9.5-1.8.7-2.7.3-.9.3-1.8.5-2.7.2-.8.5-1.7.7-2.5.2-.9.3-1.8.3-2.7 0-1.9.2-3.9.1-5.9 0-1.9-.3-3.8-.4-5.8-.3-3.8.2-7.7-.2-11.5a41.63 41.63 0 00-.5-2.8c-.2-1-.2-1.9-.3-2.9-.1-1-.4-1.9-.5-2.9-.2-.933-.367-1.9-.5-2.9-.4-1.8-1.1-3.6-1.6-5.5-.4-1.7-.8-3.5-1.1-5.3-.134-.8-.2-1.633-.2-2.5 0-.7-1.2-.7-1.2 0zm-67.3 12.1c-.2.5-.1.9.3 1.2.2.267.333.567.4.9.3 1.4.5 2.8.8 4.1.4 1.4.7 2.8 1 4.2.2 1.467.433 2.9.7 4.3.133.667.2 1.367.2 2.1.1.7 0 1.4.1 2.1 0 .7.1 1.3.2 2 .1.6.1 1.3.1 2-.1.6-.2 1.3-.1 2 0 .7.1 1.3.2 2 .066.667.1 1.367.1 2.1v2.1c0 1.4.5 2.7.6 4.1.1 1.3-.2 2.6-.2 3.9 0 1.3.4 2.7.7 4 .333 1.467.666 2.9 1 4.3.2 1.4.7 2.7 1 4.1.4 1.4.4 2.8.7 4.3.2.7.2 1.4.2 2.1 0 .733.066 1.433.2 2.1.2.733.366 1.467.5 2.2.1.7.3 1.5.4 2.2 0 .7-.1 1.4 0 2.2.1.6.2 1.3.3 2 .1 1.4-.1 2.8-.1 4.3-.1 1.4-.2 2.8-.2 4.2 0 1.4.3 2.8.6 4.2.133.667.2 1.367.2 2.1.333-.133.666-.3 1-.5a3.26 3.26 0 01-.4-.5c-.3-.7-1.4-.1-1 .6.133.267.333.533.6.8.3.4 1 .1 1-.4 0-1.5-.4-2.8-.6-4.2-.3-1.4-.2-2.8-.1-4.2.1-1.4.1-2.8.2-4.2v-2.2c-.1-.7-.3-1.4-.3-2-.1-.8 0-1.5 0-2.2-.1-.7-.2-1.4-.4-2.2-.2-1.4-.7-2.8-.7-4.2-.1-.7 0-1.4-.2-2.2l-.3-2.1c-.2-1.4-.4-2.8-.9-4.1-.4-1.4-.7-2.8-1-4.2a81.532 81.532 0 01-.9-4.3c-.1-.7-.3-1.3-.3-2 0-.6.1-1.2.1-1.9.1-.6.2-1.2.1-1.9 0-.6-.1-1.3-.3-2-.1-.7-.3-1.3-.3-2-.1-.7 0-1.4 0-2.1.1-1.4-.3-2.7-.4-4.1 0-1.3.3-2.7.1-4 0-.7-.2-1.3-.2-2-.1-.7-.1-1.3-.1-2 0-1.5-.3-2.9-.5-4.3-.3-1.4-.5-2.8-.8-4.3-.3-1.4-.7-2.7-1-4.1-.134-.733-.267-1.433-.4-2.1 0-.5-.1-.9-.3-1.3a3.26 3.26 0 00-.4-.5l-.2-.2c.1.1 0 .2.1 0 .2-.7-.9-1.1-1.1-.3zm3.7-60.3c.3 1.1 1.6 1.6 2.6 1.7 1.3.3 2.6.4 4 .4 1.3 0 2.6 0 4 .1 1.1.1 2.2.3 3.3.6 1.1.2 2.2.7 3.3.9 1.1.1 2.3.1 3.4.1 1.1.1 2.3.1 3.5.1a29.6 29.6 0 003.4-.4c1-.3 2.1-.4 3.2-.6 1-.1 2.1-.3 3-.7.267-.067.467-.167.6-.3.2-.1.3-.3.5-.3.2-.1.5 0 .8-.1.2 0 .433-.033.7-.1 2-.5 3.9-1.4 5.7-2.4 1.1-.5 2.2-1.1 3.3-1.5.6-.3 1.2-.4 1.7-.7.7-.2 1.3-.5 1.9-.7 1.1-.4 3.4 0 3.7-1.6.1-.7-1-1.1-1.2-.3v.2c-.067 0-.167.033-.3.1-.2.1-.5.1-.8.2-.6.1-1.2.1-1.8.3l-1.5.6c-.5.2-1 .3-1.5.5-1 .4-2 .9-3 1.3-1.7.9-3.5 1.9-5.3 2.5-.467.133-.9.267-1.3.4-.5.1-1 0-1.5.1-.5.2-.7.5-1.1.7a5.54 5.54 0 01-1.5.4c-1 .3-1.9.4-2.9.5-1.1.2-2.1.5-3.2.6-2.2.2-4.4 0-6.6 0-.5 0-1 0-1.6-.1-.5 0-1.1-.2-1.6-.4-1.1-.3-2.1-.6-3.2-.8-1.6-.3-3.3-.4-4.9-.4-1.4 0-2.8 0-4.1-.2-.6 0-1.2-.1-1.8-.4-.067 0-.167-.033-.3-.1-.1-.1-.2-.1-.2-.1l-.1-.1-.1-.1v-.2c-.2-.7-1.3-.4-1.2.3z" fill="#fff"/><path d="M94.3 193c1.5-.1 2.4-1 3.5-1.9.2-.133.434-.3.7-.5.3-.1.7-.3 1.1-.4.267-.133.5-.3.7-.5 0-.1.2-.2.1-.2v.1c-.1-.1.2 0 .2 0 .7.2 1-.9.3-1.1-.3-.1-.7-.2-1 0-.3.1-.4.3-.6.5-.2.1-.5.2-.8.3a4.019 4.019 0 00-1 .6c-1 .7-1.9 1.8-3.2 1.9-.3 0-.6.3-.6.6s.3.6.6.6zm-44-151.3c-.8 0-1.6-.7-2.2-1.2-.7-.7-1.4-1.4-2.2-1.8-2-.8-4.3-.9-6.2 0-1 .4-1.7 1.1-2.4 2-.733 1.067-1.4 2.2-2 3.4-1.1 2.2-1.9 4.5-2.7 6.9-.4 1.2-.9 2.5-1.2 3.8-.2 1.3-.4 2.6-.7 3.9-.2 1.3-.5 2.6-.8 3.9-.4 1.1-.8 2.3-1.6 3.3-.5.6-1.4 1.4-1.2 2.4.2 1 1.4 1.4 2.2 1.5 1.7.1 3.3-.3 4.9-.2 1.5 0 3 .1 4.5 0 1.1-.1 2.9-.3 3.4-1.6.1-.3.1-.5 0-.8 0-.4-.4-.5-.7-.5-.3.1-.5.5-.4.8v.1l-.1.1c0 .1.1 0 0 .1-.067 0-.1.033-.1.1h-.1c-.067.067-.134.1-.2.1-.1.1-.1.1-.2.1-.133.067-.3.1-.5.1l-.8.2c-1.5.1-2.9.1-4.3 0-.5 0-1.1-.1-1.6 0-.8 0-1.7.1-2.6.2-.6 0-1.8.1-2.2-.5-.1-.2.1-.5.3-.7.2-.3.5-.6.8-1 .7-.9 1.1-2.1 1.5-3.2.4-1.2.6-2.4.9-3.6.4-2.4.7-4.9 1.5-7.2.8-2.2 1.5-4.4 2.5-6.6.467-1.067 1-2.1 1.6-3.1.5-.9 1.2-1.9 2-2.5 1.5-1.1 3.6-1.2 5.3-.6 1.8.5 2.7 2.3 4.4 3 .4.2.8.3 1.2.3.8-.1.8-1.2 0-1.2z" fill="#fff"/><path d="M46 38.3c-.2 0-.6.1-.6-.2-.133.267-.267.5-.4.7 1.5-.5 3.1-.5 4.6 0 1.6.5 2.8 1.4 4 2.4.6.5 1.1.9 1.5 1.5.6.6 1 1.2 1.3 2 .5.7.9 1.5 1.4 2.3.4.6.9 1.2 1.5 1.7.5.5.8 1 1.1 1.6.333.8.7 1.6 1.1 2.4.9 1.5 1.9 2.9 3.1 4.2.4.4.7.9 1.2 1.2.3.3.6.7 1 .9.1.1-.2-.3-.1-.2v.1c-.1.2-.1.3-.2.5-.3.4-.6.8-1 1.2-.8.867-1.667 1.7-2.6 2.5h-.1l-.2.2c-.4.2-.8.367-1.2.5-.9.1-1.9 0-2.8 0-.8 0-.8 1.2 0 1.2 1.6 0 3.3.2 4.8-.8.8-.6 1.6-1.4 2.3-2.1.8-.8 1.7-1.7 2.1-2.7.1-.4.1-.9-.2-1.2-.3-.4-.7-.7-1.1-1-.5-.4-.9-.9-1.3-1.4a48.84 48.84 0 01-1.7-2.2c-.533-.8-1.033-1.6-1.5-2.4-.4-.8-.6-1.7-1.1-2.5-.4-.5-.9-.9-1.4-1.4-.6-.7-1.1-1.5-1.5-2.3-.5-.8-.8-1.6-1.4-2.4a18.28 18.28 0 00-1.5-1.7c-1.4-1.3-2.9-2.5-4.7-3.1-1.9-.7-3.9-.8-5.8-.1-.3.1-.5.4-.4.7.2 1.1 1.3 1.2 2.2 1 .7-.2.4-1.3-.4-1.1zm7.4 21.6c-.067.067-.067.067 0 0v.1h-.1c.067-.066.067-.066 0 0 0 0-.1.1 0 .1 0-.1-.1.1-.1.1l-.1.1c.1-.1 0 0-.1 0l-.2.2c.1-.1-.1 0-.1 0h-.2c-.133.067-.233.1-.3.1-.1 0-.2.1-.2 0 .1 0-.1.1-.1.1h-.3c-.067 0-.133-.033-.2-.1h-.1c.1 0-.1 0 0 0a3.913 3.913 0 01-.9-.5c-.4-.3-.9-.7-1.1-1.2-.1-.3-.4-.5-.7-.4-.3.1-.5.5-.4.8.3.8.9 1.4 1.6 1.8.6.4 1.2.7 1.8.7 1.2.1 2.9-.5 2.9-1.9.1-.3-.2-.6-.6-.6-.3 0-.5.3-.5.6zm-4.6-8.2c-1-.4-2-1-3.1-1.2.133.133.267.3.4.5 0-.133-.033-.233-.1-.3 0-.3-.4-.5-.7-.4-.3.1-.5.4-.4.7v.3c.1.1.3.4.5.4s.433.067.7.2c.133 0 .267.033.4.1.067 0 .133.033.2.1.5.2 1 .4 1.5.7.3.1.6.1.8-.2.1-.3.1-.7-.2-.9z" fill="#fff"/><path d="M48.7 51.9c-.5 0-1 .1-1.5.2-.6.2-1.3.5-1.5 1.1-.1.3.1.6.4.7.3.1.7-.1.8-.4 0-.1 0-.1-.1.1v-.1c.1-.1 0 .1 0 .1v-.1h.1c.1-.1-.2.1 0 0l.1-.1c.066 0 .133-.033.2-.1a.887.887 0 00.4-.1h.4c.1-.1-.2 0 0 0 .066 0 .133-.033.2-.1h.5c.4 0 .7-.3.6-.6 0-.3-.2-.6-.6-.6zm2.5-2.1c.1 1.2.5 2.3.8 3.5.2.5.3 1.1.5 1.6.3.5.5 1 .6 1.6.1.3.4.5.7.4.4-.1.5-.4.4-.7 0-.5-.3-1-.5-1.5s-.3-1.1-.5-1.6c-.3-1.1-.7-2.2-.8-3.3-.1-.3-.3-.6-.6-.6s-.7.3-.6.6zm4.4 1.3c-.067 0-.167.033-.3.1h-.2v.1c-.067 0-.133.033-.2.1 0 .067-.033.1-.1.1 0 .067-.033.133-.1.2v.2c0 .067.033.167.1.3.067 0 .1.033.1.1.067.067.133.1.2.1h.1c.133.067.233.067.3 0h.1l.2-.2c.067-.133.1-.233.1-.3v-.2c0-.067-.033-.133-.1-.2l-.1-.1c0-.067-.067-.1-.2-.1 0-.067-.033-.1-.1-.1s-.133.033-.2.1c-.133 0-.233.033-.3.1-.067.067-.1.133-.1.2-.067.067-.1.133-.1.2v.3a5.34 5.34 0 001.1-.3c0-.067-.033-.1-.1-.1l-.2-.2c-.1 0-.2-.1-.3-.1h-.1c-.067 0-.133.033-.2.1-.067 0-.133.033-.2.1a1.165 1.165 0 00-.2.3v.5c.1.2.1.3.2.4h.1l.2.2h.5c.067-.067.133-.1.2-.1.067-.067.1-.167.1-.3.067-.067.1-.133.1-.2.067-.133.067-.233 0-.3v-.3c0-.067-.033-.133-.1-.2s-.133-.1-.2-.1c-.067-.067-.133-.1-.2-.1h-.2c-.2.067-.333.167-.4.3-.1.1-.1.3 0 .4V52v.1l.1-.1h-.1c.267 0 .533-.033.8-.1h-.1c.067 0 .1.033.1.1l.1.1-.1-.1c.067.067.1.133.1.2v-.1c0 .067-.033.133-.1.2l.1-.1-.4.4h-.2.1-.2.1c-.067 0-.133-.033-.2-.1l.1.1-.1-.1c-.067 0-.1-.033-.1-.1.067.067.1.133.1.2.067 0 .133.033.2.1h.4c.067 0 .167-.033.3-.1 0-.067.033-.133.1-.2v-.6a5.34 5.34 0 01-1.1.3v-.6.1c.333.133.7.267 1.1.4 0 .067-.033.1-.1.1v.1l-.1.1h-.1c.067 0 .133-.033.2-.1.067 0 .133-.033.2-.1s.1-.133.1-.2c.067-.067.1-.133.1-.2 0-.133-.067-.267-.2-.4 0-.067-.033-.1-.1-.1-.067-.067-.167-.1-.3-.1zm-3.8 245c-.5.1-.9.1-1.1.6-.067.333-.133.7-.2 1.1 0 .8.2 1.5.5 2.2.2-.333.367-.633.5-.9-1.1 0-2.1-.4-3.2-.4-.4 0-.6.3-.6.6-.1 1 .8 2.1 1.6 2.7.7.6 2 1.2 2.9.3.1-.1.2-.4.1-.6-.5-1.2-1.6-2.5-3-2.5-.5 0-.7.6-.4 1 1.1 1.3 2.6 2.2 4.1 3.1.7.4 1.5.8 2.2 1.2.7.5 1.4 1.2 2.4.9l-.8-.4c.7 2.4 3.5 2 5.4 2.5 1 .2 1.9.6 3 .8 1 .2 2.2.3 3-.5.6-.6.8-1.6.3-2.4-.4-.8-1.2-1.4-1.9-1.9-1.5-1-3.3-1.7-4.8-2.7-1.4-.8-2.9-1.7-3.9-3-.9-1.2-1.6-2.5-3.1-2.8-.5-.1-1 .4-.6.9 1.5 2.3 3.6 4.3 5.7 6.1.7.6 1.3 1.2 1.9 1.9.6.7 1.3 1.3 2 1.9.6.5 1.5 1.1 2.3.7.3-.1.3-.4.3-.7-.2-1.4-1.3-2.6-2.5-3.3-.6-.4-1.2-.6-2-.7-.5-.1-1.6 0-1.9.5-.7 1.2.3 2.5 1.3 3.1.5.3 1.1.5 1.7.6.2 0 .433-.067.7-.2.5-.1.6-.5.5-1-.1-1.6-1.6-3.1-3-3.9-.4-.2-1 .2-.9.7.6 1.6 2.2 3.1 3.9 3.4.5 0 .9-.3.8-.8-.6-2.8-3.3-4.5-5.2-6.4a52.149 52.149 0 00-2-1.9l.1.1s-.2-.3-.2-.4a1.569 1.569 0 01-.3-.4c-.267-.333-.5-.7-.7-1.1a7.003 7.003 0 01-.5-1c-.067-.133-.1-.3-.1-.5v-.1c-.067-.6-.1-1.2-.1-1.8.1-.3.1-.6.1-.8 0-.1 0-.2.1-.3 0-.2-.1 0-.1 0a19.5 19.5 0 00-.9-.2c.467 1 .9 1.967 1.3 2.9.2.3.4.5.7.4.3 0 .5-.2.5-.5-.1-1.8.2-3.7-1-5.1-.4-.4-1.1.1-1 .6.4 1.8.7 3.7 1.6 5.4.3.5 1.1.3 1.1-.3V291c-.1-.7-1.2-.7-1.2 0-.1 1.4.5 2.6 1.3 3.6.4.6 1.3.1 1-.6-.8-1.6-1.4-3.3-2.4-4.8l-1 .6c.7 1.1.8 2.6 1.9 3.5.2.2.7.2.9-.2.3-.7.3-1.4.1-2.2-.3-.7-.6-1.3-.7-2.1 0-.7-1.1-.7-1.1 0-.1 3.5 1.7 6.8 3.8 9.5.933 1.267 2 2.4 3.2 3.4.9.7 1.8 1.4 2.6 2.3.3.4.7 1 .8 1.6.1.5-.1 1-.6 1.4l1 .2a3.875 3.875 0 01-.2-.5c-.2-.7-1.4-.4-1.1.4l.2.4c.1.5.6.6 1 .3 2.3-2.1-.3-4.8-2-6.3-1-.9-2.1-1.7-3-2.7-1.2-1.3-2.3-2.8-3.1-4.4-.9-1.7-1.5-3.6-1.5-5.6h-1.1c0 .7.2 1.3.5 2 .2.5.4 1.2.2 1.8.267-.067.567-.133.9-.2-.9-.8-1-2.2-1.7-3.2-.5-.6-1.5 0-1 .6 1 1.5 1.6 3.2 2.4 4.8l1-.6c-.7-.9-1.2-1.8-1.1-3h-1.2v1.8a5.34 5.34 0 001.1-.3c-.8-1.5-1.1-3.4-1.5-5.1l-1 .6c1 1 .7 2.8.7 4.2l1.2-.2a68.842 68.842 0 00-1.5-3.2c-.1-.3-.6-.3-.9-.1-.3.3-.4.9-.4 1.3-.067.6-.067 1.2 0 1.8 0 .5 0 1 .1 1.5.2.8.7 1.5 1.2 2.2l.6 1c.1.2.2.3.4.4-.2-.2 0 0 0 .1.4.333.767.667 1.1 1 .867.867 1.733 1.7 2.6 2.5 1.2 1.1 2.6 2.4 2.9 4 .267-.2.533-.433.8-.7-1.4-.2-2.7-1.2-3.1-2.5-.333.2-.633.4-.9.6 1.2.6 2.6 1.9 2.4 3.3.133-.133.233-.3.3-.5-.4.2-1.2-.1-1.6-.5-.4-.3-.9-.9-.7-1.3a1.165 1.165 0 00-.3.2c1.9-.7 4.2 1.1 4.6 3l.2-.6c.1 0-.1 0 0 0-.133-.067-.233-.1-.3-.1-.333-.2-.6-.4-.8-.6-.7-.6-1.2-1.2-1.8-1.8-1.4-1.6-3.1-2.9-4.6-4.4-1-1-2-2.1-2.8-3.3-.267.267-.5.533-.7.8 1.1.3 1.6 1.3 2.3 2.1.8 1.1 1.8 1.9 2.9 2.7.9.6 1.8 1.2 2.7 1.7.7.4 1.5.7 2.2 1.1.7.4 1.5.9 2.2 1.4.267.267.467.533.6.8.2.1.1.2.2.3v.3c0 .2-.2.5-.4.6-.3.2-.8.2-1.1.2-1-.1-2-.5-2.9-.8-1-.3-1.9-.3-2.9-.5-.9-.1-2-.3-2.3-1.3-.1-.3-.4-.5-.7-.4-.3.1-.6-.2-.8-.3-.333-.267-.7-.5-1.1-.7l-2-1.2c-1.3-.7-2.7-1.5-3.6-2.7-.2.333-.367.667-.5 1 .9 0 1.6.9 1.9 1.6 0-.133.033-.3.1-.5-.1.1-.1.1-.2.1H51c-.067 0-.133-.033-.2-.1-.3-.1-.6-.3-.9-.5a3.394 3.394 0 01-.8-.9l-.2-.4c-.1-.2-.1-.2 0-.4l-.6.6c1.1 0 2.1.4 3.2.4.5 0 .8-.5.6-.9-.5-.8-.5-1.7-.2-2.5a3.26 3.26 0 01-.4.5l.6-.2c.7-.1.4-1.3-.3-1.1zm82.6-269.7c0-.4 0-.8.1-1.2.1-.4.3-.7.5-1 .6-.9 1-1.9 1.5-2.8 1-1.7 3.2-2.3 4-4.1.2-.4 0-.9-.5-.9-1.6 0-2.6 1.5-3.2 2.7-.333.733-.6 1.5-.8 2.3-.3.8-.5 1.5-.5 2.4 0 .7.1 1.3-.1 2-.2.6-.5 1.2-.6 1.8 0 .3.1.7.4.8.267 0 .5.033.7.1.7.1 1-1 .3-1.2-.2 0-.4-.033-.6-.1.133.267.267.5.4.7.1-.6.4-1.3.6-1.9.2-.7.1-1.4.1-2.2 0-.9.3-1.8.5-2.6.3-.9.7-1.7 1.2-2.5.4-.6.9-1.1 1.6-1.1a13.42 13.42 0 00-.5-.9c-.4.9-1.3 1.5-2.1 2.1-.8.6-1.5 1.3-2 2.2-.3.5-.5 1-.8 1.5-.2.5-.5.9-.8 1.4-.4.8-.6 1.6-.5 2.5 0 .8 1.2.8 1.1 0zm-2.3 4.9c.8.5 1.4.9 2.3 1l-.5-.5c.2 1.6 1.2 2.8 1.8 4.1.7 1.4.7 3 .6 4.5-.1 1.7-.5 3.2-1.3 4.7-.3.7-.7 1.5-1.1 2.2-.3.6-.5 1.1-.9 1.6s-.9 1-1.3 1.6c-.3.4-.7 1-.6 1.5 0 .8 1.2.8 1.1 0 0 0 .1-.1 0-.1 0 .1.1-.1.1-.1l.1-.1.4-.8c.4-.4.8-.9 1.2-1.4.4-.5.6-1 .9-1.6.4-.7.8-1.5 1.2-2.2.7-1.6 1.2-3.1 1.4-4.8.1-1.6.1-3.3-.4-4.8-.6-1.6-1.9-2.9-2.1-4.6 0-.2-.3-.4-.6-.4-.6-.1-1.2-.5-1.7-.8-.7-.3-1.3.7-.6 1z" fill="#fff"/></g><defs><clipPath id="clip0_39_37068"><path fill="#fff" d="M0 0h154v309H0z"/></clipPath></defs></svg>