<svg width="100" height="100" viewBox="0 0 100 100" fill="none" xmlns="http://www.w3.org/2000/svg"><g clip-path="url(#clip0_9_34236)"><path d="M37.056 18.292a37.27 37.27 0 00-7.1 4.854C18.09 33.124 9.37 50.652 18.898 65.483c8 12.405 23.91 20.495 37.753 21.753 20.404 1.708 32.719-19.955 32.539-39.37-.27-28.765-28.674-42.338-52.135-29.574z" fill="#0FA6A6"/><path fill-rule="evenodd" clip-rule="evenodd" d="M84.517 43.28c.54 4.675.27 9.619-.63 14.113-1.078 5.034-2.966 9.438-5.483 12.854v.09c-1.707 2.607-3.595 4.944-5.842 7.011-.72.66-1.468 1.289-2.247 1.888l-.09.09h-.09l-.63.719c-1.348 1.438-2.337 2.247-3.954 2.966l-.9.36c-.18.06-.329.12-.449.18l.18-.18-2.337 1.078h-.18l-.18.18c0 .06-.03.09-.09.09l-.18.18h-.269c-.989.63-2.247.899-3.416 1.168-.599.12-1.168.27-1.707.45-3.057.899-5.753 1.528-8.54 1.528-.659 0-1.318-.03-1.977-.09-3.057-.27-6.472-.989-10.697-2.247-3.506-.989-5.933-2.607-8.989-4.674l-.36-.18a41.273 41.273 0 00-2.157-1.348c-2.067-1.349-4.045-2.607-5.663-4.764-.719-.99-1.348-1.798-1.887-2.607v-.09h-.09c-1.169-1.258-1.978-2.517-2.517-3.865-1.708-4.315-2.337-9.079-2.786-12.764-.09-1.349-.09-2.607 0-4.225v-.09c-.36-3.595 0-6.742.988-9.348v-.18c.06-.54.12-1.109.18-1.708.18-.989.27-1.888.45-2.786.809-2.787 2.337-6.203 4.404-9.349 3.326-4.944 7.46-8.539 13.034-11.326 4.224-2.157 8.54-3.325 12.944-3.595 1.258-.18 2.516-.27 3.775-.27.959 0 1.888.06 2.786.18h.18c4.584.54 9.259.989 13.393 2.877v.09h.09a56.5 56.5 0 012.337.718C68.517 17.843 71.933 20 74 22.067c6.112 6.293 9.618 13.214 10.517 21.214zM54.854 16.855c-.45 2.786-1.169 5.663-1.798 8l-.27.809.81.18h.449l.899.18c.36.12.719.21 1.078.27 3.147.538 6.113 1.078 8.81 2.786l1.078.719.27.18 1.708 1.078-.72-1.977c-.629-1.978-1.528-3.776-2.696-6.023-.36-.809-.989-1.618-1.528-2.337-.63-.809-1.259-1.708-1.708-2.517l-.09-.27-.27-.09a59.092 59.092 0 01-1.707-.539h-.09c-.12-.06-.3-.12-.54-.18v-.09h-.09c-.808-.269-1.797-.539-2.696-.808l-.81-.18-.09.809zM42.449 59.55c-.539 1.887-.988 3.505-1.528 5.213-.629 1.888-.809 3.775-.898 5.573-.06.78-.15 1.528-.27 2.247l-.09.63.54.18c2.516.808 5.303 1.437 8.179 1.707h1.258c3.057 0 6.113-.36 9.169-1.079h.27l.18-.27.898-1.437c1.978-3.057 3.955-6.293 5.663-9.529l.09-.09v-.09c.54-1.527.989-3.235 1.348-5.033.12-.42.24-.869.36-1.348 0-.12.03-.24.09-.36l.09-.63-.54-.179v-.09h-.09a94.887 94.887 0 00-9.617-4.404v-.09h-.09a115.163 115.163 0 00-8-1.888l-.63-.18a8.929 8.929 0 00-1.348-.27l-.719-.179-.54-.09-.269.54c-.45 1.168-.809 2.426-1.348 3.954v.09c-.72 2.337-1.438 4.854-2.158 7.102zm2.607-14.203l.18-.629c1.258-4.225 2.697-8.54 4.225-12.854a49.71 49.71 0 001.078-4.045l.27-.809-.809-.09c-3.865-.539-7.46-.719-10.876-.719h-1.888c-1.169 0-2.427.09-4.045.36h-.54l-.269.09-.18.27c-.06 0-.09.03-.09.09-.06.12-.12.209-.18.269-.18.3-.389.63-.629.989-.18.27-.36.719-.629 1.168-1.977 3.865-3.056 8.36-3.775 12.225l-.18.719.72.09.538.18c.66.12 1.289.24 1.888.36 2.697.449 5.483.898 8.09 1.258 2.157.27 4.315.629 6.472.988l.63.09zm23.191 7.55l.09-.988c.72-5.483.72-11.236-.09-17.258v-.36c-.06-.06-.09-.15-.09-.27v-.27l-.27-.179c-4.224-3.056-8.718-4.944-13.752-5.933a.798.798 0 00-.36-.09c-.06-.06-.12-.09-.18-.09-.18 0-.359-.03-.539-.09l-.629-.09-.18.63c-.27.989-.629 2.067-.899 3.236-.18.6-.33 1.228-.45 1.888-1.078 3.955-2.067 8-3.505 11.865l-.36.809.81.18c.899.18 1.737.36 2.517.539 2.426.63 4.764 1.438 7.19 2.337l.09.09c3.057.809 5.574 1.708 7.82 2.697.54.27 1.17.539 1.888.988l.9.36zm-23.37-36.404c-.6.24-1.23.51-1.888.81-1.438.539-2.427 1.078-3.416 1.617v.09c-1.528 1.169-3.056 2.607-4.584 4.315l-1.169 1.348 1.798-.18h.45c.24-.06.449-.09.629-.09 1.438-.18 2.876-.27 4.404-.27 2.877 0 5.843.27 9.528.99l.63.09.09-.63.539-2.157c.12-.54.24-1.109.36-1.708.269-1.438.538-2.876 1.078-4.135l.36-.899-.99-.18c-.718-.09-1.527-.09-2.247-.09-.479-.06-.958-.09-1.438-.09-.18 0-.45-.09-.719-.09h-.09l-.18-.089-.18.09c-.988.45-1.977.899-2.966 1.258zm-25.62 10.788l2.427-.54c.36-.12.72-.21 1.079-.27l.72-.179c2.336-.54 5.033-.989 7.82-1.348h.269l.18-.27a65.54 65.54 0 012.696-3.685c1.259-1.528 2.787-2.787 4.854-3.776l4.045-2.157-4.494.72c-3.326.628-6.112 1.438-8.72 2.786-2.876 1.348-5.842 3.685-9.078 6.921l-1.798 1.798zm-5.842 13.483l.899-.09h.809c1.528 0 3.146.27 4.674.45.599.12 1.168.21 1.708.27.809.09 1.618.269 2.606.449l.63.09.18-.72c.18-.898.389-1.767.629-2.606.809-3.506 2.157-6.922 3.955-10.247l.809-1.439-1.529.36c-3.775.899-7.55 2.157-11.325 3.685h-.18l-.09.18c-.12.18-.27.27-.45.27l-.27.09-.179.27c-1.168 2.336-2.067 4.853-2.697 8l-.18.988zm1.528 15.191c1.708 3.506 4.584 6.652 7.91 8.899l1.348.899-.27-1.708c-.27-1.169-.359-2.337-.449-3.416-.45-4.764-.18-10.067.72-15.64l.179-.81h-.72c-3.325-.449-6.56-.718-9.797-.898l-.54-.09-.179.63c-.809 4.044-.18 8.179 1.798 12.134zm13.393 23.73l-.719-1.887c-1.169-2.697-1.978-5.573-2.517-8.45v-.27a.798.798 0 01-.09-.359l-.09-.27-.27-.18c-2.336-1.258-4.224-2.606-5.932-4.224l-.45-.45c-1.348-1.168-2.696-2.426-3.864-3.775l-1.618-1.708.36 2.337c.359 2.427.808 4.225 1.437 5.753a27.002 27.002 0 001.888 4.045l.09.09c.48.6.929 1.109 1.348 1.528.3.24.6.51.899.81 2.337 2.156 5.034 4.583 7.82 6.022l1.708.988zm8.72-5.842l-.54-.18a57.773 57.773 0 00-2.877-1.169c-1.797-.809-3.775-1.528-5.573-2.427l-1.438-.629.54 1.528c.629 2.158 1.438 4.315 2.157 6.382.36.9.719 1.888 1.078 2.787l.09.27.27.18c.959.359 1.918.688 2.876.988.48.18.93.36 1.349.54l.899.269v-.899c.27-2.247.539-4.494 1.078-7.011l.09-.63zm.538-2.427c.36-1.618.81-3.236 1.349-5.214.36-1.528.899-3.056 1.258-4.314h.09c.24-.96.51-1.918.81-2.877l.718-2.157v-.09c.06-.3.15-.6.27-.899.54-2.247 1.078-4.584 1.977-6.741v-.09c.06-.18.12-.33.18-.45l.09-.36.18-.808-.72-.09c-5.482-1.079-11.145-2.068-16.718-2.697l-.63-.09-.18.63c-.898 5.393-.628 10.966-.359 16.449.06.6.09 1.198.09 1.798 0 .899.09 1.797.27 2.966v.45l.36.18c1.348.628 2.696 1.258 3.954 1.887 1.169.54 2.337 1.168 3.596 1.708l.18.18c.719.359 1.468.719 2.247 1.078l.809.36.18-.81zm15.102 10.786c.45-.629.988-1.348 1.528-1.887a51.74 51.74 0 001.708-1.978l.449-.45 1.259-1.348-1.798.18a79.29 79.29 0 01-3.776.09H50.9c-.48.06-.959.09-1.438.09-1.978 0-3.716-.18-5.214-.54a22.678 22.678 0 01-4.045-1.258l-.719-.27-.18.81c-.36 2.157-.809 4.494-.898 7.19v.54l.449.18a37.281 37.281 0 009.888 1.617h.18l.18-.09c.359-.18.748-.359 1.168-.539.18-.12.36-.21.539-.27l.18-.09.09-.09 1.618-1.887zM74 73.483c-2.067.989-4.315 1.079-6.472 1.618-2.337.63-4.854.899-7.28 1.169h-.27l-.18.18c-.42.539-.9 1.108-1.438 1.707v.09c-1.08 1.798-2.248 3.596-3.506 5.124l-1.258 1.618 1.977-.45a31.509 31.509 0 005.753-1.618h.09v-.09h.09c.629-.449 1.528-.719 2.337-.988l.09-.09c1.887-.9 3.685-2.068 5.303-3.326h.09v-.09c.6-.6 1.198-1.228 1.798-1.888.958-.958 1.917-1.947 2.876-2.966zm5.483-11.056l-.36-.36c-2.247-2.337-5.303-3.865-8.18-5.303l-.718-.36-.27.81v.18c0 .06-.03.12-.09.179-.629 2.157-1.618 4.404-2.966 6.921v.09c-.899 2.427-1.978 4.674-3.326 6.832l-1.079 1.708 1.888-.63a80.689 80.689 0 003.416-1.348c.54-.24 1.108-.48 1.708-.72 2.516-.988 5.303-2.156 7.28-4.044.84-.839 1.648-1.978 2.427-3.416l.27-.54zm2.966-8.45l-.09-.27c-.06-.06-.09-.119-.09-.179-.269-1.618-.629-3.595-1.258-5.483v-.09l-.09-.09-.09-.09a19.803 19.803 0 00-1.887-2.876 50.558 50.558 0 01-2.157-3.236l-.09-.18-.09-.09v-.09c-1.528-1.528-3.146-3.146-4.854-4.674l-1.349-1.348.18 1.977c.63 4.225 1.169 10.517.18 16.36l-.09.54.54.18c.898.538 1.707.898 2.516 1.347.81.36 1.618.99 2.427 1.618 1.079.72 2.158 1.528 3.326 1.978.06.06.15.12.27.18l.719.719c0-.09 1.888-5.304 1.977-6.023v-.18zm.54-5.932l-.27-3.596c-.27-2.966-.809-5.752-1.618-8.18-.899-2.876-2.247-5.303-3.775-7.19l-1.079-1.259c-1.528-1.797-3.056-3.775-4.854-5.213-1.258-1.079-2.876-1.978-4.944-2.877l-2.157-.899 1.259 1.978c.12.18.24.33.36.45.359.539.628.988.718 1.258a27.446 27.446 0 011.798 4.135c.27.898.45 1.887.72 3.056v.09c.239.719.418 1.468.538 2.247l.09.27.18.18a113.02 113.02 0 002.966 2.157c1.528 1.168 2.877 2.696 4.315 4.764l.09.09a62.256 62.256 0 013.056 3.595c.36.48.72 1.049 1.079 1.708l1.528 3.236z" fill="#272726"/></g><defs><clipPath id="clip0_9_34236"><path fill="#fff" transform="translate(10 12)" d="M0 0h80v76.404H0z"/></clipPath></defs></svg>