<svg width="100" height="100" viewBox="0 0 100 100" fill="none" xmlns="http://www.w3.org/2000/svg"><g clip-path="url(#clip0_9_34238)"><g style="mix-blend-mode:multiply"><path d="M55.9 88.381C53.8 86 51.7 83.048 50 80.286c-2.7-4.667-5.3-9.429-7.6-14.381-4.4-9.143-8-18.857-9.1-28.953-1.2-10.476 6.4-18.571 15.8-22.857 5.2-2.286 11.4-2.952 16.6-.857C77.4 18 76.1 34.381 73.9 44.095c-3.2 13.81-9.4 32.762-18 44.286z" fill="#0FA4A4"/><path d="M55.9 88.381C53.8 86 51.7 83.048 50 80.286c-2.7-4.667-5.3-9.429-7.6-14.381-4.4-9.143-8-18.857-9.1-28.953-1.2-10.476 6.4-18.571 15.8-22.857 5.2-2.286 11.4-2.952 16.6-.857C77.4 18 76.1 34.381 73.9 44.095c-3.2 13.81-9.4 32.762-18 44.286z" stroke="#6FCFA1" stroke-width=".8" stroke-miterlimit="10"/></g><path d="M50 37.619c-5 0-9-3.429-9-7.62 0-4.19 4-7.618 9-7.618s9 3.428 9 7.619c0 4.19-4 7.619-9 7.619z" fill="#6CCC9E" stroke="#6FCFA1" stroke-width=".8" stroke-miterlimit="10"/><path d="M51.9 87.143c-8.5-9.524-15.8-20.286-20.4-32-2.1-5.524-3.8-11.238-3.9-17.048 0-5.619 1.5-11.238 4.9-15.81 5.8-7.809 18.3-12.19 27.6-7.809 11.7 5.524 12 20.381 9.4 30.857-3.3 13.048-11.1 24.381-16.7 36.477l-2 4.38c.667.191 1.3.35 1.9.477C57 73.429 66.5 62.38 71.3 49.238c2.3-6.38 3.5-13.333 2-20-1.2-5.238-4.4-10-8.7-13.428-4.4-3.524-10-5.715-15.8-5.62-5.5.096-10.9 2.096-14.7 5.905-8.3 8.19-7 20.381-4.7 30.667 1.4 6.476 3.8 12.762 6.7 18.857a127.874 127.874 0 004.8 8.857c.9 1.429 1.8 2.857 2.8 4.095.5.667.8 1.334 1.1 2.19.2.763.4 1.62.7 2.382.6 1.428 1.8 2.476 2.7 3.714.467-.38.967-.762 1.5-1.143a3.153 3.153 0 01-.4-.476c-.8-.952-2.2.381-1.4 1.333.133.19.267.35.4.477.7.857 2.2-.19 1.6-1.143-.9-1.238-2.2-2.286-2.7-3.715-.6-1.523-.7-3.047-1.7-4.285-1.9-2.476-3.5-5.334-5-8-3.1-5.715-5.7-11.62-7.6-17.715-1.9-6-3.1-12.19-3.3-18.476-.1-4.571.8-9.238 3.4-13.238 2.6-4 6.8-6.857 11.7-7.905 5.6-1.238 11.3 0 16.1 2.858 4.5 2.761 8.1 7.047 9.9 11.904 2.1 6 1.5 12.572-.3 18.572-3.9 12.762-12.7 23.428-17.9 35.714-.6 1.524-1.167 3.048-1.7 4.572-.4 1.142 1.5 1.618 1.9.476 5.4-12.953 13.9-24.762 18-38.286 3.3-11.048 3.9-26.19-6.9-33.905C54.9 8.19 41.6 10.952 34 17.81c-4.4 3.905-7 9.43-7.9 15.048-1 5.905-.1 11.81 1.7 17.524 3.8 12.571 10.9 24.095 19.5 34.286a168.21 168.21 0 003.3 3.81c.8.856 2.2-.477 1.3-1.334z" fill="#000"/><path d="M27 39.905c.9 2.19 1.5 4.38 1.9 6.666.1 1.143.2 2.286.4 3.429.1 1.048.5 2 .7 3.048 0 .571.4.952.9.952s1.1-.381 1-.952c-.1-1.143-.6-2.19-.7-3.334-.2-1.143-.2-2.285-.4-3.428-.4-2.286-.9-4.667-1.9-6.857-.2-.477-.6-.762-1.2-.667-.4.095-.9.667-.7 1.143zm26.1-19.524c-1.7-.095-3.3-.286-4.9.095-1.5.381-3.1 1.238-4.4 2.19-2.2 1.524-3.4 4.096-3.9 6.572-1 5.333 1.5 10.667 7.2 12.381 5.4 1.62 10.7-2.095 12.8-6.762 1.1-2.286 1.6-4.952.8-7.333-.9-2.762-3-4.953-5.8-6-5.8-2.19-13.1.571-15.4 6.19-1 2.286-.8 5.048.7 7.143 1.5 2.286 4.1 3.81 6.8 4.476 5.8 1.429 12.4-1.142 14.7-6.571 2.3-5.524-2.4-10.667-7.9-12-5.7-1.333-12.4 1.333-14.8 6.667-.6 1.428-.7 3.047-.7 4.476 0 1.333.1 3.619 1.7 4 .9.285 1.7-.19 2.3-.667 1-.762-.4-2.095-1.4-1.333-.1.095-.4.285-.4.19-.1.19.1-.095.1.096v-.096c-.1-.476-.3-.952-.3-1.524-.1-1.238 0-2.571.3-3.81.4-1.618 1.9-3.237 3.3-4.285 1.9-1.428 4.4-2.19 6.9-2.19 4.5 0 10 3.143 9.6 8-.5 4.666-5.7 7.714-10.3 7.619-4.3-.19-9.6-2.953-9.3-7.62.3-4.856 5.7-7.904 10.4-7.618 5.3.285 8.9 4.762 7.6 9.619-1 3.714-4.3 7.619-8.6 7.81-4.8.19-8.4-3.62-8.6-7.905-.1-2 .4-4.096 1.4-5.81.6-1.048 1.3-1.81 2.3-2.476 1.1-.667 2.4-1.429 3.7-1.715 1.3-.285 2.7 0 4.1.096 1.2.095 1.2-1.81 0-1.905zM39.3 72.572c0 .666.3 1.142.7 1.714.4.476.7 1.047 1.1 1.619.8 1.333 1.8 2.666 2.7 4.095.9 1.238 1.6 2.572 2.4 3.905.7 1.047 1.3 2.286 2.4 3.047.7.477 1.5-.38 1.4-1.047-.2-1.048-.8-2-1.3-2.953-.5-.952-1.1-1.81-1.8-2.666-.7-.953-1.4-1.715-2.1-2.762-.2-.381-.5-.762-.8-1.238-.3-.381-.7-.762-.8-1.238-.6.317-1.167.635-1.7.952 2.1 1.714 3.1 4.286 4.4 6.476.9 1.334 1.7 2.572 2.5 3.905.6.952.9 1.905 1.9 2.572.4.19 1.1.095 1.3-.382.9-1.618-.7-2.857-1.8-3.904-.4-.476-.7-.857-1.1-1.334-.4-.38-.8-.666-1.1-1.142-.4-.953-.5-1.81-1.3-2.572-.6-.476-1.7-.19-1.7.667.1.666.5 1.238.9 1.81.5.761.8 1.618 1.2 2.38.5.857.8 1.81 1.4 2.572.6.762 1.2 1.428 1.6 2.19.6-.317 1.167-.635 1.7-.952a3.404 3.404 0 00-.7-.667c-.9-.857-2.3.476-1.3 1.238.133.127.233.254.3.381.8 1.048 2.3.19 1.7-.952-.3-.667-.9-1.334-1.4-2-.6-.667-.9-1.429-1.3-2.286l-1.2-2.286c-.2-.38-.9-1.047-.9-1.428-.533.19-1.1.412-1.7.666.6.477.6 1.334.9 2 .4.762 1.1 1.334 1.7 2 .5.477.9 1.048 1.4 1.524.2.19 1.1.953 1 1.143a10.95 10.95 0 011.4-.286c-.4-.285-.7-.857-.9-1.333a28.745 28.745 0 00-.8-1.428c-.8-1.239-1.6-2.477-2.3-3.715-1.3-2.19-2.4-4.476-4.4-6.19-.7-.667-1.9-.096-1.6.857.3.952 1 1.714 1.5 2.476.7.953 1.3 1.905 2 2.762.8.857 1.4 1.714 1.9 2.667.5.952 1.2 1.904 1.4 2.952.467-.38.967-.73 1.5-1.048-.5-.285-.7-.857-1-1.333-.3-.476-.6-.952-.9-1.524-.7-1.143-1.4-2.285-2.2-3.428-.8-1.207-1.6-2.445-2.4-3.715-.4-.476-.6-1.047-1-1.523-.2-.381-.8-.762-.8-1.239-.1-1.142-2.1-1.142-2 0z" fill="#000"/><path d="M40.5 33.143c-.5-.095-1-.095-1.4.19-.6.286-.6 1.048-.2 1.429.267.317.567.603.9.857.133.064.267.159.4.286l.2.19c0-.063 0-.063 0 0 .133.064.233.127.3.19.6.477 1 1.048 1.6 1.525a1 1 0 001.4 0c.4-.381.3-.858 0-1.334-.4-.38-.8-.762-1.3-1.047l-.4-.381c0-.064-.033-.096-.1-.096-.1-.095.1.096.1 0l-.2-.19c-.6-.857-1.2-1.62-2.3-1.81-.4 0-.9.381-1 .762-.2.762-.1 1.62.4 2.286.2.476.7.857 1.1 1.238.7.857 1.7 1.905 2.9 1.714.3-.095.6-.38.7-.666.4-1.524-.7-3.143-2.4-3.429-.5 0-1 .19-1.2.667-.3 1.047.7 2.095 1.3 2.762.8.762 1.8 1.619 2.9 1.81.7.095 1.5-.096 1.9-.763.3-.476.1-1.047-.3-1.333-.5-.19-1.1-.095-1.4.381-.1.19.2-.19.1-.095.2-.096-.2.19 0 0-.1.095.3-.096.1 0-.1 0 0-.096.1 0 0-.096-.1 0-.1 0h.1a.923.923 0 00-.4-.096c-.2-.095.2.096.1 0-.067 0-.133-.031-.2-.095l-.4-.19-.3-.286c.2.286 0 .095 0 0-.067 0-.133-.032-.2-.095l-.6-.572a1.502 1.502 0 01-.3-.38c-.067 0-.1-.032-.1-.096l.1.095c-.1 0-.1-.095-.2-.095l-.2-.38V36c-.067 0-.1-.032-.1-.095 0-.064.033-.032.1.095l-.1-.19c.1.19 0 .285 0 .095V36c-.4.254-.8.476-1.2.667a.923.923 0 00.4.095l.1.095c.067 0 .133.032.2.095-.1 0-.1-.095 0 0 0 .064.033.096.1.096.1.19 0 .095 0 0 .067.127.133.222.2.285 0 .096-.1-.19 0 0v.381c.2-.19.433-.38.7-.571.067-.064.133-.095.2-.095-.067 0-.067 0 0 0 .2.095.1.095 0 0-.1 0 .1.095.1.095l-.1-.095c-.067 0-.133-.032-.2-.096.2.096-.1-.095 0 0 0-.063-.033-.095-.1-.095a4.244 4.244 0 01-.9-.952l-.4-.381c-.067 0-.133-.032-.2-.095 0-.064-.033-.096-.1-.096 0 0-.1-.19-.1-.095l-.1-.095v-.286c-.067-.063-.1-.127-.1-.19 0 .095 0-.096 0 0v-.477a4.628 4.628 0 01-.9.667h-.1c-.133-.063-.167-.063-.1 0h.1c.067.064.033.064-.1 0 .1 0 .4.381.4.381.067 0 .1.032.1.095-.067-.063-.067-.063 0 0 .067.064.1.127.1.19l.4.382c.2.38.5.666.8.857.4.38.8.667 1.2 1.047l1.4-1.333c-.6-.476-1-1.047-1.6-1.524l-.6-.38c.1 0-.1-.096-.1-.096a1.17 1.17 0 00-.3-.19c-.267-.254-.533-.54-.8-.857l-.2 1.523c-.2.096 0 0-.1 0 .2 0-.1 0 0 0 .5.096 1.1-.095 1.2-.666.1-.477-.1-1.048-.7-1.143z" fill="#000"/></g><defs><clipPath id="clip0_9_34238"><path fill="#fff" transform="translate(25 10)" d="M0 0h51v80H0z"/></clipPath></defs></svg>