<svg width="94" height="97" viewBox="0 0 94 97" fill="none" xmlns="http://www.w3.org/2000/svg"><path d="M23.43 1.497c-1.134 1.942-2.474 3.96-3.832 6.033m0 0c-.586.893-1.174 1.797-1.752 2.71m1.752-2.71c.006.087-.023.258-.097.534-.2.744-.363 1.528-1.061 1.982-.345.224-.678.531-1.001.883m2.159-3.399c-.04-.557-1.516 2.302-1.732 2.676a3.835 3.835 0 00-.02.034m0 0c-.163.258-.325.517-.486.777m.486-.777c-.134.231-.27.461-.407.69m-.08.087c-.299.482-.594.966-.882 1.453m.883-1.453c-.864.962-1.669 2.222-2.502 3.036-1.479 1.446-3.053 3.568-4.235 5.279-1.627 2.353-2.09 6.498-2.664 9.22-.401 1.904.792-.276 1.063-.727l.011-.019m8.327-16.79l.079-.087m-.962 1.541c-1.713 2.89-3.198 5.857-4 8.853-.25.927-.903 2.553-1.448 3.422-.68 1.085-1.39 2.052-1.996 3.061m7.444-15.336c.326-.508.648-1.02.962-1.54m-.962 1.54c-2.57 3.997-5.427 7.696-6.688 12.401-.256.958-.51 1.94-.756 2.935m0 0c-.862 3.503-1.607 7.182-1.918 10.647-.341 3.794 1.717 7.249 3.507 10.488.396.718.756 1.41 1.065 2.142.371.88.405.678.298.068m0 0c-.175-.987-.718-3.042-.802-3.314a58.737 58.737 0 00-.702-2.091m1.504 5.405a55.665 55.665 0 01-.306-.576c-.672-1.292-1.368-1.573-.463-1.33.011.003-.424-2.06-.735-3.5m1.504 5.406c.664 1.24 1.424 2.61 1.765 3.933 1.012 3.92-1.46 7.937-4.816 10.235-1.86 1.273-2.883 3.004-4.12 4.755-2.02 2.863-.134 5.463 2.91 7.049 2.077 1.082 3.166-1.754 4.026-3.237 1.35-2.327 3.143-4.509 4.968-6.481 4.509-4.877 10.602 5.75 14.197 8.385 1.25.917 5.115 3.47 3.36 5.096-1.109 1.027-2.136 1.7-3.297 2.588-.975.746-2.56.912-3.372 1.605-2.744 2.343-6.617 5.951-2.371 8.671 3.486 2.234 6.96 1.303 8.668-2.114 1.107-2.214 1.8-4.884 3.983-6.407 1.548-1.08 1.505-3.069 3.725-2.474 3.158.846 5.988 2.472 9.12 3.311 3.437.922 7.1 3.32 10.798 2.894 3.279-.378 6.544-1.18 9.772-1.915 1.403-.32 3.481-.468 4.787-1.128 1.81-.916 3.51-.98 5.022-2.368 1.604-1.47 3.567-3.04 4.933-4.73 1.022-1.263 2.4-2.354 3.479-3.625 1.18-1.39 1.306-2.956 2.164-4.387 2.014-3.36-.837-7.798-2.845-10.89-.806-1.24-2.199-1.553-3.516-1.906-1.016-.272-3.14 3.57-3.555 4.448-2.336 4.943-6.968 6.545-11.836 8.45-2.376.931-4.63 2.21-7.067 2.978-1.053.331-2.28.434-3.275.883-2.024.913-4.116 1.718-6.374 1.113-1.654-.443-3.476-.498-5.193-.958-3.647-.977.926-3.347 2.427-4.558 3.025-2.44 4.688-5.798 5.697-9.564 1.45-5.41-5.905-1.32-7.916.386-2.8 2.375-6.84 9.954-11.305 5.748-1.976-1.863-15.06-6.527-10.887-10.392 1.41-1.305 2.646-3.324 4.615-3.634 1.57-.248 3.345-2.046 4.347-3.176 2.67-3.01 4.505-6.753-.657-7.988-3.475-.831-8.744 1.775-10.92 4.404-2.745 3.314-3.273-5.261-3.167-6.9.376-5.829 2.996-10.708 6.655-15.12.824-.993 1.377-2.612 1.867-3.816.499-1.228 1.405-2.032 2.16-3.11 1.193-1.705 1.655-2.941 2.238-5.115.782-2.917-1.094-6.915-3.807-8.47-1.37-.786-3.31-.984-4.835-1.392M10.481 45.746c-.774-2.208-1.64-4.593-1.828-6.736-.161-1.856.947 3.605 1.526 5.376.018.057.144.628.302 1.36zm15.51-39.223a135.83 135.83 0 01-3.22 10.398c-.24.672-4.55 8.82-4.728 8.643-1.024-1.015-.444-5.405-.136-6.691.254-1.062.52-2.132.806-3.196m0 0c.24-.892.492-1.78.761-2.653.514-1.668 1.774-3.417 2.632-4.962.112-.203.343-.435.575-.669m-3.968 8.284c.691-1.376 1.37-2.764 2.035-4.169.435-.919 1.308-2.847 1.933-4.115m-3.968 8.284c-2.403 4.784-4.944 9.428-7.465 14.19-.338.638-1.24 2.49-.127.834 1.206-1.796 2.606-3.47 3.739-5.315.693-1.13 2.16-4.82 1.816-3.54-.427 1.596-.915 3.227-1.398 4.88m7.403-19.333c.29-.293.581-.588.648-.836.218-.815-.13-.217-.648.836zm-7.403 19.334l-.182.625m.182-.625a19.917 19.917 0 01-.05-1.097c-.013-.836-.072.35-.132 1.722m.182-.625c.184 2.556.8 5.107.978 7.665.22 3.136.501 6.328.524 9.472.02 2.548-.16 2.622-.732.214-.535-2.25-1.252-4.44-1.945-6.64m.993-10.086c-.694 2.399-1.359 4.84-1.795 7.278m1.795-7.278c-.039.894-.078 1.866-.107 2.409-.133 2.569-.407 5.143-.886 7.676m-.802-2.807a32.486 32.486 0 00-.47 3.846m.47-3.846c.049.262.086.465.1.517.226.766.463 1.529.702 2.29m-.802-2.807c-.15-.806-.408-2.174-.476-1.47-.171 1.764-.113 3.542.006 5.316m0 0a24.36 24.36 0 00-.037 1.909c.012.574.105 1.048.26.982m-.223-2.891c.065.965.148 1.93.223 2.89m0 0c.087-.037.194-.246.317-.706.285-1.064.528-2.14.732-3.223m-1.05 3.93c.027.338.052.675.074 1.012.16 2.346.24 9.274.849 7.003.06-.228-.28-2.221-.156-1.85.269.793.562 1.56.884 2.308m0 0c.153.355.312.705.477 1.052m-.477-1.052c-.433.09-.754.236-.902.46-.16.242.745.467 1.38.592m-.478-1.052c1.944-.4 6.156.335 7.242.303a14.784 14.784 0 002.478-.258m-9.243 1.007c.424.887.891 1.752 1.408 2.606m-1.408-2.606c.313.061.56.098.581.101 3.572.533 5.927.246 8.678-1.055m-7.851 3.56c.237.392.485.782.744 1.172 1.016 1.528 1.458 2.149 1.682 2.016m-2.426-3.188c-2.217 3.25-4.053 7.152-5.198 10.84-.106.34-.301.918-.484 1.479m5.682-12.32c.153-.224.308-.445.464-.663 1.742-2.424 1.079 1.39 1.578 2.93.089.274.228.587.384.922m0 0c.22-.132.228-1 .365-2.457.238-2.54 1.669-2.157 3.76-1.596l.04.01c1.774.476 4.744-2.547 5.811-3.867.35-.434 2.74-1.605 1.076-1.135-.828.234-2.258.93-3.472 1.5m-7.58 7.545c.514 1.103 1.206 2.44.848 3.388l-.007.019m6.74-10.952c-.204.096-.4.188-.588.273m.587-.273c-.191.1-.387.191-.587.273m.587-.273a6.477 6.477 0 002.12-1.766c.201-.255 3.74-5.256 4.461-3.24.916 2.559-2.876 6.386-4.56 7.747-.871.706-3.68 2.11-2.561 2.183.511.033-1.061 1.756-1.179 1.878-1.177 1.224-2.078 2.495-2.98 3.927-.308.487-.569.919-.818 1.319m4.93-11.775c-.826.378-1.46.632-1.568.524m1.568-.524a8.46 8.46 0 01-1.354.422m-.214.102c-.013-.012-.019-.03-.016-.053m.016.053l.214-.102m-.23.049c.006-.064.072-.17.21-.324.177-.2 3.08-1.46 2.116-.88-.739.446-1.43.83-2.096 1.155m-.23.049c.077-.016.154-.032.23-.05M21.078 61.19a21.1 21.1 0 01-.714 1.087m.714-1.087c-.365-.309-.821-.766-1.222-1.096m1.222 1.096c.087.073.17.139.244.191l.044.032m-1.002.864l-.09.126m.09-.126l.026.027m-.026-.027c-.386-.4-.724-.789-.977-1.145m.886 1.271a11.788 11.788 0 01-1.546 1.731c-2.927 2.73-5.499 5.224-7.735 8.44-.325.47-1.523 5.465-2.57 3.652-1.007-1.745 2.523-5.844 3.39-7.073.356-.502 1.102-1.716 1.434-2.26m7.027-4.49c-.663.55-3.16 2.509-3.052 2.316.676-1.218 1.525-2.347 2.166-3.587m.886 1.271l.066-.055.052-.044m-7.144 4.59c.173-.284.234-.385.069-.11a2.86 2.86 0 01-.07.11zm0 0c-.66.996-1.956 1.652-2.866 2.382-.108.087-2.4 1.883-2.35 1.396.154-1.516 1.608-3.312 2.876-4.854m0 0c.546-.664 1.057-1.281 1.416-1.808.468-.688 1.298-2.201 2.172-2.529.186-.07-1.38 2.585-1.625 2.916-.708.958-1.639 1.8-2.25 2.821-.328.546-.04-.4.287-1.4zm8.95-5.724c-.137.357-.296.701-.47 1.038m.47-1.038c-.485-.399-.886-.612-.946-.154-.04.313.145.725.476 1.192m1.003 1.172c.281-.242.613-.563.976-.891m-.976.891c1.684 1.736 4.27 3.69 4.85 4.25 2.884 2.788 5.864 5.792 9.78 7.058.934.301-.011-.588-.18-.772a9.8 9.8 0 01-.193-.214m-13.28-11.213c1.122-1.013 2.553-2.091 3.764-1.109 3.13 2.542 5.148 6.404 7.534 9.788m-11.299-8.68c2.227 1.581 4.39 3.247 6.533 4.939 1.54 1.215 3.085 2.428 4.624 3.65m.142.091l.033.047m-.033-.047L32.523 70m.142.092c1.335.873 2.635 1.9 3.72 3.004m-3.687-2.957a28.2 28.2 0 001.949 2.487m-1.949-2.487L32.523 70m.175.139c1.234.979 2.465 1.963 3.686 2.957m-1.737-.47c.903.83 1.814 1.677 2.752 2.484m-2.752-2.484a73.501 73.501 0 00-2.172-1.939c-1.105-.938-4.843-3.135-3.504-2.578A23.078 23.078 0 0132.523 70m3.861 3.096c1.064.866 2.122 1.74 3.17 2.624m-3.17-2.624c.703.717 1.316 1.466 1.787 2.227m1.383.397l.18.152m-.18-.152l-.033-.01a63.828 63.828 0 00-1.35-.387m1.383.397c.768.235 1.514.529 2.26.82m-2.08-.668l.026.023c.113.094.919.736 1.68 1.38m-1.706-1.403c.692.224 1.382.453 2.071.684m-2.07-.684c-.507-.164-1.015-.325-1.523-.484m3.227 1.887c1.016.859 1.95 1.724 1.05 1.304-.447-.209-.884-.44-1.311-.69m.262-.614c.114-.241.236-.48.365-.719m-.365.719l-.055.116c-.07.15-.137.32-.207.497m0 0a22.79 22.79 0 01-2.645-1.838m2.645 1.838c-.154.385-.323.804-.572 1.128m-2.073-2.966a37.674 37.674 0 01-1.085-.897m1.085.897a3.366 3.366 0 00-.321-.662m.321.662c.294.832.16 1.619-.218 2.344m-.867-3.241l-.05-.043m.05.043l.048.014.716.221m-.764-.235c-.942-.287-1.897-.531-2.848-.786-1.143-.306.901.225 2.798.743m0 0c.264.072.524.143.773.213m0 0l.04.065m.104 3.006a5.573 5.573 0 01-.807 1.134m.807-1.134c-2.053-.552-4.109-1.094-6.162-1.644-.511-.137-3.585-1.246-1.593.007 1.869 1.175 4.484 2.426 6.948 2.77m.807-1.133c.764.206 1.528.413 2.29.622m-3.097.512c-.868.965-2.041 1.779-2.921 2.388l-.07.048c-.873.606-2.164 1.736-2.718 2.002m5.709-4.438c.77.107 1.524.126 2.236.027.373-.052.647-.26.862-.54m-8.807 4.95c-.25.121-.35.065-.191-.296m.191.297c.172-.374.331-.732.46-1.045m-.46 1.045c-.602 1.31-1.36 2.8-1.543 3.102-.508.84-.991 1.684-1.523 2.5m2.875-5.899c.109-.249.341-.644.732-1.227.074-.11.143-.213.209-.308m-.941 1.535c.227-.242.448-.49.652-.748m-.652.748c-.518.55-1.072 1.075-1.55 1.652m2.49-3.187c1.195-1.733.889-.807-.14.591a7.571 7.571 0 01-.148.196m.289-.787c.098-.356.02-.416-.357.051-.531.656-1.457 2.082-2.133 3.136m2.49-3.187c-.053.19-.155.464-.29.787m-2.2 2.4a6.43 6.43 0 00-.682.98c-.397.716.025.043.682-.98zm-1.326 4.248a23.22 23.22 0 01-.26.39m.26-.39a.693.693 0 00.308.235c.09.03.194.058.308.085m-.616-.32c-.47-.574-.703-1.81-1.415-.444-.355.68.394.806.935.83.073.003.147.004.22.004m0 0c-.22.324-.45.642-.694.954-.507.647-2.042 1.592-.247 1.284 1.774-.305 3.823-.748 5.513-1.32 1.22-.412-2.162-.62-3.696-.988m-.876.07c.29 0 .582-.024.876-.07m0 0c1.929-.301 3.907-1.526 5.123-2.897.92-1.039 1.465-2.792 2.334-4.063m0 0c.227-.332.476-.631.76-.876m-.76.876c-.711.484-1.354.955-1.475 1.038-4.308 2.926.761-.826 2.235-1.914m-.76.876c1.312-.892 2.858-1.825 1.815-.444-.607.806-1.513 1.386-.001 1.447 1.484.06 2.985.145 4.492.264m-5.546-2.143c.12-.104.245-.197.378-.28.005-.002-.14.104-.378.28zm5.546 2.143c.956.075 1.914.163 2.872.266m-2.872-.266c-.026.297.145.71.566 1.284 2.295 3.12 7.406 3.342 11.258 3.788 2.038.236 2.101-.209.283-.696-3.205-.859-6.516-2.167-9.235-4.11m-2.872-.266c.048-.539.74-.693 1.753-.714m1.119.98c3.422.368 6.837.924 10.111 1.74m-10.111-1.74a20.47 20.47 0 01-.168-.121c-.561-.41-.855-.686-.95-.859m11.229 2.72c.035.01 1.663.446.855.23l-.855-.23zm0 0l-6.592-1.765c-.514-.138-1.853-.609-2.966-.918m0 0c-1.047-.291-1.895-.44-1.672-.037m1.672.037c-.11-.005-.22-.01-.328-.013a23.53 23.53 0 00-1.344-.024m1.672.037c3.535.15 7.086.536 10.633.73m0 0a74.05 74.05 0 003.126.11m-3.126-.11c-1.486-.492-2.955-1.038-4.428-1.549-3.998-1.384-8.058-2.567-12.136-3.684m16.564 5.233c1.293.427 2.598.814 3.928 1.1 2.305.496.248-.495-.802-.99m0 0a53.05 53.05 0 001.841-.01c.672-.014 2.283-.233.757-.664l-.125-.036m-2.473.71c-.193-.092-.352-.166-.443-.212-.118-.058-3.527-1.716-3.233-1.975.118-.103.285-.195.48-.277m5.67 1.754c-.356-.1-.711-.204-1.066-.308m1.065.308c.8-.094 1.609-.165 2.094-.112.558.06 3.553.336 4.014.894m-6.108-.782c-1.528.18-3.023.446-2.158.099.359-.144.724-.28 1.093-.407m0 0c-1.545-.455-3.078-.94-4.604-1.446m4.604 1.446c2.572-.89 5.356-1.425 7.923-2.289 2.305-.775 4.35-2.237 6.427-3.646M57.1 81.895c-4.332-1.434-8.602-3.024-12.906-4.521m12.906 4.52c.738-.309 1.884-.473 2.331-.585a160.94 160.94 0 017.475-1.71c3.108-.623 6.14-1.28 9.148-2.194m-31.86-.031c-.655-.228-1.31-.453-1.966-.676m1.966.676a23.567 23.567 0 01-1.965-.675m1.965.675c1.003.285-1.452-.537-1.623-.631-.223-.121-.442-.25-.657-.385m.314.34l-.423-.142m.423.142l-.413-.16m-.01.017l.01-.017m0 0c.032-.06.066-.12.1-.18m0 0c-2.913-1.824-5.165-4.819-7.463-7.288-.316-.339-3.011-2.929-.865-2.353 2.451.656 4.75 1.953 6.97 3.145.363.195 1.993.865 3.085 1.56m-1.728 4.936c.268-.478.56-.948.87-1.41m.858-3.527c.562.358.981.721 1.01 1.03m-1.01-1.03c-2.287.232-4.463-.602-6.836-1.238-1.21-.324 6.973 2.498 7.784 2.345m-.948-1.107a7.397 7.397 0 002.17-.561c.17-.073.338-.155.504-.247m-1.664 1.838l.002.028c0 .025-.022.041-.064.05m.062-.078l.337-.413c.383-.465.834-.94 1.327-1.425m-1.664 1.838l-.062.077m0 0a35.38 35.38 0 00-1.734 2.315m3.46-4.23c1.281-.707 2.411-1.941 3.437-3.22m-3.437 3.22c1.046-1.028 2.278-2.1 3.437-3.22m0 0c.83-1.035 1.59-2.099 2.307-2.936 1.944-2.272-.925.624-1.458 1.032-1.843 1.407-3.814 2.659-5.838 3.788-1.631.911-.209-.63.236-1.239 1.006-1.38 2.052-2.788 3.398-3.863.606-.484 5.393-2.849 5.224-2.217-.517 1.926-2.109 3.735-3.87 5.435zm-6.897 7.45a19.6 19.6 0 00-.071.105m.071-.105c2.424.652 4.844 1.32 7.28 1.926 2.87.713 5.786 1.262 8.665 1.946m-15.945-3.872l-.466-.126c-.474-.127-.15.018.395.231m0 0a98.53 98.53 0 001.996.748c4.383 1.579 9.274 3.074 14.02 3.019m17.253-1.31c.67-.204 1.339-.42 2.007-.653 1.431-.496 3.01-1.373 4.524-1.584.884-.124 1.66-.879 2.372-1.819m-8.903 4.056c2.112-1.434 4.256-2.815 6.736-3.364.77-.17 1.492-.398 2.167-.692m0 0c.585-.772 1.126-1.668 1.648-2.441m-1.648 2.441c.4-.173.783-.37 1.151-.59m.497-1.851c.201-.299.4-.578.597-.826m-.597.826l.428-.203m-.428.203c-1.194.57-2.567 1.25-3.375 1.491-2.019.6-4.04.824-6.098 1.031m10.07-3.348c.15-.188.3-.357.448-.501.524-.506 1.53-1.584 2.148-2.38m-2.596 2.881c.097-.417.165-.847.202-1.29.024-.296.035-.635.031-.998m-.233 2.288c-.05.211-.105.419-.169.623m2.765-3.504c.522-.673.765-1.144.201-.897a5.577 5.577 0 00-.08.036m-.121.861a7.74 7.74 0 00.12-.861m-.12.861c-.194 1.01-.555 2.04-.891 2.904m1.012-3.765c-.657.302-1.62.902-2.484 1.454m2.484-1.454c.102-1.233-.149-2.347-1.136-2.966-2.073-1.3-2.415-.046-3.3 1.43-1.42 2.368-5.445 4.304-7.814 5.671-2.04 1.178-3.802 2.625-5.938 3.64m15.704-6.321c-.719.46-1.368.885-1.716 1.076a311.94 311.94 0 01-8.587 4.56m10.303-5.636c-.012-1.31-.213-2.927-.65-3.894-.418-.928-1.005.758-1.284 1.102-1.792 2.217-3.412 3.537-5.827 5.19-1.75 1.199-3.57 2.333-5.325 3.534m2.783-.296a290.828 290.828 0 01-7.102 3.51c-2.974 1.419-6.569 3.346-10.031 2.881-1.014-.136-2.018-.492-3.004-.756-.895-.24 1.84.23 2.763.306.176.015 1.335-.076 1.12-.134a74.583 74.583 0 00-2.077-.522m18.33-5.285c-.464.047-.931.093-1.4.142-.47.05-.93.1-1.382.154M58.8 78.715c.8-.01 1.595-.063 2.383-.167 3.794-.503 8.448-1.397 11.576-3.698a56.792 56.792 0 011.589-1.124m0 0c-.894.107-1.762.23-2.618.39m15.302-3.41a9.44 9.44 0 01-.925 2.052m.925-2.053c1.026-.481 1.833-.816 1.874-.6m-2.799 2.653c-.682 1.14-1.59 2.153-2.628 3.047m2.628-3.047a9.849 9.849 0 002.606-2.29c.042-.051.077-.098.105-.14m-5.34 5.477c-2.173 1.873-4.92 3.225-7.381 4.135-1.702.629-3.55 1.107-5.184 1.89-1.01.484 3.412-.038 3.94-.126 1.76-.293 3.51-.363 5.202-.969 1.05-.375-.111.6-.51.732-3.505 1.15-7.108 1.991-10.669 2.963m14.603-8.625c2.15-.998 4.05-2.299 5.067-4.802l.015-.037c.08-.196.167-.41.257-.637m-5.34 5.477c-1.96.91-4.129 1.571-6.023 2.665m-8.579 5.959a95.275 95.275 0 00-3.516 1.024c-.54.17-1.614.112-2.065.507-1.216 1.07 3.274-.228 4.793-.789.782-.289.96-.535.788-.742zM88.82 70.329c.07-.104.097-.177.088-.224m-.088.224l.088-.224m-17.176 4.01c-1.42.266-2.81.634-4.233 1.206-.408.163-3.302 1.33-2.614 1.204 2.108-.385 4.273-1.312 6.24-2.138.206-.086.408-.177.607-.272zM87.98 63.496c-1.062.613-6.33 3.002-6.232 4.358.184 2.518 3.208 8.02 1.85 10.285-.214.358-1.57.774-1.983 1.012m-31.382-20.56c.434-1.294 1.512-1.332 2.639-1.03 1.445.387 1.433-1.374 2.871-.099 1.593 1.413 3.034 3.999 1.334 6-.671.79-2.491 3.18-2.223 2.177.508-1.896.353-3.73.643-5.638.318-2.086-5.053-1.123-6.043-.125-.938.947-1.081 2.417-1.441 3.761m-14.82 16.428c-.933 3.484-1.764 4.143-4.636 5.606-2.09 1.064-3.01 2.74-4.293 4.684-1.587 2.404-1.835 3.319 1.387 4.182 2.795.749 4.107-.508 6.569-1.93 1.107-.638 1.906-1.726 2.77-2.72m0 0c.564-.649 1.156-1.258 1.88-1.675 1.288-.744 2.393-1.138 3.397-2.152.604-.61 2.551-2.28 1.983-1.639-.81.914-2.007 2.201-3.13 2.682-1.566.67-2.792 1.81-4.13 2.784zm0 0c-.375.273-.759.533-1.161.765M17.797 61.398c-1.09.842-2.034 1.83-2.315 2.878-.315 1.177 4.314-.12 1.537 2.365-3.202 2.865-4.35 8.01-6.602 11.59-1.806 2.87-8.993-3.458-7.89-6.817 1.35-4.111 4.068-5.838 7.213-8.652 1.145-1.025 6.407-6.23 3.143-2.461-1.216 1.402-2.286 3.127-3.412 4.631-1.773 2.37-3.522 4.12-5.56 6.178-1.053 1.061-.869 3.046.799 3.493 3.463.928.157-1.779.95-3.458 1.96-4.143 6.637-7.14 9.236-10.98.882-1.303.135.218-.049.903-.209.78-1.21 2.879-.604 2.346 1.773-1.559 2.72-3.55 3.868-5.619.322-.58 1.628-3.647 1.017-1.367l-1.331 4.97zm0 0c1.07-.827 2.278-1.513 3.134-1.979 1.122-.61 2.323-.572 2.73-2.09.052-.196.245-.69.375-1.17m-6.24 5.239l-.283 1.06m6.523-6.3c.133-.49.202-.967-.01-1.093-.893-.536-2.307-.67-3.177-.2-.684.37 1.583 1.298 3.187 1.293zm0 0c.73-.002 1.324-.198 1.436-.73.222-1.041.457-2.735.37-3.807-.144-1.77 3.71-5.546.708-3.813-.332.192 1.729-1.427 1.685-1.43-.74-.031-2.581 1.721-3.255 2.07-1.564.81-3.056 1.732-4.614 2.55-1.088.571-6.185-.404-5.823-1.754.28-1.043 4.026-.688 4.943-.628m15.72-3.6c-.568 2.122-1.158 3.693-2.643 5.367-1.048 1.182-2.481 2.884-3.713 3.78-2.126 1.545-2.743 5.357-1.106 7.275.186.217.488.623.808.99m0 0c.658.755 1.393 1.35 1.36-.169-.027-1.176.222-2.559-.075-3.684-.113-.43-1.058 2.524-1.285 3.853zm0 0a2.43 2.43 0 00-.047.491c.072 1.207.896 2.279 1.48 3.29.99 1.715 1.608 3.536 2.46 5.313.81 1.692 3.043 3.751 1.847 5.703-.554.904-1.163 1.837-1.819 2.648-1.24 1.534-2.44 3.257-3.573 4.877-2.28 3.259-5.881 4.132-7.01 8.345M23.48 4.55c1.74.466 3.812.712 5.438 1.481 1.128.533.52 1.697-.685 2.963m0 0c-1.848 1.943-5.1 4.127-5.646 4.648a32.765 32.765 0 00-1.576 1.594m7.222-6.242c-.547-.461-1.14-.854-1.85-1.062-4.683-1.372-8.913 2.335-12.179 5.32-2.095 1.915-4.955 4.136-5.778 6.987-.792 2.745-1.194 5.486-1.575 8.307-.136 1.01-.182 2.828-.227 4.483m21.61-24.035c.921.778 1.715 1.75 2.731 2.36.3.179-2.256 2.327-3.761 3.138m-6.192.744c-.724.792-1.393 1.633-1.945 2.55-.346.573-.929 2.172-1.073 2.484m3.018-5.034a1.955 1.955 0 00-.183-.788c-.403-.803-2.685 5.16-2.83 5.704a2.236 2.236 0 00-.033.132m3.046-5.048c.047 1.024-.418 2.385-.81 3.494m-2.208 1.54c-.029.062-.04.073-.028.014m.028-.014c.726-.367 1.562-.988 2.208-1.54m-2.208 1.54l-.028.014m0 0c-.935.467-1.68.502-1.581-.589.231-2.576-.218-1.728-.93.233-1.133 3.118-2.755 6.09-3.755 9.242-.67 2.11-1.983 5.138-2.085 7.664M20.202 18.73c-.18.511-.346.97-.44 1.316-.52 1.944-1.77 4.55-1.737 6.575.052 3.163 4.839-11.641 3.213-8.929-.111.185-.51.59-1.036 1.038zM9.615 36.833c-.019.459.003.901.075 1.318m-.075-1.319a37.965 37.965 0 01.075 1.32m-.075-1.32c-.185-2.62-.687-8.184-1.103-7.553-.535.81-1.345 2.293-1.887 3.75M9.69 38.15l.005.03c.233 1.292.074 2.358-.005-.03zm-3.065-5.123c-.437 1.174-.7 2.332-.505 3.109.37 1.477.437-.635.505-3.108zM27.204 14.49c-.471.254-.84.376-.985.267-.62-.463 3.092-4.039.985-.267zm0 0l-.131.23c-1.688 2.931-2.512 6.256-4.311 9.07a50.27 50.27 0 01-.958 1.412m0 0c-1.227 1.757-2.81 3.867-1 .763 1.303-2.233 1.332-1.817 1-.763zm0 0c-.212.675-.57 1.61-.837 2.28m0 0c-.357.894-.547 1.313 0 0zm0 0l.163-.393c.127-.303 1.548-3.346 1.3-2.424l-.503 1.88m0 0l-2.106 7.861a42.608 42.608 0 00-.885 3.948m2.991-11.809c-.787 1.453-1.69 3.001-2.306 3.7m2.306-3.7a86.59 86.59 0 001.61-3.127c1.337-2.78 3.64-5.126 4.441-8.117m-9.042 23.053c-.329 1.953-.465 3.938-.224 5.894m.224-5.894a91.028 91.028 0 00-.168 3.22c-.012.357-.04 1.59-.056 2.674m.224-5.894c.186-2.714.463-5.419.685-8.108m-.909 14.002l.005.037c.036.288.052.615.06.957m-.065-.994c-.023 1.487-.024 2.696.066.994m0 0c.026.941.003 2.005.227 2.737.47 1.536.483-3.175.628-4.774.117-1.285.216-2.571.167-3.862-.02-.515.265-1.979-.02-1.548-1.08 1.638-.885 5.007-.974 6.876l-.028.57zm.843-14.997l.005-.062c.04-.49-.16-3.1-.615-3.372-1.267-.76-.745 3.206-.002 3.785.127.099.342-.045.612-.35zm11.674 11.552c.267.04.74.093 1.297.128m0 0c1.62.103 3.955.055 4.015-.875.1-1.567-2.6.036-4.015.875zm0 0a14.74 14.74 0 01-.662.38c-.741.377-5.086 2.423-2.968.82 1.471-1.114 2.762-2.538 4.253-3.635 1.032-.76 3.988 1.06 4.582 1.975 2.1 3.232-1.36 4.697-3.616 6.747-1.564 1.422-4.798 4.402-5.44 6.355-.738 2.247-1.232 4.598-1.844 6.884m2.921-4.426c2.555.685 2.71 5.768 4.357 7.678 1.68 1.946 4.409 3.134 6.417 4.757.84.68 1.195 1.623 2.306 1.92m-27.99-10.538l1.301-4.86" stroke="#6DCDA0" stroke-width="3" stroke-linecap="round"/></svg>