<svg width="100" height="100" viewBox="0 0 100 100" fill="none" xmlns="http://www.w3.org/2000/svg"><path d="M51.525 17.004c-1.21.16-2.258.806-3.306 2.177-2.177 3.063-7.338 8.546-4.516 12.497 3.71 5.16-4.596 5.967-3.87 13.788l.726 7.821 23.705-.242c.645 0-.08-12.256-.484-13.465-.645-2.016-2.58-3.709-2.5-5.644 0-2.338 2.581-3.79 1.694-6.934-.726-2.742-2.741-5-4.838-6.934-1.935-1.855-4.354-3.387-6.611-3.064z" fill="#0FA6A6"/><path d="M76.923 28.372c-1.129.162-2.258.807-3.225 2.097-2.258 3.064-7.418 8.547-4.515 12.578 3.709 5.16-4.677 5.967-3.951 13.707l.725 7.821 23.786-.242c.645 0-.08-12.255-.483-13.465-.726-2.016-2.58-3.709-2.58-5.644.08-2.338 2.58-3.79 1.773-6.934-.806-2.742-2.741-5-4.838-6.934-2.015-1.855-4.434-3.387-6.692-2.984z" fill="#6FCFA1" stroke="#6FCFA1" stroke-width=".8" stroke-miterlimit="10"/><path d="M64.264 45.87c-1.21.16-2.338.886-3.306 2.176-2.177 3.064-7.337 8.547-4.515 12.498 3.709 5.16-4.596 5.966-3.87 13.788l.725 7.82 23.706-.241c.645 0-.08-12.256-.484-13.466-.726-2.015-2.58-3.708-2.58-5.644.08-2.338 2.58-3.79 1.774-6.934-.726-2.741-2.742-4.999-4.838-6.934-1.935-1.855-4.354-3.386-6.612-3.064zM27.658 28.13c-1.048.162-2.096.807-3.064 2.178-2.096 3.063-6.934 8.466-4.193 12.497 3.467 5.16-4.354 5.967-3.709 13.788l.726 7.74 22.254-.16c.645 0-.08-12.337-.484-13.466-.645-2.096-2.419-3.79-2.338-5.725 0-2.257 2.419-3.709 1.612-6.853-.725-2.822-2.58-5-4.515-6.934-1.854-1.855-4.193-3.387-6.289-3.064z" fill="#AFE8D9" stroke="#AFE8D9" stroke-width=".8" stroke-miterlimit="10"/><path d="M35.64 48.61c-1.209.162-2.338.807-3.305 2.097-2.177 3.064-7.338 8.547-4.516 12.578 3.71 5.16-4.596 5.967-3.87 13.707l.726 7.822 23.705-.242c.645 0-.08-12.256-.484-13.466-.726-2.015-2.58-3.709-2.58-5.644.08-2.338 2.58-3.79 1.774-6.934-.726-2.741-2.742-5-4.838-6.934-2.016-1.855-4.435-3.306-6.612-2.983z" fill="#6FCFA1" stroke="#6FCFA1" stroke-width=".8" stroke-miterlimit="10"/><path d="M38.543 45.466a4.534 4.534 0 00-.887-.08h-1.693c-.376 0-.726.053-1.048.16-.538.108-1.075.243-1.613.404a2.88 2.88 0 01-.725.242c-.323.08-.565.161-.887.322-.162.081-.323.242-.565.323l-.806.484-.645.322c-.323.161-.565.403-.806.565a7.474 7.474 0 01-1.13 1.128c-.16.081-.322.242-.483.404a2.148 2.148 0 00-.484.806 15.19 15.19 0 00-1.29 3.144c-.161.565-.323 1.21-.323 1.774a5.884 5.884 0 00.081 1.694c.054.645.161 1.263.323 1.854.08.564.242 1.129.483 1.613.242.483.565.886.968 1.21l1.129 1.128 1.451 1.129c.484.322.94.672 1.37 1.048.888.564 1.936 1.048 3.065 1.21.564.08 1.21.08 1.774.16.564 0 1.129.081 1.693.081.484 0 1.129-.08 1.613-.161.322-.108.618-.215.887-.323l.322-.16c.054-.055.108-.081.161-.081.08-.081.242-.242.08-.081.081-.08.243-.08.323-.161.108 0 .242-.027.404-.08.268-.108.564-.27.887-.485.483-.242.967-.645 1.37-1.048a13.269 13.269 0 002.097-2.5c.322-.483.564-.967.645-1.531l.483-1.452c.162-.645.27-1.29.323-1.935.08-.564-.08-1.048-.08-1.613 0-.644-.081-1.29-.243-1.935-.08-.483-.242-.967-.483-1.532-.323-.967-.887-2.015-1.694-2.741a3.75 3.75 0 01-.725-.564c-.054 0-.108-.027-.162-.081l-.322-.323a6.06 6.06 0 00-.645-.564c-.242-.161-.564-.242-.887-.323a2.876 2.876 0 00-.726-.241c-.107-.054-.107-.054 0 0 0 0-.08-.081-.161-.081-.054-.054-.108-.08-.161-.08 0-.054-.027-.081-.08-.081.107.053.107.053 0 0-.323-.242-.646-.565-1.049-.726a1.375 1.375 0 00-.806 0 1.148 1.148 0 00-.726 1.048c0 .484.403.887.887.887s.968-.403.968-.887v-.08c-.054.376-.27.645-.646.806h-.322.08c.081 0 .162.08-.08-.08.054.053.107.08.161.08.242.242.08.08 0 0 .161.161.376.322.645.484.242.16.484.322.806.403.215.107.43.188.646.242.107.053.215.08.322.08l.08.081c-.107-.054-.107-.054 0 0h.081c0 .054.027.08.081.08l-.08-.08.16.161.162.161c.215.215.457.43.725.645.108.054.215.135.323.242 0 0 .242.081.242.162.054.053.108.08.161.08.054.108.135.215.242.323l.08.08.162.323c.161.215.269.43.322.645.054 0 .081.027.081.08.08.081.08.081 0 0 .08.081.08.242.161.323.054.269.135.538.242.806.054.216.135.457.242.726 0 .108.027.215.08.323v.242c.081.242 0-.162 0 0a4 4 0 01.081.806v.806c.054.269.081.538.081.806a.715.715 0 01-.08.323v.322c-.108.484-.242.995-.404 1.533-.107.215-.188.43-.242.645a.716.716 0 01-.08.322c0 .08-.08.403-.08.403-.055.054-.081.108-.081.161a.938.938 0 00-.162.242 4.24 4.24 0 00-.403.645 1.265 1.265 0 00-.242.323h-.08c-.054.107-.027.107.08 0-.053 0-.08.027-.08.08-.162.216-.35.404-.565.565a9.667 9.667 0 01-1.048 1.048c-.054.054-.107.08-.161.08.161-.08-.08.081 0 0a1.265 1.265 0 01-.323.243c-.161.08-.403.322-.645.322.242 0 .08 0 0 0-.054.054-.107.08-.161.08l-.323.162a16.13 16.13 0 01-.887.323l-.322.16c.161 0-.161.082 0 0 0 .055-.027.082-.08.082a16.42 16.42 0 01-.726.16c.242 0-.162.081 0 0h-.162c-.107 0-.241.028-.403.081h-.806c-.484-.08-.968-.16-1.451-.16a3 3 0 01-.726-.081h-.242c.242 0-.242 0 0 0a1.325 1.325 0 00-.403-.081 5.723 5.723 0 01-.726-.242.716.716 0 01-.322-.08c-.054-.054-.108-.081-.162-.081.162.08-.16-.08 0 0a6.966 6.966 0 01-1.29-.807c-.403-.322-.887-.645-1.29-.967.162.161-.08-.08-.161-.08a.528.528 0 00-.242-.243 6.05 6.05 0 01-.645-.564 18.586 18.586 0 00-1.048-.968 268.17 268.17 0 00-.242-.242c-.054-.053-.08-.107-.08-.16-.162-.081 0 .08 0 .08l-.162-.323c.08.242-.08-.16 0 0 0-.053-.027-.107-.08-.161-.162-.484-.242-.967-.323-1.451a15.74 15.74 0 00-.161-.726.898.898 0 01-.081-.403c0-.108-.027-.188-.08-.242v-1.451c0-.242.08-.484.16-.726a2.88 2.88 0 01.242-.726c.054-.269.108-.51.162-.725.08-.242.161-.484.322-.726-.08.08-.16.242 0 0 0-.054.027-.108.08-.161l.162-.323a9.72 9.72 0 00.323-.725.937.937 0 00.161-.242c.054-.108.054-.108 0 0 0 0 .08-.081.08-.162.162-.16.404-.242.565-.403.403-.322.726-.726 1.048-1.048.08 0 .162-.08.162-.08l.322-.162a4.24 4.24 0 00.645-.403c.215-.108.457-.242.726-.403a.939.939 0 01.242-.161c.08 0 .322-.162.322-.162h.161l.323-.161c.269-.054.537-.134.806-.242.484-.161.968-.296 1.452-.403.107 0 .241-.027.403-.08 0 0-.242.08-.08 0h1.772c.08 0 .323.08.403.08h.161c.242 0 .484.08.726-.08.161-.081.323-.323.403-.565.08-.403-.161-1.048-.645-1.129z" fill="#fff"/><path d="M40.962 46.514h.403c.08.08.161.161.242.161l-.08-.08a2.64 2.64 0 00-.404-.323c-.242-.16-.645-.241-.887-.322a3.14 3.14 0 01-.403-.161h-.322c-.08 0-.242-.081-.08 0 .16 0 0 0 0-.081a15.74 15.74 0 01-.727-.161c-.322-.08-.725-.162-1.048-.162-.242-.08-.564 0-.806 0h-1.774c-.645 0-1.29 0-1.935.081a.898.898 0 01-.403.08c.161 0-.161.081 0 0a1.322 1.322 0 01-.403.081c-.242.081-.484.162-.807.242a2.88 2.88 0 00-.725.242 1.794 1.794 0 00-.565.242c-.053 0-.107.027-.161.08-.323.162-.645.242-.887.404-.269.161-.51.35-.726.564-.483.323-.887.726-1.37 1.129-.377.43-.726.914-1.049 1.451a4.24 4.24 0 00-.403.645c-.08.081-.161.242-.161.323 0 0 .08-.161 0-.08v.08a1.263 1.263 0 00-.242.323c-.403.403-.564 1.048-.726 1.612l-.16.968v.806c-.081.645-.162 1.21-.081 1.774.08.645.16 1.21.322 1.854.08.565.403 1.13.645 1.694.242.483.403.887.726 1.37.322.484.726.968 1.129 1.452.403.403.887.806 1.37 1.209.404.242.887.484 1.371.726.484.322 1.129.484 1.693.725l.807.162c.215.053.403.08.564.08.108 0 .188.027.242.08.645.108 1.263.162 1.854.162h3.629a2.508 2.508 0 001.048-.403.933.933 0 00.242-.161c.08 0 .161 0 .161-.08 0 0-.161.08-.08.08.053-.054.107-.08.16-.08.323-.082.646-.162.888-.323a9.62 9.62 0 00.725-.323 7.571 7.571 0 001.452-.968c.43-.322.833-.725 1.21-1.209a1.44 1.44 0 00.402-.403c.054-.054.08-.108.08-.161l.081-.081c.162-.242.404-.484.565-.726.161-.215.296-.457.403-.725l.161-.323c0-.08-.08.08-.08.08.053 0 .08-.026.08-.08l.162-.322a4.212 4.212 0 00.564-1.694 10.3 10.3 0 00.161-1.854v-.806c0-.43-.08-.807-.242-1.13 0-.08-.08-.241-.16-.322 0 0 .08.161.08.08-.054 0-.08-.026-.08-.08v-.161c-.081-.322-.243-.564-.243-.806a.715.715 0 01-.08-.323l-.162-.322a1.11 1.11 0 01-.242-.323l.162.161c0 .162 0 .081 0 0a.939.939 0 01-.162-.242 3.132 3.132 0 00-.16-.403c-.081 0-.081-.08-.081-.16 0 0 .08.241 0 .16a.618.618 0 01-.081-.241 1.013 1.013 0 00-.242-.404 8.466 8.466 0 01-.484-.725 7.57 7.57 0 00-.967-1.452c-.403-.483-.887-.806-1.371-1.129-.484-.241-.887-.564-1.37-.886l-1.452-.726c-.403-.161-.968-.161-1.21.322-.241.404-.16 1.049.323 1.21.484.242.968.484 1.451.806.404.242.807.565 1.29.806.215.162.404.296.565.404.242.16-.08-.162 0 0l.161.16.323.323c.053.054.08.108.08.162.161.16-.08-.162.08 0 .055.107.108.215.162.322.161.215.296.43.403.645l.484.645c.054.054.08.135.08.242l.081.08v-.08c0 .108.027.188.081.242.054.054.08.108.08.161l.162.162v.08c.054.054.054.027 0-.08-.08.08.161.483.161.483.08.08.242.404.08.08.081.162-.08-.16 0 0a.719.719 0 01.081.324c.081.322.162.483.242.725.054.323.161.618.323.887l.08.161v.968c0 .269-.026.537-.08.806v.403c0 .108-.027.188-.08.242.08-.242 0 0 0 .08a1.6 1.6 0 01-.162.727v.08c-.054.054-.054.027 0-.08v.16a1.265 1.265 0 00-.242.323l-.161.323-.161.322-.162.323c-.08.161-.161.322-.242.403l.081-.08c-.054 0-.08.026-.08.08l-.162.161-.242.242a1.012 1.012 0 01-.242.403c.08-.16-.161.162 0 0a.527.527 0 01-.242.242 5.28 5.28 0 00-.483.565 1.265 1.265 0 00-.323.242c-.054.053-.08.107-.08.16-.108.054-.108.028 0-.08l-.081.08c-.43.323-.887.592-1.37.807l-.323.161c-.081.081-.242.242-.323.162h.08-.08c-.054.053-.107.08-.161.08a1.52 1.52 0 01-.484.08c-.242.162-.484.323-.726.404l-.08.08h-.162c.108 0 .108 0 0 0h-.08c-1.21.081-2.338 0-3.467 0h-.887c-.054 0-.108-.026-.161-.08h-.484a1.788 1.788 0 00-.565-.08c.242 0-.241-.081 0 0-.053-.054-.107-.081-.16-.081l-.807-.162a3.145 3.145 0 00-.403-.16c-.081-.081-.242-.081-.323-.162l.08.08c-.053-.053-.107-.08-.16-.08-.054 0-.108-.027-.162-.08a1.263 1.263 0 01-.322-.242 4.09 4.09 0 01-1.29-.726h-.081c-.054-.054-.027-.054.08 0-.08 0-.16-.08-.16-.08l-.323-.323-.564-.565a5.28 5.28 0 00-.484-.564c0-.054-.027-.108-.081-.161a3.938 3.938 0 01-.242-.404c-.322-.403-.484-.886-.726-1.37a3.126 3.126 0 01-.16-.404c.08.162-.081-.16 0 0 0 0-.028-.026-.081-.08a2.157 2.157 0 01-.162-.806l-.16-.807c0-.08-.082-.242 0 0v-.242a1.52 1.52 0 01-.082-.483c0-.484.081-1.049.081-1.613v-.403c0-.08 0-.161.08-.161-.053 0-.08.027-.08.08 0-.053.027-.107.08-.161.055-.269.108-.51.162-.726.054-.16.08-.295.08-.403l.081-.08c.08-.242-.08.16 0-.081l.162-.323v.081l.322-.322c.08-.242.242-.404.322-.645.162-.216.296-.43.404-.646a1.28 1.28 0 00.242-.322c.08-.161-.162.161 0 0 .053-.054.08-.108.08-.161l.565-.565c.215-.161.403-.322.564-.484l.161-.16c.08 0 .242-.162.08 0l.323-.323c.215-.108.43-.242.645-.403.162-.081-.241.08 0 0h.162c.161-.108.35-.189.564-.242.054-.054.108-.081.161-.081.162-.054.296-.107.404-.161.241-.08.483-.161.806-.242a.62.62 0 01.242-.08c.08 0 .322-.081.08 0a.715.715 0 01.323-.081.896.896 0 00.403-.081h.161c.08 0 .404-.08.162-.08h3.709c.242 0-.162-.081 0 0 .107 0 .188.026.242.08l.806.161c.107 0 .215.027.322.08h.162c-.162 0 .322.081.322.081.054 0 .108.027.161.081l.484.161c.054 0 .108.027.161.081.242.08-.16-.08 0 0-.241-.161-.08-.161-.08-.08.053.053.107.08.161.08.322.323.645.484 1.129.403.484-.08.726-.725.645-1.129-.161-.483-.645-.725-1.129-.645z" fill="#fff"/><path d="M28.626 62.318c-.404-.404-.968-.404-1.452-.162-.242.08-.403.323-.645.403-.242.242-.564.404-.806.565a3.824 3.824 0 01-.806.806 12.2 12.2 0 00-1.694 1.855c-.483.725-.967 1.37-1.37 2.015-.484.726-.887 1.452-1.29 2.177-.484.726-.887 1.532-1.049 2.42-.16.402-.241.806-.322 1.209l-.161 1.451c-.081.887-.162 1.774-.242 2.58v3.79c-.08.484 0 .967.242 1.37.242.484.725.726 1.29.726h.403c.215 0 .43.027.645.08h1.29c.43 0 .86.028 1.29.082l1.29.16c.108 0 .108 0 0 0h.08c.108 0 .216.028.323.082.269.053.538.08.807.08.886.08 1.773 0 2.66 0h7.983c.403 0 .887-.08 1.29-.161.403 0 .806 0 1.29-.08.43 0 .833-.028 1.21-.081.268 0 .537-.027.806-.081.053-.054.134-.08.242-.08h.16-.08.242c.242-.081-.322-.081.08 0h.323c.161 0 .323-.028.484-.081.107 0 .107 0 0 0h.403a.715.715 0 01.323-.081h1.37a.716.716 0 01.323-.08h.161v-1.855h-.08c-.484.08-.887.403-.887.967 0 .484.403.887.887.887h.08a.895.895 0 00.887-.887c0-.564-.403-.887-.887-.967-.242 0-.484.08-.726.161-.16 0-.08-.08 0-.08l-.08.08a.715.715 0 01-.323-.08c-.215 0-.43.026-.645.08h-.403c-.054.054-.107.08-.161.08a3 3 0 00-.726.081c0-.08-.161 0 0 0h-.08a.716.716 0 00-.323-.08c-.484 0-.887.161-1.29.242h-.161c.161 0-.162.08 0 0h-.323a1.81 1.81 0 01-.564.08h-1.29c-.403.081-.807.162-1.21.162-.376.053-.78.08-1.21.08-1.692-.08-3.466 0-5.16 0h-4.757c-.16-.08 0 0 .08 0a.62.62 0 01-.24-.08c-.431-.054-.888-.108-1.372-.162-.403-.08-.806-.16-1.21-.16h-1.209c-.483 0-.886-.082-1.29-.082h-.725c-.162 0 .16.081.08 0-.161 0 .162.081.08.081-.16-.08.162.08.082 0-.081-.08.08.242 0 .08-.081-.08.08 0 0 .081.08-.08 0-.242 0-.242.08.162 0 .162 0 .081v-2.499c0-.807 0-1.694.08-2.5.108-.806.188-1.64.242-2.5 0-.053.027-.107.08-.16v-.081c-.08.16 0 0 0-.081v-.08c.055-.216.108-.404.162-.565l.242-1.21c.054-.053.08-.107.08-.16.081-.082-.08.16 0 .08l.162-.323a2.03 2.03 0 01.242-.484 17.9 17.9 0 01.645-1.048c.215-.376.403-.725.564-1.048.269-.322.51-.645.726-.967l.645-.968.322-.484a.939.939 0 01.162-.242l-.081.081.161-.161c.215-.323.484-.619.806-.887.242-.242.565-.484.807-.726a2.64 2.64 0 01.403-.322v-.081c.054-.054.107-.08.161-.08a12.2 12.2 0 01.565-.404c.053-.054.107-.08.16-.08.082-.081.162-.081.162-.081s-.242.08-.08 0h-.323c-.054 0-.108-.027-.161-.08-.162-.108-.188-.135-.08-.081a.877.877 0 001.209 0c.403-.403.403-.887 0-1.29zm13.949 2.015s.08.08.16 0c0 0-.16-.08-.08 0h.08c.055.054.081.108.081.162.162.08-.16-.162 0 0 .054 0 .108.026.162.08.107.108.188.215.242.323.403.403.806.806 1.129 1.21-.081-.082 0 0 .08 0 0 .053.027.107.08.16.054.162.135.296.243.403.16.323.322.645.564.807-.08-.08-.161-.08 0 0v.08c.054.054.08.108.08.162.081.16-.08-.162 0 0 .054.053.081.134.081.242.108.215.189.456.242.725.054.108.108.242.161.403.081.081 0-.16 0-.08v.161l.162.484c.053.161.08.295.08.403.054.161.108.296.162.403l.08.08c.08.162 0 .081-.08-.241.08.242.08.484.322.645.161.161.403.242.645.242.403 0 .968-.403.887-.887-.08-.242-.08-.484-.242-.726 0 .161 0 .08 0 0-.053-.054-.08-.134-.08-.242a4.459 4.459 0 00-.323-1.129v.001c-.054-.054-.08-.108-.08-.162l-.162-.484c-.08-.322-.161-.645-.403-.967 0-.054-.027-.108-.08-.161.08.08-.242-.242-.242-.323 0 0 .16.242 0 .08v-.08a.939.939 0 01-.162-.242c-.161-.269-.35-.564-.564-.887-.403-.483-.887-.887-1.29-1.37-.484-.565-1.129-1.049-1.935-1.049a.895.895 0 00-.887.887c0 .484.403.887.887.887z" fill="#fff"/><path d="M27.255 61.915c-.403 0-.887.08-1.21.322-.16.161-.403.242-.564.403.08-.08.161-.08.08 0-.053 0-.107.027-.16.08a1.262 1.262 0 01-.323.243c-.323.242-.564.564-.806.806a2.64 2.64 0 01-.323.403l-.161.162-.242.241c.161-.16.08 0 0 0l-.323.323a2.15 2.15 0 00-.403.564l-.484.968c-.322.725-.725 1.37-1.128 2.096a19.19 19.19 0 00-.484 1.048c-.161.404-.403.807-.565 1.21-.241.645-.322 1.37-.483 2.096-.081.403-.162.887-.162 1.29v.403c-.053.216-.08.457-.08.726-.054.806-.054 1.64 0 2.5v3.709c0 .484 0 .967.322 1.37.323.323.807.404 1.21.404h1.29c.806 0 1.612-.081 2.338 0 .215.053.403.08.564.08h.162a.71.71 0 00.322.08c.377.055.78.108 1.21.162.806.242 1.693.323 2.58.403a18.2 18.2 0 002.419.161c.806.081 1.612 0 2.419 0h6.209c.402 0 .806.081 1.209 0 .806-.08 1.612-.08 2.419-.08h1.128c.484 0 .968-.403.968-.887-.08-.484-.403-.887-.968-.887-.725 0-1.532-.08-2.338 0h-1.129c-.403.08-.806.08-1.129.08h-9.594c-.726-.08-1.533-.16-2.339-.241a1.523 1.523 0 00-.484-.08h-.16l-.323-.081a8.455 8.455 0 00-1.13-.242c-.806-.081-1.692-.242-2.499-.323h-2.338c-.322 0-.726 0-1.048.08h.161c-.161-.08.08 0 .08 0a.527.527 0 01.243.243c.08.16 0 .16 0 .08v-.322c.08-.807 0-1.532 0-2.339v-4.031.08c0-.08 0-.241.08-.322v-.967c0-.162.08.08 0 .08l.08-.161v-.323a5.96 5.96 0 00.243-1.048 6.35 6.35 0 01.242-.967c0-.081.08-.242.08-.323 0 0-.08.242 0 .08v-.08c.108-.215.215-.403.323-.564.322-.645.564-1.371.967-2.016.323-.645.726-1.29 1.049-1.935a2.03 2.03 0 01.242-.484l.08-.08-.08.08c.08 0 .16-.161.241-.161l.162-.162v-.08c.053-.054.08-.108.08-.161.108-.108.108-.108 0 0 .08-.162.242-.242.403-.404.242-.242.484-.483.726-.806l.08-.08c-.08.08.081 0 .081 0 0-.054.027-.081.08-.081.216-.108.404-.242.565-.403.081-.162-.16.08-.08 0 .053 0 .08-.027.08-.081h.162c.08-.08 0-.08 0 0-.162 0 0 0 0-.08h.16c.485 0 .968-.404.888-.888 0-.483-.323-.886-.887-.886z" fill="#fff"/><path d="M26.852 61.995c-.323 0-.565 0-.887.161a3.127 3.127 0 01-.403.162c-.323.242-.645.403-.968.725-.242.162-.403.404-.645.645l-.08.081c-.081.08-.081 0 0 0h-.081c0 .054-.027.08-.08.08l-.485.484a3.201 3.201 0 00-.403.484c0 .054-.027.08-.08.08-.081.162.08 0 .08 0s-.161.162-.242.162c-.268.269-.51.591-.725.968a4.974 4.974 0 00-.565.887l-.322.483-.162.162c0 .08-.16.242-.16.322 0-.161.16-.161.08-.08-.054 0-.08.026-.08.08l-.162.161a3.201 3.201 0 00-.403.484c-.08.242-.08.484-.162.645 0 .242-.08.403-.16.565a7.08 7.08 0 00-.162.564c-.054.161-.107.35-.161.564a5.99 5.99 0 00-.242 1.049c-.161.887-.403 1.693-.484 2.5-.08.806-.161 1.531-.161 2.337v1.29c.054.484.134.968.242 1.452v.403l.08.08c-.053-.107-.053-.134 0-.08v1.371a.71.71 0 01.081.322v.323c0 .484.403.887.887.887s.968-.403.887-.887v-.726c-.08-.161 0 .08 0 .08 0-.053-.027-.107-.08-.16v-.323c0-.376-.028-.78-.081-1.21 0-.16-.027-.349-.081-.564v-.242c-.054-.053-.08-.107-.08-.161 0 .242 0 .08 0 0v-3.386c.053-.162.08-.35.08-.565v-.242c.08-.161 0 0 0 .08 0-.08.08-.16.08-.241.054-.323.108-.672.162-1.048.107-.377.188-.753.242-1.13.08-.402.242-.725.322-1.047.054-.377.162-.726.323-1.048.053-.162.08-.323.08-.484v-.162c.081-.08.081.081 0 .081 0 0 .162-.242.081-.08-.08.08.08-.081.08-.162l.162-.161.322-.484.646-.967c.241-.242.403-.565.564-.887.08-.081-.08 0-.08.08l.08-.08.161-.162a1.44 1.44 0 00.403-.403c.108-.107.188-.215.242-.322 0-.054.027-.08.08-.08v-.081c.055-.054.055-.027 0 .08l.323-.403s-.16.161 0 .08c0-.053.027-.08.081-.08a1.26 1.26 0 01.323-.242c.08-.161.241-.322.322-.403.161-.161.322-.242.403-.403 0 0-.161.161 0 .08 0-.053.027-.08.08-.08a.937.937 0 01.243-.162c.16-.107.295-.188.403-.241.08-.081.161-.081.242-.162-.054 0-.108.027-.162.081h-.08.242c.403 0 .887-.403.887-.887-.081-.484-.404-.887-.887-.887zm16.932 2.419h.322c-.107 0-.107 0 0 0-.107 0-.188-.054-.241-.161 0 .053.027.08.08.08l-.08-.08c.161.322.322.564.564.725l.645.646c.054.053.108.08.161.08 0 .054.027.108.081.161l-.08-.08c.16.08.241.242.241.403l.162.161c.08.242-.081-.161 0 0 .053.215.134.403.241.564.054.162.135.296.242.404 0 .08.081.242 0 .08.054.054.054.054 0 0 0-.107 0-.107 0 0 0 .108.027.215.081.323v-.08.16c0 .216.027.43.08.645 0 .404.242.646.404.887v-.886c0 .053-.027.08-.08.08-.243.403-.081 1.048.322 1.29.483.242.967.08 1.29-.322v-.162c.242-.241.161-.564 0-.886a1.265 1.265 0 00-.242-.323c0-.108.027-.108.08 0l-.08-.08c.054.107.054.134 0 .08v-.806c-.054-.108-.054-.08 0 .08 0-.053-.027-.107-.08-.16v-.404c-.081-.242-.243-.323-.323-.484a.939.939 0 00-.161-.242c0-.107.026-.107.08 0-.054 0-.08-.027-.08-.08-.162-.323-.242-.645-.484-.968a7.878 7.878 0 00-1.371-1.451c-.054-.108-.054-.108 0 0v-.08l-.161-.162a.777.777 0 00-.323-.403 1.387 1.387 0 00-.887-.323h-.403a.895.895 0 00-.887.887c0 .484.403.887.887.887z" fill="#fff"/><path d="M43.784 64.978c.565.565 1.048 1.13 1.613 1.694.16.107.295.242.403.403l.161.161c.08 0 .161.161.242.242l-.08-.08c.053.053.08.107.08.16a.937.937 0 01.161.243c.108.16.188.322.242.483.054.054.08.108.08.162.081.16-.08-.162 0 0 .054.053.081.134.081.242.108.16.188.349.242.564l.323 1.129c.107.376.188.78.242 1.21.053.16.107.349.161.564v-.081.484c.08.806.08 1.612.08 2.5.054.376.108.779.162 1.209.054.43.08.833.08 1.21-.08.886-.08 1.692-.08 2.58.054.16.08.349.08.564v.242c-.08 0-.08.16-.08.16-.054.216-.08.458-.08.727v-.081c.08.08 0 .323 0 .323a.716.716 0 01-.081.322v.08c.08-.16 0 .242 0 0v.081c.08-.161 0 .242 0 0v.08l.08-.08c.08-.08.161-.161.242-.161h.08a2.653 2.653 0 00-.644-.08h-.323c.161.08.08 0 0 0h-.161c-.887-.162-1.935-.565-2.742.08-.322.323-.322.968 0 1.29.404.403.887.323 1.29 0l-.08.08c-.161.108-.215.135-.161.081h.644-.08a.715.715 0 00.323.081c.215.054.403.108.564.161.484.08.968.08 1.451.08.323 0 .565-.08.807-.322.16-.16.242-.242.322-.483.162-.242.162-.484.242-.807v-.322c0-.162.027-.323.08-.484 0 0-.08-.161 0-.161 0 0-.08.242 0 .08.054-.268.081-.537.081-.806v-3.79c0-.483-.08-.886-.16-1.37-.081-.807 0-1.694-.081-2.5-.081-1.693-.484-3.386-1.049-4.999-.242-.484-.403-.968-.645-1.37a4.887 4.887 0 00-.967-1.13c-.242-.322-.645-.564-.887-.886-.323-.323-.645-.726-.968-1.049-.322-.322-.967-.322-1.29 0-.322.404-.322.968 0 1.29z" fill="#fff"/><path d="M46.364 69.252c0 .269.027.538.08.806a.63.63 0 00.081.242v.161c0 .484.054.968.162 1.452v1.127c0 .484.08.968.161 1.371l.161.645c0 .108 0 .108 0 0v6.532c-.08.241-.08.564-.08.806-.081.483.403.967.887.967.483-.08.886-.403.886-.967v-.162c0-.08.081-.08 0 .081a.62.62 0 01.081-.242v-6.208c0-.484 0-.968-.08-1.452a.717.717 0 01-.081-.322v-.162.081a2.648 2.648 0 01-.08-.645c-.081-.484 0-.887-.081-1.37 0-.27-.027-.565-.081-.888v-.08c-.08-.242 0 .161 0-.08a.715.715 0 01-.08-.323c0-.323-.027-.619-.081-.887a.715.715 0 00-.08-.323v-.161a.895.895 0 00-.888-.887.895.895 0 00-.887.887z" fill="#fff"/><path d="M46.203 81.91h-.08c.107.485.241.995.403 1.533 0-.054.026-.08.08-.08a.936.936 0 00-.242.16c.054-.053.108-.08.162-.08a.618.618 0 01-.242.08h.16-.241c.242 0 .484 0 .726-.08a2.08 2.08 0 00.483-.242.939.939 0 01.242-.161c-.053.053-.134.08-.242.08h.162-.242.08v-1.774a.897.897 0 00-.403.081.897.897 0 00-.403.08 1.431 1.431 0 00-.645.404c-.242.161-.322.484-.403.806.054.054.08.135.08.242 0 .108.054.188.162.242.08.161.242.323.484.323.16.08.403.08.645.08h.403-.242.161a.618.618 0 00-.242-.08h.08a.935.935 0 00-.241-.162 137.923 137.923 0 01-.08-.08.62.62 0 00-.081-.242v-.404.081a.62.62 0 00.08-.242v.08a.936.936 0 01.162-.241l-.081.08c.054-.053.108-.08.161-.08h-.161.242-.161.241c-.16 0-.322-.027-.483-.08a1.521 1.521 0 00-.484-.081h-.323c-.241 0-.483.08-.645.161a.939.939 0 00-.242.161.935.935 0 00-.16.242.91.91 0 00-.081.645c.16.323.403.565.725.645.242.08.484.08.726 0 .161-.08.322-.161.484-.161h-.242c.161 0 .322.08.484.08h.08a.716.716 0 00.323-.08c.161-.08.403-.161.564-.323.161-.16.242-.403.242-.645s-.08-.483-.242-.645c-.161-.16-.403-.242-.645-.242s-.484.081-.645.242c0 .054-.027.081-.08.081a.939.939 0 00.241-.161c-.053 0-.08.027-.08.08a.935.935 0 01.242-.16c-.054.053-.108.08-.162.08a.62.62 0 01.242-.08h-.322c-.161 0-.35.026-.565.08-.16 0-.322.08-.564.161.107 0 .188-.027.242-.08h-.08a.62.62 0 00.241.08c.054 0 .108.027.161.08.054 0 .108.027.162.081l.16.162a.62.62 0 01.081.241 7.382 7.382 0 00-.403.968c-.053.054-.134.08-.242.08h.162-.242c.161 0 .322.028.484.081a.62.62 0 00-.242-.08c.322.08.645.16.967.16.484 0 1.048-.241 1.29-.644a1.12 1.12 0 00.162-.887c-.162-.323-.404-.564-.807-.726a1.004 1.004 0 00-.564 0h-.484.242-.08c.214.269.43.565.644.887a.618.618 0 01-.08.242c0-.054.027-.08.08-.08a.939.939 0 00-.16.241l.08-.08-.162.16.081-.08-.161.162a.867.867 0 01.484-.162h-.242.08c.242 0 .484-.08.645-.242.162-.16.323-.403.323-.645s-.08-.483-.323-.645c-.16-.16-.376-.242-.645-.242h-.08a.715.715 0 00-.323.081c-.107 0-.242.054-.403.161l-.322.162a.62.62 0 00.242-.081c-.216.054-.43.08-.646.08a1.78 1.78 0 00-.645.404c-.242.242-.322.564-.242.887.081.322.323.483.646.645h.08c.161.08.484 0 .645-.08.242-.162.403-.323.484-.565 0-.242 0-.484-.161-.726a1.217 1.217 0 00-.484-.403zM29.996 27.727a5.433 5.433 0 00-.887-.08 5.423 5.423 0 00-.887-.08h-.806c-.376.053-.726.107-1.048.16a9.191 9.191 0 00-1.613.484 2.88 2.88 0 00-.725.242c-.323.08-.565.161-.887.242-.162.161-.403.242-.565.403a5.631 5.631 0 01-.806.403 4.24 4.24 0 01-.645.403 2.897 2.897 0 00-.806.565c-.403.322-.726.726-1.13 1.048l-.483.484c-.242.242-.403.484-.484.806-.564.968-.967 2.016-1.29 3.064-.161.645-.322 1.21-.322 1.855a8.091 8.091 0 000 1.612c.107.645.242 1.29.403 1.935a7.17 7.17 0 00.484 1.613c.16.484.564.806.967 1.21.403.322.726.725 1.129 1.048.484.43.968.833 1.451 1.209.43.322.887.645 1.371.968.887.645 1.935 1.048 3.064 1.209.564.08 1.21.161 1.774.161.564.08 1.129.161 1.613.161.564-.08 1.128-.08 1.693-.241.268-.054.537-.162.806-.323.161-.054.296-.107.403-.161.054 0 .108-.027.162-.08 0 0 .241-.162.08 0 .08-.081.242-.081.323-.162.107-.054.242-.107.403-.161.269-.108.564-.242.887-.403.483-.323.967-.645 1.37-1.049a13.272 13.272 0 002.097-2.5c.242-.483.564-.967.645-1.531.161-.565.322-1.048.484-1.532.16-.591.268-1.21.322-1.855.08-.564-.08-1.128-.08-1.693 0-.645-.081-1.21-.242-1.854-.081-.484-.323-1.049-.484-1.532-.323-1.048-.887-2.097-1.693-2.742a7.317 7.317 0 00-.807-.564c0-.054-.027-.08-.08-.08l-.081-.081a.528.528 0 01-.242-.242 6.05 6.05 0 00-.645-.565c-.242-.161-.564-.242-.887-.403a5.697 5.697 0 01-.725-.242h-.001s-.16 0-.16-.08c-.054 0-.108-.027-.162-.081h-.08c.107.054.107.054 0 0-.323-.323-.646-.564-1.13-.726a1.12 1.12 0 00-.725 0c-.403.08-.726.565-.726.968 0 .484.403.967.887.967.484-.08.968-.403.887-.967 0 .376-.188.618-.564.726a.342.342 0 01-.323 0h.08c.081.08.162.16-.08 0 .054 0 .108.026.161.08.081.08.242.161 0-.08.162.215.35.403.565.564.322.161.564.242.887.403.161.054.376.108.645.161l.322.162c.054 0 .08.027.08.08-.107-.053-.107-.08 0-.08 0 .053.028.08.081.08h.081c.054.054.027.054-.08 0l.16.08a.939.939 0 00.162.243c.215.215.457.403.726.564.107.108.215.188.322.242l.242.161c.054.054.08.108.08.162.108.053.216.134.323.242 0 .08.08.08.08.16a.936.936 0 00.162.243l.323.645c.053.053.08.107.08.161.081.08.081.08 0-.08.081.08.081.322.162.402.053.27.134.511.242.726.053.269.134.51.241.726 0 .161.027.295.081.403v.241c.054.27.08.511.08.727v.806a4.1 4.1 0 01.081.806c0 .108-.027.242-.08.403.08-.242 0-.08 0 0v.242a7.27 7.27 0 01-.484 1.532c-.054.215-.108.457-.161.726a.716.716 0 01-.081.322l-.08.323c-.054.054-.081.107-.081.161a484.6 484.6 0 01-.162.323 5.26 5.26 0 01-.483.564l-.162.323-.08.08.08-.08c-.053.053-.08.107-.08.16l-.565.565a9.66 9.66 0 01-1.048 1.048c-.054 0-.107.027-.161.081.161-.161-.08.08 0 0a1.262 1.262 0 00-.323.242c-.16.08-.403.242-.645.323.242-.081.081 0 0 0-.053 0-.107.026-.16.08a.716.716 0 00-.323.08 4.46 4.46 0 00-.887.404 484.6 484.6 0 00-.323.161c.161-.08-.161.08 0 0h-.08a5.75 5.75 0 01-.726.242c.242-.08-.242 0 0 0h-1.371c-.484 0-.968-.08-1.451-.161h-.726c-.107 0-.188-.027-.242-.08.242.08-.242 0 0 0h-.403a5.723 5.723 0 01-.726-.243l-.322-.161h-.161c.16.08-.162-.08 0 0-.484-.242-.887-.564-1.29-.806-.404-.323-.887-.645-1.29-.968.16.161-.081-.08-.162-.08a1.26 1.26 0 01-.242-.323l-.645-.484a9.65 9.65 0 01-1.048-1.048.527.527 0 01-.242-.242c-.054 0-.08-.027-.08-.08l-.162-.242c.08.16-.08-.242 0 0-.053-.054-.08-.108-.08-.162-.162-.483-.242-.967-.403-1.451a4.099 4.099 0 01-.081-.806.716.716 0 01-.08-.323.716.716 0 01-.081-.322v-1.371c0-.242.08-.565.16-.806.055-.215.108-.457.162-.726.108-.215.188-.43.242-.645l.242-.726c-.08.242 0 0 .08 0v-.161c.054-.161.135-.296.242-.403l.323-.645a.939.939 0 01.161-.242v-.08c.054-.054.054-.028 0 .08-.08 0 .08-.161.08-.161.162-.162.404-.323.565-.484.403-.323.726-.645 1.048-.968.081-.08.081-.161.162-.161a.939.939 0 00.242-.161 9.62 9.62 0 00.725-.323 3.18 3.18 0 01.726-.403.939.939 0 01.242-.161s.322-.161.322-.242c0 .08-.242.08-.08.08.053-.053.134-.08.242-.08a.715.715 0 00.322-.08 5.73 5.73 0 01.726-.243c.484-.16.994-.295 1.532-.403a.897.897 0 01.403-.08h-.08 1.772c.08 0 .323.08.403 0 .054 0 .108.027.162.08.241 0 .483 0 .725-.161.162-.08.323-.323.403-.484.081-.484-.16-1.048-.645-1.129z" fill="#fff"/><path d="M32.415 28.776c.08-.081.323-.081.403 0 .081 0 .162.16.242.16-.08 0-.08-.08-.08-.16a3.949 3.949 0 00-.403-.242c-.242-.162-.646-.242-.968-.403a.715.715 0 00-.323-.081.898.898 0 00-.403-.08c-.268-.054-.51-.108-.725-.162-.404-.08-.726-.161-1.049-.242h-.806a9.786 9.786 0 01-1.774 0c-.645 0-1.29 0-1.935.161a1.322 1.322 0 01-.403.081c.161 0-.161 0 0 0a.897.897 0 00-.403.08c-.242 0-.484.162-.806.243a4.59 4.59 0 00-.807.241 2.03 2.03 0 00-.484.242c-.053 0-.107.027-.16.081-.323.08-.646.242-.888.403-.269.161-.51.323-.726.484-.483.403-.967.726-1.37 1.21-.377.43-.726.886-1.048 1.37a3.156 3.156 0 00-.403.726l-.242.242s.16-.081.08-.081c0 .054-.027.08-.08.08a1.263 1.263 0 01-.242.323c-.323.484-.484 1.129-.645 1.613l-.162.967c0 .323 0 .565-.08.887 0 .565-.08 1.13 0 1.774.08.565.161 1.21.242 1.774.16.645.403 1.129.725 1.693.162.484.404.968.726 1.452a9.35 9.35 0 001.129 1.37c.403.484.806.887 1.37 1.21.404.322.887.564 1.371.806a8.249 8.249 0 001.694.645c.268.108.537.188.806.242.161 0 .35.027.564.08h.242c.645.108 1.263.162 1.855.162.59 0 1.209.027 1.854.08.564 0 1.21 0 1.774-.08a3.403 3.403 0 001.048-.323.939.939 0 01.242-.16c.08 0 .161-.081.161-.081h-.08.16c.323-.081.565-.162.888-.323.215-.161.457-.296.725-.403.484-.242.968-.565 1.452-.887.43-.376.833-.78 1.21-1.21.16-.16.295-.322.402-.483.054-.054.081-.108.081-.162.08-.08 0 .081 0 .081 0-.054.027-.08.08-.08.162-.242.404-.484.565-.726.161-.27.296-.511.403-.726l.161-.322c0-.081-.08.08-.08.08l.08-.08a3.14 3.14 0 01.162-.404c.322-.483.484-1.048.564-1.612.108-.645.161-1.29.161-1.935v-.807c0-.376-.08-.725-.241-1.048-.081-.08-.081-.242-.162-.322 0 0 .081.16 0 .08v-.08a.62.62 0 00-.08-.242c0-.242-.162-.484-.242-.726 0-.108-.027-.242-.08-.403a.715.715 0 00-.081-.323c-.081-.08-.162-.16-.242-.242.053.054.08.108.08.162.08.08.08 0 .08 0a.939.939 0 00-.16-.242 3.145 3.145 0 00-.162-.403c-.08-.08-.08-.162-.08-.162-.08 0 0 .162 0 .081-.054-.054-.08-.134-.08-.242a1.264 1.264 0 00-.243-.322 8.503 8.503 0 01-.483-.726c-.323-.564-.565-1.048-.968-1.451-.403-.484-.887-.807-1.37-1.13a7.988 7.988 0 01-1.371-.886c-.484-.323-.968-.484-1.452-.726-.403-.242-.967-.161-1.21.323-.241.403-.16.967.323 1.21l1.451.725c.404.322.807.645 1.21.887.215.107.43.242.645.403.161.08-.161-.161 0 0 .054.054.108.08.161.08l.323.323c.054.054.08.108.08.161.162.162-.08-.16 0 0 .108.108.189.215.242.323.162.215.296.457.404.725.16.216.322.43.483.646 0 .053.027.107.08.16l.081.162v-.161a.71.71 0 00.081.322c0 .054.027.108.08.162.055.053.081.107.081.16h.081c.054.108.054.108 0 0-.08 0 .161.485.161.404.08.161.242.403.08.161.082.162-.08-.242 0 0a.704.704 0 01.082.323c.08.242.16.484.242.725.053.323.16.619.322.887 0 0 .08.081.08.162v.16c0 .27-.026.538-.08.807v1.21c-.054.053-.08.134-.08.242l-.162.806c-.054.107-.054.107 0 0l-.08.08a3.126 3.126 0 00-.162.404.937.937 0 00-.161.242 3.131 3.131 0 00-.161.403c.08-.242 0-.08 0 0l-.162.322c-.08.08-.16.323-.242.403-.053.054-.107.081-.16.081a1.265 1.265 0 01-.243.323 1.011 1.011 0 00-.241.403c-.162.16.08-.162-.081 0l-.161.16a5.26 5.26 0 01-.484.565l-.323.323c-.053 0-.107.027-.161.08-.054.054-.027.054.08 0-.053 0-.08.027-.08.081-.43.269-.887.51-1.37.726a1.265 1.265 0 01-.323.242c-.08 0-.242.161-.323.161-.107 0-.188.027-.242.08-.107 0-.242.028-.403.081-.242.08-.483.242-.725.403 0 0-.081.081-.162.081.054-.054.108-.08.162-.08-.054 0-.081.026-.081.08h-.161c.107 0 .107 0 0 0h-.081c-1.21.08-2.338 0-3.548 0-.268 0-.537-.027-.806-.08.242.08-.161 0 0 0h-.161a1.52 1.52 0 01-.484-.081c-.161 0-.35-.027-.564-.08.241.08-.242 0 0 0h-.162a4.593 4.593 0 01-.806-.243.898.898 0 00-.403-.08c-.08-.081-.242-.081-.403-.162-.054-.053-.108-.08-.162-.08a1.265 1.265 0 00-.322-.242c-.484-.242-.887-.484-1.29-.726-.054 0-.08-.027-.08-.08-.055-.054-.055-.027 0 .08 0 0-.081-.08-.081-.161a1.267 1.267 0 01-.323-.242 6.06 6.06 0 00-.564-.645 5.258 5.258 0 01-.484-.564c-.054-.054-.08-.108-.08-.162.08.242 0 .08 0 0a1.265 1.265 0 01-.243-.322 6.104 6.104 0 01-.725-1.452l-.162-.322c0 .161-.08-.161 0 0-.053-.054-.08-.108-.08-.161a4.59 4.59 0 01-.242-.807 4.1 4.1 0 00-.08-.806c0-.054-.028-.108-.081-.161v-.484c0-.564.08-1.129.08-1.613v-.645c.054-.268.135-.537.242-.806a.715.715 0 00.08-.322c.055-.054.081-.108.081-.162.081-.161-.08.162 0 0l.162-.322c.107-.108.188-.215.242-.323.16-.161.241-.403.403-.564.107-.269.242-.51.403-.726a.527.527 0 01.242-.242c.08-.161-.162.162 0 0 .053-.053.08-.107.08-.161.215-.215.404-.43.565-.645.161-.161.35-.323.564-.484.054 0 .108-.027.162-.08 0-.081.241-.162 0-.081.16-.054.295-.134.403-.242.215-.161.43-.296.645-.403.16-.08-.242.08 0 0 .053 0 .107-.027.16-.08.162-.055.35-.135.565-.243.054 0 .108-.027.162-.08a.897.897 0 01.403-.08c.242-.082.483-.162.806-.243a.939.939 0 01.242-.161c.322 0 .08 0 0 0h.403a.898.898 0 01.403-.08c.054 0 .108-.028.162-.081.08 0 .403-.081.08 0h3.79c.242 0-.162-.081 0 0h.242c.268.053.537.134.806.242a.71.71 0 01.322.08h.162c-.162 0 .322.08.322.08h.162c.16.055.322.108.483.162.054.054.108.08.162.08.241.081-.162-.08 0 0-.242-.08-.162-.08-.081 0 .054 0 .08.028.08.081.404.323.726.403 1.21.323.403-.08.726-.645.645-1.129-.161-.484-.645-.645-1.129-.564z" fill="#fff"/><path d="M18.708 44.095c-.645 0-1.21.323-1.693.726-.161.161.161-.08 0 .08-.054 0-.108.027-.161.081l-.484.323c-.162.16-.323.35-.484.564l-.564.565a2.644 2.644 0 00-.323.403c.161-.162.08-.081 0 0l-.161.16c-.403.323-.565.807-.806 1.291a18.658 18.658 0 00-1.532 2.903c-.242.483-.565.967-.726 1.532-.242.483-.323 1.048-.484 1.532-.08.645-.242 1.21-.322 1.773v.726a.62.62 0 01-.081.242v.564c-.08 1.21-.08 2.339 0 3.548v2.5c0 .322-.08.645 0 .887.161.483.403.806.887.967.242.08.403 0 .645 0h1.774c.645 0 1.29 0 1.854.08.162 0 .323.028.484.082h.322l.968.16c.323.054.618.108.887.162l1.129.161a23.8 23.8 0 001.935.242c.484.08.968-.484.887-.887 0-.564-.403-.887-.887-.887a16.052 16.052 0 00-1.693-.242h-.323c-.053-.053-.107-.08-.161-.08h-.08c-.242 0-.565-.08-.807-.162a17.95 17.95 0 00-1.532-.241c-.645-.081-1.21-.162-1.854-.162h-3.064l.322.162c0 .053.027.107.08.16.055.108.055.108 0 0V57.4c0-.108 0-.108 0 0v-.162c.055-.161.081-.296.081-.403v-.726c.054-.054.081-.107.081-.161 0-.161.027-.323.08-.484.081-.403.162-.887.243-1.37l.16-.323c0-.08 0-.323.082-.323 0-.053.026-.107.08-.16.054-.162.134-.323.242-.485a43.42 43.42 0 011.37-2.741l.807-1.451c0-.054.027-.108.08-.162v-.08c.054-.108.054-.081 0 .08l.243-.242c.053-.053.08-.107.08-.16.054 0 .08-.028.08-.081.162-.215.189-.242.081-.081.081-.08.162-.242.242-.323l.565-.564.322-.323.162-.16-.081.08.08-.08.484-.323.162-.162a863820824741.518 863820824741.518 0 01.08-.08h.162c-.162.053-.189.053-.081 0h.161c.108-.054.08-.054-.08 0h.08c.484 0 .968-.403.887-.968a.895.895 0 00-.887-.887z" fill="#fff"/><path d="M18.224 44.176c-.242 0-.564.08-.806.161a1.013 1.013 0 01-.403.242c-.323.161-.645.403-.968.645-.242.242-.403.484-.645.726-.053 0-.08.027-.08.08-.081.081-.081 0 0 0v-.08l-.081.08-.08.081a3.2 3.2 0 00-.484.403c-.162.162-.296.35-.404.565-.053 0-.08.027-.08.08.161-.16-.08.081 0 0l-.162.162a2.557 2.557 0 00-.725.967c-.215.269-.43.565-.645.887l-.323.484c-.053.054-.08.134-.08.242-.054 0-.081.027-.081.08 0 0-.08.162 0 .081.08-.161-.08 0-.08 0l-.081.08c-.054.054-.08.108-.08.162-.243.242-.404.403-.485.726 0 .16-.08.242-.08.403-.08.242-.162.403-.242.645-.08.322-.161.645-.242 1.048a5.995 5.995 0 00-.242 1.048c-.242.887-.403 1.613-.484 2.5-.08.725-.161 1.532-.161 2.257v1.371l.161 1.451c.054.108.08.215.08.323l.082.161c-.054-.107-.081-.134-.081-.08l.08.08v1.29c0 .054.027.135.081.242v.323c0 .484.403.967.887.967.484-.08.887-.403.887-.967 0-.215-.027-.43-.08-.645 0-.162.08 0 .08.08-.054-.053-.08-.107-.08-.161v-.322c0-.404 0-.807-.081-1.21 0-.215-.027-.403-.08-.564 0-.108-.028-.189-.082-.242V57.48c0-.215.027-.403.081-.564v-.242c0-.08 0-.161 0 0v-.161c.054-.377.134-.726.242-1.049a8.55 8.55 0 00.242-1.129c.08-.403.242-.725.322-1.048 0-.161.027-.322.081-.483.054-.216.108-.404.161-.565l.162-.484.08-.242c0 .081-.161.242-.08.081l.08-.08.08-.081c.055-.054.082-.108.082-.161.16-.162.295-.323.403-.484l.645-.968c.16-.242.322-.564.483-.806l.081-.161s-.08.16 0 .08l.161-.161a1.44 1.44 0 01.403-.403c.054-.108.135-.215.242-.323v-.08l.081-.081c.054-.054.054-.054 0 0-.08 0 .323-.322.323-.322s-.162.08-.081 0c.054 0 .107-.027.161-.081.108-.054.215-.135.323-.242l.322-.323a.971.971 0 01.403-.403l.081-.08a.937.937 0 01.242-.162c.161-.053.296-.134.403-.241.08 0 .161-.081.242-.081h-.161c-.162.054-.188.08-.081.08h.161c.484 0 .968-.403.968-.886-.08-.565-.403-.887-.968-.968zm58.538-16.449a4.534 4.534 0 00-.887-.08 4.526 4.526 0 00-.887-.08h-.806c-.377.053-.726.107-1.049.16a9.194 9.194 0 00-1.612.484 5.73 5.73 0 00-.726.242c-.322.08-.564.161-.887.242-.161.161-.322.242-.564.403a5.642 5.642 0 01-.806.403 4.24 4.24 0 01-.645.403 2.897 2.897 0 00-.807.565c-.322.322-.725.726-1.129 1.048l-.483.484c-.242.242-.323.484-.484.806-.565.968-.968 2.016-1.29 3.064-.162.645-.242 1.21-.323 1.855a5.428 5.428 0 00.08 1.612c.055.645.162 1.29.323 1.935.162.484.242 1.048.484 1.613.242.484.565.806.968 1.21.403.322.725.725 1.129 1.048.483.43.967.833 1.45 1.209.485.322.942.645 1.372.968.886.645 2.015 1.048 3.064 1.209.564.08 1.209.161 1.854.161.484.08 1.048.161 1.613.161.564-.08 1.129-.08 1.612-.241.323-.054.618-.162.887-.323l.323-.161c.053 0 .107-.027.161-.08.08 0 .322-.162.08 0 .081-.081.242-.081.323-.162.161-.054.296-.107.403-.161a4.46 4.46 0 00.887-.403c.484-.323.968-.645 1.37-1.049a13.272 13.272 0 002.097-2.5c.323-.483.565-.967.726-1.531.08-.565.242-1.048.403-1.532.161-.591.269-1.21.323-1.855.08-.564-.081-1.128-.081-1.693 0-.645-.08-1.21-.161-1.854-.161-.484-.323-1.049-.565-1.532-.322-1.048-.887-2.097-1.693-2.742a29.3 29.3 0 00-.726-.564c-.053-.054-.107-.08-.16-.08.16.16 0 0 0-.081a1.265 1.265 0 01-.323-.242 6.06 6.06 0 00-.645-.565c-.242-.161-.565-.242-.887-.403a5.697 5.697 0 01-.726-.242c-.108 0-.108 0 0 0 0 0-.08 0-.161-.08-.054 0-.108-.027-.162-.081h-.08c.107.054.134.054.08 0-.403-.323-.725-.564-1.128-.726a1.375 1.375 0 00-.807 0c-.403.08-.725.565-.725.968.08.484.403.967.967.967.403-.08.887-.403.887-.967-.054.376-.269.618-.645.726a.343.343 0 01-.322 0h.08c.08.08.162.16-.08 0 .053 0 .107.026.16.08.081.08.243.161 0-.08.216.215.43.403.646.564.242.161.484.242.806.403l.645.161.323.162c.054 0 .08.027.08.08-.107-.053-.107-.08 0-.08l.081.08h.08c.054.054.028.054-.08 0l.161.08a.939.939 0 00.162.243c.268.215.51.403.725.564.108.108.215.188.323.242l.242.161.16.162c.055.053.135.134.243.242 0 .08.08.08.08.16a.939.939 0 00.162.243c.161.215.295.43.403.645v.161c.08.08.161.08 0-.08.08.08.08.322.161.402.054.27.135.511.242.726.108.269.188.51.242.726a.91.91 0 00.08.403v.161c.081.242 0-.08 0 .08.054.27.081.511.081.727 0 .268.027.537.08.806v1.209c0-.242 0-.08-.08 0v.242a12.742 12.742 0 01-.403 1.532 2.88 2.88 0 00-.242.726.716.716 0 01-.08.322l-.081.323c-.054.054-.08.107-.08.161l-.162.323c-.161.215-.296.403-.403.564a1.265 1.265 0 00-.242.323c0 .053-.027.08-.08.08l.08-.08c-.054.053-.08.107-.08.16-.162.216-.35.404-.565.565a9.641 9.641 0 01-1.048 1.048c-.054 0-.108.027-.162.081.162-.161-.08.08 0 0a1.262 1.262 0 00-.322.242c-.161.08-.403.242-.645.323.242-.081.08 0 0 0-.054 0-.108.026-.161.08a.716.716 0 00-.323.08 5.642 5.642 0 00-.806.404 3.112 3.112 0 00-.403.161c-.162.08.16-.08.08 0h-.161a2.876 2.876 0 01-.726.242c.242-.08-.16 0 0 0h-1.37c-.484 0-.968-.08-1.452-.161h-.725a.62.62 0 01-.242-.08c.242.08-.242 0 0 0h-.403a5.724 5.724 0 01-.726-.243l-.323-.161h-.16c.16.08-.162-.08 0 0-.485-.242-.888-.564-1.291-.806-.403-.323-.887-.645-1.29-.968.242.161-.08-.08-.08-.08l-.323-.323-.645-.484-1.048-1.048-.242-.242c-.054 0-.081-.027-.081-.08l-.161-.242c.08.16-.08-.242 0 0 0-.054-.027-.108-.08-.162-.162-.483-.243-.967-.323-1.451l-.162-.806a.715.715 0 01-.08-.323v-.322a3.742 3.742 0 01-.08-.726v-.564c0-.081.08-.404 0-.081.08-.242.16-.565.16-.806a5.86 5.86 0 01.242-.726l.162-.645c.08-.242.16-.484.322-.726-.08 0-.161.242 0 0 0-.053.027-.107.08-.161.054-.161.108-.296.162-.403l.322-.645a.939.939 0 01.162-.242v-.08c.053-.054.053-.028 0 .08l.08-.161c.242-.162.404-.323.565-.484.403-.323.725-.645 1.048-.968l.161-.161.323-.161.645-.323c.269-.161.51-.295.725-.403a.939.939 0 01.242-.161c.081 0 .323-.161.323-.242 0 .08-.161.08 0 .08.054-.053.107-.08.161-.08a.715.715 0 00.323-.08c.268-.108.537-.189.806-.243.484-.16.968-.295 1.451-.403a.897.897 0 01.403-.08h1.774s.323.08.323 0c.054 0 .107.027.161.08.242 0 .484 0 .726-.161.161-.08.403-.323.403-.484.08-.484-.161-1.048-.645-1.129z" fill="#fff"/><path d="M79.18 28.776a.514.514 0 01.484 0l.162.16s-.08-.08-.08-.16a1.013 1.013 0 00-.404-.242c-.242-.162-.645-.242-.887-.403a1.326 1.326 0 00-.403-.081.716.716 0 00-.323-.08h-.08a15.748 15.748 0 00-.726-.162c-.322-.08-.645-.161-1.048-.242h-.806a9.785 9.785 0 01-1.774 0c-.645 0-1.29 0-1.935.161a.897.897 0 01-.403.081h-.081.08c-.107 0-.241.027-.403.08-.242 0-.483.162-.725.243a4.59 4.59 0 00-.807.241c-.16.054-.349.135-.564.242-.054 0-.108.027-.161.081a2.98 2.98 0 00-.887.403 8.498 8.498 0 01-.726.484c-.484.403-.887.726-1.29 1.21a8.99 8.99 0 00-1.129 1.37 3.153 3.153 0 00-.403.726c-.08.08-.161.161-.161.242 0 0 .08-.081 0-.081v.08a.935.935 0 01-.162.242c-.403.484-.644 1.13-.806 1.694l-.161.967v.887c-.08.565-.161 1.13-.08 1.694.08.645.16 1.29.322 1.854.08.564.322 1.129.645 1.693.161.484.403.968.725 1.37.323.565.726.968 1.13 1.452.403.403.806.887 1.37 1.21.403.322.887.483 1.37.806a9.614 9.614 0 001.613.645c.323.108.619.188.887.242.162 0 .35.027.565.08h.242c.322.054.671.108 1.048.162h.887c.591 0 1.182.027 1.774.08.645 0 1.29 0 1.935-.08.322-.054.618-.161.887-.323l.322-.16s.162-.162.08-.081h.081c.323-.081.645-.162.968-.323.215-.161.457-.296.726-.403.484-.242.967-.645 1.451-.968.484-.322.806-.725 1.21-1.129l.322-.483c.054-.054.08-.108.08-.162.081-.08 0 .081 0 .081l.081-.08c.215-.27.403-.511.565-.726.161-.27.295-.511.403-.726a3.13 3.13 0 00.161-.403s-.08.161 0 .08v-.08c.054-.108.135-.215.242-.323a5.353 5.353 0 00.484-1.612c.107-.645.161-1.29.161-1.935v-.807c0-.376-.08-.725-.242-1.048 0-.08-.08-.242-.161-.322 0 0 .08.16.08.08 0-.053-.026-.08-.08-.08v-.242c-.08-.242-.242-.484-.242-.726a.897.897 0 01-.08-.403l-.162-.323s-.242-.403-.161-.242c0 .081.08.162.08.242v-.08a.618.618 0 01-.08-.242 3.949 3.949 0 01-.242-.403c0-.08-.08-.162-.08-.162s.08.162 0 .081a.62.62 0 00-.081-.242 1.267 1.267 0 00-.242-.322c-.161-.27-.296-.511-.403-.726-.323-.564-.645-1.048-1.049-1.451-.403-.484-.886-.807-1.37-1.13-.484-.241-.887-.564-1.371-.886-.403-.323-.968-.484-1.37-.726-.484-.242-1.049-.161-1.29.323-.162.403-.081.967.322 1.21l1.451.725c.403.322.806.645 1.29.887.215.107.403.242.565.403.242.08-.081-.161.08 0 0 .054.027.08.08.08a981.037 981.037 0 01.485.484c.08.162-.162-.16 0 0l.16.323c.162.215.297.457.404.725l.484.646c.054.053.08.107.08.16.081 0 .081.162.081.162v-.161c0 .107.027.215.08.322l.162.162c0 .053.027.107.08.16.054.108.054.108 0 0-.08 0 .162.485.162.404a.937.937 0 00.161.242l-.08-.08c.053.053.053.026 0-.081l.08.403.242.725c.054.323.161.619.323.887 0 0 .08.081.08.162v.967c0 .269-.027.538-.08.806v.646c0-.323-.081 0-.081 0a3 3 0 01-.08.725c-.081 0-.081.161-.081.161a3.938 3.938 0 01-.242.404.935.935 0 00-.162.242 3.13 3.13 0 00-.16.403c.16-.242.08-.08 0 0-.055.107-.108.215-.162.322-.08.08-.161.323-.242.403l-.08.081a.527.527 0 00-.242.242l-.323.484c.161-.162-.161.16 0 0l-.161.16-.565.565-.322.323-.08.08-.081.081c-.43.269-.887.51-1.371.726a1.265 1.265 0 01-.323.242c-.08 0-.242.161-.322.161-.054 0-.108.027-.161.08a.898.898 0 00-.404.081c-.242.08-.483.242-.725.403-.08 0-.162 0-.162.081h-.16.08-.161c-1.21.08-2.339 0-3.468 0a4.58 4.58 0 01-.886-.08c.16.08-.162 0 0 0h-.162a1.52 1.52 0 01-.483-.081c-.162 0-.35-.027-.565-.08.242.08-.161 0 0 0h-.161a4.274 4.274 0 01-.887-.243l-.323-.161c-.107 0-.188-.027-.242-.08 0 0-.16-.081-.08 0-.054-.054-.108-.081-.161-.081a3.949 3.949 0 00-.404-.242 12.134 12.134 0 01-1.37-.806c.161.16-.162-.081 0 0-.054 0-.108-.027-.162-.081a.527.527 0 00-.241-.242 6.071 6.071 0 00-.565-.645 5.268 5.268 0 00-.484-.564v-.081c-.107-.054-.107-.027 0 .08-.08-.08-.08-.16-.16-.16a3.127 3.127 0 00-.162-.404c-.269-.43-.51-.887-.726-1.37l-.161-.323c.08.161-.08-.242 0 0-.054-.054-.08-.108-.08-.161a4.599 4.599 0 01-.243-.807 4.1 4.1 0 00-.08-.806v-.161a1.521 1.521 0 01-.08-.484c0-.564.08-1.129.08-1.613v-.403c0-.08 0-.161.08-.242l.162-.806.161-.322v-.242c-.08.242 0 .08.08 0 0-.054.028-.108.081-.162.054-.107.054-.107 0 0l.08-.08a1.29 1.29 0 01.243-.323c.08-.161.242-.403.322-.564a8.49 8.49 0 01.484-.726l.161-.322c-.161.242 0 .08.08 0 0-.054.028-.108.082-.162.16-.16.322-.35.483-.564a5.26 5.26 0 00.565-.484c.053 0 .107-.027.161-.08.08-.081.242-.162.08-.081.108-.054.216-.134.323-.242.108-.107.242-.188.403-.242 0-.08.242-.161.242-.161.054 0 .108-.027.162-.08.215-.055.403-.135.564-.243.054 0 .107-.027.161-.08.161-.054.296-.08.403-.08.242-.082.565-.162.807-.243l.322-.161c.242 0-.161 0 0 0h.323c.16-.054.295-.08.403-.08a.62.62 0 00.242-.081s.322-.081.08 0h3.709c.242 0-.161-.081.08 0h.162c.269.053.565.134.887.242.054 0 .135.026.242.08h.161c-.161 0 .323.08.323.08h.242c.107.055.242.108.403.162.054.054.134.08.242.08.161.081-.162-.08-.08 0-.082-.08-.162-.08 0 0 0 0 .026.028.08.081.322.323.645.403 1.129.323.483-.08.806-.645.645-1.129-.162-.484-.645-.645-1.13-.564z" fill="#fff"/><path d="M80.793 46.595h.081c.08 0-.161-.08-.08 0h.16s-.16-.08-.08 0h.08c.054.053.108.08.162.08.08.081-.161-.08-.08 0l.16.162a.527.527 0 01.242.241c.404.404.807.807 1.13 1.29.08 0 .08.081.08 0 0 .054.027.108.08.162a.996.996 0 01.242.403c.054.108.135.215.242.322.08.162.162.323.323.484-.08-.161-.08-.08 0-.08v.08c.053.054.08.108.08.162.081.16 0-.162 0 .08.054.054.081.108.081.161.108.27.188.538.242.807l.161.322c.08.08 0-.161 0 0l.08.08c0 .162.028.323.081.485.054.161.081.322.081.483.054.108.108.242.161.404h.081c.08.16 0 .16 0-.162 0 .242.08.404.242.645.161.081.403.242.645.242.403 0 .968-.403.887-.887 0-.322-.08-.483-.242-.725 0-.08-.08-.162 0 0 0-.108-.027-.188-.08-.242a3.472 3.472 0 00-.323-1.129c0-.108-.027-.188-.08-.242a.897.897 0 01-.082-.403c-.16-.323-.241-.645-.403-.968l-.16-.16c.08.08-.243-.323-.243-.323a.939.939 0 00-.161-.242 4.979 4.979 0 00-.564-.887c-.404-.484-.807-.968-1.29-1.37-.484-.646-1.13-1.13-1.936-1.13a.895.895 0 00-.887.887c0 .565.404.968.887.968z" fill="#fff"/><path d="M82.003 46.675h.322c-.107-.053-.107-.053 0 0a.936.936 0 01-.242-.161c.162.242.323.484.565.726.269.161.484.35.645.564l.161.161c0 .054.027.081.08.081.055.108.028.108-.08 0 .161.08.242.242.242.322a.939.939 0 01.161.242c.08.162-.08-.16 0 0 .054.215.135.404.242.565.054.107.135.242.242.403.054.107.054.107 0 0 0-.054 0-.054 0 0a.71.71 0 01.08.322c0 .108 0 .108 0 0v.162c0 .215.028.43.081.645 0 .322.242.564.404.887v-.887l-.081.08c-.242.404-.08.968.322 1.21.484.242.968.08 1.29-.323v-.08c.242-.242.162-.645 0-.887a3.124 3.124 0 00-.16-.403c-.055-.054-.055-.027 0 .08 0-.053-.028-.107-.081-.161.053.161.08.188.08.08 0-.053-.027-.08-.08-.08v-.645c-.054-.108-.054-.108 0 0v-.08a1.521 1.521 0 01-.081-.484 1.649 1.649 0 00-.323-.484c-.053-.054-.08-.135-.08-.242-.054-.054-.054-.027 0 .08l-.08-.08c-.162-.403-.243-.726-.485-1.048-.403-.565-.887-.968-1.37-1.452-.054-.053-.027-.026.08.081-.053 0-.08-.027-.08-.08l-.162-.162a.776.776 0 00-.322-.403c-.215-.215-.51-.35-.887-.403h-.403c-.484 0-.887.484-.887.967 0 .484.403.887.887.887z" fill="#fff"/><path d="M82.083 47.24c.484.484.968 1.129 1.532 1.693.162.108.296.215.404.323l.16.16c.081.081.243.162.243.243-.08-.08-.08-.08-.08 0 .053 0 .08.027.08.08a.937.937 0 00.161.242c.108.161.215.35.323.565v.08c.08.242 0-.08 0 0l.16.323c.055.161.108.35.162.564a16723.045 16723.045 0 00.645 2.258c0 .215.027.43.08.645v-.08.483c.081.806.081 1.613.162 2.419 0 .43.027.86.08 1.29.054.376.081.78.081 1.21a13.04 13.04 0 000 2.499v.807s-.08.16-.08.241c-.054.215-.081.43-.081.645.08 0 0 .242 0 .323v.242c0 .053-.027.107-.08.16.08-.241 0 .162 0 0v.082c.08-.162 0 .16 0 0v.08l.08-.08c.08-.162.161-.162.323-.242.16 0-.162.08 0 0h-.968c.161 0 .08 0 0 0-.054-.054-.108-.081-.161-.081-.887-.161-1.935-.484-2.742.161-.322.323-.322.968 0 1.29.403.323.968.323 1.29 0-.053 0-.08.027-.08.081-.162.054-.215.08-.162.08l.081-.08c0 .08-.242.08-.08.08h.644-.08c.107 0 .215.028.322.081.215.054.43.08.645.08.403.082.887.162 1.371.162.323-.08.645-.161.806-.322.162-.162.242-.323.323-.484.161-.242.161-.484.242-.806v-.242c0-.081.08-.404 0-.162.054-.16.08-.295.08-.403v-.161c0-.08-.08.161 0 0 .054-.269.081-.538.081-.806v-3.79c0-.403-.08-.887-.08-1.29-.162-.887-.081-1.693-.162-2.58-.08-1.693-.484-3.387-1.048-4.919a7.148 7.148 0 00-.645-1.37 6.335 6.335 0 00-.887-1.13l-.968-.967-.967-.967c-.323-.323-.887-.403-1.21 0-.403.322-.403.887 0 1.29z" fill="#fff"/><path d="M84.583 51.513a3 3 0 00.08.726c0 .107.028.188.081.242v.161c0 .484.054.968.162 1.451v.484c.08.242 0 .484 0 .726.08.484.08.887.16 1.37l.162.646v-.081 6.612c-.08.241-.08.564-.08.806 0 .484.403.887.886.887a.895.895 0 00.887-.887v-.161c0-.08.08-.162 0 .08 0-.107.027-.215.08-.322v-6.208c0-.485 0-.888-.08-1.371a.717.717 0 01-.08-.323v-.161.08a3 3 0 01-.081-.725c-.08-.403 0-.887 0-1.29a28.137 28.137 0 00-.161-.887v-.162c0 .162-.08-.16 0 0 0-.107-.027-.241-.08-.403a4.09 4.09 0 00-.082-.806.715.715 0 00-.08-.322v-.162c0-.484-.403-.967-.887-.967-.484.08-.887.403-.887.967z" fill="#fff"/><path d="M84.422 64.172h-.08c.16.484.295.968.402 1.452h.08c-.053.053-.133.08-.241.08h.161c-.107 0-.188.027-.242.08.054-.053.108-.08.162-.08a.62.62 0 00-.242.08c.242-.08.484-.08.725-.16l.484-.162a.935.935 0 01.242-.161c-.054.054-.134.08-.242.08.054 0 .108-.026.161-.08-.053.054-.134.08-.242.08h.162v-1.854c-.162 0-.323.027-.484.08a3.124 3.124 0 00-.403.162 2.4 2.4 0 00-.645.322c-.242.242-.323.484-.323.807v.242c0 .107.054.215.162.322.16.162.241.242.483.323.162.08.404.08.645.08.108-.053.242-.053.403 0-.053-.053-.134-.08-.241-.08.053 0 .107.027.16.08a.939.939 0 00-.241-.16l.08.08-.16-.161-.162-.162c0-.053-.027-.107-.08-.161v-.403c.053-.054.08-.135.08-.242v.08l.161-.16c-.053 0-.08.026-.08.08l.161-.161c-.054.053-.107.08-.161.08.107 0 .188-.027.242-.08-.054.053-.108.053-.162 0 .054.053.135.08.242.08a1.325 1.325 0 00-.403-.08 2.367 2.367 0 00-.564-.081.343.343 0 00-.323 0c-.242 0-.403 0-.645.161-.054.054-.134.08-.242.08l-.161.323a1.003 1.003 0 000 .565c.08.403.323.645.645.725.242.081.484 0 .726 0 .161-.08.322-.16.484-.16h-.242.887c.241-.081.403-.162.564-.323.161-.242.242-.403.242-.645s-.08-.484-.242-.645c-.161-.162-.403-.323-.645-.242-.242 0-.484.08-.645.242.054-.054.107-.081.161-.081h-.08a.618.618 0 00.241-.08h-.16.241-.322a1.002 1.002 0 00-.565 0c-.161.08-.322.16-.564.16h.403c.054.054.134.081.242.081h-.08a.94.94 0 00.241.162h-.08l.16.16c.054.055.081.108.081.162a6.072 6.072 0 01-.403 1.048c-.054 0-.107.027-.161.08h.08-.241.483-.242c.323 0 .645.162.968.162.484 0 1.048-.242 1.29-.725.161-.242.242-.565.161-.807-.08-.403-.403-.645-.806-.725a1.789 1.789 0 00-.564-.081.746.746 0 01-.484 0 .62.62 0 00.242.08l-.08-.08c.214.322.43.618.644.887v.242c-.054.053-.08.107-.08.161l-.162.161.08-.08-.16.16a.939.939 0 01.242-.16.618.618 0 01-.242.08c.16-.053.322-.08.483-.08h-.242.162c.161 0 .484-.081.564-.242.162-.162.323-.484.323-.645 0-.242-.08-.484-.323-.645a1.197 1.197 0 00-.564-.323h-.162a.715.715 0 01-.322.08l-.322.162a3.96 3.96 0 01-.404.242c.054-.054.108-.08.162-.08h-.162.242c-.215 0-.403.026-.564.08-.323 0-.565.161-.726.322-.242.242-.322.565-.242.887.08.323.323.565.645.645h.08c.243.081.485.081.646-.08.242-.08.403-.323.484-.484 0-.242 0-.484-.08-.726-.162-.215-.35-.35-.565-.403zM67.167 45.708c-.269 0-.565-.027-.887-.08h-1.693c-.323 0-.672.053-1.049.16-.537.108-1.075.242-1.612.404a2.881 2.881 0 01-.726.242c-.242.08-.564.16-.806.322-.242.08-.403.242-.645.322a8.48 8.48 0 01-.726.484c-.269.108-.51.215-.726.323-.241.161-.483.403-.725.564-.403.403-.726.807-1.21 1.13-.16.16-.322.241-.483.402-.242.242-.323.565-.484.806-.484 1.049-.968 2.016-1.29 3.145-.161.564-.242 1.21-.323 1.774a5.88 5.88 0 00.08 1.693c.055.645.162 1.263.323 1.855.162.564.242 1.129.484 1.612.242.484.565.887.968 1.21.403.403.806.725 1.21 1.129.43.376.886.752 1.37 1.128.484.323.94.672 1.37 1.049.887.564 2.016 1.048 3.064 1.21.646.08 1.21.08 1.855.16.484 0 1.048.08 1.613.08.564 0 1.129-.08 1.693-.16l.806-.323.323-.161c.053-.054.107-.08.16-.08.082-.081.323-.162.082-.081.08-.081.241-.081.403-.162a.716.716 0 00.322-.08 4.46 4.46 0 00.887-.403 9.285 9.285 0 001.37-1.13 10.573 10.573 0 002.097-2.499c.323-.483.565-.967.726-1.532.08-.483.242-.967.403-1.451.161-.645.269-1.29.323-1.935.08-.565-.081-1.048-.081-1.613 0-.645 0-1.29-.161-1.935-.161-.484-.323-.968-.484-1.532-.403-.968-.887-2.016-1.774-2.741a32.45 32.45 0 01-.726-.565c-.053 0-.107-.027-.16-.08l-.323-.323a2.527 2.527 0 00-.645-.484c-.242-.242-.565-.322-.887-.403a3.151 3.151 0 00-.645-.242h-.081c-.108-.053-.108-.053 0 0 0 0-.08-.08-.161-.08-.054-.054-.108-.081-.162-.081 0-.054-.026-.08-.08-.08.107.107.134.107.08 0-.403-.242-.725-.565-1.128-.726-.242-.08-.484-.08-.807 0-.403.161-.725.564-.645 1.048 0 .484.323.887.887.887a.895.895 0 00.887-.887v-.08c0 .376-.188.644-.564.806h-.403.08c.162 0 .162.08-.08-.081.053.054.107.08.16.08.243.242.162.081 0 0l.646.484c.242.162.484.323.806.404.215.107.43.188.645.241a.715.715 0 00.323.081c.053.054.107.08.161.08-.161-.053-.188-.053-.08 0h.08l.08.081-.08-.08c.08 0 .161.16.161.16a.937.937 0 00.242.162c.215.269.43.484.645.645.108.054.215.135.323.242.08 0 .242.08.242.161.053.054.107.081.16.081.055.107.135.215.243.322l.08.081c.054.108.135.215.242.323l.323.645.08.08c0 .081.081.162-.08 0 .08.081.161.242.161.323.108.269.188.537.242.806.108.215.188.457.242.726.054.107.08.242.08.403v.161c.081.242 0-.161.081 0v.807c0 .268.027.537.08.806v1.129a.715.715 0 00-.08.322 12.76 12.76 0 01-.403 1.532l-.161.645a.716.716 0 00-.08.323c-.082.08-.082.403-.162.403 0 .054-.027.107-.08.161a.936.936 0 00-.162.242c-.108.215-.242.43-.403.645a1.265 1.265 0 00-.242.323c-.054.107-.054.107 0 0l-.08.08-.484.645-1.13.968c-.053.054-.107.08-.16.08.241-.08-.081.081 0 0a.528.528 0 01-.242.242c-.242.162-.484.323-.726.323.242 0 .08 0 0 0-.054.054-.108.08-.161.08l-.323.162-.806.322a3.132 3.132 0 01-.403.162c-.162.08.16 0 .08 0-.053.053-.107.08-.161.08l-.645.162c-.242.08.161 0-.08 0h-.162a.716.716 0 01-.323.08h-.806c-.564-.08-1.048-.161-1.532-.161a3 3 0 01-.725-.08h-.242c.242 0-.162 0 0 0a.897.897 0 00-.404-.081l-.645-.162a3.126 3.126 0 01-.403-.161c-.053 0-.107-.027-.16-.08.16.08-.162-.081 0 0a6.963 6.963 0 01-1.291-.807c-.403-.322-.887-.564-1.29-.968.242.162-.08-.08-.08-.08a1.265 1.265 0 00-.323-.242 6.04 6.04 0 01-.645-.564 18.625 18.625 0 00-1.048-.968.527.527 0 00-.242-.242c0-.054-.027-.107-.081-.161-.08-.08 0 .08 0 .08s-.161-.241-.161-.322c.08.242-.08-.161 0 0 0-.054-.027-.108-.08-.161-.162-.484-.243-.968-.323-1.452a15.74 15.74 0 00-.162-.725.715.715 0 00-.08-.323v-.322a4.098 4.098 0 01-.08-.807v-.564c.08 0 .08-.323.08-.08 0-.242.08-.484.08-.726.108-.27.189-.511.242-.726.054-.269.108-.51.161-.726.081-.242.162-.483.323-.645-.161.162 0 0 0-.08 0-.054.027-.108.08-.162l.162-.322.322-.645.162-.323c.053-.107.053-.107 0 0 0 0 .08-.08.16-.08.162-.242.324-.323.565-.484.323-.323.645-.726 1.049-1.048l.08-.08h-.08.16a.939.939 0 01.243-.162 4.24 4.24 0 00.645-.403c.269-.108.51-.242.725-.404a.939.939 0 00.242-.16c.08 0 .403-.162.403-.162s-.241.08-.08 0h.161a3.13 3.13 0 01.403-.161 5.86 5.86 0 00.726-.242c.484-.161.968-.296 1.451-.403a.898.898 0 00.403-.08H66.2l.323.08h.242c.242.08.403.08.645-.08.161-.082.403-.324.403-.565.08-.404-.08-1.049-.645-1.13z" fill="#fff"/><path d="M69.586 46.756h.484c0 .08.16.161.16.161l-.08-.08a2.64 2.64 0 00-.403-.323c-.242-.161-.564-.242-.887-.322a3.112 3.112 0 00-.403-.162h-.323c-.08 0-.16-.08 0 0h-.08a2.88 2.88 0 00-.726-.242c-.322-.08-.645-.16-1.048-.16-.242-.081-.484 0-.806 0H63.78c-.725 0-1.29 0-1.935.08l-.483.161c.16-.08-.162 0 0 0h-.404l-.725.242a4.604 4.604 0 00-.807.242 2.033 2.033 0 01-.483.242c-.108 0-.189.027-.242.08-.323.162-.645.242-.887.404a6.05 6.05 0 00-.645.564 9.28 9.28 0 00-1.371 1.129 7.5 7.5 0 00-1.129 1.451c-.161.215-.295.43-.403.645-.08.08-.161.242-.161.323 0 0 .08-.162.08-.081-.053 0-.08.027-.08.08a1.26 1.26 0 00-.242.323c-.323.403-.565 1.048-.645 1.613a6.373 6.373 0 00-.242.967v.807c-.08.645-.08 1.21-.08 1.773.08.645.16 1.21.322 1.855.161.564.403 1.129.645 1.693.242.484.484.968.726 1.37l1.209 1.452c.403.403.806.807 1.29 1.21.403.242.887.484 1.37.725.565.323 1.13.484 1.694.726l.806.161c.215.054.404.081.565.081h.161c.08.08-.08 0-.08 0 .053 0 .107.027.16.08.646.108 1.29.162 1.936.162h3.547a3.404 3.404 0 001.049-.323 1.28 1.28 0 01.322-.242s.161 0 .161-.08c0 0-.16.08-.08.08 0-.053.027-.08.08-.08.323-.08.645-.161.968-.323l.645-.322a4.575 4.575 0 001.451-.968 6.486 6.486 0 001.29-1.129l.323-.483.161-.162c0-.08-.08 0-.08.081.053-.054.08-.108.08-.161.242-.242.403-.484.645-.726a9.62 9.62 0 00.323-.726l.161-.322c.08-.08 0 .08 0 .08v-.08c.054-.108.135-.215.242-.323.242-.564.403-1.048.484-1.693a10.4 10.4 0 00.161-1.854v-.807c.054-.43-.027-.806-.242-1.129 0-.08-.08-.241-.161-.322 0 0 .08.242.08.08v-.08c-.053-.054-.08-.108-.08-.161-.08-.242-.161-.484-.242-.807a.715.715 0 00-.08-.322l-.162-.323c0-.08-.161-.16-.161-.322 0 .054.027.107.08.161.081.161 0 .08 0 0 0-.054-.026-.107-.08-.161l-.242-.484-.08-.08c0-.081.08.16 0 .08 0-.108-.028-.188-.081-.242l-.162-.322c-.16-.27-.322-.538-.483-.807-.323-.483-.645-.967-1.049-1.451-.403-.484-.886-.806-1.37-1.048-.484-.323-.887-.645-1.371-.887-.403-.323-.887-.565-1.37-.806-.484-.162-1.049-.162-1.29.322-.162.403-.081 1.048.322 1.21.483.241.967.483 1.451.806.403.242.806.564 1.29.806.215.161.43.296.645.403.162.162-.161-.08 0 0 .054.054.08.108.08.162a490.594 490.594 0 00.485.483c.08.162-.162-.16 0 0 .053.108.134.215.242.323.107.215.241.43.403.645.107.215.242.457.403.726.054.053.08.107.08.16.081 0 .081.081.162.081-.054 0-.08-.026-.08-.08a.62.62 0 01.08.242.939.939 0 01.161.242l.08.08c.081.162-.08-.161 0 0l.162.484c.08.08.242.403.08.08.162.162 0-.16 0 0a.897.897 0 01.081.404c.08.242.161.403.242.645.108.322.215.618.322.887.081 0 .081.161.081.161v.968c0 .268-.027.537-.08.806v.726c-.054.268-.135.51-.242.725v.08c0 .108.026.081.08-.08l-.08.161a1.26 1.26 0 01-.242.323l-.162.322a.716.716 0 00-.08.323 1.265 1.265 0 01-.242.323c0 .16-.08.322-.242.403l.08-.08c0 .053-.026.08-.08.08-.054.053-.08.107-.08.161a.528.528 0 00-.243.242 2.64 2.64 0 01-.322.403c.161-.161-.08.161 0 0a.937.937 0 01-.161.242c-.215.161-.403.35-.565.564l-.241.242-.162.161c-.107.054-.107.027 0-.08 0 .054-.027.08-.08.08a8.44 8.44 0 01-1.29.807 3.126 3.126 0 00-.404.161c0 .08-.242.242-.322.161-.054.054-.108.08-.161.08a3.14 3.14 0 00-.404.162c-.322.08-.564.242-.806.403h-.08s-.162 0-.162.081c.162-.054.188-.08.08-.08h-.16c-1.13.08-2.339 0-3.468 0h-.806c.161 0-.242 0 0 0h-.242a1.326 1.326 0 00-.403-.081 2.371 2.371 0 00-.564-.08c-.242-.082.161 0-.08 0-.055 0-.108-.028-.162-.082l-.806-.16-.323-.162c-.161-.08-.322-.08-.403-.161.054 0 .08.027.08.08l-.08-.08c-.054 0-.108-.027-.161-.08a3.124 3.124 0 01-.404-.162c-.403-.242-.886-.484-1.29-.806h-.08c-.054-.054-.027-.054.08 0-.08 0-.08-.081-.16-.081a1.263 1.263 0 01-.243-.323 2.808 2.808 0 01-.564-.564 5.268 5.268 0 00-.484-.564l-.161-.162a1.013 1.013 0 00-.242-.403c-.242-.403-.484-.887-.726-1.37a3.126 3.126 0 01-.161-.404c-.08-.161.08.161 0 .08 0-.053-.027-.107-.08-.16l-.162-.807-.161-.806c0-.08 0-.242 0 0v-.242c0-.161-.027-.322-.08-.484 0-.483.08-1.048.08-1.612 0-.162.027-.296.08-.403v-.162l.162-.806c.053-.108.107-.242.16-.403v-.08c.082-.243-.08.16 0-.081.082 0 .243-.323.243-.242a1.26 1.26 0 01.242-.323 2.4 2.4 0 00.322-.645l.484-.645.161-.322c.162-.162-.161.16 0 0l.162-.162c.16-.215.349-.403.564-.564a5.27 5.27 0 01.564-.484c0-.054.027-.107.081-.161.08 0 .242-.161.08 0a2.64 2.64 0 01.404-.323 5.25 5.25 0 01.564-.322c.161-.161-.161 0 0-.08h.161c.216-.108.404-.189.565-.243.054-.053.107-.08.161-.08h.08l.323-.162c.242-.08.565-.16.807-.242a.716.716 0 01.322-.08.716.716 0 00.323-.08.897.897 0 00.403-.081h.242s.322-.081.08 0c.08-.081.242-.081.403-.081h3.387c.161 0-.242-.08 0 0 .054 0 .107.027.161.08l.806.162c.108.054.216.08.323.08h.161c-.161 0 .403.081.403.081h-.16.08a.62.62 0 00.242.08c.16.054.295.108.403.162.107 0 .188.027.242.08.161.081-.162-.08-.08 0-.162-.16-.082-.08 0-.08 0 .054.026.08.08.08.322.323.645.485 1.129.404.483-.08.806-.726.645-1.129-.162-.484-.645-.726-1.13-.645z" fill="#fff"/><path d="M57.33 62.56c-.403-.404-1.048-.404-1.532-.162-.242.161-.403.323-.564.403-.323.242-.645.404-.887.645a7.254 7.254 0 01-.807.726 9.731 9.731 0 00-1.693 1.935c-.484.645-.887 1.29-1.37 1.935-.484.726-.887 1.452-1.29 2.177-.484.726-.888 1.532-1.049 2.42-.08.402-.242.806-.322 1.209l-.162 1.451c-.08.887-.16 1.774-.242 2.58v3.79c0 .484 0 .967.242 1.37.242.484.807.726 1.29.726h.484c.162 0 .35.027.565.08h1.29c.43 0 .86.028 1.29.082l1.29.16h.161c.054.054.134.081.242.081.269.054.538.081.806.081.887.08 1.774 0 2.742 0h7.901c.484 0 .887-.08 1.29-.161h1.29l1.29-.161c.216 0 .458-.027.726-.081a.715.715 0 01.323-.08h.08-.08.242c.242-.081-.323-.081.08 0h.404c.107 0 .242-.028.403-.081h.484a.716.716 0 00.322-.081c.108 0 .108 0 0 0h1.29a.897.897 0 01.403-.08c.162-.081-.08 0-.08 0h.16v-1.855h-.08c-.403.08-.887.403-.887.967 0 .484.403.887.887.887h.08c.485 0 .969-.403.888-.887 0-.564-.323-.886-.887-.967-.242 0-.484.08-.726.161-.08 0-.08-.08.08 0-.08-.08-.16 0-.16 0h-.323a1.311 1.311 0 00-.645 0h-.403c-.161.08 0 0 .08 0a.62.62 0 01-.241.08c-.215 0-.457.028-.726.081-.161 0 0-.08.08 0h-.08a1.325 1.325 0 00-.403-.08c-.484 0-.887.161-1.29.242h-.162c-.16.08.162 0 .081 0h-.322c-.215.053-.43.08-.645.08-.404 0-.807 0-1.21.08-.403 0-.887.081-1.29.081a8.53 8.53 0 01-1.21.081c-1.693-.08-3.386 0-5.16 0h-4.676c-.054 0-.108-.027-.162-.08-.483-.054-.94-.108-1.37-.162-.403-.08-.887-.08-1.29-.161h-1.21c-.403 0-.806-.08-1.21-.08h-.805c-.162 0 .241.08.08 0-.161 0 .161.08.08.08-.08-.08.162.08.081 0-.08-.08.162.242 0 .08 0-.08.08 0 .08.081 0-.08-.08-.161-.08-.242.08.162 0 .162 0 .081v-2.499c0-.807 0-1.613.162-2.5.053-.806.134-1.64.242-2.5v-.403c.053-.215.107-.403.16-.564.081-.403.162-.806.323-1.21v-.16c.08-.082 0 .16 0 .08l.161-.323c.108-.161.189-.322.242-.483a17.9 17.9 0 01.645-1.049c.215-.376.43-.725.645-1.048l.645-.968.646-.967.322-.484a.939.939 0 00.161-.242c.081-.08 0 0 0 .08 0-.053.027-.107.081-.16.269-.323.537-.618.806-.887.242-.242.565-.484.807-.726.16-.108.295-.215.403-.322 0-.054.027-.081.08-.081.081-.08-.08 0-.08 0a.62.62 0 00.242-.08c.16-.162.349-.296.564-.404.054-.054.108-.08.161-.08 0-.081.08-.081.162-.081 0 0-.242.08-.162 0h-.322c-.054 0-.108-.027-.161-.08l-.081-.081c.322.322.967.322 1.29 0 .323-.323.323-.887 0-1.29zm13.868 2.015c.081 0 .162.08.162.08l-.081-.08.08.08c.054 0 .108.028.162.081.08.081-.161-.16 0 0l.08.081c.108.108.189.215.242.323l1.21 1.209c-.08-.08 0 0 0 .08.054 0 .08.028.08.081.108.161.189.296.242.403.162.323.323.645.565.807-.08-.08-.08-.08 0 0v.08l.161.162c0 .16-.08-.162 0 0 0 .053.027.134.08.242.054.215.135.456.243.725.053.108.107.242.16.403 0 .081-.08-.16-.08-.08 0 .053.027.107.08.16.055.162.081.323.081.485.054.161.081.322.081.483l.161.323c.054 0 .081.027.081.08.08.162 0 .081 0-.241 0 .242.08.484.242.645.161.161.403.242.645.242.403 0 .968-.403.887-.887 0-.242-.08-.484-.242-.726.08.161 0 .08 0 0a.618.618 0 00-.08-.242 4.458 4.458 0 00-.323-1.129s0-.16.08.081c-.053 0-.08-.027-.08-.08 0-.054-.027-.108-.08-.162 0-.161-.028-.322-.082-.484-.16-.322-.241-.645-.403-.967l-.16-.162c.08.081-.243-.241-.243-.322 0 .08.162.242.08.08l-.08-.08a.939.939 0 01-.161-.242 7.344 7.344 0 00-.564-.806c-.404-.565-.807-.968-1.29-1.452-.484-.564-1.13-1.048-1.936-1.048-.403 0-.887.403-.887.887s.404.887.887.887z" fill="#fff"/><path d="M55.96 62.156c-.485 0-.968.162-1.29.403a2.51 2.51 0 00-.485.323c.081-.08.081-.08 0 0-.053 0-.08.027-.08.08a3.927 3.927 0 01-.403.242c-.323.242-.565.565-.807.807a2.64 2.64 0 01-.322.403l-.162.161a.936.936 0 01-.16.242c.08-.161 0 0-.081 0l-.323.323c-.107.16-.215.349-.322.564-.162.323-.35.645-.565.968-.322.725-.726 1.37-1.048 2.096a6.495 6.495 0 00-.565 1.048c-.16.403-.403.806-.483 1.21-.323.645-.323 1.37-.484 2.096a3.65 3.65 0 00-.242 1.29v.403c-.054.215-.08.457-.08.726v6.209c0 .483 0 .967.403 1.37.322.323.725.403 1.128.403h1.29c.807 0 1.613-.08 2.42 0 .16.054.349.08.564.08h.08a.704.704 0 00.323.082c.43.053.833.134 1.21.241.886.162 1.693.242 2.58.323.806.107 1.612.188 2.419.242.806 0 1.612-.08 2.418-.08h6.209c.403 0 .806.08 1.21 0 .806-.081 1.612-.081 2.418-.081h1.21a.895.895 0 00.887-.887.895.895 0 00-.887-.887c-.806 0-1.613-.08-2.42 0-.375 0-.752.027-1.128.08H59.749c-.806-.08-1.613-.16-2.338-.242a2.372 2.372 0 00-.565-.08h-.161c-.161-.08.08 0 .08 0s-.322-.08-.403-.08a8.466 8.466 0 01-1.128-.243c-.807-.08-1.613-.242-2.5-.322h-2.258c-.403 0-.725 0-1.129.08h.162c-.162 0 .08.081.08.081.108 0 .189.054.242.161.081.162.081.162 0 .08v-.322c.081-.806.081-1.532 0-2.338V75.38c.081-.162 0 .08 0 .08.081-.08.081-.161.081-.322 0-.108.027-.242.08-.403v-.565.08-.16c0-.108.028-.216.081-.323.054-.322.108-.672.161-1.048.054-.323.135-.645.242-.968 0-.08.081-.242.081-.322 0 0-.08.242 0 .08 0-.053.027-.08.08-.08a1.82 1.82 0 01.242-.565c.323-.645.646-1.37.968-2.015.323-.645.806-1.29 1.129-1.936a3.13 3.13 0 01.161-.403c0-.053.027-.107.08-.161.081-.08 0 .08-.08.08.08 0 .161-.16.242-.16l.161-.162c0-.054.027-.08.081-.08 0-.054.027-.108.08-.162.054-.107.054-.107 0 0 .081-.08.242-.242.323-.403l.726-.726c.053-.053.08-.107.08-.16.081 0 .162-.081.081 0l.08-.081c.216-.108.404-.242.565-.404.161-.16-.161.081 0 0l.08-.08h.162c0-.054.027-.08.08-.08h.081c.403 0 .887-.404.887-.888a.895.895 0 00-.887-.887z" fill="#fff"/><path d="M55.475 62.237c-.322 0-.564 0-.886.161a1.265 1.265 0 00-.323.242c-.403.161-.726.323-1.048.645-.242.162-.403.403-.645.645 0 .054-.027.08-.08.08l-.082.082a5.258 5.258 0 00-.564.483 3.196 3.196 0 01-.403.484v.08l-.161.162a3.52 3.52 0 00-.807.968c-.16.268-.349.564-.564.886l-.323.484a.937.937 0 00-.16.242s-.082.161-.082.242c0-.161.081-.161 0-.08l-.08.08-.161.161a5.26 5.26 0 00-.323.565c-.161.161-.161.403-.242.564 0 .242-.08.403-.161.565-.054.16-.108.349-.161.564-.054.161-.108.35-.162.564a5.986 5.986 0 00-.241 1.049c-.162.886-.323 1.693-.484 2.5-.08.805-.08 1.531-.08 2.337v1.29c0 .484.053.968.16 1.452 0 .161.027.296.081.403v.726c0 .215.027.43.08.645v.322c.081.08 0 .242 0 .323 0 .483.404.887.968.887a.895.895 0 00.887-.887c0-.215-.027-.457-.08-.726v-.403c0-.376-.027-.78-.081-1.21l-.161-.483v-.484c0 .242 0 .08 0 0a7.966 7.966 0 01-.081-1.129c0-.726 0-1.451.08-2.258v-.483c0-.108.028-.215.081-.323v-.161c.054-.323.108-.672.161-1.048l.323-1.13c.08-.402.161-.725.242-1.047a3.4 3.4 0 01.322-1.049c.054-.16.081-.322.081-.483.054-.054.08-.108.08-.162 0-.08 0 .081-.08.081.08 0 .161-.242.08-.08l.081-.081.162-.162c.16-.214.295-.403.403-.564.161-.322.35-.645.564-.968.242-.241.403-.564.565-.886.08-.081 0 0 0 .08l.08-.08.161-.162a2.63 2.63 0 00.323-.403c.108-.107.188-.215.242-.322l.08-.081c0-.054.027-.08.081-.08 0-.054-.027-.028-.08.08 0 0 .322-.403.403-.403 0 0-.242.161-.08.08l.08-.08c.107-.108.215-.188.322-.242.162-.161.242-.242.323-.403.161-.161.322-.242.403-.403 0 0-.161.161 0 .08l.08-.08a.936.936 0 00.242-.162c.162-.107.323-.188.484-.241 0-.081.161-.081.161-.162-.053 0-.08.027-.08.08h-.08.16a.895.895 0 00.887-.886.895.895 0 00-.887-.887zm16.933 2.419h.322c-.053 0-.053 0 0 0-.107 0-.188-.054-.242-.161l.081.08-.08-.08c.16.322.322.564.644.725.216.215.404.43.565.645l.161.162.08.08c.055.054.055.027 0-.08.081.08.162.242.243.403 0 .054.027.107.08.161.08.242-.08-.161 0 .08.108.162.189.35.242.565.054.108.135.215.242.323 0 .08.161.242 0 .08.054.054.08.054.08 0-.053-.107-.053-.107 0 0v.403c0 .215.028.43.081.645.081.404.242.645.404.968v-.968.081c-.323.403-.162 1.048.322 1.29.403.242.887.08 1.21-.322 0-.054.026-.081.08-.081.161-.323.08-.645 0-.968a1.267 1.267 0 01-.242-.322c-.053-.108-.053-.108 0 0v-.161a2.654 2.654 0 01-.08-.645v-.081c0-.107-.027-.242-.081-.403-.08-.242-.161-.323-.323-.484a.62.62 0 01-.08-.242c-.054-.107-.054-.107 0 0l-.08-.08a2.724 2.724 0 00-.485-.968c-.403-.564-.806-1.048-1.37-1.451-.054-.108-.027-.081.08.08-.053-.053-.08-.107-.08-.161-.054-.054-.08-.108-.08-.161a1.439 1.439 0 00-.404-.403 1.094 1.094 0 00-.806-.323h-.484c-.403 0-.887.403-.887.887s.403.887.887.887z" fill="#fff"/><path d="M72.488 65.22c.484.565 1.049 1.13 1.613 1.694.108.107.215.242.323.403a.936.936 0 01.241.161c0 .08.162.161.162.242 0-.08-.08-.161 0-.08 0 .053.027.107.08.16.054.054.081.135.081.243l.323.483v.162c.08.16 0-.162 0 0a.936.936 0 01.16.241c.054.215.108.404.162.565l.323 1.129c.107.376.215.78.322 1.21 0 .16.027.349.08.564v-.081.484c.081.806.081 1.612.162 2.5 0 .43.027.832.08 1.209.054.43.081.833.081 1.21 0 .886-.08 1.692 0 2.58v.805l-.08.16a3 3 0 00-.081.727c0 .107.027.08.08-.081 0 .08-.08.322-.08.322v.403c0-.16-.08.243 0 0l-.08.081c.08-.161 0 .242 0 0v.08c0 .082-.081.082.08-.08.08-.08.161-.161.323-.161.16 0-.162 0 0 0-.216 0-.43-.027-.646-.08h-.322c.242.08.08 0 0 0h-.161c-.887-.162-1.936-.565-2.661.08a.84.84 0 000 1.29c.322.403.887.323 1.21 0 0 .054-.028.108-.081.161-.162.054-.215.054-.162 0h.645c-.241.08-.16 0-.08 0a.71.71 0 00.322.08l.645.162c.403.08.887.08 1.371.08.323 0 .645-.08.887-.322.08-.161.161-.242.242-.403.161-.322.161-.564.242-.887v-.242c0-.08.08-.403 0-.08a1.52 1.52 0 00.08-.484v-.161s-.08.242 0 .08a4.1 4.1 0 00.081-.806c.08-.403 0-.806 0-1.21v-2.58c0-.483-.08-.887-.08-1.37-.081-.807-.081-1.694-.162-2.5-.08-1.693-.403-3.386-1.048-4.999a7.15 7.15 0 00-.645-1.37 6.334 6.334 0 00-.887-1.13c-.322-.322-.645-.564-.968-.886-.322-.323-.564-.726-.887-1.049-.403-.322-.967-.322-1.29 0-.322.404-.403.968 0 1.29z" fill="#fff"/><path d="M74.988 69.494c0 .268.027.537.08.806.054.054.081.134.081.242v.161l.162 1.451s.08.162 0 .081v.08c.053.054.08.135.08.243 0 .241-.08.483 0 .725 0 .484.08.968.08 1.371l.162.645c0 .107 0 .107 0 0v6.531c-.08.323-.08.564-.08.806 0 .484.403.968.886.968.484-.08.887-.403.887-.968v-.16c0-.082.08-.082 0 .08.054-.054.08-.135.08-.242a1.367 1.367 0 000-.806v-5.402c0-.484 0-.968-.08-1.452a.715.715 0 00-.08-.323v-.16c.08.08 0 .16 0 .08 0-.215-.027-.43-.081-.645v-1.29l-.161-.968v-.08c0 .16 0-.242 0 0v-.404c0-.322-.054-.618-.162-.887v-.322l-.08-.08c.054.16.054.187 0 .08v-.161a.895.895 0 00-.887-.887.895.895 0 00-.887.887z" fill="#fff"/><path d="M74.827 82.153h-.08c.16.484.295.994.402 1.532l.08-.08-.16.16c0-.053.026-.08.08-.08-.053.053-.134.08-.242.08h.162-.242c.242 0 .564 0 .806-.08a3.96 3.96 0 00.403-.242.939.939 0 00.242-.161l-.161.16c.053-.053.107-.08.161-.08h-.242.08v-1.774c-.16 0-.322.027-.483.081-.108 0-.242.027-.403.08-.242.081-.403.243-.645.404-.242.161-.323.484-.323.806v.242l.162.323c.16.16.322.241.483.322.162 0 .404.08.645 0h.403-.241.16a.62.62 0 01-.241-.08h.08c-.053-.054-.107-.081-.16-.081l-.162-.162h.08a.935.935 0 01-.16-.241c.053 0 .08.026.08.08a.62.62 0 01-.08-.242.62.62 0 01.08-.242l-.08.081a.936.936 0 01.16-.242c-.053 0-.08.027-.08.08a.939.939 0 01.161-.241l-.08.08c.053-.053.134-.08.242-.08h-.242.242-.162.242a.897.897 0 01-.403-.08 1.55 1.55 0 01-.484-.081h-.322c-.323 0-.484.08-.726.16l-.161.162c-.108.054-.188.162-.242.323a.997.997 0 000 .564c.08.323.322.564.726.645.16.08.403.08.645 0 .161 0 .322-.161.484-.161h-.242c.16 0 .322.08.483.08h.081a.715.715 0 00.323-.08c.241-.08.403-.161.564-.323.161-.16.242-.403.242-.645s-.08-.483-.242-.645c-.161-.161-.403-.242-.645-.242s-.484.081-.645.242v.08l.161-.16-.08.08a.939.939 0 00.241-.16l-.08.08a.62.62 0 00.242-.08c-.162.053-.296.053-.403 0a1.52 1.52 0 00-.484.08c-.242 0-.403.08-.565.16a.618.618 0 00.242-.08h-.08c.053.054.134.08.241.08h-.08c.054 0 .134.028.242.082h-.08a.62.62 0 00.241.08c0 .054.027.135.08.242v-.08a.615.615 0 01.081.241 7.395 7.395 0 01-.403.968l-.161.161.08-.08h-.241c.16 0 .322.026.483.08-.053-.054-.134-.08-.242-.08.323.08.645.16.968.16a1.72 1.72 0 001.37-.644c.081-.242.162-.565.081-.887-.08-.323-.403-.565-.725-.726a1.31 1.31 0 00-.645 0h-.403.241-.16c.214.269.43.565.644.887v.162c-.054.053-.08.134-.08.241v-.08l-.162.16h.08c-.053 0-.107.028-.16.082.053-.054.134-.081.242-.081a.62.62 0 00-.242.08l.483-.16h-.242.162c.242 0 .484-.081.645-.243.161-.16.242-.403.242-.645s-.08-.483-.242-.645c-.215-.161-.43-.242-.645-.242h-.08a.717.717 0 00-.323.081.547.547 0 00-.403.161 3.127 3.127 0 00-.404.162c.108 0 .189-.027.242-.081-.215.054-.403.08-.564.08-.242.081-.484.242-.726.404-.161.242-.322.564-.242.887.161.322.403.483.645.645h.08c.243.08.485 0 .727-.081.16-.161.322-.323.403-.564 0-.242 0-.484-.08-.726a2.153 2.153 0 00-.565-.403zm-21.69-66.037a4.535 4.535 0 00-.887-.08h-1.693c-.323 0-.672.054-1.048.161-.538.108-1.075.242-1.613.403a2.88 2.88 0 01-.726.242c-.322.08-.564.162-.886.323-.162.08-.323.242-.565.322l-.806.484-.645.323c-.323.16-.565.403-.806.564a7.47 7.47 0 01-1.13 1.129c-.16.08-.322.242-.483.403-.242.242-.323.564-.484.806a15.18 15.18 0 00-1.29 3.145c-.161.564-.242 1.21-.322 1.774a5.88 5.88 0 00.08 1.693c.054.645.161 1.263.323 1.854.161.565.242 1.13.483 1.613.242.484.565.887.968 1.21l1.129 1.128 1.451 1.13c.484.322.94.671 1.37 1.047.888.565 2.017 1.049 3.065 1.21.564.08 1.21.08 1.854.161.484 0 1.049.08 1.613.08.564 0 1.129-.08 1.613-.16.322-.108.618-.216.887-.323l.322-.161c.054-.054.108-.081.161-.081.08-.08.323-.242.08-.08.082-.081.243-.081.323-.162a.897.897 0 00.404-.08c.322-.108.618-.27.887-.484.483-.242.967-.645 1.37-1.049a13.272 13.272 0 002.097-2.5c.322-.483.564-.967.725-1.531.08-.484.242-.968.404-1.451.16-.645.268-1.29.322-1.935.08-.565-.08-1.049-.08-1.613 0-.645-.081-1.29-.162-1.935-.161-.484-.322-.968-.564-1.532-.323-.968-.887-2.016-1.694-2.742a3.748 3.748 0 01-.725-.564c-.054 0-.108-.027-.162-.08l-.322-.323a6.04 6.04 0 00-.645-.565c-.242-.16-.564-.242-.887-.322a2.876 2.876 0 00-.726-.242c-.107-.054-.107-.054 0 0 0 0-.08-.08-.16-.08-.055-.054-.108-.081-.162-.081 0-.054-.027-.08-.08-.08.107.053.134.053.08 0-.403-.243-.726-.565-1.129-.727a1.375 1.375 0 00-.806 0 1.148 1.148 0 00-.726 1.049c.08.483.403.887.968.887.403 0 .887-.404.887-.887v-.081c-.054.376-.242.645-.565.806h-.403.08c.081 0 .162.08-.08-.08.054.053.107.08.161.08.242.242.08.08 0 0l.645.484c.242.161.484.323.807.403.215.108.43.188.645.242a.71.71 0 00.322.08l.08.081c-.107-.053-.107-.053 0 0h.081c0 .054.027.081.081.081l-.08-.08.16.16.162.162c.269.215.51.43.726.645.107.054.215.134.322.242 0 0 .242.08.242.161.054.054.108.08.161.08.054.108.135.216.242.323l.08.08.162.323c.161.215.296.43.403.645v.081c.161.08.08.08 0 0 .08.08.08.242.161.323.054.268.135.537.242.806.108.215.188.457.242.726 0 .107.027.215.08.322v.242c.082.242 0-.161 0 0 .055.269.082.538.082.806 0 .269.026.538.08.807v1.128c0-.241 0 0-.08 0v.323a21.75 21.75 0 01-.404 1.532c-.107.215-.188.43-.242.645a.715.715 0 01-.08.322c0 .081-.08.404-.08.404-.055.053-.081.107-.081.16a.936.936 0 00-.162.243c-.161.215-.295.43-.403.645a1.265 1.265 0 00-.242.322h-.08c-.054.108-.027.108.08 0-.053 0-.08.027-.08.08-.162.216-.35.404-.565.565a9.641 9.641 0 01-1.048 1.049c-.054.053-.107.08-.161.08.161-.08-.08.08 0 0a1.267 1.267 0 01-.323.242c-.161.08-.403.323-.645.323.242 0 .08 0 0 0-.054.053-.107.08-.161.08l-.323.161-.806.323a3.11 3.11 0 00-.403.161c-.161.08.161 0 .08 0-.053.054-.107.08-.16.08-.216.055-.458.108-.726.162.242 0-.162.08 0 0h-.162c-.107 0-.242.027-.403.08h-.806c-.484-.08-.968-.16-1.451-.16a3 3 0 01-.726-.081h-.242c.242 0-.242 0 0 0a.897.897 0 00-.403-.08 5.73 5.73 0 01-.726-.243.715.715 0 01-.322-.08c-.054-.054-.108-.08-.162-.08.162.08-.16-.082 0 0a6.966 6.966 0 01-1.29-.807c-.403-.323-.887-.645-1.29-.968.242.161-.08-.08-.08-.08a1.265 1.265 0 00-.323-.242 6.05 6.05 0 01-.645-.565 18.694 18.694 0 00-1.048-.967.527.527 0 00-.242-.242c-.054-.054-.08-.108-.08-.161-.162-.081 0 .08 0 .08l-.162-.322c.08.242-.08-.162 0 0 0-.054-.027-.108-.08-.162-.162-.483-.242-.967-.323-1.45-.054-.27-.108-.512-.161-.727a.897.897 0 01-.081-.403v-.242a4.107 4.107 0 01-.08-.806v-.564s.08-.323 0-.081c.08-.242.16-.484.16-.726.054-.268.135-.51.243-.725.053-.27.107-.511.16-.726.081-.242.162-.484.323-.726-.08.081-.16.242 0 0 0-.053.027-.107.081-.16l.161-.323c.108-.215.215-.457.323-.726a.939.939 0 00.161-.242c.054-.107.054-.107 0 0 0 0 .08-.08.08-.161.242-.161.404-.242.565-.403.403-.323.726-.726 1.048-1.049.08 0 .161-.08.161-.08l.323-.161c.215-.108.43-.242.645-.404.269-.107.51-.242.726-.403a.939.939 0 01.242-.161c.08 0 .322-.161.322-.161h.161l.323-.162a4.59 4.59 0 00.806-.241c.484-.162.968-.296 1.452-.404a.898.898 0 00.403-.08h1.774l.322.08h.161c.242 0 .484.081.726-.08.161-.08.403-.323.403-.565.08-.403-.161-1.048-.645-1.129z" fill="#fff"/><path d="M55.556 17.165h.484c0 .08.161.16.161.16l-.08-.08a2.644 2.644 0 00-.404-.322c-.242-.161-.645-.242-.887-.323a3.131 3.131 0 01-.403-.161h-.322c-.08 0-.161-.08-.08 0 .16 0 .08 0 0-.08a15.632 15.632 0 00-.727-.162c-.322-.08-.645-.161-1.048-.161-.242-.08-.483 0-.806 0H49.67c-.645 0-1.29 0-1.935.08a.898.898 0 01-.403.081c.161 0-.161.08 0 0-.161.054-.296.08-.403.08l-.726.243a4.601 4.601 0 00-.806.242 4.33 4.33 0 00-.565.241c-.053 0-.107.027-.161.081-.322.161-.645.242-.887.403-.215.161-.457.35-.726.565-.483.322-.886.725-1.29 1.128-.43.43-.806.914-1.129 1.452a4.24 4.24 0 00-.403.645c-.08.08-.16.242-.16.322 0 0 .08-.16 0-.08v.08a1.265 1.265 0 00-.243.323c-.403.403-.564 1.048-.725 1.612l-.162.968v.806c-.08.645-.161 1.21-.08 1.774.08.645.16 1.21.322 1.855.08.564.403 1.128.645 1.693.242.484.484.887.726 1.37.322.484.726.968 1.129 1.452.403.403.887.806 1.37 1.21.404.241.887.483 1.371.725.565.323 1.129.484 1.693.726l.807.161c.215.054.403.08.564.08.108 0 .188.028.242.081a11.23 11.23 0 001.855.161h3.628a2.507 2.507 0 001.048-.403l.323-.16s.08 0 .08-.081c0 0-.161.08 0 .08 0-.054.027-.08.08-.08.323-.081.646-.162.888-.323.269-.107.51-.215.725-.322.484-.242 1.049-.646 1.452-.968.43-.323.833-.726 1.21-1.21.16-.107.295-.241.402-.403.054-.053.081-.107.081-.161l.08-.08c.162-.242.404-.484.565-.726.161-.215.296-.457.403-.726l.162-.323v.002c.053-.108.134-.215.241-.323.242-.564.404-1.048.484-1.693.108-.591.161-1.21.161-1.855v-.806c0-.43-.08-.806-.242-1.129 0-.08-.08-.242-.16-.322 0 0 .08.16.08.08l-.08-.08v-.162c-.081-.322-.243-.564-.243-.806a.716.716 0 01-.08-.322l-.161-.323a1.11 1.11 0 01-.242-.322l.16.16c0 .162 0 .081 0 0-.053-.053-.08-.107-.08-.16l-.242-.484s-.08-.08-.08-.162c0 0 .08.242 0 .162 0-.108-.027-.188-.081-.242a1.01 1.01 0 00-.242-.403 3.156 3.156 0 01-.403-.726c-.322-.484-.645-.967-1.048-1.451-.403-.484-.887-.807-1.37-1.13-.485-.241-.888-.564-1.372-.886-.403-.242-.967-.484-1.37-.726-.484-.161-1.049-.161-1.29.323-.162.403-.081 1.048.322 1.21.484.241.968.483 1.451.806.404.241.807.564 1.29.806.216.161.404.296.565.403.242.161-.08-.161.08 0 0 .054.027.108.081.161l.323.323.161.161c.08.161-.161-.161 0 0l.161.323c.162.215.296.43.403.645l.484.645c.054.053.08.134.08.242.081 0 .081.08.081.08v-.08c0 .107.027.188.081.241l.161.162c0 .053.027.107.081.16.08.162-.08-.16 0 0l.161.485c.08.08.242.403.08.08.081.162 0-.16 0 0a.702.702 0 01.081.323l.242.726c.054.322.162.618.323.887l.08.16v.967c0 .27-.026.538-.08.807v.645c0-.242-.08 0-.08.08a1.6 1.6 0 01-.162.726v.08c-.054.054-.054.027 0-.08.08 0 0 .161 0 .161a1.265 1.265 0 00-.242.323 484.6 484.6 0 01-.161.322l-.161.323c.16-.242.08 0 0 0l-.162.322c-.08.162-.16.323-.242.403-.053.054-.08.108-.08.162a.527.527 0 00-.242.242 2.644 2.644 0 01-.323.403c.162-.162-.16.161 0 0a.937.937 0 01-.16.242 2.81 2.81 0 00-.565.564 1.265 1.265 0 00-.323.242c0 .054-.027.107-.08.161-.108.054-.108.027 0-.08l-.081.08c-.43.323-.887.591-1.37.806l-.323.162c-.08.08-.242.242-.323.161-.054.054-.107.08-.161.08a1.322 1.322 0 01-.403.081c-.323.161-.565.323-.806.403l-.081.081h-.161.08-.161c-1.21.08-2.338 0-3.467 0h-.887c-.054 0-.108-.027-.161-.08h-.484a1.788 1.788 0 00-.564-.081c.241 0-.162-.08 0 0-.054-.054-.108-.08-.162-.08l-.806-.162a3.126 3.126 0 00-.403-.161c-.08-.081-.242-.081-.323-.162-.053 0-.107-.026-.161-.08a1.011 1.011 0 01-.403-.242 5.218 5.218 0 01-1.29-.726h-.08c-.055-.054-.028-.054.08 0-.08 0-.162-.08-.162-.08l-.322-.323-.565-.564a12.757 12.757 0 01-.403-.565l-.16-.161a3.96 3.96 0 01-.243-.403c-.242-.403-.483-.887-.725-1.37a3.126 3.126 0 01-.162-.404c.08.161-.08-.161 0 0l-.08-.08-.162-.807-.16-.806c0-.08-.081-.242 0 0v-.242a1.52 1.52 0 01-.081-.484c0-.484.08-1.048.08-1.613v-.403c0-.08 0-.161.08-.161l-.08.08c.054-.053.08-.107.08-.16.055-.27.108-.511.162-.726.054-.162.108-.296.161-.403v-.081c.08-.242-.08.161 0-.08 0 0 .162-.323.242-.323-.054.053-.08.107-.08.161 0-.054.026-.08.08-.08.054-.108.135-.216.242-.323.08-.242.242-.403.323-.645.16-.215.322-.457.483-.726a.942.942 0 00.162-.242c.08-.161-.162.162 0 0l.16-.161c.162-.215.323-.403.485-.564.215-.162.403-.323.564-.484l.161-.161c.081 0 .242-.162.081 0l.322-.323c.215-.107.43-.242.646-.403.16-.08-.242.08 0 0h.16a4.47 4.47 0 01.565-.242c.054-.054.108-.08.161-.08a3.13 3.13 0 00.404-.162c.242-.08.564-.161.806-.242a.717.717 0 01.322-.08.715.715 0 01.323-.081.897.897 0 00.403-.08h.242s.322-.081.08-.081h3.71c.241 0-.162-.08.08 0 .054 0 .108.027.161.08l.807.162a.71.71 0 01.322.08h.162c-.162 0 .322.08.322.08.054 0 .134.028.242.082.108.053.242.107.403.16a.63.63 0 01.242.081c.161.081-.161-.08-.08 0-.162-.16-.081-.16 0-.08 0 .054.026.08.08.08.323.323.645.484 1.129.404.484-.081.806-.726.645-1.13-.161-.483-.645-.725-1.129-.644zm-5.483 37.493h1.855c.564-.08 1.21-.161 1.774-.161.483 0 .967-.404.967-.968-.08-.484-.403-.887-.967-.887-.565 0-1.21.161-1.774.161-.565.081-1.21.081-1.855.081-.403 0-.887.403-.887.887.08.484.404.887.887.887z" fill="#fff"/><path d="M43.3 32.968c-.564-.564-1.37-.242-1.935.162a5.267 5.267 0 00-.564.322c-.269.161-.51.376-.726.645-.484.484-1.048.887-1.451 1.37-.484.565-.968 1.13-1.29 1.775-.323.403-.162.967.322 1.21.403.241.887.08 1.21-.323.16-.27.322-.511.483-.726a.937.937 0 01.162-.242c.08-.161-.081.161 0 0a1.28 1.28 0 00.242-.322c.403-.484.886-.807 1.37-1.29.162-.162.323-.323.565-.484.053-.054.027-.054-.08 0h.08l.16-.162a.618.618 0 00.243-.08 2.64 2.64 0 01.403-.323c.054-.053.108-.08.161-.08.161-.081-.161 0-.08 0h-.162a.715.715 0 01-.322-.081l-.08-.08c.322.322.967.322 1.29 0 .322-.404.322-.888 0-1.29zm13.869 2.016c.08 0 .08.08.161 0 0 0-.161-.08-.08 0h.08l.161.161c.08.081-.161-.16-.08 0 .053 0 .107.027.16.081.108.108.189.215.243.322.403.404.806.807 1.129 1.21.08 0 .08.08.08 0 0 .054.027.107.08.161.108.162.189.296.243.403.161.323.322.645.564.807-.08-.081-.08-.081 0 0v.08c.054.054.08.108.08.161.081.081 0-.16 0 0 .054.054.081.135.081.242.108.215.189.457.242.726.054.108.108.242.161.403.081.08 0-.161 0-.08 0 .053.027.107.081.16 0 .162.027.323.08.485.055.16.081.295.081.403.054.161.108.295.162.403l.08.08c.081.162 0 .081 0-.241 0 .242.081.483.242.645.161.161.403.242.645.242.403 0 .968-.404.887-.887a1.3 1.3 0 00-.242-.726c0 .161 0 .08 0 0a.62.62 0 00-.08-.242 4.464 4.464 0 00-.323-1.129v.001c0-.054-.027-.108-.08-.162a1.524 1.524 0 01-.081-.484c-.161-.322-.242-.645-.403-.967l-.162-.161c.081.08-.241-.242-.241-.323 0 0 .16.242 0 .08v-.08a.935.935 0 01-.162-.242 22.26 22.26 0 00-.564-.887c-.403-.484-.806-.887-1.29-1.37-.484-.565-1.129-1.049-1.935-1.049a.895.895 0 00-.887.887c0 .484.403.887.887.887zM46.203 54.658c1.774 0 3.548.16 5.322.16h2.822c.483 0 .967-.402.887-.886a.895.895 0 00-.887-.887h-3.79l-3.064-.161h-1.29a.895.895 0 00-.887.887c0 .483.403.887.887.887z" fill="#fff"/><path d="M41.849 32.565c-.645 0-1.21.242-1.613.645-.053.054-.107.08-.16.08h.08l-.08.081-.485.323c-.215.161-.403.35-.564.564a5.25 5.25 0 00-.484.565l-.322.322c-.054.108-.054.108 0 0v.08c-.054.054-.108.081-.162.081a6.06 6.06 0 00-.564.645c-.08.242-.161.484-.323.645-.241.404-.08 1.049.323 1.29.484.162 1.048.081 1.29-.322.108-.215.188-.403.242-.564.054-.054.08-.108.08-.162l.081-.08-.08.08s.16-.16.241-.16a.527.527 0 01.242-.243c0-.107.027-.188.08-.242-.053.108-.053.135 0 .08 0-.053.028-.107.082-.16.16-.162.322-.323.483-.484a5.27 5.27 0 01.484-.564c.054 0 .08-.027.08-.081.162-.161-.16.08.081 0a.937.937 0 01.242-.161c.162-.108.296-.215.403-.323.081-.161-.16.08 0 0l.081-.08.161-.081c-.107.054-.134.08-.08.08l.08-.08h.162-.162.08c.485 0 .968-.403.968-.887-.08-.484-.403-.887-.967-.887z" fill="#fff"/><path d="M41.607 32.162c-.322 0-.645.08-.968.242a5.267 5.267 0 00-.564.322c-.403.242-.887.565-1.21.968a.939.939 0 00-.16.242l-.081.08c-.08.081.161-.16 0-.08a6.06 6.06 0 00-.645.564 2.64 2.64 0 01-.323.403c0 .054-.027.108-.08.162l-.081.08c.054 0 .08-.027.08-.08 0 0-.08.08-.08.16-.054 0-.108.028-.161.081l-.242.242c-.323.404-.403.968 0 1.29.322.323.967.404 1.29 0l.484-.483c.107-.108.188-.215.242-.323.053-.054.08-.107.08-.161.161-.161 0 .08 0 0l.242-.242.08-.08c.081-.081-.16.08 0 0a1.6 1.6 0 00.565-.484 1.44 1.44 0 01.403-.404l.08-.08.081-.08-.08.08c0-.08.242-.162.242-.242.242-.08.403-.161.564-.242a.939.939 0 00.242-.161c.108-.054.08-.054-.08 0-.162.053-.189.08-.081.08h.161c.484 0 .887-.483.887-.967a.895.895 0 00-.887-.887zm16.771 2.903h.322c-.107 0-.107 0 0 0-.107 0-.188-.054-.241-.162 0 .054.027.081.08.081l-.08-.08c.161.322.322.564.564.725.269.215.484.43.645.645.054.054.108.08.162.08 0 .054.026.108.08.162l-.08-.08c.16.08.241.241.241.403l.162.16c.08.243-.081-.16 0 0 .053.216.134.404.242.565.053.161.134.296.241.403 0 .081.162.242 0 .081.054.054.054.054 0 0 0-.108 0-.108 0 0a.714.714 0 01.081.322v-.08.161c0 .215.027.43.08.645 0 .403.243.645.404.887v-.887c0 .054-.027.08-.08.08-.243.404-.081 1.049.322 1.29.483.243.967.081 1.29-.322v-.16c.242-.243.161-.565 0-.888a484.6 484.6 0 00-.162-.322c-.053-.108-.053-.108 0 0l-.08-.081c.054.108.08.134.08.08 0-.053-.026-.107-.08-.16v-.646c-.054-.107-.054-.08 0 .081v-.161a1.329 1.329 0 01-.08-.404c-.081-.241-.162-.322-.323-.564-.054-.054-.08-.107-.08-.161-.055-.108-.055-.108 0 0-.055 0-.081-.027-.081-.08-.162-.323-.242-.646-.484-.968a7.872 7.872 0 00-1.371-1.452c-.054-.107-.027-.107.08 0-.053 0-.08-.027-.08-.08l-.161-.162a.777.777 0 00-.323-.403c-.215-.215-.51-.322-.887-.322h-.403a.895.895 0 00-.887.887c0 .483.403.887.887.887z" fill="#fff"/><path d="M58.459 35.63c.403.402.806.886 1.21 1.37.214.161.43.35.644.564.108.108.188.215.242.323l.161.161c.162.161-.08-.161.081 0 .161.269.296.538.403.806.054.054.08.135.08.242.055.054.055.027 0-.08v.08c.108.162.189.323.243.484l.483 1.774c.162.484.645.806 1.13.645.483-.161.725-.645.644-1.129a35.06 35.06 0 00-.564-1.854c-.242-.645-.484-1.29-.887-1.855-.403-.484-.887-.967-1.29-1.37-.484-.484-.887-.968-1.37-1.452a.877.877 0 00-1.21 0c-.403.403-.403.968 0 1.29z" fill="#fff"/><path d="M60.958 39.902c0 .27.027.511.081.726.054.161.08.35.08.564 0 .242.081.484.242.645l.323.162c.108.053.215.08.323.08.241 0 .483-.08.645-.242.16-.215.242-.43.242-.645 0-.268-.027-.537-.081-.806a1.523 1.523 0 01-.08-.484.914.914 0 00-.243-.645c-.107-.107-.215-.161-.322-.161a.716.716 0 00-.323-.08.917.917 0 00-.645.241c-.161.162-.242.377-.242.645z" fill="#fff"/><path d="M63.7 41.273v-.403c-.538.161-1.102.323-1.694.484l.081.08c-.054-.107-.054-.107 0 0 0 .054.027.135.08.242.054.161.081.323.081.484.054.269.135.565.242.887.108.323.188.645.242.968 0 .16 0 .322.08.483 0 .162.082.323.162.484.161.403.565.726.968.645.483-.08.806-.403.806-.887 0-.403-.161-.887-.242-1.29a7.97 7.97 0 00-.403-1.21 4.463 4.463 0 00-.323-1.128 3.154 3.154 0 00-.242-.645 1.685 1.685 0 01-.322-.484c-.161-.322-.645-.484-1.048-.403-.323.08-.645.484-.645.887 0 .484.161 1.048.242 1.612v.162l.08.08c0 .054-.027.027-.08-.08.08.08.08.242.08.322 0 .323.027.618.08.887.082.242.162.403.243.645.08.242.08.484.161.645 0 .08 0 .161.08.242-.08-.08-.08-.242-.08-.08a.71.71 0 01.08.322v.323c.081.16 0-.162 0 0 .054.16.081.295.081.403 0 .483.404.967.887.887.484 0 .887-.323.887-.887 0-.242 0-.565-.08-.887 0 .161 0 .08 0 0V44.9a1.52 1.52 0 00-.081-.483l-.161-.645c-.081-.242-.162-.404-.242-.645v-.162c0-.08-.08-.16 0 0 0-.08-.08-.242-.08-.322 0-.323-.028-.618-.081-.887a15.74 15.74 0 00-.162-.726v-.161c0 .161 0-.161 0 0v-.403a25.21 25.21 0 01-1.693.403l.242.484c.054.053.08.107.08.161.081.161 0-.08 0 0 0 .054.027.08.081.08l.323 1.13c.107.376.215.725.322 1.048.054.215.108.403.162.564 0 .108.026.215.08.323-.08-.162 0 .08 0 .08a20.045 20.045 0 001.774-.242c-.08-.16-.161-.322-.161-.483-.08-.162-.08-.323-.162-.484a9.544 9.544 0 00-.242-1.048c-.16-.726-.241-1.371-.564-2.016-.161-.403-.725-.565-1.048-.403-.323.08-.645.403-.645.806v.403c0 .403.403.887.887.887a.895.895 0 00.887-.887zm-17.013 12.82a4.1 4.1 0 01.806.081h.645c.161.08-.242 0 0 0 .323.08.645.08.968.161h.403c.161.054.295.081.403.081h.403c-.107-.054-.134-.054-.08 0h.241c.242.08.404.08.565.08h.08c-.107-.053-.134-.053-.08 0h.242c.322.081.645.081.967.162h.161c.162 0 .323.027.484.08l-.645-.645.08.081c.081.484.646.806 1.05.645.483-.161.805-.645.644-1.129v-.08c-.08-.242-.322-.565-.645-.645a45.782 45.782 0 00-1.048-.162h-.645a.994.994 0 00-.565-.16h-.16l-.081.08h.08c0-.08-.403-.08-.484-.08a1.52 1.52 0 00-.483-.081h-.404.081-.08a.897.897 0 01-.404-.081h-.403c-.242 0 .161.08-.08 0h-.162c-.564-.08-1.21-.161-1.854-.161-.484 0-.968.403-.887.886 0 .484.403.887.887.887zm-34.671 9.595h-.484v1.855h.161c.162 0-.242-.08 0 0h.242c.242.08.565.08.806.08a1.52 1.52 0 01.484-.08h.162-.081c.215-.054.43-.08.645-.08.914.053 1.8.08 2.66.08h1.371c.484 0 .887 0 1.371-.08h.08c.108-.055.081-.055-.08 0h.484c.215 0 .457-.028.726-.081 0 0 .242-.081.322-.081-.08.08-.242 0-.08 0h.806c.322.054.645.08.967.08.404 0 .968-.08 1.29-.403.323-.322.323-.967 0-1.29-.322-.322-.967-.403-1.29 0-.08.08.162-.08.081-.08-.08.08.242-.081.161-.081l-.08.08s.242-.08.08-.08c-.107.054-.242.054-.403 0h-.806c-.484 0-.887 0-1.37.08h-.082c.162 0-.241.081 0 0h-.241a3 3 0 00-.726.081c-.08 0-.323.08-.403 0h.08-2.096c-.887 0-1.693.08-2.58 0-.484 0-.995.027-1.532.08l-.08.081c.107-.053.134-.08.08-.08l-.08.08h-.162c-.08 0-.323-.08-.323-.08a2.367 2.367 0 00-.564-.08c-.484 0-.887.402-.887.967 0 .484.403.887.887.887h.484a.895.895 0 00.887-.887c0-.565-.403-.968-.887-.968z" fill="#fff"/><path d="M10.887 65.382c-.054-.054-.08-.108-.08-.162-.054-.16-.081-.188-.081-.08 0 .053.027.08.08.08v.162c.108.322.242.59.404.806.241.322.564.403.886.403.242.08.484 0 .726-.08 0-.081.323-.162.08-.081h.243a.715.715 0 00.322-.08h8.547c-.161-.081-.484-.323-.484-.565 0 .242.242.403.403.564.162.08.484.161.645.08.242-.08.484-.241.565-.402.161-.242.161-.484.08-.726 0-.323-.322-.564-.564-.645a7.738 7.738 0 01-.564-.161 3 3 0 00-.726.08h-7.982c-.242.081.16 0-.081 0-.242 0-.564.081-.887.081a.937.937 0 01-.242.161h-.161.322c.08.08.162.08.242.162.162.16 0 .08 0 0 0-.054-.027-.108-.08-.162.08.162-.081-.161 0 0 0-.242-.162-.564-.323-.725-.322-.323-.967-.404-1.29 0-.323.322-.323.886 0 1.29zm73.857-1.049s-.242.08-.242 0c0 .08.242 0 .081 0h-.726c-.322 0-.725.08-1.048.08-.08-.08-.242 0-.322-.08.16.08.16.08.08 0h-.161a7.789 7.789 0 00-.565-.161 10.4 10.4 0 00-1.29-.08H78.94h.08a7.742 7.742 0 01-.564-.162c-.806-.08-1.693 0-2.5 0-.215 0-.43-.027-.644-.08h-.646c-.403-.081-.806-.081-1.29-.081-.483.08-.887.484-.887.967 0 .484.404.887.887.887.403 0 .807-.08 1.13 0h.08c-.161-.08 0 0 .08 0 .108 0 .242.027.404.08h3.063a.612.612 0 00.242.082c.27.053.538.08.807.08.403.08.806 0 1.21 0h.804c.053 0 .08.027.08.08-.242-.08 0 0 .08 0l1.21.243h1.21c.483 0 .967 0 1.451-.162.484-.16.806-.564.645-1.128-.161-.403-.645-.807-1.129-.565z" fill="#fff"/><path d="M75.794 64.172h-.242v1.774c.726 0 1.452-.08 2.177-.161.054-.054.135-.08.242-.08h.242a.716.716 0 00.323-.081c.322 0 .645-.027.967-.081.43-.054.834-.108 1.21-.161a.62.62 0 00.242-.081h.08c-.08 0-.161 0 0 0h.484a12.25 12.25 0 012.016-.161h1.048a.898.898 0 01.403-.08h.08c-.08 0-.241 0 0 0 .243 0 .484 0 .646-.082a39.933 39.933 0 01-.806-1.531l-.162.16a.84.84 0 000 1.29c.323.323.887.323 1.29 0 0-.053.027-.107.081-.16.323-.242.403-.726.161-1.049-.242-.322-.645-.564-1.048-.403-.08 0-.08-.08.08 0h-.806c-.08.08.081.08.081 0 0 .08-.161.08-.242.08h-.645c-.645 0-1.317.028-2.016.081l-1.129.162a1.52 1.52 0 00-.483.08h-.323c-.699.108-1.397.188-2.096.242-.215.054-.403.08-.565.08a.716.716 0 01-.322.081h-.08a7.953 7.953 0 01-1.13.081.895.895 0 00-.887.887c0 .484.404.887.887.887h.242c.484 0 .968-.403.887-.887a.895.895 0 00-.887-.887z" fill="#fff"/><path d="M73.94 64.575h1.129c.403.08.725.08 1.128.08.726.081 1.532 0 2.258.081.806 0 1.532 0 2.258.081.08 0 .242.08.08 0 .162.054.323.08.484.08.215.054.403.081.565.081h2.741c.08 0 .242-.08.242 0 0 0-.242-.08-.161-.08h-.081c-.161-.162-.215-.188-.161-.081.322.323.967.323 1.29 0 .322-.403.322-.887 0-1.29-.242-.323-.726-.403-1.129-.403a2.926 2.926 0 01-.968 0c-.806 0-1.532.08-2.338 0h-.161.08a1.52 1.52 0 00-.483-.08 2.367 2.367 0 00-.565-.081 8.54 8.54 0 01-1.21-.081h-2.337c-.43 0-.86-.027-1.29-.08H73.94a.895.895 0 00-.887.886c0 .484.403.887.887.887zm-7.58-20.157l-.08-.08a1.013 1.013 0 00-.403-.243.747.747 0 00-.484 0 1.013 1.013 0 00-.403.242 1.013 1.013 0 00-.242.403v.322c-.054 0-.054 0 0 0v.404c.054.054.08.108.08.161.054.161.108.269.162.323a.527.527 0 00.242.242c.107.053.215.08.322.08.162.054.296.054.403 0 .054 0 .108-.027.162-.08a.485.485 0 00.322-.323.937.937 0 00.161-.242v-.484c-.08-.08-.08-.16-.08-.322v.403a12.76 12.76 0 00-1.532.403l.08.08a.897.897 0 00.645.242.715.715 0 00.323-.08l.323-.161c.053-.054.08-.134.08-.242a.547.547 0 00.161-.403v-.242a1.01 1.01 0 00-.242-.403z" fill="#fff"/></svg>