<svg version="1.2" xmlns="http://www.w3.org/2000/svg" viewBox="0 0 101 87" width="101" height="87"><style>.f{fill:#272726}</style><path d="M52.3 1.9c-1.5.2-2.8 1-4.1 2.7-2.7 3.8-9.1 10.6-5.6 15.5 4.6 6.4-5.7 7.4-4.8 17.1l.9 9.7s29.3-.3 29.4-.3c.8 0-.1-15.2-.6-16.7-.8-2.5-3.2-4.6-3.1-7 0-2.9 3.2-4.7 2.1-8.6-.9-3.4-3.4-6.2-6-8.6-2.4-2.3-5.4-4.2-8.2-3.8z" style="mix-blend-mode:multiply" fill="#0fa6a6"/><path d="M83.8 16c-1.4.2-2.8 1-4 2.6-2.8 3.8-9.2 10.6-5.6 15.6 4.6 6.4-5.8 7.4-4.9 17l.9 9.7s29.4-.3 29.5-.3c.8 0-.1-15.2-.6-16.7-.9-2.5-3.2-4.6-3.2-7 .1-2.9 3.2-4.7 2.2-8.6-1-3.4-3.4-6.2-6-8.6-2.5-2.3-5.5-4.2-8.3-3.7z" style="mix-blend-mode:multiply" fill="#6fcfa1" stroke="#6fcfa1" stroke-miterlimit="10" stroke-width=".8"/><path d="M68.1 37.7c-1.5.2-2.9 1.1-4.1 2.7-2.7 3.8-9.1 10.6-5.6 15.5 4.6 6.4-5.7 7.4-4.8 17.1l.9 9.7s29.3-.3 29.4-.3c.8 0-.1-15.2-.6-16.7-.9-2.5-3.2-4.6-3.2-7 .1-2.9 3.2-4.7 2.2-8.6-.9-3.4-3.4-6.2-6-8.6-2.4-2.3-5.4-4.2-8.2-3.8z" fill="#afe8d9" stroke="#afe8d9" stroke-miterlimit="10" stroke-width=".8"/><path d="M22.7 15.7c-1.3.2-2.6 1-3.8 2.7-2.6 3.8-8.6 10.5-5.2 15.5C18 40.3 8.3 41.3 9.1 51l.9 9.6 27.6-.2c.8 0-.1-15.3-.6-16.7-.8-2.6-3-4.7-2.9-7.1 0-2.8 3-4.6 2-8.5-.9-3.5-3.2-6.2-5.6-8.6-2.3-2.3-5.2-4.2-7.8-3.8z" style="mix-blend-mode:multiply" fill="#afe8d9" stroke="#afe8d9" stroke-miterlimit="10" stroke-width=".8"/><path d="M32.6 41.1c-1.5.2-2.9 1-4.1 2.6-2.7 3.8-9.1 10.6-5.6 15.6 4.6 6.4-5.7 7.4-4.8 17L19 86s29.3-.3 29.4-.3c.8 0-.1-15.2-.6-16.7-.9-2.5-3.2-4.6-3.2-7 .1-2.9 3.2-4.7 2.2-8.6-.9-3.4-3.4-6.2-6-8.6-2.5-2.3-5.5-4.1-8.2-3.7z" fill="#6fcfa1" stroke="#6fcfa1" stroke-miterlimit="10" stroke-width=".8"/><path class="f" d="M36.2 37.2q-.5-.1-1.1-.1H33q-.7 0-1.3.2-1 .2-2 .5-.4.2-.9.3c-.4.1-.7.2-1.1.4-.2.1-.4.3-.7.4l-1 .6-.8.4c-.4.2-.7.5-1 .7-.4.5-.9 1-1.4 1.4-.2.1-.4.3-.6.5-.3.3-.5.7-.6 1-.7 1.3-1.2 2.5-1.6 3.9-.2.7-.4 1.5-.4 2.2q-.1 1.1.1 2.1.1 1.2.4 2.3c.1.7.3 1.4.6 2 .3.6.7 1.1 1.2 1.5l1.4 1.4 1.8 1.4q.9.6 1.7 1.3c1.1.7 2.4 1.3 3.8 1.5.7.1 1.5.1 2.2.2.7 0 1.4.1 2.1.1.6 0 1.4-.1 2-.2q.6-.2 1.1-.4l.4-.2q.1-.1.2-.1l.1-.1c.1-.1.3-.1.4-.2q.2 0 .5-.1.5-.2 1.1-.6c.6-.3 1.2-.8 1.7-1.3q1.5-1.4 2.6-3.1c.4-.6.7-1.2.8-1.9l.6-1.8q.3-1.2.4-2.4c.1-.7-.1-1.3-.1-2 0-.8-.1-1.6-.3-2.4-.1-.6-.3-1.2-.6-1.9-.4-1.2-1.1-2.5-2.1-3.4q-.5-.3-.9-.7-.1 0-.2-.1c.2.2 0 0 0 0l-.4-.4q-.4-.4-.8-.7c-.3-.2-.7-.3-1.1-.4q-.4-.2-.9-.3-.2-.1 0 0s-.1-.1-.2-.1q-.1-.1-.2-.1 0-.1-.1-.1.2.1 0 0c-.4-.3-.8-.7-1.3-.9-.3-.1-.7-.1-1 0-.5.2-.9.7-.9 1.3 0 .6.5 1.1 1.1 1.1.6 0 1.2-.5 1.2-1.1v-.1q-.1.7-.8 1h-.4.1c.1 0 .2.1-.1-.1q.1.1.2.1c.1.1.3.3 0 0q.3.3.8.6c.3.2.6.4 1 .5q.4.2.8.3.2.1.4.1l.1.1q-.2-.1 0 0h.1q0 .1.1.1l-.1-.1.2.2.2.2q.4.4.9.8.2.1.4.3s.3.1.3.2l-.1-.1.1.1q.1.1.2.1.1.2.3.4l.1.1q-.1 0-.1-.1 0 .1.1.1l.2.4q.3.4.4.8.1 0 .1.1c.1.1.1.1 0 0 .1.1.1.3.2.4q.1.5.3 1 .1.4.3.9 0 .2.1.4v.3c.1.3 0-.2 0 0q.1.5.1 1v1q.1.5.1 1 0 .2-.1.4c.1-.3 0 0 0 0v.4q-.2.9-.5 1.9-.2.4-.3.8 0 .2-.1.4c0 .1-.1.5-.1.5v-.2.2q-.1.1-.1.2-.1.1-.2.3-.3.4-.5.8-.2.2-.3.4h-.1q-.1.2.1 0-.1 0-.1.1-.3.4-.7.7-.6.7-1.3 1.3-.1.1-.2.1c-.1.1.2-.1 0 0q-.2.2-.4.3c-.2.1-.5.4-.8.4.3 0 .1 0 0 0q-.1.1-.2.1l-.4.2q-.5.2-1.1.4l-.4.2c-.2.1.2 0 0 0q0 .1-.1.1-.4.1-.9.2c-.2.1.3 0 0 0h-.2q-.2 0-.5.1h-1c-.6-.1-1.2-.2-1.8-.2q-.5 0-.9-.1h-.3c-.3 0 .3 0 0 0q-.3-.1-.5-.1-.4-.1-.9-.3-.2 0-.4-.1-.1-.1-.2-.1c-.2-.1.2.1 0 0-.6-.3-1.1-.6-1.6-1s-1.1-.8-1.6-1.2c.2.2-.1-.1-.2-.1q-.1-.2-.3-.3-.4-.3-.8-.7-.6-.6-1.3-1.2l-.3-.3q-.1-.1-.1-.2c-.2-.1 0 .1 0 .1l-.2-.4c-.1-.2.1.3 0 0q0-.1-.1-.2c-.2-.6-.3-1.2-.4-1.8q-.1-.5-.2-.9-.1-.2-.1-.5s-.1-.3 0 0q0-.2-.1-.3v-1.8c0-.3.1-.6.2-.9q.1-.5.3-.9.1-.5.2-.9c.1-.3.2-.6.4-.9-.2.3-.1.1 0 0q0-.1.1-.2l.2-.4q.2-.4.4-.9.1-.1.2-.3.1-.2 0 0s.1-.1.1-.2c.2-.2.5-.3.7-.5.5-.4.9-.9 1.3-1.3.1 0 .2-.1.2-.1H26h.1l.4-.2q.4-.2.8-.5.4-.2.9-.5.1-.1.3-.2c.1 0 .4-.2.4-.2s-.2.1 0 0h.2l.4-.2q.5-.1 1-.3.9-.3 1.8-.5.2 0 .5-.1s-.3.1-.1 0h2.2c.1 0 .4.1.5.1q-.1 0-.2-.1.1.1.2.1h.2c.3 0 .6.1.9-.1.2-.1.4-.4.5-.7.1-.5-.2-1.3-.8-1.4z"/><path class="f" d="M39.2 38.5h.5c.1.1.2.2.3.2l-.1-.1q-.2-.2-.5-.4c-.3-.2-.8-.3-1.1-.4q-.3-.1-.5-.2h-.4c-.1 0-.3-.1-.1 0 .2 0 0 0 0-.1q-.5-.1-.9-.2c-.4-.1-.9-.2-1.3-.2-.3-.1-.7 0-1 0h-2.2c-.8 0-1.6 0-2.4.1q-.2.1-.5.1c-.2.1.2 0 0 0q-.3.1-.5.1c-.3.1-.6.2-1 .3q-.5.1-.9.3-.4.1-.7.3-.1 0-.2.1s-.1.1 0 0c.2-.1 0 0 0 0-.4.2-.8.3-1.1.5q-.5.3-.9.7c-.6.4-1.1.9-1.7 1.4q-.7.8-1.3 1.8-.3.4-.5.8c-.1.1-.2.3-.2.4 0 0 .1-.2 0-.1v.1q-.2.2-.3.4c-.5.5-.7 1.3-.9 2l-.2 1.2v1c-.1.8-.2 1.5-.1 2.2.1.8.2 1.5.4 2.3.1.7.5 1.4.8 2.1.3.6.5 1.1.9 1.7.4.6.9 1.2 1.4 1.8.5.5 1.1 1 1.7 1.5.5.3 1.1.6 1.7.9.6.4 1.4.6 2.1.9l1 .2q.4.1.7.1.2 0 .3.1 1.2.2 2.3.2h4.5q.7-.1 1.3-.5.2-.1.3-.2c.1 0 .2 0 .2-.1 0 0-.2.1-.1.1q.1-.1.2-.1c.4-.1.8-.2 1.1-.4q.5-.2.9-.4c.6-.3 1.2-.7 1.8-1.2q.8-.6 1.5-1.5.3-.2.5-.5.1-.1.1-.2c.1-.1 0 0 0 0l.1-.1c.2-.3.5-.6.7-.9q.3-.4.5-.9l.2-.4c0-.1-.1.1-.1.1q.1 0 .1-.1l.2-.4c.4-.7.6-1.3.7-2.1q.2-1.1.2-2.3v-1q0-.8-.3-1.4c0-.1-.1-.3-.2-.4 0 0 .1.2.1.1q-.1 0-.1-.1v-.2c-.1-.4-.3-.7-.3-1q-.1-.2-.1-.4l-.2-.4c-.1-.1-.2-.2-.3-.4l.2.2c0 .2 0 .1 0 0q-.1-.1-.2-.3-.1-.3-.2-.5c-.1 0-.1-.1-.1-.2 0 0 .1.3 0 .2q-.1-.2-.1-.3-.1-.3-.3-.5-.3-.4-.6-.9c-.3-.6-.7-1.2-1.2-1.8-.5-.6-1.1-1-1.7-1.4-.6-.3-1.1-.7-1.7-1.1l-1.8-.9c-.5-.2-1.2-.2-1.5.4-.3.5-.2 1.3.4 1.5.6.3 1.2.6 1.8 1 .5.3 1 .7 1.6 1q.4.3.7.5c.3.2-.1-.2 0 0l.2.2.4.4q.1.1.1.2c.2.2-.1-.2.1 0l.2.4q.3.4.5.8l.6.8q.1.1.1.3l.1.1v-.1q0 .2.1.3.1.1.1.2l.2.2v.1q.1.1 0-.1c-.1.1.2.6.2.6.1.1.3.5.1.1.1.2-.1-.2 0 0q.1.2.1.4c.1.4.2.6.3.9q.1.6.4 1.1l.1.2q0-.1-.1-.1.1 0 .1.1v-.2 1.4q0 .5-.1 1v.5q0 .2-.1.3c.1-.3 0 0 0 .1q0 .5-.2.9v.1q-.1.1 0-.1v.2q-.2.2-.3.4l-.2.4-.2.4c.2-.3 0 0 0 0l-.2.4c-.1.2-.2.4-.3.5l.1-.1q-.1 0-.1.1l-.2.2-.3.3q-.1.3-.3.5c-.2.2.1-.2 0 0q-.1.2-.3.3-.3.3-.6.7-.2.1-.4.3-.1.1-.1.2-.2.1 0-.1l-.1.1q-.8.6-1.7 1l-.4.2c-.1.1-.3.3-.4.2h.1-.1q-.1.1-.2.1-.3.1-.6.1c-.3.2-.6.4-.9.5l-.1.1h.1-.3q.2 0 0 0H36c-1.5.1-2.9 0-4.3 0h-1.1q-.1 0-.2-.1h-.6q-.3-.1-.7-.1c-.3-.1.3 0 0 0q-.1-.1-.2-.1l-1-.2q-.2-.1-.5-.2c-.1-.1-.3-.1-.4-.2l.1.1q-.1-.1-.2-.1t-.2-.1q-.2-.1-.4-.3c-.6-.2-1.1-.5-1.6-.9h-.1q-.1-.1.1 0c-.1 0-.2-.1-.2-.1l-.4-.4-.7-.7q-.3-.4-.6-.7 0-.1-.1-.2c.2.2 0 0 0 0q-.2-.3-.3-.5c-.4-.5-.6-1.1-.9-1.7q-.1-.2-.2-.5c-.1-.2.1.2 0 0l-.1-.1q-.2-.5-.2-1l-.2-1c0-.1-.1-.3 0 0v-.3q-.1-.3-.1-.6c0-.6.1-1.3.1-2v-.5c0-.1 0-.2.1-.2q-.1 0-.1.1 0-.1.1-.2.1-.5.2-.9.1-.3.1-.5l.1-.1c.1-.3-.1.2 0-.1l.2-.4v.1l.4-.4c.1-.3.3-.5.4-.8q.3-.4.5-.8.2-.2.3-.4c.1-.2-.2.2 0 0q.1-.1.1-.2l.7-.7q.4-.3.7-.6l.2-.2c.1 0 .3-.2.1 0l.4-.4q.4-.2.8-.5c.2-.1-.3.1 0 0h.2q.3-.2.7-.3.1-.1.2-.1c-.3 0 0 0 0 0q.3-.1.5-.2c.3-.1.6-.2 1-.3q.2-.1.3-.1c.1 0 .4-.1.1 0q.2-.1.4-.1.3 0 .5-.1h.2c.1 0 .5-.1.2-.1H35c.3 0-.2-.1 0 0q.2 0 .3.1l1 .2q.2 0 .4.1h.2c-.2 0 .4.1.4.1h-.1.1q.1 0 .2.1l.6.2q.1 0 .2.1c.3.1-.2-.1 0 0-.3-.2-.1-.2-.1-.1q.1.1.2.1c.4.4.8.6 1.4.5.6-.1.9-.9.8-1.4-.2-.6-.8-.9-1.4-.8z"/><path class="f" d="M23.9 58.1c-.5-.5-1.2-.5-1.8-.2-.3.1-.5.4-.8.5-.3.3-.7.5-1 .7-.3.4-.6.7-1 1-.8.7-1.5 1.5-2.1 2.3-.6.9-1.2 1.7-1.7 2.5-.6.9-1.1 1.8-1.6 2.7-.6.9-1.1 1.9-1.3 3-.2.5-.3 1-.4 1.5l-.2 1.8c-.1 1.1-.2 2.2-.3 3.2v4.7c-.1.6 0 1.2.3 1.7.3.6.9.9 1.6.9h.5q.4 0 .8.1h1.6q.8 0 1.6.1l1.6.2q.2 0 0 0h.1q.2 0 .4.1.5.1 1 .1c1.1.1 2.2 0 3.3 0h9.9c.5 0 1.1-.1 1.6-.2.5 0 1 0 1.6-.1q.8 0 1.5-.1.5 0 1-.1.1-.1.3-.1h.2-.1.3c.3-.1-.4-.1.1 0h.4q.3 0 .6-.1.2 0 0 0h.5q.2-.1.4-.1h1.7q.2-.1.4-.1c.3-.1 0 0 0 0h.2v-2.3H45c-.6.1-1.1.5-1.1 1.2 0 .6.5 1.1 1.1 1.1h.1c.6 0 1.1-.5 1.1-1.1 0-.7-.5-1.1-1.1-1.2-.3 0-.6.1-.9.2-.2 0-.1-.1 0-.1l-.1.1q-.2 0-.4-.1-.4 0-.8.1h-.5c-.2.1 0 0 0 0q-.1.1-.2.1-.5 0-.9.1c-.2 0 0-.1 0 0h-.1c-.2 0 0 0 0 0q-.2-.1-.4-.1c-.6 0-1.1.2-1.6.3H39c-.2.1.2 0 0 0h-.4q-.3.1-.7.1h-1.6c-.5.1-1 .2-1.5.2q-.7.1-1.5.1c-2.1-.1-4.3 0-6.4 0H21c-.2-.1 0 0 .1 0q-.1 0-.3-.1-.8-.1-1.7-.2c-.5-.1-1-.2-1.5-.2h-1.5c-.6 0-1.1-.1-1.6-.1h-.9c-.2 0 .2.1.1 0-.2 0 .2.1.1.1-.2-.1.2.1.1 0s.1.3 0 .1c-.1-.1.1 0 0 .1.1-.1 0-.3 0-.3.1.2 0 .2 0 .1v-3.1c0-1 0-2.1.1-3.1q.2-1.5.3-3.1 0-.1.1-.2v-.1c-.1.2 0 0 0-.1v-.1q.1-.4.2-.7l.3-1.5q.1-.1.1-.2c.1-.1-.1.2 0 .1l.2-.4q.1-.3.3-.6.4-.7.8-1.3.4-.7.7-1.3.5-.6.9-1.2l.8-1.2.4-.6q.1-.2.2-.3l-.1.1.2-.2q.4-.6 1-1.1c.3-.3.7-.6 1-.9q.2-.2.5-.4v-.1c.2-.1 0 0 0 0q.1-.1.2-.1.4-.3.7-.5.1-.1.2-.1c.1-.1.2-.1.2-.1s-.3.1-.1 0h-.4q-.1 0-.2-.1-.3-.2-.1-.1c.4.4 1.1.4 1.5 0 .5-.5.5-1.1 0-1.6zm17.3 2.5s.1.1.2 0c0 0-.2-.1-.1 0h.1q.1.1.1.2c.2.1-.2-.2 0 0q.1 0 .2.1.2.2.3.4c.5.5 1 1 1.4 1.5 0 0 .1.1 0 0s0 0 .1 0q0 .1.1.2.1.3.3.5c.2.4.4.8.7 1-.2-.1-.1-.1 0 0v.1q.1.1.1.2c.1.2-.1-.2 0 0q.1.1.1.3.2.4.3.9.1.2.2.5c.1.1 0-.2 0-.1v.2l.2.6q.1.3.1.5.1.3.2.5l.1.1c.1.2 0 .1-.1-.3.1.3.1.6.4.8.2.2.5.3.8.3.5 0 1.2-.5 1.1-1.1-.1-.3-.1-.6-.3-.9 0 0-.1-.1 0 0 0 .2 0 .1 0 0q-.1-.1-.1-.3-.1-.7-.4-1.4-.1-.1-.1-.2l-.2-.6c-.1-.4-.2-.8-.5-1.2q0-.1-.1-.2c.1.1-.3-.3-.3-.4 0 0 .2.3 0 .1v-.1q-.1-.1-.2-.3-.3-.5-.7-1.1c-.5-.6-1.1-1.1-1.6-1.7-.6-.7-1.4-1.3-2.4-1.3-.6 0-1.1.5-1.1 1.1 0 .6.5 1.1 1.1 1.1z"/><path class="f" d="M22.2 57.6c-.5 0-1.1.1-1.5.4-.2.2-.5.3-.7.5.1-.1.2-.1.1 0q-.1 0-.2.1-.2.2-.4.3c-.4.3-.7.7-1 1q-.2.3-.4.5l-.2.2-.3.3c.2-.2.1 0 0 0l-.4.4q-.3.3-.5.7l-.6 1.2c-.4.9-.9 1.7-1.4 2.6q-.3.6-.6 1.3c-.2.5-.5 1-.7 1.5-.3.8-.4 1.7-.6 2.6-.1.5-.2 1.1-.2 1.6v.5q-.1.4-.1.9-.1 1.5 0 3.1v4.6c0 .6 0 1.2.4 1.7.4.4 1 .5 1.5.5H16c1 0 2-.1 2.9 0q.4.1.7.1h.2c.2.1 0 0 0 0q.2.1.4.1.7.1 1.5.2c1 .3 2.1.4 3.2.5q1.5.2 3 .2c1 .1 2 0 3 0h7.7c.5 0 1 .1 1.5 0 1-.1 2-.1 3-.1h1.4c.6 0 1.2-.5 1.2-1.1-.1-.6-.5-1.1-1.2-1.1-.9 0-1.9-.1-2.9 0h-1.4c-.5.1-1 .1-1.4.1H26.9c-.9-.1-1.9-.2-2.9-.3q-.3-.1-.6-.1h-.2c-.3-.1 0 0 0 0l-.4-.1q-.7-.2-1.4-.3c-1-.1-2.1-.3-3.1-.4h-2.9c-.4 0-.9 0-1.3.1h.2c-.2-.1.1 0 .1 0q.2.1.3.3c.1.2 0 .2 0 .1v-.4c.1-1 0-1.9 0-2.9v-5 .1c0-.1 0-.3.1-.4v-1.2c0-.2.1.1 0 .1l.1-.2V72q.2-.6.3-1.3.1-.6.3-1.2c0-.1.1-.3.1-.4 0 0-.1.3 0 .1v-.1q.2-.4.4-.7c.4-.8.7-1.7 1.2-2.5.4-.8.9-1.6 1.3-2.4q.1-.3.3-.6l.1-.1-.1.1c.1 0 .2-.2.3-.2l.2-.2v-.1q.1-.1.1-.2.2-.2 0 0c.1-.2.3-.3.5-.5.3-.3.6-.6.9-1l.1-.1s.2-.1 0 0c-.1.1.1 0 .1 0q0-.1.1-.1.4-.2.7-.5c.1-.2-.2.1-.1 0q.1 0 .1-.1h.2c0-.1.1-.1 0 0-.2 0 0 0 0-.1h.2s.2 0 0 0c.6 0 1.2-.5 1.1-1.1 0-.6-.4-1.1-1.1-1.1z"/><path class="f" d="M21.7 57.7c-.4 0-.7 0-1.1.2q-.2.1-.5.2c-.4.3-.8.5-1.2.9-.3.2-.5.5-.8.8l-.1.1c-.1 0-.1.1 0 0h-.1q0 .1-.1.1l-.6.6q-.3.3-.5.6 0 .1-.1.1c-.1.2.1 0 .1 0s-.2.2-.3.2q-.5.5-.9 1.2-.4.5-.7 1.1l-.4.6-.2.2c0 .1-.2.3-.2.4 0-.2.2-.2.1-.1q-.1 0-.1.1l-.2.2q-.3.3-.5.6c-.1.3-.1.6-.2.8 0 .3-.1.5-.2.7q-.1.3-.2.7-.1.3-.2.7-.2.6-.3 1.3c-.2 1.1-.5 2.1-.6 3.1-.1 1-.2 1.9-.2 2.9v1.6q.1.9.3 1.8v.5l.1.1q-.1-.2 0-.1v1.7q.1.2.1.4v.4c0 .6.5 1.1 1.1 1.1.6 0 1.2-.5 1.1-1.1v-.9c-.1-.2 0 .1 0 .1q0-.1-.1-.2V81q0-.7-.1-1.5 0-.3-.1-.7v-.3q-.1-.1-.1-.2c0 .3 0 .1 0 0v-4.2q.1-.3.1-.7v-.3c.1-.2 0 0 0 .1 0-.1.1-.2.1-.3q.1-.6.2-1.3.2-.7.3-1.4c.1-.5.3-.9.4-1.3q.1-.7.4-1.3.1-.3.1-.6v-.2c.1-.1.1.1 0 .1 0 0 .2-.3.1-.1-.1.1.1-.1.1-.2l.2-.2.4-.6.8-1.2c.3-.3.5-.7.7-1.1.1-.1-.1 0-.1.1l.1-.1.2-.2q.3-.2.5-.5.2-.2.3-.4 0-.1.1-.1v-.1q.1-.1 0 .1l.4-.5s-.2.2 0 .1q0-.1.1-.1.2-.2.4-.3c.1-.2.3-.4.4-.5.2-.2.4-.3.5-.5 0 0-.2.2 0 .1q0-.1.1-.1.1-.1.3-.2.3-.2.5-.3c.1-.1.2-.1.3-.2q-.1 0-.2.1h-.1.3c.5 0 1.1-.5 1.1-1.1-.1-.6-.5-1.1-1.1-1.1zm21 3h.4q-.2 0 0 0-.2 0-.3-.2 0 .1.1.1l-.1-.1c.2.4.4.7.7.9l.8.8q.1.1.2.1 0 .1.1.2l-.1-.1c.2.1.3.3.3.5l.2.2c.1.3-.1-.2 0 0q.1.4.3.7.1.3.3.5c0 .1.1.3 0 .1q.1.1 0 0 0-.2 0 0t.1.4v-.1.2q0 .4.1.8c0 .5.3.8.5 1.1v-1.1q0 .1-.1.1c-.3.5-.1 1.3.4 1.6.6.3 1.2.1 1.6-.4v-.2c.3-.3.2-.7 0-1.1q-.1-.2-.3-.4 0-.2.1 0l-.1-.1q.1.2 0 .1v-1q-.1-.2 0 .1 0-.1-.1-.2v-.5c-.1-.3-.3-.4-.4-.6q-.1-.2-.2-.3 0-.2.1 0-.1 0-.1-.1c-.2-.4-.3-.8-.6-1.2-.5-.7-1.1-1.3-1.7-1.8q-.1-.2 0 0v-.1l-.2-.2q-.1-.3-.4-.5-.5-.4-1.1-.4h-.5c-.6 0-1.1.5-1.1 1.1 0 .6.5 1.1 1.1 1.1z"/><path class="f" d="M42.7 61.4c.7.7 1.3 1.4 2 2.1q.3.2.5.5l.2.2c.1 0 .2.2.3.3l-.1-.1q.1.1.1.2.1.1.2.3.2.3.3.6.1.1.1.2c.1.2-.1-.2 0 0q.1.1.1.3.2.3.3.7l.4 1.4q.2.7.3 1.5.1.3.2.7v-.1.6c.1 1 .1 2 .1 3.1q.1.7.2 1.5t.1 1.5c-.1 1.1-.1 2.1-.1 3.2q.1.3.1.7v.3c-.1.2 0 0 0 0-.1 0-.1.2-.1.2q-.1.4-.1.9v-.1c.1.1 0 .4 0 .4q0 .2-.1.4v.1c0 .3.1-.2 0 0v.1c0 .3.1-.2 0 0v.1l.1-.1c.1-.1.2-.2.3-.2h.1q-.4-.1-.8-.1H47c.2.1.1 0 0 0h-.2c-1.1-.2-2.4-.7-3.4.1-.4.4-.4 1.2 0 1.6.5.5 1.1.4 1.6 0l-.1.1q-.3.2-.2.1h.8-.1q.2.1.4.1.4.1.7.2c.6.1 1.2.1 1.8.1.4 0 .7-.1 1-.4.2-.2.3-.3.4-.6.2-.3.2-.6.3-1v-.4q0-.3.1-.6s-.1-.2 0-.2c0 0-.1.3 0 .1q.1-.5.1-1v-4.7c0-.6-.1-1.1-.2-1.7-.1-1 0-2.1-.1-3.1-.1-2.1-.6-4.2-1.3-6.2-.3-.6-.5-1.2-.8-1.7q-.5-.8-1.2-1.4c-.3-.4-.8-.7-1.1-1.1-.4-.4-.8-.9-1.2-1.3-.4-.4-1.2-.4-1.6 0-.4.5-.4 1.2 0 1.6z"/><path class="f" d="M45.9 66.7q0 .5.1 1 0 .1.1.3v.2q0 .9.2 1.8s0 .2 0 0v1.4c0 .6.1 1.2.2 1.7l.2.8q0 .2 0 0V82c-.1.3-.1.7-.1 1-.1.6.5 1.2 1.1 1.2.6-.1 1.1-.5 1.1-1.2v-.2c0-.1.1-.1 0 .1q0-.1.1-.3v-7.7c0-.6 0-1.2-.1-1.8q-.1-.2-.1-.4v-.2.1q-.1-.4-.1-.8c-.1-.6 0-1.1-.1-1.7q0-.5-.1-1.1v-.1c-.1-.3 0 .2 0-.1q-.1-.2-.1-.4 0-.6-.1-1.1 0-.2-.1-.4v-.2c0-.6-.5-1.1-1.1-1.1-.6 0-1.1.5-1.1 1.1z"/><path class="f" d="M45.7 82.4h-.1q.2.9.5 1.9 0-.1.1-.1-.2.1-.3.2.1-.1.2-.1-.2.1-.3.1h.2-.3c.3 0 .6 0 .9-.1q.3-.1.6-.3.1-.1.3-.2-.1.1-.3.1h.2-.3.1v-2.2q-.3 0-.5.1-.3 0-.5.1c-.3.1-.5.2-.8.5-.3.2-.4.6-.5 1q.1.1.1.3 0 .2.2.3c.1.2.3.4.6.4.2.1.5.1.8.1h.5-.3.2q-.2-.1-.3-.1h.1q-.1-.1-.3-.2l.1.1-.2-.2q0-.1-.1-.3v-.5.1q.1-.2.1-.3v.1q.1-.2.2-.3l-.1.1q.1-.1.2-.1-.1 0-.2.1.1-.1.2-.1h-.2.3-.2.3q-.3 0-.6-.1t-.6-.1h-.4c-.3 0-.6.1-.8.2q-.2.1-.3.2-.1.1-.2.3-.2.4-.1.8c.2.4.5.7.9.8.3.1.6.1.9 0 .2-.1.4-.2.6-.2H46c.2 0 .4.1.6.1h.1q.2 0 .4-.1c.2-.1.5-.2.7-.4.2-.2.3-.5.3-.8 0-.3-.1-.6-.3-.8-.2-.2-.5-.3-.8-.3-.3 0-.6.1-.8.3q0 .1-.1.1.2-.1.3-.2-.1 0-.1.1.1-.1.3-.2-.1.1-.2.1.2-.1.3-.1h-.4q-.3 0-.7.1c-.2 0-.4.1-.7.2q.2 0 .3-.1h-.1q.2.1.3.1.1 0 .2.1.1 0 .2.1l.2.2q.1.2.1.3-.3.6-.5 1.2-.1.1-.3.1h.2-.3q.3 0 .6.1-.2-.1-.3-.1c.4.1.8.2 1.2.2.6 0 1.3-.3 1.6-.8.2-.3.3-.7.2-1.1-.2-.4-.5-.7-1-.9q-.3-.1-.7 0h-.6.3-.1q.4.5.8 1.1 0 .1-.1.3 0-.1.1-.1-.1.1-.2.3l.1-.1-.2.2.1-.1-.2.2q.1-.1.3-.1-.2 0-.3.1.3-.2.6-.2h-.3.1c.3 0 .6-.1.8-.3.2-.2.4-.5.4-.8 0-.3-.1-.6-.4-.8q-.3-.3-.8-.3h-.1q-.2 0-.4.1-.2 0-.5.2l-.4.2q.1 0 .2-.1-.1.1-.2.1.1 0 .3-.1-.4.1-.8.1c-.3.1-.6.3-.8.5-.3.3-.4.7-.3 1.1.1.4.4.6.8.8h.1c.2.1.6 0 .8-.1.3-.2.5-.4.6-.7 0-.3 0-.6-.2-.9q-.2-.3-.6-.5zM25.6 15.2q-.6-.1-1.1-.1-.6-.1-1.1-.1h-1q-.7.1-1.3.2-1 .2-2 .6-.5.1-.9.3c-.4.1-.7.2-1.1.3-.2.2-.5.3-.7.5q-.5.3-1 .5-.4.3-.8.5c-.4.2-.7.4-1 .7-.5.4-.9.9-1.4 1.3l-.6.6c-.3.3-.5.6-.6 1-.7 1.2-1.2 2.5-1.6 3.8-.2.8-.4 1.5-.4 2.3q-.1 1 0 2 .2 1.2.5 2.4c.1.6.3 1.3.6 2 .2.6.7 1 1.2 1.5.5.4.9.9 1.4 1.3q.9.8 1.8 1.5.8.6 1.7 1.2c1.1.8 2.4 1.3 3.8 1.5.7.1 1.5.2 2.2.2.7.1 1.4.2 2 .2.7-.1 1.4-.1 2.1-.3q.5-.1 1-.4.3-.1.5-.2.1 0 .2-.1s.3-.2.1 0c.1-.1.3-.1.4-.2q.2-.1.5-.2.5-.2 1.1-.5c.6-.4 1.2-.8 1.7-1.3q1.5-1.4 2.6-3.1c.3-.6.7-1.2.8-1.9.2-.7.4-1.3.6-1.9q.3-1.1.4-2.3c.1-.7-.1-1.4-.1-2.1 0-.8-.1-1.5-.3-2.3-.1-.6-.4-1.3-.6-1.9-.4-1.3-1.1-2.6-2.1-3.4q-.5-.4-1-.7 0-.1-.1-.1l-.1-.1q-.2-.1-.3-.3-.4-.4-.8-.7c-.3-.2-.7-.3-1.1-.5q-.4-.1-.9-.3s-.2 0-.2-.1q-.1 0-.2-.1h-.1q.2.1 0 0c-.4-.4-.8-.7-1.4-.9-.3-.1-.6-.1-.9 0-.5.1-.9.7-.9 1.2 0 .6.5 1.2 1.1 1.2.6-.1 1.2-.5 1.1-1.2q0 .7-.7.9-.2.1-.4 0h.1c.1.1.2.2-.1 0q.1 0 .2.1c.1.1.3.2 0-.1q.3.4.7.7c.4.2.7.3 1.1.5q.3.1.8.2l.4.2q.1 0 .1.1-.2-.1 0-.1 0 .1.1.1h.1q.1.1-.1 0l.2.1q.1.2.2.3.4.4.9.7.2.2.4.3l.3.2q-.1 0-.1-.1 0 .1.1.1.1.1.1.2.2.1.4.3c0 .1.1.1.1.2l-.1-.1.1.1q.1.2.2.3l.4.8q.1.1.1.2c.1.1.1.1 0-.1.1.1.1.4.2.5q.1.5.3.9.1.5.3.9 0 .3.1.5v.3q.1.5.1.9v1q.1.5.1 1 0 .2-.1.5c.1-.3 0-.1 0 0v.3q-.2 1-.6 1.9-.1.4-.2.9 0 .2-.1.4l-.1.4v-.1.1q-.1.1-.1.2l-.2.4q-.3.4-.6.7l-.2.4-.1.1.1-.1q-.1.1-.1.2l-.7.7q-.6.7-1.3 1.3-.1 0-.2.1c-.1.1.2-.2 0 0q-.2.1-.4.3c-.2.1-.5.3-.8.4.3-.1.1 0 0 0q-.1 0-.2.1-.2 0-.4.1-.6.2-1.1.5l-.4.2c-.2.1.2-.1 0 0h-.1q-.5.2-.9.3c-.3 0 .3-.1 0 0h-1.7c-.6 0-1.2-.1-1.8-.2h-.9q-.2 0-.3-.1c-.3 0 .3.1 0 0H20q-.4-.1-.9-.3l-.4-.2h-.2c-.2-.1.2.1 0 0-.6-.3-1.1-.7-1.6-1-.5-.4-1.1-.8-1.6-1.2.2.2-.1-.1-.2-.1q-.2-.2-.3-.4L14 35q-.7-.6-1.3-1.3-.2-.1-.3-.3-.1 0-.1-.1c-.2-.2 0 0 0 0l-.2-.3c-.1-.3.1.2 0 0q-.1-.1-.1-.2c-.2-.6-.3-1.2-.5-1.8q-.1-.5-.1-1-.1-.2-.1-.4s-.1-.3 0 0q-.1-.2-.1-.4v-1.7c0-.3.1-.7.2-1q.1-.4.2-.9.2-.4.3-.8l.3-.9c-.1.3 0 0 .1 0v-.2q.1-.3.3-.5l.4-.8q.1-.2.2-.3V22q.1-.1 0 .1c-.1 0 .1-.2.1-.2.2-.2.5-.4.7-.6.5-.4.9-.8 1.3-1.2.1-.1.1-.2.2-.2q0 .1-.1.1.1 0 .1-.1.2-.1.3-.2.5-.2.9-.4.4-.3.9-.5.1-.1.3-.2s.4-.2.4-.3c0 .1-.3.1-.1.1q.1-.1.3-.1.2 0 .4-.1.5-.2.9-.3.9-.3 1.9-.5.2-.1.5-.1h-.1 2.2c.1 0 .4.1.5 0h-.2.2q.1 0 .2.1c.3 0 .6 0 .9-.2.2-.1.4-.4.5-.6.1-.6-.2-1.3-.8-1.4z"/><path class="f" d="M28.6 16.5c.1-.1.4-.1.5 0 .1 0 .2.2.3.2-.1 0-.1-.1-.1-.2q-.3-.2-.5-.3c-.3-.2-.8-.3-1.2-.5q-.2-.1-.4-.1-.2-.1-.5-.1s-.2 0 0 0q-.5-.1-.9-.2c-.5-.1-.9-.2-1.3-.3h-1q-1.1.1-2.2 0c-.8 0-1.6 0-2.4.2q-.3.1-.5.1c-.2 0 .2 0 0 0q-.3 0-.5.1c-.3 0-.6.2-1 .3q-.5.1-1 .3-.3.1-.6.3-.1 0-.2.1s-.2 0 0 0c.1-.1 0 0 0 0-.4.1-.8.3-1.1.5q-.5.3-.9.6c-.6.5-1.2.9-1.7 1.5q-.7.8-1.3 1.7-.3.4-.5.9l-.3.3s.2-.1.1-.1q0 .1-.1.1-.1.2-.3.4c-.4.6-.6 1.4-.8 2L8 25.5c0 .4 0 .7-.1 1.1 0 .7-.1 1.4 0 2.2.1.7.2 1.5.3 2.2.2.8.5 1.4.9 2.1.2.6.5 1.2.9 1.8.4.6.9 1.2 1.4 1.7.5.6 1 1.1 1.7 1.5.5.4 1.1.7 1.7 1 .6.3 1.3.6 2.1.8q.5.2 1 .3.3 0 .7.1h.3q1.2.2 2.3.2 1.1 0 2.3.1c.7 0 1.5 0 2.2-.1q.7-.1 1.3-.4.1-.1.3-.2c.1 0 .2-.1.2-.1h-.1.2c.4-.1.7-.2 1.1-.4q.4-.3.9-.5c.6-.3 1.2-.7 1.8-1.1q.8-.7 1.5-1.5.3-.3.5-.6.1-.1.1-.2c.1-.1 0 .1 0 .1q0-.1.1-.1c.2-.3.5-.6.7-.9q.3-.5.5-.9l.2-.4c0-.1-.1.1-.1.1l.1-.1q.1-.3.2-.5c.4-.6.6-1.3.7-2q.2-1.2.2-2.4v-1q0-.7-.3-1.3c-.1-.1-.1-.3-.2-.4 0 0 .1.2 0 .1v-.1q0-.1-.1-.3c0-.3-.2-.6-.3-.9q0-.2-.1-.5 0-.2-.1-.4l-.3-.3q.1.1.1.2c.1.1.1 0 .1 0q-.1-.2-.2-.3-.1-.3-.2-.5c-.1-.1-.1-.2-.1-.2-.1 0 0 .2 0 .1q-.1-.1-.1-.3-.1-.2-.3-.4-.3-.4-.6-.9c-.4-.7-.7-1.3-1.2-1.8-.5-.6-1.1-1-1.7-1.4-.6-.3-1.2-.7-1.7-1.1-.6-.4-1.2-.6-1.8-.9-.5-.3-1.2-.2-1.5.4-.3.5-.2 1.2.4 1.5l1.8.9c.5.4 1 .8 1.5 1.1q.4.2.8.5c.2.1-.2-.2 0 0q.1.1.2.1l.4.4q.1.1.1.2c.2.2-.1-.2 0 0q.2.2.3.4.3.4.5.9l.6.8q0 .1.1.2l.1.2v-.2q0 .2.1.4 0 .1.1.2t.1.2h.1q.1.2 0 0c-.1 0 .2.6.2.5.1.2.3.5.1.2.1.2-.1-.3 0 0q.1.2.1.4l.3.9q.1.6.4 1.1s.1.1.1.2q0-.1-.1-.2.1.1.1.2v-.2.4q0 .5-.1 1V30q-.1.1-.1.3c.1-.4 0 0 0 0l-.2 1q-.1.2 0 0l-.1.1q-.1.2-.2.5-.1.1-.2.3-.1.2-.2.5c.1-.3 0-.1 0 0l-.2.4c-.1.1-.2.4-.3.5q0-.1.1-.2-.1.1-.1.2-.1.1-.2.1-.1.2-.3.4-.2.2-.3.5c-.2.2.1-.2-.1 0l-.2.2q-.3.4-.6.7l-.4.4q-.1 0-.2.1t.1 0q-.1 0-.1.1-.8.5-1.7.9-.2.2-.4.3c-.1 0-.3.2-.4.2l.1-.1-.1.1q-.2 0-.3.1-.2 0-.5.1c-.3.1-.6.3-.9.5 0 0-.1.1-.2.1q.1-.1.2-.1-.1 0-.1.1h-.2q.2 0 0 0h-.1c-1.5.1-2.9 0-4.4 0q-.5 0-1-.1c-.2 0 .3.1 0 0h-.2q-.3 0-.6-.1-.3 0-.7-.1c-.3 0 .3.1 0 0h-.2q-.5-.1-1-.3-.2-.1-.5-.1c-.1-.1-.3-.1-.5-.2h.2-.2q-.1-.1-.2-.1-.2-.2-.4-.3c-.6-.3-1.1-.6-1.6-.9q-.1 0-.1-.1-.1-.1 0 .1s-.1-.1-.1-.2q-.2-.1-.4-.3-.3-.4-.7-.8-.3-.3-.6-.7-.1-.1-.1-.2c.1.3 0 .1 0 0q-.2-.2-.3-.4c-.4-.6-.7-1.2-.9-1.8l-.2-.4c-.1-.2 0 .2 0 0q-.1-.1-.1-.2-.2-.5-.3-1 0-.5-.1-1s-.1-.3 0 0q0-.1-.1-.2v-.6c0-.7.1-1.4.1-2v-.8q.1-.5.3-1 .1-.2.1-.4.1-.1.1-.2c.1-.2-.1.2 0 0l.2-.4q0 .1-.1.1.1 0 .1-.1.2-.2.3-.4c.2-.2.3-.5.5-.7q.2-.5.5-.9.1-.2.3-.3c.1-.2-.2.2 0 0q.1-.1.1-.2.4-.4.7-.8.3-.3.7-.6.1 0 .2-.1c0-.1.3-.2 0-.1q.3-.1.5-.3.4-.3.8-.5c.2-.1-.3.1 0 0q.1 0 .2-.1.3-.1.7-.3.1 0 .2-.1c-.3.1 0 0 0 0q.2-.1.5-.1c.3-.1.6-.2 1-.3q.1-.1.3-.2c.1 0 .4 0 0 0h.5q.2-.1.5-.1.1 0 .2-.1c.1 0 .5-.1.1 0h4.7c.3 0-.2-.1 0 0h.3q.5.1 1 .3.2 0 .4.1h.2c-.2 0 .4.1.4.1l-.1-.1.1.1h.2l.6.2q.1.1.2.1c.3.1-.2-.1 0 0-.3-.1-.2-.1-.1 0q.1 0 .1.1c.5.4.9.5 1.5.4.5-.1.9-.8.8-1.4-.2-.6-.8-.8-1.4-.7z"/><path class="f" d="M11.6 35.5c-.8 0-1.5.4-2.1.9-.2.2.2-.1 0 .1q-.1 0-.2.1l-.6.4q-.3.3-.6.7l-.7.7q-.2.2-.4.5c.2-.2.1-.1 0 0l-.2.2c-.5.4-.7 1-1 1.6q-1.1 1.7-1.9 3.6c-.3.6-.7 1.2-.9 1.9-.3.6-.4 1.3-.6 1.9-.1.8-.3 1.5-.4 2.2v.9q0 .1-.1.3v.7c-.1 1.5-.1 2.9 0 4.4v3.1c0 .4-.1.8 0 1.1.2.6.5 1 1.1 1.2.3.1.5 0 .8 0H6c.8 0 1.6 0 2.3.1q.3 0 .6.1h.4l1.2.2q.6.1 1.1.2l1.4.2q1.2.2 2.4.3c.6.1 1.2-.6 1.1-1.1 0-.7-.5-1.1-1.1-1.1q-1-.2-2.1-.3h-.4q-.1-.1-.2-.1h-.1c-.3 0-.7-.1-1-.2q-1-.2-1.9-.3c-.8-.1-1.5-.2-2.3-.2H3.6l.4.2q0 .1.1.2.1.2 0 0V52q0-.2 0 0v-.2q.1-.3.1-.5v-.9q.1-.1.1-.2 0-.3.1-.6c.1-.5.2-1.1.3-1.7l.2-.4c0-.1 0-.4.1-.4q0 .1-.1.1.1 0 .1-.1t.1-.2q.1-.3.3-.6c.5-1.1 1.1-2.3 1.7-3.4l1-1.8q0-.1.1-.2v-.1q.1-.2 0 .1l.3-.3q.1-.1.1-.2.1 0 .1-.1.3-.4.1-.1c.1-.1.2-.3.3-.4l.7-.7.4-.4.2-.2-.1.1.1-.1.6-.4.2-.2-.1.1.2-.2h.2q-.3.1-.1 0h.2q.2-.1-.1 0h.1c.6 0 1.2-.5 1.1-1.2 0-.6-.5-1.1-1.1-1.1z"/><path class="f" d="M11 35.6c-.3 0-.7.1-1 .2q-.2.2-.5.3c-.4.2-.8.5-1.2.8-.3.3-.5.6-.8.9q-.1 0-.1.1c-.1 0-.1.1 0 0v-.1l-.1.1-.1.1q-.3.2-.6.5t-.5.7q-.1 0-.1.1c-.1.1.2-.2 0 0l-.2.2q-.6.5-.9 1.2-.4.5-.8 1.1l-.4.6q-.1.1-.1.3-.1 0-.1.1s-.1.2 0 .1c.1-.2-.1 0-.1 0l-.1.1q-.1.1-.1.2c-.3.3-.5.5-.6.9 0 .2-.1.3-.1.5-.1.3-.2.5-.3.8-.1.4-.2.8-.3 1.3q-.2.6-.3 1.3c-.3 1.1-.5 2-.6 3.1-.1.9-.2 1.9-.2 2.8v1.7l.2 1.8q.1.2.1.4l.1.2q-.1-.2-.1-.1l.1.1v1.6q0 .1.1.3v.4c0 .6.5 1.2 1.1 1.2.6-.1 1.1-.5 1.1-1.2q0-.4-.1-.8c0-.2.1 0 .1.1q-.1-.1-.1-.2V59c0-.5 0-1-.1-1.5q0-.4-.1-.7 0-.2-.1-.3v-.2s.1.3 0 0v-4.2q0-.4.1-.7v-.3c0-.1 0-.2 0 0v-.2q.1-.7.3-1.3.2-.7.3-1.4c.1-.5.3-.9.4-1.3q0-.3.1-.6.1-.4.2-.7l.2-.6.1-.3c0 .1-.2.3-.1.1l.1-.1s-.1.2 0 0l.1-.1q.1-.1.1-.2.3-.3.5-.6l.8-1.2c.2-.3.4-.7.6-1l.1-.2s-.1.2 0 .1l.2-.2q.2-.3.5-.5.1-.2.3-.4v-.1l.1-.1q.1-.1 0 0c-.1 0 .4-.4.4-.4s-.2.1-.1 0q.1 0 .2-.1.2-.1.4-.3l.4-.4c.1-.2.3-.4.5-.5 0 0-.2.1 0 0l.1-.1q.1-.1.3-.2.3-.1.5-.3c.1 0 .2-.1.3-.1h-.2q-.3.1-.1.1h.2c.6 0 1.2-.5 1.2-1.1-.1-.7-.5-1.1-1.2-1.2zm72.6-20.4q-.5-.1-1.1-.1-.5-.1-1.1-.1h-1q-.7.1-1.3.2-1 .2-2 .6-.4.1-.9.3c-.4.1-.7.2-1.1.3-.2.2-.4.3-.7.5q-.5.3-1 .5-.4.3-.8.5c-.4.2-.7.4-1 .7-.4.4-.9.9-1.4 1.3l-.6.6c-.3.3-.4.6-.6 1-.7 1.2-1.2 2.5-1.6 3.8-.2.8-.3 1.5-.4 2.3q-.1 1 .1 2 .1 1.2.4 2.4c.2.6.3 1.3.6 2 .3.6.7 1 1.2 1.5.5.4.9.9 1.4 1.3q.9.8 1.8 1.5.9.6 1.7 1.2c1.1.8 2.5 1.3 3.8 1.5.7.1 1.5.2 2.3.2.6.1 1.3.2 2 .2.7-.1 1.4-.1 2-.3q.6-.1 1.1-.4l.4-.2q.1 0 .2-.1c.1 0 .4-.2.1 0 .1-.1.3-.1.4-.2q.3-.1.5-.2.6-.2 1.1-.5c.6-.4 1.2-.8 1.7-1.3q1.5-1.4 2.6-3.1c.4-.6.7-1.2.9-1.9.1-.7.3-1.3.5-1.9q.3-1.1.4-2.3c.1-.7-.1-1.4-.1-2.1 0-.8-.1-1.5-.2-2.3-.2-.6-.4-1.3-.7-1.9-.4-1.3-1.1-2.6-2.1-3.4q-.5-.4-.9-.7-.1-.1-.2-.1c.2.2 0 0 0-.1q-.2-.1-.4-.3-.4-.4-.8-.7c-.3-.2-.7-.3-1.1-.5q-.4-.1-.9-.3-.2 0 0 0s-.1 0-.2-.1q-.1 0-.2-.1h-.1q.2.1.1 0c-.5-.4-.9-.7-1.4-.9-.3-.1-.7-.1-1 0-.5.1-.9.7-.9 1.2.1.6.5 1.2 1.2 1.2.5-.1 1.1-.5 1.1-1.2q-.1.7-.8.9-.2.1-.4 0h.1c.1.1.2.2-.1 0q.1 0 .2.1c.1.1.3.2 0-.1q.4.4.8.7c.3.2.6.3 1 .5l.8.2.4.2q.1 0 .1.1-.2-.1 0-.1l.1.1h.1q.1.1-.1 0l.2.1q.1.2.2.3.5.4.9.7.2.2.4.3l.3.2-.1-.1.1.1.2.2.3.3c0 .1.1.1.1.2q0-.1-.1-.1.1 0 .1.1.1.2.2.3.3.4.5.8v.2c.1.1.2.1 0-.1.1.1.1.4.2.5q.1.5.3.9.2.5.3.9 0 .3.1.5v.2c.1.3 0-.1 0 .1q.1.5.1.9 0 .5.1 1v1.5c0-.3 0-.1-.1 0v.3q-.2 1-.5 1.9-.2.4-.3.9 0 .2-.1.4l-.1.4.1-.1-.1.1q-.1.1-.1.2l-.2.4q-.3.4-.5.7-.2.2-.3.4 0 .1-.1.1l.1-.1q-.1.1-.1.2-.3.4-.7.7-.6.7-1.3 1.3-.1 0-.2.1c-.1.1.2-.2 0 0q-.2.1-.4.3c-.2.1-.5.3-.8.4.3-.1.1 0 0 0q-.1 0-.2.1-.2 0-.4.1-.5.2-1 .5-.3.1-.5.2c-.2.1.2-.1.1 0h-.2q-.4.2-.9.3c-.2 0 .3-.1 0 0h-1.7c-.6 0-1.2-.1-1.8-.2h-.9q-.1 0-.3-.1c-.3 0 .3.1 0 0H78q-.4-.1-.9-.3l-.4-.2h-.2c-.2-.1.2.1 0 0-.6-.3-1.1-.7-1.6-1-.5-.4-1.1-.8-1.6-1.2.3.2-.1-.1-.1-.1l-.4-.4-.8-.6-1.3-1.3-.3-.3q-.1 0-.1-.1c-.2-.2 0 0 0 0l-.2-.3c-.1-.3.1.2 0 0q0-.1-.1-.2c-.2-.6-.3-1.2-.4-1.8l-.2-1q-.1-.2-.1-.4s-.1-.3 0 0v-.4q-.1-.5-.1-.9v-.7c0-.1.1-.5 0-.1.1-.3.2-.7.2-1q.1-.4.3-.9l.2-.8c.1-.3.2-.6.4-.9-.2.3-.1 0 0 0q0-.1.1-.2.1-.3.2-.5l.4-.8q.1-.2.2-.3V22q.1-.1 0 .1l.1-.2c.3-.2.5-.4.7-.6.5-.4.9-.8 1.3-1.2l.2-.2q0 .1-.1.1.1 0 .1-.1l.4-.2.8-.4q.5-.3.9-.5.1-.1.3-.2c.1 0 .4-.2.4-.3 0 .1-.2.1 0 .1q.1-.1.2-.1.2 0 .4-.1.5-.2 1-.3.9-.3 1.8-.5.2-.1.5-.1s-.3 0 0 0h2.2s.4.1.4 0h-.1.1q.1 0 .2.1c.3 0 .6 0 .9-.2.2-.1.5-.4.5-.6.1-.6-.2-1.3-.8-1.4z"/><path class="f" d="M86.6 16.5c.2-.1.4-.1.6 0l.2.2s-.1-.1-.1-.2q-.2-.2-.5-.3c-.3-.2-.8-.3-1.1-.5q-.3-.1-.5-.1-.2-.1-.4-.1h-.1s.2.1 0 0q-.4-.1-.9-.2c-.4-.1-.8-.2-1.3-.3h-1q-1.1.1-2.2 0c-.8 0-1.6 0-2.4.2q-.2.1-.5.1h-.1.1q-.2 0-.5.1c-.3 0-.6.2-.9.3q-.5.1-1 .3-.3.1-.7.3-.1 0-.2.1s-.1 0 0 0c.2-.1 0 0 0 0-.4.1-.8.3-1.1.5q-.4.3-.9.6c-.6.5-1.1.9-1.6 1.5q-.8.8-1.4 1.7-.3.4-.5.9c-.1.1-.2.2-.2.3 0 0 .1-.1 0-.1v.1q-.1.2-.2.3c-.5.6-.8 1.4-1 2.1l-.2 1.2v1.1c-.1.7-.2 1.4-.1 2.1.1.8.2 1.6.4 2.3.1.7.4 1.4.8 2.1.2.6.5 1.2.9 1.7.4.7.9 1.2 1.4 1.8.5.5 1 1.1 1.7 1.5.5.4 1.1.6 1.7 1 .6.3 1.3.6 2 .8q.6.2 1.1.3.3 0 .7.1h.1c-.1 0 0 0 0 0h.2q.6.1 1.3.2h1.1q1.1 0 2.2.1c.8 0 1.6 0 2.4-.1q.6-.1 1.1-.4l.4-.2.1-.1c-.2.1 0 0 0 0h.1c.4-.1.8-.2 1.2-.4q.4-.3.9-.5c.6-.3 1.2-.8 1.8-1.2.6-.4 1-.9 1.5-1.4l.4-.6q.1-.1.1-.2c.1-.1 0 .1 0 .1l.1-.1q.4-.5.7-.9.3-.5.5-.9.1-.2.2-.5s-.1.2 0 .1v-.1q.1-.2.3-.4c.3-.6.5-1.3.6-2q.2-1.2.2-2.4v-1q0-.7-.3-1.3c0-.1-.1-.3-.2-.4 0 0 .1.2.1.1q0-.1-.1-.1v-.3c-.1-.3-.3-.6-.3-.9q-.1-.2-.1-.5l-.2-.4s-.3-.5-.2-.3c0 .1.1.2.1.3v-.1q-.1-.2-.1-.3-.2-.3-.3-.5c0-.1-.1-.2-.1-.2s.1.2 0 .1q0-.1-.1-.3-.1-.2-.3-.4-.3-.5-.5-.9c-.4-.7-.8-1.3-1.3-1.8-.5-.6-1.1-1-1.7-1.4-.6-.3-1.1-.7-1.7-1.1-.5-.4-1.2-.6-1.7-.9-.6-.3-1.3-.2-1.6.4-.2.5-.1 1.2.4 1.5l1.8.9c.5.4 1 .8 1.6 1.1q.4.2.7.5c.3.1-.1-.2.1 0q0 .1.1.1l.4.4.2.2c.1.2-.2-.2 0 0l.2.4q.3.4.5.9l.6.8q.1.1.1.2c.1 0 .1.2.1.2v-.2q0 .2.1.4l.2.2q0 .1.1.2.1.2 0 0c-.1 0 .2.6.2.5q.1.2.2.3l-.1-.1q.1.1 0-.1l.1.5.3.9q.1.6.4 1.1s.1.1.1.2v-.2 1.4q0 .5-.1 1v.8c0-.4-.1 0-.1 0q0 .5-.1.9c-.1 0-.1.2-.1.2v-.1.1q-.1.2-.3.5-.1.1-.2.3-.1.2-.2.5c.2-.3.1-.1 0 0l-.2.4c-.1.1-.2.4-.3.5q.1-.1.1-.2 0 .1-.1.2l-.1.1q-.2.1-.3.3l-.4.6c-.2.2.2-.2 0 0l-.2.2-.7.7-.4.4-.1.1-.1.1q-.8.5-1.7.9-.2.2-.4.3c-.1 0-.3.2-.4.2q.1 0 .1-.1 0 .1-.1.1t-.2.1q-.3 0-.5.1c-.3.1-.6.3-.9.5-.1 0-.2 0-.2.1q0-.1.1-.1-.1 0-.1.1h-.2.1-.2c-1.5.1-2.9 0-4.3 0q-.6 0-1.1-.1c-.2 0 .2.1 0 0h-.2q-.3 0-.6-.1-.3 0-.7-.1c-.2 0 .3.1 0 0h-.2q-.6-.1-1.1-.3l-.4-.2q-.2 0-.3-.1s-.2-.1-.1 0c.2.1 0 0 0 0q-.1-.1-.2-.1-.3-.2-.5-.3c-.6-.3-1.1-.6-1.7-1-.2-.1.2.2 0 0q-.1 0-.2-.1-.1-.2-.3-.3-.3-.4-.7-.8-.3-.4-.6-.7V34q-.2-.1 0 .1c-.1-.1-.1-.2-.2-.2q-.1-.3-.2-.5-.5-.8-.9-1.7l-.2-.4c-.1-.3.1.2 0 0q-.1-.1-.1-.2-.2-.5-.3-1 0-.5-.1-1v-.2c0 .3 0 0 0 0q-.1-.3-.1-.6c0-.7.1-1.4.1-2v-.5c0-.1 0-.2.1-.3q0 .1-.1.2.1-.1.1-.2l.2-1 .2-.4v-.3c-.1.3 0 .1.1 0q0-.1.1-.2.1-.2 0 0l.1-.1q.1-.2.3-.4c.1-.2.3-.5.4-.7q.3-.5.6-.9l.2-.4c-.2.3 0 .1.1 0q0-.1.1-.2.3-.3.6-.7.4-.3.7-.6.1 0 .2-.1c.1-.1.3-.2.1-.1q.2-.1.4-.3.2-.2.5-.3c0-.1.3-.2.3-.2s-.2.1 0 0q.1 0 .2-.1.4-.1.7-.3.1 0 .2-.1c-.3.1 0 0 0 0q.3-.1.5-.1c.3-.1.7-.2 1-.3l.4-.2c.3 0-.2 0 0 0h.4q.3-.1.5-.1.1 0 .3-.1s.4-.1.1 0h4.6c.3 0-.2-.1.1 0h.2q.5.1 1.1.3.1 0 .3.1h.2c-.2 0 .4.1.4.1q0-.1-.1-.1.1 0 .1.1h.3q.2.1.5.2.1.1.3.1c.2.1-.2-.1-.1 0-.2-.1-.1-.1 0 0l.1.1c.4.4.8.5 1.4.4.6-.1 1-.8.8-1.4-.2-.6-.8-.8-1.4-.7z"/><path class="f" d="M88.6 38.6h.1c.1 0-.2-.1-.1 0h.2s-.2-.1-.1 0h.1q.1.1.2.1c.1.1-.2-.1-.1 0l.2.2q.2.1.3.3c.5.5 1 1 1.4 1.6.1 0 .1.1.1 0-.1-.2 0 0 0 0q0 .1.1.2.2.2.3.5.1.2.3.4c.1.2.2.4.4.6-.1-.2-.1-.1 0-.1v.1q.1.1.1.2c.1.2 0-.2 0 .1q.1.1.1.2.2.5.3 1l.2.4c.1.1 0-.2 0 0l.1.1q0 .3.1.6t.1.6q.1.2.2.5h.1c.1.2 0 .2 0-.2 0 .3.1.5.3.8.2.1.5.3.8.3.5 0 1.2-.5 1.1-1.1 0-.4-.1-.6-.3-.9 0-.1-.1-.2 0 0 0 .1 0 0 0 0q0-.2-.1-.3-.1-.8-.4-1.4 0-.2-.1-.3-.1-.2-.1-.5c-.2-.4-.3-.8-.5-1.2l-.2-.2c.1.1-.3-.4-.3-.4s.2.2 0 0q-.1-.2-.2-.3-.3-.6-.7-1.1c-.5-.6-1-1.2-1.6-1.7-.6-.8-1.4-1.4-2.4-1.4-.6 0-1.1.5-1.1 1.1 0 .7.5 1.2 1.1 1.2z"/><path class="f" d="M90.1 38.7h.4q-.2-.1 0 0-.2-.1-.3-.2l.1.1-.1-.1c.2.3.4.6.7.9q.5.3.8.7l.2.2q0 .1.1.1.1.2-.1 0c.2.1.3.3.3.4q.1.1.2.3c.1.2-.1-.2 0 0q.1.4.3.7.1.2.3.5s.2.3 0 0q.1.2 0 0 0-.1 0 0 .1.2.1.4v.2q0 .4.1.8c0 .4.3.7.5 1.1v-1.1l-.1.1c-.3.5-.1 1.2.4 1.5.6.3 1.2.1 1.6-.4v-.1c.3-.3.2-.8 0-1.1q-.1-.3-.2-.5-.1-.1 0 .1 0-.1-.1-.2.1.3.1.1 0-.1-.1-.1v-.8q-.1-.2 0 0v-.1q-.1-.3-.1-.6c-.1-.2-.2-.4-.4-.6q-.1-.1-.1-.3-.1-.1 0 .1l-.1-.1c-.2-.5-.3-.9-.6-1.3-.5-.7-1.1-1.2-1.7-1.8l.1.1q-.1 0-.1-.1l-.2-.2q-.1-.3-.4-.5-.4-.4-1.1-.5h-.5c-.6 0-1.1.6-1.1 1.2s.5 1.1 1.1 1.1z"/><path class="f" d="M90.2 39.4c.6.6 1.2 1.4 1.9 2.1q.3.2.5.4l.2.2c.1.1.3.2.3.3-.1-.1-.1-.1-.1 0q.1 0 .1.1.1.2.2.3.2.3.4.7v.1c.1.3 0-.1 0 0l.2.4q.1.3.2.7l.4 1.4.4 1.4q0 .4.1.8v-.1.6c.1 1 .1 2 .2 3q0 .8.1 1.6.1.7.1 1.5c-.1 1-.1 2.1 0 3.1v1s-.1.2-.1.3q-.1.4-.1.8c.1 0 0 .3 0 .4v.3q0 .1-.1.2c0 .2.1-.3 0 0v.1c0 .2.1-.2 0 0v.1l.1-.1c.1-.2.2-.2.4-.3-.2.1.2 0 0 0h-1.2c.2 0 .1 0 0 0q-.1-.1-.2-.1c-1.1-.2-2.4-.6-3.4.2-.4.4-.4 1.2 0 1.6.5.4 1.2.4 1.6 0q-.1 0-.1.1-.3.1-.2.1l.1-.1c0 .1-.3.1-.1.1h.8-.1q.2 0 .4.1.4.1.8.1c.5.1 1.1.2 1.7.2.4-.1.8-.2 1-.4.2-.2.3-.4.4-.6.2-.3.2-.6.3-1v-.3c0-.1.1-.5 0-.2q.1-.3.1-.5v-.2c0-.1-.1.2 0 0q.1-.5.1-1v-4.7c0-.5-.1-1.1-.1-1.6-.2-1.1-.1-2.1-.2-3.2-.1-2.1-.6-4.2-1.3-6.1-.2-.6-.5-1.2-.8-1.7q-.5-.8-1.1-1.4L92.9 39l-1.2-1.2c-.4-.4-1.1-.5-1.5 0-.5.4-.5 1.1 0 1.6z"/><path class="f" d="M93.3 44.7q0 .5.1.9 0 .2.1.3v.2q0 .9.2 1.8v.6c.1.3 0 .6 0 .9.1.6.1 1.1.2 1.7l.2.8v-.1V60c-.1.3-.1.7-.1 1 0 .6.5 1.1 1.1 1.1.6 0 1.1-.5 1.1-1.1v-.2c0-.1.1-.2 0 .1q0-.2.1-.4v-7.7c0-.6 0-1.1-.1-1.7q-.1-.2-.1-.4v-.2.1q-.1-.4-.1-.9c-.1-.5 0-1.1 0-1.6q-.1-.6-.2-1.1v-.2c-.1-.2 0 .2 0 0q0-.2-.1-.5 0-.5-.1-1 0-.2-.1-.4v-.2c0-.6-.5-1.2-1.1-1.2-.6.1-1.1.5-1.1 1.2z"/><path class="f" d="M93.1 60.4H93q.3.9.5 1.8h.1q-.1.1-.3.1h.2q-.2 0-.3.1.1-.1.2-.1-.1 0-.3.1c.3-.1.6-.1.9-.2l.6-.2q.1-.1.3-.2-.1.1-.3.1.1 0 .2-.1-.1.1-.3.1h.2v-2.3q-.3 0-.6.1t-.5.2c-.3.1-.5.2-.8.4-.3.3-.4.6-.4 1v.3q0 .2.2.4c.2.2.3.3.6.4.2.1.5.1.8.1q.2-.1.5 0-.1-.1-.3-.1.1 0 .2.1-.1-.1-.3-.2l.1.1-.2-.2-.2-.2q0-.1-.1-.2v-.5q.1-.1.1-.3v.1l.2-.2q-.1 0-.1.1l.2-.2q-.1.1-.2.1.1 0 .2-.1-.1.1-.2.1.2 0 .3-.1-.1.1-.2 0 .1.1.3.1-.3-.1-.5-.1-.4-.1-.7-.1-.2-.1-.4 0c-.3 0-.5 0-.8.2q-.1.1-.3.1l-.2.4q-.1.4 0 .7c.1.5.4.8.8.9.3.1.6 0 .9 0 .2-.1.4-.2.6-.2h-.3 1.1c.3-.1.5-.2.7-.4.2-.3.3-.5.3-.8 0-.3-.1-.6-.3-.8-.2-.2-.5-.4-.8-.3-.3 0-.6.1-.8.3q.1-.1.2-.1h-.1q.1 0 .3-.1h-.2.3-.4q-.3-.1-.7 0c-.2.1-.4.2-.7.2h.5q.1.1.3.1H93q.1.1.3.2h-.1l.2.2q.1.1.1.2-.2.7-.5 1.3-.1 0-.2.1h.1-.3.6-.3c.4 0 .8.2 1.2.2.6 0 1.3-.3 1.6-.9.2-.3.3-.7.2-1-.1-.5-.5-.8-1-.9q-.3-.1-.7-.1-.3.1-.6 0 .2.1.3.1l-.1-.1q.4.6.8 1.1v.3q-.1.1-.1.2l-.2.2.1-.1-.2.2q.1-.1.3-.2-.2.1-.3.1.3-.1.6-.1h-.3.2c.2 0 .6-.1.7-.3.2-.2.4-.6.4-.8 0-.3-.1-.6-.4-.8q-.3-.3-.7-.4h-.2q-.2.1-.4.1l-.4.2q-.3.2-.5.3.1-.1.2-.1h-.2.3q-.4 0-.7.1c-.4 0-.7.2-.9.4-.3.3-.4.7-.3 1.1.1.4.4.7.8.8h.1c.3.1.6.1.8-.1.3-.1.5-.4.6-.6 0-.3 0-.6-.1-.9q-.3-.4-.7-.5zM71.7 37.5q-.5 0-1.1-.1h-2.1q-.6 0-1.3.2-1 .2-2 .5-.4.2-.9.3c-.3.1-.7.2-1 .4-.3.1-.5.3-.8.4q-.4.3-.9.6-.5.2-.9.4c-.3.2-.6.5-.9.7-.5.5-.9 1-1.5 1.4-.2.2-.4.3-.6.5-.3.3-.4.7-.6 1-.6 1.3-1.2 2.5-1.6 3.9-.2.7-.3 1.5-.4 2.2q-.1 1.1.1 2.1.1 1.2.4 2.3c.2.7.3 1.4.6 2 .3.6.7 1.1 1.2 1.5.5.5 1 .9 1.5 1.4q.8.7 1.7 1.4.9.6 1.7 1.3c1.1.7 2.5 1.3 3.8 1.5.8.1 1.5.1 2.3.2.6 0 1.3.1 2 .1s1.4-.1 2.1-.2l1-.4.4-.2q.1-.1.2-.1c.1-.1.4-.2.1-.1.1-.1.3-.1.5-.2q.2 0 .4-.1.6-.2 1.1-.5c.6-.4 1.2-.9 1.7-1.4q1.5-1.3 2.6-3.1c.4-.6.7-1.2.9-1.9.1-.6.3-1.2.5-1.8q.3-1.2.4-2.4c.1-.7-.1-1.3-.1-2 0-.8 0-1.6-.2-2.4-.2-.6-.4-1.2-.6-1.9-.5-1.2-1.1-2.5-2.2-3.4q-.4-.3-.9-.7-.1 0-.2-.1c.2.2 0 0 0 0l-.4-.4q-.4-.4-.8-.6c-.3-.3-.7-.4-1.1-.5q-.4-.2-.8-.3h-.1q-.2-.1 0 0s-.1-.1-.2-.1q-.1-.1-.2-.1 0-.1-.1-.1.2.2.1 0c-.5-.3-.9-.7-1.4-.9-.3-.1-.6-.1-1 0-.5.2-.9.7-.8 1.3 0 .6.4 1.1 1.1 1.1.6 0 1.1-.5 1.1-1.1V39q0 .7-.7 1h-.5.1c.2 0 .2.1-.1-.1q.1.1.2.1c.2.1.3.3 0 0l.8.6c.3.2.6.4 1 .5q.4.2.8.3.2.1.4.1.1.1.2.1-.3-.1-.1 0h.1l.1.1-.1-.1c.1 0 .2.2.2.2q.1.1.3.2.4.5.8.8.2.1.4.3c.1 0 .3.1.3.2q0-.1-.1-.1.1 0 .1.1.1.1.2.1.1.2.3.4l.1.1-.1-.1.1.1q.1.2.3.4l.4.8.1.1c0 .1.1.2-.1 0 .1.1.2.3.2.4q.2.5.3 1 .2.4.3.9.1.2.1.5v.2c.1.3 0-.2.1 0v1q0 .5.1 1v1.4c0-.3 0 0 0 0q-.1.2-.1.4-.2 1-.5 1.9l-.2.8q-.1.2-.1.4c-.1.1-.1.5-.2.5q0-.1.1-.2-.1.1-.1.2t-.1.2q-.1.1-.2.3-.2.4-.5.8-.2.2-.3.4-.1.2 0 0l-.1.1-.6.8-1.4 1.2q-.1.1-.2.1c-.1.1.3-.1 0 0q-.1.2-.3.3c-.3.2-.6.4-.9.4.3 0 .1 0 0 0q-.1.1-.2.1l-.4.2-1 .4q-.2.1-.5.2c-.2.1.2 0 .1 0q-.1.1-.2.1l-.8.2c-.3.1.2 0-.1 0h-.2q-.2.1-.4.1h-1c-.7-.1-1.3-.2-1.9-.2q-.5 0-.9-.1h-.3c-.2 0 .3 0 0 0q-.2-.1-.5-.1l-.8-.2q-.3-.1-.5-.2-.1 0-.2-.1c-.2-.1.2.1 0 0-.6-.3-1.1-.6-1.6-1s-1.1-.7-1.6-1.2c.3.2-.1-.1-.1-.1q-.2-.2-.4-.3-.4-.3-.8-.7-.6-.6-1.3-1.2-.1-.2-.3-.3 0-.1-.1-.2c-.1-.1 0 .1 0 .1s-.2-.3-.2-.4c-.1-.2.1.3 0 0q0-.1-.1-.2c-.2-.6-.3-1.2-.4-1.8q-.1-.5-.2-.9 0-.2-.1-.4v-.4q-.1-.5-.1-1v-.7c.1 0 .1-.4.1-.1 0-.3.1-.6.1-.9q.2-.5.3-.9.1-.5.2-.9c.1-.3.2-.6.4-.8-.2.2 0 0 0-.1q0-.1.1-.2l.2-.4.4-.8.2-.4q.1-.2 0 0s.1-.1.2-.1c.2-.3.4-.4.7-.6.4-.4.8-.9 1.3-1.3l.1-.1h-.1.2q.1-.1.3-.2.4-.2.8-.5.5-.2.9-.5.2-.1.3-.2c.1 0 .5-.2.5-.2s-.3.1-.1 0h.2q.2-.1.5-.2.4-.1.9-.3.9-.3 1.8-.5.3 0 .5-.1s-.2.1 0 0h2.2l.4.1h-.1.4c.3.1.5.1.8-.1.2-.1.5-.4.5-.7.1-.5-.1-1.3-.8-1.4z"/><path class="f" d="M74.7 38.8h.6c0 .1.2.2.2.2l-.1-.1q-.2-.2-.5-.4c-.3-.2-.7-.3-1.1-.4q-.2-.1-.5-.2h-.4c-.1 0-.2-.1 0 0h-.1q-.4-.2-.9-.3c-.4-.1-.8-.2-1.3-.2-.3-.1-.6 0-1 0h-2.1c-.9 0-1.6 0-2.4.1l-.6.2c-.2 0 .2-.1 0 0H64l-.9.3q-.5.1-1 .3-.3.2-.6.3-.2 0-.3.1s-.1.1 0 0c.2-.1 0 0 0 0-.4.2-.8.3-1.1.5q-.4.3-.8.7c-.6.4-1.2.9-1.7 1.4q-.8.8-1.4 1.8-.3.4-.5.8c-.1.1-.2.3-.2.4 0 0 .1-.2.1-.1q-.1 0-.1.1-.2.2-.3.4c-.4.5-.7 1.3-.8 2q-.2.6-.3 1.2v1c-.1.8-.1 1.5-.1 2.2.1.8.2 1.5.4 2.3.2.7.5 1.4.8 2.1.3.6.6 1.2.9 1.7l1.5 1.8c.5.5 1 1 1.6 1.5.5.3 1.1.6 1.7.9.7.4 1.4.6 2.1.9l1 .2q.4.1.7.1h.2c.1.1-.1 0-.1 0q.1 0 .2.1 1.2.2 2.4.2h4.4q.7-.1 1.3-.4.2-.2.4-.3s.2 0 .2-.1c0 0-.2.1-.1.1q0-.1.1-.1c.4-.1.8-.2 1.2-.4l.8-.4c.7-.3 1.3-.7 1.8-1.2q.9-.6 1.6-1.4l.4-.6.2-.2c0-.1-.1 0-.1.1q.1-.1.1-.2c.3-.3.5-.6.8-.9q.2-.4.4-.9l.2-.4c.1-.1 0 .1 0 .1v-.1q.1-.2.3-.4c.3-.7.5-1.3.6-2.1q.2-1.1.2-2.3v-1q.1-.8-.3-1.4c0-.1-.1-.3-.2-.4 0 0 .1.3.1.1V48q-.1-.1-.1-.2c-.1-.3-.2-.6-.3-1q0-.2-.1-.4l-.2-.4c0-.1-.2-.2-.2-.4q0 .1.1.2c.1.2 0 .1 0 0q0-.1-.1-.2l-.3-.6-.1-.1c0-.1.1.2 0 .1q0-.2-.1-.3l-.2-.4-.6-1c-.4-.6-.8-1.2-1.3-1.8-.5-.6-1.1-1-1.7-1.3-.6-.4-1.1-.8-1.7-1.1-.5-.4-1.1-.7-1.7-1-.6-.2-1.3-.2-1.6.4-.2.5-.1 1.3.4 1.5.6.3 1.2.6 1.8 1 .5.3 1 .7 1.6 1q.4.3.8.5c.2.2-.2-.1 0 0q.1.1.1.2l.4.4.2.2c.1.2-.2-.2 0 0q.1.2.3.4.2.4.5.8.2.4.5.9.1.1.1.2c.1 0 .1.1.2.1q-.1 0-.1-.1.1.2.1.3.1.1.2.3l.1.1c.1.2-.1-.2 0 0l.2.6c.1.1.3.5.1.1.2.2 0-.2 0 0q.1.2.1.5c.1.3.2.5.3.8q.2.6.4 1.1c.1 0 .1.2.1.2v-.1 1.3q0 .5-.1 1v.9q-.1.5-.3.9v.1q0 .2.1-.1l-.1.2q-.1.2-.3.4l-.2.4q-.1.2-.1.4c.1-.3 0 0 0 0q-.1.2-.3.4c0 .2-.1.4-.3.5l.1-.1q0 .1-.1.1-.1.1-.1.2-.2.1-.3.3-.2.3-.4.5c-.1.2.2-.2 0 0q-.1.2-.2.3-.4.3-.7.7l-.3.3-.2.2q-.2.1 0-.1 0 .1-.1.1-.8.6-1.6 1-.3.1-.5.2c0 .1-.3.3-.4.2q-.1.1-.2.1-.3.1-.5.2c-.4.1-.7.3-1 .5h-.1s-.2 0-.2.1q.3-.1.1-.1h-.2c-1.4.1-2.9 0-4.3 0h-1c-.3 0 .2 0 0 0h-.3q-.3-.1-.5-.1-.4-.1-.7-.1c-.3-.1.2 0-.1 0q-.1 0-.2-.1l-1-.2-.4-.2c-.2-.1-.4-.1-.5-.2q.1 0 .1.1l-.1-.1q-.1 0-.2-.1-.3-.1-.5-.2c-.5-.3-1.1-.6-1.6-1h-.1q-.1-.1.1 0c-.1 0-.1-.1-.2-.1q-.2-.2-.3-.4-.4-.3-.7-.7-.3-.4-.6-.7l-.2-.2c.2.2 0 0 0 0q-.1-.3-.3-.5c-.3-.5-.6-1.1-.9-1.7q-.1-.2-.2-.5c-.1-.2.1.2 0 .1q0-.1-.1-.2l-.2-1-.2-1c0-.1 0-.3 0 0v-.3q0-.3-.1-.6c0-.6.1-1.3.1-2q0-.3.1-.5v-.2l.2-1q.1-.2.2-.5v-.1c.1-.3-.1.2 0-.1.1 0 .3-.4.3-.3q-.1 0-.1.1 0-.1.1-.1.1-.2.3-.4c.2-.3.3-.5.4-.8l.6-.8.2-.4c.2-.2-.2.2 0 0l.2-.2q.3-.4.7-.7.3-.3.7-.6 0-.1.1-.2c.1 0 .3-.2.1 0q.2-.2.5-.4t.7-.4c.2-.2-.2 0 0-.1h.2q.4-.2.7-.3.1-.1.2-.1h.1l.4-.2c.3-.1.7-.2 1-.3q.2-.1.4-.1s.3-.1 0 0q.2 0 .4-.1.3 0 .5-.1h.3s.4-.1.1 0c.1-.1.3-.1.5-.1h4.2c.2 0-.3-.1 0 0q.1 0 .2.1l1 .2q.2.1.4.1h.2c-.2 0 .5.1.5.1h-.2.1q.2.1.3.1.3.1.5.2.2 0 .3.1c.2.1-.2-.1-.1 0-.2-.2-.1-.1 0-.1q0 .1.1.1c.4.4.8.6 1.4.5.6-.1 1-.9.8-1.4-.2-.6-.8-.9-1.4-.8z"/><path class="f" d="M59.5 58.4c-.5-.5-1.3-.5-1.9-.2-.3.2-.5.4-.7.5-.4.3-.8.5-1.1.8-.3.3-.6.6-1 .9-.8.7-1.5 1.5-2.1 2.4-.6.8-1.1 1.6-1.7 2.4-.6.9-1.1 1.8-1.6 2.7-.6.9-1.1 1.9-1.3 3-.1.5-.3 1-.4 1.5l-.2 1.8c-.1 1.1-.2 2.2-.3 3.2v4.7c0 .6 0 1.2.3 1.7.3.6 1 .9 1.6.9h.6q.3 0 .7.1H52q.8 0 1.6.1l1.6.2h.2q.1.1.3.1.5.1 1 .1c1.1.1 2.2 0 3.4 0h9.8c.6 0 1.1-.1 1.6-.2h1.6l1.6-.2q.4 0 .9-.1.2-.1.4-.1h.1-.1.3c.3-.1-.4-.1.1 0h.5q.2 0 .5-.1h.6q.2 0 .4-.1.2 0 0 0H80q.2-.1.5-.1c.2-.1-.1 0-.1 0h.2v-2.3h-.1c-.5.1-1.1.5-1.1 1.2 0 .6.5 1.1 1.1 1.1h.1c.6 0 1.2-.5 1.1-1.1 0-.7-.4-1.1-1.1-1.2-.3 0-.6.1-.9.2-.1 0-.1-.1.1 0-.1-.1-.2 0-.2 0h-.4q-.4-.1-.8 0h-.5c-.2.1 0 0 .1 0q-.2.1-.3.1-.4 0-.9.1c-.2 0 0-.1.1 0h-.1q-.3-.1-.5-.1c-.6 0-1.1.2-1.6.3h-.2c-.2.1.2 0 .1 0h-.4q-.4.1-.8.1c-.5 0-1 0-1.5.1-.5 0-1.1.1-1.6.1q-.7.1-1.5.1c-2.1-.1-4.2 0-6.4 0h-5.8c-.2 0 0 0 0 0q-.1 0-.2-.1-.9-.1-1.7-.2c-.5-.1-1.1-.1-1.6-.2h-1.5c-.5 0-1-.1-1.5-.1h-1c-.2 0 .3.1.1 0-.2 0 .2.1.1.1-.1-.1.2.1.1 0s.2.3 0 .1c0-.1.1 0 .1.1 0-.1-.1-.2-.1-.3.1.2 0 .2 0 .1v-3.1c0-1 0-2 .2-3.1q.1-1.5.3-3.1v-.2s0-.2 0 0v-.3q.1-.4.2-.7c.1-.5.2-1 .4-1.5v-.2c.1-.1 0 .2 0 .1l.2-.4q.2-.3.3-.6.4-.7.8-1.3.4-.7.8-1.3l.8-1.2.8-1.2.4-.6q.1-.1.2-.3c.1-.1 0 0 0 .1q0-.1.1-.2.5-.6 1-1.1c.3-.3.7-.6 1-.9q.3-.2.5-.4 0-.1.1-.1c.1-.1-.1 0-.1 0q.1 0 .3-.1.3-.3.7-.5.1-.1.2-.1c0-.1.1-.1.2-.1 0 0-.3.1-.2 0h-.4q-.1 0-.2-.1l-.1-.1c.4.4 1.2.4 1.6 0 .4-.4.4-1.1 0-1.6zm17.2 2.5c.1 0 .2.1.2.1l-.1-.1.1.1q.1 0 .2.1c.1.1-.2-.2 0 0l.1.1q.2.2.3.4l1.5 1.5s.1.1 0 0 0 0 0 .1q.1 0 .1.1.2.3.3.5c.2.4.4.8.7 1-.1-.1-.1-.1 0 0v.1l.2.2c0 .2-.1-.2 0 0q0 .1.1.3.1.4.3.9.1.2.2.5c0 .1-.1-.2-.1-.1q0 .1.1.2.1.3.1.6.1.3.1.6l.2.4q.1 0 .1.1c.1.2 0 .1 0-.3 0 .3.1.6.3.8.2.2.5.3.8.3.5 0 1.2-.5 1.1-1.1 0-.3-.1-.6-.3-.9 0 0-.1-.1 0 0 .1.2 0 .1 0 0q0-.1-.1-.3-.1-.7-.4-1.4s0-.2.1.1q-.1 0-.1-.1t-.1-.2q0-.3-.1-.6c-.2-.4-.3-.8-.5-1.2l-.2-.2c.1.1-.3-.3-.3-.4 0 .1.2.3.1.1l-.1-.1q-.1-.1-.2-.3-.3-.5-.7-1c-.5-.7-1-1.2-1.6-1.8-.6-.7-1.4-1.3-2.4-1.3-.5 0-1.1.5-1.1 1.1 0 .6.5 1.1 1.1 1.1z"/><path class="f" d="M57.8 57.9c-.6 0-1.2.2-1.6.5-.2.1-.5.3-.6.4.1-.1.1-.1 0 0q-.1 0-.1.1-.3.2-.5.3c-.4.3-.7.7-1 1q-.2.3-.4.5l-.2.2q-.1.2-.2.3c.1-.2 0 0-.1 0l-.4.4q-.2.3-.4.7-.3.6-.7 1.2c-.4.9-.9 1.7-1.3 2.6q-.4.6-.7 1.3c-.2.5-.5 1-.6 1.5-.4.8-.4 1.7-.6 2.6-.2.5-.3 1.1-.3 1.6v.5q-.1.4-.1.9v7.7c0 .6 0 1.2.5 1.7.4.4.9.5 1.4.5h1.6c1 0 2-.1 3 0q.3.1.7.1h.1c.2.1 0 0 0 0q.2.1.4.1.8.1 1.5.3c1.1.2 2.1.3 3.2.4q1.5.2 3 .3c1 0 2-.1 3-.1h7.7c.5 0 1 .1 1.5 0 1-.1 2-.1 3-.1h1.5c.6 0 1.1-.5 1.1-1.1 0-.6-.5-1.1-1.1-1.1-1 0-2-.1-3 0q-.7 0-1.4.1H62.5c-1-.1-2-.2-2.9-.3q-.4-.1-.7-.1h-.2c-.2-.1.1 0 .1 0s-.4-.1-.5-.1q-.7-.1-1.4-.3c-1-.1-2-.3-3.1-.4H51c-.5 0-.9 0-1.4.1h.2c-.2 0 .1.1.1.1q.2 0 .3.2c.1.2.1.2 0 .1v-.4c.1-1 .1-1.9 0-2.9v-5c.1-.2 0 .1 0 .1.1-.1.1-.2.1-.4q0-.2.1-.5v-.8q0-.2.1-.4.1-.6.2-1.3.1-.6.3-1.2c0-.1.1-.3.1-.4 0 0-.1.3 0 .1q0-.1.1-.1.1-.4.3-.7c.4-.8.8-1.7 1.2-2.5.4-.8 1-1.6 1.4-2.4q.1-.3.2-.5 0-.1.1-.2c.1-.1 0 .1-.1.1.1 0 .2-.2.3-.2l.2-.2q0-.1.1-.1 0-.1.1-.2.1-.2 0 0c.1-.1.3-.3.4-.5l.9-.9q.1-.1.1-.2c.1 0 .2-.1.1 0-.2.1 0 0 0 0l.1-.1q.4-.2.7-.5c.2-.2-.2.1 0 0l.1-.1h.1s.2-.1 0 0h.1q0-.1.1-.1s.2 0 0 0h.1c.5 0 1.1-.5 1.1-1.1 0-.6-.5-1.1-1.1-1.1z"/><path class="f" d="M57.2 58c-.4 0-.7 0-1.1.2q-.2.1-.4.3c-.5.2-.9.4-1.3.8-.3.2-.5.5-.8.8q0 .1-.1.1s-.1.1 0 0h.1-.1l-.1.1q-.4.3-.7.6-.2.3-.5.6v.1c-.1.2 0 0 0 0l-.2.2q-.6.5-1 1.2-.3.5-.7 1.1l-.4.6q-.1.1-.2.3s-.1.2-.1.3c0-.2.1-.2 0-.1l-.1.1-.2.2q-.2.3-.4.7c-.2.2-.2.5-.3.7 0 .3-.1.5-.2.7q-.1.3-.2.7-.1.3-.2.7-.2.6-.3 1.3c-.2 1.1-.4 2.1-.6 3.1-.1 1-.1 1.9-.1 2.9v1.6q0 .9.2 1.8 0 .3.1.5v.9q0 .4.1.8v.4c.1.1 0 .3 0 .4 0 .6.5 1.1 1.2 1.1.6 0 1.1-.5 1.1-1.1q0-.4-.1-.9v-.5q0-.7-.1-1.5l-.2-.6v-.6c0 .3 0 .1 0 0q-.1-.7-.1-1.4c0-.9 0-1.8.1-2.8v-.6q0-.2.1-.4v-.2q.1-.6.2-1.3l.4-1.4c.1-.5.2-.9.3-1.3q.1-.7.4-1.3.1-.3.1-.6.1-.1.1-.2c0-.1 0 .1-.1.1.1 0 .2-.3.1-.1l.1-.1.2-.2q.3-.4.5-.7.3-.6.7-1.2c.3-.3.5-.7.7-1.1.1-.1 0 0 0 .1l.1-.1.2-.2q.2-.2.4-.5.2-.2.3-.4l.1-.1q0-.1.1-.1 0-.1-.1.1s.4-.5.5-.5c0 0-.3.2-.1.1l.1-.1q.2-.2.4-.3c.2-.2.3-.3.4-.5.2-.2.4-.3.5-.5 0 0-.2.2 0 .1l.1-.1q.2-.1.3-.2.3-.2.6-.3c0-.1.2-.1.2-.2q-.1 0-.1.1H57h.2c.6 0 1.1-.5 1.1-1.1 0-.6-.5-1.1-1.1-1.1zm21 3h.4q-.1 0 0 0-.2 0-.3-.2l.1.1-.1-.1c.2.4.4.7.8.9q.4.4.7.8l.2.2.1.1q.1.1 0-.1c.1.1.2.3.3.5q0 .1.1.2c.1.3-.1-.2 0 .1q.2.3.3.7.1.2.3.4c0 .1.2.3 0 .1q.1.1.1 0-.1-.2 0 0v.5q0 .4.1.8c.1.5.3.8.5 1.2V66v.1c-.4.5-.2 1.3.4 1.6.5.3 1.1.1 1.5-.4q0-.1.1-.1c.2-.4.1-.8 0-1.2q-.2-.2-.3-.4-.1-.2 0 0v-.2q-.1-.4-.1-.8v-.1q0-.2-.1-.5c-.1-.3-.2-.4-.4-.6q-.1-.2-.1-.3-.1-.2 0 0l-.1-.1c-.1-.4-.3-.8-.6-1.2-.5-.7-1-1.3-1.7-1.8q-.1-.2.1.1-.1-.1-.1-.2-.1-.1-.1-.2-.2-.3-.5-.5-.4-.4-1-.4h-.6c-.5 0-1.1.5-1.1 1.1 0 .6.5 1.1 1.1 1.1z"/><path class="f" d="M78.3 61.7c.6.7 1.3 1.4 2 2.1q.2.2.4.5.2.1.3.2c0 .1.2.2.2.3 0-.1-.1-.2 0-.1q0 .1.1.2t.1.3l.4.6v.2c.1.2 0-.2 0 0q.1.1.2.3.1.4.2.7l.4 1.4q.2.7.4 1.5 0 .3.1.7v-.1.6c.1 1 .1 2 .2 3.1q0 .8.1 1.5.1.8.1 1.5c0 1.1-.1 2.1 0 3.2v1c0 .3 0 0 0 0l-.1.2q-.1.4-.1.9 0 .2.1-.1c0 .1-.1.4-.1.4v.5c-.1.3 0-.2 0 0l-.1.1c0 .3.1-.2 0 0v.1c0 .1-.1.1.1-.1.1-.1.2-.2.4-.2-.2 0 .2 0 0 0q-.4 0-.8-.1h-.4c.3.1.1 0 0 0h-.2c-1.1-.2-2.4-.7-3.3.1-.5.4-.5 1.2 0 1.6.4.5 1.1.4 1.5 0q0 .1-.1.2-.3.1-.2 0h.8c-.3.1-.2 0-.1 0q.2.1.4.1l.8.2c.5.1 1.1.1 1.7.1.4 0 .8-.1 1.1-.4.1-.2.2-.3.3-.5.2-.4.2-.7.3-1.1v-.3c0-.1.1-.5 0-.1q.1-.3.1-.6v-.2s-.1.3 0 .1q.1-.5.1-1c.1-.5 0-1 0-1.5v-3.2c0-.6-.1-1.1-.1-1.7-.1-1-.1-2.1-.2-3.1-.1-2.1-.5-4.2-1.3-6.2-.2-.6-.5-1.2-.8-1.7q-.5-.8-1.1-1.4c-.4-.4-.8-.7-1.2-1.1-.4-.4-.7-.9-1.1-1.3-.5-.4-1.2-.4-1.6 0-.4.5-.5 1.2 0 1.6z"/><path class="f" d="M81.4 67q0 .5.1 1 .1.1.1.3v.2l.2 1.8s.1.2 0 .1v.1q.1.1.1.3c0 .3-.1.6 0 .9 0 .6.1 1.2.1 1.7l.2.8q0 .2 0 0v8.1c-.1.4-.1.7-.1 1 0 .6.5 1.2 1.1 1.2.6-.1 1.1-.5 1.1-1.2v-.2c0-.1.1-.1 0 .1q.1-.1.1-.3c.1-.3.1-.7 0-1v-6.7c0-.6 0-1.2-.1-1.8q0-.2-.1-.4v-.2c.1.1 0 .2 0 .1q0-.4-.1-.8v-1.6l-.2-1.2v-.1c0-.3 0 .2 0 0v-.5q0-.6-.2-1.1v-.4l-.1-.1q.1.3 0 .1V67c0-.6-.5-1.1-1.1-1.1-.6 0-1.1.5-1.1 1.1z"/><path class="f" d="M81.2 82.7h-.1q.3.9.5 1.9l.1-.1-.2.2q0-.1.1-.1-.1.1-.3.1h.2-.3c.3 0 .7 0 1-.1q.2-.1.5-.3.2-.1.3-.2l-.2.2q.1-.1.2-.1h-.3.1V82q-.3 0-.6.1-.2 0-.5.1c-.3.1-.5.3-.8.5-.3.2-.4.6-.4 1v.3l.2.4c.2.2.4.3.6.4.2 0 .5.1.8 0h.5-.3.2q-.1 0-.3-.1h.1q-.1-.1-.2-.1l-.2-.2h.1q-.1-.1-.2-.3.1 0 .1.1-.1-.2-.1-.3 0-.1.1-.3l-.1.1q.1-.2.2-.3-.1 0-.1.1.1-.2.2-.3l-.1.1q.1-.1.2-.1-.1 0-.2.1.1-.1.3-.1H82h.3-.2.3q-.3 0-.5-.1-.3 0-.6-.1h-.4c-.4 0-.6.1-.9.2l-.2.2q-.2.1-.3.4-.1.3 0 .7c.1.4.4.7.9.8.2.1.5.1.8 0 .2 0 .4-.2.6-.2h-.3c.2 0 .4.1.6.1h.1q.2 0 .4-.1c.3-.1.5-.2.7-.4.2-.2.3-.5.3-.8 0-.3-.1-.6-.3-.8-.2-.2-.5-.3-.8-.3-.3 0-.6.1-.8.3v.1l.2-.2-.1.1q.2-.1.3-.2l-.1.1q.1 0 .3-.1-.3.1-.5 0-.3 0-.6.1c-.3 0-.5.1-.7.2q.1 0 .3-.1h-.1q.1.1.3.1h-.1q.1 0 .3.1h-.1q.2.1.3.1 0 .1.1.3v-.1q.1.2.1.3-.2.6-.5 1.2l-.2.2.1-.1h-.3q.3 0 .6.1-.1-.1-.3-.1c.4.1.8.2 1.2.2.7 0 1.3-.3 1.7-.8.1-.3.2-.7.1-1.1-.1-.4-.5-.7-.9-.9q-.4-.1-.8 0h-.5.3-.2q.4.5.8 1.1v.2q-.1.1-.1.3v-.1l-.2.2h.1q-.1 0-.2.1.1-.1.3-.1-.1 0-.3.1l.6-.2h-.3.2c.3 0 .6-.1.8-.3.2-.2.3-.5.3-.8 0-.3-.1-.6-.3-.8q-.4-.3-.8-.3h-.1q-.2 0-.4.1-.3 0-.5.2-.3.1-.5.2.1 0 .3-.1-.2.1-.3.1.2 0 .3-.1-.4.1-.7.1c-.3.1-.6.3-.9.5-.2.3-.4.7-.3 1.1.2.4.5.6.8.8h.1c.3.1.6 0 .9-.1.2-.2.4-.4.5-.7 0-.3 0-.6-.1-.9q-.3-.3-.7-.5zM54.3.8q-.5-.1-1.1-.1h-2.1q-.6 0-1.3.2-1 .2-2 .5-.4.2-.9.3c-.4.1-.7.2-1.1.4-.2.1-.4.3-.7.4l-1 .6-.8.4c-.4.2-.7.5-1 .7-.4.5-.9 1-1.4 1.4-.2.1-.4.3-.6.5-.3.3-.4.7-.6 1-.7 1.3-1.2 2.5-1.6 3.9-.2.7-.3 1.5-.4 2.2q-.1 1.1.1 2.1.1 1.2.4 2.3c.2.7.3 1.4.6 2 .3.6.7 1.1 1.2 1.5l1.4 1.4 1.8 1.4q.9.6 1.7 1.3c1.1.7 2.5 1.3 3.8 1.5.7.1 1.5.1 2.3.2.6 0 1.3.1 2 .1s1.4-.1 2-.2q.6-.2 1.1-.4l.4-.2q.1-.1.2-.1c.1-.1.4-.3.1-.1.1-.1.3-.1.4-.2q.3 0 .5-.1.6-.2 1.1-.6c.6-.3 1.2-.8 1.7-1.3q1.5-1.4 2.6-3.1c.4-.6.7-1.2.9-1.9.1-.6.3-1.2.5-1.8q.3-1.2.4-2.4c.1-.7-.1-1.3-.1-2 0-.8-.1-1.6-.2-2.4-.2-.6-.4-1.2-.7-1.9-.4-1.2-1.1-2.5-2.1-3.4q-.5-.3-.9-.7-.1 0-.2-.1c.2.2 0 0 0 0l-.4-.4q-.4-.4-.8-.7c-.3-.2-.7-.3-1.1-.4q-.4-.2-.9-.3-.2-.1 0 0s-.1-.1-.2-.1q-.1-.1-.2-.1 0-.1-.1-.1.2.1.1 0c-.5-.3-.9-.7-1.4-.9-.3-.1-.7-.1-1 0-.5.2-.9.7-.9 1.3.1.6.5 1.1 1.2 1.1.5 0 1.1-.5 1.1-1.1v-.1q-.1.7-.7 1h-.5.1c.1 0 .2.1-.1-.1q.1.1.2.1c.1.1.3.3 0 0l.8.6c.3.2.6.4 1 .5q.4.2.8.3.2.1.4.1l.1.1q-.2-.1 0 0h.1q0 .1.1.1l-.1-.1.2.2.2.2q.5.4.9.8.2.1.4.3s.3.1.3.2q0-.1-.1-.1.1 0 .1.1.1.1.2.1.1.2.3.4l.1.1-.1-.1.1.1.2.4q.3.4.5.8v.1c.1.1.2.1 0 0 .1.1.1.3.2.4q.1.5.3 1 .2.4.3.9 0 .2.1.4v.3c.1.3 0-.2 0 0q.1.5.1 1t.1 1v1.4c0-.3 0 0-.1 0v.4q-.2.9-.5 1.9-.2.4-.3.8 0 .2-.1.4c0 .1-.1.5-.1.5q0-.1.1-.2-.1.1-.1.2-.1.1-.1.2-.1.1-.2.3-.3.4-.5.8-.2.2-.3.4h-.1q-.1.2.1 0-.1 0-.1.1-.3.4-.7.7-.6.7-1.3 1.3-.1.1-.2.1c-.1.1.2-.1 0 0q-.2.2-.4.3c-.2.1-.5.4-.8.4.3 0 .1 0 0 0q-.1.1-.2.1l-.4.2-1 .4q-.3.1-.5.2c-.2.1.2 0 .1 0q-.1.1-.2.1-.4.1-.9.2c-.2.1.3 0 0 0h-.2q-.2 0-.5.1h-1c-.6-.1-1.2-.2-1.8-.2q-.5 0-.9-.1h-.3c-.3 0 .3 0 0 0q-.2-.1-.5-.1-.4-.1-.9-.3-.2 0-.4-.1-.1-.1-.2-.1c-.2-.1.2.1 0 0-.6-.3-1.1-.6-1.6-1s-1.1-.8-1.6-1.2c.3.2-.1-.1-.1-.1q-.2-.2-.4-.3-.4-.3-.8-.7-.6-.6-1.3-1.2-.1-.2-.3-.3-.1-.1-.1-.2c-.2-.1 0 .1 0 .1l-.2-.4c-.1-.2.1.3 0 0q0-.1-.1-.2c-.2-.6-.3-1.2-.4-1.8q-.1-.5-.2-.9-.1-.2-.1-.5s-.1-.3 0 0v-.3q-.1-.5-.1-1v-.7s.1-.4 0-.1c.1-.3.2-.6.2-.9q.1-.5.3-.9.1-.5.2-.9c.1-.3.2-.6.4-.9-.2.3-.1.1 0 0q0-.1.1-.2l.2-.4q.2-.4.4-.9.1-.1.2-.3.1-.2 0 0s.1-.1.1-.2c.3-.2.5-.3.7-.5.5-.4.9-.9 1.3-1.3.1 0 .2-.1.2-.1h-.1.1l.4-.2q.4-.2.8-.5.5-.2.9-.5.1-.1.3-.2c.1 0 .4-.2.4-.2s-.2.1 0 0h.2l.4-.2q.5-.1 1-.3.9-.3 1.8-.5.3 0 .5-.1s-.3.1 0 0h2.2l.4.1q-.1 0-.1-.1 0 .1.1.1h.2c.3 0 .6.1.9-.1.2-.1.5-.4.5-.7.1-.5-.2-1.3-.8-1.4z"/><path class="f" d="M57.3 2.1h.6c0 .1.2.2.2.2l-.1-.1q-.2-.2-.5-.4c-.3-.2-.8-.3-1.1-.4q-.3-.1-.5-.2h-.4c-.1 0-.2-.1-.1 0 .2 0 .1 0 0-.1Q55 1 54.5.9c-.4-.1-.8-.2-1.3-.2-.3-.1-.6 0-1 0H50c-.8 0-1.6 0-2.4.1q-.2.1-.5.1c-.2.1.2 0 0 0q-.3.1-.5.1l-.9.3q-.5.1-1 .3-.3.1-.7.3-.1 0-.2.1s-.1.1 0 0c.2-.1 0 0 0 0-.4.2-.8.3-1.1.5q-.4.3-.9.7c-.6.4-1.1.9-1.6 1.4q-.8.8-1.4 1.8-.3.4-.5.8c-.1.1-.2.3-.2.4 0 0 .1-.2 0-.1v.1q-.2.2-.3.4c-.5.5-.7 1.3-.9 2l-.2 1.2v1c-.1.8-.2 1.5-.1 2.2.1.8.2 1.5.4 2.3.1.7.5 1.4.8 2.1.3.6.6 1.1.9 1.7.4.6.9 1.2 1.4 1.8.5.5 1.1 1 1.7 1.5.5.3 1.1.6 1.7.9.7.4 1.4.6 2.1.9l1 .2q.4.1.7.1.2 0 .3.1 1.2.2 2.3.2h4.5q.7-.1 1.3-.5l.4-.2s.1 0 .1-.1c0 0-.2.1 0 .1q0-.1.1-.1c.4-.1.8-.2 1.1-.4q.5-.2.9-.4c.6-.3 1.3-.8 1.8-1.2q.8-.6 1.5-1.5.3-.2.5-.5.1-.1.1-.2c.1-.1 0 0 0 0l.1-.1c.2-.3.5-.6.7-.9q.3-.4.5-.9l.2-.4q.1-.2.3-.4c.3-.7.5-1.3.6-2.1q.2-1.1.2-2.3v-1q0-.8-.3-1.4c0-.1-.1-.3-.2-.4 0 0 .1.2.1.1l-.1-.1v-.2c-.1-.4-.3-.7-.3-1q-.1-.2-.1-.4l-.2-.4c-.1-.1-.2-.2-.3-.4l.2.2c0 .2 0 .1 0 0q-.1-.1-.1-.2l-.3-.6s-.1-.1-.1-.2c0 0 .1.3 0 .2q0-.2-.1-.3-.1-.3-.3-.5-.3-.4-.5-.9c-.4-.6-.8-1.2-1.3-1.8-.5-.6-1.1-1-1.7-1.4-.6-.3-1.1-.7-1.7-1.1-.5-.3-1.2-.6-1.7-.9-.6-.2-1.3-.2-1.6.4-.2.5-.1 1.3.4 1.5.6.3 1.2.6 1.8 1 .5.3 1 .7 1.6 1q.4.3.7.5c.3.2-.1-.2.1 0q0 .1.1.2l.4.4.2.2c.1.2-.2-.2 0 0l.2.4q.3.4.5.8l.6.8q.1.1.1.3c.1 0 .1.1.1.1v-.1q0 .2.1.3l.2.2q0 .1.1.2c.1.2-.1-.2 0 0l.2.6c.1.1.3.5.1.1.1.2 0-.2 0 0q.1.2.1.4l.3.9q.1.6.4 1.1l.1.2v-.2 1.4q0 .5-.1 1v.8c0-.3-.1 0-.1.1q0 .5-.2.9v.1q-.1.1 0-.1c.1 0 0 .2 0 .2q-.2.2-.3.4l-.2.4-.2.4c.2-.3.1 0 0 0l-.2.4c-.1.2-.2.4-.3.5l.1-.1-.1.1q-.1.1-.1.2-.2.1-.3.3-.2.3-.4.5c-.2.2.2-.2 0 0q-.1.2-.2.3-.4.3-.7.7-.2.1-.4.3 0 .1-.1.2-.2.1 0-.1l-.1.1q-.8.6-1.7 1l-.4.2c-.1.1-.3.3-.4.2q-.1.1-.2.1-.3.1-.5.1c-.4.2-.7.4-1 .5l-.1.1.1-.1-.1.1h-.2.1-.2c-1.5.1-2.9 0-4.3 0h-1.1q-.1 0-.2-.1h-.6q-.3-.1-.7-.1c-.2-.1.3 0 0 0q-.1-.1-.2-.1l-1-.2q-.2-.1-.5-.2c-.1-.1-.3-.1-.4-.2l.1.1-.1-.1q-.1 0-.2-.1-.3-.1-.5-.3c-.5-.2-1.1-.5-1.6-.9h-.1q-.1-.1.1 0c-.1 0-.2-.1-.2-.1l-.4-.4-.7-.7q-.3-.4-.5-.7l-.2-.2c.2.2 0 0 0 0q-.2-.3-.3-.5c-.3-.5-.6-1.1-.9-1.7q-.1-.2-.2-.5c-.1-.2.1.2 0 0l-.1-.1-.2-1-.2-1c0-.1-.1-.3 0 0v-.3q-.1-.3-.1-.6c0-.6.1-1.3.1-2v-.5c0-.1 0-.2.1-.2l-.1.1q.1-.1.1-.2.1-.5.2-.9.1-.3.2-.5v-.1c.1-.3-.1.2 0-.1 0 0 .2-.4.3-.4q-.1.1-.1.2 0-.1.1-.1.1-.2.3-.4c.1-.3.3-.5.4-.8q.3-.4.6-.9.1-.1.2-.3c.1-.2-.2.2 0 0l.2-.2q.3-.4.6-.7.4-.3.7-.6l.2-.2c.1 0 .3-.2.1 0l.4-.4q.4-.2.8-.5c.2-.1-.3.1 0 0h.2q.4-.2.7-.3.1-.1.2-.1c-.3 0 0 0 0 0q.3-.1.5-.2c.3-.1.7-.2 1-.3q.2-.1.4-.1s.3-.1 0 0q.2-.1.4-.1.3 0 .5-.1h.3s.4-.1.1-.1h4.6c.3 0-.2-.1.1 0q.1 0 .2.1l1 .2q.2 0 .4.1h.2c-.2 0 .4.1.4.1h-.1.1q.1 0 .3.1.2.1.5.2.1 0 .3.1c.2.1-.2-.1-.1 0-.2-.2-.1-.2 0-.1q0 .1.1.1c.4.4.8.6 1.4.5.6-.1 1-.9.8-1.4-.2-.6-.8-.9-1.4-.8zm-6.8 46.5h2.3c.7-.1 1.5-.2 2.2-.2.6 0 1.2-.5 1.2-1.2-.1-.6-.5-1.1-1.2-1.1s-1.5.2-2.2.2c-.7.1-1.5.1-2.3.1-.5 0-1.1.5-1.1 1.1.1.6.5 1.1 1.1 1.1z"/><path class="f" d="M42.1 21.7c-.7-.7-1.7-.3-2.4.2q-.4.2-.7.4-.5.3-.9.8c-.6.6-1.3 1.1-1.8 1.7-.6.7-1.2 1.4-1.6 2.2-.4.5-.2 1.2.4 1.5.5.3 1.1.1 1.5-.4q.3-.5.6-.9.1-.2.2-.3c.1-.2-.1.2 0 0q.2-.2.3-.4c.5-.6 1.1-1 1.7-1.6.2-.2.4-.4.7-.6q.1-.1-.1 0h.1l.2-.2q.1 0 .3-.1.2-.2.5-.4.1-.1.2-.1c.2-.1-.2 0-.1 0H41q-.2 0-.4-.1l-.1-.1c.4.4 1.2.4 1.6 0 .4-.5.4-1.1 0-1.6zm17.2 2.5c.1 0 .1.1.2 0 0 0-.2-.1-.1 0h.1l.2.2c.1.1-.2-.2-.1 0q.1 0 .2.1.2.2.3.4c.5.5 1 1 1.4 1.5.1 0 .1.1.1 0-.1-.1 0 0 0 0q0 .1.1.2.2.3.3.5c.2.4.4.8.7 1-.1-.1-.1-.1 0 0v.1q.1.1.1.2c.1.1 0-.2 0 0q.1.1.1.3.2.4.3.9.1.2.2.5c.1.1 0-.2 0-.1q0 .1.1.2 0 .3.1.6t.1.5q.1.3.2.5l.1.1c.1.2 0 .1 0-.3 0 .3.1.6.3.8.2.2.5.3.8.3.5 0 1.2-.5 1.1-1.1 0-.3-.1-.6-.3-.9 0 0-.1-.1 0 0 0 .2 0 .1 0 0q0-.1-.1-.3-.1-.7-.4-1.4 0-.1-.1-.2-.1-.3-.1-.6c-.2-.4-.3-.8-.5-1.2l-.2-.2c.1.1-.3-.3-.3-.4 0 0 .2.3 0 .1v-.1q-.1-.1-.2-.3-.3-.5-.7-1.1c-.5-.6-1-1.1-1.6-1.7-.6-.7-1.4-1.3-2.4-1.3-.6 0-1.1.5-1.1 1.1 0 .6.5 1.1 1.1 1.1zM45.7 48.6c2.2 0 4.4.2 6.6.2h3.5c.6 0 1.2-.5 1.1-1.1 0-.6-.5-1.1-1.1-1.1h-4.7l-3.8-.2h-1.6c-.6 0-1.1.5-1.1 1.1 0 .6.5 1.1 1.1 1.1z"/><path class="f" d="M40.3 21.2c-.8 0-1.5.3-2 .8q-.1.1-.2.1h.1l-.1.1-.6.4q-.4.3-.7.7-.3.3-.6.7l-.4.4q-.1.2 0 0v.1q-.1.1-.2.1-.4.4-.7.8c-.1.3-.2.6-.4.8-.3.5-.1 1.3.4 1.6.6.2 1.3.1 1.6-.4q.2-.4.3-.7.1-.1.1-.2l.1-.1-.1.1s.2-.2.3-.2q.1-.2.3-.3 0-.2.1-.3-.1.2 0 .1 0-.1.1-.2l.6-.6q.3-.4.6-.7.1 0 .1-.1c.2-.2-.2.1.1 0q.1-.1.3-.2.3-.2.5-.4c.1-.2-.2.1 0 0l.1-.1.2-.1q-.2.1-.1.1l.1-.1h.2-.2.1c.6 0 1.2-.5 1.2-1.1-.1-.6-.5-1.1-1.2-1.1z"/><path class="f" d="M40 20.7c-.4 0-.8.1-1.2.3q-.4.2-.7.4c-.5.3-1.1.7-1.5 1.2q-.1.1-.2.3l-.1.1c-.1.1.2-.2 0-.1q-.4.3-.8.7-.2.3-.4.5 0 .1-.1.2l-.1.1q.1 0 .1-.1s-.1.1-.1.2q-.1 0-.2.1l-.3.3c-.4.5-.5 1.2 0 1.6.4.4 1.2.5 1.6 0l.6-.6q.2-.2.3-.4.1-.1.1-.2c.2-.2 0 .1 0 0l.3-.3.1-.1c.1-.1-.2.1 0 0q.4-.2.7-.6.2-.3.5-.5l.1-.1.1-.1-.1.1c0-.1.3-.2.3-.3.3-.1.5-.2.7-.3q.2-.1.3-.2.2-.1-.1 0-.3.1-.1.1h.2c.6 0 1.1-.6 1.1-1.2s-.5-1.1-1.1-1.1zm20.8 3.6h.4q-.2 0 0 0-.2 0-.3-.2 0 .1.1.1l-.1-.1c.2.4.4.7.7.9q.5.4.8.8.1.1.2.1 0 .1.1.2l-.1-.1c.2.1.3.3.3.5l.2.2c.1.3-.1-.2 0 0q.1.4.3.7.1.3.3.5c0 .1.2.3 0 .1q.1.1 0 0 0-.2 0 0 .1.2.1.4v-.1.2q0 .4.1.8c0 .5.3.8.5 1.1v-1.1q0 .1-.1.1c-.3.5-.1 1.3.4 1.6.6.3 1.2.1 1.6-.4v-.2c.3-.3.2-.7 0-1.1l-.2-.4q-.1-.2 0 0l-.1-.1q.1.2.1.1t-.1-.2v-.8q-.1-.2 0 .1v-.2q-.1-.3-.1-.5c-.1-.3-.2-.4-.4-.7q-.1-.1-.1-.2-.1-.2 0 0-.1 0-.1-.1c-.2-.4-.3-.8-.6-1.2-.5-.7-1.1-1.3-1.7-1.8q-.1-.2.1 0-.1 0-.1-.1l-.2-.2q-.1-.3-.4-.5-.4-.4-1.1-.4h-.5c-.6 0-1.1.5-1.1 1.1 0 .6.5 1.1 1.1 1.1z"/><path class="f" d="M60.9 25c.5.5 1 1.1 1.5 1.7q.4.3.8.7.2.2.3.4l.2.2c.2.2-.1-.2.1 0q.3.5.5 1 .1.1.1.3.1.1 0-.1v.1q.2.3.3.6l.6 2.2c.2.6.8 1 1.4.8.6-.2.9-.8.8-1.4q-.3-1.1-.7-2.3c-.3-.8-.6-1.6-1.1-2.3-.5-.6-1.1-1.2-1.6-1.7-.6-.6-1.1-1.2-1.7-1.8-.4-.4-1.1-.4-1.5 0-.5.5-.5 1.2 0 1.6z"/><path class="f" d="M64 30.3q0 .5.1.9.1.3.1.7v-.3.3c0 .3.1.6.3.8l.4.2q.2.1.4.1c.3 0 .6-.1.8-.3q.3-.4.3-.8 0-.5-.1-1-.1-.3-.1-.6c0-.3-.1-.6-.3-.8q-.2-.2-.4-.2-.2-.1-.4-.1c-.3 0-.6.1-.8.3q-.3.3-.3.8z"/><path class="f" d="M67.4 32v-.5q-1 .3-2.1.6l.1.1q-.1-.2 0 0 0 .1.1.3.1.3.1.6.1.5.3 1.1.2.6.3 1.2c0 .2 0 .4.1.6 0 .2.1.4.2.6.2.5.7.9 1.2.8.6-.1 1-.5 1-1.1 0-.5-.2-1.1-.3-1.6q-.2-.8-.5-1.5-.1-.7-.4-1.4-.1-.4-.3-.8c-.2-.2-.3-.4-.4-.6-.2-.4-.8-.6-1.3-.5-.4.1-.8.6-.8 1.1 0 .6.2 1.3.3 2v.2l.1.1q0 .1-.1-.1c.1.1.1.3.1.4q0 .6.1 1.1c.1.3.2.5.3.8.1.3.1.6.2.8 0 .1 0 .2.1.3-.1-.1-.1-.3-.1-.1q.1.2.1.4v.4c.1.2 0-.2 0 0q.1.3.1.5c0 .6.5 1.2 1.1 1.1.6 0 1.1-.4 1.1-1.1 0-.3 0-.7-.1-1.1 0 .1 0 .2 0 0v-.2q0-.3-.1-.6l-.2-.8c-.1-.3-.2-.5-.3-.8v-.2c-.1-.2 0-.1 0 0 0-.1-.1-.3-.1-.4q0-.6-.1-1.1-.1-.5-.2-.9v-.2c0-.2 0 .2 0 0V31q-1.1.3-2.1.5l.3.6q.1.1.1.2c.1.2 0-.1 0 0q0 .1.1.1l.4 1.4q.2.7.4 1.3.1.4.2.7 0 .2.1.4s0 .2 0 0c-.1-.2 0 .1 0 .1q1.1-.1 2.2-.3c-.1-.2-.2-.4-.2-.6-.1-.2-.1-.4-.2-.6q-.1-.6-.3-1.3c-.2-.9-.3-1.7-.7-2.5-.2-.5-.9-.7-1.3-.5-.4.1-.8.5-.8 1v.5c0 .5.5 1.1 1.1 1.1.6 0 1.1-.5 1.1-1.1zM46.3 47.9q.5 0 1 .1h.8c.2.1-.3 0 0 0 .4.1.8.1 1.2.2h.5q.3.1.5.1h.5q-.2-.1-.1 0h.3c.3.1.5.1.7.1h.1q-.2-.1-.1 0h.3c.4.1.8.1 1.2.2h.2q.3 0 .6.1l-.8-.8.1.1c.1.6.8 1 1.3.8.6-.2 1-.8.8-1.4v-.1c-.1-.3-.4-.7-.8-.8q-.6-.1-1.3-.2h-.8q-.3-.2-.7-.2h-.2l-.1.1h.1c0-.1-.5-.1-.6-.1q-.3-.1-.6-.1h-.5.1-.1q-.3 0-.5-.1h-.5c-.3 0 .2.1-.1 0h-.2c-.7-.1-1.5-.2-2.3-.2-.6 0-1.2.5-1.1 1.1 0 .6.5 1.1 1.1 1.1zm-43 11.9h-.6v2.3h.2c.2 0-.3-.1 0 0h.3c.3.1.7.1 1 .1q.3-.1.6-.1H5h-.1q.4-.1.8-.1 1.7.1 3.3.1h1.7c.6 0 1.1 0 1.7-.1h.1q.2-.1-.1 0h.6q.4 0 .9-.1s.3-.1.4-.1c-.1.1-.3 0-.1 0h1q.6.1 1.2.1c.5 0 1.2-.1 1.6-.5.4-.4.4-1.2 0-1.6-.4-.4-1.2-.5-1.6 0-.1.1.2-.1.1-.1-.1.1.3-.1.2-.1l-.1.1s.3-.1.1-.1q-.2.1-.5 0h-1c-.6 0-1.1 0-1.7.1h-.1c-.3.1.2 0 0 0h-.3q-.5 0-.9.1c-.1 0-.4.1-.5 0h.1-2.6c-1.1 0-2.1.1-3.2 0q-.9 0-1.9.1L4 60q.2-.1.1-.1L4 60h-.2q-.1 0-.2-.1.1.1.2.1c-.1 0-.4-.1-.4-.1q-.4-.1-.7-.1c-.6 0-1.1.5-1.1 1.2 0 .6.5 1.1 1.1 1.1h.6c.6 0 1.1-.5 1.1-1.1 0-.7-.5-1.2-1.1-1.2z"/><path class="f" d="M1.9 61.9q-.1-.1-.1-.2-.1-.3-.1-.1 0 .1.1.1v.2q.2.6.5 1c.3.4.7.5 1.1.5.3.1.6 0 .9-.1 0-.1.4-.2.1-.1h.3q.2 0 .4-.1h.4c-.3 0 0 0 0 0h10.2c-.2-.1-.6-.4-.6-.7 0 .3.3.5.5.7.2.1.6.2.8.1.3-.1.6-.3.7-.5.2-.3.2-.6.1-.9 0-.4-.4-.7-.7-.8q-.4-.1-.7-.2-.5 0-.9.1H5c-.3.1.2 0-.1 0-.3 0-.7.1-1.1.1q-.1.1-.3.2h-.2.4c.1.1.2.1.3.2.2.2 0 .1 0 0q0-.1-.1-.2c-.1-.2.1.2 0 0 0-.3-.2-.7-.4-.9-.4-.4-1.2-.5-1.6 0-.4.4-.4 1.1 0 1.6zm91.6-1.3s-.3.1-.3 0c0 .1.3 0 .1 0h-.9c-.4 0-.9.1-1.3.1-.1-.1-.3 0-.4-.1.2.1.2.1.1 0h-.2q-.3-.1-.7-.2-.8-.1-1.6-.1h-2 .1q-.4-.1-.7-.2c-1-.1-2.1 0-3.1 0q-.4 0-.8-.1h-.4s.2.1 0 0H81c-.5-.1-1-.1-1.6-.1-.6.1-1.1.6-1.1 1.2s.5 1.1 1.1 1.1c.5 0 1-.1 1.4 0h.1c-.2-.1 0 0 .1 0q.2 0 .5.1h3.7s-.2 0 0 0h.1q.2.1.3.1.5.1 1 .1c.5.1 1 0 1.5 0h1q.1 0 .1.1c-.3-.1 0 0 .1 0l1.5.3h1.5c.6 0 1.2 0 1.8-.2.6-.2 1-.7.8-1.4-.2-.5-.8-1-1.4-.7z"/><path class="f" d="M82.4 60.4h-.3v2.2c.9 0 1.8-.1 2.7-.2q.1-.1.3-.1h.3q.2 0 .4-.1.6 0 1.2-.1.8-.1 1.5-.2.1 0 .3-.1h.1c-.2 0-.1 0 0 0h.6q1.2-.2 2.5-.2h1.3q.2-.1.5-.1h.1c-.3 0-.1 0 0 0 .3 0 .6 0 .8-.1q-.5-.9-1-1.9l-.2.2c-.5.4-.5 1.2 0 1.6.4.4 1.1.4 1.6 0q0-.1.1-.2c.4-.3.5-.9.2-1.3s-.8-.7-1.3-.5c-.1 0-.1-.1.1 0h-1c-.1.1.1.1.1 0 0 .1-.2.1-.3.1h-.8q-1.2 0-2.5.1l-1.4.2q-.3 0-.6.1h-.4q-1.3.2-2.6.3-.4.1-.7.1-.2.1-.4.1s-.1 0 0 0h-.1q-.7.1-1.4.1c-.6 0-1.1.5-1.1 1.1 0 .6.5 1.1 1.1 1.1h.3c.6 0 1.2-.5 1.1-1.1 0-.6-.5-1.1-1.1-1.1z"/><path class="f" d="M80.1 60.9h1.4c.5.1.9.1 1.4.1.9.1 1.9 0 2.8.1 1 0 1.9 0 2.8.1.1 0 .3.1.1 0-.1 0 0 0 0 0q.3.1.6.1.4.1.7.1h3.4c.1 0 .3-.1.3 0 0 0-.3-.1-.2-.1h-.1q-.3-.3-.2-.1c.4.4 1.2.4 1.6 0 .4-.5.4-1.1 0-1.6-.3-.4-.9-.5-1.4-.5q-.6.1-1.2 0c-1 0-1.9.1-2.9 0H89h.1q-.3-.1-.6-.1-.4-.1-.7-.1-.8 0-1.5-.1h-2.9q-.8 0-1.6-.1h-1.7c-.6 0-1.1.5-1.1 1.1 0 .6.5 1.1 1.1 1.1zm-9.4-25l-.1-.1q-.2-.2-.5-.3-.3-.1-.6 0t-.5.3q-.2.2-.3.5v.4q-.1 0 0 0v.5q.1.1.1.2.1.3.2.4.1.2.3.3.2.1.4.1.3.1.5 0 .1 0 .2-.1.3-.1.4-.4.1-.1.2-.3v-.6c-.1-.1-.1-.2-.1-.4v.5q-1 .2-1.9.5l.1.1q.1.1.3.2.2.1.5.1.2 0 .4-.1l.4-.2q.1-.1.1-.3.2-.2.2-.5v-.3q-.1-.3-.3-.5z"/></svg>