<svg width="100" height="100" viewBox="0 0 100 100" fill="none" xmlns="http://www.w3.org/2000/svg"><g clip-path="url(#clip0_35_36683)"><path d="M55.538 88.18l-36-55.795 16.924-21.436 42.974-1.231 9.23 20.41L55.54 88.18z" fill="#33BFA6" stroke="#33BFA6" stroke-width=".8" stroke-miterlimit="10"/><path d="M27.744 14.333c-.82 0-1.334.513-1.95 1.026a75.354 75.354 0 01-2.256 2.359c-1.64 1.538-3.076 3.282-4.512 5.026-2.462 3.282-4.41 7.179-7.693 9.743-.718.41-.718 1.539.206 1.846 1.948.513 4 .103 6.05.103 2.394 0 4.787.034 7.18.102 4.82.206 9.641.41 14.564.206 5.026-.206 9.949-.616 14.872-.718 4.923-.103 9.949 0 14.872 0 2.77 0 5.538-.103 8.308 0 2.359.102 4.718.82 7.076.307.513-.102.821-.718.616-1.23-.82-2.975-3.282-5.026-4.308-7.898a62.671 62.671 0 00-1.846-4.513c-.41-.82-.786-1.64-1.128-2.461-.308-.718-.615-1.334-.513-2.052-.41.206-.82.445-1.23.718.615.206 1.025 2.257 1.23 2.872.615 1.641 1.026 3.385 1.538 5.026a28.141 28.141 0 001.847 4.718c.307.615.615 1.23 1.025 1.846.513.513 1.026 1.128 1.231 1.743.068-.273.137-.58.205-.923a.91.91 0 01.41-.102c-1.23-.41-1.743 1.538-.512 1.949.615.205 1.128.068 1.538-.41.308-.308.41-.616.308-1.026-.513-1.436-1.744-2.564-2.36-3.898-.922-1.948-1.538-3.897-2.153-5.846l-1.538-4.923c-.41-1.23-.924-2.461-2.154-2.974-.513-.206-1.129.205-1.231.718-.41 1.64.308 2.769.923 4.307.82 1.641 1.538 3.385 2.256 5.128.513 1.642 1.231 2.975 2.257 4.41.82 1.232 1.846 2.565 2.359 4.103l.615-1.23c-1.949.41-4.205-.206-6.256-.308-2.36-.205-4.718-.103-7.18-.103-4.82.103-9.743 0-14.564 0-9.743.103-19.282 1.334-29.025.718a95.164 95.164 0 00-7.693-.307h-3.59c-1.128.102-2.358.307-3.487 0 .069.615.171 1.23.308 1.846 2.974-2.36 4.923-5.641 7.077-8.616 1.23-1.743 2.564-3.487 4.102-5.025a23.408 23.408 0 012.257-2.257 16.87 16.87 0 001.025-1.128c.103-.102.718-.82.924-.82 1.333 0 1.333-1.95 0-2.052z" fill="#fff"/><path d="M26.718 13.615l-.103-.102a17.101 17.101 0 00-.718 1.64c8.513.206 17.129.206 25.642 0a267.4 267.4 0 0112.82-.307h9.436c.718 0 1.538-.205 2.256 0A17.372 17.372 0 0175.744 13c-.513.308-1.026.205-1.436.615-.41.41-.513 1.026-.41 1.539.307 1.026 1.23 1.743 1.846 2.461.068-.478.136-.991.205-1.538.513-.308 1.025.205.513-.308-.206-.205-.342-.376-.41-.513-.103-.102-.308-.615-.308-.718.205.206-.616.41-.616.308 0 .103.513 1.128.513 1.23.205.514.308.924.718 1.334.718.718 1.949 0 1.641-1.025a9.406 9.406 0 00-.923-2.36c-.513-1.025-2.154-.307-1.846.821.513 2.051 1.23 4.103 1.846 6.154.615 1.949 1.436 3.795 2.154 5.641.615 1.744.615 3.59 1.333 5.333.616 1.539 1.539 2.052 3.077 2.462A12.034 12.034 0 0083.128 33c0-.068.034-.103.103-.103.41 0 .82.035 1.23.103l.103.102c-.41-1.23-2.359-.615-1.949.513.103.308.206.616.41.82.308.309.821.309 1.231.206.308-.205.41-.41.616-.615.205-.616 0-1.334-.616-1.539-.615-.102-1.128-.205-1.538-.615-.41-.616-.513-1.436-.615-2.154-.308-1.744-.718-3.282-1.436-4.923-1.334-3.385-2.564-6.975-3.487-10.564l-1.847.82c.308.616.616 1.231.718 1.846a14.049 14.049 0 001.744-.923c-.103-.102-.308-.718-.41-1.025-.206-.513-.308-1.026-.718-1.436-.718-.923-2.052-.82-2.77.205-.923 1.333 1.334 5.026 3.077 4.102.616-.307.616-1.128.206-1.64-.308-.308-.821-.719-1.129-1.129l-.205-.41c-.342.41-.342.547 0 .41.308.103.718-.102.923-.307.923-.308.513-1.539-.205-1.847-1.128-.41-2.461-.102-3.692-.102h-5.026c-3.385 0-6.77 0-10.154.102-6.7.205-13.436.308-20.205.308-3.897 0-7.692.103-11.59 0-1.025-.103-1.23 1.026-.717 1.641.205.41.615.513 1.025.718 1.128.41 1.641-1.538.513-1.949z" fill="#fff"/><path d="M25.692 13.616h-.718c-.341 0-.683.034-1.025.102-.137 0-.274.068-.41.205a1.19 1.19 0 00-.308.205c.068-.068.136-.102.205-.102h.41c.069 0 .137.034.205.102.069.069.137.103.205.103.069.068.103.137.103.205v-.103c0 .069.034.137.102.206 0-.069-.034-.137-.102-.206.068.137.102.24.102.308v-.102c0-.137-.034-.24-.102-.308a1.194 1.194 0 00-.205-.308 1.108 1.108 0 00-.718-.307c-.308 0-.513.102-.718.307-.205.103-.308.41-.308.616 0 .41.103.82.41 1.128.308.308.718.41 1.129.308a3.97 3.97 0 00.512-.206l.206-.205c-.069 0-.137.034-.206.103.41-.103.821-.103 1.231-.103.205 0 .513-.102.718-.307.103-.103.308-.41.308-.718 0-.206-.103-.513-.308-.616a1.108 1.108 0 00-.718-.307zm57.744 18.871c-1.026 1.846-2.257 3.692-3.385 5.539-1.128 1.743-2.051 3.692-3.077 5.64a251.267 251.267 0 01-5.64 11.385c-1.847 3.693-3.898 7.385-6.257 10.77-2.256 3.487-5.23 6.564-7.59 10.05-1.333 1.95-2.461 4-3.692 6.052-.513.923-.923 1.436-1.846 1.949-.718.513-1.026 1.436-1.846 1.846l1.435 1.23c.616-1.743 1.95-3.076 3.18-4.41a77.48 77.48 0 003.795-4.307c2.666-3.077 5.23-6.36 7.282-10.051 1.949-3.488 4.205-6.872 6.051-10.565.923-1.846 1.641-3.692 2.667-5.436 1.025-1.846 2.154-3.692 3.077-5.538 1.128-2.051 2.359-4.102 3.487-6.154a19.24 19.24 0 001.23-3.077c.206-.512.308-1.128.719-1.64.205-.514.513-.821.615-1.334.205-.513-.205-1.026-.615-1.23-.923-.309-1.641.204-1.95 1.025-.307 1.23 1.642 1.846 1.95.513l-.616.41a11.48 11.48 0 00-.718-1.23c-.102.41-.41.717-.615 1.025-.205.41-.41.82-.513 1.23a17.99 17.99 0 01-1.23 3.283 247.114 247.114 0 00-3.078 5.333 74.655 74.655 0 01-3.076 5.538c-1.026 1.744-1.744 3.59-2.667 5.436-1.744 3.693-4.103 7.077-6.052 10.667-2.05 3.692-4.615 6.974-7.282 10.256l-4.307 4.923c-1.334 1.436-2.564 2.872-3.282 4.718-.308.924.82 1.539 1.538 1.129.82-.41 1.128-1.026 1.744-1.641.513-.616 1.23-.82 1.743-1.436 1.231-1.436 2.154-3.385 3.18-5.026 2.154-3.795 5.128-6.872 7.59-10.462 5.025-6.871 8.718-14.666 12.41-22.256a143.538 143.538 0 013.487-6.872c1.23-2.154 2.667-4.102 3.898-6.256.717-1.128-1.026-2.154-1.744-1.026z" fill="#fff"/><path d="M11.333 35.257c1.334 1.538 2.257 3.282 3.487 4.923a286.263 286.263 0 004.206 5.333 244.357 244.357 0 017.897 10.872c2.564 3.692 5.128 7.384 7.898 10.974 2.666 3.487 5.025 6.974 7.487 10.564a57.411 57.411 0 004.205 5.641c1.436 1.744 2.666 3.693 4.308 5.334.615.718 1.948 0 1.64-.923-.41-1.436-1.333-2.565-2.256-3.693-.923-1.333-1.949-2.666-2.974-4-2.462-2.872-4.923-5.743-7.282-8.82-4.82-6.257-9.641-12.513-14.77-18.565-2.871-3.487-5.743-6.871-8.615-10.461-.718-1.026-2.154.41-1.333 1.436 4.718 6.051 9.743 11.795 14.564 17.743 4.82 5.95 9.23 12.308 14.256 18.052 1.334 1.64 2.667 3.18 3.898 4.923.82 1.23 2.154 2.461 2.564 3.897a39.319 39.319 0 011.743-1.025c-1.435-1.436-2.461-3.077-3.794-4.616a72.255 72.255 0 01-3.898-5.128c-2.461-3.59-4.82-7.18-7.487-10.667-5.436-7.077-10.256-14.666-15.795-21.743a321.728 321.728 0 00-4.41-5.744c-1.436-1.846-2.564-4-4.103-5.743-.82-1.026-2.256.41-1.436 1.436z" fill="#fff"/><path d="M12.667 33.923a2.5 2.5 0 00-1.231 0c-.616.205-.82.718-.718 1.23.205 1.334 1.23 2.36 1.949 3.283.923 1.128 1.538 2.359 2.461 3.385l1.231-1.642c-1.026-.512-1.744-1.743-2.359-2.666-.513-1.026-.718-2.36-1.641-3.18-.82-.718-2.154.206-1.539 1.231 1.436 2.667 3.077 5.23 4.821 7.692.615.718 1.949.513 1.949-.512 0-1.539-1.231-2.872-2.257-3.898-.41-.513-.82-.923-1.23-1.436-.616-.718-1.231-1.333-1.642-2.154-.546.342-1.128.684-1.743 1.026 1.128 1.641 2.154 3.282 3.18 4.923.82 1.23 2.153 2.36 2.564 3.795l1.23-1.23c-.307-.103-.41-.103-.512-.514-.206-.307-.308-.718-.513-1.128-.41-1.025-1.026-1.949-1.641-2.974a70.108 70.108 0 00-1.744-3.077 11.47 11.47 0 00-.718-1.23c-.308-.411-.513-.821-.513-1.232-.615.206-1.196.445-1.743.718.923 1.026 1.333 2.462 1.948 3.693.205.512.924.615 1.334.41.513-.308.615-.923.41-1.436-.718-1.436-1.23-2.872-2.256-4.102-.616-.719-1.744-.103-1.744.717 0 1.231.718 2.154 1.333 3.18a37.352 37.352 0 012.052 3.59c.615 1.025 1.23 2.05 1.743 3.18.308 1.025.82 1.948 2.052 2.153.717.102 1.435-.41 1.23-1.23-.513-1.642-1.743-2.77-2.666-4.103-1.129-1.641-2.154-3.487-3.283-5.129-.717-1.128-2.256-.205-1.743 1.026.41.82 1.026 1.539 1.641 2.154l1.23 1.436c.719.718 1.95 1.949 1.95 2.872.615-.206 1.23-.376 1.846-.513-1.744-2.462-3.385-5.026-4.82-7.693l-1.642 1.231c.41.308.616.923.82 1.436.206.616.48 1.197.821 1.744.616 1.128 1.539 2.461 2.77 2.974 1.025.513 2.05-.615 1.23-1.538-.82-.923-1.436-2.154-2.256-3.077-.616-.82-1.436-1.641-1.641-2.667-.206.41-.445.82-.718 1.23h.205c.513.103 1.026-.102 1.23-.717.103-.513-.204-1.128-.717-1.23zm58.974-18.564s-.41.513-.513.615c-.342.479-.684.923-1.025 1.334a73.614 73.614 0 01-2.154 2.666c-1.641 1.846-3.282 3.59-4.923 5.334-1.539 1.743-3.18 3.384-4.923 4.82a8.679 8.679 0 00-1.539 1.23 7.699 7.699 0 00-.82.719c-.137.068-.24.137-.308.205-.308.205-.308 0-.103.103.274.205.513.444.718.718-.307-1.539-1.025-2.872-1.64-4.206a60.371 60.371 0 00-2.052-4.512c-1.333-2.667-2.564-5.334-3.795-8.103-.308-.82-.718-1.846-1.743-2.154-1.231-.41-1.847.82-2.462 1.744-1.538 2.666-2.872 5.538-4.41 8.205-.82 1.538-1.949 3.077-2.77 4.615a30.49 30.49 0 00-1.128 2.052 3.222 3.222 0 00-.41 1.025c0 .308.103.82 0 1.026.342-.137.718-.308 1.128-.513-1.64-.513-2.666-2.154-3.897-3.18-1.641-1.435-3.385-2.666-4.718-4.307-1.436-1.641-1.846-3.59-2.77-5.436-.307-.82-.922-1.539-1.23-2.462-.308-.718-.718-1.23-1.436-1.436-.923-.41-1.436.718-1.128 1.436 1.64 3.282 3.897 6.257 6.359 9.129 1.128 1.23 2.359 2.564 3.384 3.897.41.718.82 1.436 1.334 2.154.41.41 1.025.718 1.333 1.333.41-.478.786-.957 1.128-1.436-1.333-.615-2.256-2.564-3.18-3.795-1.23-1.64-2.46-3.384-3.486-5.128-1.026-1.743-1.95-3.59-2.872-5.436-.82-1.436-1.539-2.974-3.487-2.461-.308.102-.718.41-.718.718-.206 1.436.82 2.564 1.743 3.59l4 4.307c1.436 1.641 2.77 3.487 4.103 5.23.478.616.957 1.163 1.436 1.642.205.273.41.513.615.718.103.102.103.308.205.308.308.205 0 .41.205-.103l1.641-.205c-1.538-1.334-2.769-3.077-4.102-4.616-1.128-1.333-3.077-2.256-3.795-3.897-.547.41-1.06.82-1.539 1.23 2.462 2.668 4.616 5.642 6.462 8.821.513 1.026 2.154.308 1.846-.718-.513-1.23-1.128-2.154-1.949-3.18-.718-.82-1.333-1.743-2.256-2.46-.615-.41-1.641.204-1.538.922.102 1.436 1.128 2.36 2.153 3.385 1.026 1.128 2.154 2.051 3.385 2.872.41.205.923.205 1.23-.103a4.08 4.08 0 00.514-.615c.923-.923-.513-2.36-1.334-1.436l-.615.615 1.23-.205c-.922-.615-1.743-1.23-2.563-2.051-.342-.41-.684-.786-1.026-1.128-.308-.41-.923-.82-1.026-1.334l-1.436.82c.616.514 1.129 1.232 1.641 1.95.616.718 1.231 1.538 1.641 2.461l1.847-.82c-1.95-3.282-4.206-6.462-6.77-9.231-.923-.923-2.051.205-1.64 1.23.82 1.744 2.666 2.667 3.897 4 1.538 1.642 2.666 3.488 4.307 4.924.41.513 1.231.41 1.539-.205.718-1.231-.513-2.462-1.333-3.282-1.231-1.436-2.257-2.975-3.488-4.41-1.333-1.847-2.974-3.385-4.41-5.026-.615-.616-1.128-1.334-1.64-1.846-.309-.308-1.334-1.334-1.232-1.642l-.718.718c.616-.205.924 1.129 1.231 1.539.513.923 1.026 1.846 1.436 2.77a28.597 28.597 0 002.974 5.025c1.026 1.538 2.052 2.872 3.077 4.308.923 1.333 1.846 2.564 3.282 3.179.923.308 1.539-.82 1.129-1.538-.308-.616-.82-.924-1.334-1.436-.513-.513-.923-1.334-1.333-2.052-1.026-1.333-2.154-2.564-3.282-3.794-2.462-2.872-4.718-5.847-6.462-9.231a20.7 20.7 0 00-1.128 1.436c-.308-.103-.102 0 0 .205 0 .102.103.307.205.512.137.342.308.684.513 1.026.513.923.923 1.846 1.333 2.872.718 1.949 1.744 3.692 3.282 5.23 1.436 1.437 3.18 2.565 4.616 4 1.23 1.232 2.256 2.565 4 3.078.41.205.923 0 1.23-.41.308-.718.103-1.334.41-2.052.309-.718.719-1.333 1.13-2.051.82-1.539 1.948-3.077 2.768-4.616.82-1.435 1.539-2.974 2.36-4.512l1.435-2.462c.137-.342.308-.65.513-.923.103-.308.513-.718.615-1.026.206-.341.069-.376-.41-.102.069.137.137.24.205.307.103.206.205.41.308.513.308.718.615 1.334.923 2.052.718 1.538 1.23 3.076 2.051 4.615.82 1.744 1.744 3.385 2.462 5.128.718 1.641 1.538 3.18 1.949 4.923.102.308.41.616.718.718 1.435.41 2.871-1.333 3.794-2.154 1.846-1.64 3.795-3.18 5.436-5.025C66 25.102 67.846 23.05 69.692 21a50.05 50.05 0 002.36-2.974c.717-.821 1.538-1.539 1.64-2.667.205-1.334-1.846-1.334-2.051 0z" fill="#fff"/><path d="M46.615 14.949c0-.718-.205-1.334-.512-1.949-.513-.923-1.847-.41-1.95.513 0 1.846.924 3.59 1.744 5.23.924 1.95 1.847 3.898 2.872 5.847 1.128 1.846 2.462 3.59 3.795 5.333 1.23 1.641 1.949 3.59 3.18 5.23.615.719 1.743.103 1.743-.717 0-1.641-1.23-2.667-2.051-4a8.392 8.392 0 01-1.026-2.462c-.205-.82-.307-1.538-.82-2.256-.718-1.026-2.462 0-1.744 1.026.41.615.513 1.23.616 1.846.205.82.512 1.538.82 2.256.615 1.026 2.154 2.36 2.154 3.59a31.82 31.82 0 011.743-.718c-.615-.718-.923-1.641-1.333-2.359a21.536 21.536 0 00-1.538-2.462c-1.231-1.64-2.564-3.282-3.59-5.025-1.026-1.744-1.846-3.487-2.667-5.334-.718-1.64-1.948-3.179-1.846-5.025a18.58 18.58 0 01-1.846.513c.102.307.205.615.205.923.103 1.333 2.154 1.333 2.051 0z" fill="#fff"/><path d="M55.538 35.154a1.27 1.27 0 01-.307-.205v.205c.102.41.102.923 0 1.333 0 1.026-.205 2.154-.41 3.18-.41 1.948-1.026 3.897-1.436 5.846-.308 1.743-.513 3.487-.718 5.23a219.629 219.629 0 01-1.129 6.565c-.717 4.513-1.23 9.128-1.743 13.64a318.207 318.207 0 01-.923 8l-.616 3.693c-.307 1.026-.615 2.154-.615 3.18.684-.069 1.333-.137 1.949-.206-.103-.718-.513-1.333-.82-1.948-.719-1.129-2.462-.103-1.744 1.025.307.513.512.923.615 1.436.308 1.128 1.949.82 2.051-.308 0-1.025.308-1.948.513-2.974.308-1.23.513-2.461.616-3.692.341-2.325.65-4.65.923-6.975.512-4.923 1.025-9.846 1.846-14.769.41-2.393.786-4.82 1.128-7.282.205-1.436.41-2.872.718-4.41.513-2.154 1.128-4.308 1.436-6.564.307-1.436 1.333-5.334-.82-5.949-1.231-.41-1.847 1.538-.514 1.949z" fill="#fff"/><path d="M35.641 36.282c.205-.82.103-1.743-.513-2.359-.718-.615-2.051 0-1.743 1.026 1.23 3.077 2.974 6.051 4.512 9.026 1.539 3.179 3.077 6.358 4.308 9.743 2.36 6.667 4.205 13.641 5.846 20.513.513 1.949.923 3.795 1.231 5.744.205 1.538.513 3.384.308 5.025a16.21 16.21 0 011.948-.513c-1.333-3.18-1.948-6.564-2.769-9.846-.923-3.385-2.154-6.77-3.077-10.256-.82-3.487-1.436-6.975-2.359-10.462a87.29 87.29 0 00-3.077-10.051c-.718-1.744-1.743-3.487-2.153-5.333-.513-1.744-.616-3.385-1.539-4.924-.308-.512-1.128-.615-1.538-.205-1.231 1.231-.513 2.77-.206 4.206.41 1.743.924 3.487 1.436 5.23 1.129 3.59 2.462 7.18 3.795 10.872 1.334 3.487 2.564 7.077 3.487 10.667 1.026 3.59 1.847 7.282 2.975 10.871.547 2.052 1.06 4.103 1.538 6.154.41 1.641.718 3.385 1.641 4.923.616 1.129 2.052.308 1.846-.718a2.494 2.494 0 00-.512-1.23c-.82-1.026-2.565 0-1.744 1.025.205.308.205.41.308.718.615-.273 1.23-.513 1.846-.718-.718-1.333-1.026-2.769-1.333-4.205-.41-1.64-.855-3.316-1.334-5.025-.82-3.385-1.846-6.667-2.666-10.052-1.744-6.974-4.41-13.538-6.77-20.307a172.511 172.511 0 01-1.743-5.539 44.045 44.045 0 01-.718-2.872 8.136 8.136 0 00-.308-1.23c0-.308-.41-1.026-.102-1.334l-1.642-.205c.821 1.334.924 2.872 1.334 4.41.41 1.641 1.23 3.18 1.846 4.718 1.333 3.18 2.359 6.667 3.18 9.95.923 3.486 1.538 6.973 2.358 10.46.821 3.488 2.154 6.872 3.077 10.36 1.026 3.692 1.641 7.384 3.18 10.974.41 1.026 1.743.308 1.846-.513.205-1.333-.102-2.872-.205-4.205-.205-1.641-.615-3.385-.923-5.026a292.66 292.66 0 00-2.667-10.461c-1.846-6.975-4-13.744-7.18-20.205-1.743-3.488-3.897-6.975-5.333-10.667a19.83 19.83 0 00-1.64.923c.102.103 0 .308 0 .41-.206 1.231 1.743 1.846 1.948.513zm21.231 2.667c1.333 0 1.333-2.051 0-2.051-1.231 0-1.231 2.05 0 2.05z" fill="#fff"/><path d="M58.308 34.846v-.513c0-1.333-2.052-1.333-2.052 0 0 2.052 0 4.103-.205 6.154s-.615 4-.923 5.949a315.618 315.618 0 01-2.256 11.59c-.718 3.794-1.334 7.487-1.641 11.282-.103 1.846-.205 3.794-.718 5.64-.616 1.847-1.334 3.693-1.436 5.642h2.051v-1.026a3.573 3.573 0 01-.718.718h.308c1.333-.308.82-2.256-.513-1.949h-.308a1.24 1.24 0 00-.718.718c-.102.513-.102 1.026-.102 1.539.102 1.333 2.051 1.333 2.051 0 0-2.052 1.026-3.898 1.436-5.847.513-1.743.615-3.59.718-5.435.205-3.898.923-7.693 1.744-11.488.752-3.829 1.47-7.692 2.153-11.59.308-1.948.718-3.794.924-5.743.205-2.051.205-4.102.205-6.154h-2.052v.513c0 1.333 2.052 1.333 2.052 0zM48.77 88.282v-.205c.136-.137.273-.24.41-.308.068-.068.136-.102.205-.102l1.025 1.025c0-.102 0-.102.103-.307a1.26 1.26 0 01.308-.513 9.33 9.33 0 01.718-1.026c.615-.923 1.333-1.743 2.05-2.564.616-.82 1.232-1.744 2.052-2.462.82-.82 1.538-1.743 2.359-2.564.82-.923-.513-2.359-1.436-1.436-.82.924-1.64 1.847-2.461 2.667-.924.82-1.539 1.846-2.36 2.77-.717.922-1.538 1.743-2.153 2.769-.513.82-1.231 1.64-1.129 2.666 0 .513.41.923.924 1.026.82 0 1.436-.615 1.333-1.436 0-1.23-2.051-1.23-1.949 0z" fill="#fff"/><path d="M48.359 87.974v.205c-.103 1.026 1.436 1.436 1.846.513 1.846-3.692 4.513-6.872 7.487-9.846 1.334-1.436 2.77-2.77 3.898-4.308.615-.82 1.025-1.538 1.333-2.461.205-.718.923-1.128 1.026-1.846l-.718.718c.136-.069.24-.103.307-.103 1.231-.308.718-2.256-.512-1.949-.137 0-.24.034-.308.103-.308.103-.615.308-.718.718 0 .307-.308.41-.513.718-.205.307-.308.615-.513.923-.307.923-.718 1.64-1.333 2.461-1.23 1.539-2.77 2.872-4.102 4.308-2.77 2.872-5.334 5.949-7.078 9.539a16.23 16.23 0 001.95.512v-.205c.102-1.333-1.95-1.333-2.052 0z" fill="#fff"/><path d="M50.513 72.487c.513.616.41 1.744.41 2.564a30.385 30.385 0 01-.41 3.385l-.41 3.282-.308 1.538c-.205.513-.308.924-.308 1.436.103 1.129 1.744 1.539 1.949.308.102-.718.41-1.333.41-1.949.103-.82 0-1.538 0-2.359 0-1.435.513-2.769.718-4.102.308-1.334-1.64-1.846-1.949-.616-.205 1.436-.718 2.77-.718 4.206-.102.717 0 1.538 0 2.256 0 .718-.307 1.333-.41 2.051l2.051.205c-.102-.41.206-.82.308-1.333.103-.615.205-1.23.205-1.846.205-1.23.41-2.564.616-3.795.307-2.256.82-4.82-.718-6.667-.308-.41-1.026-.307-1.436 0-.41.41-.308 1.026 0 1.436z" fill="#fff"/><path d="M80.564 34.641c-3.487 7.18-6.77 14.462-11.077 21.23-2.154 3.385-4.41 6.565-6.666 9.847-1.129 1.641-2.154 3.282-3.282 5.026-1.026 1.436-2.154 2.974-2.975 4.512-1.026 1.847-2.359 3.385-3.385 5.129-1.025 1.846-1.948 3.692-2.461 5.64-.308.821.718 1.744 1.436 1.129.137-.137.307-.24.513-.308 1.025-.82 0-2.564-1.026-1.743-.137.068-.308.17-.513.307.479.41.992.787 1.539 1.129.41-1.744 1.23-3.385 2.154-4.924.82-1.538 2.05-2.871 2.974-4.41 1.846-3.282 4-6.359 6.154-9.538 2.154-3.18 4.41-6.36 6.564-9.641 2.154-3.282 4-6.77 5.846-10.257 2.051-4 4-8.102 5.949-12.102.615-1.129-1.129-2.154-1.744-1.026z" fill="#fff"/></g><defs><clipPath id="clip0_35_36683"><path fill="#fff" transform="translate(10 9)" d="M0 0h80v81.026H0z"/></clipPath></defs></svg>