<svg width="100" height="100" viewBox="0 0 100 100" fill="none" xmlns="http://www.w3.org/2000/svg"><g clip-path="url(#clip0_35_36644)"><path d="M17.101 25.011l9.169 55.191 58.517.54 4.044-54.113-20.853 19.146-14.742-24.09-12.225 23.012-23.91-19.686z" fill="#33BFA6" stroke="#33BFA6" stroke-width=".8" stroke-miterlimit="10"/><path d="M19.798 76.517c-.45-7.101-.81-14.113-1.798-21.124-.989-7.011-2.247-14.022-3.506-21.034-.36-1.917-.719-3.865-1.078-5.842-.18-.989-.36-1.978-.63-3.056-.09-.81-.539-1.528-.629-2.337-.36.3-.719.569-1.078.809.36.18.898.808 1.168 1.078.48.36.989.72 1.528 1.079l3.416 2.517c2.427 1.707 4.854 3.326 7.28 5.123a91.604 91.604 0 016.832 5.214c.99.809 1.978 1.708 3.057 2.427.539.36 1.168.629 1.528 1.078.36.45.539.81 1.168.9 1.079.269 1.528-1.439.45-1.709-.09 0-.36-.45-.45-.539-.24-.24-.48-.45-.719-.63-.45-.269-.989-.538-1.438-.898-1.169-.81-2.157-1.708-3.236-2.607-2.157-1.888-4.494-3.505-6.832-5.213-2.337-1.618-4.764-3.326-7.19-4.944l-3.416-2.517c-.48-.36-.96-.749-1.438-1.169-.36-.36-.72-.719-1.259-.898-.54-.09-1.168.27-1.079.898 0 .63.18 1.259.45 1.888.27.81.36 1.618.54 2.517.299 1.738.628 3.506.988 5.303.6 3.476 1.199 6.922 1.798 10.337 1.258 7.102 2.427 14.113 2.966 21.214.36 4.045.63 8.09.899 12.135.09 1.168 1.798 1.168 1.708 0z" fill="#fff"/><path d="M37.236 41.281c.18.6.39.809.63.63v-.18c.09 0 .179-.27.179-.36.12-.24.27-.45.45-.63.539-.988 1.078-1.977 1.617-2.876 1.259-2.337 2.607-4.584 3.955-6.831 1.259-2.157 2.697-4.225 3.956-6.292.629-.99 1.168-1.888 1.707-2.967.18-.45.54-1.707 1.079-1.887-.3-.12-.63-.24-.989-.36 1.169 1.888 2.068 3.865 3.146 5.753.99 2.067 2.248 3.955 3.416 5.843 1.079 1.887 2.067 3.865 3.236 5.753a30.064 30.064 0 001.798 2.966c.54.809.989 1.618 1.618 2.337.809.809 2.067-.45 1.258-1.259-.06-.06-.12-.15-.18-.27-.809-.808-1.977.45-1.258 1.26.06.06.12.149.18.269l1.258-1.259c-.63-.719-1.078-1.617-1.618-2.337a72.384 72.384 0 01-1.708-2.876c-1.078-1.888-2.157-3.865-3.236-5.753a67.416 67.416 0 01-3.236-5.483c-1.078-1.978-1.977-3.955-3.146-5.843-.18-.36-.539-.539-.989-.36-.988.18-1.438 1.08-1.887 1.978a35.6 35.6 0 01-1.798 3.326c-1.528 2.607-3.236 5.124-4.854 7.73-1.618 2.787-3.146 5.573-4.764 8.36-.629.989-1.887 3.146.18 3.416 1.169.18 1.169-1.618 0-1.798z" fill="#fff"/><path d="M63.393 41.82c2.068-.809 3.686-2.247 5.483-3.505L74.54 34l5.573-4.135c.9-.629 1.798-1.258 2.697-1.797.42-.24.839-.51 1.258-.81.36-.36.72-.719 1.259-.898-.36-.18-.72-.39-1.079-.63.27 1.618.09 3.326 0 4.944a76.127 76.127 0 01-.36 5.214c-.359 3.326-.808 6.741-.988 10.157-.18 3.416-.45 6.742-.899 10.157-.45 3.236-.54 6.562-.63 9.888 0 1.888-.09 3.775-.359 5.663-.18.719-.36 1.528-.45 2.337 0 .45-.09.809-.179 1.258-.09.36 0 .81-.09 1.169l.63-.63a.69.69 0 01-.27.09c-1.079.18-.63 1.888.45 1.709.06 0 .149-.03.269-.09.27 0 .54-.27.629-.54.09-.45 0-.719 0-1.168l.27-.81c.18-.808.18-1.617.36-2.426a60.84 60.84 0 00.538-4.764c.09-3.416.09-6.832.45-10.248.36-3.415.809-6.92.989-10.426.18-3.416.54-6.832.899-10.337.18-1.978.45-3.956.539-6.023 0-1.798.18-3.775-.09-5.573-.09-.45-.63-.72-1.079-.63-.898.27-1.528.99-2.337 1.439-.809.63-1.797 1.169-2.696 1.798-1.888 1.258-3.776 2.786-5.663 4.224-1.888 1.349-3.686 2.787-5.573 4.135-1.708 1.349-3.596 3.056-5.663 3.955-.989.36-.54 2.068.45 1.618z" fill="#fff"/><path d="M21.056 77.416c1.978 0 3.955.18 5.843.27 2.067 0 4.045-.09 6.112-.18 3.955-.09 7.91 0 11.865-.18 3.866-.27 7.73-.54 11.686-.54 1.887.09 3.775-.27 5.663-.27.899 0 1.797.09 2.696.18.99.09 1.978.09 2.967.09 2.157.09 4.224.54 6.382.63 1.078 0 2.157-.09 3.236.09.988.18 1.977.18 2.966.18 1.168 0 1.168-1.709 0-1.709-1.888-.09-3.865-.18-5.753.09-1.977.27-3.865.45-5.932.45-.9 0-1.888 0-2.787-.09-.899-.18-1.798-.27-2.697-.18-1.977.09-3.955 0-5.842 0H44.966c-1.977 0-4.045.09-6.112 0-1.888 0-3.775-.36-5.573-.54-1.079-.179-2.157-.179-3.146-.359-.989-.27-1.978-.45-3.056-.539-2.158-.27-4.585-.09-6.832-.09-1.078 0-1.078 1.798 0 1.798 2.068 0 4.225-.09 6.292 0 1.798 0 3.506.719 5.304.899 1.887.09 3.685.36 5.483.54 1.977.269 4.045.089 6.112.089 4.135-.09 8.27 0 12.405 0h5.932c.9 0 1.888-.18 2.787-.09s1.797.27 2.786.36c2.158.09 4.405.09 6.472-.27 2.247-.36 4.405-.36 6.652-.36v-1.707c-.899 0-1.798 0-2.697-.18-.809-.09-1.618-.18-2.517-.18-1.977 0-3.865-.36-5.842-.54-1.888-.09-3.776-.09-5.663-.269-1.978-.18-3.865.18-5.843.27-1.977 0-3.865-.09-5.843 0-1.887.09-3.865.18-5.842.36-3.866.269-7.82.269-11.686.269-2.157.09-4.404.27-6.562.18-2.337 0-4.584-.18-6.92-.27-1.17 0-1.17 1.798 0 1.798z" fill="#fff"/><path d="M84.876 26.63a2 2 0 01.27-.63h-1.528c.27.45.18 1.169.09 1.708v2.517c-.09 1.618-.27 3.325-.27 5.033-.18 3.416-.18 6.922-.27 10.337-.09 6.832-.539 13.574-.629 20.405 0 1.888 0 3.685-.18 5.573-.09.899-.359 1.798-.359 2.607v1.888c-.06.299.06.329.36.09.3-.06.39-.15.27-.27-.18-1.08-1.888-1.08-1.798 0 .18 1.078 1.348 2.606 2.516 1.618.45-.45.45-.99.45-1.618-.09-.99 0-1.978.09-2.967.629-3.865.45-7.73.539-11.595.09-4.045.27-8 .45-12.045s.18-8.09.27-12.135c0-2.157.179-4.404.269-6.652.09-.988.09-1.977.09-3.056.09-.809 0-1.618-.36-2.337-.27-.63-1.258-.63-1.528 0-.18.3-.33.66-.45 1.079-.359 1.078 1.349 1.528 1.708.45z" fill="#fff"/><path d="M84.337 24.652c-.09.18-.809.45-.989.539-.45.36-.899.72-1.348.989l-3.236 2.157c-2.157 1.528-4.315 3.146-6.562 4.674-.989.63-1.977 1.438-2.876 2.247-.989.72-2.068 1.259-3.056 1.978-.99.63-1.888 1.528-2.877 2.157-.36.36-.719.63-1.258.9-.45.179-.81.359-.989.808-.27.63 0 1.438.72 1.348.718 0 1.078-.449 1.078-1.168.09-1.079-1.708-1.079-1.798 0 .06-.06.09-.12.09-.18.24-.12.48-.27.72-.45h-.09c.239.48.508.93.808 1.349 0-.09.27-.18.45-.18.27-.18.449-.36.719-.54.45-.359.989-.628 1.438-.988.989-.809 1.887-1.618 2.966-2.247 2.157-1.259 4.045-3.056 6.202-4.405 2.248-1.528 4.315-3.236 6.562-4.764a35.537 35.537 0 003.056-1.977c.72-.54 1.618-.81 1.978-1.798.36-.989-1.348-1.528-1.708-.45z" fill="#fff"/><path d="M49.191 19.528c0 .899 0 1.888.27 2.697.27.988.899 1.797 1.438 2.696 1.258 1.978 2.607 3.865 3.775 5.933 1.169 1.977 2.247 4.045 3.416 6.022.63.99 1.258 2.068 1.798 3.146.45.81.809 1.798 1.528 2.427.27.18.809.36 1.078.09.54-.36.81-.809.72-1.528-.09-1.079-1.888-1.168-1.708 0-.06.3-.03.3.09 0l1.078.18c-.719-.63-.989-1.618-1.438-2.337a61.778 61.778 0 00-1.618-2.877c-1.079-1.887-2.067-3.865-3.236-5.752-1.079-1.888-2.247-3.596-3.416-5.394-.539-.898-1.258-1.707-1.618-2.696-.36-.81-.36-1.708-.36-2.607 0-1.168-1.797-1.168-1.797 0z" fill="#fff"/><path d="M50.09 21.955c0 .36.09.809.27 1.169.09.27.18.449.27.629.179.27.449.45.718.629.27.18.63.18.99-.09.119-.06.209-.18.269-.36v-.18a.38.38 0 000-.359c0-.27-.18-.54-.27-.809-.12-.24-.27-.48-.45-.719a.971.971 0 00-.629-.27c-.27 0-.539.09-.629.27-.18.18-.27.45-.27.63 0 .24.09.449.27.629 0 .06.03.12.09.18l-.18-.18c.12.12.24.27.36.449-.06-.06-.09-.12-.09-.18.06.12.09.27.09.45.42-.3.869-.63 1.348-.99-.06 0-.12-.03-.18-.089l.18.18c-.06-.12-.12-.21-.18-.27 0 .06.03.12.09.18l-.18-.36c0 .06.03.12.09.18-.12-.3-.21-.63-.27-.989v.27c0-.12-.03-.24-.09-.36 0-.12-.06-.21-.179-.27-.09-.179-.36-.269-.63-.269-.179 0-.449.09-.538.27-.18.09-.36.36-.27.629z" fill="#fff"/><path d="M48.921 20.157c-.18-.18-.09-.18-.18.18s-.27.63-.449.989c-.36.719-.809 1.438-1.258 2.157-.9 1.348-1.798 2.697-2.607 4.045-1.528 2.697-2.607 5.573-4.225 8.27-1.258 2.157-2.876 3.955-2.966 6.651h1.798v-1.438c0-1.168-1.798-1.168-1.798 0v1.438c0 1.079 1.708 1.079 1.798 0 0-2.696 2.247-4.853 3.415-7.1 1.439-2.877 2.697-5.843 4.495-8.54.809-1.259 1.708-2.427 2.427-3.775.629-1.079 1.797-2.967.809-4.135-.81-.81-2.068.36-1.259 1.258z" fill="#fff"/><path d="M13.146 24.292c-.09-.36-.09-.719-.18-1.078l-1.618.719c.63 1.078 1.708 1.887 2.697 2.696a61.506 61.506 0 002.966 2.607c2.158 1.708 4.135 3.506 6.472 4.854 1.169.54 2.337 1.079 3.506 1.708 1.168.719 2.337 1.618 3.415 2.427.9.809 1.888 1.618 2.877 2.247.809.54 1.977.899 2.427 1.798.12-.36.24-.75.36-1.169-.06 0-.12.03-.18.09.18-.06.39-.09.629-.09-.06 0-.12-.03-.18-.09-1.079-.18-1.618 1.528-.45 1.708.45.09.63.09 1.08-.09.449-.18.449-.809.269-1.168-.45-.989-1.258-1.438-2.157-1.978-1.079-.54-1.978-1.348-2.967-2.067-.988-.81-1.977-1.618-3.056-2.337-1.079-.81-2.337-1.349-3.505-1.978-2.517-1.258-4.585-2.966-6.742-4.764-.989-.809-2.067-1.618-3.056-2.517-.48-.42-.959-.869-1.438-1.348-.54-.45-1.169-.899-1.439-1.438-.539-.9-1.977-.27-1.618.629.06.24.09.45.09.63.09 1.168 1.798 1.168 1.798 0z" fill="#fff"/><path d="M10.809 24.472c.36.63.45 1.528.63 2.247l.538 2.517c.42 1.738.81 3.506 1.17 5.303.628 3.506 1.258 7.011 1.797 10.517.54 3.416 1.168 6.832 1.798 10.247.629 3.416 1.258 6.742 1.617 10.158.18 1.857.42 3.745.72 5.663.18 1.168.18 2.427.18 3.685 0 1.169 1.707 1.169 1.707 0v-.09c0-1.168-1.708-1.168-1.708 0v.09c0 1.169 1.708 1.169 1.708 0 0-.989.09-1.978 0-2.966-.18-1.708-.539-3.416-.719-5.214-.18-1.708-.27-3.505-.54-5.213-.269-1.708-.718-3.416-.988-5.124-1.438-7.011-2.337-14.112-3.685-21.213l-1.259-5.933a55.216 55.216 0 01-.629-3.056c-.27-.899-.36-1.798-.809-2.517-.63-.989-2.157-.09-1.528.899z" fill="#fff"/></g><defs><clipPath id="clip0_35_36644"><path fill="#fff" transform="translate(10 18)" d="M0 0h80v63.82H0z"/></clipPath></defs></svg>