<svg width="100" height="100" viewBox="0 0 100 100" fill="none" xmlns="http://www.w3.org/2000/svg"><g clip-path="url(#clip0_9_34233)"><g style="mix-blend-mode:multiply"><path d="M12.404 24.325L13.465 65.1l30.343 1.4c-1.15 6.3-4.866 17.5-5.131 23.887.088-1.225 7.962-8.75 9.288-9.8 3.096-2.45 5.396-4.987 7.785-7.7 3.185-3.675 13.27-.612 18.135-.787l14.684-.525c6.37-.175 6.9-1.838 6.37-8.138-.177-3.062-1.416-40.162-.62-40.162l-81.915 1.05z" fill="#33BFA6"/><path d="M12.404 24.325L13.465 65.1l30.343 1.4c-1.15 6.3-4.866 17.5-5.131 23.887.088-1.225 7.962-8.75 9.288-9.8 3.096-2.45 5.396-4.987 7.785-7.7 3.185-3.675 13.27-.612 18.135-.787l14.684-.525c6.37-.175 6.9-1.838 6.37-8.138-.177-3.062-1.416-40.162-.62-40.162l-81.915 1.05z" stroke="#33BFA6" stroke-width=".8" stroke-miterlimit="10"/></g><path d="M25.142 40.163c-.059-.059-.147-.088-.265-.088v.962c.973-.262 1.858.088 2.83.175.797 0 1.681 0 2.566-.087 1.68-.087 3.362-.35 5.13-.438 1.858-.087 3.716-.087 5.574-.087 1.858-.087 3.715 0 5.573.087 3.45.263 6.989.088 10.527-.262 1.77-.175 3.45-.35 5.22-.175 1.768.263 3.538-.087 5.218-.263.708-.087.62-1.137-.088-1.05-1.858.175-3.627.35-5.573.175-1.68-.175-3.362.088-5.042.263-3.716.35-7.431.525-11.147.175-1.68-.087-3.361-.087-5.042-.087-1.946.087-3.804 0-5.661.175-1.858.175-3.627.437-5.485.525-1.68 0-3.362-.613-4.954-.175-.53.175-.53.787-.088 1.05.059 0 .147.029.265.087.62.263 1.062-.7.442-.962zm.797 9.362l-.089-.087c-.118.175-.265.32-.442.437.53 0 1.061.175 1.592.088.708 0 1.327-.088 2.035-.088 1.592-.087 3.096-.262 4.6-.262 1.504 0 2.919.175 4.334.175 1.593 0 3.096.087 4.689 0 3.096-.088 6.103-.175 9.2-.35 3.007-.088 6.015.35 9.023.087 1.592-.087 3.184 0 4.688-.087a41.02 41.02 0 002.654-.263c.708-.087 1.415.088 2.123.088.708 0 .62-1.05-.088-1.05-.62 0-1.15-.175-1.681-.175-.767.116-1.504.204-2.212.262-1.503.088-2.919 0-4.423.088-1.504.087-3.007.175-4.6.087-1.415-.087-2.83-.175-4.334-.175-6.104.263-12.297.7-18.489.263-1.592-.088-3.184.175-4.777.175-.796.087-1.592.087-2.388.175-.708 0-1.327-.088-2.035-.088-.265 0-.442.175-.53.438 0 .262 0 .35.088.612.265.7 1.327.263 1.062-.35z" fill="#272726"/><path d="M26.735 39.9c0-.058-.03-.117-.089-.175l-.354.875c.531 0 1.15.175 1.681.175.708.087 1.416-.088 2.123-.088 1.327 0 2.654.263 3.98.175 2.832-.087 5.663-.175 8.493-.35 1.416-.175 2.831 0 4.246-.087 1.416 0 2.92-.088 4.424-.175 2.919-.088 5.838-.525 8.757-.7 1.415-.088 2.83.175 4.246.262 1.593 0 3.096-.35 4.6-.175.708.088.885-.962.177-1.05-1.238-.087-2.388.088-3.627.175-1.327 0-2.565-.175-3.892-.35-1.415-.087-2.92.175-4.246.35l-4.6.35c-2.83.263-5.75.263-8.67.263-1.415 0-2.83.175-4.245.175-1.504.087-2.92.087-4.335.175-.885.087-1.68.087-2.477.087-.796 0-1.504-.175-2.3-.175-.708-.087-1.504.088-2.212.088-.796 0-1.503-.175-2.211-.175-.442 0-.62.525-.442.787.058.059.088.117.088.175.442.613 1.327 0 .885-.612zm-1.505 9.712c.532.875 2.3.525 3.185.525.797-.087 1.593 0 2.389 0 .796.088 1.68-.175 2.565-.262 1.77-.088 3.45.175 5.22.262 1.887 0 3.744-.029 5.572-.087 3.627-.175 7.166-1.05 10.881-.963 1.77 0 3.539.088 5.396 0 1.829-.175 3.686-.35 5.573-.525a60.485 60.485 0 003.097-.262 11.53 11.53 0 011.415-.088c.442 0 .885.175 1.239.175.088 0 .796.088-.177-.175-.177-.087-.62 0-.885 0-.442 0-.885-.087-1.327-.175-.885-.175-1.946-.175-2.83-.175-.708 0-.62 1.05.088 1.05.973.088 1.946.088 2.919.263.62.087 1.504.262 2.123.087.885-.175 2.035-1.312.796-1.837-1.327-.525-3.184-.263-4.511-.088l-6.016.525c-1.946.175-3.892.263-5.838.175-1.946-.087-3.892.088-5.839.263-4.069.35-8.05.962-12.119.7-2.035-.088-4.157-.35-6.192 0-.973.175-2.035 0-3.008 0h-1.592c-.177 0-1.15.175-1.239 0-.353-.613-1.238 0-.884.612z" fill="#272726"/><path d="M69.638 38.587c-.353.088-.796.175-1.15.263-.53.087-1.15.087-1.68.087-1.15.175-2.389.088-3.539.175-.707.088-.619 1.138.089 1.138 1.15-.088 2.388-.088 3.538-.175.53-.088.973-.088 1.504-.088.442-.087.885-.262 1.327-.262.708-.088.62-1.138-.089-1.138z" fill="#272726"/><path d="M26.912 41.038c-.06-.059-.148-.088-.266-.088v.962c.973-.262 1.858.088 2.83.175.797 0 1.682 0 2.566-.087 1.681-.087 3.362-.35 5.131-.438 1.858-.087 3.715-.087 5.573-.087 1.858-.087 3.715 0 5.573.087 3.45.263 6.989.088 10.527-.262 1.77-.175 3.45-.35 5.22-.175 1.769.263 3.538-.087 5.219-.263.707-.087.619-1.137-.089-1.05-1.858.175-3.627.35-5.573.175-1.68-.175-3.361.088-5.042.263-3.716.35-7.431.525-11.146.175-1.681-.087-3.362-.087-5.043-.087-1.946.087-3.803 0-5.661.175-1.858.175-3.627.437-5.485.525-1.68 0-3.361-.613-4.954-.175-.53.175-.53.787-.088 1.05.059 0 .147.029.265.087.62.263 1.062-.7.442-.962zm.796 9.362l-.089-.087c-.118.175-.265.32-.442.437.53 0 1.061.175 1.592.088.708 0 1.327-.088 2.035-.088 1.592-.087 3.096-.262 4.6-.262 1.504 0 2.92.175 4.334.175 1.593 0 3.097.087 4.689 0 3.096-.088 6.104-.175 9.2-.35 3.008-.088 6.015.35 9.023.087 1.592-.087 3.185 0 4.688-.087a40.8 40.8 0 002.654-.263c.708-.087 1.416.088 2.123.088.708 0 .62-1.05-.088-1.05-.62 0-1.15-.175-1.68-.175-.767.116-1.505.204-2.212.262-1.504.088-2.92 0-4.424.088-1.503.087-3.007.175-4.6.087-1.415-.087-2.83-.175-4.334-.175-6.104.263-12.296.7-18.489.263-1.592-.088-3.184.175-4.776.175-.797.087-1.593.087-2.389.175-.708 0-1.327-.088-2.035-.088-.265 0-.442.175-.53.438 0 .262 0 .35.088.612.265.7 1.327.263 1.062-.35z" fill="#272726"/><path d="M28.504 40.775c0-.058-.03-.117-.089-.175l-.354.875c.531 0 1.15.175 1.681.175.708.087 1.416-.088 2.123-.088 1.327 0 2.654.263 3.981.175 2.83-.087 5.662-.175 8.493-.35 1.415-.175 2.83 0 4.246-.087 1.415 0 2.919-.088 4.423-.175 2.919-.088 5.838-.525 8.757-.7 1.416-.088 2.831.175 4.246.262 1.593 0 3.097-.35 4.6-.175.708.088.885-.962.177-1.05-1.238-.087-2.388.088-3.626.175-1.327 0-2.566-.175-3.893-.35-1.415-.087-2.919.175-4.246.35l-4.6.35c-2.83.263-5.75.263-8.67.263-1.414 0-2.83.175-4.245.175-1.504.087-2.92.087-4.335.175-.885.087-1.68.087-2.477.087-.796 0-1.504-.175-2.3-.175-.707-.087-1.504.088-2.211.088-.796 0-1.504-.175-2.212-.175-.442 0-.62.525-.442.787.059.059.088.117.088.175.442.613 1.327 0 .885-.612zM27 50.487c.53.875 2.3.525 3.185.525.796-.087 1.592 0 2.388 0 .796.088 1.68-.175 2.566-.262 1.769-.088 3.45.175 5.219.262 1.887 0 3.745-.029 5.573-.087 3.627-.175 7.165-1.05 10.88-.963 1.77 0 3.539.088 5.397 0a1887.5 1887.5 0 015.573-.525 60.481 60.481 0 003.096-.262 11.53 11.53 0 011.415-.088c.443 0 .885.175 1.239.175.088 0 .796.088-.177-.175-.177-.087-.62 0-.885 0-.442 0-.884-.087-1.327-.175-.884-.175-1.946-.175-2.83-.175-.708 0-.62 1.05.088 1.05.973.088 1.946.088 2.92.263.619.087 1.503.262 2.122.087.885-.175 2.035-1.312.797-1.837-1.328-.525-3.185-.263-4.512-.088l-6.016.525c-1.946.175-3.892.263-5.838.175-1.946-.087-3.892.088-5.838.263-4.07.35-8.05.962-12.12.7-2.034-.088-4.157-.35-6.192 0-.973.175-2.034 0-3.008 0h-1.592c-.177 0-1.15.175-1.238 0-.354-.613-1.239 0-.885.612z" fill="#272726"/><path d="M71.408 39.462c-.354.088-.796.175-1.15.263-.531.087-1.15.087-1.681.087-1.15.175-2.388.088-3.538.175-.708.088-.62 1.138.088 1.138 1.15-.088 2.388-.088 3.538-.175.531-.088.973-.088 1.504-.088.443-.087.885-.262 1.327-.262.708-.088.62-1.138-.088-1.138z" fill="#272726"/><path d="M4.973 25.2c0 5.25-.177 10.588 0 15.925.177 2.538.354 5.075.53 7.525.09 2.713 0 5.337 0 8.05 0 1.225 0 2.45.09 3.675.176 1.313.353 2.538.353 3.85.089 1.4.089 2.713 1.68 2.975.974.263 2.124.175 3.097.175a94.588 94.588 0 014.07-.087c2.565 0 5.13-.175 7.695.175 1.239.175 2.477.35 3.716.35 1.415 0 2.83-.175 4.157-.088 1.328 0 2.478.438 3.804.525a7.91 7.91 0 002.035 0c1.15 0 1.15-1.75 0-1.75s-1.15 1.75 0 1.75V66.5a8.093 8.093 0 01-1.68 0c-.974 0-1.859-.35-2.832-.437-2.3-.263-4.511.087-6.723-.088-1.15-.087-2.3-.262-3.45-.35-1.15-.087-2.388-.087-3.627-.087h-7.165a18.9 18.9 0 01-1.858.087c-.177 0-.884 0-1.061-.175-.177-.262-.089-1.225-.089-1.575-.088-2.275-.442-4.55-.442-6.825 0-2.537.089-5.162 0-7.7-.088-2.362-.265-4.812-.442-7.175-.354-5.688-.089-11.375-.089-16.975 0-1.137-1.769-1.137-1.769 0z" fill="#000"/><path d="M37.527 68.863v-.35h-1.77c0 1.662.178 3.237-.176 4.812-.354 1.575-.885 3.063-1.15 4.638-.177 1.487-.354 2.975-.62 4.55-.353 1.4-.707 2.975-.442 4.462 0 .525.708 1.225 1.327.788 3.008-2.275 5.396-5.163 7.785-8.05 2.742-3.15 5.75-6.213 8.758-9.188.796-.875-.443-2.1-1.328-1.313-2.919 2.975-5.75 5.95-8.492 9.1-2.388 2.713-4.688 5.688-7.607 7.876.412.291.855.554 1.327.787-.266-1.575.088-2.975.442-4.462.354-1.575.442-3.15.707-4.725.266-1.488.797-2.975 1.062-4.463.354-1.575.177-3.15.177-4.813 0-1.137-1.77-1.137-1.77 0v.35c0 1.138 1.77 1.138 1.77 0z" fill="#000"/><path d="M50.62 70.263c3.272 0 6.545-.438 9.819-.613 3.273-.262 6.634-.35 9.907-.525 3.185-.175 6.28-.437 9.465-.962 3.274-.438 6.635-.35 9.997-.35 1.15 0 1.15-1.75 0-1.75-3.273 0-6.547-.088-9.82.35-3.273.437-6.457.787-9.642.962-3.273.175-6.635.263-9.908.525-3.273.175-6.546.613-9.819.613-1.15 0-1.15 1.75 0 1.75z" fill="#000"/><path d="M88.923 65.45v.35h1.77c0-3.5.53-6.913.618-10.413.089-3.5 0-7.087-.088-10.587-.088-7.175 0-14.35 0-21.438 0-1.137-1.77-1.137-1.77 0v1.313c0 1.137 1.77 1.137 1.77 0v-1.313c0-1.137-1.77-1.137-1.77 0 0 7.088-.088 14.263 0 21.438.09 3.5.178 7.087.09 10.587-.09 3.5-.62 6.913-.62 10.413 0 1.137 1.77 1.137 1.77 0v-.35c0-1.138-1.77-1.138-1.77 0z" fill="#000"/><path d="M5.858 24.587c5.396.438 10.792.088 16.188-.262 5.485-.438 10.88-.787 16.277-.7h42.373c1.416 0 2.83 0 4.246-.087 1.15 0 2.389-.263 3.45.087a57.724 57.724 0 01-.353-1.488 2.896 2.896 0 01-.354.438c-.708.875.53 2.1 1.238 1.225l.354-.35c.442-.613.265-1.313-.354-1.488-.973-.35-2.035-.262-3.008-.174-1.15.087-2.388 0-3.538 0H74.06c-5.543 0-11.087.029-16.63.087-11.058 0-22.204-.35-33.262.525-6.104.438-12.208.963-18.311.438-1.15-.088-1.15 1.662 0 1.75zm1.238 42.7c4.777.875 9.554.7 14.42.613 5.042-.175 10.084-.088 15.126-.088 1.15 0 1.15-1.75 0-1.75-4.954 0-9.907-.087-14.861.088-4.689.087-9.466.35-14.154-.613-1.15-.175-1.592 1.488-.53 1.75z" fill="#000"/><path d="M38.058 67.9v-.263h-1.77c0 3.238-.707 6.388-1.68 9.45-.531 1.663-.885 3.238-1.327 4.9-.354 1.663-1.062 3.15-1.416 4.813-.265 1.138 1.504 1.575 1.681.525.354-1.75 1.062-3.325 1.504-5.075l1.327-4.987c1.061-3.15 1.77-6.3 1.68-9.626 0-1.137-1.769-1.137-1.769 0v.263c0 1.137 1.77 1.137 1.77 0zm50.334-45.675c.089 3.587.62 7.175.797 10.762.265 3.675.353 7.35.265 11.113v19.25c0 .7.088 1.488-.089 2.187.472-.116.974-.233 1.504-.35a2.886 2.886 0 00-.442-.35c-.885-.7-2.123.525-1.239 1.225.118.117.266.234.443.35.442.35 1.238.263 1.415-.437.354-1.05.177-2.187.177-3.325-.088-1.487 0-2.975 0-4.462v-8.75c.088-5.863.177-11.638-.265-17.5-.266-3.238-.708-6.476-.708-9.713-.088-1.138-1.858-1.138-1.858 0zM4.53 24.15c0 13.212.09 26.337 0 39.462 0 .963-.442 2.276.355 2.976 1.061.787 2.211-.088 3.184-.263 1.15-.263.708-2.013-.442-1.75-.354.087-.708.263-1.062.438-.088 0-.265.087-.353.087l-.089.088c-.177-.059-.206-.03-.088.087.353-.175 0 .262.177 0v-.438a69.31 69.31 0 00.088-3.5V24.15c0-1.137-1.77-1.137-1.77 0zm45.028 45.587h20.611c3.362 0 6.723.175 10.085.088 1.504-.088 2.92-.613 4.423-.613.708.088 1.327.175 2.034.088.708-.175 1.328-.525 2.124-.525 1.15 0 1.15-1.75 0-1.75-.796 0-1.327.262-2.035.437-.708.175-1.415.088-2.123 0-1.504-.087-2.83.525-4.246.613-1.681.087-3.45-.088-5.131-.088H49.558c-1.15 0-1.15 1.75 0 1.75z" fill="#000"/><path d="M36.288 86.713c2.389-2.625 3.981-5.863 6.281-8.575 1.239-1.313 2.566-2.538 3.892-3.85 1.239-1.4 2.831-2.45 3.893-3.938.708-.962-.885-1.837-1.504-.962-.53.787-1.239 1.312-1.946 1.925a20.105 20.105 0 00-1.946 1.925c-1.239 1.312-2.654 2.537-3.804 3.85-2.212 2.625-3.804 5.775-6.104 8.4-.708.787.53 2.1 1.239 1.225zm-29.9-61.688c2.654.088 5.308-.612 7.962-.875a63.54 63.54 0 018.138-.525c5.662-.087 11.235 0 16.897 0a807.623 807.623 0 0116.807 0c2.743 0 5.485-.175 8.227 0 1.15.088 2.3.263 3.45.438 1.416.087 2.831 0 4.246 0 3.008 0 6.016.087 9.112 0 2.212-.088 4.954-.7 6.988.437.177-.583.325-1.137.443-1.662h-.796c-1.15 0-1.15 1.75 0 1.75h.796c.884.087 1.238-1.225.442-1.663-1.946-.962-4.246-.875-6.37-.7-2.476.175-5.041.088-7.519.088-2.653 0-5.307.175-7.961-.088-1.239-.175-2.477-.35-3.804-.437-1.504 0-3.008.087-4.511.087a6597.598 6597.598 0 00-33.97-.087c-3.096 0-6.192.087-9.288.437-3.096.263-6.192 1.138-9.289 1.05-1.15 0-1.15 1.75 0 1.75z" fill="#000"/></g><defs><clipPath id="clip0_9_34233"><path fill="#fff" transform="translate(4 21)" d="M0 0h92v70H0z"/></clipPath></defs></svg>