<svg width="67" height="150" viewBox="0 0 67 150" fill="none" xmlns="http://www.w3.org/2000/svg"><path d="M33.773 147.928c3.547.337 6.908-.489 10.158-1.885 5.392-2.316-5.23-.409-6.731-.515a.883.883 0 01-.37-.097m0 0c-.552-.31-.094-1.272.432-1.994m-.432 1.994c-.877 1.422-1.93 2.223-4.211 1.239-1.383-.597-.963-4.043-.455-6.239m4.666 5c.258-.418.5-.89.755-1.386m-.323-.608c.448-.617.946-1.06.91-.778-.019.14-.045.27-.078.392m-.832.386c.045.146.106.284.185.413m-.185-.413c-.276-.892.034-2.089.536-3.339m.296 2.953l-.012.043m.012-.043c-.332.353-.536.617-.647.799m.647-.799l.027-.029m-.039.072a2.317 2.317 0 01-.476.909m.476-.909c-.167.307-.324.612-.476.909m.476-.909l.039-.072m-.515.981l-.03.031m.03-.031l-.021.042m-.009-.011c-.213.216-.349.174-.13-.184m.13.184l.009.011m-.009-.011a1.678 1.678 0 01-.13-.184m.675-.828c.104-.109.22-.227.349-.354.185-.181.31-.347.394-.511m-.743.865l.082-.149.427-.766m.234.05c.131-.254.166-.503.178-.799m-.178.799c.829.177 2.181.466 2.525.172.309-.265.45-.85.501-1.543m-3.026 1.371l-.234-.05m.411-.749c.015-.35-.002-.765.071-1.332.109-.834-.555-.513-1.314.072m1.243 1.26a76.07 76.07 0 01-.41.749m.41-.749a37.73 37.73 0 001.036-2.033m-2.28.773c-.518.399-1.082.922-1.473 1.281m1.474-1.281c.102-.255.212-.512.327-.769l.077-.172m-1.878 2.222c-.407.373-.627.569-.417.267.143-.204.314-.433.508-.679m-.091.412c.029-.138.06-.275.091-.412m-.091.412c-.215 1.017-.35 2.061-.496 3.182l-.01.069c-.508 3.917-.76-3.491-.934-5.932m1.531 2.269a47.924 47.924 0 011.625-1.923m-1.625 1.923a13.64 13.64 0 011.092-3.058m.533 1.135l.43-.486m-.43.486c-.259-.221-.421-.579-.533-1.135m.533 1.135c.05.042.104.08.162.113m.268-.599c.757-.851 1.549-1.722 2.236-2.496m-2.236 2.496l-.268.599m.268-.599c.518-1.152 1.02-2.27 1.475-3.379m.76.883l.006-.005m-.005.005l-.235 1.805.24-1.81m-.005.005l.201-1.55m-.196 1.545c.376-.424.72-.818 1.01-1.164m-1.01 1.164l.204-1.551m.807.387c.969-1.154 1.333-1.766.239-1.115a5.45 5.45 0 00-.284.189m.045.926l-.045-.926m.045.926c.034.764.057 1.509.046 2.214-.006.376.084 1.208.127 2.107m-.218-5.247c-.2.138-.464.328-.762.539m.762-.539c-.069-1.354-.142-2.735-.099-4.023m-.663 4.562l-.008.006m.008-.006c.06-.457.117-.914.172-1.371m-.18 1.377c-.299.212-.63.444-.962.667m.962-.667l.08-.621.1-.756m-1.142 2.044c-.495.332-.99.643-1.379.829m1.379-.829c.505-1.234.95-2.458 1.284-3.708m-2.663 4.537c-.669.32-1.018.272-.492-.669.325-.579-.091.128-.746 1.04m1.238-.371c.72-1.249 1.392-2.487 1.584-3.963.288-2.216.09-4.411-.15-6.608m-1.434 10.571c-.347.601-.705 1.204-1.027 1.837l-.032.064m-.179-1.53c-.751 1.048-1.818 2.365-2.444 2.319m2.444-2.319l-.006-.089a70.487 70.487 0 00-.14-1.733m.146 1.822c.045.628.099 1.131.179 1.53m-2.623.789a.396.396 0 01-.306-.189c-.23-.339-.146-.754.108-1.198m.198 1.387a8.04 8.04 0 00-.064-.667 81.066 81.066 0 00-.134-.72m0 0c.531-.93 1.805-1.99 2.496-2.754m-2.496 2.754c-.375-1.977-.784-3.851-.962-5.831-.092-1.026-.845-.677-1.596-.097m5.054 3.174c.5-.553.695-.95.08-1.03-.026-.004-.088.024-.175.074m.095.956a75.42 75.42 0 00-.095-.956m0 0c-.808.461-3.823 2.806-1.454.014.315-.371.78-.932 1.274-1.544m.18 1.53a72.182 72.182 0 00-.18-1.53m0 0c1.458-1.805 3.172-4.053 2.035-3.177-.837.644-1.457 1.526-2.147 2.342m.112.835a71.596 71.596 0 00-.112-.835m0 0c-.433.512-.893.998-1.452 1.383-1.368.943-.274-.539 1.277-2.563m.175 1.18a73.813 73.813 0 00-.175-1.18m0 0c1.147-1.497 2.544-3.291 3.38-4.619m-3.38 4.619a75.489 75.489 0 00-.305-1.805M40 125.437c.178-.284.331-.546.45-.78.335-.655.05-.502-.533.029m.083.751l-.083-.751m0 0c-.895.816-2.489 2.526-3.602 3.565m3.602-3.565c-.17-1.529-.334-3.061-.345-4.603m-3.257 8.168c-.219.205-.42.383-.592.524-1.703 1.386-.93-.653.143-2.808m.45 2.284a77.406 77.406 0 00-.45-2.284m0 0c.832-1.673 1.844-3.416 2.018-3.68.287-.438.964-1.287 1.688-2.204m-3.706 5.884a82.844 82.844 0 00-1.14-4.685m4.846-1.199c.335-.425.68-.865 1.002-1.285m-1.002 1.285v-.182c0-.387-.116-1.162-.119-1.826m1.12.723a31.4 31.4 0 00.727-.982m-.726.982a39.96 39.96 0 01-.229-.474c-.036-.076-.153-.353-.303-.698m.532 1.172c.58 1.187 1.195 2.345 1.681 3.562m-.955-4.544c.913-1.29 1.177-1.991-.706-.607m.706.607c.623.59.981 1.153.993 2.109.01.813-.004 1.625-.038 2.435m-.955-4.544a12.069 12.069 0 00-.706-.607m0 0c-.167.122-.35.261-.552.417m.552-.417c-.403-.303-.67-.351-.844-.239m.292.656l-.295.231c-.084.067-.183.14-.294.218m.59-.449a38.48 38.48 0 00-.293-.656m-.297 1.105c-1.055.748-3.244 2.023-4.727 3.207m4.727-3.207c-.002-.51.062-.954.297-1.105m-5.024 4.312c-.455.363-.843.718-1.113 1.046m1.113-1.046c-.12-.438-.244-.876-.371-1.314m-.742 2.36a2.177 2.177 0 00-.322.5c-.502 1.164-.384.794.097-.437m.225-.063c-.072.019-.147.04-.225.063m.225-.063c1.346-.361 1.733-.124.983 1.748-.51 1.275-2.708 1.026-2.854 2.145-.195 1.501.738 2.615.54 4.143a33.18 33.18 0 01-.154 1.019m1.26-8.992c.242-.619.575-1.455.967-2.423m-.967 2.423l-.073.021c-.147.044-.29-.011-.426-.148m1.466-2.296c.605-1.493 1.35-3.3 2.113-5.106m-2.113 5.106a27.081 27.081 0 00-.75-2.26m2.863-2.846c.39-.923.786-1.846 1.17-2.727m-1.17 2.727c.558-.401 1.097-1.043 1.593-1.799m-1.593 1.799c-.378.272-.764.433-1.151.443-.382.011-.13-2.371.288-5.144m2.033 1.974c1.841-4.22 3.426-7.464 2.976-5.096-.232 1.219-1.24 4.02-2.553 6.024m-.423-.928c-.253-.427-.57-.784-.967-1.026-.34-.208-.722-.551-1.066-.948m2.033 1.974c.167.283.306.596.423.928m0 0c.523 1.488.6 3.357.704 4.517.124 1.387.15-1.263.255-1.734.057-.257.404.413.73 1.124m-4.145-6.809c.536-3.551 1.343-7.743 1.439-8.378.057-.382 1.293-9.721.848-6.298-.281 2.165-.134 4.21.01 6.38.02.309.182 4.132.508 1.623.404-3.114.54-6.226.482-9.333m-3.287 16.006c-.46-.533-.854-1.161-.988-1.685a1.382 1.382 0 00-.016-.058m4.291-14.263c-.065-3.466-.372-6.924-.819-10.372m.82 10.372c.435.203.877.28 1.307.162 1.062-.289 1.252 1.952 1.292 3.448m-2.6-3.61c-.857-.398-1.69-1.284-2.364-2.154m1.545-8.218c-.042-.33-.087-.661-.132-.992m.132.992a52.004 52.004 0 01-1.35-.277m1.35.277c3.16.609 6.387 1.008 9.286 2.227m-9.419-3.22c-.088-.64-.18-1.28-.276-1.92l-.015-.098m.291 2.019a76.28 76.28 0 014.595.928c.27.063 3.242.94 1.892.186-1.268-.71-2.447-1.591-3.63-2.466m-2.857 1.352a93.68 93.68 0 00-1.085-.18m.794-1.84a32.06 32.06 0 00-.175-1.016m.175 1.017c.04-.276.089-.558.14-.845m-.14.845l-.038.27c-.053.41-.272.495-.592.396m.455-1.683a42.438 42.438 0 00-.067-.35m.067.35l.315.172m-.315-.172a21.286 21.286 0 01-.217-.121m.15-.229a48.723 48.723 0 00-.055-.278m.055.278l-.125.035m.125-.035l.296-.08m-.351-.198l-.018-.09m.018.09l-.028-.016m.028.016c.118.065.235.131.351.199m-.37-.29a91.65 91.65 0 00-.221-1.047m.222 1.047l-.01.075m.01-.075a168.93 168.93 0 01.156-1.177m-.378.13l-.054-.243m.054.243c-.34.15-.582.367-.705.66m.705-.66c.115-.05.241-.094.378-.13m-.432-.113l-.02-.093m.02.093c.147.003.296.004.447.004m-.447-.004a18.523 18.523 0 01-.186-.004c-.745-.022-1.485-.041-2.223-.06m2.388-.029c-.568-2.552-1.285-5.355-1.626-7.798-.434-3.115-.7-6.27-.923-9.423m2.55 17.221l.476.032m-.477-.032a49.47 49.47 0 01-1.957-.174 5.775 5.775 0 00-.422-.031m-.17-17.016c-.158-2.234-.296-4.468-.457-6.688-.161-2.216.433-4.427.565-6.62m-.108 13.308c.103-2.493.21-4.988.306-7.488.088-2.293.43-4.76.347-7.052 0-.015-.255.554-.545 1.232m-.108 13.308c-.194 4.693-.375 9.38-.453 14.088m.561-27.396c.035-.587.038-1.171-.016-1.754a46.336 46.336 0 00-.655-4.492m.671 6.246c-.348.815-.748 1.79-.816 2.095-.339 1.524-.085 3.824-.692 4.241m.837-12.582c-.696-3.617-1.712-7.148-2.513-10.774-.07-.318-.157-3.276-.488-3.388-.091-.03-.188.474-.28 1.223m3.28 12.939c1.464-2.64 2.527-5.182 2.972-8.265.028-.189.011-.724.11-1.145m-3.081 9.41c-.16.288-.325.578-.495.87m-2.786-13.81c-.233 1.887-.436 5.318-.456 5.6-.041.572-.09 1.142-.147 1.71m.603-7.31c-.12 2.48-.295 4.953-.573 7.411m.573-7.41c.025-.535.049-1.07.07-1.604m-.673 8.913a147.152 147.152 0 01-.525 4.384l-.037.283a1838.817 1838.817 0 00.592-4.566m-.03-.1l.03.1m-.03-.1c-.797-2.686-1.653-5.286-2.146-7.579-.029-.134-.09-.52-.172-1.038m2.348 8.717c.126.428.25.857.372 1.287m.27-10.301l.025-.654m-.024.654a5.75 5.75 0 00-.742-.737m.742.737c1.506 1.772 2.55 4.698 3.486 6.287 1.009 1.715 1.592-.619 1.492-1.573l-.03-.261m-4.924-5.107l.034-.99m-.034.99a68.833 68.833 0 00-.766-.083m.766.083a51.9 51.9 0 013.995.602m-3.961-1.593l.003-.098m-.003.098c-.171-.057-.208-.093-.051-.097h.054m-.003.097c.547.185 2.468.593 3.769.882m-3.766-.98c.097-3.084.14-6.174.217-9.254m-.217 9.254c1.135-.027 2.295-.07 3.465-.097m-3.248-9.157l.011-.43m-.011.43c.145.292.31.628.37.863.3 1.17.91 1.998 1.53 2.985m-1.9-3.848c-.237-.478-.419-.836.011-.43m0 0c.04-1.518.09-3.032.16-4.543.026-.58-.096-2.675-.392-4.678m.232 9.22c.091.086.21.206.36.366.366.388.724.794 1.072 1.216M30.772 5.688c-.329-2.228-.873-4.341-1.67-4.125-.746.204-1.803.896-2.613 1.218-1.415.561-1.184 2.56-1.328 3.971m5.611-1.064c1.1 1.15 1.324 3.569 1.717 4.85.71 2.316 1.076 4.724 2.058 6.977.497 1.139 2.65 6.974.644 3.108a23.674 23.674 0 00-2.48-3.794M30.772 5.688a2.013 2.013 0 00-.847-.544c-4.505-1.438-3.826 2.707-4.273 6.153-.249 1.91-.434 3.804-.478 5.713m-.012-10.258a5.772 5.772 0 01-.02.167c-.364 2.807-1.272 1.048-.243.028a.909.909 0 01.262-.195zm0 0c1.064-.459-.059 5.119-.08 5.01-.434-2.226-1.005-1.276-1.187.835-.235 2.739-.236 5.289.262 7.81m0 0c.212 1.078.516 2.151.932 3.232m-.932-3.232a4.64 4.64 0 01.138-.511c.113-.341.453-1.664.88-2.886m-1.018 3.397c-.273 1.297 0 2.68.474 4.052m.458-.82c.067.173.137.346.209.52.056.134.156.413.27.738m-.479-1.258c.427-1.218.188-2.854.128-3.923a34.392 34.392 0 01-.043-2.706m-.085 6.628a2.53 2.53 0 01-.458.82m.938.44c.109.308.232.659.345.97m-.345-.97c.062-.445.189-.466.422.383m-.422-.384c-.053.377-.06 1.059-.048 1.77m.393-.798c.307.844.542 1.4.234.048-.057-.251-.11-.462-.157-.636m-.077.588l.077-.588m-.077.588l-.17 1.305m.247-1.893L26.417 22m-.896 4.668c.004.246.01.495.018.737m-.018-.737a28.94 28.94 0 01-.89-2.208m.89 2.208c.074.17.15.339.224.507m-.206.23c.012.381.027.743.04 1.042m-.04-1.042c-.095.093-.188.188-.28.284a2.43 2.43 0 00-.434.6m.714-.884c.066-.065.133-.13.201-.193m-.16 1.235c.014.304.026.542.033.665.125 2.322.48 4.618.904 6.904m-.937-7.57l.16-1.234m-.16 1.235l-.284 2.182m1.22 5.387c.26 1.404.547 2.805.822 4.205m-.822-4.205l-.023.51m.024-.51c.098-1.978.251-3.936.47-5.64m.35 9.845c.198 1.005.39 2.01.56 3.018m-.56-3.018c.211 1.005.401 2.011.56 3.018m-.56-3.018a119.27 119.27 0 00-.845-3.695m1.405 6.713c.271 1.59.493 3.185.61 4.789m-.61-4.79c.097.613.183 1.225.254 1.837.226 1.95-.582.346-1.038-.314a7.85 7.85 0 01-.716-1.292m2.11 4.559c.025.345.045.69.06 1.037m-.06-1.037a8.141 8.141 0 001.033-.928m-1.033.928c-.163.118-.32.216-.47.29m.53.747l.006.138c.018.467.005.933-.025 1.398m.019-1.536l-.15-.208m.15.208a31.6 31.6 0 001.2 1.528m-1.219.008c-.009.14-.019.279-.03.417m.03-.417c1.033 5.672 1.866 16.265 1.716 12.089-.144-4.01-.267-8.063-.496-12.097m-1.22.008a36.815 36.815 0 00-.051-.278m.02.695c-.043.528-.102 1.055-.157 1.582m.158-1.581c.026 1.113.027 2.481.023 3.785m-.023-3.785a46.833 46.833 0 00-.021-.696M28.36 52.6c-.106 1.04-.192 2.078-.095 3.122.048.52.169 1.012.265 1.507m-.17-4.629a34.51 34.51 0 01-.05-3.2m.05 3.2c.044.735.107 1.47.181 2.204m-.01 2.425c.095.49.167.984.12 1.508-.117 1.335-.128.313-.12-1.508zm0 0l.01-2.425m0 0c.21 2.065.518 4.124.777 6.176.38 3.006.164 6.905 1.117 9.848.032.099.063.175.093.232m-2.031-20.737c-.01-.264-.022-.504-.037-.715-.018-.271-.032-.529-.044-.75m.08 1.465a31.74 31.74 0 00-.186-.922m.106-.544c-.039-.764-.045-1.106-.083-.116m.083.116a22.534 22.534 0 01-.083-.116m0 0l-.023.637v.023m.023-.66a31.9 31.9 0 01-.296-.423m.273 1.083a17.887 17.887 0 00-.177-.734 1.299 1.299 0 00-.123-.336m2.518 22.73c.32.597.554-1.03.74-2.793m-.74 2.792a241.722 241.722 0 00-1.606 6.427m1.606-6.427c.245-.933.493-1.864.74-2.792m0 0c.12-1.13.22-2.318.31-3.012.51-3.925 1.102-7.853 1.511-11.794m-1.82 14.806l.656-2.457c.95-3.558-.22 2.62-.334 3.49-.087.676-.607 6.68-.273 6.254 1.074-1.373.98-3.723 1.264-5.347.23-1.317.355-5.045 1.013-3.881.828 1.465-.113 6.534-.2 8a88.07 88.07 0 01-.257 3.228m-.049-24.093c.091-.873.173-1.747.242-2.622.238-2.98.422-6.076.1-9.09m-.341 11.71c-.255.176-.662.018-1.329-.67a40.829 40.829 0 01-1.992-2.2m3.663-8.842c-.21-1.972-.636-3.909-1.405-5.755-1.053-2.528-1.002-3.81-1.454-.338l-.128.981m2.988 5.112l-.228.388a32.455 32.455 0 01-1.31 2.02m-1.45-7.52c-.313 2.415-.553 4.6-.139 7.07.05.303.22 1.14.422 2.02m-.283-9.09c.712 2.526 1.31 5.092 1.45 7.52m-1.167 1.57c.334 1.456.756 3.032.875 2.52.3-1.29.375-2.667.293-4.09m-1.168 1.57c.407-.512.804-1.05 1.168-1.57m-1.168 1.57c-.392.495-.795.965-1.187 1.372m-1.816-20.466l-.114-.714m.114.714c-.3.944-.544 2.244-.737 3.742m.737-3.742c.11-.348.23-.648.356-.891m-.47.177c-.368-2.274-.963-5.684-1.193-3.92m1.193 3.92c-.676.297-1.29.752-1.855 1.278m1.855-1.278c.153-.068.31-.127.47-.177m-1.663-3.744l.808-6.213m-1.48 11.389l-.005.037m.005-.037l.01.023m-.015.014l.015-.014m1.47-11.412l.44-3.387c.289-2.226 1.605-7.362 2.12-1.791.161 1.75 1.456 8.818-.047 10.266-.407.392-1.967-3.642-2.513-5.088zm0 0l-.178-.473c-.55-1.441-1.292.035-1.873 1.698m-.543 7.449a2.07 2.07 0 01-.308.292c-.184.142-.372.277-.563.409m1.995 2.037c.376.847.737 1.663.99 2.421.084.251.165.504.242.757m0 0c1.305 4.24 1.802 8.702 2.24 13.102.12 1.203.223 2.411.313 3.622m0 0c.087 1.162.162 2.327.228 3.493M28.01 48.33c-.06-.094-.113-.06-.159.067m.159-.067l.027-.013m-.027.013a1.856 1.856 0 01-.159.067m0 0c-.283.79-.313 5.198-.341 5.758-.03.593-.01 4.822-.85 2.166-.903-2.857-1.504-5.981-2.92-8.645-.39-.733.787 4.804.859 5.142 1.016 4.766 1.818 9.581 2.287 14.433.326 3.364.58 6.766.689 10.159m.276-29.013c-.52.192-.926.04-1.128-.633-.1-.333-.18-1.04-.24-2.007m1.092 31.653l.001.042m-.001-.042c.449.028.898.053 1.347.076m-1.347-.076l-.075-.005m.076.047c.012.365.021.73.03 1.094m-.03-1.094c.264.19.682.728 1.04 1.226m-1.04-1.226a.563.563 0 00-.076-.047m.106 1.141c.013.606.021 1.212.024 1.816m-.024-1.816c.336.042.673.086 1.01.132m-1.01-.132l-.48-.059m.505 1.875v.283c.002.523-.06 1.416-.127 2.284m.127-2.567c-.179-.07-.357-.142-.535-.213m.535.213l.6.237m-.727 2.33c-.069.867-.144 1.708-.171 2.129m.17-2.13c-.186-.897-.35-1.847-.407-2.78m.408 2.78c.046.221.093.44.14.653m-.311 1.477c-.02.317-.014.395.044.062m-.044-.062l.044.062m-.044-.062c-1.267-1.807-2.335-3.948-3.565-5.76m3.609 5.822a98.5 98.5 0 01.268-1.54m-.268 1.54l.129.18c1.67 2.306.838 1.333.364-.73-.072-.317-.149-.648-.225-.99m0 0c.18-.994.377-1.988.586-2.98m0 0c.132-.63.269-1.258.41-1.886m-.41 1.885c.713.28 1.428.555 2.144.828m-1.734-2.713l.007-.032m-.007.032c.32.448.586.857.64.94l.006.008c.378.58.739 1.169 1.088 1.764m-1.734-2.712l-.026-.036m.033.004c.09-.399.181-.798.274-1.196m-.274 1.196c1.098.15 2.194.317 3.277.499m-3.277-.499a3.683 3.683 0 00-.033-.004m.307-1.192c1.238.062 2.477.105 3.721.141m.495-.073l-.009.087m.009-.087l.245-.034m-.245.034l-.495.073m.486.014l-.028.284m.028-.284l.23.007m-.23-.007l-.486-.014m.458.298c-.048.478-.099.955-.152 1.432m.152-1.432c-.737-.109-1.159-.192-.618-.273l.16-.025m.458.298l.199.03m-.35 1.402c-.064.567-.13 1.133-.2 1.698m.2-1.698l.094.017m-.095-.017c-.325-.057-.652-.114-.98-.169m.782 1.867l-.115.928m.115-.928c-.707.353-1.015.702-.115.928m.115-.928l.027-.013m-.142.941l-.036.287m.036-.287l.006.002m-.042.285l-.105.816m.105-.816l-1.025-.388m1.025.388l.003.001m-.108.815l-.228 1.763m.228-1.763l-.228 1.763m.228-1.763l.036-.277.072-.538m-.337 2.578l-.075.581m.075-.581l-.075.581m.075-.581c.56 1.046 1.116 2.093 1.697 3.126m-1.697-3.126s0 0 0 0zm0 0a163.4 163.4 0 00-.86-1.596m.785 2.177l-.49 3.77m.902-6.929l.04-.286m-.04.286l.512.195c.329.124.66.24.996.348m-1.469-.83c.044-.314.089-.629.136-.942m-.136.943c.163.04.365.077.611.11.266.034.532.069.796.105m-1.271-1.158a82.75 82.75 0 01.266-1.668m-.266 1.668c.34-.167.766-.335 1.193-.49m-.927-1.178c.08-.474.166-.947.256-1.42m-.256 1.42l.55.099c.118.022.243.06.372.112m-.666-1.63l.059-.307m-.06.306c.215.031.448.064.687.1m-.627-.406l.024-.128m-.025.128l.635.017m-.61-.145c.188-.957.396-1.914.628-2.874a2.22 2.22 0 00.025-.125m-.653 3c.205-.027.408-.048.613-.061m.04-2.94c.127-.698.559-3.552.633-1.706a60.72 60.72 0 01-.01 4.635m-.623-2.928c-.01.66-.02 1.32-.026 1.981-.003.325-.008.644-.014.958m.663-.011l-.01.233m.01-.233a6.495 6.495 0 00-.663.01m.654.223a94.17 94.17 0 01-.02.474m.02-.474l-.657-.017m.637.49c-.026.573-.057 1.146-.092 1.719m.092-1.718c-.214-.037-.431-.07-.644-.102m.644.102c.578.098 1.124.213 1.455.353.108.046.216.093.323.142m-1.87 1.223l-.03.49m.03-.49c.161.095.326.2.49.311m-.49-.311a4.294 4.294 0 00-.572-.29m.541.78c-.04.626-.084 1.254-.13 1.88m.13-1.88c-.174.06-.355.123-.536.188m.536-.189l.521-.178m-.651 2.06a445 445 0 01-.048.637m.047-.638c.832.115 1.657.236 2.48.368m-2.48-.368l-.327-.044m.28.682l-.07.916m.07-.916a20.45 20.45 0 01-.218-.069m.218.07a29.62 29.62 0 002.395.623m-2.464.292c-.106 1.396-.213 2.79-.297 4.177m.297-4.177c-.061-.326-.11-.654-.15-.984m.15.984a12.306 12.306 0 001.412 3.881c.266.47.69-1.792 1.052-4.173m-2.76 4.469c-.016.245-.03.49-.043.735-.024.452-.623 7.864-.793 7.713-.192-.171-.38-.35-.566-.534m1.401-7.914c.431.765.876 1.521 1.347 2.263.214.337.532.834.921 1.368m-3.669 4.284a18.845 18.845 0 01-1.501-1.703m1.501 1.703a193.36 193.36 0 01-1.196-5.955c-.267-1.417-.146 2.897-.247 3.741-.02.17-.04.34-.058.511m1.501 1.703c.58 2.623 1.258 5.233 2.12 7.713.142.412.282.31.413-.069m-4.034-9.347a27.77 27.77 0 01-.73-.972m.73.972c-.258 2.334-.404 4.82-.675 7.261m-.055-8.233a33.09 33.09 0 01-.572-.82m.572.82c.321-3.324.675-6.645 1.075-9.962m-1.075 9.962c-.2 2.06-.387 4.12-.565 6.181m-.007-7c-1.61-2.372-3.043-4.994-4.642-7.13m4.642 7.13c-.24 1.535-.47 3.074-.683 4.618m.683-4.618a480.166 480.166 0 011.563-9.296m-6.204 2.166a23.578 23.578 0 00-.13-.173c-.108-.14-2.343-2.95-1.223-.967a37.535 37.535 0 013.822 9.54c.432 1.717 1.017 6.919 1.245 5.164.08-.606.16-1.212.244-1.816m-3.959-11.748a36.618 36.618 0 00-2.064-3.978m2.064 3.978c1.688 3.773 2.818 7.768 3.96 11.748m0 0c.227.796.455 1.59.689 2.383M31.322 83.1l.218-1.231m-.218 1.231l.084.154m-.084-.154a68.97 68.97 0 00-.947-1.673m1.165.442l.02-.115c.04-.22.077-.436.112-.647m-.132.762l-1.165-.442m1.165.442l.035.013m.097-.775c.122-.725.223-1.388.298-1.919m-.298 1.92c.103-.81.187-1.445.253-1.927m-.253 1.926l-.075.592-.022.183m.395-2.694c.202-1.437.215-1.902-.045-.007m.045.007l-.045-.007m-.35 2.7l-.169 1.373m-1.64 16.142L29.629 101c-.172 2.03-.8 8.069-.255 6.106.498-1.79.795-3.71 1.012-5.658m-.62-2.051a136.71 136.71 0 00.62 2.051m0 0c.258.847.438 1.682.568 2.512m4.14-.426c.29-.843.532-3.053.657-4.015.326-2.506.663-5 .777-7.518m-1.433 11.533c.334-3.822.59-7.651 1.086-11.476.017-.13.034-.283.05-.452m-1.136 11.928a155.449 155.449 0 01-.494 4.884m1.927-16.417c.03-.661.044-1.324.039-1.99-.026-3.238-.173-.064-.336 1.595m.297.395a16.793 16.793 0 01-.297-.395m-1.63 16.812c-.096.865-.178 1.679-.354 2.453m.354-2.453c-.201-.678-.265 1.19-.354 2.453m0 0c-.23 1.012-.622 1.954-1.42 2.853-.6.674-.86-7.071-1.057-8.463-.35-2.473-.624-2.375-.816-1.301m3.293 6.911c-.02.283-.04.536-.065.723-.176 1.35-.302 3.642-.577 6.114m-2.651-13.748c-.266 1.485-.374 4.839-.31 5.826.103 1.618.892 11.114 2.245 12.478m-1.935-18.304c.366 2.334.344 4.633.604 7.083.253 2.379 1.227 4.481 2.047 6.665m-.716 4.556c-.965 4.375-2.822 7.801-6.762 5.683-1.58-.849-3.23-1.019-4.408-2.489-1.215-1.515-2.031-3.524-3.38-4.872-1.81-1.807 1.481 1.172 2.677 1.749m11.873-.071c.324-1.47.548-3.046.716-4.556m-1.477 13.675c-.187 1.153-.398 2.34-.31 3.473.09 1.161.158 4.314.346 5.575m-.036-9.048c-.634.492-1.266 1.15-1.493 1.283-.887.522-2.574-.035-3.513-.157-1.96-.255-2.266-.232-3.24-1.799a5.451 5.451 0 01-.093-.154m8.375 9.875c.13.875.318.839.61-1.408.134-1.034-.259-.112-.61 1.408zm5.42 3.614c.352.428.943.727 1.855.845 1.16.151 1.604.289 2.258-.784.713-1.17.704-3.24.793-4.841m-3.86 2.842a4.96 4.96 0 00-.32-.058m1.767-2.724c.085-.184.168-.368.246-.549.16-.372.19-.984.746-.442.176.172.302.511.4.885m-1.392.106c-.887.067-1.476.061-1.875-.168m1.875.168c.23-.017.48-.039.752-.064.224-.02.437-.035.64-.042m0 0c.19.726.276 1.579.421 1.567m-.421-1.567a6.82 6.82 0 01.426-.005m-.005 1.572c.033-.003.068-.047.107-.145a8.85 8.85 0 00.426-1.386m-.533 1.531c.038-.495.03-1.045.005-1.572m.528.041c.036-.159.07-.32.1-.482m-.1.482a4.344 4.344 0 00-.528-.041m.528.041l.067.01m.033-.492c.231-1.226.314-2.518.467-3.693l-.418 3.21c-.02.152-.035.313-.049.483zm0 0c-.013.158-.023.322-.033.492m0 0c.973.159 1.563.714 1.718 2.112.032.289.76 2.945.925 2.097.776-3.999.211-7.226-1.155-10.931-.233-.631-1.767-3.738-2.184-4.094m-.565 3.022c.063-.236.123-.473.178-.711m-.178.711c.142-2.993-.297-5.922-.503-8.934-.225-3.3.8.569.971 1.743.139.948.195 1.858.18 2.74m-.648 4.451a21.398 21.398 0 01-.142 1.664m.32-2.375c.063-.27.12-.542.171-.816m-.171.816l-.32 2.375m.32-2.375c.075-.554.148-1.107.219-1.659m-.048.843c.092-.491.165-.989.216-1.495m-.216 1.495c.01-.286.025-.567.048-.843m.168-.652c.048-.469.076-.945.084-1.429m-.084 1.429c-.037-.031-.065-.041-.082-.026m.166-1.403c-.053.467-.108.935-.166 1.403m.166-1.403c.174-1.554.312-3.105.377-4.66m-.63 6.741l.087-.678m-.086.678c.017-.213.04-.423.066-.629.003-.024.01-.04.02-.049m.543-6.063c.254.635.472 1.286.632 1.965m-19.098 6.231c-.634-1.102-1.184-2.818-2.757-2.582-1.072.161-1.91.28-2.68.076m5.437 2.506c.943.091 1.469-.077.287-1.109-.743-.647 1.975.199 2.953.085 3.134-.365.34-.225-1.261-.434-1.914-.248-3.61-1.068-5.402-1.606m3.423 3.064c-.808-.078-1.923-.347-2.527-.426-1.327-.172-2.241-.961-2.91-2.08m0 0c-.687-.183-1.32-.624-2.013-1.524-2.993-3.887-7.695-9.227-7.028-14.36.157-1.209-.15-3.477.676-1.866m8.365 17.75c-.678-1.137-1.104-2.614-1.449-4.131M9.987 110.3c.027.052.054.108.083.167.788 1.632 1.307 3.431 2.164 5.013.069.128.14.254.213.379m-2.46-5.559c-.115 1.457-.01 2.896.677 3.898.45.656.996 2.179 1.783 1.661m-2.46-5.559c.104-1.306.384-2.628.58-3.661.101-.529 1.459-1.346 1.992-.978m-.112 10.198c1.01 1.732 2.387 3.284 3.275 5.046.539 1.068.73 2.048 1.181 3.014m-4.456-8.06a1.36 1.36 0 00.317-.31c1.272-1.635 1.731 1.002 2.326 1.92.897 1.383 1.249 3.97 1.813 6.45m0 0c.175.374.389.746.678 1.121.796 1.034 2.08 1.626 2.785 2.452m0 0c.03.036.059.071.086.107.42.546-2.196-.555-1.968-.525.647.084 1.27.235 1.882.418zm-7.807-21.831a.444.444 0 01.15.178c.267.561.49 1.137.694 1.719m-.844-1.897a7.527 7.527 0 00-1.207 3.236c-.506 3.897.928-.135 2.051-1.339m-.844-1.897a7.463 7.463 0 017.18-3.221c3.585.466 3.68 5.54 4.306 8.346.268 1.202.895 2.312 1.412 3.418.297.634-.19.379-.78-.229m-11.274-6.417c.35.994.649 2.002 1.033 2.974m-1.033-2.974c.368-.394.703-.485.925.108.215.578.448 1.143.693 1.702m-.585 1.164c.114.287.235.571.367.85.686 1.449 1.61 2.713 2.296 4.149m-2.663-4.999a6.46 6.46 0 01.585-1.164m-.585 1.164a2.367 2.367 0 00-.125.486c-.255 1.964.8 2.845 2.286 4.071.164.135.331.283.502.442m0 0c.145.302.279.612.398.933.291.786.54.725.747.256m-1.145-1.189c.374.348.762.751 1.145 1.189m0 0a2.97 2.97 0 00.12-.331m-.12.331c.22.252.438.516.652.788m-.531-1.119c.378-1.231.585-3.735.618-3.985.6-4.614.708-.785 1.43 1.444.673 2.08 1.298 4.829 1.468 7.262m-3.516-4.721c.17.362.347.737.53 1.119m-.53-1.119c-.265-.564-.512-1.098-.742-1.586-.886-1.88-1.807-3.623-2.602-5.435m6.86 11.742a16.7 16.7 0 01.036 1.774m-.036-1.774l-.016-.006c-.23-.088-.613-.253-.958-.369m.974.375c2.267.87 4.276 2.398 6.414 3.525 1.395.736-2.978-2.749-3.642-3.318-.625-.535 4.265.57 4.705 2.049.694 2.333-4.29 1.428-6.204 1.098m-1.237-1.58l-.01.202c-.021.393-.458-.108-.891-.751m.9.549c.396.567.81 1.1 1.238 1.58m-1.237-1.58c-.182-.261-.36-.53-.536-.803m-.365.254c-.378-.561-.754-1.231-.851-1.512-.074-.212.088-.246.344-.198m.507 1.71c.283.136.449.138.402-.091a4.768 4.768 0 00-.037-.163m-.872-1.456c.117.022.254.062.398.11m-.398-.11c.28.495.57.984.872 1.456m-.872-1.456a53.994 53.994 0 01-1.613-3.117m2.011 3.227c-.484-1.076-1.214-2.211-2.011-3.227m2.011 3.227c.209.464.371.917.474 1.346m1.773 2.383c-.232-.041-.42-.072-.546-.089-1.17-.152-.223.288 1.346.9m-.8-.811c.26.291.527.563.8.811m0 0c1.765.689 4.32 1.595 5.54 2.121 1.338.578-2.955-.428-4.224-1.148a7.358 7.358 0 01-1.316-.973zm-8.933-15.907c1.298-2.114 3.877-4.609 3.67-3.021-.22 1.704 1.703 3.159 2.301 4.881 1.44 4.14 2.553 5.95 5.549 6.922m-1.864-4.175c-.482-.499-1.033-1.234-1.278-1.911m1.278 1.911c-.142-.24-.288-.486-.442-.739-.196-.323-.586-1.185-.955-1.976m1.397 2.715c.885 1.494 1.578 2.747 2.424 3.848m-3.702-5.759a2.028 2.028 0 01-.128-.585m.128.585a22.9 22.9 0 00-.128-.585m.128.585c.12.587.21 1.149.267 1.637.235 2.025-.954-2.462-1.155-3.324-.303-1.294.12-.493.638.604m.122.498c-.003-.075 0-.148.01-.219m-.01.219c-.038-.166-.08-.332-.122-.498m.131.279a.852.852 0 01.227-.484c-.2-.406-.877-1.654-1.25-2.343m1.023 2.827l-.131-.279m-.892-2.548a8.84 8.84 0 01-.243-.457c.084.143.165.296.244.457zm0 0c.355.729.656 1.635.892 2.548m3.952 6.842c.163.213.331.42.508.622m-.508-.622c-.826-.196-1.378-.258-.98.031.12.087.262.187.42.296m.56-.327c1.534.365 4.014 1.189 3.108 1.071a26.501 26.501 0 01-2.6-.449m0 0c.425.484.896.941 1.449 1.377m-1.449-1.377a13.45 13.45 0 01-1.068-.295m2.517 1.672c.42.331.886.651 1.414.963.826.489-.14-.133-1.414-.963zm0 0c-.85-.554-1.835-1.2-2.517-1.672m16.346 6.175l.03.129m-.03-.129c.187-.282.564-.767.73-.993.363-.492.73-.981 1.1-1.466m-1.83 2.459c-.12.18-.162.277-.02.167l.05-.038m0 0l.01.046c.186.851 1.589 4.573 1.992 5.662m-2.002-5.708c.218-.172.437-.373.656-.593m1.346 6.301c.07.19.11.299.108.301-.43.331-.404.158-.108-.301zm0 0c.634-.981 2.51-3.272 3.813-4.718m0 0c.972-1.08 1.624-1.689 1.201-.932l-.283.504m-.918.428c.311-.163.65-.334.918-.428m-.918.428l-.41.215m1.328-.643c-.33.584-.504.889-.513.97m.513-.97c.32-.113.54-.118.494.13m-1.007.84c-.008.083.153-.061.494-.374m-.494.374l.494-.374m-.494.374c-1.9 1.438-3.818 2.894-.012 1.056l.13-.065m.376-1.365c.14-.128.311-.285.513-.466m-.513.466c.168-.128.332-.253.487-.373m.026-.093c.34-.304.767-.677 1.287-1.098 4.479-3.632 1.655-1.284-.622.637-.192.163-.43.351-.691.554m.026-.093a.605.605 0 01-.026.093m0 0a2.495 2.495 0 01-.287.517c-.146.218-.36.671-.576 1.221m0 0c.965-.494 1.764-1.218 2.548-1.947m-2.547 1.947c-.774 1.968-1.594 5.185.398 3.368 2.877-2.622 5.78-5.433 7.933-8.689m-5.784 3.374c.944-.88 1.866-1.77 3.03-2.277 1.044-.455 3.645-2.162 2.517-2.309-.204-.026-8.194 4.802-5.547 4.586zm0 0a5.29 5.29 0 00.714-.123c1.64-.376 3.632-1.741 5.07-3.251m0 0c.669-.703 1.218-1.436 1.557-2.117.142-.285.275-.574.4-.866m-1.957 2.983a22.836 22.836 0 001.812-3.273m.144.29c1.152-2.711 1.557-5.703 1.878-8.683m-1.878 8.683c.32.538.883.913 1.855 1.039 1.785.232 1.604-5.891 1.758-7.078.41-3.147 1.713-12.499.695-9.494-1.089 3.214-1.732 6.67-2.377 9.994-.219 1.128-.152-1.375-.053-3.144m-1.878 8.683a2.175 2.175 0 01-.144-.29m2.022-8.393c.074-.694.144-1.388.218-2.077m-.218 2.077c.02-.355.04-.681.06-.942m.158-1.135a87.44 87.44 0 01.223-1.916l-.164 1.266c-.045.346-.087.693-.129 1.041m.07-.391c.793-4.133 3.154-7.873 3.706-12.125.182-1.397-1.759 2.211-2.48 3.42-1.438 2.409-2.913 4.797-4.374 7.192m3.148 1.513c-.025.13-.048.26-.07.391m0 0l-.087.744m.087-.744l-.036.225a8.557 8.557 0 00-.051.519m0 0c-.261 2.251-.516 4.523-1.126 6.696-.255.912-.578 1.79-.957 2.639m0 0c-.488-1.195-.096-2.992-.186-4.675a85.606 85.606 0 00-.722-7.308m-10.17 19.259c-.129.067-.24.123-.325.158-.896.378-2.41 3.055-1.823 2.279.65-.859 1.384-1.658 2.148-2.437zm0 0c1.752-1.784 3.67-3.458 5.14-5.481.777-1.068-1.82 1.917-2.791 2.812-.44.407-5.955 5.128-6.013 4.789-.272-1.591 2.5-4.923 3.206-6.232.87-1.615 1.605-3.318 2.431-4.963m0 0c.152-.302.307-.603.467-.9m-.467.9a2.292 2.292 0 001.369-.772c.926-1.072 1.603-2.068 2.084-3.031m-3.453 3.803a3.027 3.027 0 01-.253.034m.72-.934a28.1 28.1 0 01.494-.883c1.07-1.83.102.069-.494.883zm0 0l-.049.064c-.222.291-.446.581-.671.87m0 0a94.965 94.965 0 01-5.664 6.633c-.602.64-.84.802-.804.61m6.468-7.243c-.233.02-.472.013-.712-.016m-5.756 7.259c.042-.229.477-.966 1.145-1.995m-1.145 1.995c1.012-1.018 2.01-2.446 2.806-3.345.728-.821 1.784-2.372 2.95-3.914m-4.611 5.264c.935-1.441 2.33-3.454 3.75-5.451m-3.75 5.451c1.37-1.795 2.786-3.553 4.164-5.34m-.415-.111c1.647-2.315 3.328-4.608 4.37-5.961 2.899-3.759-.449 1.235-1.126 2.22a88.5 88.5 0 01-2.83 3.852m-.414-.111c.138.043.276.08.415.111m-.415-.111a7.263 7.263 0 01-1.857-.9c-.655-.441-1.982-1.902-3.256-3.078m5.528 4.089c.149.033.298.059.447.076m0 0c1.457-1.926 3.088-3.837 4.465-4.287.086-.028.058.151-.047.466m0 0c-.74 2.225-5.297 11.247-.223 2.075.64-1.156 1.295-2.302 1.962-3.442m-1.739 1.367c1.678-3.357.989-6.317.27-10.709a23.46 23.46 0 00-.181-.977m1.65 10.319l.397-.677m-.397.677c.035-.911.093-1.807.17-2.704m-.17 2.704c-.03.796-.043 1.604-.034 2.435.054 5.121.477 5.493 1.004.34a55.32 55.32 0 00.278-4.884m-.85 1.432c.218-.372.438-.742.66-1.112m-.66 1.112c-.005-.826.003-1.652.017-2.478m-.018 2.478c.005.839.024 1.678.065 2.517.089 1.817.3-1.389.313-1.486.093-.715.188-1.429.282-2.143m0 0l.191-.32m-.19.32l.195-1.479m-.005 1.159a447.93 447.93 0 011.757-2.905m-1.757 2.905c.006-.387.007-.773.005-1.159m1.752-1.746a132.605 132.605 0 00-.913-5.582m0 0c-.224-1.22-.46-2.44-.706-3.668m.706 3.668a128.552 128.552 0 01-.414 3.954m.414-3.954c.263-3.012.389-6.031.235-9.064-.133-2.627-.527 1.099-.94 5.396m0 0c-.22-1.104-.447-2.212-.676-3.33-.056-.277-.673-2.528-.6-.916.049 1.064.104 2.126.157 3.188m1.118 1.058c-.103 1.074-.208 2.184-.31 3.239m-.808-4.297c.031.63.062 1.26.09 1.891m-.09-1.89c.09.82.145 1.622.218 2.296m-.218-2.297c-.167-1.514-.456-3.096-1.21-4.074-.072-.093-.163.168-.264.657m1.564 5.308v.014m0-.014l.128.406m-.128-.406l-.017-.053m.017.067c.08 1.78.137 3.561.134 5.348-.001.54-.007 1.08-.016 1.619m-.118-6.967l-.017-.067m.017.067c.054.205.105.41.154.616m-.035 6.351c-.005.328-.011.655-.018.982m.017-.982c-.246-.423-.446-.947-.61-1.519m.61 1.519c.029.049.058.096.087.141m-.104.841c-.015.771-.032 1.542-.044 2.313m.044-2.313l.104-.841m-.104.841a82.42 82.42 0 00-.289 2.764m.245-.451c.163-.35.309-.755.386-1.07.116-.476.204-.981.264-1.508m-.65 2.578a4.02 4.02 0 01-.245.451m1.083-.564c.12-.923.24-1.847.353-2.771m-.353 2.771a61.707 61.707 0 00-.061-2.372m.414-.399l.072-.603m-.072.603c-.065.322-.174.543-.356.435a9.818 9.818 0 01-.058-.036m.414-.399a4.81 4.81 0 00.072-.603m0 0c.027-.407.02-.779.019-.791-.053-1.175-.298-2.386-.621-3.592m0 0l-.085.865m.085-.865a50.46 50.46 0 00-.59-2m.505 2.865c-.024.252-.05.5-.074.741m.074-.741c-.11-.869-.27-1.755-.48-2.641m.48 2.641c.154 1.221.207 2.409.148 3.519m-.222-2.778a101.449 101.449 0 01-.354 3.11m.354-3.11c.092.927.167 1.853.222 2.778m-.222-2.778a82.745 82.745 0 00-.405-3.382m.051 6.492c.15.232.317.428.502.576m-.895 3.029c-.283.438-.55.522-.558-.437m1.58-2.499a63.853 63.853 0 00-.053-1.001m.053 1.001a1.924 1.924 0 01-.127-.093m.074-.908c-.016.309-.04.612-.074.908m-.553-7.068a15.6 15.6 0 01-.026-.224m-1.692-5.714a15.85 15.85 0 00-.095.514m.095-.514c.03.173.056.346.082.517.039.26.078.52.116.784m-.198-1.3a31.774 31.774 0 00-.695-3.2m.6 3.713l-.028.17m.028-.17c.1.275.199.539.293.787m-.293-.787a35.97 35.97 0 01-.336-.966m.308 1.135c-.035.212-.07.444-.105.689m.105-.689a25.052 25.052 0 00-.229-.465m.229.465c.117.245.23.492.34.742m-.445-.053l-.003.02m.003-.02c-.046-.434-.088-.832-.124-1.154m.124 1.154l.004.044m-.007-.024c-.029.2-.057.408-.086.623m.086-.623a87.285 87.285 0 00-.14-.438m.14.438l.007.024m-.093.599c-.05.383-.101.787-.15 1.2m.15-1.2c.033.787.05 1.561.05 2.333m-.05-2.333a79.145 79.145 0 00-.053-1.06m-.097 2.26c-.148 1.241-.282 2.56-.374 3.597m.374-3.596l.2 1.132m-.2-1.132c-.113-.629-.225-1.257-.335-1.885a24.942 24.942 0 00-.765-3.218m.726 8.699a31.507 31.507 0 00-.126 1.775c-.006.537.033 3.898.316 1.718a46.34 46.34 0 00.207-1.885m-.397-1.608c-.834-2.919-2.129-5.267-3.44-8.21-.743-1.665-1.621-3.53-2.59-5.212m6.03 13.422c.147.516.28 1.05.397 1.608m0 0c.122-1.378.177-2.72.177-4.072m0 0c.54 3.072 1.022 6.157 1.092 9.276m-1.195-12.67a77.043 77.043 0 00-.057-.884m.056.884a42.285 42.285 0 00-.721-2.085m.665 1.201a12.95 12.95 0 01-.032-.607m.032.607c-.211-.41-.433-.812-.666-1.2m.666 1.2l.075.148m-.107-.755c0-.08.01-.042.028.085m-.028-.085l.028.085m-.028-.085c-.381-1.161-.69-2.355-.668-3.159m.696 3.244c.018.134.046.369.08.67m.127 1.198c.17 1.63.383 3.734.455 4.182.131.826.258 2.497.578 4.074m-1.033-8.256l.134.427c.734 2.36.804 5.284.899 7.829m0 0c.076.376.163.746.264 1.098m-.264-1.098c.015.418.032.826.052 1.219.03.616 0 1.723-.036 2.733m.248-2.854c.022 1.625-.047 3.226-.246 4.758a7.232 7.232 0 01-.01.07m.256-4.828c-.043-3.134-.423-6.355-.857-9.345m1.33 3.83c-.241-.76-.482-1.507-.693-2.229m.694 2.229a26.862 26.862 0 00-.694-2.229m0 0a7.319 7.319 0 01-.013-.044c-.06-.208-.325-.851-.642-1.681m.655 1.725a25.737 25.737 0 00-.637-1.6m-.018-.126l.018.125m-1.343-5.12a1.6 1.6 0 01.11-.59m-.11.59c.172.201.32.373.432.495m-.432-.496c-.858-1.015-2.285-2.803-2.495-3.006a24.42 24.42 0 00-.813-.737m3.419 3.153a.615.615 0 01.307-.328m-.307.328c.114.36.221.723.32 1.087m-.32-1.087c-.6-1.882-1.416-3.707-2.506-5.31m2.813 4.982c.87-.4 2.838.774 4.835 2.254m-4.835-2.254c-.392-.584-.87-1.217-1.014-1.722-.586-2.06-1.26-6.482 1.543-3.573 1.816 1.886 3.204 4.839 4.306 7.549m-4.835-2.254c.496.738.856 1.397.23 1.615-.018.006-.096-.069-.216-.2m4.821.839c.27.2.539.404.806.612m-.806-.612c.372.913.71 1.8 1.022 2.607.083.214.377 1.263.673 2.352m-.889-4.347c.27.21.539.421.802.633m-.802-.633c-.049-.518.007-.852.311-.763m-.31.763c.028.298.09.656.161 1.03.207 1.094.455 2.212.727 3.317m-.087-3.714c1.02.818 1.966 1.626 2.684 2.238m-2.684-2.238a15.81 15.81 0 00-.49-1.396m.49 1.396c.26.844.476 1.697.713 2.43.448 1.381 1.12 7.971 1.7 3.515.176-1.354.275-2.574.271-3.707m0 0c.458.39.823.702 1.054.884.73.577-.047-.294-1.063-1.381m.01.497a20.19 20.19 0 00-.01-.497m0 0c-.784-.84-1.71-1.808-2.197-2.337-.46-.498-.768-.741-.969-.8M62.69 93.3c-.105-3.326-1.174-5.932-3.925-9.09-2.158-2.476-4.302-3.91-7.447-4.92a24.377 24.377 0 00-3.338-.806m11.544 11.679c-.23-.556-.5-1.072-.829-1.5-1.567-2.035-2.886-5.267-5.066-6.648-.34-.215-1.294-.645-2.59-1.153m9.063 14.41c.187.76.384 1.511.587 2.245.374 1.355-.11-.496-.587-2.244zM49.845 85.237c-1.688-1.478-4.613-3.846-3.19-2.544m3.19 2.544c-.346-.766-.677-1.54-1.169-2.216-.69-.947-1.91-1.74-.29-.996.839.385 1.758.94 2.372 1.055m-.913 2.157c.124.275.25.549.386.817m-3.576-3.361c.28.257.731.657 1.394 1.235.82.716-.797-.1-2.327-.938m.933-.297c1.463 1.108 2.634 2.186 3.576 3.36m-3.576-3.36a32.562 32.562 0 00-.33-.247c-.82-.606-.819-.106-.603.544m0 0a53.556 53.556 0 01-2.153-1.232c-1.564-1 1.154 1.434 1.344 1.643.537.587 1.107 1.18 1.678 1.785m-.87-2.196c.188.564.536 1.241.65 1.409.257.378.51.777.758 1.19m-.538-.403c.257.273.514.547.768.825m-.768-.825c.18.133.36.267.538.403m-.538-.403c-1.655-1.222-3.362-2.328-4.894-3.311-.018-.012-.376-.181-.899-.434m6.56 4.57l.052.055m-.051-.055l.024.01m.026.045c.965 1.058 1.886 2.158 2.595 3.327.55.905 3.28 2.572 2.685 1.696-1.166-1.713-2.798-3.294-4.582-4.734m-.697-.289c-.01-.015-.018-.03-.026-.045m.723.334c-.322-.26-.648-.515-.978-.766m.978.766a8.235 8.235 0 00-.408-.197l-.316-.137m.724.334c1.77.91 3.325 2.491 4.606 4.434m-5.584-5.2c.086.143.17.287.255.432m-6.586-4.58a86.488 86.488 0 01-3.008-1.512m3.008 1.512c-.953-.705-1.909-1.406-2.916-2.008m-.092.496c.03-.164.06-.33.092-.496m-.624.203a15.974 15.974 0 01-.216-.125m.216.125c-.062.486-.144 1.114-.238 1.804m.238-1.804l.025-.194m-.24.069c-.444-.261-.728-.464-.717-.55a1.19 1.19 0 01.082-.31m.634.86a22.5 22.5 0 00-1.48.488c-.144.054-.327.117-.534.187m2.014-.675l.241-.07m-.875-.79c.311.143.617.298.917.462m.166-1.252c.206-.055.435-.093.684-.116m-.684.116l.015-.109m.669-.007l.016-.001m-.016.001h.015m-.015 0c-.227.005-.45.007-.67.007m.686-.008l.124-.01m-.124.01l.002-.017m-.002.017v.001m.124-.011c.25-.017.519-.02.803-.011m-.803.011l.112.006m-.112-.006l-.122-.007m.925-.004c.408.013.85.052 1.315.112m-1.315-.112c1.678-.044 3.46-.082 4.979.31m-4.979-.31l-.691.017m2.006.095c1.043.135 2.209.379 3.406.683m-3.406-.683c1.22.054 2.444.108 3.664.198m-3.664-.198c-.67-.03-1.34-.06-2.006-.095m5.412.778c1.135.29 2.299.634 3.41.994m-3.41-.993c-2.019.01-4.047.282-5.927.755m5.927-.755a21.89 21.89 0 011.74.057m1.67.936c1.396.453 2.712.93 3.79 1.352m-3.79-1.352c1.405.948 2.561 2.174 3.51 3.568m-3.51-3.568a11.522 11.522 0 00-1.67-.936m5.46 2.288c-.36-.661-.903-1.103-1.553-1.509m1.553 1.509c.158.29.28.623.361 1.014.218 1.052-.09 1.305-.642 1.202m-2.78-4.594a34.936 34.936 0 00-2.197-.303m2.198.303a176.452 176.452 0 00-5.585-3.1m5.585 3.1l.026.016c.42.245.824.462 1.197.682m-3.421-1c-.56-.06-1.122-.11-1.684-.151m1.684.15c.78.257 1.554.504 2.259.725m-2.26-.725c-2.984-.98-6.071-2.102-5.799-2.461.189-.249 1.32-.33 2.413-.337m1.703 2.648c.212.055.42.118.62.191.296.107.583.225.862.352m-7.152-.836l-.237.005m.003-.018a83.99 83.99 0 01-.678-.04m.678.04c.182-1.112.294-2.224.151-3.236l-.002-.015m-.827 3.211l-.01.065m.01-.065c.17-1.216.415-2.791.606-3.314m-4.125 3.088l-.003.205m-.007.389l.007-.39m-.007.39c-.01.524-.018 1.033-.02 1.53m3.359-.472l-.042.329m.421-.114l.178.105m-.178-.105l.208-.053m-.03.158l.03-.159m-1.056 3.339l-.132.894m.132-.894l.164-1.172m-2.97.76a24.907 24.907 0 01-.079-1.648m.078 1.648c.017.205.038.41.062.614m-.14-2.262c-.005-.318-.006-.64-.005-.967m1.062.6c.744.5 1.491 1.101 1.992 1.254m.892-2.165c.096-.504.194-1.017.278-1.53m7.39.831c.833.06 1.657.17 2.46.332m0 0c.393.079.78.17 1.162.276m-1.162-.276c.53.166 1.02.317 1.446.447m-.284-.171c.642.176 1.266.39 1.866.644.019.008-.612-.177-1.582-.473m-.284-.171a9.7 9.7 0 01.284.171m-7.092-3.97c.879-.005 1.733.037 2.053.079l-2.526-.329m.473.25l-.473-.25m0 0l-1.892-.245c-.641-.084-1.184-.199-1.687-.414m3.579.66c-3.537-1.86-6.705-3.314-4.95-1.602a4.57 4.57 0 001.15.84m.221.102a4.144 4.144 0 01-.22-.103m.22.103c-.053-.362-.131-.347-.22-.103m12.11 11.68c.18.356.378.7.612 1.023a16.22 16.22 0 011.128 1.786m-1.74-2.808a13.501 13.501 0 011.74 2.808m0 0c.473.868.865 1.761 1.215 2.683m-1.215-2.683c.279.603.524 1.242.741 1.927m.474.756a19.84 19.84 0 00-.474-.756m2.392 15.511c-.052 1.481-.114 2.755-.007 1.974m.007-1.974c.013.574.012 1.148-.005 1.724-.002.09-.003.174-.002.25M27.5 77.405a30.61 30.61 0 01-.135-.008m.136.008c-.057-.028-.104-.033-.136-.008m0 0a71.206 71.206 0 01-5.616-.571c-1.58-.23-6.311-1.687-2.164-.401 1.87.58 3.801 1.016 5.576 1.803l.133.058m2.071-.89a.12.12 0 00-.038.065 6.23 6.23 0 00-.201 1.026m-1.832-.201c.496.218 1.33.578 1.784.867m-1.784-.867c.608.06 1.22.128 1.832.201m-1.832-.201a80.576 80.576 0 00-1.857-.163c-.918-.07-.797.083-.386.294m4.027.736c.362.23.482.415-.003.445m.003-.445c.007-.225.023-.447.048-.666m-.048.666a9.706 9.706 0 00-.003.445m0 0c-.22.014-.564-.003-1.066-.062a39.82 39.82 0 00-.56-.063m1.625.126c.003.182.01.365.022.55m-1.647-.676c-.544-.06-1.107-.114-1.681-.175m1.681.175a85.436 85.436 0 01-1.617-.7c-.217-.096-.453-.198-.65-.291m2.267.99c.547.23 1.096.456 1.647.677m-3.328-.85l-.783-.087m.783.086c-.19-.28-.386-.554-.585-.817m-.198.73c-2.87-.333-5.891-.906-7.946-2.838-3.022-2.842-5.702-5.95-7.971-9.344m15.917 12.183c0-.385.018-.696.066-.795m-.066.795c0 .76.062 1.808.068 2.076M7.068 67.03a49.105 49.105 0 01-1.69-2.715m1.69 2.715c-.056.21-.133.414-.238.61-.61 1.152-1.027-1.429-1.453-3.325m1.69 2.715c.072-.268.108-.545.121-.83m-1.81-1.885a47.962 47.962 0 01-2.223-4.34c-.386-.858.26.149.901 1.245m1.321 3.095a30.446 30.446 0 00-.05-.217m-1.27-2.878c.443.758.883 1.56.976 1.815.1.277.198.648.295 1.063M4.056 61.22c.375 1.043.803 2.048 1.272 2.878M4.056 61.22c-1.415-3.938-2.076-8.412-1.36-6.006.048.165.818 1.28 1.252 1.984m1.38 6.9c.428.758.89 1.37 1.379 1.73.164.121.324.246.481.373m0 0c.047-1.015-.203-2.108-.214-3.123-.04-3.863-.144-7.719.097-11.578.13-2.075.392-4.129.83-6.143M7.189 66.2c2.36 1.908 3.945 4.382 6.797 5.843l.081.043m-6.164-26.73a31.98 31.98 0 011.783-5.676c.111-.264.615-.962.856-.872M7.9 45.356a81.163 81.163 0 011.576-2.809m-1.575 2.809a184.169 184.169 0 00-1.962 3.78 8.323 8.323 0 01-.288.527m4.889-10.855c.086.032.138.167.126.46-.021.5-.056 1.002-.1 1.504m-.026-1.964a21.16 21.16 0 00-1.064 3.74m1.064-3.74c1.181-3.02 3.018-5.412 5.509-7.637m-5.483 9.601c-.242 2.744-.782 5.509-1.134 8.22-1.313 10.103-.647-1.835-.158-5.233.06-.414.127-.818.202-1.212m1.09-1.775a40.87 40.87 0 011.762-2.545c1.623-2.152 2.376-4.794 3.72-7.056m-5.482 9.601a56.117 56.117 0 00-1.09 1.775m6.573-11.376a37.813 37.813 0 012.69-2.174c.525-.389 2.576-1.451 3.572-1.755M16.05 31.17c.17-.285.348-.564.54-.835.606-.862 1.346-1.541 2.154-2.128m3.568-.965c.7-.214.879-.054-.356.975-1.607 1.339-3.264 2.513-4.925 3.792-.865.666-2.019 1.812-.436.123 1.049-1.117 3.53-3.581 5.717-4.89zm0 0c.656-.393 1.285-.681 1.842-.8m0 0a2.89 2.89 0 01.204-.035m-.204.036c.015-.07.027-.141.036-.212.14-1.082-4.83 1.672-4.989 1.748-.152.073-.305.149-.457.228m5.41-1.764c-.157.75-.623 1.478-1.199 2.157m1.403-2.193a2.23 2.23 0 01.321-.022c1.077.005.845.43-.022 1.082m-.3-1.06a5.375 5.375 0 00-.597-1.247m.598 1.247c.116.337.214.694.299 1.06m0 0c-.436.328-1.032.714-1.702 1.133m1.702-1.133c.062.27.117.545.168.82m-1.87.313c-1.988 1.243-4.632 2.78-5.699 3.978-2.694 3.024-4.114 7.625-5.518 11.352-2.093 5.555-3.589 12.76-3.513 18.74.047 3.727 4.695 6.5 7.278 8.523 1.975 1.546 3.762 2.151 6.045 3.031.77.297 3.93.93 3.245.841-2.053-.267-5.462-.002-7.289-1.067-1.042-.607-1.913-1.746-3.166-1.909a.765.765 0 00-.272-.003m8.89-43.486c-.817.964-1.855 1.831-2.547 2.53-1.67 1.689-.74 1.222.863 1.43 1.982.258 2.56 1.46 3.218 3.353.634 1.826.808 3.789 1.268 5.63M14.066 72.086c-.469.136 2.446 1.563 3.693 2.372m-3.693-2.372c.856.461 3.015 1.914 3.693 2.372m0 0c.076.049.145.095.207.14l-.207-.14zM3.948 57.198c.21.343.342.588.27.58-.118-.016-.206-.252-.27-.58zm0 0c-.149-.758-.171-2.014-.143-2.23.193-1.488.522-4.073.887-6.502m0 0C5.295 44.46 6 40.875 6.367 43.322c.022.148.039.298.05.452m-1.725 4.692c.029.798.07 1.597.294 1.762m-.294-1.762c-.011-.326-.021-.652-.04-.935-.145-2.116.114-4.106.385-6.196l.014-.101c.397-3.055 1.427-4.686 3.084-7.146 2.385-3.539 4.5-7.559 8.387-9.692.895-.49 8.392-4.933 5.597-2.507a69.9 69.9 0 00-3.206 2.971M6.418 43.774c.142 1.8-.376 3.952-.766 5.89m.766-5.89c-.65 2.097-1.087 4.228-1.432 6.454m1.432-6.454a30.955 30.955 0 011.918-4.778c1.06-2.11 2.63-4.277 4.457-6.186M5.652 49.663a26.597 26.597 0 00-.312 1.791c-.124.95-.958 3.226-.672 1.02.099-.76.203-1.508.318-2.246m.666-.565c-.32.529-.528.668-.666.565m7.807-17.418c.137-.143.275-.285.415-.425m-.415.425c-.027.692.237.878.415-.425m-.415.425c.014-.357.105-.848.324-1.34 1.096-2.448 3.31-5.196 5.796-6.61m-5.705 7.525c1.708-1.71 3.617-3.185 5.536-4.178m-5.536 4.178a6.98 6.98 0 00.008-.063c.134-1.026.502-1.77 1.173-2.573a69.765 69.765 0 014.524-4.889m-.17 3.347c1.576-1.146 3.41-1.94 5.017-3.047m1.997 16.383c.165.662.367 1.307.64 1.925m-.64-1.925c.102-1.8.333-3.636.407-5.382a7.93 7.93 0 00-.036-1.121m-.37 6.503a23.986 23.986 0 00-.026 2.558c.003.061.008.124.015.189m.65-.822c.017.859.047 1.633.086 2.289m-.086-2.289a111 111 0 01.096-6.943m0 0c-.12-.496-.243-.991-.365-1.485m0 0c-.312-1.262-.625-2.517-.916-3.764-.28-1.2-.85-2.051-.387-2.989m1.303 6.753c-.17-1.708-.797-3.428-1.042-5.099l-.016-.106c-.073-.5-.15-1.026-.245-1.548m3.255-2.545a4.06 4.06 0 011.646-.169l.247.026m-1.893.143c.303-.58.652-.838 1.052-.666.295.128.575.305.841.523m4.761.685c1.236.24 2.46.54 3.647.918m-3.647-.918c.248.929.475 1.857.655 2.777m-.655-2.777a88.16 88.16 0 00-.192-.711m3.839 1.63l.127.04m-.127-.04l.053.04c.496.376 1.018.66 1.546.926m-1.6-.967c-.095-.077-.03-.05.128.041m0 0c.42.137.836.284 1.246.442.269.103 1.15.675 1.81 1.134m-3.056-1.576c.306.176.96.587 1.472.926m1.585.65c.774.537 1.245.92.08.22a9.761 9.761 0 00-.238-.14m.158-.08c.183-.052.467-.03.876.083.12.034.245.072.374.116m-1.25-.2a.4.4 0 00-.158.082m0 0c-.472-.267-.952-.492-1.427-.731m1.427.73c-.08.07-.115.17-.116.296m-1.31-1.026c.311.206.571.386.667.47.214.187.428.372.643.556m0 0c.489.42.979.835 1.462 1.256m-1.462-1.256c0 .198.087.458.23.755m1.232.5c2.254 1.96 4.358 4.013 5.465 6.92m-5.465-6.92a13.637 13.637 0 00-1.232-.5m1.232.5c.38.18.702.36.945.532.775.551 6.28 5.108 6.166 4.635-.194-.8-.592-1.754-1.096-2.714m-.55 4.467c.04.107.08.215.118.324 1.562 4.494 2.377 9.836 2.092 14.557-.205 3.398-.933-6.802-2.147-9.982-1.216-3.183-4.598-4.798-7.072-6.878a57.419 57.419 0 01-1.717-1.501m8.726 3.48c2.207 3.016 3.848 6.475 4.594 10.13l.001.006M48.218 37.37a29.6 29.6 0 00-2.664-3.152c-.672-.69-1.446-1.185-2.28-1.551m-3.782 1.223a52.536 52.536 0 01-2.486-2.421m2.486 2.42a252.664 252.664 0 00-2.44-2.58m2.44 2.58c2.152 2.309 4.506 4.918 5.686 6.45 1.495 1.942 3.13 4.857 3.788 7.26.354 1.292.314 4.232 1.05 5.288.288.413 1.148.688 2.26.877m-15.27-22.295a61.156 61.156 0 01-.354-.371m.354.371a1.43 1.43 0 01.046-.16m-.4-.211a68.837 68.837 0 01-1.115-1.208m1.115 1.208l.269.075m-.27-.075a19.865 19.865 0 01-.987-.31m-.127-.898c-.838-.93-.712-.848-.027-.163m.027.163c.049.3.091.6.127.899m-.127-.899a32.413 32.413 0 00-.027-.163m0 0c.346.346.833.845 1.41 1.446m-1.41-1.446a27.2 27.2 0 00-.121-.666m1.532 2.112l.13.136m-.13-.136l.166.045m-.035.091c.01-.032.023-.062.035-.091m15.189 22.546c1.57.267 3.64.36 5.303.424m-5.303-.424a5.632 5.632 0 01-1.761.355c-1.04.053-2.388-.486-1.737 1.152.382.963.76.908 1.752 1.037 2.543.33 5.856.16 7.049-2.12m-5.303-.424c.964-.374 1.673-1.012 2.206-1.812m3.097 2.236l1.019.038m-1.02-.038a3.97 3.97 0 00.41-1.344c.518-3.99.874-7.793.337-11.815l-.005-.04c-.097-.724-1.05-7.86-.892-7.803.575.208 1.047 2.71 1.178 3.147.965 3.245 1.58 6.658 1.3 10.052-.11 1.31-.086 3.91-.785 5.11-.403.69-.527 2.058-1.271 2.41-.284.134.166.244.748.321m0 0c.673.027 1.215.053 1.534.095.455.06-.682.018-1.534-.095zm-4.116-2.274a6.73 6.73 0 00.496-.89m-.496.89c.12.024.27-.181.456-.762l.04-.129m-.496.891c-.34-.066-.436-1.96-.383-2.368.644-4.957 2.255-10.59 1.184-15.569-.089-.415-1.72-4.878-1.923-3.634a58.385 58.385 0 00-.561 4.547m2.179 16.133c.806-1.733 1.057-3.933 1.308-5.865.455-3.498-.662.947-.82 2.17-.155 1.189-.151 2.542-.488 3.695zm-2.179-16.133c-.014.162-.027.323-.039.485m.039-.485c1.571 1.163 2.205 1.789.773.961a72.574 72.574 0 01-.812-.476m.039-.485a72.502 72.502 0 00-4.676-3.158m4.637 3.643c-.3 3.912-.231 7.81.032 11.785l.021.308m-.053-12.093a108.08 108.08 0 01-3.992-2.51m4.045 14.603c.234 3.085.728 3.567 0 0zm-9.54-14.84c-.955-.418-1.99-.669-3.04-.85m3.04.85c-.551-.823-1.36-1.905-1.752-2.716m1.753 2.717c.778 1.16 1.047 1.807-1.082.456-.524-.333-1.215-.853-1.96-1.307m0 0a38.797 38.797 0 00-1.584-.232c-.1-.013-.765-.153-1.56-.366m3.145.598c-.93-.567-1.944-1.032-2.815-.901-.154.023-.258.14-.33.303m-1.424-.43c-1.148-.396-2.059-.876-1.477-1.281.315-.22.726-.364 1.202-.446m0 0c1.7-.293 4.222.21 6.132.889m7.247 2.953c-.2-.38-.417-.76-.645-1.133m.645 1.133a288.608 288.608 0 01-3.021-2.014 61.972 61.972 0 00-2.931-1.87m5.307 2.751c-.719-1.176-1.545-2.264-2.285-2.965-.578-.547 3.028 1.304 3.702 1.469 4.25 1.04-2.746-3.561-2.094-3.477.367.048.815.09 1.287.154m-.61 4.82c-1.918-1.19-3.894-2.274-5.307-2.753m5.917-2.067c1.119.152 2.37.43 2.969 1.208.23.299-.72-.236-1.056-.407a15.858 15.858 0 00-1.913-.801zm0 0c-1.335-.47-2.726-.827-4.044-1.29-3.31-1.165-6.924-1.244-10.448-1.165m0 0c.1.359.202.718.3 1.077m-.3-1.077c-.44-1.556-.884-3.101-1.201-4.602a116.52 116.52 0 01-.148-.707m1.65 6.386c.499.11.907.204 1.11.26 2.576.717 4.916 1.848 7.163 3.185M28.038 48.317a27.574 27.574 0 01-1.554-2.56m0 0a31.481 31.481 0 01-.736-1.467m7.145-25.103c-.32-1.561-.45-2.387-.456-2.697m.456 2.697c.1.157.198.319.296.487.416.712 1.276 4.989 1.075 3.254-.165-1.418-1.084-4.83-1.552-6.099m-.275-.339c-.005-.298.105-.12.275.34m-.275-.34c.092.112.184.225.275.34m-8.95 8.33c-.724-1.073-1.877-1.578-3.82-.799-.346.14-.69.307-1.028.5m6.834 19.429c.163 1.565 1.325 4.056-.175.809-.274-.594-1.18-3.857-.206-1.644.126.284.252.562.38.835zM23.05 78.417c.041.02.085.043.132.064m-.132-.064c.02-.042.046-.046.079-.004l.053.069m20.171 33.955c-.524-.485-1.04-.922-1.496-1.22m1.496 1.22a30.793 30.793 0 001.402 3.532m-1.402-3.532a20.338 20.338 0 01-.805-3.469c-.374-2.751.819-8.794-1.057-11.203m.366 13.452a3.528 3.528 0 00-.505-.28m.505.28c.03.65.017 1.11-.174.723a4.607 4.607 0 01-.331-1.003m.505.28c-.028-.606-.094-1.378-.088-1.782.048-3.488-.008-6.975-.259-10.455-.012-.165-.004-.633-.02-1.215m-.138 13.172a1.266 1.266 0 00-.482-.121c-2.214-.011 2.037 2.816 3.885 5.153m-3.403-5.032c-.494-2.18-.345-5.863-.553-7.408a92.423 92.423 0 00-.053-.386m4.009 12.826c.313.396.558.779.69 1.131.108.291.448 1.153.305.879a48.62 48.62 0 01-.995-2.01zm-3.264-18.204a2.868 2.868 0 00-.158-.186c-.052-.056-.334 3.549-.587 5.564m0 0c-.19 1.522-.365 2.137-.41-.423-.046-2.514.227-.884.41.423zM23.053 81.288v.02c.028 2.159-1.813-2.724-1.272-1.962a30.98 30.98 0 011.272 1.942z" stroke="#0FA4A4" stroke-width="3" stroke-linecap="round"/></svg>