<svg width="100" height="100" viewBox="0 0 100 100" fill="none" xmlns="http://www.w3.org/2000/svg"><g clip-path="url(#clip0_35_36608)"><path d="M58.812 14.623c-11.015-.348-22.03 5.681-30.261 14.261-9.16 9.623-9.044 22.609-4.87 34.087 1.855 5.102 5.102 9.971 9.855 13.102 4.406 2.782 9.74 4.057 15.073 4.521C70.406 82.334 90 71.9 89.304 50.681c-.347-10.087-3.826-20.522-11.478-27.826-5.913-5.565-12.522-8.116-19.014-8.232z" fill="#33BFA6" stroke="#33BFA6" stroke-width=".8" stroke-miterlimit="10"/><path d="M41.304 19.029c6.493-1.74 13.681-1.391 19.826 1.275a24.89 24.89 0 018.232 5.45c2.32 2.55 3.71 5.449 5.102 8.463 2.666 5.797 5.449 12.174 5.333 18.551 0 3.015-.811 5.913-2.782 8.232-2.435 2.667-6.03 4.638-9.624 3.826-4.058-.811-7.304-4.174-9.275-7.652-1.74-2.899-3.942-7.884-.464-10.319 1.16-.927 0-2.898-1.16-1.971-3.477 2.435-3.362 6.493-1.97 10.087 1.507 3.826 3.942 7.304 7.304 9.74 3.247 2.434 7.536 3.361 11.362 1.738 3.479-1.507 6.377-4.29 7.769-7.768 2.782-6.724.116-14.609-2.551-20.87-1.392-3.478-2.667-7.072-4.754-10.086a22.995 22.995 0 00-8-7.653c-7.304-4.521-16.696-5.449-24.927-3.246-1.392.348-.812 2.55.58 2.203zM15.101 48.478c2.667-9.391 6.841-18.666 14.61-24.811 1.159-.928-.465-2.551-1.624-1.623-8 6.376-12.406 16.116-15.072 25.739-.464 1.507 1.739 2.087 2.086.695zm4.639 25.276c5.796 6.724 14.376 10.318 22.84 12.29 7.652 1.739 15.768.231 22.145-4.29 3.594-2.435 6.608-5.797 8.463-9.74a21.01 21.01 0 01-2.087-.58c0 .465-.115.928 0 1.392 0 .116-.115.348-.115.348.115.232 1.855-.232 1.739 0 0-.116 0-.58.348-.928a15.005 15.005 0 01-1.971-.811c-.464 4.29-3.943 7.768-7.769 9.16-1.739.579-3.362 1.39-5.101 1.97a30.66 30.66 0 01-5.218 1.392c-7.072 1.507-14.84 1.39-21.333-2.087a20.957 20.957 0 01-8.696-8.696c-.695-1.276-2.666-.116-1.97 1.16 4.058 7.42 11.246 11.593 19.478 12.521 4.058.58 8.232.232 12.29-.464a53.32 53.32 0 005.797-1.507c1.855-.58 3.71-1.507 5.565-2.203 4.754-1.739 8.696-6.029 9.16-11.246.115-.928-1.276-1.508-1.856-.812-.927.928-1.623 2.899-.463 3.942.58.58 1.507.464 1.97-.232.464-.811.464-1.97.348-2.898 0-1.044-1.507-1.623-2.087-.58-3.13 6.609-9.275 11.246-16.347 12.87-7.537 1.855-15.653-.232-22.61-3.479-4.057-1.97-7.883-4.637-10.898-8.116-.927-1.043-2.55.58-1.623 1.624z" fill="#fff"/><path d="M28.55 65.29c3.479 5.797 11.131 6.493 17.044 4.29 7.305-2.55 11.015-9.392 12.058-16.696.58-3.478.928-7.884-1.391-10.782-.58-.58-1.74-.232-1.971.58-.696 2.898-.58 6.028-.232 9.043.348 2.782 1.044 5.913 2.55 8.348 1.508 2.434 3.943 4.405 6.378 5.797 2.318 1.275 4.87 1.97 7.42 1.391 8.811-1.855 8.811-14.145 8-20.985-.58-4.29-1.623-8.232-3.479-12.174-2.898-6.145-6.956-11.71-13.449-14.493-6.145-2.55-13.333-3.247-19.71-1.392-6.493 1.856-12.174 5.798-17.043 10.435-4.638 4.522-9.276 9.74-11.595 15.884-2.434 6.261-2.203 13.45.464 19.594.812 1.624 1.623 3.131 2.667 4.638.812 1.16 2.783.116 1.97-1.16-3.71-5.449-5.332-11.477-4.173-17.97 1.16-6.145 4.754-11.13 8.696-15.652 4.058-4.638 8.811-8.696 14.376-11.479 5.566-2.898 11.595-3.71 17.74-2.55 3.014.695 6.029 1.623 8.695 3.246 2.667 1.74 4.754 4.058 6.493 6.725 2.435 3.826 4.406 8.116 5.45 12.637.81 3.71 1.159 7.653.927 11.595-.232 3.362-1.044 7.188-3.71 9.507-3.595 3.13-8.348.811-11.479-1.74-1.97-1.739-3.246-3.71-3.942-6.144-.927-2.783-1.275-5.797-1.275-8.696 0-1.275.116-2.55.464-3.826l-1.855.464c1.623 2.087 1.275 5.68.927 8.116-.348 3.13-1.16 6.145-2.782 8.811-3.015 5.334-8.696 8.232-14.841 7.768-3.014-.231-5.797-1.623-7.536-4.29-.696-1.275-2.667-.115-1.855 1.16z" fill="#fff"/><path d="M53.13 41.754c-8.927-2.087-19.71 1.97-24.116 10.203a15.993 15.993 0 00-1.97 7.652c0 1.507 2.318 1.507 2.318 0 0-11.247 12.986-18.087 23.189-15.653 1.391.348 1.97-1.855.58-2.202z" fill="#fff"/><path d="M57.42 42.565c-1.507-.232-2.898-.811-4.406-1.275-1.623-.464-3.246-.812-4.87-1.276-1.158-.463-2.202-.927-3.477-.811-1.392.116-2.899.58-4.058 1.16-2.32 1.159-4.638 2.898-6.493 4.753-.928.927-1.7 1.97-2.319 3.13-.348.58-.58 1.16-.927 1.623-.464.696-.928 1.276-1.276 1.971-.927 2.32-1.507 4.754-1.623 7.189-.116 1.16 0 2.319.464 3.362.464 1.276 1.391 2.203 2.435 3.247.927.927 1.97 2.203 3.13 3.014.928.58 1.971 1.044 3.13 1.275 2.32.464 4.986.696 7.42.232 2.783-.695 5.45-3.014 7.537-4.985.927-.928 1.74-1.971 2.55-3.13.696-.812 1.508-1.972 1.392-3.131-.116-1.391-2.435-1.391-2.203 0 0 .812-.696 1.507-1.16 2.087a19.478 19.478 0 01-2.086 2.435c-1.623 1.623-3.71 3.478-5.913 4.29-1.855.695-4.174.463-6.145.116-.928-.116-1.855-.348-2.783-.812-1.043-.58-1.855-1.507-2.666-2.435-.812-.811-1.971-1.623-2.435-2.666-.464-.928-.464-2.087-.348-3.131.116-2.087.58-4.406 1.507-6.26.58-1.044 1.275-1.856 1.74-2.783.579-1.16 1.275-2.203 2.202-3.015 1.623-1.623 3.478-3.014 5.45-4.174 1.159-.58 2.55-1.16 3.825-1.16 1.276 0 2.667.812 3.942 1.16 1.392.464 2.9.696 4.29 1.16 1.392.463 2.783.927 4.174 1.159 1.508.116 1.508-2.087 0-2.319zM77.942 61.58c.928-1.855 2.203-3.594 2.55-5.681.233-1.276.117-2.667.117-3.942 0-1.276-.232-2.551-.464-3.943-.348-1.39-2.55-.811-2.203.696.232 1.044.348 2.087.348 3.247 0 1.159.116 2.318 0 3.478-.232 1.855-1.507 3.362-2.319 4.985-.696 1.392 1.275 2.551 1.971 1.16zM15.45 59.725c-.464-1.044-.928-1.971-1.74-2.783-.58-.464-1.739-.348-1.855.464-.464 2.203-.928 4.985.58 6.84.464.696 1.855.812 2.087-.231.348-2.203-.116-4.29-1.276-6.03-.58-.811-1.507-.811-1.97 0-.928 1.392-.464 3.131.115 4.638.696 1.623 1.276 3.247 2.203 4.754.928 1.391 2.087 2.782 3.247 4.058 1.043 1.16 2.318 2.55 3.942 3.014 1.39.348 1.97-1.855.58-2.203-1.16-.347-2.088-1.507-2.9-2.434-.927-1.044-1.97-2.203-2.782-3.478-.811-1.16-1.391-2.551-1.855-3.943-.348-.811-1.16-2.434-.58-3.362h-1.97c.811 1.391 1.275 2.783 1.043 4.29l2.087-.232c-1.16-1.391-.812-3.362-.464-4.985l-1.855.463c.696.58 1.043 1.508 1.391 2.32.696 1.275 2.667.115 1.971-1.16z" fill="#fff"/><path d="M15.333 57.29c-.811-1.044-1.623-1.971-2.434-2.899-.348-.347-.928-.463-1.276-.231-.464.115-.695.463-.695 1.043-.116.927 0 1.971.231 3.014.232 1.237.541 2.474.928 3.71.812 2.087 1.971 4.87 4.174 5.682 1.391.464 1.97-1.74.58-2.203.232.116-.116-.116 0 0l-.232-.232c-.232-.116.116.116-.116 0l-.232-.232c-.348-.348-.464-.464-.696-1.043-.58-.928-1.043-1.855-1.391-2.899a18.869 18.869 0 01-.812-3.478c-.116-.58-.348-1.508-.232-2.32l-1.855.697c.696.927 1.508 1.739 2.087 2.55.348.58 1.044.812 1.623.464.464-.348.696-1.043.348-1.623z" fill="#fff"/><path d="M14.406 64.826c1.507 5.102 3.13 11.942 8.348 14.493.695.348 1.739 0 1.739-.928-.116-1.855-1.508-3.594-2.551-4.985-1.043-1.276-2.55-3.13-4.174-3.479-1.043-.231-1.855.812-1.275 1.624 2.319 3.942 5.68 7.188 9.507 9.507 1.044.695 2.319-.812 1.391-1.74-2.55-2.434-5.101-4.637-7.536-7.072-1.043-1.043-2.203-2.087-2.782-3.362-.58-1.043-1.044-2.203-2.203-2.783-1.044-.347-2.087.58-1.624 1.624a44.249 44.249 0 005.913 8.695c2.32 2.55 5.102 4.87 8.348 6.03.812.347 1.74-.58 1.392-1.392-1.044-3.478-4.174-5.565-6.261-8.232-.348-.58-1.044-.812-1.623-.464-.464.232-.696 1.044-.348 1.508 1.043 1.39 2.203 2.55 3.362 3.826 1.044 1.159 2.203 2.434 2.783 3.942l1.39-1.392c-3.014-1.043-5.564-3.362-7.651-5.68-2.087-2.436-3.942-5.102-5.334-8a13.884 13.884 0 01-1.507 1.506c.928.464 1.16 1.74 1.623 2.551.812 1.275 1.971 2.319 3.13 3.362 2.32 2.435 4.87 4.638 7.305 6.957.464-.618.928-1.198 1.391-1.74a26.677 26.677 0 01-8.811-8.81 14.37 14.37 0 01-1.275 1.738c.347 0 .927.464 1.39.812a38.316 38.316 0 011.74 1.855 9.82 9.82 0 011.391 2.087c.155.232.31.502.464.812 0 .154.039.309.116.463.116.232 0 .116 0 .232a12.94 12.94 0 001.739-1.043c-2.319-1.16-3.71-3.478-4.754-5.797-1.159-2.32-1.855-4.87-2.55-7.305-.348-1.507-2.551-.811-2.203.58zm18.087-44.29c-1.044 1.044-1.855 2.319-2.551 3.594-.464.928.58 2.203 1.623 1.624 1.391-1.044 3.015-1.856 3.71-3.595.348-.811-.695-1.623-1.39-1.39-4.059 1.506-6.494 4.753-9.856 7.188.541.463 1.044.966 1.507 1.507a5.946 5.946 0 011.392-1.392l-1.624-1.623c-1.97 1.971-4.521 3.13-5.797 5.565-.58 1.044.464 2.087 1.508 1.508 1.159-.58 2.318-1.623 3.362-2.551 1.16-.927 2.55-1.971 3.478-3.246 1.275-1.624-.464-2.783-2.087-2.203-1.739.695-3.13 2.203-4.522 3.362-.811.812-1.623 1.623-2.319 2.55-.811 1.16-1.39 2.552-1.854 3.943-.464 1.043.811 1.739 1.623 1.275 1.507-.696 2.203-2.319 3.246-3.478 1.275-1.623 3.014-2.667 4.406-4.058 1.043-1.044-.464-2.55-1.623-1.623-2.087 1.739-4.522 3.13-6.261 5.333-1.74 2.319-2.435 5.102-3.71 7.652.695.232 1.39.503 2.087.812 1.739-4.986 5.797-8.812 8.927-12.986.812-1.043-.927-2.203-1.739-1.391-4.522 3.826-8.464 8.58-9.74 14.493-.347 1.391 1.856 1.97 2.204.58.811-3.015 2.434-5.682 3.478-8.58.348-.928-.927-1.855-1.623-1.276-5.333 3.595-5.102 10.435-7.073 15.884.696.232 1.43.426 2.203.58.464-3.014 1.508-5.797 3.015-8.464.58-.927-.58-2.318-1.507-1.623-.58.58-1.624 1.044-1.856 1.855-.231.812.232 1.508 1.044 1.623 1.275.116 2.319-1.275 2.55-2.434.117-1.16-1.275-1.392-1.97-.812-3.363 2.667-2.551 7.652-2.435 11.362.116 1.392 2.319 1.392 2.319 0-.232-3.13-1.044-7.536 1.739-9.739a35.63 35.63 0 00-1.971-.811c0-.232-.116 0-.232.116-.348.58-.58-1.16.812.347.154.31.27.58.347.812 0 .464-.348.464.116.232.232-.116.464-.464.696-.58a28.835 28.835 0 01-1.623-1.507c-1.508 2.783-2.667 5.797-3.247 9.044-.232 1.507 1.624 1.97 2.203.58 1.623-4.639 1.392-11.48 5.913-14.494a23.349 23.349 0 00-1.623-1.275c-1.043 2.899-2.667 5.565-3.478 8.58.696.232 1.43.425 2.203.58 1.16-5.566 4.87-9.856 9.043-13.45a34.19 34.19 0 00-1.739-1.391c-3.362 4.406-7.304 8.348-9.16 13.565-.463 1.16 1.508 1.971 2.088.812 1.16-2.435 1.855-5.102 3.594-7.305 1.623-2.087 3.942-3.478 6.029-5.101l-1.623-1.623c-1.392 1.275-2.899 2.319-4.174 3.71-.928 1.16-1.623 2.898-3.015 3.594.541.387 1.082.812 1.623 1.275.464-1.275 1.044-2.55 1.856-3.71.58-.695 1.275-1.275 1.97-1.855.696-.695 1.392-1.391 2.088-1.97.463-.233.811-.465 1.159-.696.696-.348.58 0 .232-.812s-.116-.928-.464-.58c-.232.31-.464.58-.696.812A41.432 41.432 0 0123.217 29c-1.043.927-2.087 1.971-3.362 2.667.541.463 1.044.966 1.507 1.507 1.276-2.203 3.826-3.362 5.566-5.102 1.043-1.043-.58-2.55-1.624-1.623-.695.58-1.16 1.16-1.739 1.855-.58.928.696 2.203 1.623 1.623 3.13-2.318 5.566-5.565 9.276-6.956l-1.392-1.391c-.463.927-1.855 1.623-2.666 2.203.54.463 1.043.966 1.507 1.507.696-1.16 1.275-2.319 2.203-3.246 1.043-.928-.464-2.551-1.623-1.508z" fill="#fff"/><path d="M29.478 24.13c1.044 0 1.971-.116 2.899-.58 1.043-.58 2.319-1.043 3.362-1.739 1.044-.58 1.623-.811 2.667-.927.811-.116 1.739-.232 2.319-.812.58-.58.347-1.623-.464-1.855-2.203-.695-4.522 0-6.493.928-.927.58-1.97 1.16-2.898 1.855-.464.348-1.508 1.97-2.32 1.855.387.232.735.425 1.044.58 0 0 0 .927-.116.811.116 0 .232-.116.232-.116.116-.116.348-.232.464-.348.464-.309.966-.618 1.507-.927a21.196 21.196 0 013.247-1.623c1.159-.58 2.434-.58 3.942-.928 1.043-.232 2.666-.232 3.246-1.275a1.132 1.132 0 00-.58-1.74c-1.275-.347-2.55 0-3.71.464-1.275.58-2.55 1.044-3.826 1.74-1.391.695-2.667 1.39-3.942 2.319-1.507 1.043-3.13 1.623-4.754 2.55.464.541.928 1.121 1.392 1.74a21.767 21.767 0 014.87-3.131l-1.392-1.855c-3.247 3.13-7.189 5.45-9.971 9.16-2.55 3.246-5.102 6.724-6.377 10.666-.348 1.043-.812 1.97-.927 3.014-.232 1.044-.232 2.087-.116 3.13v7.421c0 2.087-.232 4.29.232 6.377.58 2.319 1.97 4.058 3.246 5.913.58 1.044 1.275 1.971 1.97 2.898.696.928 1.392 1.856 1.972 2.9.927 1.854 1.391 3.825 3.014 5.332 1.16.928 2.667-.58 1.624-1.623-1.392-1.16-1.74-2.898-2.435-4.406-.812-1.739-2.203-3.13-3.247-4.753-1.159-1.623-2.55-3.362-3.362-5.333-.927-1.856-.812-4.058-.812-6.145v-6.61c0-2.086-.231-4.173.464-6.144.696-1.971 1.392-3.826 2.551-5.565 1.16-1.74 2.203-3.363 3.362-4.986 2.899-3.942 6.957-6.377 10.435-9.623 1.044-.928-.232-2.319-1.391-1.74a28.654 28.654 0 00-5.333 3.48c-1.044.81.347 2.318 1.39 1.738 1.392-.695 2.783-1.16 4.059-1.97 1.16-.812 2.319-1.624 3.594-2.32a49.24 49.24 0 013.594-1.623c.928-.463 2.203-1.043 3.13-.811a13.609 13.609 0 01-.58-1.624c.233-.231.233-.27 0-.116a1.91 1.91 0 00-.579.116 2.57 2.57 0 01-.811.116c-.696.155-1.392.27-2.087.348-1.16.232-2.087.464-3.13.928-1.856.811-3.827 1.739-5.334 3.13-.696.464-1.16 1.276-.696 2.087.696 1.391 2.435.464 3.247-.348.58-.463.927-1.043 1.623-1.507.695-.464 1.43-.928 2.203-1.391 1.391-.812 3.246-1.392 4.87-.812a77.469 77.469 0 00-.465-1.97c.116-.117 0 0-.115 0-.116 0-.348.115-.58.115a5.373 5.373 0 01-1.044.116c-.927.116-1.623.464-2.434.928-.812.58-1.855.927-2.783 1.507-.928.464-1.507.695-2.667.695-1.391 0-1.391 2.32 0 2.32z" fill="#fff"/><path d="M27.971 55.55c0 2.668-1.623 6.61 1.275 8.349 1.044.58 2.087-.58 1.508-1.508-.232-.58-.464-1.39-.696-2.203-.232-.811-.696-1.623-1.275-2.318-.696-.58-1.74-.348-1.971.58-.928 3.014 1.275 6.84 4.173 8.115.464.232.928.232 1.276-.231.348-.348.464-.928.232-1.392-.232-.464-.696-.811-.928-1.391-.232-.58-.232-1.276-.464-1.971-.231-.58-.811-.928-1.39-.812-.58.232-1.044.812-.813 1.392.232.695.232 1.507.58 2.202.232.696.696 1.16 1.044 1.74a13.876 13.876 0 001.507-1.508c-1.044-.463-1.855-1.275-2.435-2.318-.348-.58-.58-1.044-.696-1.74-.115-.463 0-1.043.117-1.507l-1.856.464c.464.464.58 1.043.812 1.739.232.812.464 1.507.927 2.319.464-.541.967-1.082 1.508-1.623-.464-.232-.464-.348-.58-.812v-1.391c0-1.392.348-2.783.464-4.174 0-1.507-2.319-1.507-2.319 0zM43.16 39.898l-.348.348c-.464.696-.348 1.74.58 1.971 1.275.348 2.666.232 4.057.116 1.392-.116 3.015-.463 4.174.348 1.276.812 1.623 1.74 2.087 3.13.232.696.58 1.276.812 1.856.232.811.116 1.739.116 2.666 0 1.392 2.203 1.392 2.319 0 .115-2.898-1.044-5.913-3.13-7.884-1.083-1.005-2.32-1.662-3.711-1.97-.812-.117-1.74-.233-2.55-.349-.928-.116-1.972.116-2.783-.116l.695 1.624c.232-.464 1.16-.232 1.623-.116.928.348 1.508.695 2.551.695 1.507.116 2.435 1.74 3.71 2.435 1.044.464 2.435-.927 1.392-1.739-.812-.696-1.624-1.043-2.435-1.507l-2.435-1.392c-1.97-.927-3.71-.463-5.797-.347-1.391 0-1.391 2.203 0 2.203 2.55 0 5.333-.58 7.884.115 1.275.464 4.406 2.203 3.942 3.943a17.078 17.078 0 001.855-.58c-1.043-.928-1.391-2.435-2.435-3.478-.811-.928-2.55.231-1.739 1.39 1.623 2.436 1.508 5.218 1.276 8-.232 1.508-.232 3.015-.58 4.407-.116.695-.232 2.203-.812 2.55.619.31 1.198.657 1.74 1.044 0-.696.347-1.392.58-2.087.231-.812.347-1.74.463-2.55.232-1.74.232-3.363.232-5.102 0-.928-1.276-1.508-1.971-.812-.58.812-.696 1.74-.928 2.667a56.727 56.727 0 01-.58 3.826c-.347 1.739-1.043 3.246-1.623 4.87-.58 1.39-.463 2.898-1.507 4.173-.928 1.16-2.087 1.855-3.478 2.087-1.507.348-3.13.696-4.638 1.044-2.203.464-5.101.811-6.956-.58-1.276-.812-2.435 1.16-1.16 1.971 2.087 1.507 5.102 1.391 7.536.928 1.74-.232 3.363-.696 5.102-1.044 1.507-.232 2.782-.696 3.942-1.623 1.16-.928 2.087-1.971 2.55-3.362.348-.812.348-1.74.58-2.551l1.044-2.435c.58-1.739.927-3.594 1.16-5.333l.231-1.623c.116-.348.116-1.16.348-1.392a19.128 19.128 0 00-1.855-.811c-.116 1.739-.116 3.478-.348 5.333-.116.812-.232 1.507-.464 2.319-.232.696-.464 1.275-.464 2.087 0 .811.928 1.391 1.624.927 1.16-.695 1.507-1.97 1.739-3.246.348-1.623.464-3.246.58-4.986.463-3.478.58-6.84-1.392-9.855l-1.855 1.392c1.044 1.043 1.392 2.434 2.435 3.478.696.696 1.74.348 1.971-.464.812-2.666-1.971-4.985-4.058-6.029-3.014-1.623-6.725-.927-9.971-.811v2.203c1.74-.116 3.362-.58 4.985.347.696.232 1.276.696 1.971 1.044.696.348 1.508.695 2.087 1.16.464-.542.928-1.122 1.392-1.74-.928-.464-1.508-1.275-2.32-1.855-.463-.348-.81-.58-1.39-.696-.58-.232-1.392-.116-1.971-.348-1.855-.695-4.174-1.275-5.334.696-.463.696 0 1.507.696 1.74.696.115 1.275.115 1.97.115.697-.116 1.508 0 2.204.116 1.275.232 2.55.58 3.594 1.392 1.855 1.507 2.783 4.057 2.667 6.492h2.319c0-.927 0-1.97-.116-2.898-.232-.812-.812-1.623-1.044-2.551-.464-1.391-.927-2.667-2.203-3.594-.58-.464-1.275-.928-1.97-1.16-.812-.232-1.624-.116-2.552-.116-1.623.116-3.478.464-5.101 0l.464 1.855c.077-.077.154-.193.232-.347.927-1.16-.696-2.667-1.508-1.623z" fill="#fff"/><path d="M55.101 45.812c0 4.29 0 8.811 1.508 12.87.695 1.738 1.16 3.593 2.666 4.637 1.508 1.275 3.015 2.435 4.87 3.246 2.782 1.392 6.493 1.971 9.275.348 1.507-.927 3.13-1.855 3.594-3.71.464-1.855.812-3.478 1.972-5.102 1.275-1.623.695-3.825.695-5.797 0-1.159.116-2.318 0-3.478-.116-1.16-.811-2.203-.811-3.478.115-1.391-2.203-1.391-2.203 0-.116.812.116 1.623.347 2.319.348.927.464 1.739.464 2.782 0 1.624.116 3.363.116 4.986 0 .927-.348 1.275-.811 1.97-.464.58-.696 1.392-1.044 2.088a18.41 18.41 0 00-.812 2.319c-.115.927-.231 1.623-1.043 2.203-1.043.811-2.319 1.507-3.71 1.507-1.391.116-2.899-.116-4.174-.58-1.507-.58-3.014-1.507-4.29-2.55-.58-.348-1.275-.812-1.623-1.276-.58-.696-.812-1.855-1.16-2.667-1.623-3.942-1.623-8.347-1.623-12.637 0-1.508-2.203-1.508-2.203 0zm-40.347-7.537c-1.044 1.276-1.624 2.667-2.087 4.29-.58 1.74-1.16 3.479-1.623 5.334-1.044 3.942-1.16 7.884-.348 11.826.348 1.855.811 3.71 1.623 5.449.695 1.623 1.739 3.014 2.55 4.522 1.392 2.55 2.204 5.449 4.175 7.536 1.507 1.739 5.912 4.29 7.883 1.97.928-1.159-.58-2.666-1.623-1.622-.58.811-2.898-.58-3.594-1.044-1.275-.695-1.97-2.087-2.666-3.362-.696-1.391-1.276-2.899-2.088-4.29-.811-1.623-1.854-3.13-2.666-4.87-1.74-3.826-2.319-8.695-1.623-12.87.348-2.086.927-4.173 1.623-6.26.58-1.623.927-3.594 2.087-4.986.927-1.159-.696-2.782-1.623-1.623zm17.043 44.638c1.74 0 3.13.928 4.754 1.391 1.855.58 3.71.348 5.565.58 1.043.116 1.97.348 3.014.464.928.116 1.855.116 2.783.232 1.971.463 3.826.58 5.797.463a24.492 24.492 0 005.218-1.275c.927-.232 1.739-.695 2.55-.927.812-.348 1.74-.464 2.435-.812 1.74-.58 2.899-1.855 3.942-3.246.58-.812 1.043-1.508 1.74-2.32.579-.695 1.043-1.275 1.275-2.202.347-.812-.812-1.855-1.624-1.275-2.203 1.623-4.058 3.478-6.26 5.101-2.203 1.507-4.754 1.74-7.189 2.435-1.16.232-2.087.811-3.246 1.391-1.044.464-2.087.232-3.13.232-1.276 0-2.435.232-3.71.58-1.392.348-3.015.116-4.407.116-1.507 0-1.507 2.203 0 2.203 1.392 0 2.899.231 4.29 0 1.392-.232 2.667-.696 4.058-.58 1.16 0 2.319.116 3.362-.348 1.16-.464 2.203-1.16 3.479-1.507 2.434-.696 4.87-.928 7.072-2.203 2.435-1.623 4.406-3.826 6.84-5.45a92.796 92.796 0 01-1.738-1.275c-.232.812-.928 1.392-1.392 1.971-.463.696-1.043 1.507-1.507 2.203-.58.696-1.16 1.391-1.97 1.74-.697.463-1.508.579-2.204.81-1.623.465-3.13 1.276-4.753 1.74-1.7.464-3.401.696-5.102.696-1.739 0-3.246-.58-4.985-.696-1.855 0-3.595-.464-5.45-.58-1.855-.116-3.478-.116-5.217-.811-1.391-.58-2.667-1.044-4.29-1.16-1.507 0-1.507 2.32 0 2.32z" fill="#fff"/></g><defs><clipPath id="clip0_35_36608"><path fill="#fff" transform="translate(10 13)" d="M0 0h80v74.203H0z"/></clipPath></defs></svg>