<svg width="56" height="58" viewBox="0 0 56 58" fill="none" xmlns="http://www.w3.org/2000/svg"><circle cx="17.434" cy="17.434" r="17.434" fill="#0AB975" fill-opacity=".13"/><path fill-rule="evenodd" clip-rule="evenodd" d="M31.64 53.776a1.584 1.584 0 001.569-.238l7.924-6.34a1.585 1.585 0 00.602-1.236v-12.03l5.992-5.974a17.308 17.308 0 005.103-12.33v-2.949a3.17 3.17 0 00-3.17-3.17h-2.948a17.307 17.307 0 00-12.33 5.104l-5.975 5.99h-12.03a1.586 1.586 0 00-1.236.619L8.8 29.146a1.585 1.585 0 00.256 2.245c.22.173.482.284.759.323l11.094 1.585.444-3.17L13 28.94l4.137-5.166h11.918a1.582 1.582 0 001.126-.46l6.45-6.45a14.17 14.17 0 0110.08-4.185h2.948v2.948a14.17 14.17 0 01-4.184 10.08l-6.45 6.45a1.585 1.585 0 00-.46 1.126v11.919l-5.135 4.136-1.189-8.352-3.17.444 1.585 11.094a1.586 1.586 0 00.983 1.252zm-14.806-10.52L29.509 30.58l2.241 2.242-12.675 12.675-2.241-2.242z" fill="#0AB975"/></svg>