<svg width="56" height="58" viewBox="0 0 56 58" fill="none" xmlns="http://www.w3.org/2000/svg"><circle cx="17.434" cy="17.434" r="17.434" fill="#0AB975" fill-opacity=".13"/><path fill-rule="evenodd" clip-rule="evenodd" d="M11.622 14.264H49.66a3.173 3.173 0 013.17 3.17v28.528a3.173 3.173 0 01-3.17 3.17H11.622a3.173 3.173 0 01-3.17-3.17V17.434a3.173 3.173 0 013.17-3.17zm17.434 3.17H11.622v28.528h17.434V17.434zm3.17 0v28.528H49.66V17.434H32.226zm-6.34 4.755H14.793v3.17h11.095v-3.17zm20.604 0H35.396v3.17H46.49v-3.17zm0 7.924H35.396v3.17H46.49v-3.17zm-11.094 7.925H46.49v3.17H35.396v-3.17zm-20.604-7.925h11.095v3.17H14.792v-3.17zm11.095 7.925H14.792v3.17h11.095v-3.17z" fill="#0AB975"/></svg>