<svg width="257" height="187" viewBox="0 0 257 187" fill="none" xmlns="http://www.w3.org/2000/svg"><g clip-path="url(#clip0_41_37369)"><path fill-rule="evenodd" clip-rule="evenodd" d="M254.6 131.4c-.4.9-.9 1-1.3 1a1.175 1.175 0 00-.3.2c-1.2 1.2-5.1 4-10.3 7.7-5.1 3.8-11.5 8.5-17.8 13.3-12.6 9.6-25.5 19.1-28.6 20.7-1.5.8-2.3 1-2.7 1-.5 0-1.2.1-2.2 0-7.2-.4-64.5-13.3-71.2-15.7-.733-.333-1.3-.6-1.7-.8-7.1 6.6-11.9 11.8-14.1 13.8-1.7 1.8-2.8 2.8-3.6 3.5-.067.2-.1.367-.1.5-.2 1.1-.7 1.3-1.2 1.4-.2 0-.4-.033-.6-.1.3.4.2.7.1.8-.3.6-1 .6-3.9-.3-1-.2-2.8-.8-5.5-1.4-2.6-.5-6.1-1-10-1.6-8-1.2-17.9-2.6-27.8-4.1-19.7-2.8-39.6-5.1-43.8-6-1.2-.2-2-.5-2.5-.7-.3.5-.7.6-1 .6-.6-.1-1.1-.3-1.5-1.2-.5-1.2-.6-6.9-1-12.6-.2-2.8-.5-5.6-.6-7.9-.1-1.2-.2-2.2-.3-3v-1.6c0-.2.033-.367.1-.5.133-.4.367-.733.7-1 0 0 .1-.1.2-.1-.3-.3-.3-.5-.3-.7 0-.2.1-.4.4-.6-.133 0-.233-.033-.3-.1-.5-.4-1.1-1.2-1.3-2.4 0-.6 0-1.4.3-2.1.3-.7.7-1.4 1.3-2 .8-.8 1.9-1.7 3.3-2.8 1.4-1.067 3.067-2.367 5-3.9 1.467-1.133 3.1-2.367 4.9-3.7-.2-.2-.4-.3-.6-.6-.4-.6-.7-2.2-1-4.4-.2-2.2-.3-5-.3-7.6 0-2.6 0-5.2-.2-7.3 0-1.5-.1-2.7-.1-3.5-.2-.6-.1-1 .1-1.2 0-.1 0-.1.1-.1-.3-.2-.5-.7-.4-1.4 0-.7.3-1.4.9-2.3l.5-.5c.067-.133.2-.233.4-.3l.9-.9c.733-.6 1.633-1.333 2.7-2.2 2.1-1.7 4.8-3.7 7.9-6 6.3-4.5 14.4-9.8 22.7-14.6 8.3-4.8 16.9-9.2 24-12.5 1.7-.7 3.4-1.5 4.9-2.2.8-.267 1.533-.567 2.2-.9a10.32 10.32 0 001.5-.7l.5-.1c.1 0 .2.1.4.1l.8.5 1 .4c.2.133.433.267.7.4.467.2.933.367 1.4.5.8.4 1.5.6 2 .7.4.133.767.267 1.1.4 1.7-3 3.1-6 4.2-8.9 2.5-6.4 3.8-12.4 4.2-17.2.4-4.8.1-8.3 0-10.1-.2-2.9-.4-4.4-.4-5.3 0-.7.1-.9.3-1 .1-.5.8-.9 3.4-1 2.1-.1 7.9.1 15.5.2 7.7.1 17.3 0 26.9-.1 9.6 0 19.2 0 27 .3 7.7.3 13.6.9 15.6 1.3 3.2.6 3.6 1.1 3.6 1.6-.1.6-.7 1-3.7 1.2-2.1.1-7.8 0-15.5-.1-7.7 0-17.3.1-26.9.2-9.6 0-19.2 0-27-.4-7.8-.3-13.6-1-15.7-1.4-.7-.2-1.2-.3-1.7-.5.4.9.9 2.3 1.4 4.5.2.9.4 2.3.6 4.2.1 1.8.2 4 .1 6.5-.2 5.1-1.4 11.5-3.9 18.4-2.6 6.8-6.4 14.2-11.8 20.9a120.145 120.145 0 01-6.5 7.7H81c1.2 0 2.8 0 4.7.1.1-.1.1-.2.2-.3.7-1 2.8-3.7 5.4-7.4 2.6-3.7 5.5-8.5 7.8-13.6s4.1-10.5 5.1-14.8c1.1-4.4 1.7-7.8 2-9 .2-.8.4-1.3.6-1.6-.267-.2-.4-.433-.4-.7 0-.5 0-.8.2-1.2.4-.5 2.4-.8 3.9-1.4 1.5-.6 2.4-1.6 2.9-1.9-.4-.3-.4-.5-.4-.7.2-.5.5-.7 2.6-.6 1.4.1 5.2.6 10.5.6 5.3.1 12-.3 18.6-.5 13.3-.3 26.5-.5 29.4-.2 2.2.2 2.6.5 2.6.9v.2h.4l.1.1.2.2c.133.133.267.3.4.5.4.5.9 1 1.5 1.4 1.3.9 3.3 1.6 3.6 2 .2.4.2.7.1 1.1a3.098 3.098 0 01-.2.6c.2.3.4.8.2 2.4-.2 2.7-2.9 15.2-7.8 27.1-2.4 6-5.4 11.7-8.2 16.1-2.9 4.3-5.4 7.3-6.5 8.3-.5.4-.9.8-1.2 1 2.5.4 4.3.9 5.3 1.2 3.5-4.6 6.6-9.3 9.3-14.1 4.3-7.3 7.5-14.6 9.7-21.3 4.6-13.6 5-24.5 5.2-28.2.2-5.9.5-6.5 1.1-6.5.5-.1 1.2.6 1.7 6.3.067.6.133 1.3.2 2.1l.1-.1c.9-.5 5.4-.7 10-.6 2.2.1 4.5.2 6.3.3.9.1 1.9.2 2.6.5.8.3 1.4.7 1.7 1 .6 1 .2 1.4-.1 1.7-.5.4-1 .5-1.5.7-.3.1-.9 0-2.7.2-1.8 0-4.1.1-6.4 0-4.5-.1-9-.4-9.9-.9l-.1-.1c-.1 1.9-.2 4.2-.5 6.7 2.2-.4 6.7-.3 7.4.3.3.3.4.6.4 1v.3c.2.133.467.333.8.6.2.133.433.267.7.4.1.1.7.4 1.1.6.533.133 1.133.333 1.8.6-.2.5-.5 1-.8 1.6l-1 1.6c-.4.733-.867 1.533-1.4 2.4-.9 1.6-2.1 3.5-3.4 5.5-2.5 4-5.5 8.5-8.5 12.8-6 8.6-12 16.3-13.7 17.9l-.3.3h-.1c-1.4 2.333-2.9 4.6-4.5 6.8 10.1-9.6 19.7-19 26.3-28 4.2-5.6 7.3-10.9 9.4-15.3 2.2-4.3 3.3-7.7 4-9.5 1.9-5.4 2.2-5.9 2.7-5.8.6.1 1.1.9 0 6.5-.4 1.8-1.3 5.2-3.2 9.6 2.4-.3 7.4-.4 12.5-.3 3.1.1 6.1.2 8.6.4l1.8.2h.7c.3.1.6.1.9.2 1.1.2 1.9.7 2.3 1.2.3.5.4.9.4 1.2 0 .267-.033.467-.1.6.1.1.3.3.4.7.6 1.3.8 7.4.7 13.6 0 3-.1 6.2-.5 8.8-.4 2.5-1.1 4.4-1.5 5-.7.9-1.1 1-1.6.8-.4.7-1.6 1.7-4.5 3.7-3.1 2.1-12.2 7.9-23.9 16-.933.6-1.867 1.233-2.8 1.9 4.7.7 14.3 2.6 24 4.1 11.9 1.9 23.9 2.8 26.4 3.4 2 .4 2.3.9 2.3 1.3v.2c.133.133.267.233.4.3.2.2.3.3.4.6 0 .1.1.4.1.4l.1.2c1 2.5-.4 23-1.5 25.4zm-71.5-70.5c.9-1.2 1.7-2.5 2.6-3.7 3-4.3 6-8.8 8.6-12.7 1.3-2 2.5-3.8 3.6-5.4.533-.8 1.033-1.533 1.5-2.2l.1-.2.1-.1.1-.1c0-.1.1-.2.1-.2l-.2-.2-.1-.1-.2-.1c-.4-.4-.6-.6-.8-.9a5.203 5.203 0 01-.6-.9c-1.8.4-5.4.4-7 0-.6 4.5-1.6 9.6-3.4 15.2-1.2 3.7-2.6 7.6-4.4 11.6zm-12.7 28.6c0 .067.033.167.1.3 11.7-9.2 23.2-18.1 32.9-25.2 11.5-8.4 20.4-14.3 23.7-16.2 5-3 5.7-2.9 6-2.5.3.5 0 1.3-4.3 4.8-3 2.3-11.7 8.5-22.9 17-9.9 7.6-21.8 16.9-33.9 26.5.5 2 .8 4.2.9 6.4.3 3.8-.1 7.6-.6 10.4 3.667-2.533 7.3-5 10.9-7.4 7-4.8 13.6-9.3 19.6-13.3 12-7.9 21.4-13.4 24.8-15.1 2.6-1.3 4.1-2 5-2.2a3.098 3.098 0 01-.2-.6c-.1-.6.1-2.4.3-4.7.1-2.3.1-5.3.1-8.4.1-6.2.4-12.3.9-13.6 0-.067.033-.133.1-.2h-2c-.533.067-1.133.1-1.8.1-2.4.1-5.5.1-8.6 0-6.1-.1-12.2-.5-13.6-1l-.1-.1c-2 4.1-4.8 8.9-8.3 13.7-7.3 10.3-18 20.8-29 31.3zm82.9 16.2c-.2 0-.367.033-.5.1-2.6.5-14.9.1-27-1.9-12.1-1.8-23.9-4.8-26.3-5.9l-.4-.2a622.16 622.16 0 00-7.9 5.5h.5c.9.1 3.3.7 6.5 1.4 3.3.7 7.4 1.4 11.5 2 8.3 1.3 16.6 1.7 18.4 2 1.4.3 1.6.6 1.6 1a.68.68 0 01-.2.5c.1.3.3.7.6 1.2.067.133.167.3.3.5l.3.3c.1.1.3.2.6.3.667.333 1.4.667 2.2 1-.2.2-.2.3-.4.4-.2.2-.4.367-.6.5l-1.6 1.2c-.733.6-1.5 1.233-2.3 1.9-1.5 1-3.1 2.3-4.8 3.6-3.6 2.7-7.6 5.7-11.6 8.6-7.9 5.7-15.4 10.9-17.4 11.9-1.6.9-2 .8-2.2.5v-.1c-.3-.1-.7-.3-1.2-.6-.4-.3-1.1-.7-2.2-1-1.1-.3-2.6-.4-4 .2-.4.2-.733.4-1 .6-.2.1-.2.1-.7.6-.4.3-.7.9-1.3.6a398.315 398.315 0 00-3.9-.8c-2.3-.5-4.8-1-7.2-1.6-9.7-2.3-19.2-5.1-21.2-6.1-.4-.2-.7-.4-.9-.5l-5.4 4.2c9.7 1.4 43.5 9.7 47.7 11.6.533.267.933.5 1.2.7.2-.3.4-.6.7-1 2.4-2.6 15.1-13 28.5-22.5 13.4-9.6 27.1-18.5 30.2-20.1.6-.3 1-.5 1.4-.6zM88.6 73.9c2.3.1 4.9.3 7.8.5 2.4-1.9 4.4-3.2 5.7-3.9.7-.4 1.4-.9 2.3-1.4 1.6-.8 5-2.2 9.7-2.5 4.7-.4 10.7.3 17.1 2.4 1.6.5 3.3 1.3 4.9 2.3 1.6 1.1 3.1 2.6 4.1 4.5.6 1.1.9 2.3 1.1 3.5 6.6 1 12.4 2 16.7 2.8h.1c-.1-.4.1-.9.8-2.1.7-1.1 2.9-4.2 5.5-8.5s5.4-9.8 7.7-15.7c4.8-11.6 7.8-23.9 8.9-26.4.2-.7.4-1.1.6-1.4-.9 0-2.5-.4-4-1.4-1.1-.7-2-1.7-2.4-2.7-.2-.4-.3-.9-.3-1.3v-.1c-.2 0-.4.033-.6.1-2.9.5-16.2 1.1-29.5 1.4-6.7.2-13.3.5-18.7.2-5.1-.2-9-.9-10.6-1.4 0 .4-.3 1.1-.8 1.8-.6.9-1.6 1.7-2.8 2.2-1.5.6-2.9.7-3.8.7.067.333.133.8.2 1.4.1 1.2-.2 4.8-1.1 9.4-.9 4.6-2.7 10.2-5.1 15.5-2.4 5.3-5.5 10.3-8.3 14-2.1 2.8-4 4.9-5.2 6.1zm48.8 3.4c-1.3-2.7-4.2-4.4-7.1-5.5-6-2-11.6-2.8-15.9-2.6-4.3.2-7.4 1.2-8.9 1.8h-.1c-.5.3-1.1.7-1.8 1.2-.8.5-2 1.3-3.5 2.4 6.8.5 14.4 1.3 22.1 2.2 5.4.6 10.7 1.3 15.8 2a5.86 5.86 0 00-.6-1.5zM79 76.6c-.933-.2-1.633-.367-2.1-.5-3.1 3.1-6.3 6.1-9.6 8.9-2.4 2-4.7 3.9-7.1 5.7h.3c2.9-.2 12.5.3 24.3 1.5 1 .133 2 .233 3 .3 5.1.5 10.4 1.2 15.7 1.9 8.4 1.2 16.7 2.6 23.8 3.9 1.467.267 2.867.533 4.2.8 7.2 1.4 12.6 2.6 14.5 3.3.533.133 1 .3 1.4.5.533.2.933.367 1.2.5.7.4.8.7.7 1 0 .3-.2.5-.8.6.267.2.533.467.8.8.067.133.133.3.2.5l.2.4c.067.333.2.767.4 1.3.2.733.433 1.667.7 2.8.4 1.9.8 4.1 1.2 6.3.4 2.6.6 5.3.5 7.5v.7c3-2.2 6-4.5 9.1-6.7 2.2-1.6 4.433-3.167 6.7-4.7 0-2.6.5-7.9.2-13 0-1.3-.2-2.5-.3-3.7-.3-1.7-.6-3.3-1-4.8v-.3c-.4-1.3-.8-2.4-1-3.3a4.47 4.47 0 01-.4-1.1c-.067-.2-.1-.367-.1-.5a4.27 4.27 0 01-.1-.8h-1.2c-.467 0-1.067-.033-1.8-.1-4-.4-11.9-1.5-21.4-2.7-1.1-.2-2.1-.3-3.2-.5-5.2-.6-10.7-1.3-16.3-2-9.2-1-18.5-2-26.1-2.7A296.647 296.647 0 0192 78c-6.4-.6-11.2-1.1-13-1.4zM3.1 134.9c.1.4.3.6.4.8a46.288 46.288 0 012.1-.2c4.5 0 25.1 2.1 45.6 4.5 5.2.7 10.3 1.1 15.2 1.5 4.9.5 9.5 1 13.7 1.4 4.1.4 7.7.9 10.6 1.1 2.2.2 3.8.2 5 .2.7-.7 1.6-1.4 2.7-2.3 3-2.5 12-8.7 23.5-17.4 7.2-5.4 15.3-12 23.2-19.4-1.4-.1-3.6-.4-6.6-.9h-.1c-.1.2-.3.5-.6.9-1.4 1.9-9.4 8.9-17.8 15.4s-17.1 12.6-19.2 13.6c-.6.3-.9.4-1.2.5a1.26 1.26 0 01-.5.3c-.8.3-4.2.3-7.6.9-1.7.4-3.4.8-4.5 1.2-1.2.5-1.7 1-2 1.1-.1.1-.2.1-.3.1-.1.4-.6.6-2.5.7-5.6.1-51.3-5.9-56.7-7.3-1.7-.4-2.1-.8-2.2-1.1-.067.067-.133.1-.2.1-.8.4-1.5.5-1.8.4-.4-.2-.5-.5-.6-.9-.1-.4-.1-.8 0-1.2.2-.4 1.3-1 2.1-2.1s1.1-2.4 1.5-2.8c.1-.1.2-.1.3-.2 0-.4.2-.8 1.2-1.7 1.8-1.4 10.7-6.6 19-12.8 8.4-6.1 16-13.1 17.8-14.4 1.4-1 1.8-.9 2-.6.4.3.5.7-.5 2.1-1.3 1.9-8.8 9.3-17.3 15.5-8.4 6.4-17.8 11.3-19.9 12.1-.2 0-.3.1-.4.1.2.3.3.9.2 1.6-.1.9-.5 2-1.2 2.9-.2.4-.5.7-.8 1 .267-.067.6-.1 1-.1 5.6-.1 51.4 5.9 56.8 7.3.267.067.5.133.7.2 0-.6.9-1.9 2.4-2.7 1.5-.8 3.3-1.3 5.2-1.7 3.8-.7 7.6-.3 8.4.2.1-.2.2-.3.4-.4 1.6-1.7 10-8 18.3-14.5 7.9-6.1 15.6-12.4 18.1-14.1-2.6-.4-5.6-.9-8.8-1.4-1.6 1.067-3.267 2-5 2.8-7.7 3.6-16.6 4.5-24.4 2.4-3.9-1-7.8-2.9-10.3-6.2-1.2-1.5-1.9-3.2-2.3-4.9-12.1-1.4-22-2.5-24.8-3-1.5-.3-2.3-.5-2.8-.7-3.7 2.8-7.5 5.6-11.1 8.2-6.8 5-13.2 9.7-19 13.8-5.7 4.2-10.8 7.8-14.8 10.7-2.067 1.4-3.833 2.6-5.3 3.6-1.4 1.1-2.6 1.8-3.2 2.3-.9.8-1.3 1.5-1.4 2.1 0 .6.1 1.1.3 1.4zm12.7-40.8c.2.1.3.1.5.2.5.1 1.5.3 2.5.7 2 .6 4.5 1.5 7 2.4 5 1.9 9.8 4.1 10.7 4.9.2.2.333.367.4.5l4.5-3.3c-.7.1-3-1-5.3-2.2-2.3-1.2-4.5-2.4-4.9-3-.3-.4-.2-.7 0-1.1.1-.3.3-.6.7-.8 0-.3.3-.8.9-1.9.1-.3.3-.7.5-1.3.067-.333.1-.667.1-1 .1-.2.1-.3 0-.7 0-.4-.033-.867-.1-1.4 1.6-1.1 3.7-2.3 5.9-3.8 2-1.2 4.2-2.6 6.6-4 4.7-2.9 10-6 15-9 5.1-3 9.9-5.8 13.8-8 1.9-1.1 3.6-2.1 5.2-2.7 1.6-.6 3-.6 3.8-.5 1 .2 1.6.5 2 .9.9-1.3 1.7-2.6 2.5-3.9h-.2c-.6 0-1.4-.1-2.4-.4-.467-.067-1-.2-1.6-.4-.3-.1-.6-.2-.9-.4a3.912 3.912 0 01-.8-.3H82v.1h-.1l-.2.1c-.667.333-1.367.7-2.1 1.1-1.533.733-3.133 1.5-4.8 2.3-6.9 3.5-15.3 7.9-23.5 12.7-8.2 4.7-16.2 9.8-22.6 14.1-3.2 2.1-6 4-8.2 5.5-1.067.733-2 1.367-2.8 1.9-.4.267-.767.5-1.1.7a4.53 4.53 0 01-.6.4c-.4.3-.7.7-.9.9-.067.067-.1.133-.1.2.267.067.533.233.8.5zm68.9-33.9h-1.2c-.5.1-1.4.2-2.7.8-1.2.5-2.8 1.6-4.7 2.8-3.8 2.3-8.5 5.3-13.6 8.3-5 3-10.3 6.1-15.1 8.9-2.4 1.4-4.6 2.7-6.6 3.9-1.067.6-2.033 1.133-2.9 1.6-.467.267-.9.5-1.3.7l-.3.2h-.1l-.1.1v.2c-.1.2-.1.5-.1.8-.1.5-.3 1-.4 1.4-.3.8-.7 1.4-1 1.7-.4.5-.8.8-1.1 1 1.1.3 2.6 1 4.1 1.7 2.3 1.2 4.5 2.7 4.8 3.3.3.5.1.8-.1 1.1 0 .067-.033.133-.1.2l.1-.1c0 .067 0 .067 0 0l1.5-1.2c6.8-5 13.8-10.2 20.5-15.9 6.7-5.6 12.9-11.8 18-18.2a37.767 37.767 0 002.4-3.3zm-66.8 46.1c0 2.7-.1 5.3-.1 7.4 0 1.5 0 2.8-.1 3.5 2.3-1.7 4.7-3.5 7.3-5.5l9.2-6.9c-2.1-.4-6-1.7-9.9-3.2-2.5-1-4.9-2-6.9-2.9h-.1c.4 2.2.6 4.9.6 7.6zm85.1-7.5c-4.9-.7-9.8-1.3-14.5-1.9.333.933.8 1.767 1.4 2.5 1.9 2.5 5.1 4.2 8.6 5.1 7 1.8 15.2 1.1 22.2-2.2.467-.267.933-.5 1.4-.7-6-.9-12.5-1.9-19.1-2.8zM98 177c-.067 0-.1-.033-.1-.1-1.4-2.7-3.6-26.4-2.9-29.3 0-.1 0-.2.1-.3-1.2.133-2.7.2-4.5.2-2.9 0-6.6-.3-10.7-.6-4.2-.3-8.9-.7-13.8-1.1-4.9-.4-10.1-.8-15.3-1.4-20.5-2.4-41.1-5.1-45.5-6.1-1-.2-1.7-.4-2.2-.6v.2c-.067.067-.1.167-.1.3 0 .067.067.133.2.2.067.067.2.133.4.2.133 0 .267.033.4.1h.2v.1l.1.1c.067.267.167.6.3 1 .2.8.5 1.8.7 3 .5 2.3.9 5.2 1.1 8.2.3 4.6.1 9.2-.2 11.5.5 0 1.1-.1 2-.1 4.3-.2 24.3 1.6 44.2 4.4 9.9 1.4 19.8 3.1 27.7 4.5 4 .8 7.5 1.4 10.3 2.2 2.8.8 4.8 1.7 5.8 2.2.8.5 1.3.9 1.8 1.2zM4 138.8h-.1.1zm118.4 11.1c7.4-6.9 16.5-14.3 26.3-21.7-.1-.7-.1-2-.2-3.5-.1-1.9-.5-4.4-.9-6.9-.2-1.4-.4-2.8-.6-4.1-6.8 5.3-13.4 10.2-19.3 14.4-11.5 8.3-20.5 14.1-23.9 15.9-4.4 2.5-5.7 2.9-6.1 2.7h-.1c-.067 0-.133.033-.2.1.133.133.267.3.4.5 1.1 2.2 2.8 18 3 25.5.4-.6.9-1.2 1.4-2 2.4-3 9.6-11.2 20.2-20.9zm68.9 22.4c-.3-1.9-.4-5.7-.5-9.6-.1-2-.1-4-.1-5.7 0-2.5.1-4.4.3-5h-.3c-5.1-.1-45.2-9.8-49.8-11.9a1.175 1.175 0 01-.3-.2c-5.6 4.5-10.8 8.8-15.4 12.9-1.533 1.333-3 2.667-4.4 4 6.9.4 61.5 12.6 70.5 15.5zm61.2-62.8c-4.1 3.4-16.2 11.8-28.2 20.4-13.3 9.5-26.2 19.4-29.3 21.2-.4.3-.8.5-1.1.7.6 1.1 1.2 5.9 1.3 10.7.1 3.7-.1 7.3-.5 9.4 2.7-2.6 15-12.3 27.5-21.8 6.3-4.8 12.8-9.5 18.2-13 5.3-3.6 9.5-6.1 11-6.8h.2c-.5-3.8.1-14.9.9-20.8zm-88.2 12.6c-4.5 3.2-9 6.5-13.4 9.8 2.9.4 11.9 2.8 20.9 4.9 2.4.5 4.8 1.1 7.1 1.6.6.133 1.167.267 1.7.4.4.1 1 .2 1.1.3 0 .067.033.067.1 0 .2-.2 1.4-1 2.3-1.3 2.3-.8 4.4-.4 5.9.1 1.5.6 2.4 1.4 2.8 1.9.2.2.333.4.4.6.1-.2.2-.3.4-.5 1.4-1.5 8.7-7.1 16.6-12.9 4-2.9 8.1-5.9 11.7-8.4 1.8-1.3 3.5-2.5 4.9-3.5.4-.267.767-.5 1.1-.7.2-.133.367-.233.5-.3l.1-.1c.133-.067.233-.1.3-.1l.1-.1v-.1c-.2-.1-.2-.1-.4-.5-.267-.467-.4-.833-.4-1.1-.1-.5-.1-.9 0-1.2-1.9.4-10.4.4-18.8-.9-4.2-.6-8.4-1.5-11.7-2.4-3.4-.8-5.8-1.8-6.6-2.3-.9-.5-1.1-.8-1.2-1.1-1.3.9-2.7 1.9-4.1 2.8-6.9 4.9-14.2 9.9-21.4 15.1zm89.9-16.7h-.1.1z" fill="#fff"/><path d="M168.3 113.9c-2.267 1.533-4.5 3.1-6.7 4.7-3.1 2.2-6.1 4.5-9.1 6.7v-.7c.1-2.2-.1-4.9-.5-7.5-.4-2.2-.8-4.4-1.2-6.3a85.78 85.78 0 00-.7-2.8 8.896 8.896 0 01-.4-1.3l-.2-.4a3.86 3.86 0 00-.2-.5 4.537 4.537 0 00-.8-.8c.6-.1.8-.3.8-.6.1-.3 0-.6-.7-1a13.59 13.59 0 00-1.2-.5c-.4-.2-.867-.367-1.4-.5-1.9-.7-7.3-1.9-14.5-3.3a242.899 242.899 0 00-4.2-.8c-7.1-1.3-15.4-2.7-23.8-3.9-5.3-.7-10.6-1.4-15.7-1.9-1-.067-2-.167-3-.3C73 91 63.4 90.5 60.5 90.7h-.3c2.4-1.8 4.7-3.7 7.1-5.7 3.3-2.8 6.5-5.8 9.6-8.9.467.133 1.167.3 2.1.5 1.8.3 6.6.8 13 1.4 1.133.133 2.333.267 3.6.4 7.6.7 16.9 1.7 26.1 2.7 5.6.7 11.1 1.4 16.3 2 1.1.2 2.1.3 3.2.5 9.5 1.2 17.4 2.3 21.4 2.7.733.067 1.333.1 1.8.1h1.2c0 .2.033.467.1.8 0 .133.033.3.1.5.067.333.2.7.4 1.1.2.9.6 2 1 3.3v.3c.4 1.5.7 3.1 1 4.8.1 1.2.3 2.4.3 3.7.3 5.1-.2 10.4-.2 13z" fill="#68C89A"/><path d="M85 24c.2.8.7 1.1 1.3 1.3.4.1.9.1 1.5-.7.7-1 2.2-6.5 1.7-12.1-.3-5.6-2.4-10.9-3.4-11.7-.7-.7-1.2-.6-1.8-.3-.4.1-.8.4-.8 1.3 0 1.2 1.4 6.1 1.6 11.1.4 4.9-.4 9.9-.1 11.1zm11.4 159.6c-1.5-.5-8.6-1.1-15.6-1.9-7-.8-13.9-2-15.5-1.7-1.2.2-1.4.6-1.6 1.2-.1.5 0 1 1 1.6 1.5.8 8.5 2.4 15.7 3.3 7.2.8 14.4.9 16 .4 1.1-.4 1.3-.9 1.3-1.5 0-.5-.1-1-1.3-1.4zM47 177c-3-.1-6 .4-6.6 1-.4.5-.4 1-.4 1.6.1.5.2.9.7 1.2.6.5 3.5.5 6.3.6 2.8.1 5.6.1 6.3-.4.5-.4.6-.8.7-1.4 0-.5 0-1-.4-1.4-.6-.6-3.6-1.1-6.6-1.2z" fill="#fff"/></g><defs><clipPath id="clip0_41_37369"><path fill="#fff" d="M0 0h257v187H0z"/></clipPath></defs></svg>