<svg width="500" height="372" viewBox="0 0 500 372" fill="none" xmlns="http://www.w3.org/2000/svg"><g clip-path="url(#clip0_41_37450)"><mask id="a" style="mask-type:luminance" maskUnits="userSpaceOnUse" x="0" y="0" width="500" height="372"><path d="M500 0H0v371.404h500V0z" fill="#fff"/></mask><g mask="url(#a)"><path d="M239.383 58.911l13.395 2.06-1.516 9.212-13.879-1.515 1.758-8.969" fill="#BFE6D8"/><path d="M239.383 58.911l13.395 2.06-1.516 9.212-13.879-1.515 1.758-8.969" stroke="#BFE6D8" stroke-miterlimit="10"/><path d="M298.536 86.91l13.455 2.06-1.515 9.212-13.94-1.515 1.818-8.909" fill="#BFE6D8"/><path d="M298.536 86.91l13.455 2.06-1.515 9.212-13.94-1.515 1.818-8.909" stroke="#BFE6D8" stroke-miterlimit="10"/><path d="M45.077 140.362s67.031-62.118 79.819-62.906c12.789-.788 38.971 22.787 54.608 33.15 15.636 10.424 53.213 36.241 53.213 36.241l.969 20.302-185.64 7.333-.666-30.06" fill="#91CDA1"/><path d="M45.077 140.362s67.031-62.118 79.819-62.906c12.789-.788 38.971 22.787 54.608 33.15 15.636 10.424 53.213 36.241 53.213 36.241l.969 20.302-185.64 7.333-.666-30.06" stroke="#91CDA1" stroke-miterlimit="10"/><path fill-rule="evenodd" clip-rule="evenodd" d="M52.047 369.564c-1.394.606-3.03-.546-2.97-2.243 0-1.212.303-2.484.242-3.696-.12-2.606-.424-5.152-.606-7.758-.181-2.545-.242-5.151-.363-7.757-.122-2.242-.243-4.485-.303-6.727a956.13 956.13 0 01-.303-10.605c-.061-3.455-.122-6.97-.182-10.485 0-3.03.121-6.121.121-9.212 0-2.666-.182-5.333-.182-8.06 0-2.242.182-4.484.243-6.727 0-1.272.06-2.545-.061-3.818-.303-3.878-.667-7.696-.91-11.575-.242-3.454-.423-6.969-.605-10.424l-.364-7.636c0-.303.182-.666.364-.969.364-.849.848-1.637 1.09-2.182 3.395-.303 6.546-.667 9.758-.97 3.758-.303 7.516-.788 11.274-.969 2.787-.182 5.636 0 8.484-.061 1.455 0 2.85-.121 4.304-.303 4.545-.485 9.151-.97 13.697-1.515 1.818-.182 3.636-.727 5.515-.788 1.879-.061 3.818.242 5.758.424.727.061 1.454 0 2.121 0 1.657 0 3.313-.02 4.97-.06 1.858 0 3.737-.021 5.636-.061 2.425-.061 4.788-.121 7.213-.303 2.727-.121 5.394-.424 8.06-.545 3.273-.182 6.485-.122 9.698-.303 2.242-.122 4.484-.485 6.727-.667 2.303-.121 4.606-.182 6.849-.242 3.151-.182 6.303-.425 9.454-.485 2.849-.122 5.758-.061 8.607-.061h.787c4.546-.545 9.031-1.03 13.516.242.242.061.606.243.727.122 1.515-.909 2.424.303 2.97 1.151.667.909 1.03 2.182 1.091 3.333.303 5.333.424 10.606.666 15.939.122 2.848.425 5.757.546 8.606.182 3.757.242 7.454.364 11.211.06 2.364-.122 4.727 0 7.091.06 2.242.424 4.424.484 6.606.061 1.757-.06 3.515-.121 5.333-.06 1.394 0 2.848 0 4.242 0 4.424-.121 8.909 0 13.333.121 2.848.546 5.696.728 8.545.121 2.303.06 4.606.121 6.909.06 3.03.242 5.999.303 8.969 0 1.394-.364 2.727-.485 4.121 0 .303.424.666.667.909.242.303.788.545.848.848 0 1.697.424 3.576-.242 4.97-.485 1.151-2.243 2.121-3.576 2.363-1.697.303-3.455.546-5.334.182-1.757-.424-3.757.121-5.697.182-1.212.061-2.424-.061-3.576-.061-.969.061-1.939.243-2.909.243-2 .06-3.939 0-5.939-.061-1.515 0-2.97.121-4.485.061-1.637-.121-3.273-.364-4.849-.546-.182 0-.303-.06-.485 0-3.454.849-7.03.546-10.545.546-4.97.06-10-.061-14.97.182-5.515.242-11.031.787-16.546 1.151-3.636.182-7.273.242-10.909.424-3.819.243-7.637.667-11.455.849-2.303.121-4.667-.243-7.03-.182-3.576.061-7.152.364-10.728.424-4 .121-8 .121-12 .243-3.697.06-7.334.303-11.03.363-1.698 0-3.334-.363-4.243-2.06zm142.003-7.697c.242-2.485.242-2.485-.607-5.03a4.156 4.156 0 01-.121-.909c-.06-3.939-.182-7.939-.182-11.878-.06-1.455.243-2.909.182-4.303-.182-4.061-.485-8.121-.666-12.181-.122-2.303-.061-4.667-.122-6.97-.121-2.242-.303-4.424-.363-6.606-.061-2.363.121-4.666.06-7.03-.121-1.999-.485-3.939-.606-5.939-.121-2.121-.06-4.303-.182-6.484-.121-2.97-.363-5.939-.484-8.97-.061-1.818.181-3.636.121-5.454-.061-2.727-.243-5.394-.303-8.121-.061-1.515 0-3.09 0-4.606-.061-3.03-.243-5.999-.243-8.969.061-2.363-.424-2.788-2.848-2.545-2.606.182-5.212.242-7.819.363-2.303.061-4.606 0-6.848.243-2 .182-3.879.788-5.818 1.03-1.758.243-3.516.182-5.213.303-5.273.303-10.485.606-15.758.849-3.272.181-6.666-.061-9.939.424-5.394.848-10.728.848-16.122.909-2.666.06-5.333.242-8 .242-2.97 0-5.939-.242-8.909-.182-2.061 0-4.06.061-6.06.425-5.213.848-10.425 1.636-15.759 1.151-1.636-.121-3.273-.424-4.909-.242-5.03.424-10.121 1.091-15.152 1.636-3.212.364-6.424.606-9.636.97-.425.06-1.03.727-1.03 1.091a76.451 76.451 0 000 7.454c.12 3.697.424 7.333.545 11.03.121 1.636-.06 3.272 0 4.908.06 2.243.303 4.485.303 6.788 0 2.97-.242 6-.303 8.969 0 3.576.06 7.091.182 10.666.12 5.152.303 10.242.424 15.394.06 3.03-.242 6.06-.121 9.03.12 4.605.485 9.211.788 13.757.363 4.605.788 9.211 1.212 14.06 1.273-.122 2.303-.304 3.394-.243 3.212.121 6.485.364 9.697.485 4.727.162 9.455.263 14.182.303 1.515 0 3.03-.242 4.546-.364 2.848-.242 5.636-.545 8.424-.727 1.394-.121 2.727-.121 4.121-.242 2.728-.182 5.516-.364 8.303-.546 1.394-.06 2.849 0 4.243-.121 2.485-.182 4.97-.606 7.515-.788 3.212-.182 6.425-.121 9.697-.182 4.849-.181 9.758-.424 14.667-.545 3.091-.061 6.182.061 9.273 0 3.94-.061 7.879-.121 11.758-.303 4.546-.303 9.091-.727 13.637-1.03 5.576-.364 11.151-.667 16.849-.97z" fill="#fff"/><path fill-rule="evenodd" clip-rule="evenodd" d="M134.897 280.053c.667-.303 1.394-.97 1.879-.788 1.151.363 2.182 1.151 3.272 1.757-.303.546-.545 1.152-1.03 1.515-.303.303-.848.243-1.515.364 1.03 1.212 2 2.242 2.909 3.333 2.849 3.576 4.728 7.636 6.182 11.939 1.758 5.454 1.94 11.03 1.03 16.605-.545 3.152-1.575 6.242-2.606 9.333-.848 2.546-1.879 5.151-3.212 7.454-1.818 3.091-3.879 5.94-6.909 8-2.243 1.515-4.303 3.212-6.728 4.97.667.303 1.031.606 1.334.666 1.212.182 1.091 1.091.788 1.758-.182.484-.97 1.03-1.394.909-1.394-.303-2.728-.97-4.122-1.455-.363-.121-.787-.182-1.151-.121-5.333.424-10.667.667-15.879-.364-5.697-1.151-11.273-2.727-16.182-5.939-3.03-1.939-5.637-4.484-8.364-6.848-2.788-2.485-4.91-5.575-6.485-8.848-1.394-3.03-2.667-6.242-2.727-9.757 0-2.303-.485-4.606-.364-6.909.121-2.545.485-5.151 1.151-7.636.728-2.666 1.758-5.333 2.97-7.878.849-1.879 2.06-3.637 3.394-5.273 1.88-2.182 3.758-4.363 5.94-6.181 1.818-1.576 4-2.667 6.121-3.818 3.152-1.697 6.425-2.97 9.94-3.576 1.757-.303 3.515-.424 5.273-.727.727-.121 1.333-.485 2.06-.667 2.909-.667 5.637.303 8.425.909 3.878.909 7.697 2.243 11.091 4.364 1.697 1.03 3.273 2.242 4.848 3.333.041-.162.061-.303.061-.424zm-56.304 24.241c.08 0 .182.02.303.061 3.333-3.697 6.606-7.333 9.94-11.03a765.795 765.795 0 007.575-8.545c1.03-1.212 2-2.546 3.091-3.697.243-.303 1.091-.424 1.394-.243.364.243.849.728.061 1.455-1.394 1.273-2.485 2.909-3.758 4.303a1328.116 1328.116 0 01-8.364 9.514 2362.794 2362.794 0 00-9.515 11.03c-.485.606-1.151 1.334-1.09 2 0 3.394-.243 6.97.605 10.182.728 2.848 2.606 5.454 4.243 8.06 2.06 3.272 4.909 5.939 8.242 7.878a61.354 61.354 0 0010.546 4.848c2.364.91 5.03 1.091 7.576 1.394 4.061.364 8-.666 11.939-1.212.97-.182 2.001-.485 2.91-.909 1.03-.485 1.878-1.394 2.909-1.757 2.424-.728 4.303-2.243 6.06-3.879 1.213-1.091 2.061-2.545 3.273-3.697 3.273-3.03 4.849-6.969 5.879-11.151.606-2.545.727-5.151 1.394-7.636 1.455-5.515.97-10.848-1.454-15.878-2.122-4.242-4.91-8.06-8.607-11.151-5.272-4.484-11.212-7.454-18.182-8.06-.909-.061-1.757-.485-2.667-.606-1.212-.182-2.484-.424-3.575-.121-2.364.666-4.728 1.575-7.091 2.424-2.122.727-4.364 1.212-6.304 2.363-2.484 1.455-4.909 2.97-7.03 5.273-3.758 4.121-6.424 8.787-8.728 13.757-.727 1.576-1.09 3.333-1.575 5.03z" fill="#fff"/><path d="M172.776 308.657c-.303.243-.666.788-1.091.788-.606 0-1.515-.242-1.818-.666a9.211 9.211 0 01-1.515-2.97c-.545-1.697-.97-3.394-1.212-5.151-.182-1.455.545-1.576 1.818-1.576 2.727.121 2.364 2.424 2.849 3.879.606 1.697.606 3.575.969 5.696zm-26.909-25.392c.909-1.637 2.546-1.394 3.94-.97 1.697.485 3.272 1.333 4.969 2 1.334.545 1.273 1.757.97 2.727-.303 1.091-1.273.788-2.182.424-2-.848-4.121-1.454-6.121-2.363-.667-.243-1.03-1.152-1.576-1.818zm17.333 56.482c-1.333 0-2.363-1.576-1.878-2.485 1.091-2 2.121-3.939 3.454-5.757.424-.606 1.758-1.031 2.424-.788.849.303.849 1.272.364 2.363-.848 2.182-1.818 4.243-3.515 5.939a6.98 6.98 0 01-.849.728zm4.607-14.666c.06-.606 0-1.212.181-1.758.485-2.06 1.091-4.06 1.516-6.121.242-.969.788-1.333 1.515-1.09.545.181 1.273.909 1.273 1.393 0 1.637-.122 3.334-.425 4.909-.363 1.879-2 2.909-4.06 2.667zm-17.88 19.999c.061-.121.182-.546.424-.667 1.455-.788 2.97-1.515 4.425-2.242.303-.121.545-.364.848-.424a22.068 22.068 0 011.94-.424c.06.848.545 2.121.182 2.484-1.091 1.03-2.485 1.637-3.758 2.424-.424.182-.909.303-1.273.546-2 1.151-2.788.727-2.788-1.697zm-11.939 2c1.818-.121 3.636-.424 5.515-.424.667.06 1.333.727 2 1.151-.364.546-.727 1.455-1.212 1.515-1.879.364-3.879.485-5.818.606-.425.061-1.031-.121-1.273-.485-.485-.545-.788-1.333-1.152-2a37.134 37.134 0 001.819-.909c.04.202.08.384.121.546zm21.455-57.573c2.061-1.697 2.667-1.697 4.364-.061.787.788 1.697 1.576 2.242 2.545.364.606.303 1.576.182 2.303-.243.97-.97.849-1.576.303-1.333-1.151-2.727-2.181-4.061-3.393-.484-.425-.727-1.031-1.151-1.697zm-65.819 45.876c2.848-3.636 5.697-7.211 8.485-10.848 1.939-2.424 3.818-4.848 5.757-7.272a581.625 581.625 0 017.819-9.212c2-2.242 4.121-4.303 6-6.545 1.636-2 2.909-4.242 4.424-6.303.364-.545.909-.969 1.455-1.333.181-.121.727.182.969.424.182.182.243.728.122.97-1.637 2.545-3.152 5.212-5.091 7.515-4.788 5.818-9.819 11.454-14.728 17.272-3.818 4.484-7.515 9.09-11.212 13.636-.485.545-.97 1.03-1.273 1.636-.727 1.454-1.576.909-2.727.06zm-6.304-8.545c1.091-1.515 2.122-3.03 3.213-4.545 1.939-2.545 3.818-5.151 5.878-7.575 3.091-3.637 6.364-7.212 9.576-10.788 3.576-3.939 7.273-7.878 10.849-11.878 1.333-1.454 2.485-3.091 3.818-4.606.303-.303 1.031-.363 1.515-.303.182.061.425.788.364 1.152-.121.545-.485 1.091-.848 1.515-2.546 2.727-5.091 5.393-7.637 8.121-1.03 1.151-1.939 2.363-2.909 3.515-.97 1.03-1.879 2.06-2.849 3.09a8261.451 8261.451 0 01-7.394 8.303c-1.757 2-3.636 3.879-5.333 5.939-2.06 2.485-4 5.151-5.879 7.818-.727 1.091-1.273.909-2.364.242zm-5.94-8.969c2.122-2.848 4.183-5.636 6.425-8.363 2.788-3.515 5.637-7.03 8.546-10.424 2.303-2.667 4.667-5.151 7.03-7.636 2.546-2.727 5.152-5.454 7.697-8.182.303-.363.303-.969.485-1.393.303-.667.546-1.394 1.031-1.818.242-.182 1.272.181 1.575.545.303.424.364 1.333.122 1.697-.91 1.333-2 2.666-3.152 3.878-4.667 5.091-9.515 10.061-14.121 15.212-3.273 3.697-6.364 7.575-9.395 11.393-1.333 1.697-2.606 3.394-3.757 5.212-.667 1.091-1.273 1.212-2.485-.121zm50.426-12.727c.546.303 1.091.485 1.152.728.121.303-.061.848-.303 1.151a137.088 137.088 0 01-4.849 5.515c-2.485 2.666-5.03 5.272-7.515 8a425.106 425.106 0 00-8 9.09c-1.334 1.576-2.546 3.212-3.819 4.788-.788 1.03-1.636 2-2.545 2.848-.303.303-.97.121-1.515.182.121-.424.121-.909.363-1.212.97-1.455 1.94-2.909 2.97-4.303 1.091-1.454 2.303-2.848 3.455-4.303 2.424-2.848 4.788-5.757 7.273-8.606 2.121-2.363 4.484-4.545 6.666-6.908 1.697-1.818 3.334-3.758 5.031-5.636.485-.485 1.03-.849 1.636-1.334zm-18.182 34.423c1.091-1.091 2.061-1.939 2.909-2.909a619.38 619.38 0 0010.122-11.454c.909-1.091 1.515-2.485 2.303-3.636.181-.303.788-.667 1.03-.606.424.242 1.03.848.97 1.151-.243 1.091-.546 2.303-1.212 3.091-3.94 4.485-7.879 8.909-12.001 13.212-.848.909-1.818 2.424-4.121 1.151z" fill="#fff"/><path fill-rule="evenodd" clip-rule="evenodd" d="M354.719 19.155c-.242 4-.485 7.94-.848 11.879-.243 2.303-.667 4.545-.91 6.848-.303 2.97-.545 5.878-.727 8.848-.182 3.273-.363 6.606-.545 9.878-.121 2.667-.243 5.333-.425 8-.303 3.636-.727 7.212-1.03 10.848-.364 3.575-.606 7.09-.97 10.666-.242 2-.666 4-.848 6-.243 2.666-.303 5.333-.546 7.939-.424 4.121-.909 8.181-1.393 12.242-.122.909.06 1.939-1.031 2.484-.727.303-1.394.97-2.06.909-3.879-.303-7.698-.787-11.576-1.151-2.97-.242-5.94-.242-8.849-.424-4.485-.283-8.97-.586-13.455-.909-2.788-.182-5.576-.303-8.303-.606-2.97-.364-5.879-.849-8.788-1.273-.788-.121-1.515-.303-2.303-.364-1.818-.181-3.637-.242-5.394-.484-4.243-.546-8.425-1.212-12.607-1.819-3.454-.545-6.969-1.212-10.424-1.575-4.727-.485-9.455-.727-14.182-1.091-4.788-.364-9.576-.727-14.364-1.212-3.697-.364-7.394-.97-11.091-1.515-.97-.121-3.212-2.121-3.091-3.515.161-2.828.363-5.656.606-8.485.182-2.303.485-4.605.667-6.908.484-5.394 1.03-10.788 1.394-16.181.363-5.394.606-10.788.848-16.182.121-3.03.182-6.06.303-9.09.182-4.97.303-10 .606-14.97.303-4.18.788-8.362 1.152-12.544.06-1.212-.303-2.485-.243-3.757.182-2.788.485-5.576.728-8.364 0-.363-.122-.787-.243-1.151-.606-1.152-.242-1.818 1.03-1.879 2-.121 4.001-.363 5.94-.182 3.091.243 6.061.97 9.091 1.212 2.667.182 5.333-.06 8-.06a86.22 86.22 0 015.576.363c.909.061 1.818.243 2.788.364 1.333.182 2.667.424 4.061.485 3.636.182 7.273.242 10.97.485 2.303.12 4.606.545 6.969.666 3.031.182 6.122.182 9.152.364 2.121.06 4.182.303 6.303.485 3.758.363 7.536.727 11.334 1.09 4.182.425 8.364.85 12.546 1.334 3.636.424 7.212.97 10.788 1.454 3.454.485 6.848 1.091 10.303 1.516 1.818.242 3.697.242 5.576.303l4.909.363c1.01.081 2 .162 2.97.243 1.151.06 2.363 1.333 2.303 2.424-.121 2.06-.303 4-.485 6h-.182zM222.05 97.576c.848.121 1.576.303 2.363.364 2.506.202 4.99.363 7.455.484 2.182.122 4.364 0 6.425.364 3.636.667 7.091 1.818 10.666 2.424 3.879.728 7.758 1.031 11.637 1.576 1.636.242 3.333.485 5.03.727 2.728.364 5.394.788 8.122 1.03 2.606.303 5.212.303 7.818.607 2.849.363 5.697 1.09 8.546 1.393 6.121.667 12.303 1.152 18.424 1.758 4.425.424 8.91.788 13.334 1.273 2.061.181 4.121.545 6.182.787 3.071.364 6.141.707 9.212 1.031 1.637.181 3.273.242 4.849.363.848.061 1.394-.303 1.454-1.151.122-.788.364-1.515.425-2.243.444-5.737.888-11.494 1.333-17.272 0-.12-.061-.242-.061-.363 0-1.576-.121-3.09-.06-4.666.121-3.455.363-6.91.485-10.303.303-5.757.424-11.515.848-17.272.303-4.121.909-8.181 1.394-12.242.242-2.485.424-4.97.727-7.454l1.455-13.272c.303-3.152.667-6.303.97-9.454 0-.425-.243-.91-.364-1.334a14.42 14.42 0 00-1.212.425c-.303.06-.606.363-.849.303-1.636-.243-3.212-.667-4.848-.849-1.334-.121-2.606-.545-4-.545-3.455-.06-6.97-.606-10.425-.97-2.363-.303-4.666-.97-7.151-1.03-3.213-.121-6.425-.667-9.637-1.091-1.03-.182-2-.848-2.97-.727-3.03.363-5.818-.667-8.727-.97-1.576-.182-3.091-.606-4.667-.727-4.545-.424-9.152-.727-13.697-1.091-2.849-.182-5.637-.545-8.485-.788-3.879-.303-7.758-.545-11.637-.788-4.121-.303-8.303-.545-12.424-.848-3.94-.303-7.879-.667-11.819-.91-2.666-.12-5.394-.12-8.06-.06-.364 0-1.031.606-1.091 1.03-.485 5.01-.93 10.04-1.334 15.09-.242 2.788-.303 5.576-.485 8.364-.161 3.07-.323 6.12-.484 9.151-.122 2.788-.182 5.575-.425 8.363-.121 2.424-.545 4.848-.666 7.333-.364 6.303-.606 12.666-.97 18.97-.303 4.605-.788 9.21-1.212 13.817-.182 1.878-.485 3.757-.728 5.696-.242 1.88-.484 3.758-.666 5.697z" fill="#fff"/><path fill-rule="evenodd" clip-rule="evenodd" d="M249.626 59.699c.061.121.061.182.121.182 2.425 1.697 2.425 1.878 1.091 4.606-.545 1.09-1.091 2.181-1.636 3.333-.546 1.151-1.394 1.394-2.485.97-1.879-.728-3.697-1.516-5.576-2.303-.97-.425-1.515-2.97-.97-3.94.667-1.212 1.273-2.484 1.879-3.757.849-1.636 1.091-1.697 2.849-1.091.545.242 1.091.424 1.818.727.788-1.454 1.455-2.97 2.485-4.303 1.212-1.697 2.667-3.272 4.121-4.787.728-.667 1.697-1.152 2.546-1.758 3.091-2.06 6.606-3.151 10-4.545 4.242-1.758 8.849-1.273 13.212-1.879 4.606-.666 8.728.667 12.91 2.182.121.06.242.121.363.121 2.97.485 5.213 1.394 8.364 3.515-.121.364-.263.727-.424 1.091 13.091 9.878 16.485 26.423 10.667 38.968.424.182.788.424 1.151.545 1.455.546 1.334 1.576.97 2.788-.485 1.576-.849 3.151-1.394 4.667-.121.424-.667.97-1.091 1.03-.909.182-1.939.303-2.727-.06-2-.85-4.485-.243-6.122-2-.363-.364-.606-1.092-.545-1.516.485-2.06 1.091-4.12 1.697-6.12.061-.425.303-.788.485-1.091 1.151-1.637 1.273-1.637 2.606-.122.242.364.848.424 1.273.606.424.182.909.364 1.151.485.121-.848.303-1.697.424-2.545.607-2.849 1.758-5.576 1.637-8.606-.061-2.545.121-5.09-.606-7.575-.788-2.546-1.637-5.091-2.849-7.454-.909-1.94-2.182-3.88-3.697-5.334-2.242-2.242-4.788-4.181-7.394-6.06-2.545-1.818-5.515-3.03-8.667-3.636-2.182-.364-4.424-.303-6.666-.364-1.516-.06-3.031 0-4.546 0-4-.12-7.637 1.212-11.273 2.606-3.152 1.273-6 2.849-8.546 5.03-.545.425-.969.97-1.454 1.515-1.738 1.98-3.455 3.94-5.152 5.879zm55.456 27.817c-.485 1.636-.909 3.151-1.455 4.97 2.061.363 3.94.666 6 1.03.364-1.152.788-2.243 1.091-3.394.061-.303-.242-.849-.485-.97-1.636-.545-3.272-1.03-5.151-1.636zm-60.547-27.514c-.727 1.515-1.394 2.97-2.182 4.606 1.495.687 2.97 1.373 4.425 2.06.848-1.515 1.636-2.848 2.424-4.303-1.455-.727-2.97-1.454-4.667-2.363zm1.031-41.877c-.364.667-.606 1.152-.909 1.758 1.333.848 2.606 1.636 3.818 2.485.303.181.424.727.606 1.09-.424.182-.849.606-1.152.485-1.212-.424-2.424-.788-3.515-1.515-1.03-.606-1.576-.303-2.061.606-.969 1.636-1.09 1.636-2.666.424-.97-.787-2.122-1.515-3.091-2.303-.788-.606-.727-1.333-.121-2.06.969-1.212 2-2.242 2.848-3.515.727-1.09 1.637-.91 2.424-.424 1.334.909 2.485 1.939 3.819 2.97zm-4.606-1.151c-.97 1.09-1.697 1.94-2.607 3.03.91.485 2.061 1.454 2.546 1.212.848-.424 1.515-1.576 1.758-2.545.06-.424-1.152-1.152-1.697-1.697zm90.85 54.906c.485-.788.909-1.515 1.273-2.181-.788-.606-1.576-1.152-2.243-1.819-.242-.242-.242-.848-.303-1.333.424 0 .97-.182 1.394 0 .788.364 1.455.91 2.243 1.394 1.272-1.758 2.303-1.94 4-.788.181.182.424.364.606.485 2.121 1.515 2.182 1.757 1.03 4-.485.97-1.152 1.878-1.758 2.727-.969 1.212-1.939 1.273-3.151.303-1.091-.91-2.061-1.879-3.091-2.788zm4.909 1.334c.606-1.152 1.152-2.182 1.697-3.273a92.093 92.093 0 01-2.121-1.576c-.667 1.091-1.334 2.06-2 3.152.788.545 1.576 1.09 2.424 1.697z" fill="#fff"/><path d="M260.96 28.61c-.364.848-.788 1.212-1.697.788-.849-.485-1.818-.728-2.667-1.152-.485-.242-.969-.485-1.212-.909-.242-.364-.242-.97-.303-1.454.485 0 1.03-.243 1.455-.061.788.303 1.636.727 2.363 1.151.728.485 1.334 1.03 2.061 1.637zm25.516 12.302c-2.425.06-6.243-2.181-6.304-3.757 1.94-.546 5.879 1.697 6.304 3.757zm26.909 16.424c-1.515-.91-2.97-1.637-4.303-2.546-.303-.182-.243-.788-.364-1.212.485-.06 1.091-.364 1.455-.121 1.333.666 2.606 1.454 3.879 2.303.242.121.485.727.363.97-.181.303-.666.424-1.03.606zm12.121 5.878c-1.454 1.212-5.151-.667-5.939-2.909 1.03-.727 3.394.424 5.939 2.91zM269.99 31.458c1.03.788 2.061 1.515 3.03 2.364.122.12.182.606.061.787-.121.182-.606.485-.727.364a25.83 25.83 0 01-3.697-1.758c-.303-.181-.303-.787-.425-1.212.485-.12 1.031-.303 1.758-.545zm35.092 56.058c1.879.606 3.515 1.091 5.152 1.636.242.122.545.667.484.97-.303 1.151-.727 2.242-1.09 3.394-2.061-.364-3.94-.667-6.001-1.03.546-1.819.97-3.334 1.455-4.97zm-60.547-27.514c1.697.909 3.213 1.636 4.667 2.363-.788 1.455-1.576 2.788-2.424 4.303a482.14 482.14 0 00-4.424-2.06c.787-1.637 1.454-3.091 2.181-4.606zm92.184 13.211a198.846 198.846 0 00-2.425-1.696c.667-1.091 1.334-2.06 2-3.152.788.606 1.455 1.091 2.122 1.576-.546 1.09-1.091 2.121-1.697 3.272z" fill="#fff"/><g style="mix-blend-mode:screen"><path d="M139.806 313.748c0 19.636-15.394 35.514-34.304 35.514-18.97 0-34.303-15.878-34.303-35.514 0-19.575 15.333-35.453 34.303-35.453 18.91 0 34.304 15.878 34.304 35.453z" fill="#0FA6A6"/><path d="M139.806 313.748c0 19.636-15.394 35.514-34.304 35.514-18.97 0-34.303-15.878-34.303-35.514 0-19.575 15.333-35.453 34.303-35.453 18.91 0 34.304 15.878 34.304 35.453z" stroke="#0FA6A6" stroke-miterlimit="10"/></g><path fill-rule="evenodd" clip-rule="evenodd" d="M234.292 19.337c-.242 4-.666 7.94-.666 11.878 0 4.606.363 9.152.545 13.757.182 5.334.364 10.727.424 16.12.061 2.546-.484 5.092-.424 7.576 0 2.727.485 5.455.606 8.182.182 4.787.182 9.575.303 14.302.182 4.364.424 8.727.606 13.03.122 3.394.243 6.787.425 10.121.424 7.393.969 14.787 1.394 22.18.424 6.849.545 13.697 1.272 20.484.182 1.818.606 3.515.061 5.394-.121.485.667 1.212.97 1.758-.97 3.211-3.758 2.908-6.122 3.03-4.848.181-9.757.181-14.606.303-6.667.182-13.273.303-19.879.666-5.212.303-10.364 1.031-15.516 1.334-6.363.303-12.727.424-19.091.666-2.061.061-4.121.364-6.243.485-5.333.182-10.606.303-15.939.545-4.788.182-9.516.546-14.304.728-4.06.182-8.121.121-12.182.485-3.697.363-7.333 1.272-11.03 1.575-3.637.243-7.334-.06-11.03.061-4.183.06-8.364.363-12.546.545-5.273.243-10.546.546-15.758.849a82.565 82.565 0 00-7.091.666c-1.334.182-2.606-.969-4.061.425-.727.727-3.273-1.394-3.333-2.728-.061-2.666-.061-5.333-.243-7.999-.424-8.363-.97-16.727-1.333-25.09-.182-4.06.06-8.181-.121-12.242-.243-4.848-.91-9.575-1.152-14.423-.242-5.758-.182-11.576-.424-17.333-.121-3.394-.727-6.727-.91-10.12-.181-4.546-.181-9.091-.302-13.636 0-1.819-.243-3.637-.303-5.515a305.892 305.892 0 01-.243-8.606c-.121-4.646-.222-9.272-.303-13.878-.06-4.545-.182-9.09-.121-13.636 0-1.818 2.424-3.454 4.242-3.333 1.455.121 2.91-.303 4.304-.364 10.97-.606 21.94-1.09 32.849-1.878 6.364-.485 12.667-1.697 18.97-2.303 7.273-.606 14.546-.91 21.758-1.334 3.03-.181 6-.181 9.03-.242 4.061-.121 8.122-.182 12.243-.364 5.03-.181 10.121-.545 15.212-.787 6.788-.303 13.637-.546 20.486-.788l21.152-.849c4.788-.182 9.575-.606 14.303-.545 4.545 0 9.091.363 13.636.606.182 0 .364.182.485.242zM55.319 143.938c.243.08.485.181.727.303l6-5.455c2.97-2.787 6-5.575 8.97-8.424 4.122-3.939 8-8.242 12.85-11.454.969-.606 1.635-1.696 2.545-2.424 2.848-2.181 5.697-4.303 8.545-6.484.91-.727 1.88-1.394 2.667-2.243 2.06-1.999 3.939-4.121 6-6.06 2.061-1.879 4.364-3.576 6.485-5.394 2.303-2.06 4.546-4.181 6.909-6.181 2.849-2.485 6.788-3.576 9.334-6.545.121-.121.242-.121.363-.243 2.364-1.575 4.607-3.333 7.092-4.666a46.843 46.843 0 018-3.455c1.454-.484 3.151-.303 4.727-.242 2.546.121 5.515-.303 7.576.788 5.394 2.848 10.485 6.242 15.515 9.575 2.788 1.94 4.91 4.727 8.122 6.182.424.242.727.848 1.091 1.272.242.364.424.91.727 1.213 2.303 2 4.667 4 6.97 6.06 3.091 2.788 5.818 6 9.212 8.302 5.758 3.94 11.879 7.333 17.879 10.97 5.879 3.575 11.697 7.151 17.395 10.605v-2.303c.06-1.212.242-2.424.181-3.636-.181-1.879-.727-3.818-.787-5.697 0-2.363.424-4.666.424-7.03 0-3.454-.182-6.969-.303-10.423-.122-3.394-.243-6.788-.303-10.121 0-3.454.121-6.909.182-10.363.121-3.879.424-7.697.363-11.515-.242-7.09-.667-14.181-.97-21.272-.202-3.636-.404-7.252-.606-10.848-.121-2.12-.363-4.181-.485-6.302-.06-2.182-.06-4.364-.06-6.606-.606 0-1.03 0-1.455.06-3.273.425-6.545 1.03-9.879 1.334-4.363.424-8.667.666-13.03.848-4.041.202-8.101.323-12.182.364-2.606.06-5.152-.243-7.697-.06-4.304.242-8.546.848-12.849 1.15-4.546.304-9.152.364-13.697.607-7.516.363-14.97.788-22.425 1.212-3.636.242-7.273.485-10.97.606-1.333.06-2.727-.424-4.121-.364-1.94.121-3.879.667-5.819.727-3.515.122-7.03-.181-10.606-.06-3.212.121-6.364.727-9.576.788-2.727.06-5.454-.546-8.182-.364-4.727.364-9.515-.424-14.303.545-3.273.667-6.727.485-10.121.728-.546.06-1.213.12-1.576.485-1.697 1.515-3.637 1.09-5.637 1.03-1.515 0-3.09 0-4.788.06.243 3.576.485 7.03.788 10.424.424 4.182 1.334 8.363 1.394 12.545.06 5.151.727 10.303 1.273 15.454.545 4.727 1.03 9.454 1.273 14.181.242 4.364.182 8.727.242 13.09.04 7.394.06 14.767.06 22.121 0 4.605-.181 9.151-.06 13.757.06 2.908.424 5.878.606 8.848zm3.697 27.392c4.182-.303 8.364-.545 12.546-.788 3.273-.181 6.546-.303 9.758-.484 2.12-.122 4.182-.364 6.242-.425 2.182-.06 4.303.122 6.485 0 3.273-.242 6.546-.727 9.879-.969 1.697-.121 3.455.182 5.212.06 2.243-.121 4.425-.545 6.667-.666 4.061-.182 8.122-.182 12.243-.364 6.364-.242 12.727-.606 19.152-.848 5.697-.303 11.455-.485 17.212-.788 4.364-.243 8.728-.849 13.091-.97 7.879-.242 15.819-.303 23.758-.424.606 0 1.233-.02 1.879-.061 3.273-.303 6.546-.606 9.819-.788 3.272-.181 6.606-.181 9.879-.303 2.848-.121 5.697-.424 8.545-.484 1.879 0 2.667-.606 2.546-2.424-.182-3.031-.485-6-.788-8.97a238.64 238.64 0 00-.727-7.515 231.01 231.01 0 00-.667-5.514c0-.182-.121-.425-.243-.546-2.181-1.939-4.303-4.06-6.666-5.757-3.213-2.243-6.607-4.182-10.001-6.182-4.242-2.606-8.545-5.03-12.788-7.636-4.242-2.606-8.727-4.848-12.485-7.939a162.79 162.79 0 00-17.03-12.363c-5.091-3.212-10.061-6.484-13.576-11.696-2.304-3.515-5.94-5.818-10.061-6.849-4.909-1.272-9.152.728-12.97 3.516-3.758 2.727-7.455 5.575-10.97 8.666-3.273 2.909-7.152 4.97-10.303 8.12-5.455 5.455-11.213 10.727-17.031 15.879-2.97 2.666-6.303 4.969-9.515 7.454-2.485 1.879-5.152 3.575-7.455 5.697-3.212 2.969-5.94 6.424-9.212 9.272-3.88 3.272-8.182 6.181-12.243 9.212-1.151.787-2.242 1.636-3.455 2.545.849 7.091.122 14.545 3.273 21.332z" fill="#fff"/><path fill-rule="evenodd" clip-rule="evenodd" d="M186.352 59.033c.364-2.243.485-4.546 1.152-6.667 1.09-3.575 6.485-7.15 10.363-7.454 4.667-.364 8.485 1.212 11.698 4.545 4.848 5.03 4.909 11.94 1.394 17.151-1.697 2.485-4.425 3.818-7.758 3.273-2.424-.364-4.909-.364-7.334-.546-5.212-.363-10.303-4.727-9.515-10.302zm5.212-1.576c-.727 3.697 1.334 6.848 7.576 7.454 3.515.303 6.485-2.545 6.667-7.03.182-5.394-1.697-7.515-8.424-7.939-3.031-.242-5.395 2.849-5.819 7.515z" fill="#fff"/><path d="M11.076 149.271l-.242 137.812 100.244-3.818 11.091-141.509-111.093 7.515z" fill="#F0E8E4"/><path fill-rule="evenodd" clip-rule="evenodd" d="M459.813 90.061c-.91 5.273-1.697 10.545-2.728 15.757-1.03 5.454-2.303 10.848-3.454 16.242-1.334 6.848-2.607 13.696-4.001 20.544-.606 3.091-1.454 6.121-2.06 9.151-.727 3.515-1.273 7.091-1.879 10.606-.909 5.333-1.939 10.606-2.727 15.939-.849 5.939-1.455 11.938-2.303 17.878-.546 3.636-1.273 7.272-2 10.908a534.07 534.07 0 01-2.91 13.454c-.727 3.576-1.636 7.151-2.363 10.727-.606 3.03-.97 6.121-1.455 9.151-.303 1.697-.303 3.515-.909 5.091-.242.666-1.697 1.151-2.545 1.151-2.91 0-5.819-.121-8.667-.545-3.455-.546-6.788-1.515-10.243-2.121-2.424-.425-4.909-.425-7.333-.728-1.819-.303-3.637-.848-5.455-1.212-.849-.182-1.758-.242-2.606-.424-3.798-.687-7.596-1.394-11.394-2.121-2.243-.424-4.425-.909-6.606-1.333-3.152-.566-6.283-1.132-9.395-1.697-2.666-.485-5.272-1.03-7.939-1.394-3.091-.485-6.182-.788-9.212-1.273-1.152-.182-2.304-.727-3.455-1.03-.788-.182-1.636-.121-2.424-.364-5.637-1.515-11.273-3.09-16.91-4.545-1.818-.485-3.636-.667-5.454-1.091-4.93-1.252-9.839-2.525-14.728-3.818a11.222 11.222 0 01-2.667-1.091c-1.091-.606-1.333-1.636-1.091-2.848 1.031-4.666 1.94-9.333 2.909-13.939.485-2.424 1.031-4.848 1.516-7.272.969-4.788 1.878-9.575 2.909-14.363 1.212-5.697 2.606-11.394 3.757-17.151.849-4.363 1.334-8.848 2.122-13.211 1.212-6.243 2.545-12.424 3.879-18.606 1.575-7.272 3.333-14.544 4.666-21.877.97-5.03 1.152-10.242 2.061-15.333.909-4.848 2.364-9.575 3.394-14.424.485-2.242.606-4.666.97-6.969.606-3.333 1.272-6.727 2.06-10 .425-1.636 2.303-2.242 3.879-1.878 1.273.303 2.606.06 3.879.121 2.243.182 4.485.242 6.727.545 4.243.606 8.546 1.273 12.789 2 7.03 1.152 14.061 2.364 21.091 3.636 6.97 1.213 14 2.546 20.97 3.88 2.849.484 5.697 1.09 8.546 1.575 3.272.545 6.606.909 9.879 1.515 2.545.424 5.03.97 7.576 1.515 2.727.667 5.454 1.576 8.242 2.121 1.94.364 3.94.243 5.94.727 4.121 1.03 8.363 1.576 12.485 2.485 1.576.364 3.212.97 4.485 1.879.606.424.606 1.878.727 2.848.061.364-.182.849-.303 1.273a.54.54 0 00-.242-.06zm-32.547 152.114c1.334-7.636 2.607-14.726 3.819-21.817.545-3.333.909-6.727 1.515-10.06 1.03-4.909 2.242-9.818 3.273-14.726.727-3.758 1.333-7.455 2-11.212.909-4.545 1.939-9.151 2.666-13.757 1.394-8.303 2.607-16.727 3.94-25.09.424-2.909 1.151-5.757 1.636-8.666.667-3.879 1.091-7.818 1.818-11.696.425-2.425 1.334-4.728 1.758-7.152.606-3.393.909-6.848 1.455-10.242.303-1.939.969-3.818 1.272-5.818.485-2.605.728-5.272 1.152-7.878.303-1.94.667-3.879.97-5.576-1.031-.181-2.122-.302-3.212-.545-2.485-.667-4.97-1.454-7.516-2-2.97-.666-6-.97-8.97-1.697-3.03-.666-5.939-1.818-9.03-2.424-3.818-.727-7.697-1.151-11.576-1.818-2.97-.485-5.879-1.212-8.849-1.697-2.606-.485-5.212-.788-7.818-1.212-2.121-.303-4.243-.545-6.364-.909-3.212-.545-6.364-1.09-9.576-1.758-2.848-.605-5.636-1.393-8.485-1.939-4.848-.848-9.758-1.515-14.606-2.363-2.849-.485-5.637-1.273-8.485-1.758-2.909-.485-5.818-.666-8.728-1.09-1.515-.182-3.151.727-3.454 2-.364 1.636-.546 3.332-.849 4.969-.606 3.151-1.151 6.302-1.757 9.454-.667 3.333-1.576 6.666-2.122 10.06-.788 4.606-1.333 9.272-2 13.939-.363 2.484-.969 4.909-1.272 7.393-.788 7.394-2.364 14.606-4.122 21.757-1.333 5.757-3.091 11.454-4.363 17.211-1.94 8.364-3.637 16.787-5.273 25.272-.909 4.545-1.334 9.212-2.364 13.757-.97 4.545-2.545 8.909-3.636 13.393-.849 3.212-1.273 6.545-2.122 9.818-.303 1.333.061 1.879 1.213 2.242 3.272.909 6.606 1.879 9.939 2.788 3.03.788 6.121 1.515 9.212 2.303 1.879.485 3.697 1.151 5.576 1.576 2.122.484 4.303.787 6.485 1.272 2.243.485 4.425 1.273 6.728 1.697 2.182.424 4.485.485 6.788.788 2.182.364 4.424 1.091 6.666 1.212 2.425.121 4.607 1.03 6.849 1.758 1.333.424 2.667.848 4.061 1.151 3.03.667 6.06 1.333 9.151 1.879 2.122.424 4.243.666 6.364.969 3.273.485 6.606.788 9.819 1.334 2.303.363 4.545 1.151 6.788 1.393 4.303.425 8.606.607 12.97.849.909.061 1.878-.121 2.727.121 2.606.788 5.152 1.636 7.939 2.545z" fill="#fff"/><path fill-rule="evenodd" clip-rule="evenodd" d="M436.357 141.271c-.909 6.121-1.818 12.181-2.848 18.302-.667 4-1.394 8-2.303 11.939-1.212 5.454-2.667 10.909-3.819 16.423-.848 3.758-1.333 7.636-2.06 11.394-.243 1.394-.424 2.848-2.485 3.091-.788.06-1.455 1.333-2.243 1.394a29.424 29.424 0 01-5.636-.364c-4.788-.848-9.576-1.939-14.425-2.788-2.788-.545-5.576-.727-8.363-1.212-3.576-.606-7.091-1.394-10.728-2-3.636-.606-7.394-.969-11.091-1.697-5.515-1.03-10.97-2.303-16.485-3.393-3.94-.849-7.879-1.455-11.758-2.303-1.576-.303-3.273-.667-4.667-1.394-.788-.364-1.636-1.637-1.515-2.424.303-2.849 1.091-5.697 1.636-8.545.303-1.516.546-3.031.91-5.091-2.728-.485-5.152-.849-7.576-1.333-.485-.122-1.091-.849-1.212-1.394-1.031-5.212-.304-10.424.727-15.575 2.182-11.273 4.303-22.545 6.545-33.817.788-3.939 1.697-7.818 2.546-11.696.121-.606-.121-1.212-.243-1.819-.303-2.545 1.576-3.939 4.061-3.515 3.94.728 7.94 1.091 11.879 1.576 2.243.243 4.485.364 6.728.546 1.515.121 3.151.06 4.666.363 5.273.909 10.485 1.94 15.758 2.909 4.404.849 8.788 1.697 13.152 2.546 3.576.666 7.091 1.454 10.606 2.06 3.455.606 6.909.848 10.364 1.455 2.061.303 4.061.909 6.121 1.454 1.273.364 2.243 2.182 2 3.636a458.219 458.219 0 01-2.363 13.151c-.243 1.091.182 1.515.969 1.697 2.304.545 4.607 1.03 6.91 1.515 1.454.303 2.909.424 4.424.727 1.212.303 2.121 2.243 1.818 4.182zM341.81 167.27c4 .545 8.061.727 12.061 1.272 2.606.364 5.212.97 7.879 1.455 1.272.242 2.545.545 3.818.727 2.788.424 5.636.546 8.424 1.152 7.879 1.636 15.698 3.636 23.758 4.424 4.243.363 8.546 1.091 13.395 1.757-2-1.636-1.031-3.272-.97-4.848 0-.667.242-1.515-.121-1.939l-.243-.364c.303-.424.546-.909.667-1.576l.242-1.515c.041-.323.061-.646.061-.969v-.182c.121.081.222.161.303.242.303-1.515.727-3.151 1.091-4.788 1.515-6.848 3.152-13.635 4.667-20.483a285.005 285.005 0 001.818-9.879c.525-2.909 1.01-5.797 1.455-8.666.181-1.091.303-2.182-1.394-2.182-.728.061-1.455-.242-2.182-.363-4.91-.849-9.879-1.697-14.849-2.667-3.879-.727-7.576-2.242-11.455-2.969-2.061-.364-4-1.031-6.061-1.334-2.666-.363-5.394-.545-8.121-.727a771.947 771.947 0 00-9.576-.788c-1.697-.121-3.454-.182-5.152-.424-3.757-.667-7.515-1.515-11.272-2.242-1.273-.243-2.546-.425-3.879-.667-.788 4.424-1.334 8.545-2.243 12.545-.97 4.303-2.242 8.606-3.394 12.848-.303 1.03-.666 2.06-.909 3.091-.424 1.515-.727 3.03-1.091 4.484-.06.424-.182.788-.182 1.152-.121.848-.06 1.757-.242 2.606-.606 3.212-1.212 6.363-1.818 9.575-.061.182 0 .424.121.667l-.243.606c-.666 1.09-.787 2.303-.424 3.393-.04.202-.081.384-.121.546-1.212 1.394-.849 3.454-1.455 5.151 2.607.667 5.091 1.515 7.637 1.879zm89.941-26.484c-3.818-.667-7.273-1.273-11.091-1.879-.485 2.728-.849 5.212-1.333 7.636-.546 3.394-1.273 6.727-1.758 10.061-.364 2.727-.364 5.514-.727 8.242-.546 4.06-1.273 8.06-1.94 12.06-.161.929-.323 1.878-.485 2.848-.303 1.212-3.151 3.515-4.424 3.394-3.151-.303-6.242-.606-9.333-1.03-3.213-.425-6.425-1.031-9.637-1.576-4.061-.667-8.061-1.333-12.061-2-2.909-.485-5.818-.97-8.788-1.394-3.515-.485-7.091-.727-10.606-1.273-3.515-.606-6.97-1.393-10.485-2.06-1.576-.303-3.212-.303-4.788-.606-2.182-.485-2.727 0-3.031 2.182-.484 2.969-1.212 5.878-1.939 8.787-.242.909-.182 1.394.849 1.576 2.363.363 4.666.848 7.03 1.212 3.091.485 6.243.848 9.334 1.454 3.575.667 7.091 1.697 10.666 2.485 2.667.606 5.374 1.131 8.122 1.576 1.818.303 3.757.424 5.576.727 1.757.242 3.454.788 5.151.848 5.394.303 10.607 1.394 15.879 2.546 5.637 1.272 11.334 2.424 17.031 3.636.909.182 1.394 0 1.636-1.091.788-3.818 1.637-7.636 2.606-11.454.364-1.636 1.152-3.272 1.455-4.969.606-2.97.97-6 1.394-8.97.364-2.363.788-4.727 1.091-7.09.303-1.94.485-3.939.848-5.879.304-1.757.849-3.515 1.152-5.272.485-2.364.849-4.727 1.273-7.091.424-2.485.848-4.909 1.333-7.636z" fill="#fff"/><path d="M74.775 230.6c-.485-5.939-3.152-13.211-8.849-15.878-4.364-2.06-12.788-2.181-11.515-9.272 1.03-5.636 10.06-3.333 13.94-3.151 4.969.242 4.969-7.515 0-7.697-5.637-.242-12.183-1.757-17.092 1.939-4.242 3.212-5.455 8.848-4.303 13.939 1.151 5.091 5.09 7.757 9.758 9.515 4.788 1.818 9.151 3.333 9.94 9.393.848 6.424-1.516 7.03-6.486 6.364-2.242-.303-5.697-.788-7.454-2.243-3.758-3.212-9.273 2.243-5.455 5.455 9.273 7.818 28.788 7.393 27.516-8.364z" fill="#0FA6A6" fill-opacity=".5"/><path d="M438.357 257.508c-26.849 0-26.909 41.695 0 41.695 26.849 0 26.91-41.695 0-41.695z" fill="#BFE6D8" stroke="#BFE6D8" stroke-miterlimit="10"/><path fill-rule="evenodd" clip-rule="evenodd" d="M497.631 312.051c-.182 1.636-.485 3.758-2 4.727-2.97 1.879-12.121-.485-15.637-.545-7.212 0-14.424.182-21.636.182-14.607 0-29.334-1.152-43.819-.243-6.849.485-13.698.121-20.546.243-2.303 0-6.425 1.03-8.122-1.091-1.939-2.364-.424-9.212-.424-12v-21.029c0-13.454-1.212-27.514 1.152-40.725.242-1.394 1.697-1.394 2.485-.606 17.03 0 34.061-.425 51.031-.546 15.394-.182 30.728-2.363 46.122-2.727 2.545-.061 6.424-.909 8.061 1.697 1.515 2.485.06 9.696.06 12.302 0 13.575 1.091 27.332 1.94 40.908.363 6.242 2 13.15 1.333 19.453zm-3.454-5.454c-1.031-10.424-1.516-21.151-1.819-31.635-.121-5.515-.666-10.969-.969-16.424-.182-3.211-.122-6.423-.122-9.635 0-1.576.788-5.152.182-6.546-1.939-4.666-22.485-.181-27.576.061-24.91.97-49.637 1.636-74.547 1.636-2.182 13.757-.788 28.544-.788 42.423v19.453c0 1.879-.848 6.424.606 7.515.727.546 4.97-.121 5.879-.121 11.637 0 23.516-1.394 35.031-.424 12.243.969 24.728.484 37.031.363 6.606 0 13.212-.363 19.819.121 1.394.061 5.333 1.152 6.485.485 2.121-1.151.969-4.909.788-7.272z" fill="#fff"/><path fill-rule="evenodd" clip-rule="evenodd" d="M458.297 279.568c-.242 6.242-1.697 14.969-6.424 19.332-5.394 5.03-13.697 3.03-20.364 2.667-7.213-.485-12.485-1.455-16.91-7.818-3.939-5.575-4.363-13.515-3.757-20.12.606-6.364 2.303-11.879 7.697-15.636 5.576-3.879 12.182-3.394 18.667-2.909.242-.303.606-.424 1.091-.424 4.909.364 13.212 1.576 16.606 5.636 4.182 5.03 3.637 13.272 3.394 19.272zm-4.606-14.969c-2.485-4.424-8.727-6.121-13.758-6.667a1.267 1.267 0 01-1.091.364c-5.454-.364-11.697-1.515-16.849 1.091-5.879 3.03-7.636 9.272-8.121 15.393-.97 12.909 3.818 22.848 17.637 23.696 5.757.303 13.03 1.758 18.182-1.757 4.242-2.849 5.394-14.121 5.515-18.424.182-4.181.606-9.999-1.515-13.696z" fill="#fff"/><path d="M442.176 284.356c-2.061 2.606-3.818 4.06-7.273 4.302-3.455.243-6.121.364-7.576-3.272-2.061-5.273-.121-11.878 6-12.969 1.758-.303 4.182.727 5.394-1.03 1.031-1.455.243-4.243.182-5.879-.121-2-3.212-2-3.091 0 .061.848.485 2.485.182 3.273-.061.121-.061.242-.121.303-.061-.122-.303-.243-.849-.243-2.424.061-4.121.606-6.242 1.939-4.061 2.485-6 6.97-5.334 11.758.546 4.121 1.818 8.363 6.425 9.211 6.182 1.152 10.727-.545 14.485-5.212 1.273-1.515-.909-3.696-2.182-2.181z" fill="#100F12"/><path d="M288.354 348.777c-1.091-4.303.121-8.545.303-12.727l2.303-1.151c2.727-1.334 5.515-2.546 8.121-4.061 2.182-1.273 4.122-3.03 6.303-4.363 1.576-1.031 3.334-1.697 4.97-2.546 2.122-1.091 4.303-2.121 6.303-3.333 3.94-2.424 7.819-4.848 11.576-7.454 2.182-1.455 4.667-2.242 6.849-3.576 2.364-1.454 4.849-2.727 7.273-3.939 2.545-1.212 5.212-1.939 7.939-.666 2.304 1.09 4.182 2.787 5.152 5.09 1.455 3.333 4 5.818 6.667 8.242a100.658 100.658 0 018.606 8.97c1.818 2.181 4.182 3.999 6.364 5.939 2.182 1.939 4.424 3.818 6.667 5.757 1.757 1.576 3.515 3.03 5.151 4.666 1.212 1.273 2.182 2.728 3.273 4.061.061.121.061.242.061.363a89.693 89.693 0 01-.182 3.273c-.121 1.455-.243 2.929-.364 4.424-.182 1.758-.303 3.515-.485 5.333-.121 1.03-.666 1.333-1.757 1.152-1.637-.303-3.334-.425-5.031-.667-1.878-.242-3.818-.606-5.757-.848-1.94-.243-3.879-.425-5.819-.606l-1.091-.122c-4.606-.788-9.212-1.575-13.879-2.303-2.545-.363-5.151-.484-7.697-.787-3.394-.425-6.727-.97-10.121-1.394-3.697-.546-7.455-1.031-11.213-1.515-2.363-.364-4.727-.788-7.151-1.091-1.273-.182-2.606-.121-3.94-.303-1.03-.121-2-.485-3.03-.606-1.939-.182-3.879-.303-5.818-.485-1.273-.182-2.546-.485-3.758-.667-1.212-.182-2.485-.303-3.697-.424-1.879-.242-3.818-.545-5.697-.788l-7.394-.848z" fill="#91CDA1"/><path d="M288.354 348.777c-1.091-4.303.121-8.545.303-12.727l2.303-1.151c2.727-1.334 5.515-2.546 8.121-4.061 2.182-1.273 4.122-3.03 6.303-4.363 1.576-1.031 3.334-1.697 4.97-2.546 2.122-1.091 4.303-2.121 6.303-3.333 3.94-2.424 7.819-4.848 11.576-7.454 2.182-1.455 4.667-2.242 6.849-3.576 2.364-1.454 4.849-2.727 7.273-3.939 2.545-1.212 5.212-1.939 7.939-.666 2.304 1.09 4.182 2.787 5.152 5.09 1.455 3.333 4 5.818 6.667 8.242a100.658 100.658 0 018.606 8.97c1.818 2.181 4.182 3.999 6.364 5.939 2.182 1.939 4.424 3.818 6.667 5.757 1.757 1.576 3.515 3.03 5.151 4.666 1.212 1.273 2.182 2.728 3.273 4.061.061.121.061.242.061.363a89.693 89.693 0 01-.182 3.273c-.121 1.455-.243 2.929-.364 4.424-.182 1.758-.303 3.515-.485 5.333-.121 1.03-.666 1.333-1.757 1.152-1.637-.303-3.334-.425-5.031-.667-1.878-.242-3.818-.606-5.757-.848-1.94-.243-3.879-.425-5.819-.606l-1.091-.122c-4.606-.788-9.212-1.575-13.879-2.303-2.545-.363-5.151-.484-7.697-.787-3.394-.425-6.727-.97-10.121-1.394-3.697-.546-7.455-1.031-11.213-1.515-2.363-.364-4.727-.788-7.151-1.091-1.273-.182-2.606-.121-3.94-.303-1.03-.121-2-.485-3.03-.606-1.939-.182-3.879-.303-5.818-.485-1.273-.182-2.546-.485-3.758-.667-1.212-.182-2.485-.303-3.697-.424-1.879-.242-3.818-.545-5.697-.788l-7.394-.848z" stroke="#91CDA1" stroke-miterlimit="10"/><path fill-rule="evenodd" clip-rule="evenodd" d="M405.205 279.325c-.545 2.303-1.212 4.606-1.636 6.97-.546 2.666-.788 5.454-1.213 8.181a264.6 264.6 0 01-1.454 9.636c-.242 1.455-.849 2.909-1.091 4.424-.242 1.636-.242 3.273-.485 4.909-.424 2.848-.909 5.636-1.333 8.484-.424 2.606-.728 5.212-1.091 7.818-.303 2-.606 4-.849 6-.545 4.485-1.03 8.909-1.575 13.333-.485 4.06-1.152 8.121-1.455 12.242-.061 1.09 0 2.181-.485 3.212-.182.242.243.787.364 1.151-.97 1.818-2.546 1.273-4 1.091-2.909-.364-5.758-.909-8.667-1.394-3.94-.606-7.879-1.212-11.879-1.697-3.091-.424-6.182-.545-9.273-.909-3.818-.485-7.576-1.151-11.394-1.636-1.273-.182-2.485-.243-3.758-.424-3.151-.425-6.364-.97-9.515-1.394l-8.546-1.091c-2.424-.303-4.848-.788-7.273-1.03-2.182-.182-4.485 0-6.667-.243-2.242-.242-4.363-.848-6.545-1.212a363.23 363.23 0 00-7.515-.97c-3.152-.424-6.304-.848-9.455-1.212a75.772 75.772 0 00-4.243-.363c-.788-.061-1.454-.849-2.424-.182-.545.364-1.818-1.212-1.697-2l.727-4.727c.606-5.03 1.212-10 1.879-15.03.364-2.424.909-4.848 1.273-7.272.364-2.848.485-5.757.848-8.666.485-3.455 1.152-6.848 1.637-10.303.303-2 .303-4.06.545-6.06.364-2.727.909-5.394 1.334-8.121.121-1.091.242-2.242.363-3.333.243-1.697.505-3.414.788-5.152l1.334-8.242c.424-2.666.909-5.393 1.394-8.06.181-1.091 1.818-1.818 2.848-1.515.849.182 1.758.121 2.606.243 6.546.787 13.091 1.696 19.698 2.424 3.818.424 7.636.363 11.454.666 4.364.425 8.728 1.031 13.031 1.576 1.818.242 3.576.545 5.394.788 2.424.363 4.848.788 7.273 1.151 3.03.425 6.06.788 9.091 1.152 4.061.606 8.121 1.151 12.243 1.757 4.202.606 8.404 1.192 12.606 1.758 2.848.424 5.697.727 8.545 1.212 2.667.485 5.334 1.212 8.001 1.879.121 0 .181.121.242.181zm-118.366 54.18l.364.242c1.333-.848 2.727-1.697 4.06-2.545 2.061-1.273 4.061-2.606 6.122-3.939 2.788-1.879 5.515-3.94 8.667-5.273.606-.303 1.151-.848 1.757-1.151l5.637-2.909a26.306 26.306 0 001.818-.97c1.394-.97 2.667-2 4.121-2.909 1.394-.909 2.909-1.636 4.303-2.485 1.576-.909 3.091-1.939 4.667-2.848 1.939-1.152 4.364-1.333 6.182-2.788.061-.06.121-.06.182-.121 1.576-.667 3.03-1.455 4.667-1.939a26.952 26.952 0 014.969-1.212c.909-.122 1.879.181 2.788.424 1.515.303 3.212.363 4.364 1.273 2.788 2.181 5.394 4.666 7.94 7.211 1.454 1.394 2.424 3.212 4.06 4.424.243.182.364.546.546.849.121.242.121.545.303.788 1.151 1.393 2.303 2.787 3.394 4.242 1.515 1.939 2.788 4.121 4.485 5.818 2.909 2.909 6.121 5.515 9.212 8.242a953.435 953.435 0 009.03 7.999c.061-.303.122-.787.243-1.333.182-.666.424-1.394.485-2.06.06-1.152-.061-2.303.121-3.394.242-1.394.788-2.667 1.03-4.061.364-1.999.606-4.06.909-6.12.303-1.94.546-3.94.91-5.879.363-2.061.787-4.06 1.212-6.06.424-2.182 1.03-4.364 1.394-6.606.606-4.182 1.151-8.363 1.697-12.484.282-2.142.545-4.263.788-6.364.181-1.212.242-2.484.424-3.697.182-1.272.424-2.545.666-3.878-.424-.061-.606-.121-.848-.121-2-.061-4-.061-5.94-.243a162.734 162.734 0 01-7.636-.909 217.903 217.903 0 01-7.152-1.091c-1.515-.242-2.969-.666-4.485-.848-2.485-.303-5.03-.424-7.576-.667-2.666-.303-5.333-.788-8-1.091a977.548 977.548 0 00-13.212-1.696c-2.121-.243-4.303-.485-6.424-.788-.788-.122-1.576-.546-2.364-.667-1.152-.121-2.303 0-3.455-.182-2.06-.303-4.06-.848-6.121-1.151-1.879-.243-3.818-.243-5.697-.546-1.576-.242-3.091-.909-4.728-1.091-2.787-.303-5.454-1.212-8.363-1.212-2 .061-3.94-.424-5.94-.666-.363 0-.727 0-.97.121-1.151.727-2.242.242-3.394.061-.909-.182-1.818-.364-2.788-.485-.242 2.06-.484 4.121-.666 6.121-.182 2.484-.121 5.03-.485 7.454-.546 3.03-.667 6.06-.909 9.09-.182 2.849-.424 5.637-.788 8.424-.303 2.546-.788 5.091-1.212 7.636l-2.303 12.848c-.485 2.667-1.091 5.333-1.515 8-.303 1.697-.364 3.454-.546 5.212zm-.788 16.302c2.465.283 4.93.586 7.394.909 1.94.182 3.819.485 5.758.727 1.212.121 2.424.243 3.636.424 1.273.182 2.485.485 3.758.667 1.939.243 3.94.303 5.879.485.97.121 2 .485 3.03.606 1.273.182 2.606.121 3.94.303 2.363.303 4.727.727 7.151 1.091 3.697.485 7.455 1.03 11.213 1.515 3.333.485 6.727.97 10.121 1.394 2.546.303 5.152.424 7.697.788 4.606.727 9.213 1.515 13.819 2.303.404.04.788.08 1.151.121 1.94.182 3.879.363 5.758.606 1.939.242 3.879.606 5.818.848 1.637.243 3.334.364 5.031.667 1.03.182 1.575-.121 1.697-1.152.242-1.818.363-3.575.485-5.333.161-1.495.282-2.969.363-4.424l.243-3.272c0-.121-.061-.243-.122-.364-1.091-1.333-2.06-2.788-3.272-4.06-1.637-1.637-3.394-3.091-5.152-4.667-2.182-1.939-4.424-3.818-6.606-5.757-2.182-1.939-4.546-3.757-6.425-5.939a85.928 85.928 0 00-8.606-8.97c-2.606-2.424-5.151-4.848-6.667-8.242-.969-2.302-2.848-3.999-5.151-5.09-2.667-1.212-5.334-.546-7.879.666-2.485 1.212-4.909 2.485-7.273 3.94-2.242 1.333-4.727 2.121-6.849 3.575-3.757 2.606-7.697 5.03-11.576 7.454-2.06 1.213-4.242 2.243-6.363 3.334-1.637.848-3.394 1.515-4.91 2.545-2.181 1.333-4.121 3.091-6.363 4.363-2.606 1.515-5.394 2.728-8.122 4.061a80.13 80.13 0 00-2.242 1.151c-.243 4.182-1.455 8.424-.364 12.727z" fill="#fff"/><path fill-rule="evenodd" clip-rule="evenodd" d="M371.992 297.991c.424-1.272.788-2.545 1.394-3.757 1.03-1.939 4.545-3.455 6.788-3.212 2.788.303 4.849 1.576 6.364 3.878 2.242 3.394 1.575 7.455-1.031 10.061-1.272 1.272-2.969 1.757-4.848 1.151-1.394-.485-2.849-.727-4.243-1.091-2.969-.788-5.454-3.878-4.424-7.03zm3.212-.363c-.848 2.06 0 4.121 3.576 5.151 2.061.545 4.061-.788 4.667-3.394.666-3.151-.182-4.545-4.061-5.515-1.758-.424-3.455 1.091-4.182 3.758zm-22-104.965c0 4.181-.061 8.424.061 12.666.06 2.666.545 5.272.545 7.939.061 5.272-.061 10.605-.121 15.878 0 2.848.06 5.757.121 8.606.061 4.484.121 8.969.303 13.393.121 4.06.485 8.181.727 12.242.182 3.151.303 6.363.425 9.575.06 3.394.06 6.788.121 10.181 0 4.121-.121 8.242-.061 12.363.061 2.788.364 5.515.485 8.303.061 1.212-1.636 3.091-2.849 3.576-2.484 1.091-5.151 1.091-7.818 1.212-1.576.06-3.151.424-4.727.545-1.879.061-3.818 0-5.758.061-1.636.06-3.212.363-4.788.363-1.03.061-2-.181-3.03-.181-.606-.061-1.334-.061-1.818.181-1.334.606-2.546.909-3.94.303-.303-.181-.848-.181-1.091 0-2.788 1.576-5.879 1.152-8.909 1.213-2.243 0-4.546.06-6.849 0-2.182 0-4.303-.243-6.485-.182-3.818.121-7.636.485-11.455.545-3.394.121-6.787 0-10.242 0-.303 0-.667.182-.97.182-1.636.061-3.333 0-4.97.121-1.757.121-3.575.364-5.333.546-1.152.121-2.364.363-3.515.424-1.031.06-2.122-.061-3.152-.061-1.414 0-2.808.02-4.182.061-1.333.06-2.606.242-3.879.303-7.394.121-14.727.121-22.121.424-5.152.182-10.364.788-15.516 1.03-5.515.303-11.03.364-16.545.425-3.091.06-6.182.06-9.213-.061-.727 0-1.697-.424-2-.909-1.03-1.576-2.242-3.212-2.667-4.909-.363-1.818.182-3.757.243-5.697.242-6.121.485-12.242.545-18.362 0-2-.727-4.061-.909-6.061-.182-2.06-.06-4.181-.182-6.242-.121-2.121-.545-4.242-.666-6.363-.121-1.94 0-3.879 0-5.879.06-3.091.06-6.242.121-9.393.061-1.637.485-3.334.485-4.97-.061-2-.303-4-.424-6-.061-.666 0-1.272 0-1.939 0-4.181-.061-8.363 0-12.605.06-1.273.484-2.606.484-3.879 0-1.394-.363-2.788-.363-4.182a955.582 955.582 0 010-15.332c0-2.849.182-5.697.182-8.606 0-1.273-.243-2.606-.303-3.879-.122-1.939 1.454-2.787 3.03-3.575.182-.121.606-.061.667-.182 1.454-2.969 4.363-1.091 6.545-1.454 2.667-.364 5.394-.243 8.122-.243 5.575 0 11.212 0 16.848-.06 3.576 0 7.152-.243 10.728-.182 3.212.06 6.424.485 9.636.485 4.849 0 9.637-.243 14.486-.364 4.606-.121 9.212-.303 13.818-.182 3.818.121 7.697.849 11.515.909 4.122.061 8.304-.363 12.425-.363 2.303 0 4.545.484 6.848.484 3.152.061 6.304-.242 9.455-.303 2.849-.06 5.697.061 8.546 0 2.424-.06 4.909-.242 7.394-.303 1.03-.06 2.121.122 3.151.182 5.657.283 11.314.546 16.971.788 2.181.121 4.363.061 6.545.242 4.121.425 4.849 1.213 5.334 4.303.181.97.242 1.879.363 2.788a1.35 1.35 0 01-.424.061zM186.716 309.93c1.515-.424 1.454-.303 4 0 2.303.303 4.727.424 7.03.303 4.91-.182 9.819-.545 14.667-.788 5.273-.242 10.546-.545 15.819-.606 4 0 8.061.546 12.061.424 4.909-.181 9.879-.727 14.788-1.393 6.485-.788 12.909-.303 19.394-.303 4.485 0 8.909-.425 13.394-.728 3.152-.182 6.364-.545 9.576-.666 2.606-.122 5.212.121 7.819-.061 4.788-.303 9.576-.97 14.363-1.151 4.485-.182 8.91.121 13.395.06 6.242-.06 12.545-.242 18.788-.363.242-1.091.727-2.122.667-3.152-.061-4-.303-7.999-.425-11.939a856.438 856.438 0 01-.242-14.423c0-2.303.303-4.667.121-6.97-.242-4.787-.848-9.575-1.091-14.363-.303-5.151-.363-10.363-.424-15.514-.061-5.091-.061-10.181-.061-15.272 0-2.667.182-5.333.061-8-.182-3.272-.727-6.605-.727-9.878-.061-4.424.303-8.848.485-13.272 0-1.091-.485-1.879-1.819-1.939-2.06 0-4.06.06-6.121 0-4.121 0-8.243-.122-12.364-.122-6-.06-12 0-18.061-.121-10.121-.121-20.243-.364-30.364-.545-3.94-.061-7.879 0-11.819 0-5.03-.061-10.121-.061-15.151-.182-4.485-.121-8.91-.364-13.334-.424a250.361 250.361 0 00-11.03 0c-4.304.06-8.667.181-13.031.424-5.152.242-10.243.667-15.394 1.03-2.606.182-5.273.303-7.879.546-2.243.181-4.424.545-6.667.666-1.333.121-1.636.424-1.636 1.636.06 5.94 0 11.879-.061 17.818-.061 2.121-.303 4.242-.242 6.303.242 5.333.788 10.666.909 15.999.182 6.242.121 12.484.06 18.726 0 2.606-.242 5.212-.242 7.818.061 2.788.424 5.576.485 8.363.06 2.667-.182 5.333-.121 7.939 0 3.091.181 6.182.242 9.212.061 3.151.121 6.303.121 9.394.041 2.505.061 4.989.061 7.454v8.06z" fill="#fff"/><path fill-rule="evenodd" clip-rule="evenodd" d="M186.716 309.93v-8.06c0-2.465-.02-4.95-.061-7.454 0-3.091-.06-6.243-.121-9.394-.061-3.03-.243-6.121-.243-9.212-.06-2.606.182-5.272.122-7.939-.061-2.787-.425-5.575-.485-8.363 0-2.606.242-5.212.242-7.818.061-6.242.121-12.484-.06-18.726-.122-5.333-.667-10.666-.909-15.999-.061-2.061.181-4.182.242-6.303.061-5.939.121-11.878.061-17.818 0-1.212.303-1.515 1.636-1.636 2.242-.121 4.424-.485 6.667-.667 2.606-.242 5.273-.363 7.879-.545 5.151-.364 10.242-.788 15.394-1.03 4.364-.243 8.727-.364 13.031-.424 3.676-.081 7.353-.081 11.03 0 4.424.06 8.849.303 13.334.424 5.03.121 10.121.121 15.151.182 3.94 0 7.879-.061 11.819 0 10.121.181 20.243.424 30.364.545 6.061.121 12.061.061 18.061.121 4.121 0 8.243.121 12.364.121 2.061.061 4.061 0 6.121 0 1.334.061 1.818.849 1.818 1.94-.181 4.424-.545 8.848-.484 13.272 0 3.272.545 6.606.727 9.878.121 2.667-.061 5.333-.061 8 0 5.091 0 10.181.061 15.272.061 5.151.121 10.363.424 15.514.243 4.788.849 9.576 1.091 14.363.182 2.303-.121 4.667-.121 6.97.04 4.808.121 9.615.242 14.423.122 3.939.364 7.939.425 11.939.06 1.03-.425 2.061-.667 3.152-6.243.121-12.546.303-18.788.363-4.485.061-8.91-.242-13.395-.06-4.788.181-9.575.848-14.363 1.151-2.607.182-5.213-.061-7.819.061-3.212.121-6.424.484-9.576.666-4.485.303-8.909.727-13.394.727-6.485 0-12.909-.484-19.394.303-4.909.667-9.879 1.213-14.788 1.394-4.001.122-8.061-.424-12.061-.424-5.273.061-10.546.364-15.819.606-4.848.243-9.758.606-14.667.788-2.303.121-4.727 0-7.03-.303-2.546-.303-2.485-.424-4 0zm12.485-49.877h-.364v5.031c.061 4.181.061 8.363.061 12.544.06 4.182 0 8.364 0 12.545.06 1.818 1.151 3.091 3.212 3.333 3.333.485 6.667.91 10 .97 5.152.121 10.303-.121 15.394-.121 4.788 0 9.516.182 14.243.121 5.515 0 11.031-.06 16.546-.303 5.091-.182 10.182-.788 15.334-.242.242 0 .484 0 .727-.061 2-.606 4.121-.424 6.182-.364 2.485 0 4.97.061 7.454.303 2.667.243 5.455-.242 8.243-.484.606-.061 1.394-.364 1.818-.788.788-.788 1.212-1.879 2.061-2.485.97-.727 1.03-1.454.97-2.424l-.728-19.029-.485-12.485c-.06-2.484-.121-4.969-.121-7.515-.121-5.878-.242-11.817-.424-17.756-.061-.909-.424-2.182-1.879-2.303-4.182-.303-8.303-.485-12.485-.606-3.515-.122-7.03-.121-10.546-.243-4-.121-7.939-.424-11.939-.485-4.061-.06-8.122.182-12.182.243-5.94.06-11.879 0-17.819.121-2.363 0-4.727.121-7.091.242-3.576.182-7.151.425-10.667.607-4.182.242-8.303.484-12.485.606-1.515.121-2.848.848-2.909 2.181-.242 2.909-.424 5.879-.424 8.788 0 3.394.242 6.787.303 10.181.06 3.273 0 6.545 0 9.878zm121.033 33.453c4.848-.545 8.363-1.212 11.939-1.333 2.182-.06 2.303-1.03 2.303-2.363 0-1.273.061-2.546-.06-3.818-.061-1.94-.364-3.879-.364-5.818 0-3.576.303-7.091.364-10.606.06-3.636-.061-7.272-.061-10.908-.061-2.728.061-5.515-.061-8.242-.06-1.94-.424-3.879-.545-5.818-.121-2.849-.121-5.697-.242-8.545-.061-1.758-.182-3.455-.182-5.212 0-4 .121-8 .121-11.939.061-2.424-.182-4.848-.121-7.273.06-2.06.485-4.121.485-6.181 0-1.03-.303-2.182-.91-3.151-.242-.425-1.454-.425-2.181-.607-.243-.06-.425-.242-.667-.242-3.091-.424-6.121-1.03-9.212-1.212-3.091-.182-6.122.242-9.213.182-3.272-.121-5.636 1.212-5.757 3.575-.182 4.606-.425 9.273-.485 13.939 0 3.515.303 7.03.303 10.545 0 3.333-.182 6.606-.182 9.939-.061 2.667.121 5.394.121 8.06 0 4.606-.121 9.212 0 13.818.061 4.121.485 8.242.606 12.363.121 5.878.061 11.757.061 17.636 0 .727.303 1.454.424 2.121.243 1.09 1.152 1.575 2.121 1.212 1.576-.667 2.97-.182 4.485-.122 2.728.061 5.455 0 6.91 0zm-89.82-69.39c.04-.041.06-.081.06-.122 5.536-.242 11.071-.464 16.607-.666 3.697-.182 7.454-.424 11.151-.424 5.637-.122 11.213-.061 16.849 0 7.212.06 14.425.181 21.698.242.545 0 1.454-.121 1.575-.364.788-2.06 1.758-4.121 2-6.242.303-2.181.364-4.424-.363-6.787-.728-2-.425-4.303-.425-6.424.061-1.273-.787-1.576-1.878-1.637-3.455-.242-6.97-.424-10.485-.545-3.334-.121-6.728-.061-10.122-.061-5.212 0-10.485 0-15.758.061-3.515.061-7.03.364-10.545.485-3.697.182-7.394.303-11.152.485-2.424.121-4.849.363-7.273.485-1.576.06-3.152-.061-4.667.06-3.151.243-6.303.849-9.454.97-4.182.182-8.364 0-12.607.121-1.454.061-2.848.545-4.364.727-2.06.182-2.787.727-2.909 2.606-.06 1.515-.121 3.03-.242 4.545-.303 3.515-.667 7.03.061 10.485.181.909.424 1.575 1.757 1.636 3.394.061 6.788.303 10.122.364 6.788.06 13.576 0 20.364 0z" fill="#F0E8E4"/><path fill-rule="evenodd" clip-rule="evenodd" d="M199.201 260.053c0-3.333.061-6.605 0-9.878-.061-3.394-.303-6.787-.303-10.181 0-2.909.182-5.879.424-8.788.061-1.333 1.394-2.06 2.909-2.181 4.182-.122 8.304-.364 12.486-.607 3.515-.181 7.091-.424 10.666-.606 2.364-.121 4.728-.242 7.091-.242 5.94-.121 11.879-.061 17.819-.121 4.061-.061 8.121-.303 12.182-.243 4 .061 7.94.364 11.94.485 3.515.121 7.03.121 10.545.243 4.182.121 8.304.303 12.485.606 1.455.121 1.819 1.394 1.879 2.303.182 5.939.303 11.878.424 17.756 0 2.546.061 5.03.122 7.515l.485 12.485.727 19.029c.06.97 0 1.697-.97 2.424-.848.606-1.273 1.697-2.061 2.485-.424.424-1.212.727-1.818.788-2.788.242-5.576.727-8.242.484-2.485-.242-4.97-.303-7.455-.303-2.061-.06-4.182-.242-6.182.364-.242.061-.485.061-.727.061-5.152-.546-10.243.06-15.334.242-5.515.242-11.03.303-16.546.303-4.727.061-9.454-.121-14.242-.121-5.091 0-10.243.242-15.395.121-3.333-.061-6.666-.485-10-.97-2.06-.242-3.151-1.515-3.212-3.333 0-4.181.061-8.363 0-12.545 0-4.181 0-8.363-.061-12.545v-5.03h.364zm92.547 28.12c-1.636-2.181-37.819-26.483-42.849-27.453-7.091 5.03-13.879 10.303-21.091 15.03-7.273 4.666-14.97 8.848-22.425 13.211 0 .162.02.303.061.424h5.697c3.272-.06 6.545-.303 9.818-.181 5.758.121 11.455.545 17.213.303 6.666-.243 13.333.181 20 .181 4.97-.06 9.879-.363 14.788-.545l14-.727c1.516-.061 2.97-.121 4.788-.243zm3.455-54.967c-4.727 2.606-9.394 4.424-13.394 7.333-4.788 3.455-10.122 6.424-15.213 9.636-4.545 2.848-9.151 5.757-13.879 8.727.303.182.606.424 1.031.667.909.363 1.818.666 2.666 1.09.849.425 1.697.97 2.485 1.455 2.121 1.273 4.303 2.545 6.364 3.939 1.636 1.03 3.152 2.364 4.788 3.394 3.091 2 6.242 3.939 9.333 5.878 2.364 1.576 4.788 3.031 7.031 4.728 2.727 2.06 5.273 4.242 7.939 6.423.607.485 1.334.91 2 1.334.243-.728.607-1.515.849-2.243.061-.242-.061-.545-.121-.787-.243-2.849-.667-5.697-.728-8.545-.121-5.818-.06-11.636-.181-17.515-.061-5.515-.243-11.03-.485-16.545-.061-2.848-.303-5.757-.485-8.969zm-49.334 25.575c-.788-.364-1.273-.546-1.697-.788-3.031-1.879-6-3.879-9.152-5.576-4-2.242-8.243-4.121-12.243-6.363-3.697-2-7.273-4.182-10.848-6.424-2.243-1.394-4.243-3.091-6.364-4.606-.909-.666-1.879-1.212-2.849-1.878v54.058c7.091-5.152 15.455-8.182 22.243-13.333 6.788-5.151 13.819-10 20.91-15.09zm44.425-26.969c-1.576-.182-2.97-.424-4.364-.424-2.849-.061-5.697.121-8.546.061-2.363 0-4.727-.364-7.091-.425-4.788-.06-9.636-.06-14.485 0-5.576.061-11.152.243-16.788.303-1.576.061-3.152-.303-4.727-.242-2 .061-4 .424-6.061.545-1.636.122-3.333.061-5.03.122-2.849.06-5.698.06-8.546.303-2.303.242-4.606.727-7.273 1.151a170.876 170.876 0 014.667 2.727c2.485 1.515 4.909 3.152 7.454 4.606 3.698 2 7.576 3.758 11.273 5.818 5.758 3.151 11.334 6.424 17.031 9.575.606.364 1.758.425 2.364.182 1.818-.788 3.515-1.757 5.212-2.666 2.848-1.637 5.758-3.273 8.546-5.091 2-1.273 3.818-2.909 5.818-4.242 3.03-1.94 6.061-3.758 9.152-5.576 3.394-2 6.788-3.939 10.182-5.939.363-.242.727-.485 1.212-.788zm29.94 61.695c-1.455 0-4.182.06-6.91 0-1.515-.061-2.909-.546-4.485.121-.969.363-1.878-.121-2.121-1.212-.121-.667-.424-1.394-.424-2.121 0-5.879.06-11.758-.061-17.636-.121-4.121-.545-8.242-.606-12.363-.121-4.606 0-9.212 0-13.818 0-2.666-.182-5.393-.121-8.06 0-3.333.182-6.606.182-9.939 0-3.515-.303-7.03-.303-10.545.06-4.666.303-9.333.485-13.939.121-2.363 2.485-3.696 5.757-3.575 3.091.06 6.122-.364 9.213-.182 3.091.182 6.121.788 9.212 1.212.242 0 .424.182.667.243.727.181 1.939.181 2.181.606.607.969.91 2.121.91 3.151 0 2.06-.425 4.121-.485 6.181-.061 2.425.182 4.849.121 7.273 0 3.939-.121 7.939-.121 11.939 0 1.757.121 3.454.182 5.212.121 2.848.121 5.696.242 8.545.121 1.939.485 3.878.545 5.818.122 2.727 0 5.514.061 8.242 0 3.636.121 7.272.061 10.908-.061 3.515-.364 7.03-.364 10.606 0 1.939.303 3.878.364 5.818.121 1.272.06 2.545.06 3.818 0 1.333-.121 2.303-2.303 2.363-3.576.121-7.091.788-11.939 1.334zm10.788-25.272h.363c0-4.303.122-8.606-.06-12.848-.243-5.939-.849-11.818-1.091-17.696-.243-4.545-.121-9.03-.182-13.575 0-2.061.02-4.121.061-6.182.04-1.697.101-3.394.181-5.09.122-2.425.364-4.788.425-7.212 0-.485-.546-1.394-.97-1.455-1.94-.363-3.879-.666-5.818-.727-4.364-.061-8.788 0-13.152-.061-1.394 0-1.818.546-1.758 1.758.182 6.909.424 13.878.485 20.847.061 10.848-.061 21.696-.061 32.544 0 5.212.122 10.485.243 15.697.081 4.606.222 9.232.424 13.878.061.485.667 1.394.97 1.394 2.788-.182 5.455.909 8.364.363 3.454-.666 7.091-.727 10.606-1.091.485-.06 1.212-.606 1.212-.969.061-1.273-.242-2.606-.242-3.879v-15.696zm-100.608-44.119c-6.788 0-13.576.06-20.364 0-3.334-.061-6.728-.303-10.122-.364-1.333-.061-1.575-.727-1.757-1.636-.728-3.455-.364-6.97-.061-10.485.121-1.515.182-3.03.243-4.545.121-1.879.848-2.424 2.909-2.606 1.515-.182 2.909-.666 4.363-.727 4.243-.121 8.425.061 12.607-.121 3.151-.121 6.303-.727 9.454-.97 1.516-.121 3.091 0 4.667-.06 2.424-.122 4.849-.364 7.273-.485 3.758-.182 7.455-.303 11.152-.485 3.515-.121 7.03-.424 10.545-.485 5.273-.061 10.546-.061 15.758-.061 3.394 0 6.788-.06 10.122.061 3.515.121 7.03.303 10.485.545 1.091.061 1.939.364 1.879 1.637 0 2.121-.303 4.424.424 6.424.727 2.363.667 4.606.364 6.787-.243 2.121-1.213 4.182-2.001 6.242-.121.243-1.03.364-1.575.364-7.273-.061-14.485-.182-21.698-.242-5.636-.061-11.212-.122-16.849 0-3.697 0-7.454.242-11.151.424-5.536.202-11.071.424-16.607.666 0 .041-.02.081-.06.122zm-29.274-2.849h26.243c3.394-.06 6.788-.06 10.182-.181 7.273-.303 14.486-.849 21.698-1.031 5.758-.121 11.515.061 17.212.121l18.182.243c1.031.061 1.516-.364 1.576-1.273.121-2.666.303-5.333.425-7.999.121-1.455.242-2.909.181-4.364-.06-.848-.363-2.182-.788-2.303-2.424-.424-4.909-.727-7.394-.727-3.879-.061-7.697.061-11.576.121-4.06.061-8.121-.06-12.182.061-4.848.182-9.636.545-14.485.727-2.727.182-5.454.242-8.182.364l-13.333.484c-1.516.061-2.97.061-4.485.182-3.516.303-7.031.728-10.546.909-3.455.122-6.97-.06-10.424-.121-1.758 0-2.304.667-2.182 2.303.06.97-.061 2-.122 2.97v9.514z" fill="#100F12"/><path d="M291.748 288.174c-1.818.121-3.273.181-4.788.242l-14 .727c-4.909.182-9.818.485-14.788.546-6.667 0-13.334-.425-20.001-.182-5.757.242-11.454-.182-17.212-.303-3.273-.121-6.546.121-9.818.182h-5.698a1.362 1.362 0 01-.06-.425c7.455-4.363 15.152-8.545 22.424-13.211 7.213-4.727 14.001-10 21.092-15.03 5.03.97 41.213 25.272 42.849 27.454zm3.455-54.968c.182 3.212.424 6.121.485 8.97.242 5.514.424 11.029.485 16.544.121 5.879.06 11.697.182 17.515.06 2.848.484 5.696.727 8.545.06.242.182.545.121.788-.242.727-.606 1.515-.848 2.242-.667-.424-1.394-.849-2.001-1.333-2.666-2.182-5.212-4.364-7.939-6.424-2.243-1.697-4.667-3.152-7.031-4.727-3.09-1.94-6.242-3.879-9.333-5.879-1.636-1.03-3.152-2.363-4.788-3.394-2.061-1.394-4.243-2.666-6.364-3.939-.788-.485-1.636-1.03-2.485-1.454-.848-.425-1.757-.728-2.666-1.091-.425-.243-.728-.485-1.031-.667 4.728-2.969 9.334-5.878 13.879-8.727 5.091-3.212 10.425-6.181 15.213-9.636 4-2.909 8.667-4.727 13.394-7.333zm-49.334 25.575c-7.091 5.091-14.122 9.939-20.91 15.09s-15.152 8.182-22.243 13.333v-54.058c.97.666 1.94 1.212 2.849 1.878 2.121 1.516 4.121 3.212 6.364 4.606 3.575 2.243 7.151 4.424 10.848 6.424 4 2.243 8.243 4.121 12.243 6.364 3.152 1.696 6.121 3.696 9.152 5.575.424.243.909.424 1.697.788zm44.425-26.969c-.485.303-.849.546-1.213.788-3.394 2-6.788 3.939-10.182 5.939-3.091 1.818-6.121 3.636-9.151 5.576-2 1.333-3.819 2.969-5.819 4.242-2.788 1.818-5.697 3.454-8.545 5.091-1.697.909-3.394 1.878-5.212 2.666-.607.243-1.758.182-2.364-.182-5.697-3.151-11.273-6.424-17.031-9.575-3.697-2.06-7.576-3.818-11.273-5.818-2.545-1.454-4.97-3.091-7.454-4.606a170.876 170.876 0 00-4.667-2.727c2.667-.424 4.97-.909 7.273-1.151 2.848-.243 5.697-.243 8.545-.303 1.697-.061 3.394 0 5.031-.122 2.06-.121 4.06-.484 6.06-.545 1.576-.061 3.152.303 4.728.242 5.636-.06 11.212-.242 16.788-.303 4.849-.06 9.697-.06 14.485 0 2.364.061 4.728.425 7.091.425 2.849.06 5.697-.122 8.546-.061 1.394 0 2.788.242 4.364.424zm40.485 36.484v15.696c0 1.273.303 2.545.243 3.818 0 .364-.788.909-1.212.97-3.576.424-7.152.424-10.607 1.09-2.909.546-5.576-.606-8.424-.424-.243.061-.909-.848-.909-1.394a525.886 525.886 0 01-.425-13.878 674.983 674.983 0 01-.181-15.696c0-10.848.121-21.696.121-32.544-.061-6.969-.243-13.878-.424-20.848-.061-1.212.363-1.757 1.818-1.696 4.364.06 8.727 0 13.091.121 1.939 0 3.939.303 5.818.666.425.061.97.97.97 1.455-.061 2.424-.303 4.848-.424 7.212a108.379 108.379 0 00-.243 5.151c-.04 2.06-.04 4.121 0 6.181 0 4.485-.121 9.03.061 13.515.242 5.939.848 11.818 1.091 17.696.182 4.303 0 8.606 0 12.909h-.364z" fill="#F0E8E4"/><path fill-rule="evenodd" clip-rule="evenodd" d="M201.141 221.267v-9.514c.06-.97.181-2 .121-2.97-.121-1.636.424-2.303 2.182-2.303 3.454.061 6.97.243 10.424.121 3.515-.181 7.031-.606 10.546-.909 1.515-.121 2.97-.121 4.485-.181l13.333-.485c2.728-.121 5.455-.182 8.182-.364 4.849-.182 9.637-.545 14.485-.727 4.061-.121 8.122 0 12.183-.061 3.878-.06 7.697-.182 11.576-.121 2.484 0 4.969.303 7.394.727.424.122.727 1.455.787 2.303.061 1.455-.06 2.909-.181 4.364-.122 2.666-.303 5.333-.425 7.999-.06.909-.545 1.334-1.575 1.273l-18.183-.242c-5.697-.061-11.454-.243-17.212-.122-7.212.182-14.425.728-21.697 1.031-3.394.121-6.788.121-10.182.181h-26.243zm37.273-4.06v-.182c1.455 0 2.909.061 4.303-.06 1.091-.061 1.818-.788 1.455-1.758-.182-.424-1.091-.848-1.637-.848-2.242-.122-4.545.06-6.788 0-3.757-.122-7.515-.546-11.273-.364-4.788.242-9.576.848-14.303 1.333-.485.061-1.273.728-1.212.849.303.545.788 1.394 1.273 1.394 1.939.181 3.939.242 5.879.121 2.121-.121 4.242-.788 6.363-.849 5.273 0 10.607.243 15.94.364zm-25.213-7.575v-.122c-1.151.061-2.303 0-3.394.182-.484.121-.787.788-1.212 1.152.364.242.728.727 1.152.727 1.535.162 3.071.242 4.606.242 4.606 0 9.273 0 13.879-.181.606 0 1.212-.728 1.758-1.152-.546-.364-1.152-1.03-1.758-1.091-1.879-.06-3.818.243-5.697.243-3.091.06-6.243 0-9.334 0z" fill="#F0E8E4"/><path d="M238.414 217.207c-5.333-.121-10.667-.364-15.94-.364-2.121.061-4.242.728-6.363.849-1.94.121-3.94.061-5.879-.121-.485 0-.97-.849-1.273-1.394-.061-.121.727-.788 1.212-.849 4.727-.484 9.515-1.09 14.303-1.333 3.758-.182 7.516.243 11.273.364 2.243.06 4.546-.121 6.788 0 .546 0 1.455.424 1.637.848.363.97-.364 1.697-1.455 1.758-1.394.121-2.848.06-4.303.06v.182zm-25.213-7.575c3.091 0 6.243.06 9.334 0 1.879 0 3.818-.303 5.697-.243.606.061 1.212.727 1.758 1.091-.546.424-1.152 1.151-1.758 1.151-4.606.182-9.273.182-13.879.182-1.535 0-3.071-.081-4.606-.242-.425 0-.788-.485-1.152-.727.424-.364.728-1.031 1.212-1.152 1.091-.182 2.243-.121 3.394-.182v.122z" fill="#100F12"/><path fill-rule="evenodd" clip-rule="evenodd" d="M117.684 151.028c-.06 3.091-.06 6.121-.181 9.151-.182 6.97-.364 13.939-.364 20.909 0 24.544-2.303 48.603-4.243 73.087-.424 5.454-.788 10.848-1.697 16.242-.363 2-.545 7.999-2.545 9.636-2.182 1.697-7.819.848-10.425.969-6.06.243-11.94.182-18 .667-13.515 1.212-27.213 2.182-40.789 2.667-6.182.181-12.182.666-18.364.363-5.151-.303-11.454.667-16.424-.788-.424-.121-.97-.545-1.091-1.09-1.333-9.03-.97-18.727-1.212-27.878-.425-13.09-.06-26.302-.06-39.392.06-24.363.484-48.786.545-73.209 0-1.03.909-1.515 1.697-1.454.12 0 .242-.061.363-.061 30.546-.061 60.971-4.121 91.578-4.303 5.454-.06 12.485-.848 17.818.485 2.061.545 2.667.788 3.455 2.909 1.091 3.03 0 8-.061 11.09zm-4.182-9.636c-2.303-2.303-7.879-1.757-11.091-1.757-32.243-.424-64.304 4.121-96.486 4.303-.122 36.968-1.576 73.996-.485 111.025.182 6.727-.667 14.969.666 21.454 1.152 5.393 4.303 4.848 9.03 4.969 3.577.061 7.092.424 10.668.485 15.879.424 32.122-1.879 48-2.849 7.698-.424 15.334-.848 23.031-1.03 1.697-.06 8.243.303 9.455-.424 1.637-1.151 1.637-6.182 1.94-7.939 2.545-15.211 3.394-31.15 4.485-46.543 1.03-14.485 1.333-28.908 1.333-43.392 0-9.03.364-18.06.545-27.09.061-3.333 1.273-8.848-1.091-11.212z" fill="#fff"/><path d="M65.077 215.934c-4-2.06-8.727-1.03-12.848-2.848-2.91-.04-4.89-1.636-5.94-4.788.08-2.06.445-3.757 1.091-5.09a.95.95 0 00.727-.364c2.667-2.485 4.91-1.818 8.122-1.636 1.394.06 5.818-.909 6.97 0 .666.545 1.454.485 2.06.06.182.182.424.303.667.485 1.515 1.273 3.697-.909 2.182-2.182-2.546-2.121-6.182-3.212-9.94-3.393.081-.162.121-.364.121-.606v-4.606c0-2-3.09-2-3.09 0v4.606c0 .242.06.484.181.666-8.121.727-15.515 5.939-11.636 15.333 2.303 5.575 10.666 5.03 15.636 6 5.94 1.09 12.91 6.363 11.516 13.332-.303 1.273-.728 2.364-1.273 3.273-.243 0-.465.081-.667.242-2.848 2.182-7.09 1.455-10.364 1.455-1.636-.061-3.333.06-4.97 0-1.515-.061-2.545-.667-4-1.03-.848-.243-1.393.181-1.697.787l-.12-.121c-1.152-1.576-3.819 0-2.667 1.576 2.242 3.03 7.454 3.939 12.242 4.121v1.697c-.04.323-.04.646 0 .969v1.455c-.06 2 2.91 2 3.091 0 0-.667.364-1.273.485-1.939.182-.788.06-1.455-.242-2.122 1.272-.06 2.363-.121 3.333-.181 5.879-.364 9.697-4.182 9.94-10.182.242-6.787-2.788-11.757-8.91-14.969z" fill="#100F12"/><path d="M182.595 193.147l-11.455 2.122s-2.121 115.388 2.728 122.358c4.848 7.03 15.515 3.575 21.212 4.727 5.758 1.091 153.7-3.091 153.7-3.091l-.788-13.272-159.397-.97-6-111.874z" fill="#303030" fill-opacity=".7"/></g></g><defs><clipPath id="clip0_41_37450"><path fill="#fff" d="M0 0h500v372H0z"/></clipPath></defs></svg>