<svg version="1.2" xmlns="http://www.w3.org/2000/svg" viewBox="0 0 240 215" width="240" height="215"><style>.a{fill:#afe8d9}.b{fill:#fff}.c{fill:#222221}</style><g style="mix-blend-mode:multiply"><path class="a" d="M120 81.3l44.4 19.7 9.4 17.7 17-6.2 4.2-26.4 34.7 15.4s0-29.7-4.8-36.4c-4.8-6.8-32.4-22-47.1-26.1-14.6-4.2-39.9-.6-43.8 7.5-3.9 8.1-14 34.8-14 34.8z"/><path fill-rule="evenodd" class="a" d="M173.7 118.9l-9.4-17.7-44.5-19.8v-.1c.1-.3 10.2-26.8 14-34.8 4.1-8.4 29.8-11.7 44.1-7.7 15 4.3 42.3 19.4 47.1 26.2 4.8 6.7 4.8 35.3 4.8 36.5v.2l-34.6-15.4-4.2 26.3h-.1zm-53.6-37.6l44.4 19.6 9.3 17.7 16.9-6.2 4.2-26.5.2.1 34.4 15.2c0-2.8-.3-29.7-4.8-36-4.6-6.6-32.3-21.9-46.9-26.1-6.9-1.9-16.8-2.2-25.9-.8-9.3 1.5-16 4.6-17.8 8.3-3.7 7.7-13.2 32.6-14 34.7z"/></g><path class="b" d="M79.5 64.2s-3.5 59.4-.9 62.6c2.6 3.2 8.2 6 17.1 12.9 9 6.8 68 37.5 68 37.5s9-58.4 6.7-64.2c-2.3-5.8-21.1-15.9-27.4-19.7-6.4-3.8-59.1-30.4-59.1-30.4z"/><path class="b" d="M167.5 136l16.4 7.4-21.5 27.4zM48.4 65.8l-3.1 15.8L1.3 95l23.1-32.3 3.9 12.4zM24.8 14l51 27.5 21.9-17.9-27.4-7.2 5.8-11.7zm139.7 21.4l23 2.6s6.3-14.5 1.7-19.8c-4.6-5.2-22.6-7.7-22.6-7.7s-9.5 9-7.6 14.3c1.9 5.2 5.5 10.6 5.5 10.6zm32.3 73.4l1.1-13.1-1-12.5 41.4 22-13.1 41.3s-17.9 11.1-21.6 9.1c-3.7-2.1-11.4-13.8-11.4-13.8l-15.2-6.9s-6.2-9.6-3.8-14.3c2.4-4.7 23.6-11.8 23.6-11.8zm-53.4 86c3.3-3.4 10-16.3 10-16.3s1.4-.2 10.3-1.3c8.8-1.1 20-.6 18.9 2.9-1.2 3.5 0 4 2.6 6.7s8.9 12.7 8.9 12.7l2.7 9.7s-25.8-7.7-29.1-8.7c-3.2-.9-24.3-5.7-24.3-5.7z"/><path class="c" d="M71.5 127.1c-.1 2.7 1 5 2.8 6.9 1.7 1.8 4 3.2 6.2 4.4 1.1.6 2.2 1.2 3.2 1.9.8.4 1.7.7 2.5 1l2.6 1.2q5.2 2.2 10.4 4.5c6.9 3 13.7 6 20.4 9.3 6.9 3.3 13.6 6.8 20.2 10.5q2.4 1.4 4.9 2.9.6.3 1.2.7c.5.3.9.6 1.4.8q1 .4 2 .9c2.7 1.5 5.2 3.4 8.2 4.4q1.2.3 2.3.5c.5 0 .8-.4.8-.8 0-.5-.3-.8-.8-.8-3-.4-5.6-2.2-8.1-3.7q-1-.6-2-1.1c-.6-.4-1.4-.6-2-1-1.7-1-3.3-2-5-2.9-6.4-3.8-13-7.2-19.7-10.5-6.6-3.3-13.3-6.3-20-9.3l-10.2-4.4-5.2-2.2q-1.3-.6-2.5-1.1c-.6-.3-1.2-.6-1.7-1-2.2-1.2-4.4-2.3-6.4-3.9-1.8-1.4-3.4-3.1-3.8-5.4q-.2-.9-.2-1.8c.1-1-1.5-1-1.5 0zm.5-6.5c-.3-1.4-.4-2.8-.5-4.3 0-.5-.3-.9-.8-.8-.4 0-.8.3-.8.8q.1 2.4.5 4.8c.1.4.6.6 1 .5.4-.1.6-.5.6-1zm5-58.2q0-.6-.2-1.2c-.1-.3-.3-.5-.6-.6-.2 0-.6 0-.7.2q-1.2 1.5-1.8 3.2c-.1.2 0 .4.1.6.1.2.2.3.4.4.2 0 .5 0 .6-.1.2-.1.3-.3.4-.5q0-.1.1-.2l.2-.4q.1-.3.3-.7l.4-.6q.1-.2.2-.3l.2-.2v-.1q-.1.2 0 .1-.7-.2-1.3-.4 0 .3.1.6v-.3.5c0 .5.3.9.8.8.4 0 .8-.3.8-.8z"/><path class="c" d="M89.1 67.8c7.9 4.9 16.2 9.3 24.5 13.4 8.2 4 16.4 7.8 24.5 12 8.3 4.3 16.5 9 24.2 14.3q.7.5 1.5 1c.4.3.7.8 1.1 1.1.7.8 1.3 1.6 1.8 2.5.5.9.8 1.8.9 2.8q.2 1.8.3 3.7c.3 4.8.3 9.7.1 14.6-.3 9.7-1.6 19.4-2.6 29.1q-.1 1.8-.3 3.7c-.1 1.1 0 2.2.1 3.3.1 1 .3 1.9.4 2.9.1.7.2 1.6 0 2.3-.3.7-1 1.3-1.5 1.7-.5.4-1.2.8-1.8 1-1.5.5-3 .5-4.5.3-1.5-.1-3-.5-4.5-1-1.9-.6-3.8-1.7-5.6-2.6-4.3-2.1-8.4-4.4-12.5-6.7-4.2-2.4-8.2-4.8-12.3-7.2q-3.1-1.7-6.1-3.5-1.5-.8-3-1.7c-1-.5-2-.9-3-1.3-4.1-1.7-8-3.8-12-5.6-1-.4-2.1-.7-3-1.2q-1.5-.9-2.9-1.8-2.7-1.9-5.3-4-2.4-2-4.8-4.2c-1-.9-2-1.8-3.3-2.4-1.9-.9-4.3-1.6-5.6-3.5-.8-1.2-.9-2.6-.9-4 0-1-1.6-1-1.6 0 0 1.6.2 3.2 1 4.6.7 1.1 1.7 2 2.8 2.6 1 .6 2.1 1 3.1 1.5q.8.3 1.4.7c.7.4 1.2.9 1.8 1.5 3.3 2.9 6.6 5.8 10.2 8.2q1.5 1 3 1.9c.9.6 1.9.9 2.9 1.3 2.1.9 4.2 1.9 6.2 2.9 2.1 1 4.2 2 6.3 2.9 1 .4 2 .8 3 1.3q1.5.9 3.1 1.8c4.1 2.4 8.3 4.8 12.5 7.3 4.2 2.4 8.4 4.8 12.7 7.1q3.1 1.7 6.3 3.3c1.8.9 3.7 1.9 5.6 2.5 3 .9 6.5 1.5 9.5.5 1.6-.6 2.9-1.6 3.9-3s.5-3.5.3-5.1c-.2-1.1-.3-2.1-.4-3.2 0-1.2.2-2.5.3-3.7q.4-3.7.8-7.5c.5-4.9 1-9.9 1.4-14.8.4-5 .7-10 .7-15q-.1-3.7-.3-7.5-.1-1.8-.3-3.7c-.1-1.1-.3-2.1-.7-3.2-.4-.9-1-1.7-1.7-2.5-.6-.9-1.4-1.7-2.2-2.3q-3-2.2-6.1-4.2-6.1-3.9-12.5-7.4c-8.1-4.5-16.5-8.5-24.9-12.5-8.5-4.1-16.9-8.3-25.1-13q-3.1-1.8-6.1-3.7c-.9-.5-1.7.9-.8 1.4zm-16.2 1.7c0-.7.1-1.3.2-1.9q.2-1.1.5-2.1c.1-.2.1-.1.2-.3q.1-.3.2-.5t.3-.4q0-.1.1-.2c.1-.1-.1.1 0 0q0-.1.1-.1.1-.2.3-.3l.2-.2.1-.1s-.1.1 0 0q.1-.1.3-.2.1 0 .2-.1c-.1.1.1 0 .2 0 .7-.3 1.4-.2 2.2 0 1 .3 1.4-1.2.4-1.5-1.7-.5-3.4-.3-4.7 1-1.2 1.1-1.8 2.7-2.1 4.2q-.2 1.3-.3 2.7c-.1 1 1.5 1 1.6 0zM71.5 85c-.1-1-.1-2 0-2.9 0-.6.1-1.1.3-1.7.4-1.7.8-3.2 1-4.9 0-.4-.4-.8-.8-.8-.5 0-.7.4-.8.8-.2 1.6-.6 3.1-1 4.6-.4 1.6-.4 3.2-.3 4.9.1 1 1.6 1 1.6 0z"/><path class="c" d="M89.6 66.3c-.7-1.1-1.5-2.3-2.5-3.1-1.1-.9-2.3-1.4-3.5-1.9-3.2-1.2-7.1-2.6-10.2-.6-1.7 1.1-2.6 3.1-3 5-.6 2.3-.7 4.7-.6 7.1 0 2.3.2 4.6.4 7l.2 2.8v3.6c-.1 6.5.4 12.9.3 19.3 0 2.1-.1 4.1-.3 6.2-.1 2-.3 4-.3 6.1 0 1.5.4 3 .9 4.5.5 1.4 1 2.8 1.2 4.3 0 .7 0 1.2-.2 1.8-.3 1 1.2 1.4 1.5.5.5-1.4.2-2.9-.1-4.3-.4-1.5-1-2.9-1.4-4.4-.2-.7-.3-1.4-.3-2.1-.1-.9 0-1.8.1-2.7.1-2 .3-4 .4-6 .2-3.6.2-7.3 0-10.9-.1-2.9-.2-5.7-.3-8.6q0-2.6.1-5.3 0-1.3-.1-2.6c-.1-2.1-.3-4.2-.5-6.3-.1-2.4-.2-4.8.1-7.1.1-1.9.5-3.9 1.6-5.5q.1 0 .1-.1c.1-.2-.1.1.1 0q0-.1.1-.2l.5-.5q.1 0 .1-.1c-.1.1 0 0 0 0q.1-.1.3-.2.2-.1.5-.3c-.2.1.3 0 .3 0q.1-.1.2-.1.4-.1.7-.2.7-.1 1.4-.1c.9 0 1.8.2 2.7.5 1.5.4 3.1 1 4.5 1.7 1.1.5 1.8 1 2.5 2 .4.5.8 1 1.2 1.6.5.8 1.9.1 1.3-.8z"/><path class="c" d="M78.8 63.3c-.1 0-.5-.1-.5-.1 0-.1.2.2.1.2l.1-.1q-.3.2-.7.3c1.6.1 3 .6 4.4 1.2 1.5.5 2.9 1.2 4.3 1.8 1.5.6 3.1 1.2 4.5 1.8q2.3 1 4.3 2.3 2.2 1.4 4.3 2.7c1.4 1 2.7 2.1 4 3.2 1.5 1 3 1.9 4.4 2.9q2.2 1.6 4.5 3.1c2.9 2 6 3.8 9.3 5.2 3.2 1.2 6.4 2.1 9.6 2.9 3.3.9 6.6 1.9 9.7 3.3.9.4 1.7.8 2.6 1.3.8.3 1.6.7 2.4 1q1.2.6 2.3 1.2c.8.5 1.5 1 2.3 1.3 1.5.8 3.1 1.3 4.5 2.1 1.4.9 2.4 2.2 3.4 3.4.8 1.1 1.7 2 2.7 2.9.9.9 2 1.7 2.6 2.8.3.4.4.8.4 1.2-.1.5.4.8.8.8s.7-.3.8-.8c.1-1.3-.9-2.5-1.7-3.4-.9-1-2-1.8-2.9-2.8-1.2-1.1-2.1-2.5-3.2-3.7-1.2-1.3-2.7-2.2-4.3-2.8-.9-.4-1.7-.7-2.5-1.1-.8-.4-1.6-1-2.4-1.5-1.7-.9-3.5-1.5-5.2-2.4-3.3-1.7-6.8-2.9-10.4-3.9-3.4-.9-6.8-1.7-10.2-3-3.5-1.3-6.7-3.3-9.8-5.4-1.6-1-3.2-2.2-4.8-3.2-1.5-1.1-3.1-2-4.6-3.2-.7-.6-1.4-1.3-2.2-1.8q-1-.8-2.1-1.4c-1.5-1-3-2-4.5-2.9-1.5-.8-3-1.6-4.6-2.2-1.6-.7-3.2-1.2-4.8-1.9-1.5-.7-3.1-1.5-4.7-2q-1.2-.4-2.5-.5c-.4 0-.9-.1-1.2.2-.3.3-.4.7-.4 1.1 0 .8.7 1.3 1.4 1.5 1 .2 1.4-1.3.5-1.6zM166.4 171c.7-1.7 1.6-3.4 2-5.2.5-1.9.2-3.8.2-5.7 0-1 .1-2 .1-3V154c-.1-2.1-.2-4.1-.3-6.2q-.1-2.9 0-5.8c0-.9 0-1.8.1-2.7.1-.9.3-1.8.5-2.7.4-2.1.3-4.1.3-6.2 0-2-.1-4.1-.1-6.1 0-1.4.2-2.8.3-4.2.1-1.4.2-3.1-.6-4.3-.5-.9-1.8-.1-1.3.8 0 .1.1.3.1.2q0 .2.1.3c.1.3.1.5.1.8q.1 1 0 2c0 1.3-.2 2.6-.3 3.9-.1 1.8.1 3.6.1 5.5v3.1c.1 1 .1 1.9-.1 2.9-.1.9-.3 1.8-.5 2.7q-.3 1.4-.3 2.7-.1 2.9 0 5.7c.1 4.1.4 8.1.3 12.2-.1 1.1-.1 2.1 0 3.2 0 1 .1 2.1-.1 3.1-.3 2-1.4 3.8-2.1 5.7-.2.4.2.8.5.9.5.2.9-.1 1-.5z"/><path class="c" d="M166.4 115.6c-.6 2 .1 4.2.4 6.2.2.9.3 1.9.1 2.8-.2 1-.5 1.9-.8 2.8-.4.9-.7 1.7-.8 2.6-.3 1.1-.2 2.2-.2 3.3 0 1.1-.2 2.3-.3 3.4-.1 1.1 0 2.2.1 3.2.1.8.2 1.6.1 2.3 0 .3-.1.8-.2 1.2q-.2.8-.5 1.7c-.2.4.1.8.5 1 .4.1.8-.2 1-.6.5-1.6.9-3.1.8-4.8-.1-.9-.3-1.9-.3-2.8 0-1.2.2-2.3.3-3.5.1-1.1 0-2.2.1-3.3.1-.9.3-1.8.6-2.6.7-1.9 1.4-3.7 1.2-5.8-.1-1.2-.4-2.3-.6-3.5-.2-1-.3-2.1 0-3.2.3-1-1.2-1.4-1.5-.4z"/><path class="c" d="M166.9 132.3q.3-.5.5-.9l-.6.4c5.1.4 8.9 4.4 13.1 7 1.2.7 2.3 1.2 3.6 1.7.5.2 1.1.4 1.5.7.5.4.8 1 1.3 1.4 1.6 1.3 3.7 1.7 4.4 3.7q.3.8.3 1.7c0 .5-.1.9-.1 1.3-.2 1-.5 1.7-.9 2.5-1 1.5-2.4 2.9-3.9 4-3.2 2.4-6.9 4-9.8 6.7-2 1.7-3.6 3.8-5.2 5.7-1.6 2-3.3 3.9-5.4 5.3q-.8.5-1.6.9l1 1.2q5-5.9 10.5-11.4 2.6-2.6 5.4-5c1.7-1.5 3.3-2.9 4.9-4.5 1.7-1.9 3.2-4.1 4.1-6.5.2-.4-.2-.9-.5-1-.5-.1-.8.2-1 .6-1.6 4.1-4.9 7.1-8.2 9.9q-5.6 4.9-10.7 10.4-2.9 3.1-5.7 6.4c-.5.7.2 1.6 1 1.2 4.9-2.3 7.7-7.2 11.3-11 .7-.7 1.6-1.6 2.4-2.1q1.1-.8 2.3-1.6c1.8-1.1 3.6-2.2 5.4-3.4 3.3-2.4 6.5-5.6 6.2-10 0-1.3-.4-2.5-1.3-3.5-.7-.8-1.6-1.3-2.5-1.8-.5-.3-1-.6-1.4-.9-.5-.4-.8-1-1.2-1.4-1.1-.9-2.5-1.1-3.8-1.7-4.6-2.3-8.3-6.5-13.5-7.8q-1-.2-2-.3c-.3 0-.6.2-.7.4q-.3.4-.5.9c-.6.8.8 1.6 1.3.8z"/><path class="c" d="M72.3 177.5c14.5 8 30.7 11.8 46.7 15.8 8.2 2 16.4 4.1 24.6 6.4 7.9 2.3 15.9 4.8 23.8 7 7.8 2.2 15.8 4.4 23.8 5.9 3 .6 6.2.8 9.2.8 3.1.1 6.2-.2 9.1-1.2 2.9-1 5.5-2.7 7.5-5.1 1.2-1.4 1.9-3 2.9-4.6 1.1-1.8 1.8-3.5 2.3-5.6 1.1-4 1.1-8.2.6-12.3-.5-3.5-1.3-6.8-2.7-10-4.8-11.1-15.2-17.7-23-26.4q-1.4-1.6-2.7-3.3c-.3-.4-1-.5-1.3 0-.5.7.2 1.5.6 1.9q.9 1.2 1.9 2.4c.5.5.9 1.1 1.4 1.5.5.4 1.3.4 1.4-.3.1-.4-.1-.7-.3-1-1.2-1.6-2.5-3.1-3.8-4.6-.3-.3-.9-.3-1.1 0-.5.5-1 .9-1.4 1.4-.7.8.7 1.6 1.3.8.3-.4.8-.7 1.2-1.1h-1.1l3 3.6c.2.2.5.6.6.7 0 .1.1.2.1.3.2.1-.1-.3 0-.5l.6-.6c.4-.1.9.4.5 0l-.5-.5q-.7-.7-1.3-1.5c-.4-.5-.9-1-1.2-1.5q-.2-.2-.4-.5c0-.1-.1-.2-.1-.2-.1-.1 0 0 0 0 .1-.1-.2.7-.1.5h-1.3c6.9 9.2 17.1 15.4 23.3 25.2 3.6 5.7 5.3 12.6 5.1 19.4q0 3.2-.8 6.2c-.2 1.1-.5 2.1-1 3.1-.4.8-.9 1.6-1.4 2.4q-.7 1.2-1.3 2.5c-.5.8-1.1 1.5-1.7 2.2q-1.6 1.7-3.6 2.8c-5.2 3-11.5 2.6-17.2 1.9-3.8-.4-7.5-1.3-11.2-2.1q-5.8-1.4-11.6-3c-7.7-2.1-15.4-4.5-23.1-6.7q-11.9-3.5-24-6.5c-15.6-3.9-31.5-7.3-46-14.2q-2.8-1.3-5.5-2.8c-.9-.5-1.7.9-.8 1.4zm2.5-48.3c-2 .9-4.1 1.5-6.3 2.1-1 .2-.5 1.8.4 1.5 2.2-.6 4.3-1.2 6.3-2 .4-.2.7-.6.6-1-.1-.4-.6-.7-1-.6z"/><path class="c" d="M169.2 133.6c.1-.2 0 0 .1-.1v-.2c-.1.2 0 0 0 0s-.1.1 0 0c.1 0 .1-.1 0 0 0 0 .2-.1 0 0q.1 0 .2-.1c.1 0-.2 0 0 0h.2q.1 0 .3.1c-.2-.1 0 0 .1 0q.3 0 .6.1t.5.2c.3.1.4.2.6.3 1.5.6 2.8 1.5 4.3 2.1 3 1.3 6.1 2.5 8.9 4.1 1.2.7 2.4 1.6 3.8 1.9.7.1 1.4.2 2 .3.5 0 .9.1 1.2.3.1.1 0 0 0 0l.1.1.1.1.1.1q.1.1.1.2l.1.1c.1.2-.1-.1 0 .1q.1.2.1.3v.1c0 .1 0-.1 0 0v.5q0 .1-.1.3c.1-.2 0 0-.1.1 0 .1.1-.1.1-.1l-.1.1c-.1.1 0 .1 0 0q-.1.1-.2.1c0 .1-.1.1 0 0q0 .1-.1.1h-.2c-.3 0-.4 0-.8-.1-.9-.3-1.3 1.2-.4 1.5 1.1.3 2.3.2 3.1-.8.5-.7.5-1.8.2-2.6-.4-1.1-1.3-1.8-2.4-2-.7-.1-1.4-.2-2-.3-.8-.1-1.4-.3-2-.7-.7-.4-1.4-.9-2.2-1.3l-2.4-1.2c-1.6-.8-3.3-1.4-5-2.2-1-.4-1.9-.8-2.8-1.3-.9-.4-1.7-.9-2.6-1.3-.9-.4-2-.9-3-.8-1.2 0-1.9.8-1.9 1.9-.1 1 1.5 1 1.5 0zm-64.1-23.9c-1 1-1.7 2.2-2 3.5-.4 1.4-.5 2.7-.5 4.1v3.2c.1.9.2 1.9.8 2.7.8 1 2 1 3.2.6.3-.2.5-.4.5-.8.1-.9-.2-1.7-.6-2.5q-.6-1.1-.7-2.2c-.2-.9-.1-1.9-.1-2.8v-3.4c0-1-1.6-1-1.6 0v3.3c0 1 0 1.9.1 2.9q.1 1.3.7 2.5c.3.7.7 1.4.7 2.2q.3-.4.5-.8-.3.2-.7.3h-.5c-.1-.1.1 0-.1-.1-.1-.1.1.1 0 0q-.1 0-.1-.1c-.1-.1 0 .1 0 0q-.1-.1-.1-.2s-.1-.3-.1-.1q-.1-.3-.1-.5c-.1-.4-.2-.7-.2-1.2v-2.7c0-1.2 0-2.4.3-3.5q.4-1.9 1.7-3.3c.7-.7-.4-1.8-1.1-1.1zm7.5 16.3c-.7-.1-1.4.1-1.6.8-.1.3-.1.8 0 1.1.2.3.7.4 1 .5 1.2.3 2.5.3 3.6-.1.4-.2.6-.6.6-1-.3-1.2-1.5-1.7-2.6-2-.5-.1-1.1-.2-1.6-.4q-.2 0-.3-.1h-.1c-.1-.1.2 0 0 0l-.1-.1q-.2-.1-.3-.2c-.2-.1.1.2 0 0q-.1 0-.2-.1v-.1c-.1-.1.1.2 0 .1q0-.1-.1-.2c-.1-.1.1.2 0 0v-.2s-.1-.1 0 0c0 .2 0 0 0 0v-.4c0-.1-.1.2 0 0v-.3c.1-.4-.1-.9-.5-1-.4 0-.9.2-1 .6-.2.7-.2 1.5.2 2.1.2.6.7.9 1.3 1.2.5.2 1.1.4 1.7.5l.8.2q.2 0 .3.1.1 0 .2.1h.1c.1 0 .1.1 0 0 .1 0 .2.1.3.1l.1.1.1.1c.1.1 0 0 0 0l.1.1c.1.2-.1-.2 0 0v.2l.6-1q-.4.2-.8.3h-1.6q-.2-.1-.4-.1-.1 0-.2-.1h-.1q.2.1 0 0 .2.2.4.5v-.1q0 .2 0 0 0 .2-.1.2-.2.1-.1.1-.2.1 0 0h-.1q.2 0 0 0c.4.1.9-.1 1-.5.1-.4-.1-.9-.6-1zm-3-17.9c2.4 2.9 5.8 5 7.2 8.6q.2-.5.4-.9c-.9.5-1.6 1.3-1.8 2.3-.2 1.1 0 2.1 0 3.2 0 1 1.6 1 1.6 0 0-.9-.2-1.8-.1-2.7 0 .1.1-.1.1-.1v-.3c.1-.2.1-.1.2-.3.1-.3.5-.6.8-.8.3-.1.5-.5.4-.9-.8-1.9-2-3.5-3.5-5-1.4-1.4-2.9-2.7-4.2-4.2-.2-.3-.8-.3-1.1 0-.3.3-.3.8 0 1.1z"/><path class="c" d="M110.2 109.2c-.2.8-.1 1.6.3 2.3.4.7 1 1.2 1.7 1.4.4.1.9-.2 1-.6.1-.4-.1-.8-.6-.9q0-.1-.1-.1s-.1 0 0 0c.1.1.1 0 0 0q-.1 0-.2-.1-.1 0-.1-.1c-.1 0 .1.1.1.1l-.1-.1-.2-.2c-.1-.1 0 .1 0 .1v-.1l-.1-.1q-.1-.1-.1-.3c-.1-.1 0 .2 0 .1v-.1l-.1-.1v-.4.2q-.1-.3 0-.7v.1q.1-.3-.1-.6c-.1-.2-.3-.3-.5-.4-.4-.1-.9.1-.9.6zm-36.6 21.2q-2.6 1.1-5.2 2c-.4.2-.7.6-.6 1 .1.4.6.7 1 .6q2.6-1 5.2-2.1c.4-.1.7-.5.6-.9-.1-.4-.6-.7-1-.6zm129.7 84.2c.9-1.1 2-1.9 3.2-2.6 1.2-.6 2.5-1.2 3.6-1.9 2.5-1.6 4.5-4 6-6.5 3-5 4.5-10.9 5.2-16.6.3-2.7.4-5.4.1-8.1-.1-1.3-.3-2.6-.7-3.9-.4-1.3-1-2.6-1.8-3.8-1.5-2.4-3.4-4.5-5.3-6.5s-3.7-4.1-5.6-6c-3.9-3.8-8.3-7.3-13.7-8.9l-2-.4c-.4-.1-.8.1-1 .5-.1.4.2.9.6 1 5.3 1 9.7 4 13.6 7.6 1.9 1.8 3.8 3.8 5.6 5.7 1.8 2 3.7 3.9 5.3 6.1 1.6 2.1 2.8 4.4 3.3 7.1.4 2.5.4 5.2.2 7.8-.2 2.7-.7 5.4-1.3 8-.7 2.7-1.6 5.4-2.9 8-1.3 2.5-3 4.9-5.2 6.7-2 1.7-4.7 2.4-6.8 4.1q-.9.7-1.5 1.5c-.3.3-.3.8 0 1.1.3.3.8.3 1.1 0zm-7.2-118.2c-.4 2-.1 4.1.3 6.2.1.9.3 1.7.3 2.6q.1.7 0 1.3v.5l-.2.6q0 .1-.1.3c0 .1.1-.2 0 0q0 .1-.1.1-.1.3-.3.6l-.1.1c.1-.1 0 0 0 0l-.2.2c-.1.2-.4.4-.5.5-.3.3-.9.5-1.3.7-.6.3-1.3.4-1.9.7-2.8 1-5.7 1.6-8.6 2.3-3.5.8-7 2-10 4-.8.4-.3 1.6.6 1.4 1.5-.4 3-.7 4.5-1.1.6-.2 1.6-.4 1.6-1.2 0-1-1.1-.8-1.7-.7q-1.1.2-2.2.5c-1 .3-1.9.6-2.8 1.1-.9.4-.3 1.6.6 1.4 2.4-.6 4.7-1.3 7-2 2.8-.8 5.6-1.6 8.4-2.2q1-.2 2.1-.4.5-.1 1.1-.2c.4 0 .5-.1.9-.1q2-.3 4.1-.2.9 0 1.9.1c.3 0 .4 0 .8.1q.4.1.9.2.9.2 1.7.5.1 0 .2.1c.1 0-.1-.1 0 0h.1l.4.2q.4.2.7.4.4.2.8.5s.2.2 0 .1q.1 0 .2.1.2.1.3.3.4.3.7.6.1.2.3.3 0 .1.1.2l.1.1c0 .1-.1-.1 0 0q.6.8 1 1.6c.3.7.5 1.2.7 1.9 1.1 3.5 1 7.1-.3 10.5-.6 1.7-1.6 3.3-2.8 4.6-1.3 1.4-3 2.4-4.8 2.9-4 1.2-8.4.6-12.4-.5-3.7-1-7.1-2.5-9.7-5.4-2.4-2.6-3.9-5.9-4.3-9.4q-.2-1.4-.2-2.8c0-1-1.6-1-1.6 0 0 3.9 1 7.8 3.2 11.1s5.4 5.7 9.1 7.1c4 1.5 8.5 2.4 12.9 2.1 2.2-.2 4.3-.8 6.2-1.9 1.8-1 3.2-2.5 4.3-4.1 2.2-3.4 3.1-7.6 2.6-11.5-.4-3-1.4-6-3.6-8.2-1.8-1.8-4.3-2.8-6.8-3.2-2.9-.4-5.8-.2-8.6.3-3 .4-5.9 1.2-8.8 2-2.6.8-5.1 1.6-7.7 2.3l-1.6.4.6 1.4.4-.2q.1 0 .2-.1c-.2.1 0 0 0 0q.4-.1.8-.3.9-.3 1.8-.5.7-.2 1.4-.3h.4c.1-.1.3 0-.1-.1-.1 0-.4-.2-.4-.3q-.1-.2-.1-.4c-.1-.3.2-.5.3-.6h-.1c-.1.1.2-.1.1 0h-.1q-.5.2-1 .3c-1.4.4-2.8.7-4.2 1.1l.6 1.4c2.7-1.8 5.8-2.8 9-3.6 2.9-.8 5.9-1.3 8.7-2.3 1.3-.5 2.6-.8 3.7-1.5.9-.5 1.6-1.3 2.1-2.2.9-1.7.7-3.7.4-5.5q-.2-.8-.3-1.7c-.1-.5-.2-1-.2-1.5q-.1-.9-.1-1.7v-.9c0-.3.1-.4.1-.7.1-.4-.1-.8-.5-1-.4-.1-.9.2-1 .6z"/><path class="c" d="M212.8 53.4c7.9 2 13 9.1 17.7 15.2 1.3 1.6 2.5 3.2 3.9 4.8.3.4.4.8.6 1.2q.4.8.6 1.7.6 1.5.9 3.1c.2 1 .2 2.1.3 3.1q.3 1.9.5 3.7.4 3.8.7 7.6c.3 5.1.4 10.2-.2 15.3-.6 5-2.3 9.8-3.9 14.6-.9 2.4-1.8 4.9-2.6 7.4-.7 2.3-1.2 4.7-2.1 7-1.4 4-3.8 7.7-6.8 10.9q-2.2 2.4-4.8 4.4c-.8.6-1.7 1.3-2.6 1.7q-1.4.7-2.8 1c-3.9.8-8.1-.4-11.4-2.4q-1.2-.8-2.2-1.7c-.8-.7-1.9.4-1.1 1.1 3 2.8 7.2 4.6 11.4 4.8 2.1.1 4.2-.2 6.1-1 2.1-.9 3.9-2.4 5.5-3.9 3.4-2.9 6.3-6.5 8.5-10.4 1-2.1 1.9-4.2 2.5-6.4.6-2.6 1.5-5.1 2.3-7.5 1.7-5.1 3.7-10.1 4.8-15.3 1.1-5.1 1.3-10.4 1.2-15.6-.2-5.2-.8-10.5-1.4-15.7-.2-1.1-.2-2.2-.4-3.2q-.3-1.7-.9-3.3-.3-.8-.6-1.5c-.2-.5-.4-1.1-.8-1.5-.6-.9-1.3-1.7-2-2.5-5.1-6.3-9.9-13.9-17.7-17.2q-1.3-.6-2.8-1c-1-.3-1.4 1.3-.4 1.5z"/><path class="c" d="M208.7 51.1c3.8 0 7.5 1.1 10.7 3.3 3.2 2.1 5.8 5.1 7.9 8.2 2.5 3.5 4.8 7.3 6.7 11.2 2 3.9 3.7 8.2 3.9 12.6.2 5-.2 10-.8 14.9-.7 5-1.6 9.9-2.8 14.7-2.5 9.7-5.9 19.2-9.9 28.4-1.3 3-2.5 6.1-4.4 8.7-1.7 2.4-4.2 4.2-7.3 4-.9-.1-1.8-.3-2.6-.6-1-.3-1.4 1.2-.5 1.5 1.8.6 3.7.8 5.5.5 1.6-.3 3-1.1 4.2-2.2 2.4-2.2 3.9-5.3 5.2-8.3 4.1-9 7.6-18.2 10.3-27.7 2.7-10 4.5-20.3 4.7-30.6 0-2.4 0-4.7-.5-7s-1.3-4.5-2.2-6.7c-1.8-4.2-4.1-8.2-6.6-12.1-4.4-6.6-10.1-13-18.4-14.2q-1.6-.2-3.1-.2c-1.1 0-1.1 1.6 0 1.6zM67.9 169.7c1.2 1.8 2.6 3.4 4.2 4.8s3.3 2.7 5.2 3.7c3.5 2.1 7.3 3.8 10.8 6 1.9 1.3 3.7 2.7 5.3 4.3.7.8 1.8-.3 1.1-1.1-2.8-3-6.4-5.1-10-7-3.6-2-7.4-3.7-10.5-6.3q-2.7-2.3-4.7-5.2c-.3-.3-.7-.5-1.1-.3-.3.2-.5.8-.3 1.1zm-3.1-29.9c-3.6 6.3-4.1 13.8-1.9 20.5.7 2 1.6 4 2.7 5.9.5.8 1.8 0 1.3-.8-1.7-3.1-3-6.3-3.5-9.8-.5-3.2-.3-6.6.6-9.8q.7-2.7 2.1-5.2c.5-.9-.8-1.7-1.3-.8zm6.1-9.2q-1.5 1.7-2.8 3.6c-.3.3-.1.9.3 1.1.4.2.8.1 1-.3q.3-.4.7-.9.1-.2.3-.4l.1-.1q-.1.1 0 0t.1-.2q.7-.9 1.4-1.7c.3-.3.3-.8 0-1.1-.3-.3-.8-.3-1.1 0z"/><path class="c" d="M70.5 134c-1-.3-2-.3-2.9.2-.7.4-1.3 1.1-1.7 1.9-.8 1.7-1 3.7-1.1 5.6q-.1 1.2 0 2.5c0 1 1.5 1 1.5 0 0-1.5 0-3 .2-4.5 0-.1 0 .1 0 0q0-.1.1-.2v-.3q.1-.3.1-.6.2-.7.4-1.3 0-.1.1-.2c-.1.1 0-.1 0-.2q.2-.2.3-.5l.2-.2c.1-.1 0 0 0 0l.1-.1q.1-.2.4-.4c-.2.1 0 0 .1 0l.2-.2c.1 0 0 0 0 0h.2q.1-.1.2-.1c.1 0 .2 0 0 0h.8q.2 0 .4.1c1 .2 1.4-1.3.4-1.5zm137.7-83.6q.5-.1 1.1-.1.2 0 .5.1c.1 0 0 0 0-.1l.1.1h.3l.4.2c.2 0 .1 0 0 0h.2q.1.1.2.1l.2.2s.2.1.1 0q.2.2.4.5c.3.3.8.3 1.1 0 .3-.4.3-.8 0-1.2-1.1-1.3-2.9-1.6-4.6-1.4-.4 0-.8.3-.8.8 0 .4.4.8.8.8zm.1-3.4c-.1-.5-.1-1.3-.8-1.5-.5-.2-1-.2-1.6-.2-.4.1-.9.1-1.3 0s-.7-.4-1.1-.6c-.8-.4-1.8-.6-2.7-.9l-2.8-1c-3.9-1.5-7.9-2.8-12-3.7-4-.8-8.1-1.7-12.2-2-2.1-.1-4.2-.1-6.3-.2-2.1 0-4.1-.2-6.2-.2-2.1-.1-4.1-.1-6.1.2-1 .2-1.9.4-2.8.7-.8.4-1.7.8-2.5 1.2-.9.4-1.8.6-2.7.8q-1.3.4-2.7.8c-1.8.7-3.5 1.5-5.2 2.5-3.1 1.8-6 4.1-8.4 6.8q-1.9 2-3.4 4.2c-1.1 1.5-2.2 3.1-3 4.8-.4.9-.8 1.9-1.2 2.9-.5.9-1 1.8-1.6 2.6-1 1.6-2.1 3.3-2.5 5.3-.4 1.9-.2 3.9-.1 5.9.1.9.1 1.9.2 2.9.2 1 .5 1.9.8 2.9.2.9.3 1.8.3 2.7-.1.4.4.8.8.8s.7-.4.8-.8c.1-1.9-.6-3.7-1-5.6-.2-.9-.3-1.8-.3-2.7q-.1-1.4-.1-2.9c0-.9 0-1.8.1-2.7.2-.9.5-1.7.9-2.6.9-1.7 2.2-3.2 3-5l1.2-2.7c.4-.9.9-1.8 1.4-2.6q1.4-2.2 3-4.2c2.2-2.7 4.7-5.1 7.5-7.1 2.9-2.1 6.2-3.7 9.7-4.6.9-.2 1.8-.4 2.7-.8.9-.3 1.7-.7 2.5-1.1 1.7-.8 3.5-1 5.4-1 3.9-.2 7.9.2 11.9.3 4 0 7.9.5 11.9 1.3 4 .7 8 1.7 11.9 3 1.9.6 3.7 1.4 5.6 2.1q1.4.4 2.7.8c.8.2 1.4.8 2.2 1 1 .3 2-.1 2.9.2q-.3-.2-.5-.5l.2 1c.2 1 1.7.5 1.5-.5zm-46.5-14.2q-.1.4-.3.8.7-.2 1.4-.3l-.3-.3c-.1 0-.1-.1 0 0q-.1-.1-.1-.2-.1-.1-.2-.3-.1-.1-.1-.2c.1.2 0 0 0-.1q-.2-.4-.3-.9 0-.3-.1-.5v-.4c-.2-1.7-.1-3.4 0-5.1.2-1.5.5-3 .9-4.5q.1-.5.3-.9 0-.2.1-.4c.1-.1 0 .1 0 0q.1-.1.1-.2c.4-.8 1-1.6 1.6-2.3 2.8-3 7.1-3.5 11.1-3.2 2.3.2 4.7.9 6.7 2.1.4.2.7.4 1 .7.3.2.5.5.6.7.5.7.7 1.4 1 2.1.8 2.5 1.3 5 1.4 7.6.2 2.7.1 5.5.1 8.3q-.1 1-.1 2.1h1.6v-.8c0-1-1.6-1-1.6 0v.8c0 1 1.6 1 1.6 0 0-2.9.2-5.9.1-8.8-.1-2.9-.5-5.8-1.3-8.6-.5-1.7-1.1-3.5-2.5-4.7-.9-.8-2-1.3-3.1-1.7a15 15 0 00-3.6-1.1c-2.4-.5-4.9-.5-7.3-.1-2.1.4-4.1 1.2-5.8 2.5-1.4 1.2-2.6 2.8-3.2 4.5-.5 1.4-.8 3-1 4.5-.3 1.8-.5 3.6-.4 5.5.1 1.4.2 3.1 1 4.3q.3.4.6.7c.5.4 1.1.2 1.4-.4l.2-.8c.2-.4-.1-.8-.5-.9-.4-.1-.8.1-1 .5z"/><path class="c" d="M116 80.1c-.1-.9.2-1.9.6-2.8.4-1 .9-1.9 1.4-2.9 1-2.2 1.5-4.5 2.7-6.7.4-.9-.9-1.7-1.4-.8-.6 1.2-1.1 2.4-1.6 3.6-.4 1.2-.7 2.3-1.2 3.4-1 2.1-2.4 4.2-2 6.6 0 .5.6.7 1 .6.4-.1.6-.6.5-1zm59.6-67.6c1.5 0 2.9-.1 4.4-.1 1.3 0 2.7.2 3.8 1 1.2.8 2.2 2.2 3.1 3.3.9 1.2 1.9 2.3 2.9 3.3 1 1.1 2.2 2.2 2.7 3.6q.2-.5.4-.9c-.5.2-1 .1-1.5 0-.6-.2-1-.4-1.6-.6-1-.4-2.2-.6-2.8.6-.6 1.3-.3 2.9.3 4.2.7 1.4 1.8 2.7 3 3.5.6.4 1.7 1 2.3.6.7-.4 1.2-1.1 1.5-1.9.4-1.5 0-3.2.1-4.7.1-1.9.7-3.6 1-5.4.3-2 0-3.9-1-5.7-.7-1.4-1.8-2.8-2.9-4-1-1.1-2.3-2.4-3.8-2.9-.9-.4-1.8-.3-2.8-.3-1-.1-2-.3-3-.5-2.1-.5-4.2-1-6.3-1.6-3.7-.9-7.3-2.2-11-2.5-1.9-.1-3.7.2-5.4.9q-2.3.9-4.3 2.6c-1.3 1-2.4 2.3-3 3.8-.6 1.4-.8 2.9-.9 4.4 0 2.5.8 5.4 3.6 6.2.7.2 1.4.2 2.2.2.3-.1.6-.3.7-.6.4-1.4.3-2.8.2-4.2v-1.4s.1-.2 0-.1q.1-.4.2-.7c.1-.2-.1.1.1-.1v-.1l.2-.2c0-.1.1-.2 0-.1.8-1 2-1.5 3-2.1.6-.3 1-.5 1.5-.7l.8-.2q.2-.1.4-.1h.2q.1-.1 0 0l.1-.1h.4q.1 0 .2.1c-.2-.1 0 0 0 0q.2 0 .4.1c-.2-.1 0 0 .1 0q0 .1.1.1c-.1-.1.1 0 .1.1q.1 0 .1.1l.1.1q0 .1.1.2c.1.2.2.6.3 1 0 .2.3.5.5.5 1.5.3 2.9-.1 3.8-1.3.3-.3.4-.8 0-1.1-.2-.3-.8-.3-1.1 0-.6.7-1.3 1.1-2.3.9q.3.3.6.5c-.2-1.3-1-2.5-2.5-2.8-1.3-.2-2.6.3-3.8.8-1.3.6-2.6 1.3-3.6 2.1-1.1.9-1.6 2.2-1.6 3.6 0 1.6.3 3.1-.1 4.7l.8-.6c-.6 0-1.1 0-1.6-.1-.4-.1-.7-.2-1.1-.4q0-.1-.1-.1c-.1-.1.1.1 0 0l-.2-.2-.2-.2c-.1-.2 0-.1-.1-.2-.3-.3-.4-.6-.5-.9-.3-.9-.4-1.7-.4-2.6 0-1 .1-1.9.4-2.8.6-2.3 2.3-4 4.2-5.3 1-.6 2-1.2 3.1-1.6 1.2-.4 2.5-.5 3.7-.5 2.8.1 5.5.9 8.1 1.6q4.3 1.3 8.7 2.2c1.4.4 2.9.7 4.5.7.6 0 1.2 0 1.8.2.5.2.9.5 1.3.8.9.7 1.8 1.6 2.5 2.4.7.9 1.4 1.8 2 2.7.7 1.2 1 2.5 1 3.8 0 1.4-.4 2.7-.7 4-.3 1.3-.5 2.7-.4 4.1 0 1 .2 2.1-.1 3.1q-.1.6-.7.9h.6c-1-.2-1.8-.8-2.5-1.6s-1.3-1.8-1.6-2.9c-.1-.4-.1-.8 0-1.3q0-.2.1-.3s.1-.2 0 0v-.1l.1-.1s-.1 0 0 0h-.1.1c-.1 0-.1.1 0 0 0 0 .3.1 0 0q.3.1.5.2.2 0 .3.1s.2 0 0 0h.2q.3.2.7.3c1.1.5 2.3.7 3.4.2.4-.2.5-.6.4-.9-.5-1.5-1.5-2.6-2.5-3.7-1.1-1.1-2.1-2.2-3.1-3.4-1-1.3-2-2.7-3.3-3.7-1.2-1-2.7-1.4-4.3-1.5-1.7-.2-3.5.1-5.2.1-1 0-1 1.5 0 1.5z"/><path class="c" d="M156.1 17.1c-1.7 1.5-1.9 4.3-1.1 6.3.2.6.8.8 1.3.4.8-.9 1.4-1.9 1.9-3q.8-1.7 1.1-3.4c.2-.6-.5-1.3-1.1-.9q-.4.2-.7.5c-.4.2-.5.7-.3 1.1.2.3.7.5 1.1.2q.3-.2.7-.4-.6-.5-1.2-.9c-.2 1-.5 2.1-1 3-.4 1-.9 1.9-1.6 2.7q.6.1 1.3.3l-.2-.6q-.1-.2-.1-.4v-.2q-.1-.7 0-1.4v-.3q0-.1.1-.3 0-.2.1-.3v-.2c.1-.2 0 .1.1-.1q.1-.3.3-.5c0-.1.1-.1 0-.1q.1 0 .1-.1.2-.1.3-.3c.4-.3.3-.8 0-1.1-.3-.3-.8-.3-1.1 0zm7.3-8.4c-1.6 1.2-3.1 2.9-2.9 5.1 0 .3.2.6.6.7.3.1.7 0 .9-.3q.2-.6.5-1.1.2-.2.3-.4c0 .1.1-.1.2-.2q0-.1.1-.2c.3-.3.4-.8.1-1.1-.4-.3-.9-.3-1.2 0q-.9 1-1.4 2.2.8.2 1.5.4v-.9c0 .2 0 .1 0 0q0-.1.1-.2 0-.2.1-.3v-.2q.2-.3.3-.5.1-.2.2-.3s.1-.1 0 0l.1-.1q.2-.3.4-.5t.5-.4l.2-.2.1-.1c.2-.1-.1.1.1 0 .3-.3.5-.7.3-1.1-.3-.3-.8-.6-1.1-.3zm2.3-5.2c.1-.5.1-1-.2-1.3-.3-.4-.8-.7-1.3-.6q-.2 0-.4.1t-.3.3c-.1.2-.1.5 0 .8.5 1 1.3 1.9 2.2 2.5.2.1.5.2.7.1.1 0 .3-.2.4-.4.1-.1.2-.4.1-.6q-.1-.3-.4-.4l-.2-.2q.1.1.2.1-.6-.4-1.1-1l.2.2q-.4-.5-.7-1.1-.3.6-.7 1.2.1-.1.3 0-.1-.1-.2-.1l.1.1q-.1-.1-.2-.1.1 0 .1.1 0-.1-.1-.2 0 .1.1.1-.1-.1-.2-.1.1 0 .1.1 0-.1-.1-.2.1.1.1.3V3v.5c0 .2.1.4.2.5.1.2.4.3.6.3.2-.1.4-.1.5-.3q.2-.2.2-.5zm9.5 4.7V5.8c0-.4-.4-.8-.8-.8-.4.1-.8.4-.8.8v2.4c0 .4.4.8.8.8s.8-.4.8-.8zm13.2 2.8h-.2c.1 0-.1 0-.1.1q-.2 0-.4-.1c.1.1-.1 0-.1 0h-.2l-.4-.2h-.1q-.1 0-.2-.1l-.4-.2q-.5-.3-.9-.5c-1.2-.7-2.4-1.4-3.9-1.4-1 0-1 1.6 0 1.6.6 0 1.2.1 1.7.4.6.3 1.2.6 1.8 1 1.2.7 2.4 1.3 3.8.9 1-.2.6-1.8-.4-1.5z"/><path class="c" d="M157.1 21c-.2.8-.1 1.7.3 2.4.3.6.7 1.2 1 1.8.1.3.7.5 1 .2.4-.2.5-.6.3-1-.2-.6-.6-1.1-.9-1.6q-.1-.1-.1-.2c0-.1-.1-.2 0 0v-.1q-.1-.2-.1-.4s-.1-.2 0 0V22q-.1-.1 0-.2v-.1c0-.2 0 0 0 0v-.3c.1-.4-.1-.9-.5-1-.4 0-.9.2-1 .6zm12.6-19.1c2 .3 4.4.9 6.4 1.5 1 .3 1.9.7 2.8 1.2 1 .6 1.9 1.4 2.7 2.3 1 1 1.9 2 2.9 3 .7.8 1.8-.3 1.1-1.1-1.8-1.8-3.3-3.9-5.5-5.3-1-.7-2.1-1.1-3.1-1.4q-1.7-.6-3.5-1.1-1.9-.4-3.8-.7c-.4 0-.8.4-.8.8 0 .5.4.7.8.8zm2 25v-.6c0-1-1.6-1-1.6 0v7c0 1 1.6 1 1.6 0v-7c0-1-1.6-1-1.6 0v.6c0 1.1 1.6 1.1 1.6 0zm-38.3 61.7v.9c0 1 1.6 1 1.6 0v-8.1c0-2.6 0-5.1-.4-7.7-.4-2.4-1.1-4.7-1.6-7.1-.5-2.4-.7-4.8-.7-7.3.1-2.8.3-5.7.3-8.5 0-1-1.6-1-1.6 0 0 2.5-.2 5-.2 7.6-.1 2.5 0 5 .5 7.5.4 2.4 1.1 4.7 1.5 7q.4 1.8.6 3.6c.1 1.3.1 2.6.1 3.9 0 3-.1 6.1-.1 9.1h1.6v-.9c0-1-1.6-1-1.6 0zm65.4 16.6c.4-3.4-1.6-6.5-2.2-9.7-.2-.9-.2-1.8-.2-2.7q-.1-1.5-.1-3c0-2 .1-3.9.1-5.9.1-3 0-5.9-.1-8.9-.1-2.7-.1-5.4.5-8.1.5-2.7 1.7-5.4 4-7.1.4-.3.5-.7.3-1.1-.2-.4-.7-.6-1.1-.3-2.2 1.7-3.7 4-4.4 6.7-.8 2.7-.9 5.6-.9 8.4 0 2.8.2 5.6.2 8.4 0 4-.3 8.1-.1 12.1.1 2 .7 3.8 1.4 5.7.6 1.8 1.3 3.6 1.1 5.5-.1.4.3.8.7.8.5 0 .8-.4.8-.8zm-22-79.6c1 0 1-1.6 0-1.6s-1 1.6 0 1.6zm-10.4-.3c1 0 1-1.6 0-1.6s-1 1.6 0 1.6z"/><path class="c" d="M196.9 85.9c6.2.1 12.1 2 17.7 4.6q2.2 1 4.3 2.1 1.1.6 2.3 1c.7.3 1.5.5 2.2.8 1.4.6 2.6 1.6 3.8 2.6.6.5 1.3.9 2 1.3.6.4 1.2.6 1.9.9.7.4 1.5.8 2.1 1.2.6.4 1.1 1 1.6 1.6.9 1.3 1.6 2.8 2.9 3.8.3.2.8.3 1.1 0 .3-.3.4-.9 0-1.1-1.1-.9-1.8-2.2-2.6-3.3-.8-1.3-1.9-2.3-3.2-3-1.4-.7-2.8-1.2-4.1-2.1-1.3-.9-2.4-2-3.8-2.8-1.4-.8-3-1.1-4.4-1.8-1.5-.6-2.9-1.4-4.4-2.1-2.8-1.4-5.8-2.6-8.8-3.6-3.5-1-7-1.6-10.6-1.7-1 0-1 1.6 0 1.6zm-32 92.2c2.1.3 4.1-.6 6.2-1 .9-.2 1.9-.3 2.9-.1.9.2 1.8.5 2.7.9 1.5.8 3.1 1.6 4.3 2.8.7.7 1.3 1.5 1.7 2.4.5.8.8 1.7 1.1 2.6.4.9.8 1.8 1.4 2.6.5.7 1.2 1.2 1.9 1.7 1.4.9 2.9 1.4 4.4 2.1 1.5.7 2.8 1.6 3.8 2.8 1 1.1 1.7 2.5 2.3 3.9.6 1.5 1.2 3 1.6 4.5.4 1.3.6 2.6.1 3.8q-.2.8-1 1.5c-.5.5-1.3.8-2.1 1-2 .6-4.1.2-6.1-.6-1.8-.7-3.6-1.7-5.4-2.6q-2.8-1.4-5.7-2.5c-2-.7-4-1.4-6.1-1.9q-1.4-.3-2.9-.5c-1-.1-1.9-.2-2.8-.5-1.9-.5-3.5-1.5-5.4-1.9-2.2-.5-4.5-.3-6.6-1.1-2.1-.8-4.2-1.6-6.4-2.1-.9-.2-1.8-.3-2.7-.3-.8 0-1.6 0-2.4-.1-.8-.1-1.4-.4-1.9-1-.3-.3-.8-.3-1.1 0-.3.3-.3.8 0 1.1 1.3 1.5 3.2 1.6 5 1.6.9 0 1.7 0 2.6.2q1.7.4 3.3 1c1.1.3 2.2.8 3.3 1.2 1.1.3 2.3.5 3.4.6 1.2.2 2.3.2 3.3.5 1 .2 1.9.6 2.8 1 .9.4 1.8.7 2.7 1 1 .2 2 .3 3 .4 2.1.3 4.1.9 6.1 1.5q3.1 1 6 2.4c2 .8 3.8 1.9 5.7 2.7 2 1 4.1 1.8 6.4 1.8 1.9 0 4-.6 5.4-2 2.3-2.4 1.4-6 .4-8.7-1.2-3.1-2.4-6.3-5.1-8.4-1.4-1.1-3-1.8-4.6-2.5-1.5-.6-3.1-1.4-4.1-2.7-.5-.7-.8-1.7-1.2-2.5-.3-1-.7-2-1.3-2.9-1-1.6-2.3-3-3.9-4-.9-.5-1.8-.9-2.7-1.3-.9-.5-1.8-.9-2.8-1q-1.7-.3-3.3 0c-1.1.2-2.1.5-3.1.8-1 .2-2.1.4-3.1.3-.4-.1-.8.4-.8.8s.4.7.8.7zm8.7-50.4v.1q0 .1-.1.3v.1s.1-.2 0-.1v.1q-.1 0-.1.1l.1-.1c-.1.1.1 0 0 0-.2.1 0 0 0 0-.1 0-.1-.1.1 0h-.1q-.1 0-.1-.1c-.1 0 .2.1 0 .1q0-.1-.1-.1l-.1-.1c-.1 0 .1.2 0 .1q-.1-.2-.3-.4c-.1-.1.1.2.1.1l-.1-.1q-.1-.1-.1-.2l-.1-.1c-.1-.2.1.1 0 0q0-.1-.1-.3v-.4c0-.3-.3-.7-.6-.7q-.5-.2-1-.3c-.4-.1-.8.2-.9.6-.1.4.1.8.5 1l1 .2-.6-.8c0 .9.4 1.9 1.1 2.5.3.2.7.5 1.1.5.5.1 1 0 1.4-.4.4-.4.5-1 .6-1.6 0-.4-.4-.8-.8-.8-.5 0-.8.3-.8.8zM79.8 39.3c-3.5.4-6.5-1.9-9.2-3.8-1.5-1-3.1-2-4.7-2.9-1.9-1-3.9-1.9-5.8-2.8-2-.9-4-1.8-6-2.8l-6-3c-4-1.9-8-3.7-12-5.6-1.1-.6-2.2-1.1-3.3-1.7-1.1-.5-2.2-.9-3.3-1.3-.6-.1-1.1-.3-1.6-.6-.3-.2-.5-.4-.8-.6-.6-.7-1.4-1.1-2.3-1-.5.1-.8.4-.8.8 0 .5.3.8.8.8 5.7.2 11.4.9 17.2 1.1 2.8.2 5.7 0 8.5.2 2.7.2 5.4.6 8.1 1 2.6.5 5.3.9 8 1.1q2.1.2 4.1.2c1.3 0 2.6 0 4 .2 2.5.3 5 1 7.6 1.5 2.1.5 4.3.7 6.5.7 1.6 0 3.2 0 4.8.2.7.1 1.5.2 2.3.4l.4.2c.1 0 .3.1.2 0l.2.1.4.2c0 .1.2.2.2.1-.1 0 0 .1.1.1q0 .1.1.2c.1.1 0-.1.1 0l.2.4v-.8c-.6 1.3-2.2 2-3.5 2.5-1.5.6-3 1.2-4.3 2.1-1.3.9-2.4 2.1-3.5 3.1-1.5 1.5-3.4 2.5-4.9 3.9-.7.7-1.1 1.4-1.5 2.1-.5.7-.9 1.2-1.7 1.4-1 .2-.6 1.7.4 1.5 1.5-.3 2.3-1.5 3-2.7.9-1.4 2.2-2.2 3.5-3.2 1.4-1 2.6-2.1 3.8-3.3 1-.9 2-1.6 3.2-2.3 1.2-.6 2.4-1 3.7-1.7 1.2-.5 2.5-1.4 3.1-2.6.5-1.1-1-2.1-1.9-2.5-1.1-.5-2.3-.6-3.5-.8-2.3-.2-4.6-.1-6.9-.2-3.7-.2-7.4-1.4-11.1-2q-1.4-.2-2.9-.3c-1-.1-1.9 0-2.9-.1-1.9 0-3.9-.2-5.8-.4-3.9-.5-7.7-1.3-11.6-1.7-2-.2-4-.2-6-.2q-3.1 0-6.2-.2c-4.2-.3-8.3-.7-12.4-.9q-1.6-.1-3.1-.2v1.6c.3 0 .5 0 .8.1.2.1.4.3.6.6.7.6 1.5 1 2.4 1.3.9.4 1.9.6 2.8 1 1.1.4 2 1 3 1.5 4 2 8 3.8 12 5.6 4 1.9 7.9 4 11.9 5.8 3.7 1.7 7.5 3.4 10.8 5.8 3.1 2.1 6.6 4.9 10.7 4.4.4-.1.8-.3.8-.8 0-.4-.4-.8-.8-.8z"/><path class="c" d="M24.2 13.7c1.5 0 2.9-.4 4.4-.8.8-.3 1.6-.4 2.5-.4.9-.1 1.8 0 2.7-.1 3.5-.1 6.7-1.7 10-2.6 1.7-.5 3.3-.8 4.9-.9 1.8-.1 3.6-.4 5.3-.7 1.7-.3 3.4-.7 5.1-1 1.7-.4 3.4-.5 5.1-.7 3.9-.6 7.8-1.9 11.7-1l-.6-.8c.2 2.3-1.5 4-2.3 5.9-.9 1.7-1.4 4-3.1 5.2-.8.5 0 1.9.8 1.3 2.1-1.3 2.6-3.6 3.6-5.7.5-1.1 1.2-2 1.7-3.1.6-1.1 1-2.3.9-3.6 0-.3-.2-.6-.6-.7-3.5-.8-7.1 0-10.6.6-1.8.4-3.5.5-5.3.7-1.7.3-3.4.7-5.1 1.1-1.7.3-3.4.6-5.1.8-.9.1-1.7.1-2.6.2q-1.3.1-2.5.4c-1.7.4-3.3 1-5 1.5-1.6.6-3.2 1.2-4.9 1.4-2 .4-4.1 0-6.1.4-.8.2-1.6.5-2.4.7q-1.3.3-2.5.3c-1 0-1 1.6 0 1.6zm-17 75.8c5.4-2.9 10.8-6 16.2-9.1 5.3-3.1 10.6-6.2 16.1-9.1q4.6-2.5 9.3-4.8-.6-.4-1.2-.9c-1.1 6.1-2.5 13.4-8.2 16.9-1.7 1-3.6 1.6-5.4 2.3q-3.1 1-6.3 2-6.2 2-12.4 3.7-7.1 2-14.2 3.7l.4 1.6c.5-.2.9-.6 1.2-1q.8-.9 1.6-1.9c1.5-2 3.1-4.1 4.6-6.2q2.6-3.7 5.1-7.4l4.4-6q.3-.5.7-1.1.2-.2.3-.4c.1-.1-.1.2 0 .1q0-.1.1-.1.1-.1.1-.2c1.2-1.5 2.3-3.3 3.6-4.7q.5-.5 1.1-.9-.5-.2-1.1-.3c1.1 1.7 1.4 3.9 1.7 5.9.3 2.2.4 4.4.8 6.6.1.4.6.7 1 .6.4-.2.6-.6.5-1-.4-2.2-.5-4.4-.8-6.6-.3-2.1-.7-4.4-1.8-6.3-.2-.3-.7-.5-1.1-.3-1.8 1.3-2.9 3.1-4.2 4.8l-1.8 2.4c-1.4 1.8-2.7 3.7-4 5.6Q11 81 8.4 84.6c-1.6 2.2-3.1 4.4-4.7 6.5q-.3.3-.5.6s-.1.2-.1.1c.1-.1 0 .1 0 .1q-.2.1-.3.3l-.8 1q-.3.4-.6.7-.1.2-.3.3l-.1.1c-.1.1.2-.1.1-.1l-.1.1c-.1 0 .2-.1.1-.1-1 .3-.6 1.8.4 1.6q12.9-3.2 25.6-7.1 3.2-1 6.3-2.1c2-.6 3.9-1.3 5.8-2.2 3.1-1.6 5.4-4.3 6.9-7.4 1.6-3.5 2.4-7.2 3.1-11 .1-.7-.6-1.2-1.2-.9-5.6 2.8-11 5.7-16.4 8.8-5.4 3-10.7 6.1-16 9.1q-4.6 2.6-9.2 5.1c-.9.5-.1 1.9.8 1.4zm66.6 47.2H75c.2 0 .4-.1.6-.2.1-.2.2-.4.2-.6 0-.2-.1-.4-.2-.5q-.3-.3-.6-.3h-1.2c-.2 0-.4.1-.5.3-.2.1-.3.3-.3.5s.1.4.3.6q.2.2.5.2zm81.1 37.7c-1.4 1.1-2.5 2.5-3.5 4q-1.6 2.2-2.8 4.7c-.7 1.5-1.1 3.1-1.9 4.5-.8 1.5-1.8 2.8-2.6 4.3-.9 1.7-1.5 3.6-1.3 5.6.1.4.3.7.8.7.4 0 .8-.3.8-.7-.4-3.4 1.8-6 3.4-8.7.8-1.4 1.3-2.9 2-4.3q1-2.4 2.5-4.7c1-1.5 2.2-3.1 3.7-4.3.3-.2.3-.8 0-1.1-.3-.3-.8-.2-1.1 0zm23-6.1c-1.7.1-3.1 1.1-3.8 2.7-.4.6.3 1.5 1 1 .8-.5 1.5-1.1 2.1-1.9.7-.8 1.3-1.8 1.1-2.8 0-.6-.6-1.1-1.1-.7-2.9 1.7-4.5 5-5.6 8-.1.3.1.8.4.9 2.8 1.2 5.7-.1 7.8-2 2.4-2.1 4.2-5 5.1-8 .4-1.4.6-2.8.3-4.2 0-.6-.2-1.3-.5-1.8-.5-.7-1.8-.7-2.4-.4-1.6.6-2.5 2.2-3.1 3.6-.6 1.5-.8 3.1-.2 4.5.6 1.4 1.8 2.5 3.4 2.3 1.6-.1 2.9-1.1 3.7-2.4q.3-.6.5-1.2c.1-.4-.2-.8-.6-1-.8-.3-1.8-.5-2.6-.2-.9.3-1.5.8-2 1.5-1 1.3-1.4 3.2-1.4 4.9 0 1.9.4 3.8 1.6 5.2 1.6 2 4.4 3 6.8 2.1 1.2-.5 2.3-1.5 2.9-2.7.3-.6.5-1.2.5-1.9 0-.6-.2-1.2-.5-1.7-.3-.8-1-1.5-1.9-1.5-.9 0-1.6.5-2.2 1.1-1.2 1.2-2.2 2.8-2.7 4.5-.8 2.1-.8 5 1.1 6.6 1.7 1.3 4.1 1.1 5.9.1.8-.5 1.6-1.3 1.9-2.3q.1-.3.1-.7c0-.4-.1-.7-.4-1-.4-.5-1-.9-1.6-1.2q-.9-.5-1.9-.6c-.4 0-.8-.1-1.2.2q-.2.3-.4.5c-.5.7-.8 1.6-.9 2.4-.5 2.1-.4 4.3.1 6.3.5 1.7 1.3 3.5 3.1 4.2 1.7.6 3.6 0 5.1-.7 1.9-.9 3.7-2.1 5.3-3.4 1.4-1.2 2.8-2.4 3.9-3.8 1.2-1.4 1.9-3 1.8-4.8-.1-1.9-1-3.7-2.1-5.3-2.4-3.5-5.7-6.2-8.6-9.3q-.9-.8-1.6-1.8-.2.7-.4 1.3c1.7-.4 3.4-.5 5.2-.7 1.9-.2 3.9-.4 5.6-1.3 1-.5 1.8-1.2 2.4-2.1.1-.3.1-.6 0-.8-.7-1.4-2.3-2-3.7-2.4-1.8-.6-3.8-.7-5.6-.8q-2.8-.1-5.5.1c-1.6.1-3.4.2-4.8.9-.7.3-1.4.9-1.6 1.6-.2.7 0 1.4.5 1.9 1.3 1.2 3.3.7 4.5-.2.9-.8 1.5-1.7 2.2-2.6.6-.9 1.6-1.4 2.7-1.5 1.3-.1 2.4.5 3.5 1.2 1.1.8 2.2 1.7 3.1 2.7.8 1 1.6 2.1 2.2 3.3.6 1 .9 1.9 1.2 3 .4 2.1.4 4.4 1.5 6.3q.3.7.8 1.2c.5.4 1.3.1 1.3-.6.4-2.7-.3-5.4-.7-8-.5-2.5-1-5.1-.2-7.6q-.4.3-.9.6c4 1.6 6.3 5.7 7.8 9.5.8 2 1.3 4 2 6 .7 2.1 1.5 4.2 2.2 6.4.3 1.2.7 2.5.9 3.8.1 1 .1 2.1-.1 3.1q.6-.1 1.3-.3c-1.5-1.5-3.2-2.8-4.9-4.1-2.5-2-5.2-3.8-7.9-5.4-2.5-1.5-5.2-3-8.1-3.5-2.3-.5-4.8-.2-6.1 2-.7 1.2-1 2.9-.8 4.4.3 1.6 1.6 2.5 3.2 2.3 1.6-.1 3.1-1 4.2-2.2 1.2-1.4 2-3.7 1.4-5.6-.6-2.2-2.8-3.2-5-3.4-2.1-.2-4.3.5-5.5 2.3-1.2 2-.4 4.4.6 6.3 1.2 2 2.8 3.7 4.5 5.2 1.8 1.6 3.8 3 5.7 4.3 1.9 1.3 3.8 2.5 5.5 4 .7.6 1.3 1.3 1.7 2.2 0-.2.1.1.1.1q0 .2.1.3v.5c0 .5 0 .8-.2 1.3-.8 2.5-2.7 4.4-4.7 6-1 .8-2 1.5-3 2.4q.6.2 1.3.5v-.1q.1-.2.1-.3.1-.4.1-.7.2-.7.3-1.5.4-1.7.6-3.5c.2-2 .3-4.5-1-6.3-.8-1-1.9-1.7-3.2-1.9q-.6-.1-.9.3c-1 1.4-1.4 3.3-1.6 5-.3 1.8-.2 3.8.7 5.5.9 1.7 2.9 2.4 4.7 1.8 2.4-.7 4.1-3 5-5.1.5-1.1.9-2.1 1-3.2.3-1.6.1-3.2-.5-4.8-.6-1.4-1.5-2.7-2.5-3.9-.8-1-1.8-2-3.2-2-1.3 0-2.5.9-3.1 2.1-.5 1.1-.7 2.4-.7 3.6 0 1 .1 2.1.4 3.1.4 1.1 1 2.1 1.8 3 1.5 1.9 3.6 3.2 5.8 4.3 2.1 1 4.4 1.8 6.8 2.2l1.6.2c.3 0 .6-.2.7-.4 1.4-2.7 1.3-5.6 1-8.5-.1-1.1-.3-2.3-.4-3.5-.1-1.1-.2-2.3-.4-3.4-.2-1.2-.6-2.4-1.4-3.3-.5-.6-1.6 0-1.3.8.2.5.5 1.1 1.2 1.1.6 0 .9-.5 1.1-1 .3-.9.4-1.9.4-2.8 0-.7-1.1-1.2-1.4-.4-.9 2-1.9 4-3.5 5.5q.7.1 1.3.3c-.7-3.6.1-8-2.6-11.1-.2-.3-.6-.3-.9-.1-1.8.7-3 2.5-3.8 4.3-.8 1.8-1.3 3.7-1.5 5.7h1.6c0-1.5-.5-3-1.3-4.3-.8-1.4-1.8-2.6-3-3.7-1-1-2.1-1.9-3.5-2.3-1.3-.4-2.8-.4-4.2-.5-.7 0-1.3-.1-2-.3-.7-.1-1.1-.3-1.5-.9v1.1c2.2-2.7 6.1-2.1 9.2-3.2.9-.4 1.8-.9 2.5-1.6.7-.7-.4-1.8-1.1-1.1-1.1 1.2-2.7 1.5-4.3 1.8-1.7.3-3.4.5-5 1.2-.9.4-1.8 1-2.4 1.8q-.5.6 0 1.1c.8 1.1 2.1 1.4 3.3 1.6 1.4.2 2.8.1 4.1.3.5.1 1.2.3 1.6.5.6.2 1 .6 1.5 1 1.1.9 2.1 2 2.9 3.2.9 1.3 1.7 2.8 1.6 4.3 0 .4.4.8.8.8.5 0 .7-.4.8-.8 0-.3.1-.7.2-1.1q.1-.7.2-1.3.4-1.3.9-2.5c.7-1.6 1.6-3.1 3.2-3.8q-.5 0-1-.1c1.1 1.3 1.5 3.2 1.6 4.9.2 1.8.3 3.7.6 5.5.1.7.9.8 1.3.4 1.7-1.6 2.8-3.7 3.7-5.8q-.7-.2-1.5-.4v1.2c-.1.1 0-.1 0 .1q-.1.2-.1.5-.1.2-.2.5v.1c.1-.2 0 0-.1.1.2-.1 0-.1.2-.2.3-.1.5 0 .7.1-.1 0 .1.1 0 0l-.1-.2q-.7.4-1.3.8c.2.2.4.6.6.9l.4 1.4c.2 1 .2 2 .3 3.1.2 2.4.7 4.8.6 7.2 0 1.4-.3 2.9-1 4.2q.4-.2.7-.4c-.9-.1-1.8-.2-2.7-.5q-1.6-.3-3.1-.9c-2-.8-4-1.8-5.7-3.2-1.5-1.2-2.8-2.8-3.2-4.7 0-.2-.1-.4-.1-.5v-.7q-.1-.8 0-1.6c.1-.4.2-.9.3-1.4.1-.2.2-.4.2-.6q.1-.1.2-.3l.2-.2.3-.3c.3-.2.6-.4.9-.4.4-.1.8.1 1.1.4.4.3.8.8 1.1 1.2l1.2 1.5c.7 1.2 1.3 2.5 1.4 3.8.2 1.1 0 2.2-.3 3.3-.6 1.9-1.8 4-3.4 5.1-.8.6-1.5.8-2.5.7 0 0-.1 0 0 0h-.4q-.1-.1-.2-.1c-.1-.1.1 0 0 0l-.1-.1q-.1 0-.2-.1c-.1 0-.2-.2-.1-.1q-.2-.1-.4-.3c-.1-.2.1.1 0-.1l-.2-.2q-.1-.3-.2-.5c0 .2-.1-.1-.1-.1q0-.2-.1-.3 0-.3-.1-.6-.1-.2-.1-.5v-.6q-.1-.6 0-1.2v-1l.1-.1c-.1.1 0 0 0-.1q.1-.6.2-1.3.1-.5.3-1.1.1-.3.2-.5s.1-.3.1-.1q0-.2.1-.3l.4-.8q-.4.2-.9.4c.6.1 1 .2 1.4.5q.2.1.3.2c.2.1.1 0 .1 0l.1.1c.1.1.4.4.4.5 0-.1.2.1.2.2q.1.1.1.2.1.2.2.3c.1.2 0-.1 0 .1q0 .1.1.2l.2.6v.3q0 .1.1.2v.1q0-.1 0 0c.2 2.2-.2 4.1-.6 6.2-.2 1-.4 2.1-.6 3.1 0 .3.3.6.5.7.3.2.6.1.9-.1 1.9-1.6 4.1-3 5.7-4.9.9-1 1.6-2.1 2.1-3.3.4-.9.7-1.9.6-2.9-.3-2.1-1.9-3.5-3.4-4.8-1.7-1.3-3.5-2.5-5.3-3.7-3.5-2.5-7.3-5.1-9.3-9-.5-.9-.9-1.8-.8-2.8 0-.8.3-1.5.8-2 1.3-1.2 3.4-1.3 5.2-.7.7.2 1.4.7 1.8 1.4.3.6.4 1.5.2 2.2q-.1.8-.5 1.5l-.2.4q-.1.1-.1.2c-.1.1-.1 0 0 0l-.1.1-.8.8c-.2.1-.1.1-.3.2q-.2.2-.5.3-.2.2-.4.3-.2 0-.3.1c.2-.1-.1 0-.1 0q-.2.1-.5.2h-.2s-.3.1-.1.1h-.7q-.1-.1-.2-.1h-.1s.1 0 0 0l-.1-.1q-.1 0-.1-.1c-.2 0 .1.1 0 .1q-.1-.1-.1-.2-.1 0-.1-.1s.1.2 0 .1q0-.1-.1-.2c-.1-.2 0 0 0-.1-.2-.5-.2-.6-.2-1q0-.4.1-.7c0-.2-.1 0 0-.1v-.3l.2-.8.2-.4c0-.1-.1.1 0-.1q0-.1.1-.1 0-.2.1-.4c.1 0 .3-.3.2-.1q.2-.3.4-.5.2-.1 0 0 .1-.1.2-.1l.2-.2c.1 0 .4-.1.3-.1-.2.1 0 0 0 0q.1 0 .2-.1.3-.1.7-.1c.1 0-.2 0 0 0h.2q.2-.1.3-.1.4 0 .8.1h.3q.2 0 .4.1.5.1.9.2.9.2 1.8.6.2.1.5.1.1.1.2.1c-.2 0 .1.1.2.1q.4.2.9.5 1 .4 2 1c2.7 1.5 5.3 3.2 7.8 5.1 1.1.8 1.9 1.4 3 2.3q1.2 1 2.3 2 .3.3.7.6c.4.4 1.2.2 1.3-.4.6-2.2.1-4.6-.5-6.7-.6-2.3-1.5-4.5-2.3-6.8-.7-2-1.2-4.1-2-6.1-.8-2.2-1.8-4.3-3.1-6.2-1.6-2.2-3.5-3.9-6-5-.4-.1-.9.2-1 .6-1.3 4.1.4 8.4.8 12.5.2 1.2.2 2.3.1 3.5q.6-.3 1.3-.6c-.6-.5-.9-1.3-1.1-2.1-.2-1-.4-2.1-.6-3.1-.1-1-.3-2-.6-2.9-.4-1.2-1.1-2.4-1.8-3.4-1.4-2.3-3.4-4.3-5.8-5.6-1.1-.7-2.4-1.1-3.7-1-1.3.2-2.5.7-3.3 1.6-.7.8-1.2 1.7-1.9 2.4-.3.3-.7.6-1.1.8-.1.1 0 0-.1 0q-.1.1-.3.1-.1.1-.2.1h-.2c-.1 0 .2 0 0 0h-.4c-.1 0 0 0 0 0h-.1q-.1 0-.2-.1c-.2 0 .1.1 0 0q-.1 0-.2-.1c-.1 0 0 0 0 0q-.1 0-.2-.1c-.1-.1.2.1 0 0v-.1c.1.1 0 .1 0 0-.1-.2 0 .1 0 0s0-.2 0 0v-.2s.1-.1 0 0c0 .1 0 0 0 0l.1-.1.1-.1.1-.1q.2-.2.4-.3c.2 0 .3-.1.5-.2l.8-.2q.3 0 .7-.1c.1 0-.2 0 0 0h.2q.4-.1.9-.1 2.4-.2 4.9-.2 1.4 0 2.8.1.7 0 1.4.1c.4 0 .8.1 1.2.2.8.1 1.6.3 2.4.6 0 0 .2.1.1 0l.2.1q.2.1.5.3l.4.2c.1.1-.1-.1 0 .1q.1.1.2.1.1.2.3.3c-.2-.1 0 .1 0 .1q.1.1.1.2v-.8c-.4.6-1 1.1-1.7 1.4-.7.4-1.5.7-2.3.9-1.8.4-3.6.4-5.4.6-.9.2-1.9.3-2.8.5-.6.2-.7.9-.3 1.3 1 1.4 2.2 2.5 3.4 3.7 1.5 1.4 2.9 2.8 4.3 4.3 1.3 1.4 2.4 2.9 3.3 4.6.4.7.6 1.4.8 2.2v.5q.1.3 0 .6c0 .4 0 .5-.1 1-.1.4-.2.6-.4 1q-.2.2-.3.5l-.2.2c-.1.1.1-.1 0 0q-.7.9-1.5 1.7c-1.3 1.3-2.7 2.5-4.2 3.6-1.5 1-3.1 2-4.8 2.5q-.2.1-.5.1-.2.1-.3.1h-1.3q-.1 0-.3-.1h-.2s-.1-.1 0-.1c.1.1-.1 0-.1 0l-.4-.2c-.1-.1 0 0 0 0q0-.1-.1-.1l-.2-.2q-.1-.1-.1-.2c-.1-.1-.1 0 0 0q-.1 0-.1-.1-.2-.2-.3-.5l-.5-1q-.4-1.4-.5-2.7c0-.9 0-1.9.1-2.8 0-.3.1-.8.2-1.2l.2-.6s.1-.2 0-.1q.1-.1.2-.3l.2-.4.1-.1s-.1.1 0 0l.2-.2q-.3.1-.6.3c1.3 0 2.3.5 3.2 1.5q-.2-.3-.3-.6c0 .6-.2 1.1-.7 1.6-.1.1-.1.1-.3.2q-.3.2-.5.3c-.3.1-.7.2-1.1.3-.6.2-1.3.2-1.9 0l-.4-.2q-.2-.1-.4-.3-.5-.4-.8-1.1c-.3-.8-.2-1.8-.1-2.7q.1-.5.3-1 0-.2.1-.4s.1-.2 0-.1q.1-.1.1-.2.5-1 1.1-1.9c.2-.3.3-.5.6-.7l.6-.8c.1 0 .2-.1.2-.1-.1.1 0 0 .1 0q.1-.1.3-.2c.1-.1 0 0 0 0h.1l.1-.1c.1 0-.1 0 0 0s.2.1.1 0l.1.1s-.1-.1 0 0c.1 0 .2.1.1 0q0 .1.1.1c.1.2 0 0 .1.1q0 .1.1.2c.1.2.1.3.2.5.6 1.7-1.3 3.5-2.8 3.9-1.8.4-3.7-.6-4.7-2.1q-.2-.3-.3-.6-.1-.1-.1-.2c-.1-.1 0 .1-.1-.1l-.2-.8q-.1-.3-.1-.5-.1-.1-.1-.2v-.2q-.1-.5-.1-1 0-.6.1-1.1v-.7q0-.1.1-.2l.2-1c.2-.4.2-.5.3-.8q.2-.2.3-.4 0-.1.1-.2s.1-.1 0 0c0 .1.1-.1.1-.1l.3-.3s.1-.1 0 0l.2-.1q.2-.1.3-.2h.1q.1-.1.2-.1h.3q.3-.1.5 0c.1 0 0 0 0 0h.4q.2.1.5.2-.3-.5-.5-.9c-.2.4-.5 1-.8 1.4q-.3.3-.6.5c.1-.1-.2.1-.2.1q-.2.2-.4.2 0 .1-.1.1h-.1q-.1.1-.3.1-.1 0-.2.1c-.2 0 .1 0 0 0h-.4s-.2-.1 0 0h-.1q-.2-.1-.3-.1c-.2-.1.1 0-.1 0q0-.1-.1-.1l-.1-.1c-.2-.1 0 0-.1-.1-.4-.3-.6-.6-.8-1.1q-.2-.8-.2-1.6s.1-.2.1-.1c-.1.1 0-.1 0-.1v-.4q.2-.4.3-.9.3-.7.7-1.5c.2-.3.3-.4.6-.7l.5-.5q.1 0 .2-.1c.1 0 .3-.1.1 0q.1 0 .2-.1h.5s.3.1.2.1l-.3-.3q0 .1.1.2.1.2.2.5 0 .2.1.3v.4c0 .1 0-.1 0 0q.1.5.1.9 0 .3-.1.5v.4c-.2 1.4-.7 2.8-1.3 4.1-1.4 2.6-3.3 5.1-6 6.3-.2.1-.1.1-.4.2q-.2.1-.5.1-.3.1-.5.1c-.1.1-.3.1-.1.1h-1.2c-.1 0 .2 0 0 0q-.2-.1-.5-.1-.1-.1-.2-.1c-.1 0-.3-.1-.2-.1q.2.5.4.9c.9-2.6 2.3-5.5 4.8-7.1l-1.2-.6c0 .6-.4 1.3-.8 1.9q-.4.5-.9.9c-.3.2-.5.4-.8.6q.6.5 1.1 1c.5-1 1.3-1.8 2.5-1.8.4-.1.8-.4.8-.8s-.4-.8-.8-.8z"/><path class="c" d="M188.3 163.9c1.9.3 3.7 1 5.5 1.4q-.3-.5-.5-1c-.4 1.3-1.2 2.5-1.2 3.9.1.4.3.7.6.8 4.1.9 8.2 1.6 12.2 2.8.6.2 1-.3 1-.7.3-2.2-1.5-3.6-3.2-4.4-1-.5-2.1-.9-3.1-1.3q-.7-.2-1.4-.5s-.1-.1 0 0l-.1-.1q-.2-.1-.3-.1-.3-.2-.6-.3-.3-.2-.5-.4c.2.2-.1 0-.1 0l-.2-.2c.2.2.1 0 0-.1s.1.2 0 0 0 .1 0 0c0-.3-.1.1 0-.1l-.5.5c1.8-.6 3.8-.2 5.7-.1 1 0 1-1.6 0-1.6-1.1 0-2.2-.2-3.3-.2q-.9 0-1.8.2c-.6 0-1.4.2-1.6.8-.3 1 .5 1.9 1.3 2.4 1 .7 2.2 1 3.3 1.5q.5.1.9.3.3.1.5.2s.2.1.1.1c0-.1.2 0 .2 0q.9.4 1.7.9.2.2.4.3c.1.1-.1-.1 0 0l.1.1q.1 0 .2.1.1.2.3.3c0 .1.1.2 0 .1q.1.1.1.2.1 0 .2.1c0 .1.1.3 0 .2 0-.1.1 0 .1.1v.2c0 .1.1.2 0 .1q.1.1.1.2 0 .2-.1.5l1-.8c-4-1.3-8.1-1.9-12.2-2.8q.3.3.6.7c0-1.2.7-2.3 1.1-3.5.1-.4-.2-.9-.6-.9-1.8-.4-3.6-1.1-5.4-1.4-.5-.1-.9.1-1 .6-.1.3.1.9.5.9zm24.3 5.2c0 1.2-.1 2.3.1 3.5.1 1.3.5 2.4 1.3 3.5l-.2-.4c-.4 4.1 0 8.2 0 12.3 0 1 1.6 1 1.6 0 0-2.6-.2-5.2-.2-7.8q0-1.8.1-3.7.1-.4.1-.7c0-.4-.2-.7-.4-1.1q-.5-.7-.7-1.6c-.2-1.3-.1-2.7-.1-4 0-1-1.6-1-1.6 0zm-83.9 5.1c2.5 4.3 5.1 8.5 8.5 12 .2.2.5.3.8.2 1-.3 1.8-1.1 2.1-2.1.3-1 .1-2.1-.1-3-.7-2.2-2.3-4.2-4-5.6-2-1.7-4.4-2.8-7.1-2.9-2.5-.1-5 .9-6.6 2.9-1.6 1.9-2.4 4.5-2.1 6.9.3 2.2 1.7 4.4 4 4.8 2.4.5 4.4-1.1 5.5-3.1 1-1.6 1.1-3.5.6-5.3-.5-1.8-1.7-3.5-2.9-5-1.4-1.5-2.9-2.8-4.5-4.1-2.8-2.1-6-3.7-9.3-5-3.4-1.4-8.2-2.7-11.3 0-1.7 1.6-2.4 4-1.9 6.2.4 2.2 2.1 4.1 4.2 5 1.8.7 4 .9 5.9.1 1-.5 1.6-1.6 1.6-2.8-.1-1.3-.8-2.5-1.4-3.6-.9-1.4-1.9-2.6-2.9-3.8-1.6-1.8-3.2-3.5-5.1-5.1-1.3-1.1-2.8-2.1-4.3-3.1-1.9-1.1-3.9-2.2-6.1-2.8-2-.5-4.2-.5-6 .6-1.7 1.1-2.6 3-2.8 4.9-.3 2.1-.1 4.3.7 6.3.4.9.9 1.8 1.6 2.5.7.8 1.8 1.3 2.8 1.7 1.1.3 2.4.4 3.5-.3s1.6-2 1.6-3.3c-.1-1.3-.6-2.6-1.1-3.8q-.7-1.3-1.5-2.6c-1.2-1.9-2.7-3.7-4.5-5.2-1.7-1.5-3.8-2.7-6.1-3-1.9-.2-4 .5-5.4 1.8-1.1 1.1-1.7 2.6-1.7 4.2.1 3.1 2.5 6 5.7 6.1 1.6.1 3.4-.5 4.4-1.9.8-1.2.8-2.8.5-4.2-.4-1.7-1.3-3.2-2.3-4.5-1-1.3-2.2-2.4-3.7-3-1.3-.5-2.8-.5-4 .3-.3.2-.5.6-.4.9.5 2.2 3 3.5 5 4 .2.1.6 0 .7-.2.8-1 1-2.1.7-3.3-.3-1.1-1-2.1-1.7-3q-.9-1.2-1.9-2.3c-.3-.4-.7-.8-1-1.3-.3-.4-.6-.8-.7-1.3-.1-.6.2-1.3.4-1.9.3-.7.5-1.5.5-2.3 0-.5-.5-.8-1-.7-1.2.3-2 1.1-2.1 2.4-.1.4 0 .7.3 1l.6.6q.6.6 1.2 1.3c1.7 1.8 3.3 3.7 5.2 5.3 1 .9 2.2 1.6 3.5 2.1.2.1.6 0 .7-.2 1.4-1.3.3-3.4-.4-4.7-.5-1-1-1.9-1.6-2.8q-.3-.7-.7-1.4c-.3-.6-.4-.8-.6-1.3l-.2-.8q0-.2-.1-.4v-.9c0 .2 0 0 .1-.1q0-.2.1-.3l-1.2.4c1.9 1.1 3.7 2.1 5.4 3.4q1.2.8 2.3 1.9.6.5 1.1 1.1.1.2.3.4l.1.1c.1.1-.1-.1 0 0 1.7 2.2 3.1 4.6 5.1 6.6.8.9 2 2.1 3.4 2 .5-.1.9-.7.6-1.2q-1.9-3.6-4.5-6.8c-1.8-2.2-3.9-4.3-6.3-5.8-1.3-.8-2.6-1.5-4.1-1.8-.8-.3-1.3.7-.8 1.3 1.4 1.6 3.5 1.9 5.3 2.9.8.4 1.6-.6.9-1.3-1.8-1.9-4.2-3.4-6.9-3.3-2.6.1-5 1.6-7.2 2.9-2.1 1.4-4 2.9-5 5.2-.7 1.8-.9 3.8-1.1 5.7-.1 1.2-.1 2.3 0 3.5.1 1 .3 2 1.2 2.6.3.2.7.1.9-.1.7-.7 1.3-1.6 1.7-2.5q.8-1.7 1.2-3.6c.6-2.2.8-5-.5-7.1q-.5-.7-1.3-1.3c-.2-.1-.5-.3-.7-.4-.4-.1-.7.1-1 .3-.5.6-.8 1.4-1 2.1-.6 2.1-.7 4.4-.8 6.6 0 1.2.1 2.4.2 3.6.2.8.3 1.6 1 2.1.4.4 1 0 1.2-.4 1.4-3.6 3.1-7.3 3.2-11.2 0-.7-.9-1-1.4-.5-1.2 1.1-1.8 2.7-2.1 4.3-.3 1.7-.4 3.5-.3 5.3.3 3.9 1.5 7.7 3.3 11.3q1.5 3 3.6 5.7c1.3 1.7 2.7 3.5 4.4 4.8 3.2 2.5 7.4 3.1 10.8 5.2 1.4.8 2.8 1.7 4.3 2.4 1.4.6 3.1 1.1 4.6.3q.5-.2.9-.7c.3-.3.3-.8 0-1.1-.5-.5-1.2-1-1.8-1.5q-1.6-1.2-3.3-2.4-1.8-1.2-3.6-2.3c-1.1-.5-2.1-1.1-3.3-1.3-1-.3-2.2-.1-2.6 1-.1.5.2.9.6 1 5.3 1.7 10.9 3.8 16.6 3.4 1.5-.1 3.1-.4 4.6-.9.4-.2.6-.5.5-1-.4-1.6-1.9-2.8-3.2-3.7-1.6-1.1-3.4-1.9-5.2-2.6-1.4-.6-2.8-1.1-4.2-1.6-1.9-.8-3.9-1.3-5.8-2.1-2-.7-4.2-1.7-5.4-3.6q-.1.6-.3 1.1c3.7-2.8 8.5-1.4 12.7-1 1.2.1 2.4.1 3.7 0 .4-.1.8-.3.8-.8 0-.4-.4-.8-.8-.8-1.1.1-2.2.4-3.3.9q-2 .7-3.8 1.9c-1.1.7-2.2 1.5-3 2.6-.8.8-1.4 1.9-1.2 3.1.1 1 .6 1.8 1.6 2.2.9.3 1.8.3 2.8.3 2.6-.1 5.2-.6 7.8-1.2 1.4-.2 2.8-.5 4.2-.8q.5 0 .9-.1h.3q.2-.1.4-.1.6-.1 1.2 0c.4 0 .8-.4.8-.8 0-.5-.4-.8-.8-.8-.8-.1-1.7.1-2.5.2l-3.4.6-3.8.8q-1 .1-1.9.3c-.7.1-1 .1-1.7.2-1 .1-2 .2-3 .1-.1 0-.3-.1 0 0h-.2q-.1-.1-.2-.1-.2 0-.3-.1s-.3-.1-.1 0q-.1 0-.2-.1c-.1 0-.2-.2 0 0q-.1-.1-.2-.1c-.1-.1.1.1 0-.1 0 0-.1-.3-.1-.1q0-.2-.1-.3c0-.1 0-.2 0 0v-.6c0 .2.1-.1.1-.1q0-.2.1-.3s.1-.2 0-.1q0-.1.1-.1l.2-.4q.1-.1.2-.3l.1-.2.7-.7c.4-.4.8-.7 1.3-1.1 1.2-.8 2.5-1.5 3.8-2.1.5-.2 1.2-.5 1.8-.6l.8-.2q.2-.1.3-.1h.3v-1.6c-4.6.5-9.1-1.4-13.7-.4-1.2.3-2.4.8-3.5 1.6-.3.3-.5.7-.3 1.1 1.2 1.8 3 2.9 4.9 3.7 2 .9 4.1 1.5 6.1 2.2 1.4.5 2.8 1.1 4.1 1.6 1.8.7 3.4 1.4 5.1 2.3.8.5 1.6 1 2.3 1.6q.5.5.7.9.2.3.3.5l.1.1c-.1-.1 0 0 0 .1q0 .1.1.2.3-.4.5-.9c-5.1 1.9-10.9.4-15.9-1.1l-4.4-1.4.6 1c0-.2-.1.1 0-.1.1-.1-.1.2 0 0l-.1.1.1-.1c.1 0-.1.1-.1.1l.1-.1h.4c.2 0-.1 0 0 0q.2.1.3.1l.6.2q.2.1.4.1l.1.1c-.1-.1.1 0 .1 0l1.6.8c2.3 1.3 4.5 2.8 6.5 4.4-.1-.1 0 0 .1 0l.2.2q.1.1.3.2.3.2.5.5l.8.6v-1.1q-.6.6-1.4.6c-.7.1-1.3-.1-2-.4-1.4-.5-2.7-1.4-4-2.2-1.5-.9-3-1.6-4.6-2.2-1.9-.7-3.8-1.4-5.5-2.4-1.7-1.1-3.1-2.6-4.3-4.1-1.4-1.7-2.5-3.4-3.5-5.3-1.1-1.8-1.9-3.7-2.6-5.7q-.5-1.4-.8-2.9-.3-1.1-.4-2.1c-.2-1.8-.2-3.6 0-5.4.2-1.6.7-3.3 1.8-4.3q-.7-.3-1.3-.6c0 1.9-.5 3.7-1.1 5.5-.6 1.8-1.3 3.5-2.1 5.2l1.2-.4c.2.1.1 0 0 0 .2.2.1.1.1 0q-.1-.1-.1-.2c.1.3 0 0 0 0q-.2-.5-.2-1.1c-.1-.2 0 .2 0 0q-.1 0-.1-.1v-.3q0-.4-.1-.8v-1.6q0-1.7.2-3.4c.1-1 .2-1.9.5-2.9q.1-.4.2-.7.1-.2.1-.3c0-.1.1-.1 0 0l.1-.1.2-.4c-.1.2 0 0 0-.1.1 0-.1.1 0 .1h-.7q.3.1.5.3c-.1-.1.1.1.2.1q.1.1.2.3c.2.1.2.1.3.4q.2.3.3.6c0-.1.1.1.1.2q.1.1.1.3.1.3.2.7v1.3c0 2-.5 4.1-1.3 5.8l-.8 1.4-.2.2c0 .1-.1.3-.1.3 0-.1-.1.1-.2.1q-.1.1-.2.3l1-.2c.2.2 0 0 0 0-.1-.1 0 .1-.1-.1l-.1-.1c0-.2.1.1 0-.1q-.1-.3-.1-.5-.1-.2-.1-.3v-.2c-.1-.9-.1-1.9 0-2.8q0-.8.1-1.5c0-.4.1-.7.1-1.1.1-.8.3-1.6.5-2.4.6-2 2-3.4 3.7-4.5 2-1.4 4.2-2.8 6.5-3.2 1.1-.2 2.2-.1 3.2.3 1.3.5 2.4 1.4 3.4 2.4l1-1.2c-1.6-.9-3.7-1.2-5-2.6q-.3.6-.7 1.3c2.5.6 4.6 2.1 6.5 3.8 2 1.9 3.7 4 5.3 6.3q1.2 1.7 2.2 3.6.3-.6.7-1.2h-.3c.2 0-.1 0-.2-.1h-.1c.2.1 0 0-.1 0q-.1-.1-.3-.2c-.3-.2-.3-.3-.6-.4q-.3-.4-.7-.7c-1-1-1.8-2.2-2.7-3.3-.7-1-1.4-2.1-2.1-3.1-1.1-1.4-2.5-2.6-3.9-3.7-1.9-1.4-3.9-2.6-5.9-3.7-.5-.3-.9 0-1.1.4-.8 1.8.3 3.9 1.1 5.5.5 1 1 1.9 1.5 2.8q.4.7.7 1.3.2.3.3.6c0 .1.1.2 0 .1q.1 0 .1.1 0 .2.1.3l.2.6v.5c0 .1 0-.1 0 0q0 .1-.1.2c.1-.2 0-.1 0 0-.1.2.1-.1 0 0q0 .1-.1.1l.8-.2c-2.1-.8-3.7-2.4-5.2-4-1.6-1.7-3.1-3.5-4.7-5.1l.2.6c.1-.7.4-1 1-1.2l-1-.8c0 1.3-.7 2.4-.9 3.6-.1 1.3.6 2.3 1.3 3.3 1.3 1.5 2.8 3 3.7 4.7.2.5.5 1 .5 1.4 0 .5-.1.9-.4 1.3l.8-.2c-1.5-.4-3.5-1.3-3.9-2.9q-.1.5-.3.9l.4-.2s.2-.1 0-.1h.3q.2-.1.4-.1c.1-.1-.2 0 0-.1h.3q.2 0 .4.1c.1 0-.2-.1 0 0h.3q.2.1.4.1.1.1.2.1c.1 0 0 0 0 0l.1.1q.5.2.9.4l.2.2s.2.1.1.1l.1.1q.2.1.3.2.4.3.8.8l.3.3q.1.2.2.3s.1.1 0 0l.1.1q.7.9 1.2 1.9c.2.4.2.5.3.9q.2.5.3 1 .1.2.1.5s.1.2.1.1v1.2q0 .1-.1.2 0 .2-.1.5s-.1.2 0 .1c0-.1-.1.1-.1.1q-.1.2-.2.3c-.1.1.1-.1 0 0v.1q-.1.1-.2.1-.1.1-.1.2c-.2.1 0-.1-.1 0q-.2.2-.4.3l-.4.2q-.5.1-1.1.2h-.1q-.2.1-.3.1-.2 0-.5-.1h-.1s.1.1 0 0h-.2q-.3-.1-.5-.1-.1-.1-.2-.1c-.2-.1 0 0-.1 0q-.2-.2-.5-.3c-.4-.3-.9-.7-1.2-1.1 0 .1-.1-.1-.1-.1q-.1-.1-.1-.2-.2-.2-.3-.4l-.2-.4c0-.1 0 0 0 0v-.1q-.1-.1-.1-.3-.2-.4-.3-.9v-.1s0 .1 0 0V158c0-.1 0 .2 0 0q.1-.2.1-.3 0-.2.1-.5.1-.1.1-.2c.1-.1 0 .1 0-.1.4-.6.6-.9 1.2-1.4.1-.1 0-.1 0 0l.1-.1.2-.2q.3-.1.6-.3c.3-.1.6-.3 1.1-.4q1.2-.3 2.5 0c1.9.4 3.6 1.6 5.1 2.9 1.5 1.4 2.8 3 3.9 4.7q.7 1.2 1.3 2.4c.4 1 .8 2.1.8 3.2 0 .9-.6 1.7-1.4 1.9-.8.2-1.8-.2-2.6-.6-1.6-.8-2.3-2.2-2.8-3.8-.5-1.8-.6-3.7-.1-5.4.4-1.5 1.3-2.8 2.8-3.3.8-.3 1.6-.3 2.5-.2.9.1 1.8.4 2.7.7 1.9.6 3.7 1.7 5.3 2.8 2 1.3 3.5 2.5 5.2 4.2q1.5 1.4 2.8 2.9.7.8 1.4 1.7l.1.1.1.2q.2.2.4.5.3.4.5.8.6.8 1 1.6 0 .1.1.2v.1c.1.1 0-.1 0 0l.2.4q.1.3.1.7c.1.1.1.2.1.1-.1-.1 0 0 0 .1v.4q-.1.2-.1.3c0 .2 0 .1 0 0q0 .1-.1.2v.1c-.1.1.1-.1 0 0l-.2.2c-.2.1.1-.1 0 0q-.1 0-.2.1-.2.1-.3.2c-.1 0 .1-.1.1-.1q-.1 0-.1.1h-.3q-.2.1-.4.1-.1.1-.2.1h-.2c-1 .1-2 0-3-.3-1.7-.7-3.1-2.2-3.6-3.9-.4-1.8.2-3.7 1.5-4.9q.8-.6 1.9-.9.3-.1.6-.1c.1 0 0 0 0 0h.2q.1-.1.3-.1.6 0 1.3.1c1.7.1 3.6.7 5.3 1.3 1.5.6 3.1 1.3 4.6 2.1 2.9 1.5 5.5 3.5 7.8 5.8 1.2 1.3 2.3 2.6 3 4.2q.2.4.4 1 0 .3.1.6 0 .1.1.3v.1c0 .2 0-.1 0 0v1.3q0 .1-.1.3 0 .3-.1.5c-.2.7-.7 1.5-1.2 2-.6.7-1.4 1.3-2.2 1.4-.8.1-1.5-.1-2.1-.6-.7-.6-1.2-1.4-1.4-2.3-.5-2 .1-4.2 1.3-5.9 1.2-1.7 3.1-2.7 5.3-2.7 2.2-.1 4.3.8 6.1 2.1.9.7 1.7 1.6 2.4 2.5q.5.6.9 1.3c.2.4.3.7.4 1q.2.6.3 1.3c.1.1.1.2.1.4v.3c0 .1-.1.3 0 .2-.1.7-.5 1.2-1.1 1.4q.3.1.7.2c-3.3-3.5-5.8-7.6-8.2-11.7-.5-.9-1.9-.1-1.4.8z"/><path class="c" d="M104.6 151.7c-.4 0-.6-.3-.8-.5-.3-.3-.8-.3-1.1-.1-.3.3-.4.7-.2 1 1.5 2.8 3.9 5 6.1 7.2 2 1.9 3.7 4.1 5.8 5.9 1.1 1 2.5 2 4 2.2.8.2 1.2-.7.8-1.3-1.3-1.6-3.1-2.5-4.7-3.5l-6.2-3.8c-4-2.4-7.9-4.9-12.1-7-2.3-1.2-4.7-2.3-7.1-3.1-.4-.1-.8.1-.9.5-.2.4 0 .7.3 1 2.7 1.8 5.4 3.6 8 5.6 1.2.8 2.3 1.6 3.5 2.4 1 .6 2.2 1.2 3.2 1.9 1.1.7 2.2 1.5 3 2.6q-.1-.3-.1-.6c-.1.2.1-.1 0 .1q-.1.1-.1.2l-.2.2-.1.1q0 .1-.1.1l-.3.3-.1.1q-.1 0-.1.1l-.4.2c-.3.1-.6.3-.8.4-1.2.5-2.6.8-4 1.1-1.2.2-2.5.4-3.8.6-1.5.3-3.1 1-4.5 1.7-1.8 1-3.4 2.2-5.3 3.2h.8c-.9-.7-.8-1.7-.7-2.6.1-1.2.2-2.4-.2-3.5-.3-.6-1.1-.4-1.4 0-.7 1-1.8 2.1-2.5 3.3-.7 1.2-1.2 2.7-.6 4.1.1.2.4.3.7.3.9.1 1.8-.1 2.7-.4.8-.2 1.6-.5 2.4-.3q-.2-.6-.5-1.2-.9 1.7-1.8 3.3c-.2.4-.1.7.1 1 1.5 1.8 3.8 2 6 1.6 2.5-.5 4.8-1.5 7.2-2.4 1.2-.5 2.5-.9 3.8-1.3 1.1-.2 2.1-.4 3.3-.3h.4c-.2 0 0 0 0 0q.1 0 .2.1.4 0 .8.2h.1c-.1 0 .1.1.1.1q.2.1.3.1.5.3.9.7c1.1 1.1 1.2 2.5 1.4 4q.1 2.4.6 4.7c.1.8.3 1.6.6 2.4.3.7.7 1.4 1.4 1.7.3.2.6.1.9-.1 1.6-1.3 2.6-3.5 3.3-5.4.9-1.9 1.5-4 1.9-6.1.1-.4-.1-.8-.4-1-.4-.1-.9 0-1 .4-.7 1.3-1.5 2.5-2.3 3.8q-.7 1.1-1.2 2.3c-.4.7-.7 1.4-.8 2.2-.1.3-.1.7 0 1.1.1.5.4.8.9.9 1 .3 2.1.4 3.1.3 2.1-.1 4.1-.8 5.8-2 1.9-1.4 3.4-3.3 4.1-5.6q-.8-.1-1.5-.2c-.1 2.1-.7 4.4.2 6.5.8 1.9 2.6 2.9 4.5 3.6 1.8.6 3.8 1.1 5.7 1.2 1.7.1 3.7-.1 4.7-1.5.9-1.3.9-2.9.4-4.4-.5-1.7-1.5-3.3-2.5-4.7-2-2.8-4.3-5.3-6.8-7.5-2.2-2-4.6-3.6-6.9-5.3-1.2-.8-2.3-1.6-3.3-2.6-.9-.9-1.8-2-2.8-2.8q-.7-.7-1.6-1.2c-.5-.3-1.3 0-1.2.7.4 3.1 3 5.3 5.4 7 2.7 1.8 5.6 3.2 8.5 4.7 1.4.7 2.8 1.5 4.3 2.2 1.9 1 3.8 1.8 5.5 2.9 1.7 1 3.5 2.3 4.4 4 .9 1.8.2 3.8-1.1 5.2-1.4 1.5-3.3 2.6-4.7 4.1-.7.8-1.3 1.7-1.5 2.7-.3.9-.2 1.9-.4 2.8-.1.4-.2.7-.5.9h1.1c-2.4-2.6-4.8-5.5-7.9-7.4-1.5-1-3.3-1.6-5-2.2-1.8-.7-3.6-1.4-5.4-1.9-2-.7-4.2-1.3-6.3-1.3-1 0-1 1.5 0 1.6q1 .1 2 0c1 0 1-1.6 0-1.5q-1 0-2-.1v1.6c1.8 0 3.6.4 5.3 1 1.8.5 3.5 1.2 5.3 1.9 1.7.6 3.3 1.1 4.8 1.9 1.5.9 2.8 2 4 3.2 1.4 1.4 2.7 2.9 4.1 4.4.3.3.8.3 1.1 0 .7-.8.9-1.7 1-2.7.2-.9.1-1.9.6-2.6 1-1.9 2.9-2.9 4.5-4.3s3-3.3 3-5.5c0-2.3-1.5-4.1-3.1-5.4-3.2-2.6-7.2-4-10.8-6.1-2.7-1.5-5.5-2.7-8.2-4.3-1.4-.8-2.7-1.7-3.9-2.8-.5-.5-1.1-1.1-1.4-1.6q-.3-.4-.6-.9c-.2-.3-.2-.4-.3-.7q-.1-.3-.1-.5-.1-.1-.1-.2v-.1s0 .1 0 0l-1.2.6c1.1.7 1.9 1.5 2.7 2.4.9.9 1.8 1.8 2.8 2.6 2.2 1.8 4.6 3.3 6.8 5.1 2.6 2.1 5.1 4.5 7.2 7.1 1.1 1.3 2.2 2.8 3 4.4q.1.2.3.5 0 .1.1.3l.1.1q.2.6.3 1.1.1.2.1.5v.4q.1.2.1.4-.1.1-.1.3c0 .1.1-.1 0 .1q0 .2-.1.4 0 .1-.1.2c.1-.2 0 .1 0 .1l-.2.4c-.1.1 0-.1 0-.1l-.1.1-.2.2c.1-.1 0 0 0 0q-.1.1-.2.1c-.1.1-.3.2-.1.1q-.2.1-.3.1-.2.1-.5.1-.1.1-.3.1h.1-.2c-1.9.2-3.6-.2-5.3-.7q-.7-.1-1.3-.3-.3-.1-.6-.3-.1 0-.2-.1c-.1 0-.3-.1-.2 0-.7-.3-1.5-.7-2-1.3-1.4-1.4-1.1-3.6-1-5.4q.1-.8.1-1.6c.1-1-1.3-1.1-1.5-.3-1.1 3.6-4.4 6.2-8.1 6.5q-1.6.1-3.2-.3.2.2.5.4-.1-.1 0 .1 0-.1-.1-.1c.1 0 0-.3 0-.1v-.4c0 .2.1-.1.1-.1v-.3l.2-.6c.3-.7.8-1.6 1.2-2.4.9-1.5 1.9-2.9 2.6-4.4l-1.4-.6c-.4 2-1 4-1.8 5.9q-.6 1.5-1.4 2.9c-.4.7-.9 1.4-1.6 2q.5-.1 1-.1-.1-.1-.2-.1c.2.1 0 0 0-.1q-.1 0-.2-.1c.1 0 .1.1 0 0-.1-.3-.3-.6-.4-.8-.2-.6-.4-1.4-.5-2.1-.2-1.3-.4-2.6-.5-3.9-.2-1.6-.2-3.3-1.1-4.6-.8-1.2-2.1-2.1-3.5-2.4-2.4-.6-4.9.1-7.2.9-2.5.8-4.9 1.9-7.4 2.6-1.2.4-2.1.6-3.4.5h-.1q-.1 0-.2-.1h-.4l-.4-.2h.1q-.1 0-.3-.1-.1-.1-.3-.2l-.1-.1c-.1 0 .1.1-.1 0l-.6-.6q.1.4.1.9 1-1.6 1.9-3.3c.2-.4 0-1.1-.5-1.2-1-.2-1.9 0-2.8.3-.9.2-1.8.5-2.7.5q.3.2.7.4c-.1-.2-.1-.4-.1-.6 0-.3 0-.4.1-.7.2-.6.5-1.1.8-1.6.7-1 1.5-1.9 2.3-2.9h-1.4c.4.9 0 2.2 0 3.3-.1 1.3.4 2.5 1.5 3.3.3.2.6.1.8 0 2.9-1.5 5.4-3.6 8.6-4.4 2.1-.6 4.4-.8 6.6-1.3 1.1-.3 2.3-.7 3.3-1.3.5-.3.9-.6 1.3-1 .3-.4.9-1.1.7-1.7-.1-.4-.5-.7-.7-1l-.8-.8q-.9-.8-1.9-1.4c-1.3-.9-2.7-1.6-4.1-2.5-.8-.5-1.6-1.1-2.3-1.7q-1.4-1-2.9-2-2.8-2-5.6-3.9l-.6 1.4c4.2 1.5 8.2 3.6 12 5.9 4.1 2.4 8 4.9 12 7.3 1.9 1.1 4 2.1 5.3 3.8q.4-.6.8-1.3c-1.2-.2-2.2-.9-3.1-1.6-1.1-.9-2-1.9-3-3l-2.6-2.8c-1.1-1-2.2-2.1-3.2-3.2-1.2-1.2-2.2-2.5-3-4q-.6.5-1.3 1c.5.6 1.2.9 2 1 .4 0 .8-.4.8-.8 0-.5-.4-.7-.8-.8z"/><path class="c" d="M116.8 166.7c0 4.8-1 9.7.2 14.4.1.2.3.5.5.5 1.5.2 2.8-.7 3.8-1.7 1.1-1.2 2-2.7 2.5-4.3.3-1.3.4-3-.7-4.1-1.5-1.4-3.9-1.1-5.7-.4-2.2.7-4.5 2.2-6.9 1.9-.4-.1-.8.4-.8.8 0 .5.4.7.8.8 2 .2 4-.7 5.9-1.4.9-.4 1.8-.8 2.8-1 .7-.2 1.6-.2 2.3.1-.1 0 .1.1.1.1q.1 0 .2.1l.1.1s-.1-.1 0-.1q0 .1.1.2l.1.1c-.1-.1 0 .1.1.1q0 .1.1.1v.1q0 .2.1.4v1.1q-.1.5-.3 1c-.1.4-.2.5-.3.9q-.3.4-.6.9-.1.2-.3.4 0 .2-.1.3l-.1.1q-.4.5-.8.9-.2.2-.4.3l-.1.1q.1-.1 0 0l-.2.2q-.2.1-.5.2c-.2.1.1 0 0 0q-.1.1-.2.1t-.2.1h-.3q.2.3.5.6c-.5-2.3-.5-4.7-.5-7 .1-2.3.4-4.7.4-7 0-1-1.6-1-1.6 0zm-40-26.6c-.7-.5-1.3-1.2-2-1.7-.7-.7-1.4-1.2-2.4-1.4q-1.6-.3-2.8.8c-.6.6-1.2 1.3-1.9 1.8q.6.2 1.2.5c-.4-.9-.3-1.7-.2-2.6 0-.9 0-1.9-.3-2.8-.2-.6-1.1-.8-1.4-.2-.7 1.4-.9 2.8-1.3 4.2-.3 1.5-1 2.7-1.8 3.9-.8 1.3-1.6 2.5-1.8 4-.2 1.3 0 2.6.4 3.9.4 1.4.9 2.8 1.1 4.3 0 .5.3.8.8.8.3 0 .8-.3.7-.8-.1-1.3-.5-2.6-.9-3.9-.3-1.2-.7-2.4-.6-3.6.1-1.3.8-2.5 1.5-3.6.7-1.2 1.5-2.4 2-3.8.4-1.5.5-3.2 1.3-4.6q-.8-.1-1.5-.2c.6 1.8-.2 3.7.4 5.4.2.4.7.8 1.2.5.7-.5 1.3-1.2 2-1.8.2-.3.4-.4.7-.6-.1.1.2 0 .2-.1h.7q.2.1.4.1c.1.1-.1 0 0 0q.3.2.5.3.4.3.9.7c.6.6 1.1 1.1 1.7 1.6.4.3.8.3 1.2 0 .2-.3.3-.8 0-1.1zM92.5 184c.8.3 1.5 1 2.1 1.5.7.7 1.4 1.3 2.3 1.8 1.9 1.2 4.1 1.3 6.3 1.6 1.1.2 2.2.4 3.2.8.8.3 1.5.7 2.2 1.1 1.6.8 3.3 1.7 5 2.5 1.8.8 3.8 1.5 5.8 1.3.5 0 .9-.5.8-1-.3-1-1-1.8-1.8-2.5-1-.9-2.1-1.7-3.3-2.5-2.5-1.6-5.2-2.9-8-4-1.1-.4-2.2-.8-3.4-1q-.1.8-.2 1.5c6.3.2 12.5 1.2 18.8 1.3 1 0 1-1.6 0-1.6-6.3-.1-12.5-1.1-18.8-1.2-.9-.1-1.1 1.4-.2 1.5.9.2 1.9.5 2.8.8 1.3.5 2.4 1 3.7 1.6q2 1 3.9 2.1c1.1.7 2.2 1.4 3.1 2.2q.7.6 1.3 1.3c.2.1-.1-.1.1 0q0 .1.1.2t.2.3q.1.1.1.3c-.1-.3 0 .1.1.1q.3-.5.7-1c-1.7.2-3.3-.4-4.9-1-1.6-.7-3.2-1.6-4.8-2.4q-1.1-.6-2.3-1.1-1.5-.7-3.1-1c-2.1-.3-4.3-.3-6.2-1.3-.9-.5-1.7-1.2-2.4-1.9-.9-.7-1.7-1.4-2.8-1.8-.3-.2-.8.2-.9.5-.1.5.1.8.5 1z"/><path class="c" d="M64.2 151.7c.4.4.5 1.1.6 1.6.1.7.2 1.4.4 2l.9 2.1q.5 1.2 1 2.3c.6 1.4 1.2 2.8 2.1 4.1.8 1.2 1.7 2.5 2.9 3.4.6.5 1.3.8 1.9 1.3.6.5 1.2 1.1 2 1.3.4.1.9-.2 1-.6.2-.9.2-1.9.1-2.8v-2.9c-.1-1.9-.9-3.8-1.4-5.7-.6-1.9-1-3.8-.8-5.8.1-.9.3-1.8.5-2.7.1-.8.2-1.5.4-2.2.1-.3.2-.6.3-.8.1-.3.3-.4.5-.6 0 .1.1.1 0 0 0 0-.3 0-.3-.1 0 0 .2.2.2.3q.5.5.8 1.1c1.1 1.6 1.9 3.3 2.8 5l3 5.1q1.5 2.7 2.9 5.4c1.8 3.6 3.6 7.1 5.5 10.7.8 1.6 1.8 3.2 2.9 4.7q.4.6.9 1.1.1.1.2.3l.1.1.2.2c.4.5.8 1.1 1.5 1.3.7.3 1.4-.2 1.7-.8.3-.7.3-1.5.2-2.3-.1-.9-.1-1.7-.3-2.6-.2-1-.5-1.9-.8-2.8-1.2-3.8-2.1-7.7-3.4-11.5q-1-2.8-2.2-5.4c-.7-1.5-1.4-2.9-2.3-4.1-1-1.3-2.1-2.5-3.6-3.1-.8-.4-1.6-.8-2.3-1.4q-.5-.4-.9-.8l-.2-.2c-.1-.1.1.1 0 0q-.2-.2-.3-.4c-.4-.6-.7-1.2-1.2-1.7-.5-.4-1.5-.9-2.1-.3-.8.8-.8 2.3-.6 3.4.1 1.3.4 2.5.7 3.8.4 1.6.7 3.2 1.1 4.8 1 3.8 2.5 7.4 4.2 10.9q1.2 2.4 2.3 4.9c.8 1.6 1.6 3.3 2.5 4.8.9 1.5 2 3 3.2 4.3q.9 1 1.9 1.8.5.4 1.1.7c.5.3.9.2 1.3-.1 1.1-.7 1.1-2.3.9-3.5-.2-1-.6-2.1-.8-3.1-.4-1.8-.8-3.5-1.6-5.2q-.6-1.2-1.6-2.2c-.6-.7-1.3-1.2-1.9-1.9-.5-.6-1-1.3-1.6-1.9-.7-.6-1.4-1.1-2.1-1.6-1.5-1-3.4-2.2-5.1-1.1-1.4.8-2.3 2.4-2.7 3.9-.5 1.5-.6 3.2-.2 4.8.4 1.6 1.2 3.1 2.2 4.4 1.1 1.4 2.4 2.6 3.8 3.6.6.5 1.4.9 2.1 1.3.7.4 1.4.8 2.3.8.3 0 .7-.3.7-.6.2-.9-.2-1.8-.7-2.6q-.4-.5-.9-1.1-.1-.2-.3-.4l-.2-.2s-.1-.2-.1-.1c.1.1 0-.1 0-.1q-.1-.1-.2-.3-.2-.1-.3-.3-.3-.5-.7-.9-.6-.9-1.3-1.7c-.8-1-1.6-2-2.5-2.9q-1.3-1.4-2.7-2.5-.7-.6-1.5-1.2-.4-.2-.7-.5s-.2-.1-.1 0l-.2-.2c-.7-.6-1.4-1.2-2.2-1.4-1-.2-1.9.4-2.1 1.3-.2 1 0 2.1.5 2.9.3.4.7.8 1.1.9.3.1.7.2 1 0 .3-.2.5-.6.7-.9.5-.9-.8-1.7-1.4-.8q-.2.3-.4.7.3-.2.7-.4c.1 0 0 0-.1-.1.2.2 0 0 0 0 .1.2-.2-.2-.1-.1-.2-.3-.3-.5-.4-.8-.1-.4-.1-.5-.1-.8 0 0 .1-.3 0-.2 0 .2.1-.1.1-.1 0-.2-.1.2 0 0q.1-.1 0 0 .1-.1 0-.1.1 0 0 0h.1-.1c-.1 0 .2.1.3.1-.2-.1.1.1.1.1q.1 0 .2.1.2.1.5.3c.5.4 1.1.9 1.7 1.3 3.5 2.5 6.1 5.8 8.6 9.2.5.5 1 1.1 1.4 1.7q.4.5.7 1.1 0 .1.1.3v.3q0-.2 0 0l.8-.6c-.7 0-1.4-.5-1.9-.8-.7-.4-1.5-.8-2.1-1.3-1.2-1-2.4-2.2-3.3-3.5-.8-1.2-1.6-2.7-1.7-4.1-.2-1.5.1-3 .7-4.3.4-.7.8-1.3 1.4-1.7.5-.5 1-.5 1.7-.2.9.3 1.6.9 2.4 1.4.6.5 1.2.9 1.8 1.5.5.7 1 1.4 1.6 2 .6.6 1.3 1.1 1.8 1.8 1.2 1.3 1.7 3 2.1 4.6.2.8.3 1.6.5 2.4.2.5.3 1.1.5 1.7.1.6.2 1.1.2 1.8v.3c-.1 0-.2.3-.1.2q0 .1-.1.2c.1-.1 0 0-.1 0-.1.1 0 0 .1 0q-.2.1-.3.1h.8c-1.3-.6-2.3-1.6-3.2-2.6-1-1.1-1.8-2.3-2.5-3.5-1.5-2.5-2.7-5.2-4-7.9-1.4-2.9-2.7-5.8-3.8-8.8q-.8-2.2-1.4-4.5c-.3-1.3-.5-2.7-.8-4-.3-1.1-.6-2.2-.7-3.3-.1-.5-.1-1.1-.1-1.6v-.2q.1-.2.1-.3v-.2c0 .2.1 0 .1 0v-.1c0 .1 0 0 .1 0l-.6.2c.2 0-.1-.1.1 0 .1 0 .1 0 0 0 .2 0 .2.1.3.1.2.3.4.5.5.8.4.5.7 1 1.1 1.5.7.7 1.5 1.3 2.3 1.7.7.5 1.5.7 2.2 1.2 1.2.8 2.2 2 2.9 3.3.9 1.4 1.5 2.9 2.2 4.4 1.6 3.6 2.6 7.5 3.7 11.4.5 1.9 1.2 3.8 1.7 5.7.2.9.3 1.7.4 2.6q.1.5.1 1c0 .3 0 .7-.1.8 0 0-.1.3-.1.2.1-.1.2 0 0 0q.1 0 .2-.1c.1 0 0 0 .1.1l-.1-.1-.1-.1-.4-.4c-.3-.4-.8-1-1.2-1.5-1.2-1.4-2.1-3-3-4.7-1.8-3.5-3.6-7-5.4-10.6q-1.4-2.7-2.9-5.4c-1-1.8-2.1-3.5-3.1-5.2-.9-1.7-1.7-3.4-2.7-5q-.4-.5-.8-1.1c-.2-.3-.4-.7-.7-.9-.7-.6-1.5-.3-2.1.3-1.1 1-1.1 2.7-1.4 4-.5 2.1-.8 4-.5 6.1.2 1.9.9 3.7 1.5 5.6.2.9.5 1.8.6 2.7.1 1 0 2 0 3 .1.9.2 1.8 0 2.6q.5-.3.9-.6c-.5-.1-.9-.6-1.4-.9-.5-.5-1.2-.8-1.8-1.2-.5-.3-1-.9-1.4-1.4q-.7-.8-1.3-1.7-1.2-1.9-2-3.9-.4-1.1-.9-2.2c-.3-.7-.7-1.4-.9-2.2-.2-.6-.3-1.3-.4-2-.2-.8-.4-1.5-.9-2.2-.3-.3-.9-.2-1.2 0-.3.4-.2.8 0 1.2z"/><path class="c" d="M69.1 142.6c-2.9 3.2-4.6 7.2-5.7 11.3-.3.9.9 1.3 1.4.6 1.7-2.7 3.4-5.4 4.5-8.4.4-1.1.7-2.2 1-3.3.3-1 .6-2 .6-3s-.5-1.9-1.6-1.7c-.9.1-1.5.9-2 1.6-1 1.4-1.8 3.1-2.3 4.8-.6 1.8-.9 3.6-1.1 5.5-.3 1.8-.5 3.8-.3 5.7.1.3.3.5.6.5 1.1.4 2.1-.9 2.7-1.7.6-.8 1.2-1.7 1.7-2.6 2-3.3 2.8-7.2 3.3-11 .2-1.1.3-2.2.5-3.3.2-.9.5-1.9 0-2.8-.2-.5-1-.4-1.3 0-.6 1-.2 2.4.1 3.5q.6 1.8 1.4 3.7c1.4 3.4 3.3 6.6 5.2 9.7q1.4 2.3 2.9 4.6c.4.6.8 1.2 1.4 1.5.5.3 1.3.4 1.9 0 .8-.5 1.2-1.6 1.4-2.5.3-1.1.4-2.2.4-3.4.1-1.1-.1-2.3-.3-3.5-.4-1.5-.9-3.2-2.1-4.3-.6-.5-1.5 0-1.3.8.5 2.6 2.1 4.9 3.5 7.1 1.6 2.4 3.1 4.7 4.8 7 3.4 4.6 7.4 8.8 11.5 12.8 2.3 2.2 4.8 4.3 7.4 6.2v-1.4q-.5.3-1 .1-.3-.2-.5-.4c-.1-.1-.3-.2-.4-.3-.2-.1-.4-.1-.6-.2q-1.8-.6-3.6-1c-2.5-.6-4.9-1.1-7.5-1.1q-1.9 0-3.8.3c-1 .1-1.9.3-2.6.9-.7.4-1.2 1-1.4 1.8-.2.9 0 1.8.4 2.6s.9 1.7 1.5 2.4c.7.7 1.5 1.1 2.4 1.1 1 .1 2.1-.2 2.9-.8.9-.7 1.3-1.6 1.7-2.6 1.5-4.1.3-8.5-1.9-12.1-1.1-1.8-2.4-3.6-3.8-5.2s-2.8-3.1-4.5-4.5Q84 155.5 81 154c-2-1-4-2.1-6.3-2-1.9.1-3.8.6-5.4 1.6-1.3.8-3.1 2.2-2.5 4 .4 1.5 2.3 1.5 3.6 1.5 1.9-.1 3.9.1 5.8.3 1.7.1 3.4.2 5.1.4q1.6.2 3.3.4c1.3.1 2.6.3 4 .3.9 0 2.1.1 3-.3.4-.1.9-.4 1-.9 0-.3-.1-.7-.4-.9-1.5-.9-3.2-1.3-5-1.5-1.7-.2-3.4-.2-5.1.2-1.1.2-2.6.7-3.2 1.8-.9 1.4.4 2.6 1.6 3.1 1.3.6 2.8.7 4.2.8q2.2.2 4.3.3c4.6.3 9.2.3 13.8.3h7.7q1.5 0 3 .1c1 0 2-.1 2.7-.7.2-.2.3-.5.2-.8-.6-1.7-2.7-2.3-4.2-2.7-2-.4-3.9-.5-5.9.1l-1.8.6c-.6.1-1.2.4-1.7.8-.4.4-.3 1 .1 1.3 1.5 1 3.5 1 5.3 1q1.1-.1 2.3-.2c.8-.1 1.6-.2 2.3-.6 1.3-1 1.2-2.9.6-4.2-.6-1.4-1.8-2.4-2.9-3.3-2.7-2-5.9-3-9.1-3.6-3-.6-5.9-.9-8.9-.3-1.1.2-2.4.5-3.2 1.4-1 1-.6 2.6.4 3.5 1 1 2.5 1.4 3.9 1.6 2 .3 4.1.5 6.1.6q1.7.1 3.5.1c.8 0 1.7 0 2.5-.1.8-.2 1.5-.7 1.6-1.4.2-.7-.1-1.3-.5-1.9-.7-1.1-1.8-2.1-2.8-3-.6-.5-1-1-1.6-1.5q-1.1-1.1-2.4-2c-1.7-1.3-3.4-2.4-5.1-3.7-.8-.6-1.6-1.2-2.5-1.7-.9-.4-1.9-.7-2.9-.9-.9-.1-1.8-.2-2.8-.4-1-.2-2.1-.3-3.2-.5-1.1-.1-2.1-.6-3.1-1.1q-1.2-.5-2.5-1.2c-.8-.4-1.6-.8-2.5-.8-.4.1-.7.3-.8.6-.3 1.6.9 3.2 1.8 4.4 1 1.3 2.1 2.5 3.2 3.6 3.6 3.7 8.1 6.5 12.8 8.8 5.2 2.5 10.6 4.5 16 6.9 2.7 1.2 5.3 2.5 7.9 4 2.5 1.5 5 3.1 7.4 4.7 2.5 1.7 4.9 3.4 7.4 5.1q1.8 1.3 3.7 2.5c1.1.8 2.3 1.5 3.4 2.3q.8.6 1.5 1.3c.7.8 1.8-.3 1.1-1.1-1-1-2.1-1.8-3.3-2.5q-1.7-1.2-3.5-2.4c-2.4-1.7-4.8-3.3-7.2-5-4.8-3.3-9.7-6.5-15-9.1-5.2-2.5-10.7-4.4-16-6.8-4.9-2.3-9.7-4.8-13.7-8.4q-1.7-1.6-3.2-3.4c-.6-.6-1.2-1.3-1.7-2q-.3-.5-.6-1.1-.1-.2-.3-.5v-.1q-.1-.1-.1-.2 0-.2-.1-.3v-.3s0 .2 0 0q-.4.3-.7.6c.6 0 1.4.4 2 .7l2.4 1.2c1 .4 1.9.9 3 1.1.9.2 1.9.2 2.9.4 1.8.3 3.6.5 5.2 1 .9.3 1.6.8 2.3 1.3q1.1.9 2.3 1.7c1.6 1.1 3.2 2.2 4.6 3.4 1.2.9 2.1 2 3.2 3 .9.8 1.9 1.6 2.4 2.6.1.2 0-.1 0 .1l.1.1c0 .1 0 .2 0 0v.1c-.1.2 0-.1 0 0s-.1.2 0 0c-.1.2.1 0 0 .1 0-.1-.2 0-.2.1-.1 0-.4.1-.6.1h-1c-2.2.1-4.4 0-6.5-.2q-1.5-.2-3-.3c.2 0-.2-.1-.2-.1q-.2 0-.4-.1-.5 0-1-.2c-.6-.1-1.1-.3-1.6-.6s-.8-.6-.9-1q-.1-.1-.1-.2v-.2s-.1.1 0 0v-.1s0 .1 0 0q.1 0 .1-.1c.1-.1-.1.1 0 0 .2-.2.6-.5.9-.6q.8-.3 1.6-.4c.6-.1.9-.2 1.6-.2 1-.1 2-.1 3.1 0q3 .3 6 1.1c1.3.4 2.4.8 3.6 1.4 1.2.6 2.3 1.3 3.3 2.2.5.4.9.8 1.2 1.4.1.2.3.5.3.6l.2.4v.3q0-.1 0 0v.7c0 .3-.1.5-.3.7.1-.1 0 0 0 0q-.2.1-.3.1h-.1q-.1.1-.2.1c-.4.1-.6.1-1 .2-1.5.1-3 .2-4.5 0-.7-.1-1.5-.3-2.1-.7l.2 1.2c.3-.2.7-.3 1-.4q.7-.2 1.5-.5c1-.3 2-.5 3-.5.7.1 1.2.1 1.9.3.8.1 1.5.3 2.3.6.2.1.7.4.9.5 0 .1.2.2.3.3 0 .1 0 0 0 0v.1l.1.1c0 .1-.1-.2 0 0q.1-.4.2-.7c-.4.3-1.2.2-1.8.2q-1.2-.1-2.4-.1h-6.3c-4.3 0-8.5.1-12.7-.1l-5.4-.3c-1.2-.1-2.4-.2-3.5-.4q-1-.1-1.9-.4c-.1 0-.3-.1-.5-.3 0 0-.2-.1-.1 0l-.1-.1c-.1-.1-.2-.2-.2-.3 0 .1 0 0 0 0-.1-.2 0 .1 0-.1 0 0 0-.1-.1 0 0 0 .1-.1.1 0-.1.1 0-.1 0-.1.1-.2 0 0 0-.1q.1 0 .2-.1s.2-.1.1-.1c.4-.3.9-.5 1.4-.7 1.4-.4 3.1-.4 4.6-.3 1.7.1 3.4.5 4.9 1.4q-.2-.5-.4-.9c0 .1 0 .1.1-.1 0 .1-.1.1.1-.1-.2.1.1 0 0 0 0 0-.1 0-.2.1.3-.2.1 0 0 0h-.3s-.3.1-.1.1h-.7c-1.1.1-2.2 0-3.4-.1-1.9-.1-3.8-.4-5.7-.6-2-.2-4-.3-6-.5-1-.1-2.1-.2-3.2-.2h-2.7q-.1-.1-.2-.1c-.1 0-.3-.1-.1 0-.1 0-.4-.2-.2-.1 0 0-.2-.2-.1 0v-.1c-.1-.2 0 .1 0-.1-.1 0-.1-.2-.1-.1v-.2l.1-.1c-.1.1 0 0 0 0q0-.2.1-.3c.1-.1.1-.1.2-.3q.4-.4.9-.7c.5-.4 1.1-.8 1.6-1 .8-.4 1.7-.6 2.6-.7.8-.1 1.7-.2 2.5 0 1 .2 1.9.6 2.8 1l2.6 1.4c3.4 1.9 6.2 4.5 8.7 7.5 2.4 2.8 4.6 6 5.4 9.6.3 1.7.3 3.6-.2 5.3-.3.8-.6 1.6-1.2 2.1s-1.4.7-2.1.6c-.7 0-1.1-.5-1.5-1-.4-.6-.9-1.3-1.1-2-.1-.3-.2-.5-.2-.8q0-.3.2-.7.1 0 .1-.1l.1-.1.3-.3c.1-.1.5-.3.8-.4.9-.3 1.9-.4 2.9-.5q1.6-.1 3.3 0c2.2.2 4.4.7 6.5 1.2q1.6.4 3.2.9l-.4-.2c1.1 1 2.4 1.5 3.7.8.6-.3.4-1 0-1.4-4.5-3.2-8.5-7.2-12.2-11.2-2-2.1-3.8-4.2-5.5-6.4-1.7-2.2-3.3-4.5-4.8-6.8-1.6-2.4-3.4-4.9-4-7.7q-.7.3-1.3.7c.8.8 1.2 2 1.5 3.1.3 1 .5 2 .5 2.9 0 .9-.1 1.9-.2 2.7q-.1.7-.3 1.4l-.2.4v.1s0-.1 0 0q-.1.3-.3.6c.1-.2 0 0-.1 0q0 .1-.1.1c.3-.2.1 0 .1 0h-.1c.2 0 .1 0 0 0h-.2l-.4-.4q-.2-.3-.5-.6-1.3-2-2.6-4.1c-1.8-2.9-3.5-5.8-4.9-8.9-.6-1.3-1.1-2.7-1.6-4.1q-.3-.8-.4-1.6c-.1-.3-.1-.5-.1-.8v-.4h-1.3c.2.5-.2 1.3-.3 1.8-.2.9-.2 1.9-.4 2.8-.2 1.8-.5 3.6-.9 5.4-.7 2.7-1.9 5.2-3.5 7.5-.3.4-.5.7-.9 1.1l-.3.3-.1.1c-.2.1.1-.1-.1 0q0 .1-.1.1c-.1.1 0 0 0 0s-.2 0 0 0h.1l.6.6c-.3-1.5 0-3.1.1-4.6q.3-2.2.8-4.4.2-1.1.6-2.1l.2-.6s-.1.2 0 .1q0-.1.1-.2.5-1.1 1-2.1l.8-1c-.1.1 0-.1.1-.1q.1-.2.2-.3l.1-.1.2-.2c-.1.1.1 0 .1 0q0-.1.1-.1c-.3.2-.1 0-.1 0s.4.1 0 0c.1 0-.2 0 0 0-.1 0-.2-.1-.1 0-.1-.2-.1-.1-.1-.1.1.1.1.1 0 0 0 0 .1.2.1.1-.1-.1 0 0 0 0v.2c-.1.5-.1.7-.2 1.2q-.2.7-.4 1.3c-.3 1-.5 1.9-.9 2.9-1 3-2.7 5.8-4.5 8.5q.8.3 1.5.6c1.1-3.8 2.6-7.6 5.3-10.6.7-.7-.4-1.9-1.1-1.1z"/><path class="c" d="M68.4 173.8c.4.8 1.1 1.5 1.9 2.1.9.7 1.7 1.2 2.7 1.7 2.1 1 4.2 1.9 6.5 2.5.5.1.9.2 1.5.2.4 0 .9 0 1.3-.1s.8-.3 1-.6c.3-.4.2-.9.2-1.4-.2-1.8-1-3.5-1.8-5.2-.5-.9-1-1.8-1.3-2.8q-.1-.4-.2-.7c0-.2-.1-.6-.1-.7q-.1-.3 0-.5v-.3q0 .2-.3.3-.3 0-.6-.1.2.1.5.3c-.1 0 .1.1.1.1.1.1 0 .1.1.1.2.3.2.5.3.8v1.1q0 .6-.1 1.2c-.1.8-.2 1.6-.1 2.4q.1.7.3 1.3c.2.4.4.8.9 1 .9.4 2-.2 2.9-.3q-.3-.6-.7-1.2v.1s0-.1.1-.1c-.2.1.2.1 0 0 .3.1.6.3.6.7q-.1.2-.1.4c0-.1-.2.2-.2.2.1-.1-.1 0 0 0q.3-.1.5-.1-.4-.6-.9-1.2c-.4.8-.8 1.5-1.5 2-.3.3-.3.9 0 1.2.3.3.8.2 1.1 0 .8-.7 1.3-1.5 1.8-2.4.3-.6-.2-1.3-.9-1.1-.4 0-.8.1-1.1.4-.4.4-.4 1 .1 1.3.6.5 1.5.1 1.9-.6.3-.5-.1-1.2-.7-1.2-.6.1-1.2.3-1.9.4-.1 0-.2.1-.3.1h-.1c.1 0 0 0 0 0s.2.1.1.1c0 0-.1-.3-.1-.4-.4-.9-.2-2.1-.1-3.1.1-1.1.2-2.2-.2-3.2q-.3-.8-1-1.4c-.3-.1-.6-.3-.9-.3-.4 0-.8.2-.9.6-.5 1.2 0 2.7.4 3.8.5 1.4 1.2 2.6 1.8 3.9q.4.9.7 1.8c.2.7.3 1.3.3 1.9.1.2 0 .2.1-.1l.1-.1s-.1.1-.2.1c-.2 0-.5.1-.8.1-.8 0-1.5-.3-2.3-.5-1.8-.6-3.7-1.3-5.4-2.2-1.4-.8-2.9-1.7-3.7-3.1-.5-.9-1.8-.1-1.3.8zm-.6-12.2c-.8.6-1 1.8-1.1 2.8-.1.9-.1 1.7 0 2.6 0 .4.3.8.7.8.5 0 .8-.3.8-.8 0-.8 0-1.6.1-2.4v-.4c0-.2 0 .2 0 0v-.2l.2-.6v-.2s.1-.1 0 0c0 .1.1 0 .1-.1v-.1l.1-.1q0-.1.1-.1 0-.1-.1.1c0-.1.1-.2.2-.2.3-.3.3-.8 0-1.1-.3-.3-.8-.3-1.1 0z"/><path class="c" d="M74.9 172.7c0-1-.4-1.9-.5-2.8-.1-1.1 0-2.1 0-3.1 0-2.1.2-4.2 0-6.2l-1.6.2c.4 1.9 1.1 3.8 1.9 5.6q.6 1.2 1.1 2.6c.3.8.5 1.7.9 2.5.6 1.8 1.5 3.3 2.6 4.8 1.2 1.4 2.7 2.6 4.2 3.6q2.4 1.7 4.9 3.2c1.7 1 3.5 1.9 5.3 2.9 1.7.9 3.4 2 5.1 3 1.7.9 3.6 1.7 5.3 2.7.9.6 1.8 1.2 2.6 1.8 1 .7 1.9 1.2 2.9 1.7 1.1.5 2.1 1 3.2 1.4 1 .5 2.1.6 3.1 1.1l.2-1.4c-.6.1-1.2.3-1.8.1-.6-.1-1.2-.5-1.7-.7-1.5-.7-3-1.3-4.5-1.8-1.5-.4-3-.8-4.4-1.5-.6-.3-1.3-.7-1.9-1.1-.6-.4-1.3-.7-1.9-1-1.4-.7-2.9-1.5-4.5-1.5-.8 0-1 1-.4 1.4 1.7 1.1 3.3 2.1 5 2.9 1.8.8 3.5 1.6 5.4 1.6 1 .1 1-1.5 0-1.6-1.7 0-3.3-.8-4.8-1.5-1.7-.7-3.2-1.7-4.8-2.7q-.2.7-.4 1.5c1.3 0 2.6.7 3.7 1.3.6.3 1.3.6 1.9.9.7.4 1.3.8 2 1.2 1.4.7 3 1.1 4.5 1.6s3 1 4.4 1.7c.7.3 1.4.7 2.2.9.8.1 1.6 0 2.4-.2.6-.2.8-1.1.2-1.5-.9-.4-1.8-.6-2.8-.9-.9-.3-1.8-.8-2.7-1.2-.9-.4-1.8-.9-2.7-1.4-.8-.5-1.6-1-2.3-1.6-1.6-1.1-3.3-1.9-5.1-2.8-1.7-.9-3.4-2-5.1-2.9-1.7-1-3.5-1.9-5.2-2.9-1.7-.9-3.3-1.9-4.9-3-1.5-1-3.1-2-4.4-3.3-1.2-1.2-2.2-2.6-2.9-4.2-.4-.9-.7-1.8-1-2.7-.3-1.1-.8-2.1-1.2-3.1-.8-1.9-1.7-3.8-2-5.9-.2-.9-1.7-.7-1.6.2.2 2 .1 4.1 0 6.2 0 1 0 2 .1 3.1 0 .9.4 1.9.4 2.8 0 1.1 1.5 1.1 1.6 0z"/><path class="c" d="M114.7 197.4c1.4-.2 2.8.5 4.1.9.7.2 1.5.4 2.1.6q1.1.3 2.2.7c1.4.5 2.9 1.1 4.4 1.6 1.4.4 2.9.7 4.3 1.1q1.1.4 2.2.6c.7.2 1.5.2 2.3.4 1.4.2 2.8.3 4.2.3 1.4 0 2.4-.6 2.8-1.9.2-.6.3-1.3.3-1.9.1-.6.3-1.2.4-1.8.2-.9.2-1.9.3-2.8.1-.9.1-1.8.3-2.7.2-1.6.9-3.3.3-4.9-.1-.4-.4-.6-.7-.6-1.4 0-2.4 1.3-3.2 2.3q-.6.8-1 1.6c-.4.6-.6 1.2-1 1.8-.4.9-1 1.7-1.4 2.6-.4.7-.5 1.4-.7 2.1l-.2 1c-.1.2-.2.4-.4.6.1-.1-.1-.1 0 0h-.1s-.2-.1-.4-.1c-.3-.2-.6-.3-.9-.4-.9-.4-1.9-.7-2.9-.9-1.1-.3-2.2-.6-3.2-.9-2.1-.7-4.1-1.4-6.1-2.2-1-.3-1.9-.8-2.8-1.3-1-.4-2-.8-2.9-1.2-.8-.4-1.5-1-2.4-1-.5 0-1 .2-1.4.5-1.4 1.1-1.4 4 .3 4.8 1.2.5 2.6-.2 3.6-.9 1.5-1.1 2.7-2.6 3.6-4.2.3-.6.7-1.1.9-1.7.3-.6.5-1.3.3-1.9-.5-1.4-2.4-1.2-3.3-.5-.8.7-1.2 1.8-1.4 2.8-.3 1.2-.3 2.4-.2 3.6 0 .9.2 2 .8 2.8 1 1.3 2.6 2 4.2 2 3.6 0 5.1-4 6.1-6.8.3-.9.5-1.8.2-2.7 0-.3-.4-.6-.7-.6-1.5.1-2.6 1.2-3.4 2.4-.8 1.1-1.5 2.6-1 4 .6 1.9 2.9 2.2 4.6 2.3 1.2.2 2.4.4 3.7.5 1 .1 2 .3 3 .2.9-.1 1.8-.3 2.4-.9.5-.5.8-1.1 1.1-1.7.4-.7.6-1.4.8-2.2.1-.7.2-1.4 0-2.1-.3-.8-1.1-1.4-2-1.2-.8.1-1.5.7-2 1.3-.7.7-1.2 1.5-1.6 2.4-.3 1-.5 2-.6 3-.1.9-.3 1.8.3 2.6.5.5 1.3.7 2 .6 1.8-.2 3.3-1.5 4.4-2.8 1.3-1.5 2.2-3.2 3.4-4.7 1.2-1.7 2-3.7 1.8-5.8 0-1-.3-1.9-.6-2.8q-.4-1.2-.9-2.4c-.6-1.4-1.5-2.6-2.8-3.4-1.7-1.1-3.9-1.4-5.9-1.7q-3.6-.6-7.2-.7c-4.8-.2-9.6.1-14.4.6-2.4.2-4.8.5-7.2.9-2.1.4-4.4.9-6.3 1.8-.9.4-1.6 1-2.3 1.7-.2.3-.3.7-.1 1 1.7 2.6 5.1 3.1 7.8 3.9 1.9.6 3.8 1.3 5.7 1.8 1.9.6 3.8.9 5.7.9 2 .1 3.9 0 5.9 0 1 0 2 .1 3 0 .6 0 1.3-.1 1.9-.5 1.4-.8 1.4-2.5.4-3.6-.8-1-1.9-1.5-3-2-1.9-1-3.8-1.8-5.8-2.6-1-.4-2-.9-3-1.1-1.1-.2-2.2-.2-3.2-.6-.4-.2-.8.2-.9.5-.2.5.1.9.5 1 .8.3 1.7.4 2.6.5.9.2 1.7.5 2.5.8q2.4.9 4.8 2c1.2.6 2.4 1.1 3.5 1.8.4.3.8.6 1 1 .1.1.1.3.1.4 0 .1 0 .4-.2.5-.3.2-.8.3-1.2.3-.9.1-1.8 0-2.7 0-1.8 0-3.6 0-5.4.1q-1.3 0-2.6-.1c-.9-.1-1.8-.3-2.6-.6-1.8-.4-3.5-1-5.2-1.6-1.6-.5-3.2-.9-4.8-1.4-1.3-.4-2.7-1-3.4-2.2l-.2 1c1.2-1.4 2.8-1.9 4.5-2.4 2-.5 4.1-.9 6.2-1.2 4.3-.6 8.6-.9 12.8-1.1 4.3-.1 8.6 0 12.8.8 1.7.2 3.6.5 5.1 1.4 1 .7 1.7 1.7 2.2 2.8.3.6.5 1.3.7 2 .3.7.6 1.5.6 2.2.2 1.8-.4 3.6-1.4 5-1 1.4-1.8 2.8-2.9 4.2-.8 1.1-2 2.4-3.4 2.7-.3.1-.4.1-.7.1h-.2c-.2-.1.1.1-.1 0 0 0-.1-.1 0-.1-.2-.1 0 .2-.1 0s0 .1 0-.1c-.1-.1-.1-.1-.1-.3 0-.4.1-.8.2-1.3.1-.8.2-1.6.6-2.4.3-.8.8-1.4 1.3-1.9q.3-.3.7-.6c.1-.1.1-.1.3-.1h.1-.1c0-.1.2.2.1 0v.1c.1.2 0-.1.1.1v.8c0 .2-.1.5-.1.8l-.4 1c-.2.5-.4 1-.8 1.5-.1.2.1-.1 0 .1q-.1 0-.1.1l-.1.1c-.3.2-.7.3-1 .4-.8.1-1.6 0-2.4-.1-1.1-.1-2.3-.3-3.4-.4-.9-.1-1.8-.1-2.7-.3-.4-.1-.7-.2-1.1-.4l-.3-.3-.1-.1c.1.1 0-.1 0-.1-.1-.1-.1-.2-.1 0v-.2q0-.1-.1-.2v-.4c0-.1.1-.3 0-.1q.1-.2.1-.3c.2-1.1 1-2.2 1.8-2.8l.6-.4c-.1.1.2 0 .2 0q.1-.1.2-.1c-.2.1 0 0 .1 0l-.8-.6c.2.7-.1 1.5-.3 2.2l-.8 1.8c-.5 1.2-1.2 2.6-2.4 3.2-1.1.6-2.5.3-3.4-.3q-.7-.4-1-1c-.1-.2 0 0 0-.1q-.1-.1-.1-.2l-.2-.6v-.4s0-.1 0 0v-.1q-.1-.4-.1-.8v-1.6c.1-.8.3-1.9.7-2.5.1-.1.2-.3.2-.2-.1.1.1-.1.1-.2 0 0 .3-.2.1-.1q.1 0 .2-.1c.2-.1-.1 0 .1 0h.1q0-.1.1-.1c.2 0-.2 0 0 0h.2s.3.1.1 0l.1.1c-.1-.1-.1-.2-.1-.1q0 .1 0 0v.1s0 .1 0 0q0 .1-.1.3v.2c-.1.1 0-.1-.1.1q-.4.8-.9 1.6c-.7 1.4-1.7 2.7-3 3.7-.5.3-1 .6-1.5.8h-.2c-.1 0 .2 0 0 0h-.3c-.1 0 .2.1.1 0h-.2c-.1-.1.1 0-.1-.1s.1.1 0 0-.2-.3-.1-.1q0-.1-.1-.2l-.1-.1c.1.2.1.1.1 0q-.1-.1-.1-.2c-.1-.2 0 .1 0-.1v-.5c0-.1-.1.2 0 0v-.1q0-.1.1-.3v-.1c0-.1-.1.2 0 .1q0-.2.1-.3l.1-.1c.1-.1-.1.1 0 0l.1-.1c0-.1.2-.1 0 0l.1-.1h.1c.1-.1-.2 0 0 0 .1 0 .2 0 0 0h.4c.3.1.6.4.9.5.8.4 1.7.8 2.5 1.1.9.4 1.7.8 2.5 1.2.9.4 1.8.7 2.7 1.1 1.8.6 3.6 1.3 5.5 1.9 1 .3 2 .5 3 .8q.6.1 1.3.3c.3.1.8.3 1.1.4.6.3 1.3.6 2 .6.8 0 1.3-.5 1.6-1.1.3-.6.5-1.2.6-1.9.1-.7.3-1.2.6-1.8.5-.8 1-1.6 1.4-2.4.3-.5.5-1 .8-1.5.6-1 1.2-2 2.1-2.8.1-.1.2-.2.5-.3-.1 0 .2-.1 0-.1-.1.1.1 0 .1 0h.2c-.2 0-.1 0 0 0l-.8-.6c.5 1.3-.1 2.7-.3 4-.3 1.5-.4 3.1-.5 4.7 0 .7-.2 1.3-.4 2-.1.5-.1 1.1-.2 1.7-.1.5-.1 1-.4 1.3-.3.3-.7.3-1.1.3-1.3 0-2.7-.1-4-.3l-2.1-.3q-1.1-.2-2.1-.6c-1.4-.4-2.8-.7-4.2-1.1-1.4-.4-2.8-1-4.1-1.5l-2.4-.8c-.7-.2-1.5-.3-2.3-.6-1.5-.5-3-1.2-4.6-1-.5 0-.8.3-.8.8 0 .4.3.8.8.8z"/><path class="c" d="M106.1 149.7c.4.2.9.3 1.4.4.4.1.7.3 1.1.6q1.1.7 2.1 1.5c1.4 1 2.7 2.1 4 3.1 2.7 2.1 5.5 4.1 8.6 5.4q2.7 1.1 5.5 1.3-.2 0-.4-.1c1.3.8 2.2 2 3.2 3.1q.8.8 1.6 1.5c.7.5 1.6.6 2.5.7q.5.1 1.1.2.2 0 .5.1c.2.1.3.2.5.4.3.3.6.6 1 .8q.5.2 1 .5c.7.3 1.2.9 1.7 1.4q.8.8 1.7 1.5c1.4 1.2 3 2 4.9 2.3l-.8-.6c1.1 2.8 1.1 7-2 8.4q.5.7 1 1.3c0-.1.2-.1.2-.1l-.6-1.4-.4.2q.5.5.9 1.1.1-.3.3-.5l.2-.2v-.1h-.2q-.2.1-.4-.1v-.6s-.1 0 0 0q-.1.1-.3.2s-.1 0-.2.1q-.2 0-.3.1.5.4 1 .9c.4-2.1.3-4.3-.2-6.4-.5-2-1.3-4-2.5-5.6-1.9-3-4.8-5.2-8.2-6.3-1.6-.5-3.4-.8-5.1-.7q-.6 0-1.2.1c-.4 0-.8 0-1.2.2-.7.2-1.1.8-1.3 1.4-.4 1.3-.1 2.9.6 3.9.5.8 1.4 1.4 2.1 2q1.1.8 2.3 1.4c3.8 1.8 8.1 2 12.2 2.2.4 0 .8-.4.8-.8 0-1.3-1.4-1.9-2.5-1.3-.5.3-.7.9-.4 1.4.4.6 1.4.7 2.1.7.4 0 .6-.3.7-.6.6-1.4-.9-2.4-2-2.8-1.1-.4-2.3-.5-3.4-.6-1.2-.1-2.3-.2-3.3-.8-.6-.3-1.1-.7-1.7-1.1q-.9-.7-1.8-1.3c-2.2-1.7-4.5-3.2-6.9-4.5q-1.7-1-3.5-1.9c-1.2-.5-2.4-1.1-3.6-1.3-4.7-.7-8.7 3.2-10 7.4-.3 1-.4 2.1-.4 3.1.1 1.2 1.1 1.7 2.1 1.7.4 0 .9-.1 1.3-.1.2 0 .5 0 .7-.2.3-.1.6-.3.8-.6.5-.5.7-1.2.5-1.8-.1-.4-.5-.6-.8-.8l-.8-.6c-2.2-1.5-4.5-2.6-6.9-3.7-1.2-.5-2.5-1.1-3.7-1.8-1.1-.6-2.4-1.1-3.7-1.3q-1.1 0-2.1.2c-.6.1-.7.9-.3 1.3.5.6 1 1.2 1.7 1.5.3.1.6.1.9-.1.2-.2.4-.5.2-.8-.4-1-1.1-1.9-2.2-1.9-.8-.1-1 .8-.6 1.3 4.3 5.1 10.4 8.1 16.7 9.9 3.3.9 6.6 1.6 9.9 2 3.9.5 7.7 1.1 11.5 2q3.1.7 6.2 1.8c.8.4 1.6.8 2.5.6.9-.2 1.6-.9 1-1.7q.1.1.2.3c-1.3-3.9-5.3-5.5-8.6-7.5-3.6-2.2-6.3-6.2-10.8-6.9-.5-.1-1.1-.1-1.7 0q-.7.2-1.3.5c-.9.4-1.8 1.1-2.3 2-.5.9-.7 2.1.3 2.8.5.3 1.2.5 1.7.7q.9.4 1.8.7c5 1.7 10.1 2.7 15.3 3.2 2.4.3 4.8 0 7.1.9.9.3 1.8.9 2.6 1.5.6.4 1.1 1 1.3 1.8.1.4.1.8 0 1.3l.2-.4c-3.8 4.8-6 10.6-8.2 16.2q-.9 2.5-1.8 4.9c-.3.8.8 1.3 1.3.8.4-.4.7-.8 1-1.4.2-.6-.7-1.2-1.2-.9-.6.4-.9.9-1.1 1.5-.2.4.1.9.5 1 .5.1.8-.1 1-.5q.2-.6.6-1c.3-.4.7-.7 1-1.1.4-.6.6-1.4.9-2.1l.6-.9c.3-.4.6-.6.9-.9q1.1-1.1 2-2.2c2.4-2.9 4.4-6.2 6.5-9.4 1-1.5 2.2-3.5 1.3-5.3-.5-.9-1.4-1.3-2.3-1.2-.8.1-1.6.5-2.3.8-1.8 1-3.7 1.9-5.5 2.9-.5.3-1 .5-1.4.9l-.5.5c-.2.2-.5.3-.7.4q-1.3.6-2.5 1.3c-3.7 2.2-7 5.1-10.3 7.7q.3-.1.5-.2h-.3q-.2-.1-.1 0-.2.7-.3 1.4s.1.1.2.1l.2-1.6h-.2q.2.6.4 1.1.2-.2.3-.5.1-.2.3-.4c-.1.1 0 0 0 0l.1-.1q.1-.1 0 0-.1 0 0 0h-.1c-.2.1-.6 0-.7-.3 0 0 0-.3.1-.3l-.1.1c-.2.1-.3.2-.5.3-.2.1-.1 0-.3.1q.5.6.9 1.1c.6-1.2 1.2-2.4 1.9-3.5l1-1.8c.3-.6.5-1.1.8-1.6.6-.9.9-1.9.6-2.9-.3-1.1-1.2-1.5-2.3-1.7-2.6-.5-5.3-.8-7.9 0-2.3.7-4.2 2.2-6.4 3.1-1 .3-2.1.6-3.2.4q-2-.4-4.1-.8-4-.9-7.9-2c-5.2-1.4-10.2-3.1-15.3-4.8-5-1.8-10-3.7-15.1-5.5q-.9-.3-1.9-.7c-.4-.1-.8.2-.9.6-.1.4.1.8.5.9l14.7 5.4c4.9 1.7 9.8 3.4 14.9 4.9q3.7 1.1 7.5 2 2 .4 4 .9c1.3.2 2.6.6 3.9.7 2.3.2 4.5-1 6.4-2.1 1-.5 2-1.1 3.1-1.4 1.2-.4 2.4-.6 3.7-.5 1.3 0 2.6.2 3.8.4.2.1.5.1.6.2q.2.1.3.2c.1.2.2.5.1.8-.1.4-.3.8-.5 1.2-.4.5-.6 1.1-.9 1.6-.6 1.2-1.3 2.3-1.9 3.5l-.8 1.8c-.3.5.1 1.3.9 1.1.5-.2 1.1-.5 1.5-.9.5-.6.5-1.5-.2-1.9-1-.6-1.9.9-2.2 1.7-.2.4-.1.9.4 1.1q.3.1.7.1c.9.1 1-1.3.2-1.5q-.3-.1-.6-.1c-.8-.1-1.1 1.1-.4 1.4.3.2.9.3 1.4.2.2-.1.5-.3.7-.5l.6-.4 2.2-1.8c1.4-1.2 2.8-2.3 4.3-3.3 1.5-1.1 3.1-2.1 4.8-2.8.4-.3.8-.4 1.2-.8.4-.4.7-.7 1.2-.9q1.4-.8 2.7-1.4 1.4-.7 2.8-1.5c.6-.3 1.3-.7 2-.8.8-.2 1 .6.9 1.2-.1.9-.6 1.7-1.1 2.4-2 3.1-3.9 6.3-6.2 9.2q-1 1.2-2.1 2.3c-.7.7-1.4 1.3-1.8 2.2q-.3.6-.6 1.3c-.1.3-.3.7-.5 1-.3.4-.6.7-.9 1-.4.5-.6.9-.8 1.4q.7.3 1.5.5c.1-.3.2-.5.4-.6q-.6-.4-1.2-.9c-.1.3-.3.5-.5.7q.6.4 1.3.8c2.3-5.8 4.1-11.9 7.4-17.2q.6-1 1.2-1.9.4-.5.7-1c.2-.3.5-.6.6-1 .2-1.3-.1-2.6-1-3.6-.8-.9-1.9-1.6-2.9-2.1-1.4-.7-2.9-1.1-4.4-1.2q-1.2-.1-2.3-.1-1.3-.1-2.5-.2-2.4-.3-4.9-.7c-3.3-.6-6.5-1.4-9.6-2.5q-1.2-.4-2.3-.9c-.2 0-.6-.2-.6-.3-.1 0 .1.2-.1 0 .1 0 0 .1.1 0-.1.1 0-.2 0-.2.4-1.1 1.4-1.7 2.5-2.1 1.1-.3 2.5.2 3.5.7 1.3.6 2.4 1.4 3.4 2.3 1.1.8 2.2 1.8 3.3 2.7 1 .8 2.1 1.4 3.2 2 2 1.1 4.3 2.3 5.5 4.3.3.5.4 1.2.8 1.6q-.1-.2-.2-.3.1-.4.2-.7h-.1c-.1.1-.1.1-.3.1-.1 0-.2 0-.3-.1-.1 0-.4-.1-.6-.2q-1.2-.5-2.5-.9-2.5-.8-5.2-1.4c-3.5-.8-7.1-1.3-10.7-1.8-3.2-.5-6.3-1.1-9.4-1.9-2.9-.8-5.8-1.8-8.5-3.3-3-1.6-5.8-3.7-8-6.3q-.3.7-.5 1.4c.3 0 .6.4.7.7q.6-.4 1.2-.9c-.6-.2-1-.7-1.4-1.2q-.2.7-.3 1.3c1.4-.3 2.9.1 4.1.8q2.1 1.1 4.2 2.1c2.7 1.2 5.5 2.4 7.9 4.4l-.2-.4c.1.3-.4.6-.6.7q.2-.1.4-.1c-.6 0-1 .1-1.6.1h-.4s-.1 0-.1-.1v-.3c0-1.3.3-2.5.8-3.7 1.1-2.3 3.1-4.4 5.7-4.9 1.5-.3 3.1.2 4.6.8q2.3 1.1 4.6 2.4c3.1 1.8 6 4 8.9 6.1 1.5 1.1 3.2 1.4 5 1.6.8.1 1.6.2 2.3.4.4.1 1.9.4 1.6 1l.8-.6h-.7q-.1-.1-.2-.1c-.2 0 0 0 0 0 .2.2.3.6.1.9l-.1.1c.1-.1-.2.1 0 0h.1c-.2 0-.1 0 0 0h.1c-.2 0-.1 0 0 0 .2 0-.1-.1 0 0 .1 0-.1-.2 0 0l-.1-.1v-.1.1l.8-.8c-3.3-.1-6.7-.3-9.9-1.4-1.5-.5-2.9-1.2-4.1-2.2-.6-.5-1.1-.9-1.4-1.6-.1-.1-.2-.4-.2-.6-.1-.4-.2-.5-.2-.9v-.3c.1-.2 0-.1.1-.3 0 0 .1-.3.1-.2v-.2c.2-.1-.1.2.1 0 0 0 .1-.2 0-.1 0 .1.1 0 .1 0-.1 0 .2-.1.1-.1q.6-.1 1.2-.1 2.3-.2 4.5.4c3 .8 5.7 2.5 7.5 5 1.2 1.5 2.1 3.4 2.7 5.3.6 2 .8 4.2.4 6.3-.2.6.3 1.2.9 1 .9-.3 2.5-1 1.7-2.2-.4-.6-1.2-.6-1.7-.1-.4.3-.7.7-.9 1.1-.3.6.2 1.4.9 1.2l.8-.4c.8-.4.3-1.6-.6-1.4-.4.1-.6.2-.9.5-.3.2-.3.7-.1 1 .3.3.6.4 1 .2 3.8-1.7 4.1-6.9 2.8-10.2-.2-.4-.4-.6-.8-.6-1.6-.2-3-1.1-4.2-2.1-1.2-1-2.2-2.4-3.6-3.1-.3-.1-.7-.2-.9-.4-.5-.3-.8-.8-1.3-1.1-.8-.3-1.7-.4-2.5-.5-.4 0-.8-.1-1.2-.2-.3-.2-.6-.4-.8-.6-.6-.6-1.1-1.1-1.6-1.7-.5-.6-1-1.2-1.6-1.7l-1-.8c-.4-.2-.9-.2-1.4-.2-1.5-.2-2.9-.6-4.3-1.2-2.9-1.3-5.4-3.1-7.8-5-1.5-1.1-2.9-2.3-4.3-3.3q-1.1-.9-2.3-1.6c-.4-.3-.8-.5-1.3-.7-.5-.1-1-.2-1.5-.4-.4-.2-.9.1-1 .5-.1.5.2.8.6 1z"/><path class="c" d="M62.9 157.4c1 .8 1.7 2 2.3 3.2q1.1 1.9 2.3 3.9c.8 1.4 1.6 2.8 2.6 4 .7.9 1.9 1.7 2.2 2.8v.3q.1.1 0 .1c0 .2 0-.1 0 0v.2c.1-.2-.2.1-.1 0s-.2.1 0 .1h-.3q-.1.1-.2.1c.1 0 .2-.1 0 0h-.4c-.4 0-.7-.1-1.1-.2q-.2-.1-.3-.1l-.1-.1c.1.1 0 0 0 0l-.8-.4c-2-1.5-2.6-4.1-2.9-6.4-.3-1.8-.1-3.5-.1-5.3.1-1.8-.4-3.6-.4-5.4 0-1-1.6-1-1.6 0 0 1.7.5 3.5.4 5.2 0 1.8-.1 3.6.1 5.4.4 2.7 1 5.6 3.2 7.4 1 .8 2 1.3 3.2 1.4 1 .1 2.3 0 2.8-1 .7-1.3-.3-2.8-1.1-3.8-.5-.5-1-.9-1.4-1.4-.5-.7-1-1.4-1.4-2.1-1-1.6-2-3.3-2.9-5-.8-1.4-1.6-3-2.9-4-.3-.3-.8-.3-1.1 0-.3.3-.3.8 0 1.1z"/><path class="c" d="M69.7 167.8h.2-.3q.4 0 .7.2-.1-.1-.2-.1.3.1.5.2c.1.1.4.2.6.1.2 0 .4-.2.5-.4.1-.1.1-.4 0-.6q-.1-.3-.3-.4-.8-.5-1.7-.6c-.2 0-.5.1-.6.2-.1.2-.2.4-.2.6 0 .2 0 .4.2.6q.1 0 .2.1t.4.1zm117.2 8.8q-.6.6-1.1 1.3c-.4.5-.7 1-.8 1.5-.1.4 0 .7 0 1 0 .1-.1.2-.1.3v.1l-.1.1q0 .1-.1.2c-.1.1.1-.1 0 0q-.1.1-.2.3-.3.3-.7.5c-.3.3-.2.9 0 1.1.4.4.9.3 1.2 0 .4-.3.8-.7 1.1-1.1.4-.6.5-1.2.4-1.8v-.3q.1-.1.1-.2c0-.2-.1.1 0-.1l.4-.6c.1-.2.3-.4.5-.6q.2-.3.6-.5c.3-.3.2-.9 0-1.2-.4-.3-.8-.2-1.2 0zm-41.5 21c.9.9 2 1.2 3.2 1.4q.8.1 1.7.1c.7.1 1.3.3 2 .4.6.1 1.3 0 1.8.2.4.1.6.6.9.9.4.6.8.9 1.4 1.1.7.2 1.5.1 2.2.1 1.2-.1 2.5.3 3.6.7 1.2.5 2.3 1.2 3.5 1.6 1.3.6 2.7.9 4.1.8.7 0 1.2 0 1.8.3.6.3 1.2.7 1.8 1 .6.3 1.3.8 2 .9.8.1 1.6-.2 2.3.2.5.2.9.6 1.5.6.4.1.8.1 1.2.2.4.1.7.3 1.1.3.5.1.9-.1 1-.5.1-.4-.1-.9-.5-1-.7-.1-1.4-.4-2.1-.5-.5 0-.7-.1-1.2-.4-.6-.4-1.3-.5-2-.5-.3.1-.7.1-1 .1-.3-.1-.5-.2-.8-.4q-.8-.4-1.7-.9c-.5-.3-1.1-.7-1.7-.9-.8-.2-1.5-.1-2.3-.1q-.9 0-1.9-.2c-1.2-.4-2.3-1.1-3.4-1.6q-1.8-.8-3.7-1.2c-.7-.1-1.3-.1-2-.1-.5.1-1.2.2-1.6-.1-.4-.3-.6-.8-.9-1.2-.4-.5-1-.8-1.6-.8-.4-.1-.8-.1-1.2-.1-.3-.1-.7-.1-1-.2-.7-.2-1.5-.2-2.2-.3-1.1-.1-2.4-.2-3.1-1-.7-.8-1.9.4-1.2 1.1zm19.7-54c.1.8-.2 1.4-.4 2.1-.1.8-.1 1.7-.1 2.5.1 1.7.1 3.5 0 5.2 0 1.8 0 3.5.1 5.2.1 1.8.4 3.5.5 5.2 0 2-.1 3.9-.1 5.9 0 1 1.6 1 1.6 0 0-1.8.1-3.5 0-5.2 0-1.7-.2-3.4-.4-5.1-.2-1.7-.1-3.5-.1-5.2v-5.4c0-.8-.1-1.8 0-2.6.2-.9.6-1.7.5-2.6-.1-.4-.4-.7-.8-.7s-.8.3-.8.7zm-58.4-19.1q.2 0 .3.1-.1-.1-.2-.1c.4.1.7.2 1 .3.4.1.8.2 1.2.2.2 0 .4-.1.5-.2.1-.2.3-.4.2-.6 0-.2 0-.4-.2-.6-.1-.1-.3-.2-.5-.2h-.5.2c-.3 0-.5-.1-.8-.2q-.6-.2-1.2-.2c-.4 0-.8.3-.7.8 0 .4.3.7.7.7zM161.1 5.1c-.5 0-.9-.4-1.4-.6-.6-.3-1.4-.4-2.1-.2-1.2.4-2.1 1.4-2.6 2.5-.8 1.9-1 4.7 1.3 5.6 1.5.6 3.2-.2 4.3-1.3 1.1-1 1.9-2.7 1.3-4.2-.7-1.7-3-2.6-4.7-2.1-2 .6-3.5 2.3-4.6 3.9-.9 1.5-1.8 3.6-1.3 5.4.5 1.6 1.8 2.7 3.4 2.2 2.7-.7 5.1-4.8 2.9-7.2q-.4-.4-1-.7c-.2-.1-.5-.1-.8 0-.6.4-1 1-1.4 1.7q-.8 1.1-1.2 2.4c-.3.8-.6 1.6-.5 2.4.1.4.2.9.5 1.2.3.4.8.6 1.1.9.1.2.2.5.2.7q.1.5.3 1 .3.9.7 1.7c.4.9 1 2 1.9 2.5 2 1.4 4.1-1.4 5.1-2.8.7-.9 1.1-2.1 1.8-2.9.5-.4 1.1-.7 1.7-1 .6-.3 1.3-.6 1.9-1.1.3-.2.5-.6.3-.9-.2-.4-.6-.6-.9-.5-1.2.3-2 1.5-2.7 2.4-.3.5-.7 1-.6 1.6 0 .7.5 1.2 1.1 1.4.6.2 1.2.3 1.9.4q1.1.1 2.3.1c1.7-.1 3.3-.4 4.9-.8 1.5-.4 3-.7 4.4-1.3 1.4-.5 2.5-1.3 3.6-2.4.4-.4.8-.9.7-1.5 0-.8-.8-1.2-1.4-1.4-1.4-.4-2.9-.1-4.3.2-1.8.3-3.6.8-5.4 1.1-1.6.2-3.2.4-4.7 1.1-.6.3-.5 1.1 0 1.4 1.3.7 2.8.9 4.3.8 1.1-.1 2.3-.4 3.4-.7.9-.2 1.9-.6 2.2-1.6.4-1-.3-2.2-1-3-1.5-1.6-3.8-2-5.9-2-2.3 0-4.4.6-6.4 1.7-1.4.7-2.7 1.7-3.8 2.9-.8.9-1.8 2-1.9 3.3 0 .4.4.9.8.8 1.1-.1 2-.7 2.9-1.3l2.8-1.8q.9-.5 1.7-1c.6-.3 1.1-.6 1.7-.8.5-.2 1-.3 1.6-.3.5-.1 1.1 0 1.7 0 2.2-.3 4-2.3 3.3-4.5-.6-1.6-2.1-2.6-3.6-3.2-1.6-.7-3.3-1.2-5-1.5-1.2-.2-2.5-.3-3.7-.5-1-.1-2.1-.4-3.1-.1-.9.2-1.9.9-1.8 2 .1 1 1.1 1.9 2 2.3.9.4 2 .6 3 .8q1.9.3 3.9.4c2.6.2 5.2.3 7.8.5q1.9.1 3.7.2c.8 0 1.5.2 2.3 0 .4 0 .7-.2 1-.5.3-.4 0-.9-.3-1.1-1.6-1.1-3.3-1.9-5.1-2.4-1.3-.5-2.7-.7-4.1-1.1-1-.3-2.2-.7-3.3-.6-.5.1-1.1.2-1.4.7-.3.5-.3 1 0 1.5.4.8 1.4 1.3 2.2 1.8 1 .5 2.1.9 3.1 1.3 2.8 1.1 5.8 1.5 8.7 2.3.7.2 1.5.4 2.1.8.1.1.2.2.2.3.2.3.2.6.2 1 0 .5 0 1 .2 1.5.2.6.6 1.1 1.2 1.3.6.4 1.4.7 2.2.7.7 0 1.4-.3 1.9-.8 1-1 1.5-2.4 1.1-3.8-.1-.6-.7-1.4-1.5-1.4-.7 0-1.1.8-1.2 1.4-.2 1.3.2 2.5.4 3.7.1 1 .3 2 .4 3.1.1.5.1 1.1.1 1.7.1 1.1.2 2.1.6 3.1.4 1 1.2 1.9 2.4 1.6 1.5-.3 2.5-1.8 2.8-3.3.3-1.2.2-2.6.2-3.9-.1-1.1-.2-2.4-.7-3.5-.3-.5-.7-.9-1.2-1.1-.3-.1-.6 0-.8.2-1 1.3-.7 3.1-.7 4.7.1 1.1 0 2.3 0 3.5 0 1 .2 2.1-.1 3.2-.2.7-.7 1.4-.6 2.2 0 .9.7 1.5 1.5 1.5 1 0 1.7-.6 2.4-1.1.7-.5 1.6-.8 2.3-1.3 1.6-1.3 2.4-3.2 2.3-5.3-.1-2-.9-3.9-2-5.6-1.1-1.8-2.6-3.3-4.4-4.6-.8-.6-1.7-1.2-2.6-1.8-.9-.6-1.9-1.1-2.9-1.7-.7-.5-1.7-1.1-2.6-.8-.5.1-1 .5-1.2.9-.6 1.2-.4 2.7-.2 3.9q.3 1.8.9 3.6c.2.6.4 1.2.8 1.7.5.7 1.2 1.1 1.8 1.7.8.5 1.3 1.2 1.8 1.9s.9 1.5 1.6 2c1.4 1.1 3.2 1.5 4.9 1.1.8-.1 1.7-.5 2.1-1.3.4-.8.4-1.8.2-2.7-.4-1.9-1-3.6-2.1-5.2-1-1.4-2-2.9-3.5-4.1-1.3-1-2.8-1.8-4.4-2.3-3.3-1.1-6.8-1.3-10.2-1l-2.4.4c-.4.1-.6.6-.5 1 .1.4.5.6.9.5 2.9-.5 6-.6 8.9-.1 2.8.5 5.7 1.6 7.8 3.7.5.5.9 1.2 1.4 1.8.5.7 1 1.4 1.4 2.1.4.8.6 1.5.8 2.3.2.7.5 1.5.4 2.2 0 .3 0 .6-.2.8q-.2.2-.6.3c-.6.2-1.3.2-2 .1-.5 0-1.3-.3-1.8-.7-.5-.4-.9-1-1.3-1.6-.5-.7-.9-1.4-1.5-1.9-.6-.6-1.3-1-1.8-1.5-.8-.7-1-1.7-1.3-2.7l-.4-1.6q-.1-.5-.2-.9c0-.4-.1-.5-.1-.8V8.9q.1-.1.1-.3c.1-.2-.1.1.1-.1v-.1c-.1.1 0 0 0 0l.1-.1c-.2.2 0 0 0 0h.1q-.2.1-.1 0h.1s.2 0 .3.1c.4.1.7.3 1 .5.8.5 1.7 1 2.5 1.5 1.6 1 3.3 2.1 4.7 3.4 1.3 1.3 2.4 2.7 3.2 4.4.6 1.5 1.1 3.2.7 4.8-.2.8-.6 1.5-1.2 2-.6.6-1.3.9-2 1.3-.6.3-1.2.8-1.8 1.1-.2.1.1 0-.1 0h-.3c.1 0-.1-.1.1 0 0 0 .1.1 0 0v.1q.1.1 0 0s0-.1 0 0v-.2c0 .2.1-.1.1-.1q0-.2.1-.4c0-.2.1-.2.1-.3q.3-.8.4-1.6c.2-1 .1-2 .1-3v-3.3c0-.6-.1-1.3-.1-1.9 0-.4 0-.7.1-1q0-.2.1-.4c.1-.3 0 .1.1-.1 0 0 .1-.3 0-.2q-.4.1-.7.2c0 .1 0 .1 0 0-.1 0-.1.1 0 .1 0 0-.1-.1 0 0s0-.1.1 0q0 .1.1.3s.1.2 0 .1q.1.1.1.2l.2.6c.1.7.2 1.4.2 2.1v2.6c-.1.9-.3 1.7-1 2.3q-.2.2-.5.4-.1 0-.1.1c-.1 0 .1-.1 0 0h-.3.1-.1c-.1 0 .1.1 0 0-.2-.1 0 .1-.1 0q0-.1-.1-.2s0 .1 0 0q-.1-.1-.1-.2c-.1 0-.2-.3-.1-.1q-.2-.5-.3-1 0-.2-.1-.4v-.5q-.1-.4-.1-.9c0-1.1-.1-2.1-.3-3.1q-.2-1.7-.6-3.3c-.1-.5-.1-.8-.1-1.3 0-.3 0-.3.1-.5v-.1c-.1.1 0 0 0 0 .1-.1-.1 0 0 0 .1-.1-.1.1 0-.1q-.3.1-.6.1c-.1 0 .1.1.1.1-.1-.1 0 .1 0 0l.1.1c0 .1-.1-.1 0 .1s.1.2.1.4v.4c-.1.6-.4 1-.9 1.5-.2.2-.3.2-.6.3h-.3c-.1 0-.4-.1-.6-.2q-.5-.1-.9-.4s-.1-.1 0 0q-.1 0-.1-.1c-.2-.2.1.1-.1 0 0-.1-.1-.3 0-.1q-.1-.2-.1-.3V14q0-.6-.1-1.1c0-.9-.3-1.6-1-2.1s-1.7-.7-2.5-1l-3.2-.8c-1.5-.4-3.1-.7-4.7-1.2q-.6-.2-1.3-.5c-.6-.2-1-.4-1.5-.6q-.9-.4-1.6-.9l-.4-.2c.1 0-.1-.1 0 0 .1 0-.1-.1-.1-.1l-.2-.2-.1-.1c-.1-.1.1.1 0 0q-.1-.1-.1-.2s.1.2 0 .1v.1c0-.1.1-.2 0 0 0 0-.1.2 0 .1s-.1.2 0 0c-.1.1-.1 0 0 0h.2c-.3 0 0 0 0 0h.4c.3 0 .4 0 .8.1q.9.2 1.8.5c.8.2 1.6.3 2.4.5 2.2.6 4.3 1.5 6.2 2.7q-.1-.5-.3-1l.2-.2q-.1 0 0 0h-1.5c-1-.1-1.9-.1-2.8-.2q-3.5-.3-7-.4c-2.3-.1-4.5-.3-6.7-.7-.8-.2-1.6-.3-2.2-.7-.3-.2-.5-.5-.7-.8-.1-.2.1.2 0-.1 0 .1 0 0 0 0 .2-.1-.1.1.1-.1-.1.1.2-.1.1-.1.7-.4 1.6-.1 2.4 0 1 .2 2.1.2 3.1.4 1.6.2 3.3.6 4.8 1.1.6.3 1.2.5 1.8.9.5.3 1.1.7 1.4 1.2.3.4.6 1 .4 1.6-.2.7-1 1.2-1.7 1.4-.6.1-1.2-.1-1.8 0-.6 0-1.2.1-1.8.3-1.2.4-2.2 1.1-3.3 1.7-1 .6-2 1.2-3 1.9-.8.5-1.6 1.2-2.6 1.3l.8.8s.1-.2.1-.3q.2-.4.4-.7.4-.6.8-1.1 1.2-1.3 2.6-2.2c1.7-1.1 3.4-1.8 5.4-2 1.7-.2 3.6-.1 5.1.8.7.4 1.3 1.1 1.5 1.9v.1c.1.1 0-.1 0 0q.1 0 0 .1s.1-.2.1-.1c-.1.1-.1.3-.1.1v.1s0-.1 0 0l-.1.1-.2.1q-.1.1-.2.1c-.1.1 0 0 0 0q-.1 0-.1.1c-1 .3-2.1.5-3.1.7-1.3.2-2.7 0-3.9-.6V16c.9-.5 2.1-.7 3.2-.9q2.2-.3 4.4-.8c1.2-.2 2.4-.5 3.6-.6.6-.1 1.2-.1 1.7 0q.2 0 .3.1c.1 0 .4.2.4.2-.1 0-.1-.2-.1-.2 0-.1.1-.2 0-.1q0 .1-.1.2-.2.1-.3.2-.3.2-.5.5-.7.6-1.5 1c-1.2.6-2.4.9-3.6 1.3-2.6.7-5.4 1.3-8.2 1-.5 0-1.1-.1-1.6-.3h-.1s0-.1-.1-.1c.1 0 .1.2.1.2.1.1 0 0 0-.1 0 0 0 .1.1 0q0-.2.1-.3.4-.6.9-1.2l.6-.6c.1-.1.2-.1.3-.2h.1c.2-.1-.1 0 .1-.1l-.6-1.4c-1 .7-2.1 1-3 1.6-.9.6-1.5 1.5-2 2.4-.5.8-.9 1.5-1.5 2.2-.5.6-1.2 1.5-2 1.7-.3 0-.4-.1-.6-.3-.3-.3-.5-.7-.7-1-.6-.9-1-1.9-1.3-3-.1-.6-.2-1.1-.7-1.6-.3-.2-.7-.4-.9-.7-.1 0-.1-.2-.1-.1.1.1 0 0 0 0v-.2c0 .2 0 0 0 0v-.5c0-.1 0 0 0 0v-.1q.1-.3.1-.6c.3-.8.6-1.6 1.1-2.3.2-.4.4-.8.6-1l.3-.3.2-.2c.1-.1-.1.1 0 0h-.8l.4.2c.2.1 0 0 .1.1q.1.1.2.1c0 .1.1.2.1.1-.1 0 0 .1 0 .2q.1 0 .1.1t.1.1c-.1 0-.1-.1-.1 0q.1.2.1.4c.1.1 0-.2 0 0q.1.1.1.2c0 .1-.1.5 0 .3q-.1.2-.1.4l-.2.4v.1s0-.1 0 0q0 .1-.1.2-.2.4-.5.7c-.1.2.1 0 0 .1l-.2.2-.3.3q-.1.2-.3.3s.1-.1 0 0l-.2.2-.4.2h-.2c.2 0 .1 0 0 .1h-.9c.2 0 .1 0 0-.1h-.1c.2.1 0 0 0-.1q-.1 0-.2-.1s0-.1 0 0c.1.1 0-.1 0-.1-.4-.5-.5-.9-.4-1.6v-.2c0-.1 0 0 0 0v-.2q.1-.3.1-.5c.1-.4.3-.8.4-1.1.4-.7.8-1.5 1.3-2.1.5-.7 1.2-1.3 1.8-1.7q.2-.2.5-.3c.1-.1.3-.2.4-.2.1-.1.3-.1.4-.2h.3s.1 0 0 0h.7q.2 0 .4.1c.3.1.6.2.9.5-.1-.1 0 0 .1 0q0 .1.1.2c.1 0 .2.2.1 0q0 .1.1.3s.1.1 0 0q.1.1.1.2v.2s.1.1 0 0c0-.2 0 0 0 0v.7q-.1.1-.1.2c-.1.2 0 0 0 .1q-.1.2-.3.4l-.2.4c.1-.1 0 0-.1 0l-.2.2q-.1.2-.3.4-.1.1-.2.1c-.1.1 0 0 0 0q0 .1-.1.1l-.4.2-.2.2h-.1c-.1.1.1 0 0 0q-.2.1-.4.1-.1.1-.2.1h-.1c-.2 0 .1 0 0 0h-.5s.1 0 0 0h-.2q-.1-.1-.2-.1c.1 0 0 0 0 0q-.1-.1-.2-.1c0-.1-.1-.1-.1-.1.1.1 0 0 0 0-.1-.2-.2-.2-.3-.3 0-.1-.1-.4-.1-.5 0-.3 0-.8.1-1.2.1-.8.4-1.7 1-2.3.3-.3.7-.5 1.2-.6.5-.1.8.1 1.2.4.5.2 1 .5 1.6.5.4.1.8-.4.8-.8s-.4-.7-.8-.8z"/><path class="c" d="M180.7 169.4c-2.3.4-4.7.6-7 .9q-2.9.4-5.7 1.1c-1.3.4-3 .9-3.1 2.5-.1 1.1.9 1.6 1.8 1.8 1.2.2 2.3.1 3.5-.1.8-.1 1.6-.2 2.4-.5 1.9-.5 3.5-1.9 4.9-3.2q1.2-1.1 2.4-2.1c.8-.7 1.5-1.5 2-2.5.6-1 1.1-2 1.8-2.9.8-.9 1.7-1.7 2.6-2.5.4-.3.9-.6 1.3-1 .4-.5.8-.9 1.1-1.4q.5-.6 1.1-1.1c.4-.3.8-.7.9-1.2.2-.5-.1-.9-.5-1-2.4-.7-5 .7-6.9 2-.9.6-1.9 1.4-2.7 2.2-.9 1.1-1.6 2.3-2.4 3.5-.7 1.2-1.4 2.3-2.5 3.2-.6.5-1.2 1-1.8 1.4-.3.2-.5.4-.8.6-.3.1-.6.3-.7.6-.4.6-.3 1.4.2 1.9.4.4 1 .6 1.5.7 1.5.4 3.1.6 4.7.6 1.7 0 3.6-.1 5.3-.3 1.7-.2 3.4-.6 4.9-1.4.7-.3.4-1.5-.4-1.4-1.6 0-3.1 0-4.5.8-1.3.8-2.8 1.5-3.5 3-.5.9-.8 2-.2 3 .4.8 1.2 1.2 1.9 1.7q.4.2.7.4s.3.2.1.1q.2.1.3.2.1.2.3.3s0 .1-.1 0l.2.2q0 .1.1.3c-.1-.2 0-.1 0 0q.1.1.1.2.3-.5.5-1c0 .1-.4 0-.5 0l-.6-.2c-.5-.2-1-.5-1.4-.9-.8-.6-1.5-1.3-2.2-1.9-.8-.7-1.6-1.2-2.4-1.8q-.6-.5-1.1-1c-.3-.3-.5-.7-.6-1.1q-.1.3-.1.6c.1-.2.3-.3.5-.4.4-.1.6-.1.9-.1.8 0 1.4.1 2.2.3 2.1.4 4.1.8 6.2 1.3q3.3 1 6.3 2.6 1.4.7 2.8 1.6.4.3.7.5c.1.1.4.3.2.1q.3.3.6.5l1.8 1.5c.5.3 1.2.8 1.8.5.3-.1.6-.3.6-.7 0-1.6-.4-3.2-1-4.7s-1.3-3-1.8-4.5c-.5-1.6-.9-3.2-1.5-4.7-.5-1.2-1-2.4-1.6-3.5-.6-1-1.4-1.9-2.6-2.4q-.4-.2-.9-.3c-.5-.1-.8.1-1.1.5-.3.4-.5.9-.6 1.4-.2 1.1-.1 2.3.1 3.5.1 1.1.4 2.2.7 3.3q.6 1.8 1.1 3.5c.4 1.5.9 3.1 2 4.3.5.5 1.6-.1 1.3-.8-.8-2.4-1.6-4.7-2.6-7q-.7-1.6-1.5-3.2c-.4-.9-.9-1.9-1.6-2.7q-.5-.7-1.1-1.2c-.4-.3-.8-.6-1.3-.7-1.1-.2-1.9.8-2.2 1.7-.3.8-.3 1.9 0 2.7.3.9 1.1 1.5 1.9 1.8.9.3 1.7.4 2.6.4.8.1 1.7.1 2.5.1s1.6-.1 2.4-.5c.7-.4 1.3-1.1 1.6-1.9.9-1.8.9-3.9.7-5.9-.1-.8-.2-1.7-.6-2.4-.3-.4-.6-.7-1.1-.7q-.5 0-.9.3c-1.1.5-1.8 1.9-2.2 3-.5 1.3-.8 2.8-.8 4.2 0 .5 0 1.1.3 1.6.5 1 2 .4 2.6-.1 1.4-1.2 1.7-3.3 1.9-5.1.1-1.2.2-2.5-.1-3.7-.1-.4-.3-.9-.4-1.4 0-.6.2-.7.5-1.2.7-.9.2-2-.6-2.7-.5-.3-1-.7-1.5-.4-.4.2-.6.6-.7 1-.2.7-.2 1.5-.2 2.2q.1 1.3.2 2.5c.3 2.3 1 4.4 1.9 6.5.9 2.2 2.2 4.2 3.3 6.3.5 1 .9 1.7 1.2 2.6.3.7.7 1.6 1.7 1.6 1.1 0 1.3-1.5 1.4-2.4.1-.9 0-1.9-.2-2.8-.2-.9-.4-1.9-.7-2.8-.2-.8-.4-1.7-.5-2.5 0-.6 0-1.2-.1-1.8 0-.3-.2-.5-.3-.8 0-.1-.1-.2 0-.2q-.3.1-.5.3c.1 0 .2 0 0 0h.1s.3.1 0 0h.1q.1.1.2.1c.1 0-.2-.1 0 0q.1.1.3.2s.2.1 0 0q.1.1.2.1l.3.3q.3.3.6.7c-.1-.1 0 .1 0 .1l.2.2q.1.2.3.4.3.4.5.9.6.9 1.1 1.9.7 1.4 1.3 2.8c.8 1.7 1.8 3.4 2.7 5 1.3 2.4 2.5 4.8 3.2 7.4q.8-.3 1.5-.6c-1.9-3.4-4.4-6.3-6.5-9.6q-.7-1.2-1.4-2.5l-1.2-2.7c-.8-1.9-1.9-3.6-3.1-5.2-.4-.6-1.1-1.3-1.2-2.1-.1-.3 0-.6.1-.8.1-.2 0 0 .1-.1-.1.1 0 0 .1 0h-.1q.2 0 0 0h.2c-.2-.1.1 0 .2 0 .2.1-.1 0 0 .1q.1 0 .2.1c.3.1.4.2.7.5.3.2.5.6.7.9q.4.7.9 1.4 1.7 2.7 3.2 5.6c1 1.9 2.2 3.8 3.3 5.7 2.7 4.3 5.5 8.5 8.3 12.8.1.2.4.4.7.4 1.6-.2 1.6-2.3 1.6-3.6q-.1-1.1-.3-2.2c0-.4 0-.7-.1-1.1-.1-.3-.5-.6-.9-.5-.3 0-.7.4-.7.8q.8-.1 1.6-.3c-.5-2.6-1.2-5.3-2.2-7.7q-.5-1.1-1.1-2.2c-.3-.8-.7-1.5-1.2-2.2-.5-.7-1.3-1.5-2.3-1.2-.2.1-.5.3-.5.6-.4 2.1-.4 4.2.1 6.2s1.4 3.9 2.3 5.7c1 1.9 2 3.6 3 5.4.5.9 1.1 1.8 1.5 2.7q.6 1.5.2 3c-.4 1.3-1.1 2.5-1.7 3.8q-.3.8-.6 1.5c-.1.4-.2.7-.6.8h.8c-1.1-.6-1.7-1.8-2.3-2.8q-1.2-2.1-2.3-4.2c-.8-1.5-1.6-2.9-2.4-4.3-.8-1.4-1.6-2.7-2.3-4.1-.5-.9-.8-2.1-1.7-2.6-.6-.3-1.5-.3-1.8.4-.3.6-.5 1.2-.6 1.9-.5 2.7-.2 5.5.1 8.2.4 3.5.8 7.1 1.8 10.5q.5-.4 1.1-.9c-.4-.2-.8-.5-1.1-1q-.2-.3-.3-.6c-.2-.4-.2-.8-.4-1.1-.7-1.4-1.7-2.6-2.7-3.8-.9-1.2-1.9-2.3-2.9-3.4-.9-1-1.8-2.1-2.9-3-1.2-1.1-2.5-2-3.9-2.7-.3-.1-.6-.2-.8 0-1.4 1-1.2 2.8-.8 4.3.3 1.4 1 3 2.2 3.9.5.3 1.1-.2 1.2-.7 0-1.4-1.4-2.5-2.4-3.3-1.1-.9-2-2.4-3.4-3-.7-.3-1.5.3-1.1 1.1 1.1 2 2.4 4 3.9 5.7 1.3 1.6 2.9 2.9 4.5 4.2.7.6 1.6 1.2 2.5 1.5.4.2.9.3 1.3.2.3 0 .6 0 .8-.1.3-.2.5-.5.6-.8.5-1.9-.1-3.8-.9-5.5-.9-1.9-2.2-3.7-3.7-5.2-.5-.5-1.3-.1-1.4.6 0 .8.1 1.7.4 2.6q.4 1.2.9 2.5.9 2.6 1.9 5.2 2.1 5.2 4.3 10.3 1.3 2.8 2.7 5.7c.2.4.7.4 1 .2 1.1-.5 1.6-1.8 1.9-2.8.3-1.4.5-2.8.6-4.2 0-1 0-2.1.1-3.1 0-1.4.2-2.8.2-4.2.1-1.7.1-3.6-.8-5-.2-.3-.6-.5-.9-.4-.3.1-.6.4-.6.8q.4 3.1 1 6.3c.3 1.7.4 3.6 1.3 5.1.2.4.7.5 1.1.3 1.6-.7 2.9-2.1 3.9-3.6 1.1-1.6 1.9-3.4 2.4-5.2.6-1.8.6-3.7.4-5.5-.2-2.2-.7-4.4-1.5-6.4-.9-2.3-2.1-4.4-3.6-6.3-.3-.3-.8-.2-1.1 0-1 .9-1.2 2.2-.7 3.4.3.7.3 1.5.4 2.3l.4 2.2c.5 2.6 1 5.2 1.8 7.8.4 1.3 1 2.6 1.8 3.8.2.3.5.4.9.3.3 0 .6-.4.6-.7 0-1.2-.4-2.4-.8-3.5-.5-1.2-1.1-2.3-2.2-3.1-.2-.1-.6-.1-.8 0-.8.6-.8 1.4-.9 2.3l-.3 3c-.1 2.2-.4 4.3-.5 6.5v1.5c0 .3.1.7-.1 1-.3.6-.9 1.1-1.4 1.5q-.9.7-1.9 1.3c-.6.3-1.3.8-2 .8-.4-.1-.8-.2-1.2-.1-.4 0-.8.1-1.2.4-.7.4-1.1 1.1-1.3 1.8q-.1.4-.3.9c-.1.3-.2.7-.3 1 0 .8.6 1.4 1.4 1.6.6.2 1.3.1 1.9 0q1.3-.1 2.5-.6c1.7-.6 3.1-1.6 4.4-2.7 1.4-1.3 2.7-2.7 3.8-4.2 1.2-1.6 2.4-3.4 2.6-5.5 0-.5-.6-.9-1-.7-1.2.4-2.1 1.4-2.8 2.5-.6 1-1.2 2.4-.5 3.5.3.4.8.5 1.2.2 1.6-1.5 1.7-3.7 1.5-5.7-.3-2.3-.8-4.6-1.3-6.8q-.4-2.2-1-4.4c-.3-1-1.8-.6-1.6.4.3 1.4 1 2.8 1.8 4.1.8 1.2 1.7 2.4 2.7 3.4.5.5 1 .9 1.3 1.4.4.6.5 1.4.5 2.1-.1 1.1-.9 2-1.5 2.9-.3.5-.5 1.1-.5 1.6.1.6.5 1.2 1.1 1.4 1 .3 2.1-.3 2.9-.8q.6-.4 1.2-.9.2-.1.3-.3c.1 0 .3-.1.2-.1-.1.1.1 0 .1 0l.2-.2.4-.4c.9-1 1-2.3 1-3.6 0-.9-.1-1.7-.3-2.6l-.9-2.1q-.2-.9-.3-1.8-.1-.5 0-1v-.3q.1-.1.1-.2c-.1.1 0 0 0-.1l-1.2.2c.1.1-.1-.1 0 0q.1.1.1.2c0-.1.1.2.1.2v.4q.1.2 0 .5c0 .7-.1 1.3-.2 2-.3 1.4-.6 2.7-.9 4.1-.4 1.8-1 3.4-2 5-.4.4-.5.6-.9 1.1q-.7.8-1.5 1.5c-.5.3-1.1.8-1.7.9-.5.2-.9.1-1.3-.3-.7-.7-1.8.4-1.1 1.1 2.6 2.5 6-1.1 7.5-3 1.1-1.5 1.8-3.3 2.3-5 .2-.9.3-1.7.5-2.5l.6-2.2c.3-1.6.8-3.8-.4-5.1-.3-.4-1-.3-1.2.1-.6 1-.4 2.4-.3 3.5q.2.7.4 1.5c.3.6.6 1.2.8 1.9.2.7.2 1.3.2 2 0 .5.1 1.1-.1 1.6-.1.5-.4.9-.8 1.2l-.4.4c-.1.1 0 0 0 0q-.1 0-.1.1l-.4.2q-.5.5-1.2.8c-.4.3-.7.5-1.2.5h-.1.1c-.1 0-.1 0 0 0 0 0-.1-.1 0 .1 0-.1-.1-.2 0-.1 0 0 0 .2 0 0 0-.1 0 .1 0 0v-.2q.1-.1.1-.2.2-.3.4-.7c.3-.3.5-.7.8-1.1.3-.6.6-1.4.6-2.1.2-1.5-.4-2.9-1.4-4-1.1-1-2.1-2.1-3-3.4-.9-1.2-1.5-2.6-1.8-4.1l-1.6.4c.9 3 1.5 6 2 9.1.4 2 1 4.6-.7 6.2l1.2.2v-.1q0 .1 0 0t-.1-.1q.1.1 0 0v-.2s.1-.2.1-.1c-.1.1 0-.1 0-.1v-.2c.1-.4.3-.8.6-1.2q.4-.6.9-1.1.2-.1.3-.2l.2-.2q.1-.1.3-.1c0-.1.3-.2.1-.1l-1-.8c-.1 1.6-1.1 3-2 4.2q-1.3 1.9-3 3.5c-2 2-4.6 3.8-7.6 3.8h-.7l-.1-.1s.1.2 0 0v.1q0 .1 0 0c.1 0 0 .1 0-.1q.1-.1.1-.2.1-.2.1-.4.2-.4.3-.9c.2-.4.4-.8.8-1 .3-.1.6-.1 1 0q.7.1 1.3-.1c1.4-.4 2.7-1.3 3.9-2.2.6-.4 1.1-.9 1.6-1.5.5-.7.6-1.4.6-2.2 0-2.2.2-4.4.4-6.7q.1-1.6.3-3.3 0-.7.1-1.3v-.5q0-.1.1-.2c0 .1.1 0 0 0h-.8c.3.2.6.6.9 1q.4.6.7 1.3.3.8.4 1.6c.1.5.2.8.2 1.3q.7-.2 1.5-.4c-1.4-1.8-2-4.1-2.5-6.3q-.8-4-1.5-8c0-.4-.1-.8-.2-1.2-.1-.3-.3-.6-.3-.9-.1-.5.1-.8.5-1.2h-1.1c2.5 3.1 4 7 4.6 10.9.2 1.7.3 3.5-.1 5.1-.4 1.7-1.1 3.3-2 4.8-.9 1.5-2.2 3-3.8 3.7q.5.2 1 .3c-.3-.6-.5-1.4-.6-2.2q-.3-1.3-.5-2.6-.6-2.9-.9-5.8-.8.2-1.5.4l.2.4c.1.1 0 0 0 0q.1.1.1.2.2.5.2 1c.1.6.2 1.4.2 2.1 0 1.5-.2 2.9-.3 4.3-.1.9-.1 1.8-.1 2.7q0 1-.1 1.9c-.1.7-.1 1.2-.3 1.9l-.2 1q-.1.2-.1.4-.1.1-.1.2c-.1.2 0 0-.1.1l-.2.4q0 .1-.1.2c-.1.1.1-.1 0 0q-.1.2-.3.3c.2-.2.1 0 0 0q-.1 0-.2.1.6.1 1.1.3c-1.6-3.3-3-6.6-4.4-10-1.4-3.3-2.8-6.6-4-10-.4-.9-.7-1.9-1-2.8-.2-.5-.3-.9-.4-1.4q-.2-.6-.1-1.3-.7.2-1.3.5c1.3 1.3 2.4 2.8 3.2 4.5.8 1.5 1.5 3.3.8 4.9q.3-.2.6-.5c-.4.1-.6.1-1 0l-1.2-.6c-.8-.5-1.5-1.2-2.2-1.8-.8-.7-1.6-1.4-2.4-2.2q-1.2-1.3-2.2-2.7-1.2-1.7-2.1-3.5l-1.1 1.1c1.2.5 2 1.8 3 2.7q.7.5 1.3 1.1c.2.2.3.4.5.6q0 .1.1.2s.1.2 0 .1l.1.1v.1q.6-.4 1.2-.7c.1.1-.1-.1-.2-.1 0 0-.2-.3-.1-.2q-.3-.3-.5-.7c-.3-.6-.5-1.1-.7-1.8-.2-.6-.3-1.1-.2-1.8v-.2c0-.1 0 .1 0 0q0-.2.1-.4c0-.1-.1.1 0 0q0-.1.1-.2c.1-.2-.1.1 0 0 .1 0 .2-.2.1-.1h-.8c2.5 1.2 4.5 3.2 6.3 5.3 1 1.1 2 2.2 2.9 3.3l1.4 1.8q.3.5.6.9c.2.3.5.7.6 1 .2.3.2.7.3 1q.2.5.5.9.7.9 1.6 1.5c.6.3 1.4-.2 1.2-.9-.8-2.8-1.2-5.7-1.5-8.6-.3-2.4-.7-4.8-.6-7.2 0-1.3.2-2.7.8-3.9q-.2.2-.4.5s-.2 0 0 0q-.1 0-.1-.1c.1.2-.2-.1 0 .1l.1.1c.2.1.3.5.4.7q.6 1.2 1.3 2.4c1 1.8 2.1 3.6 3.1 5.4 1 1.9 1.9 3.8 3 5.6.5.8.9 1.5 1.4 2.3q.4.5.9.9c.3.3.9.8 1.4.7.9-.2 1.3-1.1 1.6-1.8q.4-1.3 1-2.4c.4-1 .9-1.9 1.2-2.9q.4-1.4.1-2.9c-.2-.9-.6-1.8-1.1-2.6l-1.2-2.2c-.9-1.5-1.8-3-2.6-4.6-1.7-3.3-3.1-7-2.3-10.8q-.3.3-.6.5c.2 0-.1 0 0 0 0 0-.1 0 0 0l.1.1c.1.1-.1-.1 0 0 .3.2.4.4.6.7.4.6.8 1.3 1.1 2 .9 1.8 1.6 3.5 2.2 5.4q.5 2 .8 4.1c.2.8 1.7.6 1.6-.2l-1.6.2c.1.2.1.5.2.8v.4c0-.2 0 0 0 0q.1.1.1.3 0 .5.1.9v1.7c0 .1-.1.4 0 .1q-.1.2-.1.4 0 .1-.1.2c0 .2.1-.2 0 0 0 0-.1.2 0 0 .1-.1 0 .1 0 .1.2-.2 0-.1 0-.1h.2l.6.4q-3.9-6-7.7-12.1c-1.3-1.9-2.5-3.9-3.6-6-1.1-2-2.2-4-3.4-5.9-.9-1.5-1.8-3.2-3.5-3.8-.7-.2-1.5-.1-2 .4-.6.7-.8 1.8-.5 2.7.3.9 1 1.6 1.5 2.4q1 1.3 1.8 2.7c1.1 1.8 1.7 3.8 2.7 5.7 2.2 4 5.3 7.4 7.5 11.4.5.7 1.7.2 1.5-.6-1.1-3.6-2.9-6.8-4.7-10.1-.5-.9-1.1-1.9-1.5-2.9q-.5-1.1-1.1-2.2-.7-1.5-1.5-2.8c-.5-.8-1.1-1.7-1.9-2.4-.6-.5-1.5-1-2.3-.8-.5.1-.7.5-.8.9-.1.5.1.9.3 1.3.3.8.1 1.6.2 2.4.2 1.6.7 3.1 1.1 4.6.3 1.3.6 2.9-.1 4.1l.6-.4h-.1c.2 0 0 .1 0 0 0 0 .2.2 0 0-.1-.1 0 0 0 0-.2-.3-.2-.4-.3-.7q-.4-1-.9-2c-.8-1.7-1.8-3.2-2.7-4.8-1.5-2.9-2.6-6.2-2.8-9.5v-2.4c0-.1.1-.4.1-.3v-.1q0 .1 0 0-.1.1 0 .1h-.8c.3.1.6.3.8.7v.1s.1-.1 0 0c-.1.2-.3.4-.4.6-.7 1-.2 2.2.1 3.3.2 1.1.1 2.4 0 3.6-.1.9-.3 1.8-.6 2.5-.2.4-.4.8-.7 1.1-.1 0-.3.2-.4.2-.2.1-.3.1-.5 0q.3.2.7.4c-.1-.1 0 .2 0 0q-.1-.1-.1-.2v-.3q-.1-.5 0-1.1v-.3q0-.1 0 0v-.2q.1-.3.1-.6.2-.6.4-1.3c.2-.8.5-1.4 1-2.1q0-.1.1-.2-.1.2 0 0 .1-.1.2-.1 0-.1.1-.2c.1-.1-.1 0 .1-.1q.1 0 .2-.1h-.1.2q-.1 0 0 0h.2l-.6-.2c.1.1 0 0 0-.1q.1.1.1.2l.1.1.2.8c.1.4.1.9.2 1.4.1 1.2.1 2.4-.2 3.6-.2.5-.4 1.1-.8 1.6q-.4.5-.9.6c-.9.3-1.9.2-2.9.2s-2.1 0-3-.4c-.4-.1-.7-.4-.9-.7v-.2q-.1-.2-.1-.4v-.7q0-.4.2-.7c0-.1.1-.2.3-.4 0-.1.1-.1 0-.1.1 0 .1.1.2.1q.4.3.7.6c.9.9 1.6 2.1 2.1 3.4.7 1.5 1.4 3 2.1 4.6l1.8 5q.7-.4 1.3-.8c-.7-.8-1.1-1.9-1.5-3-.3-1-.5-2-.8-3-.6-1.8-1.2-3.7-1.2-5.6-.1-.5 0-1 .1-1.5v-.3s.2-.3.1-.2q.1-.1.1-.2.1-.1.1-.2c0 .1.1 0 .1 0l-.8.2c2.3.4 3.1 2.9 3.9 4.8.7 1.4 1.1 2.9 1.5 4.4.5 1.6 1.1 3.1 1.7 4.6.7 1.5 1.2 3.1 1.2 4.8l.6-.8c-.1.1.2 0 .1 0h.1c-.1 0-.2-.1-.1 0q-.3-.1-.5-.3c-.5-.3-.9-.6-1.2-.9-.9-.7-1.8-1.4-2.8-2-3-2-6.4-3.4-9.8-4.3-1.7-.5-3.4-.8-5.1-1.1-1.2-.3-2.5-.5-3.7-.3-.6.1-1.2.3-1.6.8-.4.3-.6.6-.4 1.1q.1.5.4.9c.7 1.2 1.9 2 3 2.7 1 .8 2 1.8 3 2.6 1.3 1 2.7 2 4.4 1.8.4-.1.6-.6.5-1-.2-.9-.8-1.6-1.6-2.1q-.5-.4-1-.7-.2-.1-.4-.3-.2-.1-.3-.1c-.1-.2.1 0 0 0q0-.1-.1-.1l-.2-.2c0-.1-.2-.2-.1-.1.1 0-.1-.2-.1-.2v-.1c0 .1 0 .1 0 0q-.1-.1-.1-.3c0 .3 0 0 0 0v-.2c0 .2 0 0 0 0q.1-.2.1-.4c.4-1.1 1.5-1.8 2.6-2.4.7-.4 1.3-.8 2-.9.8-.2 1.5-.2 2.3-.2l-.4-1.4c-2.4 1.2-5.3 1.3-8 1.4-1.4.1-2.9.1-4.3-.2q-.9-.2-1.7-.4c-.1 0-.3-.1-.3-.1.1.1-.2-.1-.1 0l-.1-.1s.1-.2-.1.1c0 .1 0 0 0 0q.1-.1.2-.1.1-.1.3-.2l.9-.6q.9-.7 1.7-1.4c1-.8 1.8-1.9 2.5-3s1.3-2.2 2.1-3.2c.6-.8 1.3-1.5 2.1-2.1 1-.7 2.1-1.4 3.2-1.8 1-.5 2.2-.8 3.2-.5l-.6-1c-.1.3-.4.5-.6.7-.4.3-.7.6-.9.9-.3.4-.6.8-.9 1.1-.4.4-.7.7-1.1 1-1.6 1.2-3.1 2.6-4.1 4.3-.5.8-.9 1.7-1.5 2.5-.5.9-1.3 1.5-2.1 2.1-1.4 1.2-2.7 2.7-4.4 3.7-.8.5-1.7.7-2.6.9q-.3.1-.6.1-.2 0-.4.1h-.3q-.8.1-1.6.1h-1c.2 0-.1 0-.2-.1h-.2q-.1 0-.2-.1s.2.1.1.1l-.1-.1c-.1-.1 0 .1 0 0-.1-.1 0 .1 0 .1v-.3c0 .2.1-.1.1-.2 0 .1.1 0 .1 0l.4-.2c.2-.1.6-.2.9-.3q2.8-.9 5.7-1.2c2.5-.3 5-.5 7.4-1 .4-.1.6-.6.5-1-.1-.4-.5-.6-.9-.5zm-86.8-8.2c1.3-.1 2.6-.4 3.8-.7l1.4-.4c.4-.1.9-.3 1.2-.2q-.3-.4-.6-.9c.1-.2 0 0-.1.1q0 .1-.1.2-.2.4-.4.7c-.3.5-.6.9-.7 1.4-.4 1.1.4 2.1 1.5 2.3 1 .3 2.2.1 3.2 0 1.6-.1 3.2-.2 4.9-.3.8 0 1.7 0 2.6-.1l1.4-.2c.2-.1.4-.1.6-.2 0-.1.1-.1.1-.1q-.1-.4-.2-.7c-.4 1.2-1.2 2.3-1.8 3.4-.3.7-.5 1.3-.8 2q-.4 1-.7 2c-.1.4 0 .7.3.9.6.4 1.3.3 1.9.2.7-.1 1.3-.3 2-.5.5-.2 1.1-.3 1.6-.6.3-.2.7-.5 1-.8.2-.1.7-.5.9-.5l-.8-.6v.3q0 .2-.1.4c-.1.3-.3.6-.5.9-.4.6-.9 1.2-1.4 1.8-1.2 1.6-1.9 3.4-3.2 4.8-.3.2-.3.6-.1.9.3.9 1.4.8 2.2.7 1-.2 2-.6 2.9-.9l3.8-1.6q.9-.4 1.9-.8c.5-.3.9-.5 1.5-.7q.8-.3 1.7-.6.3-.1.6-.1c.3-.1-.1 0 .1 0q.1-.1.3 0l-.8-.8v.3c0-.2-.1.1-.1.2-.1.2-.1.4-.2.6q-.4.7-.8 1.3c-.6.8-1.2 1.5-1.7 2.3-.9 1.1-1.8 2.4-2.7 3.5-.8 1-1.7 2-1.4 3.3.1.5.6.7 1 .6 2.1-.3 4.1-1.3 6.1-2.3q3-1.5 6.2-2.8 3.2-1.3 6.5-2.4c2.2-.7 4.4-1.3 6.6-2.2.4-.2.9-.5 1.3-.7.4-.2.5-.2.9-.3.1-.1.4-.1.2-.1h.2q-.2-.1-.1 0-.1-.1-.2-.1l-.2-.6c-.1 2.2-1.6 4.1-2.7 5.9-.7 1-1.2 2.1-1.9 3.1q-.4.7-1 1.4c-.4.5-.8 1-.9 1.6-.1.5.2.9.8 1 1.6 0 3.2-.8 4.3-1.9.6-.6-.2-1.7-1-1.2-.6.3-1.3.4-2 .6-.8.2-1.5.5-2 1.1-.8.8.4 1.9 1.1 1.1.4-.4 1-.6 1.6-.7.8-.2 1.5-.4 2.1-.8q-.5-.6-.9-1.2c-.9.8-2.1 1.4-3.2 1.4l.8 1c.1-.6.7-1.1 1-1.6q.8-1.1 1.4-2.3c.8-1.3 1.6-2.5 2.4-3.8.8-1.3 1.5-2.7 1.6-4.2.1-.4.1-.8-.2-1.1-.2-.2-.5-.3-.8-.3-.5 0-.9.1-1.3.3l-1.4.6q-.2.2-.4.3h-.1v.1c.1-.1-.1 0-.1 0q-2.5.9-5 1.7-5 1.6-9.8 3.6-2.7 1.2-5.3 2.5c-1.6.8-3.2 1.5-5 1.8q.4.3.9.5c-.1-.3.3-.8.5-1.2.3-.4.7-.9 1.1-1.3q.7-1 1.4-1.9.3-.5.7-1l.3-.3c0-.1-.1 0 .1-.1.6-.8 1.2-1.6 1.8-2.5.5-.8 1.1-1.8 1-2.8 0-.5-.3-.8-.7-.8-.8-.1-1.7.3-2.4.5-1.2.5-2.3 1-3.5 1.5q-.9.4-1.8.7c-.5.3-1.2.6-1.7.8-1 .4-2 .8-3.1 1.1q-.3.1-.7.2s-.2 0 0 0h-.5c-.2 0 .1 0 0 0l-.1-.1c.1 0 .1.1.1.1-.2-.1.1.1 0 0s.1.2 0 0q0 .5-.1 1c1.5-1.5 2.3-3.5 3.6-5.2.9-1.2 2.4-2.8 2-4.5 0-.3-.4-.6-.7-.6-.9.1-1.5.7-2.2 1.2-.5.3-.9.5-1.4.7q-.9.3-1.8.5c-.4 0-.5.1-.8.1h-.4c.3 0 0 0 0 0s.2.1 0 0l.4.8q.3-1 .7-2c.3-.6.5-1.2.8-1.8.6-1.2 1.4-2.3 1.8-3.6.1-.3 0-.6-.2-.8-.2-.2-.5-.4-.8-.4-.5-.1-.8 0-1.2.2-.7.2-1.4.3-2.1.3-1.5.1-3 .1-4.5.2l-3.9.3c-.5 0-.8 0-1.1-.1q-.1-.1-.2-.1s.1.1 0 0c0 0-.1-.1-.1 0 .1 0 0-.1 0-.1s-.1 0 0 0q0 .1 0 0s0-.1 0 0c0-.4.3-.8.6-1.3.3-.4.5-.8.7-1.3.2-.4-.2-.9-.5-1-1-.3-2 .2-3 .4-1.2.3-2.5.7-3.8.8-.4 0-.8.3-.8.8 0 .4.4.8.8.8zm91.4-41.3c-2.4 0-4.6.9-6.3 2.7-1.7 1.7-3 3.9-3.8 6.2-.4.9-.6 1.9-.3 2.9.2 1.1 1 2 2.1 1.7.9-.1 1.7-.9 2.3-1.5.7-.6 1.3-1.3 1.9-1.9q.9-.8 1.8-1.5c.6-.5 1.1-1 1.8-1.3 1.2-.5 2.5-.6 3.5-1.6.5-.5.1-1.3-.6-1.3-2.3-.1-4 1.6-5.5 3.2q-.5.5-1 1.1c-.4.3-.8.7-1.2 1.1-.8 1-.9 2.3-.7 3.5q.1.9.4 1.8c.2.5.4 1.1.7 1.5.6.8 1.5 1 2.4 1.4 1 .3 2 .6 2.9 0 .5-.3.8-.7 1.2-1.2l1.2-1.4c.8-1 1.7-1.7 2.9-2.1 1.1-.4 2.4-.7 3.1-1.6.6-.7-.1-1.7-.9-1.3-1 .6-2.1.8-3.1 1.2-1 .5-1.9 1.2-2.4 2.2-.8 1.9-.7 4.6 1.2 5.8.8.5 1.6-.8.8-1.4-.5-.3-.8-1-.9-1.7 0-.4 0-.8.1-1.2.1-.4.1-.7.3-1 .5-.7 1.2-1.1 2-1.4.9-.4 1.9-.6 2.8-1.1l-1-1.2c-.5.6-1.4.8-2.1 1.1-1 .3-1.9.7-2.7 1.3-.9.7-1.6 1.6-2.3 2.5-.3.4-.6.9-1 1.2q-.2.2-.5.1c-.5-.1-.9-.3-1.4-.4-.4-.2-.7-.2-.9-.4-.3-.1-.4-.2-.5-.5-.3-.5-.4-1-.6-1.5-.2-.8-.5-2 0-2.8.2-.4.5-.7.8-1q.5-.4 1-1c1.3-1.3 2.9-3.3 4.9-3.2q-.2-.7-.5-1.4c-.7.7-1.8.8-2.6 1.1-1.2.5-2.1 1.3-3 2-.8.7-1.7 1.4-2.4 2.2-.5.6-1.1 1.2-1.7 1.7-.1 0-.3.1-.4.2l-.4.2h-.1.1-.1c.1 0 0 0 0 0 .1-.1.1.1 0 0 0 0-.1-.1 0-.1 0 .1-.1 0-.1 0q-.2-.5-.2-1v-.3l.2-.8c.6-1.9 1.7-3.9 3.1-5.4.7-.9 1.5-1.6 2.5-2.1s2.1-.7 3.2-.7c1 0 1-1.6 0-1.6zM79.9 36.4c-.8 0-1.5.4-2 1-.2.2-.4.5-.6.7-.1.1-.2.1-.2.1-.3.2.1 0-.1.1q-.2.1-.4.1c-1 0-1.9-.7-2.6-1.1l-2.8-1.6c-1.9-1-3.8-1.9-5.6-3-1.8-1.1-3.5-2.3-5.3-3.5-1.8-1.1-3.6-2.3-5.5-3.3l-3-1.5-2.8-1.6c-3.7-2.1-7.7-3.5-11.3-5.7-.9-.6-2-1.1-3-1.5-1.1-.5-2.2-1-3.3-1.3-1.7-.6-3.8-.8-5.3-1.9-.3-.3-.8-.3-1.1 0-.3.3-.3.8 0 1.1 1.5 1.1 3.3 1.5 5.1 2 .9.3 1.7.6 2.6 1q1.5.5 2.9 1.2c.9.5 1.8 1.1 2.7 1.6q1.4.8 2.8 1.4c2 .9 3.9 1.7 5.8 2.8 1.9 1 3.8 2.1 5.7 3.1 2 1 3.9 2.1 5.8 3.3 1.8 1.1 3.6 2.3 5.4 3.5q1.3.9 2.6 1.6c1 .6 2 1 3 1.5q1.6.9 3.1 1.8c1 .5 2.1 1.3 3.2 1.6 1 .2 2.1 0 2.8-.8.2-.3.4-.5.6-.8.3-.2.4-.3.8-.3 1 0 1-1.5 0-1.6z"/><path class="c" d="M80.2 39.7c.2-1.5 1.1-2.7 2.2-3.6.6-.5 1.2-.9 1.8-1.3q1.2-.8 2.4-1.5t2.5-1.4c.7-.4 1.2-1 1.8-1.5.6-.6 1.3-.8 2-1.2.7-.4 1.3-1 2-1.4 1.4-1 3-1.9 4.1-3.2.2-.4.3-.8 0-1.2-.3-.2-.9-.3-1.2 0-.9 1.3-2.3 2.1-3.6 2.9-.6.5-1.2 1-1.9 1.4-.7.5-1.5.7-2.2 1.3-.6.5-1.1 1.1-1.8 1.5q-1.2.7-2.5 1.4c-1.5.9-3 1.8-4.4 2.9-1.3 1.2-2.5 2.7-2.7 4.4-.1.5.1.9.5 1 .4.1.9-.1 1-.5zm-8.4 27c-1.3 1.3-.7 3.3-.7 4.9 0 1.1-.2 2.2-.3 3.2-.2 1.2-.4 2.4-.5 3.6-.2 1.1-.4 2.2-.4 3.4-.1 1.1-.1 2.3-.1 3.5 0 1.1-.2 2.2-.4 3.3-.1 1.1-.1 2.2-.1 3.3 0 1.2.1 2.3 0 3.5-.1 1.1-.3 2.2-.4 3.4-.1 1.2 0 2.4 0 3.6 0 1.1-.1 2.3-.2 3.4s-.2 2.2-.3 3.4v7.2c0 1-.1 2-.1 3.1q.1.8.4 1.6c.2.6.2 1 .2 1.6-.1.6-.1 1.2.1 1.8.2.7.4 1.3.6 1.9.3.9.5 1.9 1.1 2.7.6.7 1.4 1.1 2.1 1.5.9.5 1.7-.8.8-1.4-.6-.3-1.2-.6-1.7-1.1 0 0-.1-.1-.1-.2q-.2-.2-.2-.4c-.2-.5-.3-.9-.4-1.4-.3-1-.9-2.1-.8-3.1.1-.6.1-1.1 0-1.6s-.3-.9-.4-1.3c-.2-.9 0-1.9 0-2.8.1-1.1 0-2.3 0-3.4 0-2.3 0-4.6.2-6.9.1-1.1.2-2.2.2-3.3.1-1.1 0-2.2 0-3.3 0-2.3.5-4.5.5-6.8 0-1.1-.1-2.2 0-3.3 0-1.1.2-2.2.3-3.3.2-1.1.1-2.1.2-3.2q0-1.7.2-3.3c.3-2.5.7-4.9 1-7.4q.1-1.6 0-3.1v-1.4c0-.3.1-.6.3-.8.7-.7-.4-1.8-1.1-1.1zM2.6 94.1c.8-.1 1.4-.6 2.1-1.1.6-.5 1.2-.9 1.9-1.2 1.5-.8 3.1-1.6 4.6-2.5q1.1-.7 2.1-1.5c.7-.5 1.2-1.1 2-1.5.7-.3 1.5-.6 2.2-1.1.7-.4 1.3-.9 1.9-1.5 1.3-1 2.7-1.7 4.1-2.5l4.8-2.8q1.2-.7 2.5-1.4c.7-.4 1.5-.8 2.3-1.3 1.4-.8 2.5-2.1 4-2.7 1.8-.8 3.3-2 4.8-3.2.7-.5 1.4-1 2.2-1.3.8-.3 1.7-.5 2.3-1.1.8-.7-.4-1.9-1.1-1.2-.5.5-1.2.6-1.8.8-.7.3-1.4.7-2.1 1.2-1.3 1-2.6 2.1-4.1 2.9-.7.4-1.5.7-2.1 1.1-.7.5-1.3 1-1.9 1.5-.7.5-1.4.9-2.2 1.3q-1.1.6-2.3 1.3-2.4 1.4-4.8 2.7-1.1.7-2.2 1.3c-.8.4-1.5.8-2.2 1.3-1.3.9-2.3 2.1-3.7 2.7-.8.4-1.5.7-2.2 1.2-.7.5-1.3 1-1.9 1.5-1.6 1.1-3.3 2.1-5 2.9-.9.4-1.7.8-2.5 1.3-.3.3-.6.5-.9.8-.2.2-.5.4-.8.5-.4 0-.8.3-.8.8 0 .4.4.8.8.8zm113.7-15.8c.6-1.1 1.2-2.1 1.9-3.1s1.5-1.8 2.2-2.8c.3-.5.6-1.1.7-1.6.1-.5.1-1 .2-1.5.4-1.2 1-2.3 1.4-3.4.9-2.4 1.8-4.8 3-7 .5-1 1.1-2.1 1.9-3 .7-.9 1.6-1.7 2.4-2.5.9-.8 1.8-1.6 2.5-2.5.9-.9 1.6-1.9 2.5-2.8l2.8-2.8c.8-.8 1.6-1.8 2.6-2.4.4-.3.9-.4 1.4-.6.6-.3 1.1-.6 1.7-.9.9-.4 2.1-.7 3.1-.9 1.1-.2 2.2-.3 3.3-.2.5 0 1.1 0 1.7-.2.5-.2 1-.4 1.6-.4.6 0 1.3.1 1.9 0 .7 0 1.3-.2 2-.2.6-.1 1.2-.1 1.9-.1.6-.1 1.2-.3 1.8-.4.5-.1 1.1 0 1.6-.1.6 0 1.2-.2 1.8-.3 1.3-.2 2.5-.2 3.8-.1h1.9c1 0 1-1.6 0-1.6H166q-.9 0-1.9.1c-.6.1-1.2.3-1.8.4-.7 0-1.3-.1-1.9 0-.5.1-1 .3-1.6.4-.6.1-1.3 0-2 .1-.6.1-1.3.2-1.9.2-.7.1-1.3 0-2 0l-1 .2c-.2.1-.5.2-.8.3-.5.2-1 .1-1.5.1-.6-.1-1.1 0-1.6.1-1.2.1-2.4.3-3.6.6l-1.6.6c-.5.3-1.1.6-1.6.8-.5.2-1.1.4-1.6.7q-.6.4-1.2 1c-1 .9-1.9 1.9-2.9 2.9-.9.9-1.9 1.8-2.7 2.8-.8.9-1.6 1.9-2.5 2.8-1.7 1.7-3.6 3.2-4.9 5.2-1.3 2.2-2.4 4.5-3.3 6.9-.5 1.2-.8 2.4-1.4 3.6-.2.5-.5 1.1-.8 1.7-.2.6-.3 1.2-.3 1.8-.2 1-.9 1.9-1.5 2.7-.8.9-1.6 1.9-2.2 2.9q-.5.8-1 1.7c-.5.8.9 1.6 1.4.8zm84.3 34.6c.7.8 1.7 1.3 2.5 1.9.9.6 1.7 1.4 2.5 2.1 1.7 1.7 3.5 3.4 5.3 4.9 1.7 1.5 3.6 3 5.2 4.5.8.8 1.6 1.5 2.1 2.4.6.9 1 1.9 1.4 2.9.4 1 .8 2.2 1 3.3.1.6 0 1.2-.1 1.7-.1.7-.2 1.4-.2 2.1h1.5v-6.5c.1-1-1.5-1-1.5 0v6.5c0 1 1.5 1 1.5 0 .1-1.2.5-2.3.4-3.5 0-1.1-.4-2.1-.8-3.2-.7-2.1-1.6-4.1-3.2-5.8-1.6-1.7-3.5-3.2-5.3-4.7-1.8-1.6-3.6-3.3-5.4-4.9-1-.9-1.9-2-3-2.8-.9-.7-2-1.2-2.7-2-.3-.4-.9-.3-1.2 0-.3.3-.2.7 0 1.1z"/></svg>