<svg version="1.2" xmlns="http://www.w3.org/2000/svg" viewBox="0 0 200 238" width="200" height="238"><style>.a{fill:#fff}.b{fill:#0fa6a6}.c{fill:#6fcfa1}.d{fill:#222221}</style><path class="a" d="M80.5 96s-39 5.9-41.8 15.9c-2.7 9.9-1.4 11 2 9.7 3.4-1.4-1.8 1 3.3 1.7l5.2.6 5.3 3s-7.7-8.2 6-5.3c13.7 3 30.5 11.4 37.5 11 7-.4 16.5-4.6 16.5-4.6l67.9 17s19.8-64.1 15.6-85.1c-4.2-21-14.4-31.4-17.2-32.2-2.9-.8-22.2-5.3-25.3-5.4-3 0-17.6-2.5-21.9 4.8-4.2 7.2-29.2 45.4-31.3 53.3-2.1 7.8-9.7 16.1-21.8 15.6z"/><path class="b" d="M142.2 71.1l-6.5 16.6 59.6 9.1 4.6-17zM80.5 96s8 26.7 5.3 29c-2.7 2.3 16.6 6.5 16.6 6.5L89.1 94.3zm28.2-17.7l-6 14.6 20.2 26.9 11.1-18.3z"/><path class="b" d="M122.7 49.5l-8.5 16 26.7 10.4 7.4-8.2zm4.5-13s33.3 16.2 68.2 22.7l-2.5-17-46.1-17.7zm2.9 68l-4.1 11.1s56.7 23.6 58.4 21c1.8-2.6 6.8-24.6 6.8-24.6s-39.2 5.6-61.1-7.5z"/><path class="a" d="M11.6 219.8s39 5.3 40.6-.4c1.5-5.7 8.3-27.5 8.3-27.5s12.9-11 15.2-11.2c2.3-.1-2.5 23-.6 35.8 1.9 12.7 27.5-5.5 27.5-5.5s-3.3-24.6 5.1-24.6c8.4 0 53.9 4 65.5-18.8l11.5-22.8-74.4-18s-8.1 7-24.9 1.6c-16.9-5.3-24.9-6.8-24.9-6.8s-8.3 2.4-11.3 2.3c-3-.1-5.2-.6-5.2-.6s-6.7-8.8-9.2-2.6c-2.4 6.2-23.2 99.1-23.2 99.1z"/><g style="mix-blend-mode:multiply"><path class="c" d="M180.1 27.5s-15.1-1-17.5-4.7c-2.3-3.7-5.2-8.6-5.2-8.6V8.1l2.3-5.5s2.9-4.3 12 2.3c9.2 6.5 15.1 17.3 8.4 22.6z"/><path fill-rule="evenodd" class="c" d="M180.1 27.6h-.1s-3.8-.3-7.8-1c-5.4-1-8.6-2.2-9.6-3.8-2.4-3.7-5.2-8.5-5.3-8.6V8.1l2.3-5.5c.1-.1.7-1 2.4-1.4 3.2-.5 7.1 1.7 9.8 3.6 6.6 4.8 11.1 11.4 11.2 16.5.1 2.6-.9 4.7-2.9 6.3zm-22.6-13.4c.2.3 3 5 5.2 8.5 1 1.5 4.3 2.8 9.6 3.7 3.8.7 7.4 1 7.8 1q2.9-2.3 2.8-6.1c-.1-5.1-4.6-11.7-11.2-16.4-4.9-3.5-7.9-3.8-9.6-3.5-1.6.3-2.3 1.2-2.3 1.2l-2.3 5.5z"/></g><path class="d" d="M189.2 35.4c-1.7-2.1-3.6-3.9-6-5.1-2.9-1.4-6-2.4-9-3.5-7.8-2.7-15.8-4-24-3.9-3.6.1-7.1.3-10.5 1.5-3.4 1.2-6.3 3.3-8.8 5.9-1.2 1.3-2.4 2.8-3.5 4.2-1.1 1.4-2.3 2.8-3.4 4.3-2.3 3.1-4.3 6.4-6.2 9.9-1.9 3.5-3.6 7.1-5.5 10.6-1.9 3.6-4 7.2-5.4 11-.7 2-.8 4.1-1.8 6-.9 1.7-2 3.3-2.8 5.1-1.6 3.2-3.4 6.5-5.9 9.2-1.3 1.3-2.7 2.4-4.5 2.8-1.6.4-3.2.4-4.7.7-2 .5-3.9.9-6 1.1-2 .2-4 .3-6 .5s-4.1.2-6.2.3c-.9 0-1.9.1-2.8.2-1 .2-2 .5-3.1.8-1.8.4-3.7.4-5.5.8-1.8.4-3.5.9-5.2 1.8-1.6.8-3 2-4.3 3.3-.7.6-1.4 1.3-2.1 1.9-.8.5-1.6 1-2.4 1.6-.6.4-1.3.9-1.9 1.5-.6.7-1.1 1.6-1.5 2.4-.4.8-.6 1.6-1.1 2.4-.6.8-1.4 1.6-1.9 2.5-1.2 2.2-1.6 5.8 1 7 2.2 1.1 4.6-.8 5.8-2.5.6-1 1.1-2 1.2-3.2 0-.4-.8-.6-.9-.1-.2 1.4-.7 2.8-.9 4.2-.3 1.3-.5 2.9.3 4 .8 1 2.2 1 3.3.5 1.3-.7 2.3-2 3.1-3.2 1-1.4 1.7-2.9 2.5-4.4q-.4-.2-.8-.3c-.4 1.8-1.1 3.6-1.4 5.5-.2 1.5-.1 3.1 1.4 3.9 1.4.7 3.2.5 4.6 0 1.7-.5 2.9-1.8 4.4-2.7 1.9-1.1 4.3-.4 6.2.3 1.1.4 2.2.9 3.3 1.3 1.3.5 2.7.7 4 .9 2.8.5 5.6 1 8.4 1.6q2 .5 4.1 1.1c1.3.4 2.6.9 3.9 1.3 2.6.7 5.3 1.1 8 1.5 2.5.3 4.8-.3 7.1-1.2 2.2-.8 4.3-1.6 6.3-2.7q3.2-1.6 6-3.8c1.8-1.4 3.5-2.9 5-4.7 1.6-1.8 2.7-4 3.8-6.2 2.6-5.1 4.7-10.4 7.1-15.6 2.2-4.8 2.6-10.1 4.3-15.1.5-1.4 1.1-2.7 1.7-4l1.8-3.9c1-2.4 2.3-4.7 3-7.3.4-1.3.9-2.6 1.7-3.7.3-.4-.5-.9-.8-.4-1.4 2.1-1.7 4.7-2.8 7-1.2 2.4-2.2 4.9-3.3 7.4-1.1 2.4-2.2 4.7-2.9 7.2-.6 2.5-1 5-1.7 7.4-.7 2.7-1.8 5.1-2.9 7.6-1.1 2.6-2.2 5.1-3.3 7.6-2.1 4.5-4.1 9.3-7.6 12.9-3.1 3.2-7.1 5.9-11.2 7.8-2.1.9-4.3 1.8-6.5 2.5-1.2.3-2.5.5-3.7.5-1.4-.1-2.8-.4-4.1-.6-1.3-.2-2.7-.5-4-.8-1.2-.3-2.4-.8-3.6-1.2-2.6-.8-5.3-1.4-8-2-2.7-.5-5.4-.9-8.1-1.5-2.3-.5-4.3-1.8-6.7-2.3-1.7-.4-3.5-.5-5 .5-1.4.9-2.7 2.1-4.3 2.6-1.4.4-3.7.7-4.6-.8-.4-.7-.3-1.7-.2-2.5.2-1 .5-1.9.7-2.8.3-.8.5-1.6.7-2.4.1-.4-.5-.8-.7-.3-.7 1.4-1.5 2.8-2.3 4.2-.9 1.3-2.1 3.1-3.8 3.3-3.5.4-.9-6.4-.7-8q-.4 0-.8-.1c-.1 2.2-2.2 4.9-4.5 5.2-1.4.1-2.6-1-2.7-2.4-.1-1.5.4-3.2 1.3-4.4q.8-1 1.6-2.1c.5-.8.7-1.7 1.1-2.5.5-.8.9-1.6 1.6-2.2.7-.6 1.5-1.1 2.3-1.6 1.4-1 2.7-2 3.9-3.2 1.3-1.3 2.7-2.4 4.4-3.2 1.7-.8 3.5-1.3 5.3-1.7 1.7-.3 3.5-.3 5.3-.8.9-.2 1.9-.5 2.9-.6 1-.1 2-.2 3-.2 2.1-.1 4.1-.2 6.1-.3 2-.2 3.9-.3 5.9-.5 1.8-.2 3.5-.6 5.3-1 1.4-.4 2.9-.4 4.4-.7 1.5-.2 2.9-.8 4.1-1.8 2.6-2.1 4.5-5.2 6.1-8.1.8-1.6 1.5-3.1 2.3-4.6 1-1.6 2.1-3.1 2.6-4.9.3-.9.5-1.9.7-2.8.2-1 .5-1.9.9-2.8.8-2 1.8-3.9 2.8-5.7q2.7-5.1 5.3-10.2c1.7-3.4 3.5-6.7 5.4-9.9 2-3.1 4.3-5.9 6.6-8.8 2.2-2.8 4.5-5.5 7.4-7.4 3-2 6.4-3 10-3.3 7.6-.8 15.4 0 22.9 2 3.6 1 7.2 2.3 10.7 3.6 2.3.9 4.6 1.7 6.4 3.3 1.1.9 2 2 2.9 3.1.4.4.9-.2.6-.6z"/><path class="d" d="M36.8 120.5c-2.6.1-4.3 2.4-5.3 4.6-1.2 2.3-2 4.9-2.9 7.4-2.8 8.2-3.3 16.9-4.7 25.3-1.7 9.8-3.6 19.5-5.3 29.2q-1.4 7.3-2.7 14.6c-.9 4.7-1.5 9.5-2.6 14.2-.4 2.1-1.5 3.8-2.9 5.4-1.2 1.4-2.5 2.8-4 3.7-1.2.6-2.6 1.1-3.6 1.9-1.1.9-1.8 2.2-1.9 3.6-.3 2.7 2.6 3.1 4.7 3.3 3.8.4 7.6 2 11.5 1.3 2.3-.5 4.6-1 6.9-1.2 2.2-.2 4.4-.1 6.6 0 1.1 0 2.1-.2 3.1-.3 1.3 0 2.4.2 3.6.4 1.9.4 3.7.4 5.5.2 3-.4 6.2-1.3 8.2-3.7 2.6-3.2 2.9-7.8 3.9-11.6.6-2.1 1.5-4 2-6.1.5-2.1.7-4.2 1-6.3.8-4.5 1.8-9 3.2-13.3 1.2-3.7 2.6-7.7 5.6-10.2 3.2-2.7 7.3-2.2 11.1-1.3 1.9.4 3.8.9 5.7 1.4 2.1.5 4.2.8 6.2 1.2 4.6.8 9.2 1.5 13.8 2.1 9.5 1.3 19 1.9 28.6 1.2 15.3-1.2 31.3-6.6 41.1-19.1 5.3-6.9 7.9-15.2 10.5-23.3 2.8-9 5.5-18 7.8-27.2 3.7-14.8 6.7-30.2 6.7-45.6 0-5.7-.2-11.5-1-17.2-.7-5.2-1.6-10.6-4.1-15.2-1-1.6-2.1-3.1-3.7-4.2-.4-.3-.9.5-.4.7 3.7 2.5 5.1 7.6 6.1 11.6 1.4 5.6 1.9 11.4 2.1 17.1.6 13.4-.9 26.6-3.6 39.7-1.8 9-4.1 18-6.7 26.8q-1.9 6.5-3.9 12.9c-1.3 4.2-2.6 8.4-4.3 12.4-3.1 7.6-7.8 14.1-14.4 18.9-6.1 4.5-13.3 7.5-20.6 9.2-17.9 4.1-36.7 1.4-54.5-1.8-2-.3-3.9-.6-5.9-1.1-1.9-.5-3.7-1-5.6-1.4-3.2-.7-6.7-1.2-9.7.3-3 1.6-4.8 4.5-6 7.4-1.7 4-2.9 8.2-3.8 12.5-.5 2.1-.9 4.3-1.2 6.5-.4 2.1-.6 4.2-1.2 6.2-.6 2.1-1.4 4-1.9 6-.6 2.1-1 4.2-1.6 6.3-.6 1.8-1.3 3.5-2.8 4.8-1.3 1.1-2.9 1.8-4.5 2.2-1.7.4-3.5.5-5.2.5-2.1-.1-4-.8-6.1-.7-1 .1-2 .2-3.1.2s-2.2-.1-3.3-.1c-2 0-4.1.2-6.2.6-2.2.3-4.4 1-6.7 1-2.1-.1-4.3-.8-6.4-1.2-1.3-.2-2.7-.3-4-.5-1.3-.3-2.5-.8-2.3-2.4.5-3.4 4-3.7 6.3-5.5 1.4-1.1 2.7-2.6 3.8-4 1.1-1.4 1.9-2.9 2.3-4.6 1.1-4.6 1.7-9.3 2.5-14l5.2-28.4 2.6-14c.7-4.1 1.2-8.3 1.8-12.5 1.1-7 2.6-14.1 5.4-20.6 1-2.2 2.5-5.2 5.2-5.4.5 0 .5-.8 0-.8z"/><path class="d" d="M115.4 188.3c-.3.6-1 1.1-1.5 1.6-.7.5-1.2 1.1-1.6 1.8-.4.7-.7 1.4-.8 2.2 0 .8.2 1.5.5 2.2 1.4 2.8 4.5 3.7 7.3 4.3 3.9.9 7.9 1.6 11.9 1.5 2.1 0 4.2-.2 6.3-.2 1.7 0 3.4.1 5.1-.2 2.9-.4 5.3-2.2 7.3-4.3 1-1 1.9-2.1 2.6-3.4.6-1.1 1.1-2.3 1-3.6-.1-1.1-.6-1.9-1.5-2.6-1-.7-2.2-1.2-3.3-1.5q-1.7-.5-3.5-.7c-1.6-.2-3 .3-4.6.7-1.9.5-3.9.2-5.8.4-2 .2-4 .5-6 .6q-1.5 0-3-.1c-1 0-1.9.1-2.8.2-.9.2-1.8.3-2.7.4-.8.1-1.7.2-2.5.3-.8.2-1.6.5-2.3.9-.5.3-.1 1.1.4.8 1.4-.9 3.1-1 4.7-1.2 1.7-.2 3.4-.7 5.2-.6 1.9.2 3.8.1 5.7-.1 1.9-.2 3.7-.5 5.6-.5.9 0 1.9 0 2.8-.1.8-.1 1.7-.4 2.6-.6 1.2-.3 2.3-.4 3.5-.2q1.8.3 3.5.9c.9.4 1.9.9 2.6 1.6.7.8.7 2 .4 2.9-.3 1.3-1.1 2.4-1.8 3.4-.9 1-1.8 2-2.8 2.9-1 .8-2.1 1.6-3.3 2.1-1.4.6-3 .8-4.5.8-1.8 0-3.7 0-5.5.1-1.9 0-3.9.1-5.8 0q-2.9-.2-5.7-.7c-1.7-.3-3.4-.6-5-1.1-1.3-.3-2.7-.8-3.8-1.6-1.1-.8-2.1-2.3-1.9-3.7.1-1.5 1.3-2.8 2.4-3.7.5-.4 1-.9 1.4-1.5.2-.4-.5-.9-.8-.4z"/><path class="d" d="M131.7 201.4c-.2 1.4.1 2.7.2 4v2.4c-.1.8-.2 1.6-.2 2.4 0 .7.1 1.5.1 2.2 0 .6-.1 1.3-.2 1.9 0 1.1.2 2.2-.1 3.3-.2.9-1.2.9-2 .9-.9 0-1.9-.1-2.9-.1-1.5.1-3 .3-4.5.6-1.1.3-2.2.8-3.1 1.6-1.9 1.8-2.3 4.4-2.8 6.8-.1.5.7.7.8.2.4-2.1.8-4.5 2.3-6.1.8-.9 1.9-1.4 3.1-1.7q1.2-.3 2.5-.4c.6-.1 1.3-.1 1.9-.1 1 0 2 .1 2.9 0 .8 0 1.9-.1 2.4-.9.5-.9.4-2.1.4-3.1 0-1.2.2-2.5.1-3.7-.1-.9-.1-1.7 0-2.6q.1-1.3.1-2.7c0-.8 0-1.6-.1-2.4-.1-.8-.2-1.5-.1-2.2.1-.6-.7-.8-.8-.3z"/><path class="d" d="M131.1 217.5c1.1 1.8 1.5 3.8 1.9 5.9.2 1.4-.5 3.2.6 4.4.3.3.7 0 .7-.3q.1-.2.1-.4c0-.6-.8-.6-.9 0v.4q.4-.2.7-.3c-.5-.5-.4-1.4-.4-2.1.1-.8 0-1.6-.1-2.4-.4-2-.8-3.9-1.9-5.7-.3-.4-1 0-.7.5z"/><path class="d" d="M131.6 220.6c1.5.1 3.1-.4 4.5-.9 1.6-.4 3.3-.8 5-.8.8 0 1.7.1 2.6.3.6.1 1.3.2 1.9.3.6.2 1.2.4 1.7.8s.9 1 1.1 1.6c.5 1.6.6 3.4.3 4.9-.1.5.7.8.8.2.3-1.5.2-3.1-.2-4.6-.3-1.5-1-2.7-2.4-3.3-.6-.3-1.3-.4-2-.6q-1.1-.2-2.3-.3c-1.9-.3-3.8-.1-5.6.4-1.7.5-3.5 1.3-5.4 1.1-.5 0-.5.8 0 .9zm-55.4-37.9c-.4 2.1-1.8 3.8-2.5 5.7-.7 2-1.1 4.2-1.3 6.3-.5 4.6.6 9.2 1 13.8.1 2.4.2 4.8.1 7.2q-.2 1.8-.5 3.6c-.1 1.2-.3 2.4-.6 3.5-.4 1.8-1.9 3-3.2 4.2-1 .8-2.3 1.9-2.4 3.2-.1 1.7 2 2 3.2 2.2 1.9.2 3.8.1 5.6-.4.9-.3 1.7-.7 2.5-1.1q1.5-.9 3.1-1.6c2.1-.8 4.3-1.4 6.5-1.9 2.2-.6 4.1-1.9 6.2-2.6.8-.3 1.6-.6 2.4-1 .9-.5 1.7-1.2 2.6-1.8 1.5-1 3.1-2 3.9-3.7.8-1.7.8-3.6.4-5.4l-.3-1.5c0-.6 0-1.2.1-1.8q.1-1.7.1-3.4c-.1-2.3-.5-4.6-.3-6.9.1-2.2.5-4.4 1.1-6.5q.2-.7.6-1.4.2-.5.4-.9c.2-.3.3-.7.5-.9.4-.2.8-.4 1.3-.3.3 0 .4 0 .7-.2q.3-.1.6-.3c.8-.5 1.6-1.1 2-1.9.3-.5-.4-.9-.7-.4-.5.8-1.3 1.4-2.2 1.8 0 .1-.2.2-.3.2.1 0-.4-.1-.1-.1q-.4 0-.7.1c-.5.1-.9.3-1.2.6-.4.3-.6.9-.8 1.4-.3.5-.6 1-.7 1.6q-.5 1.5-.8 3.1c-.4 2.1-.7 4.3-.6 6.5.2 2.2.5 4.5.3 6.8 0 1-.2 2.1-.1 3.2.2 1 .5 2 .5 3.1.1 1.7-.4 3.3-1.5 4.5-.7.7-1.5 1.2-2.2 1.7-1 .6-1.8 1.3-2.8 1.9-.7.5-1.4.8-2.2 1-1 .4-2.1.8-3.1 1.3s-1.9 1-3 1.3c-1 .3-2.1.5-3.1.8-2.1.5-4.2 1.3-6.2 2.4-.8.4-1.6 1-2.5 1.3q-1.3.4-2.7.6-1.4.1-2.8 0c-.8-.1-1.7-.1-2.4-.6-1.1-.7.2-2.1.8-2.7 1.2-1.2 2.7-2.1 3.6-3.6.5-.8.8-1.7.9-2.6q.3-1.8.6-3.5c.3-2.4.4-4.8.3-7.2q0-3.5-.6-7c-.3-2.3-.5-4.6-.6-6.9-.1-2.1.2-4.2.7-6.2.2-1 .4-1.9.8-2.8.4-1 .9-1.9 1.4-2.8.4-.9.8-1.8 1-2.8.1-.5-.7-.7-.8-.2zm35.4-54.2c2.3.4 4.5 1.2 6.7 2 2.3.9 4.6 1.6 6.9 2.4 4.7 1.5 9.5 2.8 14.4 3.7 2.4.4 4.8.7 7.2 1.2 1.2.1 2.3.4 3.4.7 1 .3 2 .8 3.1 1.2 1 .4 2 .8 3 1.1 1.2.4 2.3.7 3.5.9 2.4.5 4.8.9 7.2 1.2 2.7.5 5.5 1 8.2 1.5 1.3.2 2.5.4 3.7.7.9.2 2 .5 3 .3.2-.1.3-.4.2-.6-.2-.6-.7-.9-1.3-1-.5-.1-.8.7-.2.8.4.1.6.2.8.6q.1-.3.3-.6c-.9.2-1.9-.1-2.7-.3-1.1-.3-2.1-.5-3.2-.7-2.5-.4-4.9-.9-7.4-1.3-4.6-.7-9.3-1.2-13.7-3-2.1-.8-4.1-1.7-6.3-2.1-2.4-.5-4.8-.8-7.2-1.2-2.4-.4-4.8-.9-7.2-1.5q-3.5-.9-7.1-2c-2.5-.8-5.1-1.6-7.6-2.5-2.5-.9-4.9-1.9-7.5-2.3-.5-.1-.7.7-.2.8zM11.4 220.3c2.7.5 5.3 1.1 8 1.3 1.4.2 2.7.1 4.1.2 1.3.1 2.6.3 4 .3h3.7c1.3 0 2.5.1 3.8.2 2.7.3 5.4.3 8.1.3.7.1 1.4.1 2.1-.1.7-.1 1.3-.4 1.9-.5.7-.2 1.4-.2 2.1-.2q1.1-.1 2.3-.1c.2 0 .3-.2.4-.3l.2-.6c.2-.5-.6-.7-.8-.2l-.2.6.4-.4c-1.3 0-2.6.1-3.8.3-1.2.1-2.3.7-3.5.7-1.3.1-2.7 0-4 0q-2-.1-4.1-.2c-1.2-.1-2.5-.3-3.8-.3h-3.6c-1.4 0-2.7-.1-4-.2-1.4-.1-2.7-.1-4.1-.2-3-.1-6-.9-8.9-1.4-.6-.1-.8.7-.3.8z"/><path class="d" d="M73.5 219.4c2.3.4 4.4-.9 6.5-1.8 1-.5 2.1-.9 3.2-1.4.5-.3 1.1-.5 1.8-.7.6-.2 1.3-.3 1.9-.4 1.4-.1 2.8-.2 4.1-.5 1.3-.3 2.6-.7 3.9-1.1.8-.3 1.6-.6 2.5-.8q1.1-.2 2.1-.5c1.1-.2 3.5-.7 3.4-2.3q0-.3-.3-.4l-.6-.2c-.5-.2-.7.6-.2.8q.3.1.6.3-.2-.3-.3-.5c0 .4-.5.7-.8.9-.7.3-1.4.5-2.1.6q-1 .3-2 .5c-.8.2-1.5.4-2.3.7-1.2.4-2.4.8-3.6 1.1-1.3.3-2.6.4-3.9.5-1.2.2-2.4.3-3.6.8-1.1.4-2.1.9-3.2 1.4-2.1.8-4.5 2.6-6.9 2.2-.5-.1-.8.7-.2.8zm52.6-28c-.7-.1-1.6-.4-2.3 0-.3.2-.5.5-.6.9-.1.3-.1 1.1.1 1.4.2.2.4.2.6.3q.3.2.7.3c.4.2.8.4 1.3.4.7-.1 1.9-.9 1.4-1.7-.4-.5-1-.8-1.6-1-.7-.3-1.6-.5-2.4-.7-1.3-.2-3.1-.6-4.3.1-.7.5-.9 1.2-.6 1.9.3.7 1 1.2 1.7 1.4 1.5.5 4.4-.6 3.8-2.5-.3-.9-1.3-1.5-2.1-1.7-.9-.3-1.9-.4-2.8-.3-1 0-1.9.2-2.8.7q-.6.2-1.1.7c-.3.4-.1.8.1 1.2 1.3 3.1 5.8 4.4 8.4 2.1q.4-.4.8-1c.1-.1 0-.3-.1-.5-.5-.6-1.3-.9-2-1.1q-1.4-.5-2.9-.6c-.8-.1-1.8-.1-2.6.3-.3.2-.6.4-.8.7-.2.3-.4.8-.3 1.1.2.3.7.6.9.7q.6.4 1.2.6c.8.2 1.6.4 2.5.3q.3-.1.4-.3l.2-.6c.2-.5-.6-.7-.8-.2q-.1.3-.2.5.2-.1.4-.3c-1.4.2-2.9-.2-3.9-1.2q.1.2.1.3c0-1.3 2.4-1.1 3.3-1q1.2.1 2.4.5c.5.2 1.2.5 1.5.9v-.5c-2 3.1-7.1 1.7-8-1.6q0 .2-.1.4c1.1-1.2 3.2-1.4 4.8-1.3.8.1 1.7.3 2.3.9.8.6.3 1.4-.4 1.8-.8.4-1.6.4-2.4 0-.3-.2-1-.7-.8-1.2.3-.6 1.1-.6 1.6-.7l2 .2c.9.2 1.7.4 2.5.7q.5.1 1 .4.1.1.3.2.1.1.1.2v-.3c-.3.5-.6.7-1.2.6-.6-.2-1.1-.5-1.6-.7l.2.2c0-.4-.1-1 .4-1.2.4-.1 1 0 1.5.1s.7-.7.2-.8z"/><path class="d" d="M114.8 193c-.5.2-.9.4-1.1.9-.1.4-.1.8.2 1.1.6.4 1.2.7 1.8 1 1.7.7 3.5 1.2 5.2 1.2.8 0 1.6-.1 2.2-.7.3-.3 0-.7-.3-.7-2.1-.2-4.1-.6-6.1-1.1-1.7-.4-3.5-1-5.2-.7-.3 0-.4.5-.2.7 1.5 1.3 3.5 1.9 5.5 2.3 1.1.3 2.2.5 3.4.7 1.1.2 2.2.4 3.3.4 2 .2 3.8-.2 5.8-.4 1.2-.1 3.3-.2 4-1.6.4-.7 0-1.6-.4-2.3-.4-.8-1-1.4-1.8-1.9-.2-.2-.7.1-.6.5.5 1.3 2.2 1.7 3.1.4.1-.1 0-.4-.1-.5-1.7-1.5-3.7-1.8-5.9-2.1q-1.7-.2-3.4-.7c-1.2-.4-2.4-.9-3.5-1.3-.3-.1-.5.1-.6.3-.4 1.4 1.7 1.7 2.6 1.8 1.9.2 3.8 0 5.7-.1 1.5-.1 2.9-.2 4.4-.4 2.9-.3 6.1-1.7 9.1-.5 1.2.5 2.2 1.8 2.1 3.2 0 .7-.5 1.1-1.1 1.2-.9.2-1.8-.4-2.8-.4-.1 0-.3.1-.4.3-.2.6-.3 1.4-.7 1.9-.4.5-1.2 0-1.5-.4-.5-.5-.8-1.1-1.2-1.7-.4-.5-.8-1.1-1.4-1.2-.6-.2-1.3 0-1.6.5-.3.6-.3 1.3-.3 1.9l.2 1.8c.1.6.3 1.1.7 1.4.5.4 1 .5 1.6.6.6.1 1.3.2 2 .1 1.2 0 3-.2 3.7-1.5.7-1.2-.2-2.3-1.2-2.9-1.1-.7-2.4-1.1-3.6-1.1-1.9-.1-4 .4-5.5 1.6-1.3 1.1-2.6 3.2-1.8 4.9.2.2.5.2.7.1 1-1.2 0-2.6-1-3.4-1.2-.8-2.9-1.1-3.9.2-.1.1-.1.3 0 .5 1 1.8 3 2.8 5 3.3q1.5.3 3 .4c1.5 0 3-.2 4.4-.2.8-.1 1.5 0 2.2.1.7.1 1.3.3 2 .2 1-.1 2-.7 2.8-1.3 1.6-1.2 3.2-3.2 2.7-5.3-.3-1.1-1.1-2.4-2-3.1-.5-.4-1.2-.6-1.8-.7-.7-.2-1.4-.2-1.9-.7q0 .3.1.5c.2-.4.9-.5 1.4-.5.9-.1 1.8 0 2.6.1q1.3.2 2.4.6c.8.2 1.4.6 1.5 1.4.1 1.1-.4 2.2-.6 3.3 0 .5.7.6.9.1.3-1.4.3-3 .1-4.4-.2-.7-.4-1.4-.9-1.8-.4-.3-.7-.4-1.1-.1q-.8.6-1.5 1.3c-1 1-1.8 2.2-2.8 3.2-.4.4.2 1 .5.6 1.5-1.5 2.7-3.3 4.4-4.5h-.3c.9.2.9 1.8 1 2.5 0 1 0 2-.2 3q.4 0 .8.1c.1-1.1.6-2.1.5-3.3-.1-1-.7-1.7-1.7-2.1-.8-.3-1.7-.5-2.5-.6-1-.2-2.1-.3-3.1-.3-.7.1-1.8.2-2.2 1 0 .2 0 .4.1.5.9.7 1.9.7 2.9 1 1.1.3 1.7 1.2 2.2 2.2.4.8.6 1.7.2 2.6-.3.9-1 1.7-1.8 2.4-.7.6-1.5 1.2-2.4 1.4-1.2.3-2.5-.3-3.7-.3-2.4 0-4.8.4-7.2.1-2-.4-4.2-1.2-5.3-3.1q-.1.2-.1.5c.7-1 1.9-.7 2.7-.1.6.3 1.6 1.4 1 2.1h.7c-.6-1.2.6-3 1.6-3.8 1.1-.9 2.8-1.3 4.3-1.4q1.7 0 3.2.7c.7.4 2 1.1 1.4 2.1-.5 1-2.2 1.1-3.2 1.1q-.9 0-1.7-.2c-.4 0-.9-.1-1.2-.4-.2-.4-.3-.9-.3-1.3-.1-.6-.2-1.1-.2-1.6 0-.4 0-1.1.5-1.2.4-.2.9.4 1.1.7.9 1 1.4 2.5 2.9 2.8 1.5.4 1.9-1.6 2.3-2.7q-.3.2-.5.3c.9 0 1.7.5 2.5.5.7 0 1.4-.3 1.8-.8.8-1 .5-2.4-.1-3.4-1.3-2.5-4.8-2.6-7.2-2.2-1.8.2-3.4.7-5.1.9q-.8 0-1.7.1c-1.9.2-3.8.3-5.7.3-.9 0-1.9 0-2.8-.2q-.2-.1-.5-.2s-.3-.1-.2-.1q-.1-.1-.2-.1c.1 0 0-.1 0 0 0-.1 0-.1.1-.2q-.3.1-.6.3c2.3.8 4.4 1.7 6.7 2 2.1.3 4.2.5 5.8 1.9q0-.2-.1-.5c-.4.6-1.2.4-1.5-.3q-.3.3-.6.5c.6.4 1.1.9 1.4 1.5.3.5.7 1.2.4 1.7-.2.5-1 .7-1.5.8-.8.2-1.5.3-2.2.3q-1 .1-2 .3-1.6.2-3.2.1c-2-.1-4.1-.6-6.1-1-2-.3-4.1-.9-5.6-2.2q-.1.3-.2.7c1.7-.3 3.5.4 5.2.8 1.9.4 3.9.8 5.9 1q-.2-.3-.3-.7c-.5.4-1.2.5-1.8.5-.8 0-1.6-.2-2.4-.4q-1.2-.3-2.4-.8c-.5-.3-1.1-.5-1.6-1q.1.2.1.3c.1-.3.3-.6.6-.7.5-.2.3-1-.2-.8z"/><path class="d" d="M139.2 188.3c-1.3 1.7-3.2 2.9-4.3 4.9-.1.2 0 .4.2.5l1 .6c.3.1.7.4 1 .4.4 0 .8-.5 1.1-.8.6-.9 1.1-1.9 1.4-2.9 0-.3-.2-.7-.5-.5-1 .3-1.6 1.1-1.5 2.1.1 1.1.7 2 1.4 2.7.7.7 1.6 1.3 2.7 1.2 1-.1 1.7-.9 2.1-1.8.4-1.2.5-2.4.7-3.6.1-.5-.7-.8-.8-.2-.3 1.3-.8 2.6.2 3.8.5.5 1.1 1 1.8 1 .6 0 1.2-.3 1.6-.8 1.4-1.4 1.6-3.9.6-5.6-.5-1-1.4-1.6-2.5-1.6-.6 0-.6.9 0 .9 1.6-.1 2.2 1.5 2.3 2.9 0 .7-.1 1.4-.4 2.1-.5.9-1.4 1.8-2.4.9-.5-.4-.8-.9-.8-1.6.1-.6.3-1.2.4-1.8l-.8-.2c-.1.8-.2 1.7-.4 2.6-.2.7-.5 1.6-1.1 2-1.5.8-3.2-1.1-3.7-2.3-.3-.8-.1-1.6.8-1.9l-.5-.5q-.3.9-.7 1.7c-.3.6-.7 1.1-1.2 1.4h.4l-1.8-.9.2.6c1-1.9 2.9-3.1 4.2-4.9.3-.4-.4-.8-.7-.4zm41.5-161.7c-.4-.5-.4-1.1-.1-1.7.3-.6.6-1.1.9-1.7.5-1.2.7-2.6.8-3.9.2-1.2.1-2.5-.3-3.7-.5-1.2-1.2-2.3-2.1-3.2-1.8-2.1-4.2-3.6-6.4-5.1-1.3-1-2.6-1.9-4-2.7-1.3-.7-2.8-1.5-4.2-1.8-.8-.2-1.7-.3-2.5-.4-.8-.1-1.6-.3-2.4-.4-.8-.1-1.7-.1-2.4-.4-.7-.4-1.3-.9-2.1-1.1-.2 0-.4.1-.5.2-.4.7-.6 1.5-.5 2.3 0 .7.3 1.2.7 1.9.1.2.3.5.2.8 0 .4-.4.4-.7.3-.7-.1-1.2-.2-1.8.3-1.1.9-1 2.5-1 3.7 0 1.5 0 2.9.9 4.1.6.8 1.4 1.4 2.2 2 .8.6 1.7 1.2 2.7 1.6q-.1-.4-.3-.7c-.5.7-.9 1.5-.9 2.4 0 .7.3 1.3.8 1.8 1.1 1.1 2.8 1.7 4.3 2q1.2.3 2.4.5c.6.1.8-.7.3-.8-1.4-.2-2.8-.5-4.1-1-1.1-.3-2.6-1-2.9-2.2-.1-.8.4-1.6.9-2.2.1-.3-.1-.6-.3-.7-.8-.3-1.6-.7-2.2-1.2-.7-.5-1.4-1.1-2-1.7-1-1.1-.9-2.5-.9-3.9 0-.6-.1-1.2.1-1.8 0-.5.2-1.2.8-1.4.2-.1.5 0 .8 0 .3.1.6.1.9 0 .6-.2 1-.8.9-1.5-.2-.7-.7-1.1-.9-1.8-.3-.7 0-1.7.3-2.4l-.4.2c.6.2 1.2.6 1.8.9.6.4 1.3.5 2 .6q2.2.2 4.3.5c3.1.5 5.8 2.2 8.3 4q1.9 1.3 3.7 2.6c1.1.8 2.1 1.6 3 2.5.9.9 1.7 1.9 2.2 3.1.6 1.2.7 2.4.5 3.7-.1 1.4-.4 3-1.1 4.3-.3.5-.7 1.1-.8 1.7-.2.8.1 1.4.5 2 .4.5 1-.1.6-.6z"/><path class="d" d="M152.8 14.7q-.8 4.2-1.6 8.3c-.1.6.7.8.8.3l1.6-8.4c.1-.5-.7-.8-.8-.2zM81.4 98.6q-.3-.6-.5-1.3l-.8.2c1.3 4 2.7 7.9 3.7 11.9.6 2 .9 4.1 1.1 6.1.1 1.1.1 2.1.2 3.1s.4 2 .5 3c.2 2.2-.5 4.2-.9 6.3l.8.2q0-.2.1-.4c.1-.6-.7-.8-.8-.2q-.1.2-.1.4c-.1.5.7.8.8.2.3-1.8 1-3.6 1-5.6 0-.9-.2-1.9-.4-2.9-.2-1.1-.2-2.2-.3-3.3-.2-4.2-1.3-8.3-2.6-12.2-.8-2.3-1.6-4.5-2.3-6.8-.2-.5-1-.3-.8.2q.2.8.6 1.5c.3.4 1 0 .7-.4zm8.9-4.3c-.2.1-.7 0-.8.2-.2.2-.3.5-.3.7-.1.5-.1 1 0 1.4.2 1.1.7 2 1.2 3 1.2 2.4 2.1 4.9 3 7.4 1.1 2.9 2.3 5.6 3.5 8.4 1.2 2.7 2.2 5.5 3.4 8.1q.5 1.1 1.1 2.2c.4.6.8 1.3 1.2 2 .2.5.3 1.1.4 1.6.1.5.3 1 .7 1.3.2.1.5 0 .6-.2q.1-.3.3-.6c.2-.5-.5-.9-.7-.4q-.2.3-.3.6.3-.1.6-.1c-.4-.2-.4-.8-.4-1.1-.1-.5-.2-.9-.4-1.3-.6-1.2-1.3-2.2-1.9-3.4-1.2-2.5-2.1-5-3.2-7.5l-3.3-7.8c-1-2.5-1.9-5.1-2.9-7.5-.5-1.1-1-2.1-1.5-3.2-.4-.9-1-2.1-.5-3.1l-.2.2q.3 0 .6-.1c.6-.1.3-.9-.2-.8zm8.9-6.7c-.2 1.1.4 1.9 1 2.6.4.4.7.7 1 1.1.5.5.9 1.1 1.3 1.6.8 1.2 1.7 2.3 2.6 3.4q1.3 1.6 2.5 3.3c1.5 2.2 3.1 4.4 4.9 6.4.9 1.1 2 2 3 3.1.9 1 1.5 2.1 2.1 3.3q.8 1.7 1.6 3.5c.5 1 1 2.2 1.9 3 .2.2.6.2.7-.2q0-.5.1-1c.1-.5-.7-.7-.8-.2q-.1.5-.1 1 .3-.1.7-.2c-.8-.7-1.2-1.7-1.6-2.6-.5-.9-.8-1.9-1.4-2.9-.6-1.1-1-2.3-1.8-3.3-.8-1.1-1.8-2-2.7-3-1.9-1.9-3.6-4-5.1-6.2q-1.1-1.6-2.3-3.2c-.8-1-1.6-2.1-2.4-3.1l-1.6-2c-.4-.5-.7-1.1-1.2-1.5-.6-.7-1.8-1.6-1.6-2.6.1-.6-.7-.8-.8-.3zm5.1-11.7c.7 1 1.6 1.7 2.5 2.4 1.1.7 2 1.5 2.8 2.4.9 1 1.7 2.1 2.7 3.1q1.1 1.1 2.4 2.2c1.8 1.5 3.7 3 5.7 4.1q.7.4 1.5.7c.5.2.9.3 1.3.5 1.1.7 1.9 1.7 2.8 2.6 2 1.9 4.7 2.9 6.5 5.1.3.5 1 0 .7-.4-1.5-1.9-3.7-3-5.6-4.4-1.1-.8-1.9-1.9-2.8-2.7-.4-.4-.9-.8-1.4-1-.4-.2-.9-.4-1.4-.6-2.1-.8-4-2.3-5.8-3.7-1.9-1.5-3.6-3.2-5.1-5-.9-1.1-1.9-2.2-3-3.1-1.1-.8-2.3-1.5-3.1-2.6-.3-.4-1 0-.7.4zm7.8-13.6h-.6c-.3 0-.5.3-.3.6.8 1.5 2.2 2.5 3.6 3.2 1.6.9 3.3 1.5 4.9 2.3 1.9 1 3.7 2.1 5.6 3 1.9.9 3.8 1.7 5.7 2.6 2 .9 4.1 1.9 6.4 2.3l.2-.8h-.5c-.5-.1-.7.7-.2.8h.5c.5.1.7-.7.2-.8-2-.3-3.9-1.1-5.7-2q-1.3-.6-2.6-1.3c-1-.4-2-.8-2.9-1.2-1.8-.9-3.6-1.9-5.3-2.8-1.7-.8-3.4-1.5-5-2.3-1.6-.8-3.3-1.8-4.2-3.4l-.4.6h.6c.5 0 .5-.9 0-.8zm7.4-13.7c3.5 2.6 6.6 5.6 10.2 8q1.4.8 2.7 1.7c.9.5 1.8 1.2 2.7 1.7.8.5 1.7.9 2.6 1.3.9.5 1.6 1.2 2.3 2q.9.8 1.9 1.6c.6.4 1.2 1 1.9 1.1.5.1.7-.7.2-.8-.6-.1-1.2-.6-1.6-1q-.9-.7-1.7-1.4c-.6-.7-1.3-1.4-2.1-1.9s-1.7-.9-2.6-1.3c-.9-.5-1.7-1.1-2.6-1.7q-1.4-.9-2.7-1.7c-1.8-1.2-3.5-2.4-5.1-3.8-1.9-1.5-3.7-3.1-5.7-4.5-.4-.3-.8.4-.4.7z"/><path class="d" d="M136.9 76.3q1.4.2 2.8.5c.2 0 .4-.1.5-.3 0-.2-.1-.5-.3-.5q-1.4-.3-2.8-.5c-.2-.1-.4 0-.5.2 0 .3.1.5.3.6zm-10.4-38.7c1.8 1.6 3.6 3.1 5.6 4.4 1.9 1.4 4 2.7 6.2 3.4 1.2.4 2.4.6 3.6.8 1.2.3 2.4.6 3.6 1q3.6 1.1 7.4 1.9c2.6.5 5.2.9 7.8 1.4l3.8.6c1.2.2 2.4.4 3.7.7 1.2.3 2.3.7 3.5 1.1q1.8.5 3.5.8c2.5.5 4.8 1.5 7.2 2.1 2.8.6 5.7.9 8.5 1.5 1.1.3 2.1.6 3.1.8 1 .2 2.1.4 3 .1.3 0 .4-.4.3-.6-.3-.5-.8-.9-1.4-.9-.5-.1-.7.7-.2.8.4 0 .7.2.9.5l.2-.6c-.8.2-1.8.1-2.6-.1-.9-.2-1.9-.5-2.8-.7-1.2-.3-2.3-.5-3.5-.7q-2-.3-3.9-.7c-2.4-.4-4.7-1.3-7-1.9-1.2-.3-2.4-.5-3.6-.8-1.2-.3-2.3-.7-3.4-1.1-2.4-.7-4.9-1.1-7.4-1.5-2.5-.4-5-.8-7.6-1.3-2.5-.4-5-.9-7.4-1.6-1.2-.4-2.4-.7-3.6-1.1-1.1-.3-2.3-.6-3.5-.8-1.4-.2-2.6-.7-3.8-1.2q-1.7-.9-3.4-2c-2.2-1.5-4.2-3.1-6.2-4.9-.4-.3-1 .3-.6.6zm20.4-14.5c0 1.6.7 3.1 1.7 4.3.9 1.2 2.2 1.9 3.5 2.5.7.3 1.4.5 2.1.8.8.2 1.5.6 2.3.9 1.6.7 3.3 1.3 5 1.8 3.3 1.1 6.5 2.4 9.9 3.1 3.4.8 6.6 2.2 9.9 3.2 1.8.5 3.4 1.3 5.2 1.7.9.2 1.9.4 2.8.7.8.3 1.7.7 2.5 1 .5.2.8-.6.3-.8-1.5-.6-3-1.2-4.5-1.5l-2.4-.6c-.7-.3-1.4-.6-2.2-.9-.8-.2-1.5-.4-2.3-.7q-1.3-.4-2.5-.8c-1.5-.6-3.1-1.2-4.7-1.6-1.6-.5-3.3-.8-4.9-1.3-1.6-.4-3.2-1-4.7-1.6-1.7-.5-3.4-1-5-1.6-1.6-.6-3-1.3-4.6-1.9-1.4-.5-3-1-4.2-2-1.3-1.2-2.4-2.9-2.3-4.7 0-.6-.9-.6-.9 0zm-3.4 48.6c7.1 1.3 14.1 2.5 21.2 3.8q2.7.5 5.3 1c1.8.3 3.5.7 5.3 1 1.7.3 3.4.1 5.1.2 1.7.2 3.5.6 5.2.9l2.7.6c.9.2 1.7.4 2.6.5.8.2 1.6.3 2.5.1.9-.1 1.8-.5 2.7-.8.4-.1.3-.7-.1-.8h-.5c-.5-.1-.5.7 0 .8q.2 0 .5.1-.1-.5-.2-.9c-.7.2-1.5.6-2.3.7-.7.2-1.5.2-2.3.1-.7-.2-1.5-.4-2.2-.5-.8-.2-1.6-.4-2.4-.5-1.7-.4-3.4-.7-5.1-1-1.7-.2-3.4-.1-5-.2-.9-.1-1.8-.3-2.7-.4q-1.3-.3-2.6-.5l-5.2-1q-5.2-.9-10.5-1.9-5.9-1-11.8-2.1c-.5-.1-.7.7-.2.8zM136 89c1.8.4 3.5 1.1 5.2 1.7 1.8.6 3.7.9 5.5 1.1 1.9.3 3.8.6 5.7 1q2.9.6 5.9 1.3 2.9.7 5.8 1.3c2 .5 4 1 6 1.3 2 .3 4.1.2 6.1.4 1.9.2 3.8.7 5.8.8 1.1 0 2.2-.1 3.3-.1q1.8-.1 3.5-.2c1 0 2.1-.1 3.1-.3.9-.2 1.6-.8 2.5-.7.2 0 .3-.1.4-.3.3-.7-.3-1.1-1-1.2-.5 0-.5.8 0 .9h.3c-.1-.1-.1 0-.1.1q.2-.2.4-.3c-.8-.1-1.4.2-2.1.5-.9.4-1.8.4-2.7.4q-1.6.1-3.1.2c-1 0-2 .1-3 .2-2 0-3.9-.3-5.8-.6-2-.3-4-.3-6-.5s-4-.6-5.9-1l-6-1.4c-3.8-.9-7.7-1.8-11.6-2.4-2-.3-4.1-.5-6-1.1-1-.3-2-.7-3-1.1q-1.4-.5-3-.8c-.5-.1-.7.7-.2.8zm-5.2 17.1c1.7.3 3 1.6 4.7 2.2.9.3 1.9.5 2.9.8q1.5.4 3 .9c2.1.5 4.2.9 6.3 1.3q3.2.6 6.5 1.2 3.3.5 6.6.9c2.2.2 4.4.2 6.6.3 2.3 0 4.5.2 6.7.3q3.2.1 6.3.1c3.7 0 7.9.4 11.3-1.4.5-.2.1-.9-.4-.7-1.5.8-3.2 1.1-4.9 1.2-1.7.1-3.4.1-5.2.1-1.9-.1-3.9 0-5.9-.1-2.2-.1-4.3-.2-6.5-.3-2.2-.1-4.4-.1-6.6-.2-2.1-.2-4.3-.5-6.5-.8q-3.2-.5-6.4-1.1c-2.1-.4-4.3-.8-6.4-1.3q-1.7-.4-3.3-.9c-1.1-.4-2.3-.6-3.4-.9-1.8-.6-3.3-2.1-5.2-2.4-.5-.1-.8.7-.2.8zm-6.1 13.3c2 .3 3.9 1.1 5.8 1.8 1.9.9 4 1.6 6 2.4q6 2.3 12 4.5c1.9.7 3.8 1.3 5.8 1.7q3.2.5 6.5 1.1c4.2.8 8.3 1.9 12.6 2 2.3 0 4.6-.3 6.9.2.9.1 1.8.4 2.7.3.9 0 1.6-.4 2.3-1 .4-.4-.1-1-.5-.6-.7.5-1.3.8-2.2.8-.8 0-1.6-.3-2.5-.4-1.9-.3-3.9-.2-5.8-.1-4.3 0-8.4-1-12.5-1.8s-8.3-1.3-12.2-2.6c-3.9-1.4-7.8-2.9-11.7-4.4-2.2-.9-4.5-1.7-6.7-2.6-2-.9-4-1.8-6.2-2.1-.6-.1-.8.7-.3.8zM10.2 226.5c-1.8.4-3.6.9-4.8 2.5-.1.2.1.5.3.6 1.1.4 2.5.3 3.7.2 1.2-.1 2.6-.3 3.7-.9.1 0 .2-.2.2-.3.1-3-6.3.4-7.3.9-.5.2-1 .5-1.4.8-.5.3-.1 1 .4.7 1.1-.7 3.1-1.4 3.3-3q.1-.3-.2-.5c-.6-.2-1.4-.1-2 .2q-1.1.4-2.1 1.1c-1 .8-2.5 2.1-2.1 3.6.1.4.5.3.7.1 1.1-1.4 1-3.1 1.4-4.7.4-1.5 1.5-2.3 3-2.6 1.5-.3 3.3-.2 4.6.7.6.3 1.2.7 1.8.2.4-.2.6-.7.8-1.2.3-1.2.2-2.4.3-3.7h-.8c.1 1.3.8 2.3 1.4 3.4.5.8 1.4 2.1 1.1 3.1q.3-.1.7-.1c-.9-.8-1.6-1.8-2-2.9-.2-.5-.3-1.1-.3-1.7 0 0 .1-.3 0-.1 0-.1.1-.1.1-.1q.2-.1.4-.1c1.2-.4 2.8.1 3.9.6.4.3 1 .6 1.2 1q.2.2.1.4c-.1.2-.3.3-.4.5-.9.5-2 .7-3 .9-1.1.1-2.3.2-3.4.6-2.4.7-5 1.6-6.8 3.4-.2.2-.2.5 0 .6.7.9 1.9 1.5 3 1.5.6.1 1.1 0 1.6-.3l.6-.6c.1-.3-.1-.7-.2-.9-.9-1.9-3.4-2.3-5.2-1.5-1 .4-1.8 1.3-2.1 2.5 0 .1 0 .3.2.4 1.9 1.2 4.1 2 6.3 2.3 1.1.1 2.2.2 3.2 0 1.1-.1 2.1-.6 3.1-1.2.8-.5 1.7-1.1 2.6-1.4.7-.3 1.5-.6 2.1-1.2.4-.4 1.1-1.5.5-2.1-.4-.5-1.1-.7-1.7-.9-1.6-.4-3.3-.3-4.9-.2-1.5 0-3.1.1-4.6.4-2 .3-4 1-5.5 2.2-.7.6-1.5 1.4-1.6 2.4-.1.8.5 1.4 1.1 1.8 1.3.7 2.8.6 4.3.5 1.5-.2 3.2-.4 4.6-1q.4-.2.7-.4c.3-.2.1-.7-.2-.7-2-.7-4-1.4-6.1-1.5-1.1 0-2.2.1-3.2.5-.9.3-1.7.9-2.6 1.2-.2.1-.3.3-.3.5.2 1 .6 2.1 1.7 2.3 1 .3 2.1-.3 2.9-.8.1-.1.2-.2.2-.4-.1-1.2-1.3-1.7-2.4-1.1-.1.1-.2.3-.2.5 1.1 3.3 5.1 3.5 8 3.2 3.6-.3 7-1.5 10.4-2.3q2.6-.7 5.1-1.2c1.3-.2 2.7-.2 3.7-1.1.2 0 .2-.2.2-.4-.2-.6-.6-1.1-1-1.6q-.8-1.1-1.9-1.9c-1.1-.9-2.8-1.8-4-.5-.2.2-.2.5.1.7q1.3.7 2.7.4c.2 0 .4-.3.3-.5-.2-.6-.9-1-1.5-1.2-.8-.3-1.7-.5-2.5-.6l-2-.6c-.9-.3-1.8-.6-2.7-.6-1 0-1.9.5-2.4 1.4v.4c1.3 2.1 3.5 3 5.9 3.3.9.1 1.8.1 2.7.2.9.1 1.8.1 2.7.1.6 0 1.9.1 2.2-.7q.1-.3-.2-.5c-1.1-.8-2.5-1.3-3.7-2-.6-.4-1.3-.7-1.9-1.2-.4-.4-.9-.9-1-1.4q-.1.1-.2.3c1.6-.7 3.5-.1 5 .4 1.7.6 3.3 1.4 5 1.7.6.1.8-.7.3-.8-1.6-.6-3.1-1.5-4.6-2.1-1.4-.6-3-.9-4.2-1.7q-.1.4-.3.8c5.4.2 10.7.7 16.1.6v-.8c-1.2.1-1.9.7-2.1 1.9-.2.9.1 2-.4 2.8h.7c-.8-1.1-2.2-1.6-3.5-1.7-1.1-.1-2.6.1-3.3 1.2-.4.6-.4 1.3-.1 2l.4-.6c-2.8 0-5.4-1.1-8.1-.8-1.2 0-2.4.3-3.6.2-1.4-.1-2.8-.5-4.2-.2q-.9.1-1.6.7c-.4.4-.7.8-1.2 1l.6.2c-.2-.3-.1-.5.2-.7q-.3 0-.5-.1.8.9 1.7 1.8c.1.1.2.1.4.1 1.7-.6 3.1-1.6 4.7-2.4 1.6-.9 3.3-1.2 5-.4 1.6.8 3.1 2 4.9 2.1.9 0 1.6-.3 2.4-.8l.9-.6c.2 0 .4-.1.6-.1.2 0 .5.1.7.1 1.1 0 2.1-.4 2.9-1 .4-.4.7-.9 1.1-1.3q.6-.5 1.4-.8-.2-.1-.5-.2c.3.7.6 1.5 1.1 2.1.5.5 1.4 1.2 1.9.4.4-.7.3-1.5-.2-2.1-.4-.5-1.4-1-2-.4-.6.7-.9 1.7-.6 2.7l.3.6c.1.2.3.2.5.2q.6.1 1.1.1c1.5-.1 3-1 2.9-2.7 0-.6-1-1.9-.1-2.3.7-.2 1.7.3 2 .8.3.4.9.2.8-.3 0-.2 0-.3.2-.4q-.4-.1-.7-.2c.2.7.9 1.3 1.1 2q.1-.2.1-.4c-1.6 2-4.2 2.5-6.5 3-1 .2-2 .3-3 .6-.9.2-1.9.5-2.5 1.2-.2.3-.2.7.2.7 1.6.4 3.3.3 4.9.2.8-.1 1.6-.1 2.4-.2.7 0 1.3.1 1.9 0 1.2-.1 2.1-.4 2.8-1.4.6-.8 1-1.9 1.2-2.9.3-1.2.5-2.3.7-3.5.1-.5-.7-.8-.8-.2-.4 1.9-.5 4-1.5 5.7-.5.9-1.2 1.4-2.2 1.5h-1.8q-1 0-2 .1c-1.8.2-3.7.3-5.4-.1q.1.4.2.7c.5-.7 1.5-.9 2.3-1.1 1-.2 1.9-.3 2.8-.5 2.2-.5 4.5-.9 6.2-2.4.3-.2.5-.5.7-.8.2-.3.1-.5 0-.8-.3-.6-.8-1-1-1.6-.1-.3-.5-.5-.7-.2-.4.3-.5.7-.4 1.2q.4-.1.8-.3c-.5-.7-1.5-1.2-2.4-1.3-1 0-1.8.9-1.6 1.9.1.5.5 1 .5 1.5-.1.5-.3 1-.7 1.2-.7.6-1.7.5-2.5.4l.2.2q-.7-1.4.3-2.4-.1 0-.3.1c.8-.1 1.6.9 1.1 1.5q.1 0 .2-.1c-1-.1-1.4-1.6-1.8-2.4 0-.2-.3-.3-.4-.2-.9.3-1.7.8-2.3 1.6-.3.4-.6.7-1 1q-.6.4-1.4.5c-.5 0-.9-.2-1.4-.1-.4 0-.8.2-1.2.4-.7.4-1.3 1-2.2 1.1-1.8.1-3.3-1.3-4.9-2-1.6-.8-3.3-.7-4.9 0-1.9.7-3.4 2.1-5.4 2.7q.2 0 .4.1l-1.6-1.8c-.1-.1-.4-.1-.5 0q-1 .7-.5 1.8c0 .2.3.3.5.2.9-.4 1.3-1.4 2.2-1.7 1.4-.4 2.8.1 4.2.2 1.2.2 2.2 0 3.4-.2 1.3-.1 2.7 0 4 .3 1.5.2 3 .5 4.5.6.2 0 .5-.3.4-.5-.2-.6-.3-1.1.1-1.6.4-.4 1.1-.5 1.6-.6 1.2-.1 2.9.2 3.7 1.3.2.3.5.3.7 0 .5-.7.4-1.7.4-2.6.1-.3.1-.8.3-1.1.2-.4.6-.6 1.1-.6.5-.1.5-.9 0-.8-5.4 0-10.7-.4-16-.7-.5 0-.6.6-.3.8 1.4.9 3 1.1 4.4 1.8 1.6.6 3 1.5 4.6 2.1q.2-.4.3-.8c-1.9-.4-3.6-1.2-5.4-1.8-1.7-.6-3.6-1-5.3-.2-.1.1-.2.2-.2.4.2 1.5 1.7 2.5 3 3.1 1.3.8 2.8 1.3 4 2.2q-.1-.3-.1-.6c-.1.1 0 .1-.1.1q-.2.1-.4.1c-.3.1-.7.1-1 .1-.9 0-1.7-.1-2.5-.2-1.8-.1-3.7 0-5.4-.7-1.1-.5-2-1.3-2.6-2.3v.4c1-1.9 3.5-.5 5.1-.1.8.3 1.6.4 2.4.6.4.1.9.2 1.3.4.2.1.6.3.7.6q.2-.3.3-.6-1.1.2-2.1-.4 0 .4.1.7c.9-1 2.4.1 3.1.7q.9.7 1.5 1.6c.4.4.7.9.8 1.4q.1-.2.2-.5c-.9.7-2.2.7-3.2.9-1.5.2-2.9.6-4.3.9-1.9.5-3.8 1-5.6 1.5-1.5.4-3.1.8-4.6 1-1.6.2-3.2.3-4.8 0-1.5-.3-2.9-1-3.3-2.5l-.2.4c.4-.2 1-.2 1.1.4q.1-.2.2-.3c-.6.4-1.4.9-2.2.7-.8-.1-1.1-1-1.2-1.7q-.1.2-.3.5c.9-.3 1.7-.8 2.6-1.2.9-.4 1.9-.5 3-.5 2 .1 3.9.9 5.9 1.5q-.1-.4-.2-.7c-.5.4-1.4.5-2.1.7q-1.4.3-2.9.5c-.7 0-1.5.1-2.2 0-.7-.1-2.1-.5-2.1-1.5.1-.5.5-1 .9-1.3q.6-.6 1.3-1c1.1-.7 2.2-1.1 3.4-1.3 1.9-.5 3.8-.6 5.7-.6 1.1-.1 2.2-.1 3.4.1.7.1 1.8.2 2.3.9q-.1-.2-.1-.3c0 1-.9 1.5-1.8 1.9-.4.2-.9.3-1.3.5-.6.3-1.1.7-1.7 1-1.2.7-2.3 1.4-3.8 1.4-1.3 0-2.7-.2-4-.5-1.5-.4-2.9-1-4.2-1.8q.1.2.2.5c.7-2.7 5-3.2 5.9-.4v-.4c-.9 1.3-3.1.3-3.9-.7v.6c1-.9 2.1-1.6 3.3-2.1 1.2-.5 2.5-1 3.7-1.3 1.2-.3 2.5-.3 3.8-.6.9-.2 2.1-.5 2.7-1.2 1.1-1.1-.2-2.4-1.3-2.9-1.3-.7-3.1-1.2-4.5-.8-.3.1-.8.3-1 .6-.1.3-.1.7-.1 1q0 .6.2 1.1c.3 1.4 1.2 2.7 2.3 3.6.2.3.6.2.7-.1.3-1.2-.4-2.4-.9-3.4-.6-1-1.4-2.1-1.6-3.4 0-.5-.7-.5-.8 0-.1 1.1-.1 2.2-.3 3.2 0 .4-.1 1-.6 1.1-.3.1-.6-.2-.8-.3q-.5-.4-1.1-.6c-1.4-.5-3-.5-4.4-.1-1.4.3-2.5 1.1-3.1 2.4-.7 1.7-.3 3.6-1.5 5.2q.4 0 .8.1c-.2-.5.1-1 .4-1.3.4-.6.9-1.1 1.5-1.5.5-.3 1.1-.7 1.8-.9.4-.2 1-.4 1.4-.2q-.1-.2-.3-.5c-.1.7-.7 1.1-1.2 1.5-.6.3-1.2.6-1.7 1q.2.4.4.7c.8-.6 1.9-1.1 2.8-1.5 1.2-.5 2.6-1.2 4-1.3h.4s.2.1.1.1c.1 0 .1 0 .1.1q0-.1.1 0v.2l.2-.4c-1 .5-2.3.7-3.4.8-1.1.1-2.4.2-3.4-.2q.1.3.3.6c.9-1.4 2.7-1.7 4.2-2.1.5-.2.3-1-.2-.8zm74.2-8.2c-2.8.4-5.7.9-7.8 3-.2.2-.1.5.1.7 1.2.7 3.8.2 3.1-1.7-.7-1.5-2.6-.8-3.7-.2q-1.2.6-2.2 1.4c-.5.4-1 .8-1.3 1.3-.5.6-1 1.5-.6 2.3.4.8 1.5 1 2.3.8.9-.2 1.7-1 2.3-1.7.5-.7 1-1.7.5-2.5-.1-.1-.2-.2-.4-.2-1.2.1-2.3.9-3.2 1.7-1 .9-1.9 1.8-2.8 2.7-1 .9-2 1.6-2.8 2.6-.3.5-.7 1-.7 1.6 0 .6.9 1 1.4 1.1 1.5.2 2.5-1.2 3.8-1.7q-.2-.3-.4-.7c-.8.8-2.3 1.8-1.9 3.1.1.2.3.3.5.3 2.6-.9 4.3-2.9 6.2-4.6 1.6-1.5 3.8-2.7 4.5-4.9q-.5 0-.9-.1c0 .9.2 1.9.9 2.5.6.6 1.5.7 2.4.6 2-.1 4.1-1.2 5.6-2.5.7-.6 1.4-1.5 1.6-2.4.1-.3 0-.5-.3-.6-1.3-.4-2.8.1-3.8 1-.5.4-.9 1.1-1.1 1.8-.2.8 0 1.7 0 2.5 0 .1.1.3.2.4.8.3 1.9 0 2.7-.2 1.2-.4 2.3-.8 3.3-1.5.8-.4 1.6-1 1.7-2 .1-.9-.5-1.7-1.3-2.1-.9-.4-2-.6-3-.7-1 0-2 0-2.9.3-.9.2-2.2 1.1-1.6 2.2.5 1 1.7 1.4 2.7 1.4 1.1.2 2.4.1 3.5-.2.9-.3 2-.9 2-2 0-.2 0-.3-.2-.4-1.1-.6-2.3-.6-3.5-.7-1.1-.1-2.5-.2-3.2-1.2v.4c.1-.6.6-.8 1.2-.9.8-.1 1.6 0 2.4 0 .8.1 1.6.2 2.4.2.7 0 1.4-.1 1.9-.5.2-.1.1-.5-.1-.6-1.9-1-3.9-.8-5.9-.4-1.9.4-3.9 1-5.9.5l.2.6c.3-.4.8-.6 1.2-.7l1.8-.3c1.2-.1 2.4-.2 3.6-.5q1.1-.3 2.1-.9c.7-.3 1.3-.7 1.9-1 .2-.1.4-.2.6-.2h.2v.3q.1.2.1.5c-.1 1-.3 1.9-.3 2.9q0 .3.3.4c.9.3 1.8-.5 2.4-1 .4-.3.7-.6 1.1-.8.3-.2.3-.1.5.2q.3-.2.6-.5c-.3-.2-.2-1.1-.1-1.5.1-.5.3-1.4.8-1.4q-.2-.1-.4-.1c.7.8 1.2 1.8 1.5 2.8.2.5.3.9.1 1.4-.3.5-.9.8-1.4 1.1-1.3.6-2.6 1.3-3.8 2.1q-2.1 1.2-4 2.6-2.1 1.6-4.2 3.4c-.4.3.2.9.6.6 3.6-3.1 7.4-5.9 11.7-7.9.8-.4 1.5-.9 1.9-1.7.3-.8 0-1.6-.2-2.3q-.5-1.2-1.2-2.2c-.2-.3-.4-.7-.8-.6-.3 0-.5.2-.7.4-.5.6-.7 1.4-.8 2.1 0 .5 0 1.4.5 1.8.3.3.8 0 .6-.5-.2-.4-.5-.7-1-.7-.5-.1-.9.2-1.2.5-.4.3-.8.7-1.2 1-.3.2-.7.5-1.1.4l.4.4c-.1-1 .2-1.9.2-2.9 0-.7-.2-1.7-1.1-1.6-.6 0-1.2.3-1.6.6-.8.5-1.5.9-2.4 1.2-.7.3-1.5.5-2.3.6-.6.1-1.2.1-1.8.2-1.3.1-3 .2-3.8 1.4-.1.2 0 .5.3.6 3.8 1.1 7.8-2.1 11.6-.2q0-.3-.1-.7c-.2.2-.7.3-1 .3q-.8 0-1.5-.1c-1.2-.1-2.3-.3-3.4-.2-.9.1-1.8.4-2.1 1.3-.2.6.4 1.1.8 1.4.6.4 1.2.5 1.9.6 1.4.3 3 .1 4.3.7q-.1-.1-.2-.3c0 .6-.8 1-1.3 1.1-.9.3-1.8.4-2.7.3-.8 0-1.5 0-2.2-.5-.3-.2-.7-.5-.5-.8.2-.4.8-.6 1.1-.7.8-.3 1.5-.3 2.3-.2.8 0 1.7.1 2.5.3.6.2 1.3.6 1.4 1.2.1.7-.5 1.2-1.1 1.5-.9.7-1.9 1.1-3 1.5q-.7.2-1.5.4c-.2 0-.7 0-.9-.1l.2.4c0-1.3-.3-2.7.8-3.7.8-.7 2-1.1 3.1-.8q-.1-.2-.3-.5c-.1.7-.6 1.3-1.1 1.8-.7.7-1.4 1.2-2.2 1.6-.9.5-1.7.8-2.6.9-.7.2-1.5.2-2.1-.1-.8-.4-.9-1.3-.8-2.1 0-.5-.7-.6-.9-.1-.2 1-1.1 1.8-1.8 2.5-.8.7-1.6 1.3-2.4 2-1.8 1.6-3.4 3.5-5.8 4.4q.3.1.5.2c-.1-.4.2-.8.5-1.1.4-.4.8-.7 1.1-1.1.3-.3 0-.9-.4-.7-.7.3-1.3.8-2 1.3-.8.4-1.5.5-2.2-.1q.1.1.1.3c.1-1 1.1-1.8 1.8-2.4.7-.6 1.4-1.2 2-1.8.8-.8 1.5-1.6 2.3-2.2.8-.7 1.7-1.4 2.6-1.5q-.1-.1-.3-.2c.3.5-.1 1.1-.4 1.5-.4.6-.9 1-1.5 1.3-.5.3-1.4.4-1.7-.1-.3-.4.1-1.1.4-1.5.6-.8 1.6-1.4 2.4-2 .6-.3 1.1-.7 1.7-.9.4-.1 1-.3 1.4-.1.3.2.5.7.1 1-.4.3-1.2.2-1.7-.1q.1.4.1.7c1.9-2 4.6-2.4 7.2-2.7.5-.1.5-.9 0-.9z"/><path class="d" d="M73.8 227.8c.2-.5.5-.7 1-.7.5-.1 1-.1 1.5-.2 1.2-.3 2.3-.8 3.4-1.4 1-.5 2.2-.6 3.2-1.3.9-.6 1.7-1.4 2.6-2 .4-.3 0-1.1-.4-.8-.9.7-1.7 1.5-2.7 2.2-.5.3-1 .4-1.6.6-.6.2-1.2.4-1.8.7-1.1.6-2.2 1.1-3.5 1.3-1 .1-1.9.1-2.4 1.1-.2.5.5 1 .7.5z"/><path class="d" d="M80.3 218c-1 3.4-4.2 6.8-2.5 10.4.2.5.8.2.8-.2v-.4c.1-.6-.7-.6-.8 0v.4q.3-.1.7-.2c-.7-1.6-.2-3.4.5-5s1.6-3.1 2.1-4.7c.1-.6-.7-.8-.8-.3zm85.3-194.2c.4.7 1.2 1.2 1.9 1.5.9.4 1.9.7 2.9.9 1 .3 2 .4 3 .6q2.3.4 4.7.9c.5.1.8-.7.2-.8q-2.2-.5-4.4-.9c-1.1-.1-2.1-.3-3-.5-1-.2-1.9-.5-2.7-.8-.7-.3-1.5-.7-1.9-1.3-.2-.5-1-.1-.7.4zm-53.5 204.9c-.4 1.3.2 2.4 1.1 3.2.1.2.4.2.6 0 .6-.6 1.3-1.9.7-2.8q-.2-.3-.6-.4-.3-.1-.5-.1c-.3 0-.4.2-.6.4-.4.8-.1 1.7.6 2.2.2.2.7.1.7-.3-.1-.4-.2-.8-.5-1.1-.2-.1-.4-.3-.6-.3-.1 0-.3 0-.4.1-.4.1-.8.4-.9.9-.1.9.7 1.7 1.5 2 .9.4 2 .1 2.5-.8q.6-.9.3-1.9c-.1-.6-.5-1.3-1.1-1.7-.5-.3-1.3-.3-1.8.1-.4.4-.6 1-.5 1.5 0 .6.3 1.2.8 1.5.2.2.6.4.9.3.3-.1.6-.3.8-.6.3-.5.2-1.2 0-1.7q-.2-.4-.6-.7c-.1-.1-.3-.2-.4-.2-.2 0-.4.1-.6.1-.9.6-1.8 1.9-1.5 3 .1.7.7 1.1 1.3 1.2.7.3 1.5-.4 1.9-1 .1-.3.3-.7.2-1 0-.4-.6-.7-.9-.6-.8 0-1.1.8-1 1.4q0 .3.1.5c.2.3.3.3.6.3q.4 0 .8-.1c.4-.2.8-.5 1-.9.4-.9.2-2-.4-2.8-.6-.9-1.7-1.2-2.7-.7-1.1.5-1.5 2-.5 2.8 1 .8 2.3.4 3.3-.3.7-.4 2-1.6 1-2.5-1-.8-2.1 0-2.8.8-.5.8-1.1 2.1-.6 3q.2.3.5.5c.1.1.3.2.5.1.2 0 .3-.2.4-.4.5-.5.7-1.2.8-1.9 0-1.3-.8-2.6-1.9-3.4-.6-.3-1.2-.5-1.9-.5-.3 0-.5.2-.4.5.2.7.7 1.2 1.4 1.4.2.1.4 0 .5-.2 0-.3-.1-.5-.3-.6q-.6-.2-.8-.8-.2.2-.4.5c2.2 0 4 3.1 2.2 4.7q.2 0 .4-.1c-.2 0-.3-.1-.3-.3-.1-.2 0-.5 0-.8.2-.6.5-1.2 1-1.6.2-.2.4-.4.6-.4q.1-.1.3 0 .2 0 .3.2v.1q0 .1-.1.2c-.2.3-.4.5-.7.7-.5.4-1 .7-1.7.7-.3 0-.6-.1-.8-.3q-.3-.3-.2-.6c0-.5.8-.9 1.3-.9q.3 0 .6.2c.1.1.3.3.4.6.3.4.4 1.1.3 1.6-.1.1-.1.1-.2.3 0 .1-.1.1-.2.2-.2.2-.5.2-.9.2l.4.2c-.1-.2-.2-.5-.1-.7.2-.2.3-.1.5 0q-.1-.1-.2-.3c0 .6-.3 1-.9 1.2-.1 0-.3 0-.1.1q-.1-.1-.3-.1-.1-.1-.2-.1-.2-.2-.3-.5c-.2-.9.6-1.8 1.4-2.1h-.3c.4.2.6.7.6 1.1q0 .3-.3.4c0 .1-.1.1-.1.1.1-.1.1 0 0 0q-.1-.1-.3-.2c-.5-.5-.6-2 .4-1.8.5.1.9.8 1 1.2q.2.8-.3 1.5c-.5.7-1.2.5-1.8.1-.1 0-.2-.1-.2-.2l-.2-.2-.1-.1v-.2c-.1-.1 0 0 0 0q-.1-.1 0-.2c-.1.1-.1.1 0 0 0-.1-.1.1 0 0v-.1q.2-.1.6-.2h-.4q.4.2.4.6.4-.1.8-.3c-.5-.4-.7-.8-.3-1.3l-.4.2h.4c.1 0 .1.1.1.1.1.1.1.1.1.2v.3c-.1.4-.4.9-.7 1.2h.6c-.4-.3-.7-.6-.9-1-.2-.5-.1-.9 0-1.4.2-.5-.6-.7-.8-.2zm20.7-.9c-.9-.1-1.4.6-1.3 1.4.1.8.7 1.6 1.5 1.8.9.1 2-.5 2-1.5 0-.9-.8-1.7-1.5-2.2-.8-.5-1.9-.7-2.6.1-.6.7-.6 1.9-.1 2.7 1.1 1.8 3.9.7 4.1-1.2.1-.9-.6-1.9-1.5-2-1-.2-2.1.3-2.8.8-.8.6-1.5 1.5-1.5 2.5.1.9.8 1.6 1.6 1.9.8.3 1.7.3 2.3-.4.6-.6.4-1.6-.1-2.2-.5-.6-1.2-1-1.9-1.2-.7-.2-1.5-.2-2.1.2-.7.4-.7 1.4-.5 2.1.3.8.9 1.5 1.9 1.4.8 0 1.6-.5 2.3-1 .7-.5 1.3-1 2-1.6q.3-.3.6-.5c.1-.2.1-.5 0-.6-.2-.2-.5-.2-.6 0-1 .8-1.8 1.6-2.9 2.3-.5.3-1.1.6-1.6.6-.2 0-.4-.1-.6-.3-.2-.2-.3-.5-.4-.8v-.5c0-.1.1-.2 0-.2l.1-.1.1-.1h.1v-.1h.1c.4-.2 1-.1 1.5.1s1 .4 1.3.9c0-.1.1.2.2.2v.3q.1.4-.2.6c-.1.2-.4.2-.6.3q-.4 0-.8-.2c-.6-.2-1-.7-.9-1.3 0-.7.7-1.3 1.2-1.7.6-.4 1.4-.8 2-.6.6.1 1 .7.9 1.3-.2.6-.7 1-1.3 1.2-.6.1-1.2-.2-1.4-.8-.2-.5-.2-1.4.4-1.6.5-.3 1.2.2 1.6.6.3.2.5.5.7.8.1.2.1.4 0 .6-.1.2-.5.4-.7.4q-.4 0-.7-.3-.3-.3-.4-.7v-.5c.1-.1 0 0 .1 0 0 0 .1-.1 0-.1h.4c.2.1.4-.2.4-.4s-.2-.4-.4-.4zm15.9-2c-.6.7-1.2 1.4-1.6 2.1-.4.6-1 1.7-.4 2.4.4.3.9.4 1.3.3q1 0 1.7-.6c.9-.7 1.4-2 1-3.1-.6-1.7-2.8-1.8-4-.8-.4.2-.2.9.3.7q-.3-.2-.5-.4c0-.3 0-.2-.1 0q0 .1-.1.2l-.4.6-.4.6q-.1.2-.2.3.2 0 .5-.1c-.3-.2-.6.1-.6.4 0 .5 0 1.1.5 1.4.4.2.9 0 1.3-.2.8-.4 1.7-1.4 1.7-2.3 0-.5-.3-.9-.8-1-.4-.1-.7-.1-1 .3q-.3.4-.4.9c-.3 1.4 1 2.5 2.2 3 1.3.5 3.3.7 4.1-.7.1-.1.1-.3 0-.4-1.6-3-5.4-2.2-8-1q.3.2.6.3v-.4c0-.6-.9-.6-.8 0v.4c0 .4.3.5.6.4 2.2-1 5.5-1.8 6.9.7v-.4c-.6 1-2.4.7-3.3.2-.5-.2-1.1-.6-1.4-1.1-.2-.6-.1-1.1.3-1.6l-.4.2h.5c-.1 0 .1.1 0 0l.1.1c-.1-.1-.1.2-.1.1 0 .4-.3.8-.6 1.1-.1.1-.3.3-.5.4-.2.2-.3.2-.5.3.1-.1-.1 0-.1 0v-.1q-.1-.2-.1-.6l-.6.4c.1.1.4 0 .5-.1.1-.1.2-.3.3-.4q.2-.4.4-.7c.3-.3.6-.8.7-1.2 0-.3-.3-.5-.5-.4q.1.4.3.8c.8-.6 2.3-.8 2.8.3.3.8-.1 1.7-.6 2.2-.4.3-.8.5-1.3.5h-.5l-.2-.1v-.2c0-.1 0-.3.1-.4.1-.3.3-.6.5-.9.4-.7.9-1.2 1.4-1.8.3-.4-.3-1-.6-.6z"/><path class="d" d="M182.9 133.5c.8.2 1.6 0 2.3-.5.3-.2.6-.5.8-.9.3-.4.3-.8.4-1.2.1-.9 1-1.3 1.4-2 .5-.9.3-2 .6-3s.7-2 .9-3c.2-1 .5-2 .9-3s.4-2.2 1-3c.2-.4.5-.7.7-1.1q.2-.6.5-1.2c.4-.9.5-1.8.7-2.8l.6-3.4c.4-2.3.9-4.5 1.3-6.8q.2-1.4-.1-2.7c-.2-1.1-.6-2.1-.6-3.2 0-.8.5-1.1 1.1-1.7.5-.5.8-1.1.9-1.8.4-2.1 1-4 1.5-6.1.4-2 .4-4-.3-5.9-.4-1-.6-1.9-.5-3 .1-1 .3-2 .4-3 .3-2-.3-4-.6-6-.1-.5-.2-1-.2-1.5.1-.6.2-1.2.4-1.8.2-1 .2-2 .3-3 .1-2.2.9-4.2 1-6.4 0-1-.2-2-.4-3-.2-.5-.4-.9-.5-1.4-.1-.5-.2-1.1-.3-1.7-.2-2-1-3.9-1.8-5.8-.4-1-.8-1.9-1.2-2.9-.2-.8-.5-1.6-.9-2.2-.6-.8-1.3-1.3-2.1-1.8-.8-.6-1.7-1.2-2.5-1.9-.7-.7-1.4-1.4-2.3-1.9-.3-.3-.8-.4-1.1-.8-.3-.4-.3-1-.5-1.5-.2-.3-.5-.6-.8-.8-.4-.4-.6-.8-.9-1.2-.6-.7-1.2-1.4-2-1.8-.9-.4-1.8-.5-2.8-.7l-.2.8q.1 0 .2.1c.6.1.8-.7.3-.8q-.2-.1-.3-.1c-.5-.1-.7.7-.2.8 1 .2 2 .3 2.9.8.8.5 1.3 1.3 1.9 2 .2.3.5.6.8.9.4.3.5.8.6 1.3.2.4.3.7.6 1 .3.3.8.4 1.1.7.8.5 1.5 1.2 2.3 1.9.7.7 1.5 1.2 2.3 1.8.8.5 1.6 1.1 2.1 1.9.4.7.7 1.6 1 2.3.7 1.9 1.6 3.7 2.2 5.6.3 1 .4 2 .6 3.1.1 1 .5 1.8.7 2.8.6 2.1.2 4.1-.3 6.2-.2.9-.4 1.9-.4 2.9 0 1.1-.1 2.1-.4 3.2-.2 1-.2 1.9-.1 2.9.2.9.4 1.9.6 2.9.1 1 .2 2 .1 3.1-.1.9-.3 1.8-.4 2.7-.1.9-.1 1.9.2 2.8.3 1 .7 1.9.8 2.9.2 2.1-.4 4.1-.9 6q-.4 1.5-.7 3c-.2.8-.3 1.4-.9 2-.5.4-1 .8-1.2 1.4-.2.8 0 1.7.2 2.5.2 1 .6 2 .5 3 0 1.1-.3 2.1-.5 3.1q-.5 3.3-1.1 6.6c-.4 1.9-.7 3.9-1.7 5.6-.1.3-.4.6-.6.9-.2.4-.3.9-.4 1.4-.3 1-.7 1.9-1 2.9-.3 1-.5 2-.8 3-.2 1-.6 1.9-.7 2.9-.1.5-.1.9-.3 1.4-.1.4-.5.7-.8 1-.3.3-.5.6-.6.9-.2.4-.2.9-.3 1.3-.3.9-1.4 1.4-2.2 1.2-.6 0-.8.8-.3.8z"/><path class="d" d="M179.6 25.3h-.3c-.2 0-.4.1-.4.3-.3.7.3 1.2.8 1.6q.2.2.3.4c.1 0 .1 0 0 0q.1 0 .1.1c.1.1 0 0 0 0v.1h.1c0 .1 0 0 0 0v.1s-.1.1 0 0c0 0-.1.1 0 0s-.1 0-.1 0c0 .1.1 0 0 0q0 .1-.1.1c-.1 0 0 0 0 0h-.4q-.3 0-.6.1c-.3.1-.4.3-.3.5 0 .2.3.4.5.3h.1s.1-.1 0 0q.2-.1.3-.1h.6c.4-.1.7-.3.8-.7 0-.5-.1-.8-.4-1.1-.2-.3-.5-.5-.7-.7l-.2-.2c0 .1 0 0 0 0l-.1-.1s.1 0 0 0v-.1s0 .1 0 0l.1-.1q-.2.2-.4.3h.3c.2 0 .4-.2.4-.4s-.2-.4-.4-.4zm-.1 119c.6-.4 1.3-.4 2-.2s1.5.3 2.1-.2c.2-.1.1-.4 0-.6-.2-.1-.4-.1-.6 0-.2.2-.5.2-.7.1-.3-.1-.6-.2-1-.2-.8-.1-1.5 0-2.2.4-.5.3-.1 1 .4.7z"/><path class="d" d="M146.7 137.7q0-.1.1-.3-.2.2-.4.3c.9-.1 1.8.3 2.7.5 1 .2 2 .4 3 .7 1 .4 2 .9 2.9 1.2q1.6.6 3.1 1c2.1.6 4.3.9 6.4 1.3q3.4.6 6.9 1.3l7.6 1.4c.6.1.8-.7.3-.8q-6.9-1.3-13.8-2.5c-2.2-.4-4.4-.8-6.6-1.3-2.1-.6-4.1-1.4-6.1-2.2-1.1-.5-2.2-.7-3.4-.9-1-.2-2-.6-3-.5q-.3 0-.4.3-.1.2-.1.3c-.2.5.6.7.8.2zM86.8 95.2c1.1 0 2.2-.3 3.3-.6 1-.2 2-.4 3-.8q.6-.2 1.1-.6c.2-.1.4-.3.6-.4l.9-.3c.9-.3 1.6-.8 2.4-1.4 1.5-1.1 2.5-2.6 3.2-4.4.4-1.1.8-2.1 1.2-3.2.1-.5.3-1 .4-1.5 0-.5.3-.9.5-1.4.4-.9.4-1.9.6-2.9.1-.5.3-.9.5-1.3l.8-1.6c.5-.9 1.1-1.8 1.6-2.8.5-1 .9-2 1.5-2.9.2-.5.5-1 .8-1.4.3-.4.6-.7.8-1.2.1-.5.2-.9.4-1.4q.3-.7.8-1.4c1-1.7 2.3-3.2 3.1-5 .5-1.2.7-2.4 1.3-3.5.6-1.1 1.3-2 1.7-3 .2-.6.3-1.1.5-1.6s.2-1.1.5-1.6c.2-.5.6-.8.9-1.2.4-.5.8-.9 1.2-1.3.4-.4-.2-1-.6-.6-.7.6-1.3 1.4-1.9 2.2-.3.3-.5.6-.6 1-.1.5-.2 1-.4 1.5-.1.5-.2 1-.4 1.4-.2.5-.5 1-.8 1.4-.5.9-1 1.8-1.4 2.7-.4 1-.7 2.1-1.2 3.1-.5.8-1 1.6-1.6 2.5-.6.8-1.1 1.6-1.6 2.5-.2.4-.4.8-.5 1.3-.2.5-.3 1-.6 1.4-.3.4-.6.7-.8 1.1l-.8 1.4c-.5 1-1 2.1-1.5 3-.5 1-1.1 1.9-1.5 2.8-.5.9-.9 1.8-1.1 2.8 0 .5-.1.9-.2 1.4-.1.5-.3.9-.5 1.4-.2.4-.3.8-.4 1.2-.1.6-.3 1.2-.5 1.7-.7 2-1.3 4-2.7 5.6-.6.7-1.4 1.4-2.3 1.9-.4.3-.9.5-1.5.6-.5.2-.9.5-1.3.8-.9.7-2.1.8-3.2 1.1-1.2.3-2.4.6-3.7.7-.5 0-.5.8 0 .8zm-34 127.6c.2-1 .1-2.1.6-3h-.7c.2.3.1.7.1 1 0 .4.4.5.7.3.8-.6.9-1.9 1-2.8 0-.5.1-1.1.1-1.6.2-.8.4-1.5.6-2.3.2-.8.5-1.7.7-2.5.2-.9.3-1.8.4-2.6.3-1.8.6-3.6 1-5.4.2-.9.4-1.6.8-2.4.3-.7.7-1.4 1.1-2.1.3-.7.7-1.4 1-2.1.3-.8.4-1.6.6-2.4.1-.8.3-1.6.5-2.4.3-.8.5-1.6.8-2.4.6-1.4 1.4-2.9 2.5-4 .5-.6 1.1-.9 1.6-1.4.6-.6 1.1-1.3 1.6-1.9.5-.5 1-1.2 1.7-1.6.6-.4 1.4-.6 2.1-.7.8-.2 1.6-.4 2.4-.3.8.1 1.6.3 2.5.5.9.2 1.8.3 2.6.5q.7.1 1.3.2c.4.1.8.3 1.2.5.8.3 1.6.5 2.3.7q1.2.4 2.4.7c1.7.4 3.4.5 5 .8q1.4.3 2.8.5c.8.2 1.7.4 2.6.4h1.2c.5 0 1 .1 1.4.2.9.2 1.8.3 2.6.5 1.7.5 3.4 1 5.1 1.3 1.8.2 3.6.2 5.4.6 1.7.4 3.3 1 5 1.3.9.1 1.8.1 2.7.2.8 0 1.4.2 2.2.3.6.1 1.2-.1 1.7-.6.4-.4-.2-1-.6-.6-.5.6-1.2.3-1.9.2-.8-.2-1.6-.2-2.4-.2-1.8 0-3.5-.6-5.2-1.1-1.7-.4-3.5-.6-5.2-.8-1.8-.2-3.5-.5-5.3-1q-1.2-.4-2.5-.6c-.9-.2-1.8-.4-2.6-.5H97q-.6 0-1.3-.1-1.4-.3-2.8-.5l-5.1-.9q-1.2-.1-2.4-.5c-.8-.2-1.6-.5-2.5-.8-.7-.2-1.4-.6-2.2-.8-.9-.2-1.8-.3-2.7-.5q-1.2-.2-2.5-.4c-.8-.2-1.6-.4-2.5-.3-.7 0-1.5.2-2.2.4-.7.2-1.4.4-2 .8-.6.5-1.1 1.1-1.6 1.7-.6.6-1 1.3-1.6 1.9-.5.4-1.2.8-1.7 1.3-.5.6-.9 1.2-1.3 1.8q-.7 1.1-1.1 2.2c-.4.7-.5 1.5-.8 2.3-.2.8-.5 1.5-.6 2.3-.2.8-.2 1.7-.5 2.5-.3.7-.7 1.4-1.1 2.1-.3.8-.7 1.5-1.1 2.2-.3.7-.6 1.4-.8 2.1q-.3 1.4-.5 2.7l-.9 5.4c-.3 1.7-1 3.3-1.3 5-.2 1.1-.2 2.2-.5 3.3 0 .4-.2.9-.5 1.1q.4.2.7.3c0-.5.1-.9-.2-1.4-.2-.3-.5-.2-.7 0-.6.9-.5 2.1-.7 3.1-.1.6.7.8.8.3zM36 121q.1-.1.3-.2c.3-.4-.1-.9-.5-.7-1.5.7-2.5 2-3.6 3.2-.6.6-1.1 1.2-1.3 2-.1.4-.1.8-.3 1.1-.1.4-.4.8-.5 1.2-.3.8-.2 1.7-.6 2.5-.3.9-.6 1.7-.8 2.6q-.2 1.5-.5 3c-.1.9-.2 1.9-.5 2.8-.2.8-.6 1.5-.8 2.3-.2.9-.3 1.8-.4 2.7-.3 2-.4 4-.8 6q-.5 2.9-1 5.9c-.2.9-.5 1.7-.8 2.6-.3.9-.5 1.8-.7 2.7-.3.8-.5 1.7-.7 2.6-.2.9-.5 1.8-.3 2.7 0 .4.1.7.2 1.1.1.5 0 .9-.1 1.4-.2.8-.3 1.5-.2 2.4.1.4.2.9.2 1.3 0 .5-.1 1-.2 1.5-.2.8-.3 1.7-.7 2.5-.4.9-.7 1.7-1.1 2.6-.3.8-.8 1.6-1.1 2.4-.7 1.7-.9 3.5-1.3 5.3-.1.9-.3 1.9-.4 2.9 0 .9 0 1.8-.2 2.7-.2 1.9-.9 3.7-1 5.6-.1 1 0 1.9-.2 2.9-.2.9-.4 1.7-.5 2.7 0 1.9-.4 3.8-.7 5.7-.2 1.3-.3 2.5-.5 3.7-.4 2.5-.9 5.4-2.6 7.3q-.7.7-1.5 1.2c-.4.2 0 .9.5.7 2.2-1.3 3.3-3.8 3.9-6.2.3-1.3.5-2.6.7-4q.3-2.1.6-4.1.3-1.5.4-2.9c.1-.9.1-1.9.3-2.8.2-1 .4-1.9.4-2.8 0-1 .1-1.9.3-2.9.3-1.8.8-3.6.9-5.5 0-1 .1-1.9.2-2.9q.3-1.4.6-2.9c.1-.8.3-1.7.5-2.5.3-.9.8-1.7 1.2-2.6.4-.9.7-1.8 1.1-2.7.3-.7.6-1.3.8-2.1.1-.9.4-1.8.4-2.7 0-.9-.3-1.8-.2-2.7.1-.8.5-1.5.4-2.4-.1-.3-.2-.7-.3-1-.1-.6 0-1 .1-1.5.2-1 .3-1.9.6-2.8.2-.9.5-1.8.7-2.7.2-.9.6-1.7.9-2.6.2-.9.3-1.9.5-2.9.4-1.9.8-3.8 1-5.8.1-.9.2-1.9.3-2.9.1-1 .3-1.9.4-2.9.2-.9.4-1.7.7-2.5.4-.9.5-1.8.7-2.7l.4-2.8c.2-1 .4-2 .7-2.9.3-.8.6-1.5.7-2.4 0-.5.1-.9.3-1.3.2-.3.4-.7.5-1.1.1-.4.2-.8.3-1.1.2-.5.4-.8.7-1.2.6-.6 1.1-1.3 1.7-1.9q.9-.9 2-1.4-.3-.3-.5-.6-.1.1-.3.2c-.4.4.2 1 .6.6zM154 6c0 .5-.6.8-.9 1.1-.3.4-.4.9-.9 1.1-.4.2-.9.3-1.2.7-.3.5-.4 1.1-.4 1.6.2 1.3 1.1 2.1 2 3 .4.5.7 1 1.1 1.5.4.4.8.8 1.4.9.5.1.7-.7.2-.8-.5-.1-.8-.5-1.1-.9q-.5-.7-1.2-1.4c-.7-.8-1.7-1.7-1.5-2.9.1-.6.4-.7.9-.9.5-.2.8-.4 1-.8.3-.4.5-.7.8-1 .4-.3.6-.7.6-1.2s-.8-.5-.8 0zM64.4 123.1c.9.3 1.8.1 2.8 0 .8-.1 1.7.1 2.6.4.8.3 1.6.8 2.5 1.2.8.4 1.7.6 2.6.7.9.2 1.7.7 2.6 1q1.3.6 2.7 1 2.8.9 5.7 1.4c.9.2 1.8.5 2.7.8.9.3 1.9.4 2.9.6 1 .1 1.8.4 2.7.7.9.3 1.8.6 2.7.6.4 0 .8-.1 1.3-.1l1.5.3c.9.2 1.7.2 2.5-.1.9-.2 1.9 0 2.7-.5.3-.2.6-.4 1-.6.4-.1.9-.2 1.4-.3.9-.1 1.7-.6 2.5-1.1l1.2-.6c.4-.2.8-.3 1.2-.4.8-.3 1.5-1 2.2-1.5.7-.6 1.5-1.1 2.3-1.6 1.5-1.1 2.9-2.4 4.3-3.6 1.4-1.2 2.7-2.4 4-3.8.6-.6 1.2-1.3 1.7-2.1.4-.7.5-1.5.9-2.2.2-.3.4-.6.6-1 .2-.4.3-.9.5-1.4.3-.9.7-1.8 1-2.7.3-.9.3-1.9.7-2.7.2-.4.5-.8.7-1.3.2-.4.3-.9.5-1.3.4-.9.9-1.7 1.3-2.5.4-.9.6-1.9.9-2.8.1-.4.2-.8.4-1.2.2-.4.4-.7.6-1.1.3-.7.4-1.5.8-2.2.4-.8.8-1.4.9-2.3.1-.4.1-.8.2-1.2q.3-.7.5-1.4c.6-1.8.7-3.6 1-5.5q.3-1.3.8-2.6c.4-.9.8-1.7 1-2.6.3-.9.7-1.6.8-2.5.1-.5-.8-.5-.8 0-.1.9-.6 1.7-.9 2.5-.2.9-.7 1.8-1 2.7-.7 1.7-.9 3.5-1.1 5.2-.1.9-.3 1.8-.6 2.6-.3.9-.6 1.7-.7 2.6 0 .5-.1.9-.4 1.3-.1.3-.4.6-.5 1-.4.7-.5 1.5-.9 2.2-.4.8-.7 1.4-.9 2.2-.3.9-.5 1.9-.9 2.8-.4.8-.9 1.6-1.2 2.4q-.3.6-.5 1.3c-.2.4-.5.9-.7 1.3-.4.8-.5 1.7-.7 2.5-.3 1-.7 1.9-1 2.8q-.2.6-.4 1.3c-.2.4-.4.7-.6 1.1q-.4.5-.6 1.1c-.1.3-.2.7-.4 1.1-.4.8-1.1 1.5-1.7 2.1q-.9 1-1.9 2c-1.3 1.2-2.7 2.3-4.1 3.4-.7.7-1.4 1.3-2.2 1.8-.7.6-1.5 1.1-2.3 1.6-.7.6-1.3 1.2-2.2 1.5-.8.2-1.5.6-2.2 1-.9.5-1.6.9-2.6 1.1-.4.1-.9.1-1.3.3-.4.2-.7.4-1 .6-.4.2-.7.2-1.1.2-.6 0-1 .1-1.5.3q-.6.1-1.2.1c-.5 0-1-.2-1.5-.3-.9-.2-1.8 0-2.7-.1-.9 0-1.8-.4-2.6-.7-1.8-.6-3.8-.6-5.6-1.2-1.8-.7-3.7-.9-5.5-1.4-1.8-.5-3.7-1.1-5.4-1.8l-1.2-.6c-.5-.1-.9-.2-1.4-.3-.9-.2-1.8-.4-2.6-.9-1.6-.7-3.1-1.6-4.9-1.4-.9 0-1.8.3-2.7 0-.5-.1-.8.7-.2.8zm82.6 61.7c1.7-.8 3.2-1.8 5-2.4.9-.3 1.9-.5 2.8-.8q1.3-.4 2.6-1l2.6-1.2c.9-.3 1.7-.6 2.5-1.1 1.6-.9 2.9-2.2 4.4-3.3 1.4-1.1 2.7-2.1 3.8-3.5 1.2-1.5 2.3-3 3.3-4.5.5-.7 1-1.5 1.4-2.3.3-.8.5-1.7 1-2.4.4-.9.9-1.7 1.3-2.5.3-.4.5-.8.6-1.2.2-.4.2-.8.3-1.2.3-.9.9-1.6 1.4-2.4.5-.9.6-1.8.9-2.7.2-.5.3-.9.4-1.4l.3-1.5c.3-1 .9-2 1.3-3 .2-.5-.7-.7-.9-.2-.3.9-.7 1.7-1.1 2.6-.3.8-.3 1.7-.5 2.6-.2.4-.3.7-.4 1.1-.1.5-.2.9-.4 1.4-.2.7-.8 1.3-1.2 2-.4.7-.6 1.5-.8 2.3-.3.8-.8 1.6-1.3 2.4-.4.8-.9 1.6-1.2 2.4-.3.9-.6 1.7-1.1 2.5-.9 1.5-2 3-3.1 4.4-1 1.4-2.2 2.7-3.6 3.8-.7.5-1.5 1-2.1 1.6-.8.6-1.5 1.2-2.2 1.7-1.5 1-3.3 1.7-4.9 2.4-1 .4-1.9.9-3 1.2-1 .4-2 .6-3 .9-2 .6-3.7 1.7-5.6 2.6-.4.2 0 .9.5.7zm-65.8 35.9c-2.1 1.4-4.3 3.1-5.1 5.5-.1.2 0 .4.2.5.8.6 2.3.1 3.1-.3 1.1-.5 2.3-1.2 3-2.2.7-1.1.1-2.4-1.2-2.5-1.3 0-2 1-2.6 2q-.7 1-1.1 2.1c-.1.6-.3 1.2-.1 1.8.1.1.3.2.5.1 1.6-.2 3.1-1 4.4-1.8 1.2-.9 2.6-2.1 2.9-3.7.1-.4-.4-.7-.7-.3-1.1 1.4-1.7 3.1-2.2 4.8 0 .1 0 .3.1.4.6.5 1.4.3 2.1 0 .9-.4 1.8-1 2.7-1.6l2.6-2c.8-.6 1.7-1.2 2.4-1.9 1.5-1.3 2.6-2.9 4-4.2.4-.3-.1-.8-.5-.6-1 .5-2.2.6-3.2 1.2-.4.3-.8.8-.9 1.3 0 .6.4 1 .9 1.2 1.1.4 2.2-.3 3.1-.8.9-.6 1.8-1.4 2.4-2.3.4-.6.6-1.4.3-2.1-.2-.6-.6-1-.6-1.7q-.2.2-.5.4c1.1 0 2.2.3 3.1.7q-.1-.1-.2-.3c.1 2.3-2.3 4.4-4.5 4.6q.2.1.4.3c-.1-.5.2-.9.5-1.3.3-.5.4-1.1.2-1.6-.4-1.1-1.7-1.1-2.6-1.2-.6-.1-.8.6-.3.8q.6.1 1.2.3c.6.1.8-.7.3-.8q-.6-.2-1.2-.3-.1.4-.3.8c.7.1 2.2 0 2.1 1 0 .4-.3.8-.5 1.2q-.4.6-.2 1.3c.1.2.2.3.4.3 2-.2 4-1.5 4.9-3.4q.3-.6.4-1.3c.1-.3.1-.6 0-.8 0-.2-.3-.3-.5-.4-.9-.5-2.1-.8-3.2-.7-.2 0-.4.2-.4.4 0 .5.2 1 .4 1.4.3.4.5.8.4 1.2-.2 1-1.1 1.7-1.8 2.3-.7.5-1.6 1.2-2.5 1.3-.3 0-.7-.1-.9-.4.1.1 0 0 .1-.1q0-.1.1-.2.2-.3.5-.4c.9-.6 2.1-.7 3.1-1.2q-.3-.3-.5-.7c-1.2 1.1-2.2 2.4-3.4 3.6-.8.8-1.7 1.4-2.6 2.1-1.5 1.2-3.1 2.5-4.8 3.5-.4.2-.8.4-1.3.5-.1.1-.2.1-.4.1-.1 0-.2-.1-.2-.1q0 .2.1.4c.5-1.6 1.1-3.2 2.1-4.6q-.4-.1-.8-.3c-.2 1.5-1.6 2.5-2.7 3.3-1.2.8-2.6 1.4-4 1.6q.2.1.5.2c-.1-.2 0-.7.1-1q.3-.7.7-1.5c.4-.7.8-1.7 1.7-1.9.3-.2.9-.2 1.1.2.2.3.1.6-.1.9-.6.8-1.5 1.3-2.4 1.8-.6.3-1.9.9-2.6.4l.2.4c.7-2.1 2.9-3.7 4.7-4.9.5-.3 0-1.1-.4-.8zm-64.3 6.8c-1.1-.3-2.2-.4-3.4-.7-.9-.2-2.3-.5-2.8-1.5l-.2.6c1.6-.2 2.6-1.5 4-2.1.1-.1.2-.3.1-.5-.1-.5-.4-.9-.8-1.2q.1.3.1.6c.1-.2.2-.2.4 0q-.1-.2-.2-.5c-.1.3-.3.2-.5 0q0 .3-.1.6c.7-.4 1.9-.1 2.6.1q1.6.3 3.1.9c2.5 1 4.6 3 7.1 4.1.6.2 1.3.5 1.9.8.5.3 1.1.6 1.5 1.1q.1-.3.3-.6c-1.6.1-3.3 0-4.9.3-1.6.2-3.4.8-4.3 2.2-.2.3 0 .6.2.6 1.3.4 2.6.1 3.9-.2 1.2-.4 2.5-1 3.8-1 2.7-.1 5.6.5 8.2-.6 1-.4 2.1-1.1 2.6-2.1.5-.9.3-1.8-.3-2.6-1.1-1.3-3-2-4.6-2.7-1-.3-2-.7-3.1-.9-.7-.2-1.6-.4-2.4-.1-.3.1-.4.6-.1.7 1.8 1 3.7 1.7 5.6 2.1q1.5.3 2.9.3c1.1.1 2.1.1 3 .5q.1-.4.1-.8-.4-.1-.8-.4l.2.4c0-1.1 1.3-1.6 2.1-1.9 1.1-.4 2.2-.6 3.2-.5.6.1.6-.8 0-.8-1.4-.2-3 .2-4.3.9-.6.3-1.3.7-1.6 1.4-.1.2-.3.6-.2 1 .1.5 1 .6 1.4.7.5 0 .5-.7.2-.8-1-.4-1.9-.5-2.9-.5s-1.9-.1-2.9-.3c-2-.3-3.8-1-5.6-2q0 .4-.1.8c.6-.2 1.2-.1 1.8 0q1.2.3 2.4.7c1.4.5 2.9 1.1 4.1 1.9.7.5 1.6 1.3 1.3 2.3-.3.9-1.4 1.5-2.3 1.9-1.1.6-2.4.6-3.7.6-1.3 0-2.5 0-3.8-.1-2.6 0-5.1 2-7.8 1.3q.1.3.2.7c.8-1.4 2.6-1.8 4-1.9 1.5-.2 3-.2 4.5-.2.3-.1.6-.4.4-.7-.7-1-2-1.6-3.1-2-.6-.3-1.1-.5-1.7-.8-.7-.4-1.4-.9-2.2-1.4-1.2-.8-2.4-1.5-3.8-2.1q-1.5-.6-3.2-1c-.9-.3-2.4-.6-3.3 0-.2.2-.3.5-.1.7.3.2.7.5 1.1.4.4 0 .7-.4.8-.8.1-.1 0-.3-.2-.4-.5-.4-1.2-.4-1.5.3-.1.2 0 .4.2.5q.3.3.4.7.1-.2.2-.5c-1.3.7-2.2 1.9-3.7 2.1-.3.1-.4.4-.3.7.6 1 1.9 1.5 3 1.8 1.2.3 2.5.4 3.7.7.5.1.8-.7.2-.8z"/><path class="d" d="M132.3 189.4c-1.4 1-2.2 2.8-2.7 4.4-.2.5.5.7.7.3.3-.3.4-.6.7-.9.2-.3 0-.9-.5-.7-1.2.3-2.5.5-3.8.6H125c-.3 0-.6-.1-.8 0-.2.1-.4.3-.6.4-1.3 1.1-1.7 3.1-.6 4.5.8 1 2.2 1.3 3.4 1.1 1.1-.1 2.4-.6 3-1.6.6-1 .2-2.3-.7-2.9-.9-.6-2.1-.7-3.1-.7-1.3-.1-2.6 0-3.8.4-.9.3-2 .8-2.2 1.9-.3 1.3 1.2 2 2.3 2.3 1.3.4 2.7.6 4 .1.9-.2 1.8-.7 2.5-1.3.2-.3.5-.5.4-.9-.1-.3-.2-.5-.4-.6-.9-.9-2.3-1.2-3.4-1.5-1.2-.3-2.4-.5-3.7-.7-1.5-.3-3-.8-4.6-.9-.8 0-1.7 0-2.5.3-.4.2-.6.3-.7.7q0 .5.2.9c.5 1.1 2 1.6 3.1 2 1.4.6 2.9 1.1 4.3 1.6 2.2.7 4.6 1.2 7 1 2.1-.2 4.2-.8 6.2-1.6q2.9-1.3 4.9-3.9c.6-.9 1.2-1.8 1.9-2.6q-.3-.1-.7-.2c.2 1 .2 2.3 1.4 2.6.4.2 1-.4 1.2-.8.3-.4.5-1 .6-1.5.1-.5-.6-.7-.8-.2-.3.6-.5 1.3-.5 2 0 .6.2 1.2.6 1.7.9 1.2 2.3 1.8 3.8 1.3 2.2-.8 3.5-3.2 3.2-5.5-.1-1.3-.7-2.5-1.8-3.2q-.2.4-.3.8c1 .3 2 .8 2.8 1.4.4.4.8.8.9 1.3.1.6-.2 1.2-.4 1.7-.5 1.1-1.1 2.1-2 2.8-1.1 1-2.4 1.1-3.8 1.2-1.3.2-2.6 1.1-3.9.9-.7-.2-1.4-.3-2.1-.3-.7 0-1.4.2-2.1.2-1.4.2-2.9-.2-4.3-.4-.8-.1-1.5-.1-2.2-.1-.8-.1-1.5-.3-2.2-.5q-2.1-.6-4.2-1.3c-1.1-.3-2.5-.7-3.7.1-.4.2 0 1 .5.7 1-.7 2.4-.2 3.5.2q2 .7 4 1.2 1.1.3 2.2.4c.8.1 1.6.1 2.4.2q1.1.2 2.2.3c.8.1 1.6.1 2.4 0 .7-.1 1.5-.2 2.2-.1.8 0 1.4.3 2.2.3.7-.1 1.3-.4 2-.6.7-.3 1.5-.4 2.2-.5 1.4-.1 2.6-.6 3.6-1.5.9-.9 1.5-2 2-3.1.2-.7.4-1.3.3-2-.1-.6-.5-1.1-1-1.5-.9-.8-2.1-1.5-3.3-1.8-.5-.2-.7.5-.3.7 1.5 1.1 1.7 3.2 1.1 4.8-.3.8-.8 1.6-1.6 2-1 .7-2.3.8-3.2-.1-.5-.5-.9-1-.9-1.7 0-.6.3-1.2.5-1.8l-.8-.2c-.2.7-.4 1.4-1.1 1.8h.4c-.8-.4-.7-1.3-.9-2.1 0-.3-.5-.4-.7-.2-1.5 1.7-2.5 3.8-4.5 5.2-1.9 1.3-4.1 1.9-6.3 2.4-2.4.5-4.8.3-7.2-.4-1.7-.4-3.4-1.1-5-1.7-.8-.3-1.5-.6-2.2-1-.4-.3-1.1-.7-.9-1.3q-.1.2-.2.3c1-.6 2.4-.5 3.6-.3 1.1.2 2.1.5 3.2.7 1.7.3 3.4.5 5.1 1.1.6.2 1.7.5 1.9 1.2q.1-.2.1-.4c-.8 1.1-2.5 1.8-3.9 1.8-1.1 0-2.4-.2-3.3-.9-.7-.5-.6-1.2.1-1.6.8-.6 1.9-.8 2.9-.9 1-.1 2.1-.1 3.2.2.8.2 1.5.5 1.7 1.4.2.9-.7 1.5-1.4 1.7-.9.4-2.1.5-3 0-1.5-.7-1.5-2.7-.4-3.8.1-.1.3-.2.5-.3.2 0 .5.1.8.1q1 0 1.9-.1 1.8-.1 3.6-.6-.2-.4-.4-.7c-.3.3-.5.7-.8 1.1q.4.1.8.3c.4-1.5 1.2-3.1 2.5-4 .4-.4-.2-1-.6-.6z"/><path class="d" d="M131.1 191.5c.2-1.1.4-2.2.9-3.2q-.3.1-.5.2c1 .1 2-.1 2.9-.5.9-.4 1.8-.9 2.7-1 1.2-.1 2.3.6 3.4.6 1.2 0 2.2-.2 3.3.3q-.1-.1-.2-.3c0 .5-.5.6-.9.7-.4.1-.9.2-1.3.4-1.6.8-3 1.6-4.5 2.3-1.3.7-2.5 1.4-3.8 2.1-1.2.7-2.6 1.3-4 1.1-.5-.1-.5.8 0 .8 2.4.3 4.6-1.3 6.6-2.4 1.2-.7 2.4-1.2 3.6-1.9 1-.5 2.1-1.2 3.2-1.5.9-.2 1.9-.5 1.9-1.6 0-.2-.1-.3-.2-.4-1-.5-2-.5-3.1-.5-.7 0-1.3 0-1.9-.2-.6-.2-1.1-.3-1.7-.3-2-.1-3.7 1.8-5.8 1.5-.2-.1-.4 0-.4.2-.6 1-.7 2.2-1 3.3-.2.6.6.8.8.3zm-54.8 33.9c-.2-1.8 1.4-3.8 3.3-4 1.3-.1 3.4.3 4.4-1q-.4-.2-.8-.3c-.5 1.5-.9 3-1.7 4.4-.2.4-.4.8-.9.9-.4.1-.9.1-1.4.1-1.4 0-2.9.4-4.3 1q-.8.3-1.5.8l-.6.6c-.1.1-.3.4-.5.3q.1.2.3.3l-.2-.8c0-.2-.2-.3-.4-.3-.8-.1-1.7.7-2.2 1.3-.5.7-.7 1.6-.2 2.4.5.7 1.4.8 2.2.8 1.1 0 2.3-.1 3.4-.3 1.3-.4 2.6-1 3.8-1.7.2-.2.2-.6 0-.8q-.8-.5-1.8-.3c-.6.1-1.1.4-1.7.4q.2.3.3.6c.8-1.2 2.4-1.4 3.6-1.6.7-.1 1.4-.2 2-.4 1-.4 2-.8 2.9-1.1 2-.8 3.9-1.5 5.8-2.4 1.9-.8 3.7-1.7 5.5-2.6q1.4-.7 2.9-1.3c.6-.3 1.3-.5 2-.9 1.2-.7 1.8-1.8 1.8-3.2 0-1.2-.4-2.6-1.6-3.2-1.4-.7-3.1-.3-4.6 0q-1.5.4-2.9 1.1c-.5.3-.9.6-1.4.9-.5.3-1 .4-1.5.6-1.9.7-3.5 2.2-5.6 2.3-.5.1-.5.9 0 .9 1.8-.2 3.2-1.1 4.8-1.9.8-.4 1.6-.6 2.4-1 .8-.4 1.6-1 2.4-1.4.8-.4 1.8-.6 2.7-.8.8-.2 1.6-.3 2.4-.2 1.3.1 2 1.1 2.1 2.3 0 .6 0 1.4-.4 2-.3.4-.8.8-1.3 1-.6.3-1.3.6-2 .9q-1.3.6-2.7 1.2c-1.8.9-3.5 1.8-5.4 2.6-1.8.8-3.6 1.5-5.5 2.2-1 .4-2.1.9-3.1 1.2-.7.2-1.4.3-2.1.4-1.5.3-3.1.6-3.9 2-.1.2.1.6.4.6 1 0 2.1-.8 3-.1v-.8c-2 1.4-4.4 2.1-6.9 2-.7-.1-1.7-.3-1.5-1.3.2-.7 1.2-1.6 1.9-1.6q-.2-.1-.4-.3.1.4.2.9c0 .1.1.2.3.3 1 .1 1.4-.9 2.1-1.4 1-.6 2.2-.9 3.3-1.2q1-.2 2-.2c.4 0 .8 0 1.2-.1.9-.1 1.4-1 1.8-1.7.7-1.4 1.1-2.8 1.5-4.2.2-.5-.5-.7-.7-.3-.4.5-1.5.5-2.1.5-.8 0-1.7 0-2.5.3-1.9.6-3.5 2.6-3.3 4.6.1.6.9.6.9 0zm-57 5.2c-.8.1-1.4.7-2.2 1-.4.1-.8.2-1.2.4-.4.1-.8.3-1.1.5-1.5.8-3.1 1.3-4.8 1.4-1 0-2-.1-2.9.3-.4.2-.7.5-.8.9q0 .3.2.6c.2.4.6.4 1 .4q1.3.2 2.7 0c.9-.1 1.7-.4 2.5-.7.9-.3 1.8-.4 2.7-.6.8-.3 1.4-.7 2-1.2.7-.4 1.3-.7 2-.9q1-.3 2.1-.4c.9 0 1.8-.2 2.6-.4.9-.1 1.8-.2 2.6-.1.9 0 1.8.1 2.6.1.9 0 1.8-.1 2.6 0 1.8.2 3.5.8 5.3.4.8-.1 1.6-.4 2.4-.4h2.9c1.4 0 2.8 0 4-.6 1.4-.6 2.2-1.9 2.2-3.4 0-.5 0-.9.2-1.3.1-.4.3-.8.5-1.2.3-.5.9-1.3.3-1.9-.7-.7-2.1-.6-3.1-.7-.8-.1-1.7-.2-2.6-.1-.9.1-1.7.5-2.5.8-1.1.3-2.3.3-3.4.9-.3.2-.9.8-.7 1.3.3.5 1.2.6 1.8.7.7 0 1.4-.1 2.1-.1q1.4 0 2.7-.3 1.3-.2 2.6-.6c.8-.2 1.7-.4 2.4-.8s1.2-1.1 1.8-1.5l-.6-.2c.4.9-.2 2.1-.4 3.1-.3 1-.5 2.1.2 3 .2.2.4.3.6.2 1.2-.7 1.8-2.4 1.6-3.6q-.1-1.2-1-1.8c-.7-.5-1.7-.6-2.5-.7-2.2-.1-4.4-.6-6.6-.4-2.3.1-4.5.7-6.7 1.1-2.4.4-4.7.3-7.1.4q-1.7 0-3.5.2c-1 0-2.1.2-3.2.2q-1.6.1-3.1 0c-1.1 0-2.2-.2-3.3-.3q-.8-.1-1.5-.1c-.4-.1-1-.1-1.3-.4-.4-.4-.4-1.3-.2-1.8.6-1.3 2.5-1.4 3.7-1.3 1.1 0 2.1.3 3.2.5.5.1 1.1.2 1.7.3.7 0 1.3 0 1.9.2q-.1-.3-.3-.5c-.1.7-.2 1.5.2 2.1.5.7 1.4.9 2.2 1.1 1.2.3 2.5.6 3.6 1.1q.8.3 1.5.6c.4.2.9.5 1.1.9v-.4c-.3.9-1.4 1.2-2.3 1.5-.5.2-.9.4-1.5.5-.6.1-1.2.1-1.8.1-.5 0-.5.9 0 .9.7 0 1.4 0 2.1-.2.6-.1 1.1-.4 1.7-.6.6-.2 1.1-.4 1.6-.7.4-.3 1-.8 1-1.3s-.8-1-1.2-1.2c-.5-.3-1.1-.5-1.7-.8-1.4-.6-2.9-1-4.4-1.3-.4-.2-1-.3-1.3-.7-.2-.4 0-1 0-1.4.1-.2 0-.5-.3-.5-.5-.2-1-.2-1.5-.2-.6 0-1.2-.2-1.8-.3-1-.2-2.1-.4-3.2-.5-1.2-.2-2.6-.1-3.8.6-1.2.6-1.7 2.1-1.1 3.4.3.8 1 1 1.8 1.1 1.2.1 2.4.2 3.5.3 2.1.3 4.2.3 6.2.1 2.4-.2 4.7-.4 7-.5 1.2 0 2.4 0 3.6-.1 1.1-.1 2.3-.2 3.4-.4 2.3-.5 4.6-1 7-.9 1.2.1 2.5.3 3.8.4 1 .1 2.1 0 3 .6.7.5.7 1.3.5 2.1-.1.7-.5 1.5-1.1 1.9q.2 0 .5.1c-.6-.8-.2-2 0-2.9.3-1 .7-2.1.3-3.1-.1-.2-.4-.4-.6-.2-.9.6-1.6 1.4-2.6 1.8-1.1.4-2.3.7-3.5.9-1.2.3-2.4.3-3.6.4-.8 0-2 .3-2.6-.4q0 .2.1.5c.1-.7 1.4-.9 2-1 .4-.1.8-.1 1.3-.3.6-.1 1.2-.4 1.8-.6 1.2-.3 2.4-.2 3.6 0q.7 0 1.3.1c.3.1.8.1 1 .4v-.3c-.2.7-.7 1.4-1 2.1-.3.7-.2 1.5-.3 2.3-.2 1.4-1.4 2.3-2.7 2.6-1.4.3-2.9.2-4.4.2-.8 0-1.6-.1-2.4.1-.8.1-1.5.4-2.3.4-1.7 0-3.3-.6-5-.6-.8 0-1.6.1-2.4.1-.8-.1-1.6-.1-2.5-.2-1.6 0-3.2.5-4.8.6-1.3.1-2.7.3-3.8 1-.7.5-1.4 1-2.1 1.3-.9.4-1.9.4-2.8.7-.9.3-1.8.7-2.7.8q-1.5.2-3-.1l.2.2c-.1-.3 0-.3.3-.5.3-.1.7-.1 1.1-.2 1-.1 2.1 0 3.1-.2 1.4-.3 2.6-.8 3.9-1.4.6-.4 1.3-.5 2-.8.6-.3 1.2-.8 1.9-.9.5-.1.3-.9-.2-.8z"/><path class="d" d="M132.2 190.7c.5-.4 1.6-.9 2.3-.7q-.1-.1-.3-.2c.2.8.3 2-.7 2.4-.8.3-1.6-.6-2.3-1-.5-.2-1-.3-1.6-.2-.3 0-.7 0-1-.1l-.9-.3c-1.1-.4-2.4.1-3.5-.5q-.1.4-.2.7c1.2.1 2.4-.2 3.4.5.5.3.9-.4.5-.7-1.2-.8-2.6-.5-3.9-.6-.4 0-.5.6-.2.8.6.3 1.3.4 2 .5.7 0 1.3 0 2 .2.4.2.7.3 1.1.3h1.1c.6 0 1.1.3 1.6.6.9.7 1.9 1 2.8.2 1-.8.8-2 .6-3.1 0-.1-.1-.2-.3-.3-1-.3-2.3.3-3.1 1-.5.3.1.9.6.5zm57.1-154.9c-1.7-2-3.6-3.9-6-5-2.9-1.4-6-2.5-9-3.5-7.8-2.7-15.8-4.1-24-4-3.6.1-7.2.3-10.5 1.5-3.4 1.2-6.3 3.3-8.8 6-1.2 1.3-2.4 2.7-3.5 4.1-1.1 1.4-2.3 2.8-3.4 4.3-2.4 3.1-4.3 6.5-6.2 9.9-1.9 3.5-3.6 7.1-5.5 10.6-1.9 3.7-4 7.2-5.4 11.1-.7 2-.8 4.1-1.8 5.9-.9 1.8-2 3.4-2.8 5.1-1.6 3.3-3.4 6.5-5.9 9.2-1.3 1.4-2.7 2.4-4.5 2.8-1.6.4-3.2.4-4.7.8-2 .4-3.9.9-6 1.1-2 .1-4 .2-6 .4-2.1.2-4.1.2-6.2.3-1 .1-1.9.1-2.8.3-1 .1-2.1.5-3.1.7-1.8.4-3.7.4-5.5.8-1.8.4-3.5 1-5.2 1.8-1.6.8-3 2-4.3 3.3-.7.7-1.4 1.3-2.1 1.9-.8.6-1.6 1.1-2.4 1.6-.7.5-1.3.9-1.9 1.5-.6.7-1.1 1.6-1.5 2.4-.4.8-.6 1.7-1.1 2.4-.6.9-1.4 1.6-1.9 2.6-1.2 2.1-1.6 5.7 1 6.9 2.2 1.1 4.6-.8 5.8-2.5.6-.9 1.1-2 1.2-3.1 0-.5-.8-.6-.9-.1-.2 1.4-.7 2.7-1 4.2-.2 1.2-.4 2.8.4 3.9.8 1 2.2 1 3.3.5 1.3-.6 2.3-1.9 3.1-3.1 1-1.4 1.7-2.9 2.5-4.5q-.4-.1-.8-.3c-.4 1.9-1.1 3.6-1.4 5.5-.2 1.5-.1 3.2 1.4 4 1.4.7 3.2.4 4.6 0 1.7-.6 2.9-1.8 4.4-2.7 1.9-1.2 4.3-.5 6.2.2 1.1.5 2.2 1 3.3 1.4 1.3.4 2.7.6 4 .9 2.8.5 5.6.9 8.4 1.6q2 .4 4 1c1.4.4 2.7.9 4 1.3 2.6.8 5.3 1.2 8 1.5 2.5.4 4.8-.3 7.1-1.1 2.1-.9 4.3-1.6 6.3-2.7q3.2-1.7 6-3.8c1.8-1.4 3.5-3 5-4.7 1.6-1.9 2.7-4.1 3.8-6.2 2.6-5.1 4.7-10.4 7.1-15.6 2.2-4.9 2.6-10.2 4.3-15.2.5-1.4 1.1-2.6 1.7-3.9.6-1.3 1.2-2.6 1.7-3.9 1.1-2.5 2.3-4.8 3.1-7.3.4-1.4.9-2.6 1.6-3.8.3-.4-.4-.8-.7-.4-1.4 2.2-1.7 4.7-2.8 7-1.2 2.4-2.2 5-3.3 7.4-1.1 2.4-2.2 4.7-2.9 7.3-.6 2.4-1 4.9-1.7 7.4-.7 2.6-1.8 5.1-2.9 7.6-1.1 2.5-2.2 5-3.4 7.5-2 4.5-4 9.3-7.5 12.9-3.1 3.3-7.1 5.9-11.2 7.8-2.1 1-4.3 1.8-6.5 2.5-1.2.4-2.5.6-3.7.5-1.4-.1-2.8-.4-4.1-.6-1.3-.2-2.7-.4-4-.8-1.2-.3-2.4-.8-3.7-1.2-2.5-.8-5.2-1.4-7.9-1.9-2.7-.6-5.4-.9-8.1-1.5-2.3-.5-4.4-1.8-6.7-2.4-1.7-.4-3.5-.5-5 .5-1.5.9-2.7 2.1-4.3 2.6-1.4.4-3.7.8-4.6-.7-.4-.8-.3-1.8-.2-2.6.2-.9.5-1.8.7-2.8.3-.7.5-1.5.7-2.4.1-.4-.5-.7-.8-.3-.6 1.5-1.4 2.9-2.2 4.2-.9 1.3-2.1 3.1-3.8 3.3-3.5.4-1-6.3-.7-7.9q-.4-.1-.8-.1c-.1 2.1-2.2 4.9-4.5 5.1-1.4.2-2.6-1-2.7-2.4-.1-1.5.4-3.2 1.3-4.3q.8-1 1.5-2.1c.6-.8.8-1.8 1.2-2.6.4-.8.9-1.5 1.6-2.1.7-.7 1.5-1.2 2.3-1.7 1.4-.9 2.6-2 3.9-3.2 1.3-1.3 2.7-2.4 4.4-3.2 1.7-.8 3.4-1.3 5.3-1.6 1.7-.4 3.5-.4 5.3-.8.9-.3 1.9-.6 2.9-.7 1-.1 2-.1 3-.2 2.1 0 4.1-.1 6.1-.3 2-.2 3.9-.3 5.9-.5 1.8-.2 3.5-.5 5.3-1 1.4-.3 2.9-.4 4.4-.6 1.5-.3 2.9-.9 4-1.9 2.7-2.1 4.6-5.2 6.2-8.1.8-1.5 1.5-3.1 2.3-4.6.9-1.6 2-3.1 2.6-4.9.3-.9.4-1.9.7-2.8.2-1 .5-1.9.9-2.8.8-1.9 1.8-3.8 2.8-5.7q2.7-5.1 5.3-10.2c1.7-3.3 3.4-6.6 5.4-9.8 2-3.2 4.3-6 6.6-8.9 2.2-2.7 4.5-5.5 7.4-7.4 3-1.9 6.4-3 9.9-3.3 7.7-.8 15.5 0 23 2 3.6 1 7.2 2.3 10.7 3.7 2.3.8 4.5 1.7 6.4 3.3 1.1.9 2 1.9 2.9 3 .4.4.9-.2.6-.6z"/><path class="d" d="M36.9 120.9c-2.7.2-4.3 2.5-5.4 4.6-1.2 2.4-1.9 5-2.8 7.5-2.8 8.1-3.3 16.8-4.7 25.3-1.7 9.7-3.6 19.4-5.3 29.1q-1.4 7.3-2.7 14.6c-.9 4.8-1.5 9.6-2.6 14.2-.4 2.1-1.5 3.9-2.9 5.4-1.2 1.4-2.5 2.8-4.1 3.7-1.2.7-2.5 1.1-3.5 2-1.1.8-1.8 2.2-1.9 3.5-.3 2.8 2.6 3.1 4.7 3.3 3.8.5 7.6 2.1 11.5 1.3 2.3-.4 4.6-.9 6.9-1.2 2.2-.2 4.4 0 6.6 0 1.1 0 2.1-.2 3.1-.2 1.2-.1 2.4.1 3.6.3 1.9.4 3.7.4 5.5.2 3-.3 6.2-1.3 8.2-3.7 2.6-3.1 2.9-7.8 3.9-11.5.6-2.1 1.5-4.1 2-6.1.5-2.1.7-4.2 1-6.3.8-4.5 1.8-9 3.2-13.4 1.2-3.6 2.6-7.7 5.6-10.2 3.2-2.6 7.3-2.1 11-1.3 2 .4 3.9 1 5.8 1.4 2.1.5 4.1.9 6.2 1.2 4.6.8 9.2 1.6 13.8 2.2 9.5 1.2 19 1.9 28.5 1.1 15.4-1.1 31.4-6.5 41.2-19.1 5.3-6.8 7.9-15.2 10.5-23.3 2.8-9 5.5-18 7.8-27.1 3.7-14.9 6.7-30.2 6.7-45.6 0-5.8-.2-11.6-1-17.3-.7-5.1-1.6-10.5-4.2-15.1-.9-1.7-2-3.2-3.6-4.2-.4-.3-.9.4-.4.7 3.7 2.4 5.1 7.5 6.1 11.6 1.3 5.6 1.9 11.3 2.1 17.1.6 13.3-.9 26.5-3.6 39.6-1.8 9.1-4.2 18-6.7 26.9q-1.9 6.4-3.9 12.8c-1.3 4.2-2.6 8.4-4.3 12.5-3.1 7.5-7.8 14-14.4 18.9-6.1 4.4-13.3 7.4-20.7 9.1-17.8 4.1-36.6 1.4-54.4-1.7-2-.4-3.9-.7-5.9-1.2-1.9-.4-3.7-1-5.6-1.4-3.3-.7-6.7-1.1-9.7.4-3 1.5-4.8 4.4-6.1 7.4-1.6 4-2.8 8.2-3.7 12.4-.5 2.2-.9 4.3-1.3 6.5-.3 2.1-.5 4.2-1.1 6.3-.6 2-1.5 3.9-2 6s-.9 4.2-1.5 6.2c-.6 1.9-1.3 3.5-2.8 4.8-1.3 1.1-2.9 1.8-4.5 2.2-1.7.4-3.5.6-5.2.5-2.1 0-4-.8-6.1-.7-1 .1-2 .3-3.1.3s-2.2-.2-3.3-.2c-2.1 0-4.1.2-6.2.6-2.2.4-4.4 1.1-6.7 1-2.1-.1-4.3-.7-6.4-1.1-1.3-.3-2.7-.4-4-.6-1.3-.2-2.5-.8-2.3-2.3.5-3.5 4-3.8 6.3-5.6 1.4-1.1 2.7-2.5 3.8-3.9 1.1-1.4 1.9-2.9 2.3-4.7 1.1-4.6 1.7-9.3 2.5-13.9q2.6-14.3 5.2-28.5 1.3-7 2.5-14c.8-4.1 1.3-8.3 1.9-12.4 1-7.1 2.6-14.1 5.4-20.7 1-2.2 2.5-5.2 5.2-5.3.5-.1.5-.9 0-.9z"/><path class="d" d="M115.5 188.7c-.4.7-1 1.1-1.5 1.6-.7.6-1.2 1.1-1.6 1.9-.4.6-.7 1.4-.8 2.2 0 .7.2 1.4.5 2.1 1.4 2.8 4.5 3.7 7.3 4.3 3.9.9 7.9 1.6 11.9 1.6 2.1-.1 4.2-.3 6.3-.3 1.7 0 3.4.2 5.1-.1 2.9-.5 5.3-2.3 7.3-4.3 1-1.1 1.9-2.2 2.6-3.4.6-1.1 1.1-2.4 1-3.7-.1-1.1-.6-1.9-1.5-2.6-1-.7-2.2-1.1-3.3-1.5q-1.7-.5-3.5-.7c-1.6-.1-3 .3-4.6.7-1.9.5-3.9.3-5.8.4-2 .2-4 .5-6 .6q-1.5.1-3-.1c-1 0-1.9.1-2.8.3-.9.1-1.8.3-2.7.4-.8 0-1.7.1-2.5.3-.9.2-1.6.4-2.3.9-.5.3-.1 1 .4.7 1.4-.9 3.1-1 4.7-1.1 1.7-.2 3.4-.7 5.2-.6 1.9.1 3.8 0 5.7-.2 1.9-.2 3.7-.4 5.6-.4.9 0 1.8 0 2.8-.2.8-.1 1.7-.4 2.5-.6 1.3-.3 2.4-.3 3.6-.1q1.8.3 3.5.9c.9.3 1.9.8 2.6 1.6.7.8.6 1.9.4 2.9-.4 1.2-1.1 2.3-1.8 3.3-.9 1.1-1.8 2-2.8 2.9-1 .9-2.1 1.7-3.3 2.2-1.5.6-3 .7-4.5.7-1.8.1-3.7 0-5.5.1-1.9.1-3.9.2-5.8.1q-2.9-.2-5.7-.7c-1.7-.3-3.4-.7-5-1.1-1.3-.4-2.7-.8-3.8-1.7-1.1-.8-2.1-2.2-2-3.6.2-1.6 1.4-2.8 2.5-3.8.5-.4 1-.9 1.4-1.4.2-.5-.5-.9-.8-.5z"/><path class="d" d="M131.8 201.9c-.2 1.3.1 2.6.2 3.9v2.5c-.1.8-.2 1.6-.2 2.4 0 .7.1 1.4.1 2.1 0 .7-.1 1.3-.2 1.9 0 1.1.2 2.3-.1 3.4-.2.8-1.2.8-2 .8-.9.1-1.9-.1-2.9 0-1.5 0-3 .2-4.5.6-1.1.3-2.3.7-3.1 1.6-1.9 1.7-2.3 4.4-2.8 6.7-.1.6.7.8.8.3.4-2.1.8-4.5 2.3-6.2.8-.9 1.9-1.4 3.1-1.7q1.2-.2 2.5-.3c.6-.1 1.3-.2 1.9-.2 1 0 1.9.1 2.9.1.8-.1 1.9-.2 2.4-.9.5-.9.4-2.2.4-3.1-.1-1.3.1-2.5.1-3.8-.1-.8-.1-1.7 0-2.6q.1-1.3.1-2.6c0-.8 0-1.7-.1-2.5-.1-.7-.2-1.4-.1-2.2.1-.5-.7-.7-.8-.2z"/><path class="d" d="M131.2 217.9c1.1 1.8 1.5 3.9 1.8 5.9.3 1.4-.4 3.3.7 4.4.3.3.7.1.7-.3q.1-.2.1-.4c0-.5-.8-.5-.9 0v.4q.4-.1.7-.3c-.5-.5-.4-1.4-.4-2 0-.9 0-1.6-.1-2.4-.4-2-.9-4-1.9-5.7-.3-.5-1-.1-.7.4z"/><path class="d" d="M131.7 221c1.5.1 3.1-.4 4.5-.8 1.6-.5 3.3-.9 5-.9.8 0 1.7.2 2.6.3.6.1 1.2.2 1.9.4.6.1 1.2.3 1.7.7.5.4.8 1 1.1 1.7.5 1.5.6 3.3.3 4.9-.1.5.7.7.8.2.3-1.5.2-3.2-.2-4.7-.3-1.4-1-2.6-2.4-3.2-.6-.3-1.3-.5-2-.6q-1.1-.2-2.3-.4c-1.9-.2-3.8 0-5.6.4-1.7.5-3.5 1.3-5.4 1.2-.5 0-.5.8 0 .8zm-55.4-37.9c-.4 2.1-1.8 3.8-2.5 5.8-.7 1.9-1.1 4.1-1.3 6.2-.5 4.6.6 9.2.9 13.8.2 2.4.3 4.9.2 7.3q-.2 1.8-.5 3.6c-.2 1.1-.3 2.3-.6 3.4-.4 1.8-1.9 3-3.2 4.2-1 .8-2.3 1.9-2.4 3.3-.1 1.6 2 2 3.2 2.1 1.9.2 3.8.1 5.6-.4.9-.2 1.7-.6 2.5-1.1q1.5-.9 3.1-1.5c2.1-.9 4.3-1.4 6.5-2 2.2-.6 4.1-1.9 6.2-2.6.8-.2 1.6-.5 2.4-.9.9-.6 1.7-1.3 2.6-1.9 1.5-1 3.1-2 3.9-3.7.8-1.7.8-3.6.4-5.3-.1-.5-.2-1-.3-1.6 0-.5 0-1.1.1-1.7q.1-1.7.1-3.4c-.1-2.4-.5-4.7-.4-7 .2-2.2.6-4.3 1.2-6.4q.2-.8.6-1.5.2-.4.4-.9c.2-.3.3-.6.5-.8.4-.3.8-.4 1.3-.4.3 0 .4 0 .6-.1q.4-.2.7-.4c.8-.4 1.6-1 2-1.9.3-.4-.4-.9-.7-.4-.5.8-1.3 1.4-2.2 1.9 0 0-.2.1-.3.1h-.8c-.5.1-.9.3-1.2.6-.4.4-.6 1-.8 1.4-.3.6-.6 1.1-.7 1.6q-.5 1.6-.8 3.1c-.5 2.2-.7 4.3-.6 6.5.2 2.3.4 4.5.3 6.8 0 1.1-.2 2.1-.1 3.2.2 1 .5 2.1.5 3.1.1 1.7-.4 3.3-1.5 4.5-.7.7-1.5 1.2-2.3 1.8-.9.6-1.7 1.3-2.7 1.9-.7.4-1.4.7-2.2 1-1.1.3-2.1.7-3.1 1.2s-1.9 1-3 1.3c-1 .3-2.1.5-3.1.8-2.1.6-4.2 1.4-6.2 2.4-.8.4-1.6 1-2.5 1.3q-1.3.5-2.7.6-1.4.2-2.8 0c-.8 0-1.8-.1-2.4-.5-1.1-.8.2-2.1.8-2.7 1.2-1.2 2.7-2.2 3.6-3.7.5-.8.8-1.7.9-2.6q.3-1.7.6-3.5c.3-2.4.4-4.7.3-7.1q-.1-3.6-.6-7.1c-.4-2.2-.5-4.6-.6-6.9-.1-2.1.2-4.1.7-6.2.2-.9.4-1.9.8-2.8.4-1 .9-1.9 1.4-2.8.4-.9.8-1.8 1-2.7 0-.6-.8-.8-.8-.3zm35.4-54.2c2.3.4 4.5 1.2 6.7 2.1 2.3.8 4.6 1.6 6.9 2.3 4.7 1.5 9.5 2.8 14.4 3.7l7.2 1.2c1.1.2 2.3.4 3.4.8 1 .3 2 .7 3.1 1.1l3 1.2c1.1.3 2.3.6 3.5.9 2.4.5 4.8.8 7.2 1.2 2.7.4 5.5.9 8.2 1.4 1.3.2 2.5.4 3.7.7.9.3 2 .6 3 .3.2-.1.3-.4.2-.6-.3-.5-.7-.9-1.3-.9-.5-.1-.8.7-.2.8.4 0 .6.2.8.5l.2-.6c-.8.2-1.8-.1-2.6-.3-1.1-.3-2.1-.4-3.2-.6-2.5-.5-4.9-.9-7.4-1.3-4.6-.8-9.3-1.3-13.7-3-2.1-.8-4.1-1.7-6.3-2.2l-7.2-1.2c-2.4-.4-4.8-.8-7.2-1.4q-3.6-.9-7.1-2c-2.6-.8-5.1-1.6-7.7-2.6-2.4-.9-4.8-1.8-7.4-2.3-.5-.1-.8.7-.2.8zM11.5 220.7c2.7.5 5.3 1.1 8 1.4 1.4.1 2.7.1 4 .2 1.4.1 2.7.2 4.1.2 1.2.1 2.5 0 3.7.1 1.3 0 2.5.1 3.8.2 2.7.2 5.4.3 8.1.3.7 0 1.4 0 2.1-.1.7-.2 1.3-.4 1.9-.6.7-.1 1.4-.1 2.1-.2q1.1-.1 2.3-.1c.2 0 .3-.1.4-.3q.1-.3.2-.5c.2-.5-.6-.7-.8-.2q-.1.2-.2.5.2-.2.4-.3c-1.3 0-2.6.1-3.8.2-1.2.1-2.3.7-3.5.8-1.3 0-2.7-.1-4-.1q-2.1 0-4.1-.2c-1.2-.1-2.5-.2-3.8-.3h-3.6c-1.4 0-2.7-.1-4.1-.2-1.3-.1-2.6-.1-4-.2-3-.1-6-.8-8.9-1.4-.6-.1-.8.7-.3.8z"/><path class="d" d="M73.6 219.8c2.3.4 4.4-.8 6.4-1.8 1.1-.5 2.2-.9 3.3-1.4.5-.2 1.1-.5 1.8-.7.6-.2 1.3-.3 1.9-.3 1.4-.2 2.8-.3 4.1-.6 1.3-.3 2.6-.7 3.9-1.1.8-.3 1.6-.6 2.5-.8q1.1-.2 2.1-.4c1.1-.3 3.5-.8 3.4-2.3q0-.3-.3-.4l-.6-.2c-.5-.2-.7.6-.2.8l.6.2q-.2-.2-.3-.4c0 .4-.5.6-.9.8-.6.3-1.3.5-2 .7l-2 .4c-.8.2-1.5.5-2.3.7-1.2.4-2.4.8-3.7 1.1-1.2.3-2.5.5-3.8.6-1.2.1-2.4.3-3.6.7-1.1.5-2.1 1-3.2 1.4-2.1.9-4.5 2.6-6.9 2.2-.5-.1-.8.7-.2.8zm52.6-28c-.7-.1-1.6-.3-2.3.1-.3.2-.5.5-.6.8-.1.4-.2 1.2.1 1.5l.6.3q.3.1.7.3c.4.2.8.3 1.3.3.7 0 1.8-.9 1.4-1.7-.4-.5-1-.8-1.6-1-.7-.3-1.6-.5-2.4-.7-1.3-.2-3.1-.6-4.3.2-.7.4-1 1.1-.6 1.8.3.7 1 1.2 1.7 1.4 1.5.5 4.3-.5 3.8-2.5-.3-.9-1.3-1.4-2.1-1.7-.9-.3-1.9-.3-2.8-.3-1 .1-2 .3-2.8.7q-.6.3-1.1.7c-.3.4-.1.8 0 1.2 1.3 3.2 5.9 4.5 8.5 2.1q.4-.4.8-.9c.1-.2 0-.4-.1-.5-.5-.6-1.3-.9-2-1.2q-1.4-.5-2.9-.6c-.8 0-1.8 0-2.6.4-.3.1-.6.3-.8.6-.2.3-.4.8-.3 1.1.2.4.7.6.9.8q.6.3 1.2.5c.7.3 1.6.4 2.5.3q.3 0 .4-.3.1-.3.2-.5c.2-.5-.6-.8-.8-.3l-.2.6q.2-.2.4-.3c-1.4.1-2.9-.3-3.9-1.2q.1.1.1.3c0-1.4 2.4-1.2 3.3-1.1q1.2.1 2.4.6c.5.2 1.2.4 1.5.8v-.5c-2 3.1-7.1 1.8-8-1.5q0 .2-.1.4c1.1-1.3 3.2-1.5 4.8-1.3.8.1 1.7.3 2.3.8.8.7.3 1.4-.5 1.8-.7.4-1.5.5-2.3.1-.3-.2-1-.8-.8-1.3.3-.5 1.1-.6 1.6-.6q1 0 2 .2c.8.1 1.7.3 2.5.6q.5.2 1 .5.1.1.3.2.1.1.1.2v-.4c-.3.6-.6.8-1.2.6-.6-.2-1.1-.5-1.6-.7q.1.1.2.3c0-.5-.1-1.1.4-1.3.4-.1 1 .1 1.5.1.5.2.7-.6.2-.8z"/><path class="d" d="M114.9 193.4c-.5.2-.9.5-1.1 1-.1.4-.1.7.2 1 .5.5 1.2.8 1.8 1.1 1.6.6 3.5 1.2 5.2 1.1.8 0 1.6-.1 2.2-.6.2-.3 0-.7-.3-.8-2.1-.2-4.1-.6-6.1-1.1-1.7-.4-3.5-.9-5.2-.7-.3 0-.5.5-.2.7 1.5 1.3 3.5 2 5.5 2.4 1.1.2 2.2.4 3.4.6 1.1.2 2.2.4 3.3.5 2 .1 3.8-.3 5.7-.4 1.3-.2 3.4-.3 4.1-1.6.4-.8 0-1.7-.4-2.4s-1-1.4-1.8-1.9c-.3-.2-.7.2-.6.5.5 1.4 2.2 1.7 3.1.5.1-.2 0-.4-.1-.5-1.7-1.5-3.8-1.8-5.9-2.1q-1.7-.3-3.4-.8c-1.2-.4-2.4-.9-3.5-1.3-.3-.1-.5.1-.6.3-.4 1.4 1.7 1.7 2.6 1.8 1.9.2 3.8.1 5.7-.1 1.4-.1 2.9-.2 4.4-.3 2.9-.4 6.1-1.8 9.1-.5 1.2.5 2.2 1.7 2.1 3.1 0 .7-.5 1.2-1.1 1.3-.9.1-1.8-.5-2.8-.4-.2 0-.3.1-.4.3-.2.6-.3 1.4-.7 1.9-.4.5-1.2-.1-1.5-.4-.5-.5-.8-1.2-1.2-1.8-.4-.4-.8-1-1.5-1.2-.5-.2-1.2.1-1.5.6-.3.5-.3 1.2-.3 1.8q.1.9.2 1.9c.1.5.3 1 .7 1.3.4.4 1 .5 1.5.6.7.1 1.4.2 2.1.2 1.2-.1 3-.3 3.7-1.5.7-1.2-.2-2.4-1.2-3-1.1-.6-2.4-1-3.6-1.1-1.9 0-4 .4-5.5 1.7-1.3 1-2.6 3.1-1.8 4.8.1.2.5.3.7.1 1-1.1 0-2.6-1-3.3-1.2-.9-2.9-1.1-3.9.1-.1.2-.2.3-.1.5 1.1 1.9 3.1 2.9 5.1 3.3q1.5.4 3 .4c1.5 0 3-.2 4.4-.2.8 0 1.5 0 2.2.1.6.2 1.3.3 2 .2 1-.1 2-.7 2.8-1.3 1.6-1.2 3.2-3.2 2.7-5.3-.4-1.1-1.1-2.3-2-3.1-.5-.4-1.2-.6-1.8-.7-.7-.1-1.4-.2-1.9-.6q0 .2.1.5c.2-.5.9-.6 1.4-.6.9 0 1.8 0 2.6.2q1.2.1 2.4.5c.8.3 1.4.6 1.5 1.5.1 1.1-.4 2.2-.6 3.2 0 .5.7.6.9.1.3-1.3.3-3 .1-4.4-.2-.6-.4-1.4-.9-1.8-.4-.3-.7-.3-1.1-.1q-.8.6-1.5 1.3c-1 1-1.8 2.2-2.9 3.2-.3.4.3 1 .6.6 1.5-1.5 2.7-3.3 4.4-4.5h-.3c.9.3.9 1.9 1 2.6 0 .9 0 2-.2 2.9q.4.1.8.1c.1-1 .6-2.1.5-3.2-.1-1.1-.7-1.8-1.7-2.2-.8-.3-1.7-.5-2.5-.6-1-.2-2.1-.3-3.1-.2-.7 0-1.8.2-2.2.9 0 .2 0 .4.1.5.9.8 1.9.8 2.9 1.1 1.1.3 1.7 1.2 2.2 2.1.4.9.6 1.7.2 2.7-.4.9-1 1.7-1.8 2.3-.7.6-1.5 1.2-2.4 1.4-1.2.3-2.5-.2-3.7-.3-2.4 0-4.8.5-7.2.1-2.1-.4-4.2-1.2-5.3-3.1q-.1.2-.1.5c.7-.9 1.9-.7 2.7-.1.6.4 1.6 1.4 1 2.1q.3 0 .7.1c-.7-1.3.6-3 1.6-3.8 1.1-1 2.8-1.4 4.3-1.4q1.7-.1 3.2.6c.7.4 2 1.2 1.4 2.2-.5 1-2.2 1-3.2 1q-.9 0-1.7-.1c-.4-.1-.9-.2-1.2-.5-.2-.3-.3-.9-.3-1.3-.1-.5-.2-1.1-.2-1.6 0-.4 0-1 .5-1.2.4-.2.9.4 1.1.7.8 1.1 1.4 2.6 2.9 2.9 1.5.3 1.9-1.7 2.2-2.7q-.2.1-.4.3c.9 0 1.6.4 2.5.4.6 0 1.4-.2 1.8-.8.8-.9.5-2.3-.1-3.3-1.3-2.5-4.8-2.7-7.3-2.3-1.7.3-3.3.8-5 .9q-.9.1-1.7.1c-1.9.2-3.8.4-5.7.4-.9-.1-1.9-.1-2.8-.3q-.3 0-.5-.1s-.3-.2-.2-.2q-.1 0-.2-.1c.1.1 0-.1 0 0v-.2q-.2.2-.5.3c2.3.8 4.4 1.7 6.7 2 2.1.3 4.2.5 5.8 2q0-.3-.1-.6c-.4.7-1.2.5-1.5-.2l-.6.4c.6.4 1.1 1 1.4 1.5.3.5.7 1.2.4 1.7-.2.6-1 .8-1.6.9l-2.1.3q-1 0-2 .2-1.6.3-3.2.1c-2-.1-4.1-.6-6.1-.9-2-.4-4.1-1-5.6-2.3q-.1.4-.2.7c1.7-.2 3.5.4 5.2.8 1.9.5 3.9.8 5.9 1.1q-.2-.4-.3-.7c-.5.4-1.2.4-1.8.4-.8 0-1.6-.1-2.4-.4q-1.2-.3-2.4-.8c-.5-.2-1.1-.5-1.6-.9q.1.1.1.3c.1-.4.3-.6.6-.8.5-.2.3-1-.2-.8z"/><path class="d" d="M139.3 188.7c-1.3 1.8-3.3 3-4.3 4.9-.1.2 0 .5.2.6q.5.3 1 .5c.3.2.7.5 1 .5.4 0 .8-.6 1.1-.9.6-.8 1.1-1.8 1.4-2.9 0-.3-.2-.6-.6-.5-.9.4-1.6 1.1-1.5 2.2.1 1 .8 2 1.5 2.7.7.7 1.6 1.2 2.6 1.1 1.1-.1 1.8-.9 2.2-1.8.4-1.1.5-2.4.7-3.6.1-.5-.7-.7-.8-.2-.3 1.3-.8 2.6.2 3.8.4.6 1.1 1.1 1.8 1.1.6 0 1.2-.4 1.6-.8 1.4-1.5 1.5-3.9.6-5.7-.5-.9-1.4-1.6-2.6-1.5-.5 0-.5.8 0 .8 1.6 0 2.3 1.6 2.4 3 0 .6-.1 1.4-.4 2-.5.9-1.4 1.8-2.4 1-.5-.4-.8-1-.8-1.6.1-.7.3-1.3.4-1.9l-.8-.2c-.1.9-.2 1.8-.4 2.6-.2.7-.5 1.6-1.1 2-1.5.9-3.2-1-3.7-2.2-.3-.9-.1-1.7.8-2q-.3-.2-.5-.5-.3.9-.7 1.8c-.3.5-.7 1.1-1.2 1.4h.4l-1.8-.9q.1.2.2.5c1-1.9 2.9-3.1 4.2-4.8.3-.5-.4-.9-.7-.5zm41.5-161.6c-.4-.6-.5-1.1-.1-1.8.3-.6.6-1.1.9-1.6.5-1.3.7-2.6.8-3.9.2-1.3.1-2.5-.3-3.7-.5-1.3-1.2-2.3-2.1-3.3-1.8-2-4.2-3.5-6.4-5.1-1.3-.9-2.6-1.9-4-2.7-1.3-.7-2.8-1.4-4.2-1.8-.9-.2-1.7-.3-2.5-.4l-2.4-.3c-.8-.1-1.7-.2-2.4-.5s-1.3-.9-2.1-1c-.2-.1-.4 0-.5.2-.4.6-.6 1.5-.5 2.2 0 .8.3 1.3.7 1.9.1.2.3.5.2.8 0 .4-.4.4-.7.4-.7-.2-1.3-.2-1.8.2-1.1.9-1 2.5-1 3.8 0 1.4 0 2.9.9 4.1.6.7 1.4 1.4 2.2 1.9.8.7 1.7 1.2 2.7 1.6q-.1-.3-.3-.6c-.5.7-.9 1.5-.9 2.3 0 .7.3 1.4.8 1.9 1.1 1.1 2.8 1.6 4.3 2q1.2.3 2.4.5c.6.1.8-.7.3-.8-1.4-.3-2.8-.6-4.1-1-1.1-.4-2.6-1.1-2.9-2.3-.1-.8.4-1.6.8-2.2.2-.2 0-.5-.2-.6-.8-.3-1.6-.8-2.3-1.3-.6-.5-1.3-1-1.9-1.7-1-1-.9-2.5-.9-3.8 0-.6-.1-1.3 0-1.9.1-.5.3-1.2.9-1.4.2-.1.5 0 .7.1.4 0 .7.1 1 0 .6-.2 1-.9.8-1.5-.1-.7-.6-1.2-.8-1.8-.3-.8-.1-1.8.3-2.4l-.4.2c.6.1 1.2.6 1.8.9.6.3 1.3.4 2 .5q2.2.3 4.3.6c3.1.4 5.8 2.2 8.3 3.9q1.9 1.3 3.7 2.7c1.1.7 2.1 1.5 3 2.5.9.9 1.7 1.9 2.2 3.1.6 1.1.7 2.3.5 3.6-.1 1.4-.4 3-1.1 4.3-.3.6-.7 1.1-.9 1.8-.1.7.2 1.4.6 2 .4.4 1-.2.6-.6z"/><path class="d" d="M152.8 15.1q-.7 4.2-1.5 8.4c-.1.5.7.7.8.2l1.6-8.4c0-.5-.8-.7-.9-.2zM81.5 99q-.3-.6-.5-1.2l-.8.2c1.3 3.9 2.7 7.8 3.7 11.8.5 2.1.9 4.1 1.1 6.2.1 1 .1 2 .2 3.1.1 1 .4 2 .5 3 .2 2.2-.5 4.1-.9 6.3l.8.2q0-.3.1-.5c.1-.5-.7-.7-.8-.2q-.1.2-.1.5c-.1.5.7.7.8.2.3-1.9 1-3.7 1-5.6-.1-1-.3-2-.4-3-.2-1.1-.2-2.1-.3-3.2-.2-4.2-1.4-8.3-2.6-12.3-.8-2.3-1.6-4.5-2.3-6.7-.2-.6-1-.3-.8.2q.2.7.6 1.4c.3.5 1 .1.7-.4zm8.9-4.2c-.2 0-.7 0-.9.2-.1.1-.2.4-.2.6-.1.5-.1 1 0 1.5.2 1 .7 2 1.1 2.9 1.3 2.4 2.2 5 3.1 7.5 1.1 2.8 2.3 5.6 3.5 8.3 1.2 2.7 2.2 5.5 3.4 8.2q.5 1.1 1.1 2.1c.4.7.8 1.3 1.1 2.1.3.5.4 1 .5 1.6.1.5.3.9.7 1.2.2.1.5.1.6-.1q.1-.3.3-.7c.2-.4-.5-.9-.7-.4q-.2.3-.3.7.3-.1.5-.2c-.3-.2-.3-.8-.4-1.1 0-.4-.1-.9-.3-1.3-.6-1.1-1.3-2.2-1.9-3.4-1.2-2.4-2.2-5-3.2-7.5l-3.3-7.8c-1-2.5-1.9-5-2.9-7.5-.5-1.1-1-2.1-1.5-3.1-.4-.9-1-2.2-.5-3.1l-.2.2q.3-.1.6-.1c.6-.1.3-.9-.2-.8zm8.9-6.7c-.2 1 .3 1.9 1 2.6.3.3.7.6 1 1 .5.5.9 1.1 1.3 1.7.8 1.1 1.7 2.2 2.6 3.3.9 1.1 1.7 2.2 2.5 3.4 1.5 2.2 3 4.4 4.9 6.3.9 1.1 2 2.1 3 3.1.9 1 1.5 2.1 2.1 3.3q.8 1.8 1.6 3.5c.5 1.1 1 2.2 1.9 3.1.2.2.6.1.7-.2q0-.5.1-1c.1-.5-.7-.8-.8-.2l-.2 1q.4-.1.7-.2c-.7-.7-1.1-1.7-1.5-2.6-.5-1-.9-2-1.4-2.9-.6-1.1-1-2.3-1.8-3.3-.8-1.1-1.8-2.1-2.8-3-1.8-1.9-3.5-4-5-6.2q-1.1-1.6-2.3-3.2c-.8-1.1-1.6-2.1-2.5-3.1q-.7-1-1.5-2c-.4-.6-.7-1.1-1.2-1.6-.6-.7-1.8-1.5-1.6-2.6.1-.5-.7-.7-.8-.2zm5.1-11.7c.7.9 1.6 1.6 2.5 2.3 1 .7 2 1.5 2.8 2.5.9 1 1.7 2.1 2.7 3q1.1 1.2 2.4 2.3c1.8 1.5 3.6 2.9 5.7 4q.7.4 1.5.7c.4.2.9.3 1.3.6 1.1.6 1.9 1.7 2.8 2.5 1.9 2 4.7 3 6.5 5.2.3.4 1 0 .7-.4-1.5-2-3.7-3-5.6-4.5-1.1-.8-1.9-1.8-2.9-2.7-.4-.4-.8-.7-1.3-1-.4-.2-.9-.3-1.4-.5-2.1-.9-4-2.3-5.8-3.8-1.9-1.5-3.6-3.1-5.1-5-.9-1.1-1.9-2.2-3-3-1.1-.8-2.3-1.5-3.1-2.6-.3-.5-1-.1-.7.4zm7.8-13.7h-.6c-.3.1-.5.4-.3.7.8 1.4 2.2 2.4 3.6 3.2 1.6.9 3.3 1.5 4.9 2.3 1.9.9 3.7 2 5.6 2.9 1.8 1 3.8 1.7 5.7 2.6 2 1 4.1 2 6.4 2.4l.2-.8q-.3-.1-.5-.1c-.5-.1-.7.7-.2.8q.2 0 .5.1c.5.1.7-.7.2-.8-2-.4-3.9-1.2-5.7-2.1q-1.3-.6-2.7-1.2c-.9-.4-1.9-.8-2.8-1.3-1.8-.8-3.6-1.8-5.3-2.8-1.7-.8-3.4-1.4-5-2.3-1.6-.8-3.3-1.8-4.2-3.4q-.2.4-.4.7h.6c.5-.1.5-.9 0-.9zm7.4-13.6c3.5 2.5 6.6 5.5 10.2 7.9q1.4.9 2.7 1.7l2.7 1.8c.8.4 1.7.8 2.6 1.3.9.5 1.6 1.2 2.3 1.9q.9.8 1.9 1.6c.5.4 1.2 1 1.9 1.2.5.1.7-.7.2-.9-.6-.1-1.2-.6-1.7-1l-1.6-1.4c-.7-.7-1.3-1.3-2.1-1.8-.8-.6-1.7-.9-2.6-1.4-.9-.5-1.7-1.1-2.6-1.7q-1.4-.8-2.7-1.7c-1.8-1.1-3.5-2.4-5.1-3.7-1.9-1.6-3.7-3.1-5.7-4.6-.4-.3-.8.4-.4.8z"/><path class="d" d="M137 76.7q1.4.3 2.8.5c.2 0 .4 0 .5-.3 0-.2-.1-.5-.3-.5q-1.4-.2-2.8-.5c-.2 0-.4.1-.5.3 0 .2.1.5.3.5zm-10.4-38.6c1.8 1.5 3.6 3 5.5 4.4 2 1.3 4.1 2.6 6.3 3.4 1.2.4 2.4.5 3.6.8 1.2.2 2.4.6 3.5.9q3.7 1.2 7.5 1.9c2.6.5 5.2 1 7.8 1.4l3.8.6c1.2.2 2.4.4 3.6.7 1.3.3 2.4.8 3.6 1.1q1.8.6 3.5.9c2.5.4 4.8 1.4 7.2 2 2.8.7 5.7 1 8.5 1.6 1.1.2 2.1.5 3.1.7 1 .2 2 .4 3 .2.3-.1.4-.4.3-.6-.3-.6-.8-.9-1.4-1-.5-.1-.7.7-.2.8.4.1.7.2.9.6l.2-.6c-.8.2-1.8 0-2.6-.2-1-.2-1.9-.5-2.8-.7-1.2-.3-2.4-.4-3.5-.6q-2-.4-3.9-.7c-2.4-.4-4.7-1.4-7-2-1.2-.3-2.4-.4-3.6-.8-1.2-.3-2.3-.7-3.4-1-2.4-.8-4.9-1.1-7.4-1.5-2.5-.4-5-.8-7.6-1.3-2.5-.5-5-1-7.4-1.7-1.2-.3-2.4-.7-3.6-1-1.1-.4-2.3-.6-3.6-.8-1.3-.3-2.5-.7-3.7-1.3q-1.7-.9-3.4-2c-2.2-1.4-4.3-3.1-6.2-4.8-.5-.4-1 .2-.6.6zM147 23.5c0 1.6.7 3.1 1.7 4.3.9 1.2 2.1 2 3.5 2.5.7.3 1.4.6 2.1.8.8.3 1.5.6 2.3 1 1.6.7 3.3 1.2 5 1.8 3.3 1 6.5 2.3 9.9 3.1 3.4.7 6.6 2.2 9.9 3.1 1.8.5 3.4 1.4 5.2 1.7.9.2 1.8.4 2.7.7.9.3 1.8.7 2.6 1 .5.2.7-.6.3-.8-1.5-.5-3-1.2-4.5-1.5-.9-.2-1.6-.3-2.4-.6-.7-.3-1.5-.6-2.2-.8-.8-.3-1.6-.5-2.3-.7q-1.3-.4-2.5-.9c-1.5-.5-3.1-1.1-4.7-1.6-1.6-.4-3.3-.7-4.9-1.2-1.6-.5-3.2-1.1-4.7-1.6-1.7-.6-3.4-1.1-5.1-1.7-1.5-.6-2.9-1.3-4.5-1.8-1.5-.6-3-1-4.2-2.1-1.3-1.2-2.4-2.9-2.4-4.7.1-.5-.8-.5-.8 0zm-3.4 48.6c7 1.3 14.1 2.6 21.2 3.9q2.7.4 5.3.9c1.8.4 3.5.8 5.3 1 1.7.3 3.4.2 5.1.3 1.7.1 3.5.5 5.2.9.9.1 1.8.3 2.7.5.9.2 1.7.4 2.5.6.9.1 1.7.2 2.6.1.9-.2 1.8-.6 2.7-.8.4-.2.3-.8-.2-.8q-.2-.1-.4-.1c-.5 0-.5.8 0 .8q.2.1.4.1 0-.4-.1-.8c-.7.2-1.5.5-2.3.7-.7.2-1.5.1-2.3 0-.7-.1-1.5-.3-2.2-.5-.8-.2-1.6-.3-2.4-.5-1.7-.3-3.4-.7-5.2-.9-1.6-.3-3.3-.1-4.9-.3-.9 0-1.8-.2-2.7-.4q-1.3-.2-2.6-.5-2.6-.5-5.2-.9-5.2-1-10.5-1.9l-11.8-2.2c-.5-.1-.8.8-.2.8zm-7.5 17.4c1.8.3 3.5 1 5.2 1.6 1.8.6 3.6.9 5.5 1.2 1.9.2 3.8.5 5.7.9q2.9.6 5.9 1.3l5.8 1.4c2 .4 4 .9 6 1.2 2 .3 4.1.3 6.1.5 1.9.2 3.8.6 5.8.7 1.1.1 2.2 0 3.3-.1q1.7-.1 3.5-.2c1 0 2.1 0 3.1-.2.9-.2 1.6-.8 2.5-.8.2.1.3-.1.4-.3.3-.7-.3-1.1-1-1.1-.5-.1-.5.8 0 .8h.3c-.1 0-.1 0-.1.1q.2-.1.4-.3c-.8-.1-1.4.3-2.1.6-.9.3-1.9.3-2.8.4q-1.5 0-3 .1c-1 .1-2 .2-3 .2-2 .1-3.9-.3-5.8-.6-2-.3-4-.3-6-.4-2-.2-4-.7-6-1.1q-2.9-.7-5.9-1.4c-3.8-.9-7.7-1.8-11.6-2.4-2-.2-4.1-.5-6.1-1.1-1-.3-1.9-.7-2.9-1q-1.5-.5-3-.8c-.5-.1-.7.7-.2.8zm-5.2 17c1.7.3 3 1.6 4.7 2.2.9.4 1.9.6 2.9.8q1.5.5 3 .9c2.1.6 4.2 1 6.3 1.4q3.2.6 6.5 1.1 3.3.6 6.6.9c2.2.2 4.4.2 6.6.3 2.3.1 4.5.2 6.7.3q3.2.1 6.3.1c3.7.1 7.9.5 11.3-1.3.5-.3.1-1-.4-.7-1.5.7-3.2 1-4.9 1.2-1.7.1-3.4 0-5.2 0-1.9 0-3.9 0-5.9-.1-2.2-.1-4.4-.2-6.5-.3-2.2-.1-4.4 0-6.6-.2-2.2-.2-4.3-.4-6.5-.8q-3.2-.5-6.4-1.1c-2.2-.4-4.3-.7-6.4-1.3q-1.7-.4-3.3-.9c-1.1-.3-2.3-.6-3.4-.9-1.9-.5-3.3-2-5.2-2.4-.6-.1-.8.7-.2.8zm-6.1 13.3c2 .3 3.9 1.1 5.7 1.9 2 .8 4 1.6 6.1 2.3q5.9 2.4 12 4.6c1.9.7 3.8 1.3 5.8 1.6q3.2.6 6.5 1.2c4.1.8 8.3 1.9 12.6 1.9 2.3.1 4.6-.2 6.9.2.9.2 1.8.4 2.6.4 1-.1 1.7-.5 2.4-1.1.4-.4-.2-.9-.6-.6-.6.5-1.2.9-2.1.8-.8 0-1.6-.2-2.5-.4-1.9-.3-3.9-.1-5.8-.1-4.3.1-8.4-1-12.5-1.8s-8.3-1.2-12.2-2.6c-3.9-1.4-7.8-2.9-11.7-4.4-2.2-.8-4.5-1.7-6.7-2.6-2-.8-4-1.8-6.2-2.1-.6-.1-.8.7-.3.8zM10.3 226.9c-1.8.5-3.6.9-4.8 2.5-.1.2.1.5.3.6 1.1.5 2.5.3 3.7.2 1.2-.1 2.6-.3 3.7-.8.1-.1.2-.3.2-.4.1-2.9-6.3.4-7.3.9-.5.3-1 .5-1.4.8-.5.4-.1 1.1.4.8 1.1-.8 3.1-1.5 3.3-3q.1-.4-.3-.5c-.6-.3-1.3-.1-1.9.1q-1.1.4-2.1 1.2c-1 .7-2.5 2.1-2.1 3.5.1.4.5.4.7.1 1.1-1.4 1-3 1.4-4.6.4-1.5 1.5-2.4 3-2.6 1.5-.3 3.2-.2 4.6.6.5.4 1.2.7 1.8.3.4-.3.6-.8.8-1.2.3-1.2.2-2.5.3-3.7h-.8c.1 1.2.8 2.3 1.4 3.3.5.9 1.4 2.1 1.1 3.2q.3-.1.7-.2c-.9-.8-1.6-1.8-2-2.9-.2-.5-.3-1.1-.3-1.6 0-.1.1-.3 0-.2l.1-.1q.2-.1.4-.1c1.2-.3 2.8.1 3.9.7.4.2 1 .5 1.2 1q.1.2.1.4l-.4.4c-.9.6-2 .7-3 .9-1.2.2-2.3.3-3.4.6-2.4.7-5 1.6-6.8 3.5-.2.2-.2.4-.1.6.8.9 2 1.4 3.1 1.5.6 0 1.1-.1 1.6-.4.2-.1.4-.4.6-.6.1-.3-.1-.6-.2-.9-1-1.9-3.4-2.3-5.2-1.5-1 .5-1.8 1.4-2.1 2.5-.1.2 0 .4.2.5 1.9 1.2 4.1 1.9 6.3 2.2 1.1.2 2.2.3 3.2.1 1.1-.2 2.1-.7 3.1-1.3.8-.5 1.6-1 2.6-1.4.7-.3 1.5-.6 2.1-1.1.4-.5 1.1-1.6.5-2.1-.4-.5-1.1-.8-1.7-.9-1.6-.4-3.3-.4-4.9-.3-1.5.1-3.1.1-4.6.4-2 .4-4 1-5.5 2.3-.7.6-1.5 1.4-1.6 2.3-.1.8.4 1.5 1.1 1.8 1.3.8 2.8.7 4.3.5 1.5-.2 3.2-.4 4.6-1q.4-.2.7-.4c.2-.2.1-.6-.2-.7-2-.6-4-1.4-6.1-1.5-1.1 0-2.2.1-3.2.5-.9.4-1.7.9-2.6 1.2-.2.1-.4.3-.3.5.2 1 .6 2.1 1.7 2.4 1 .2 2.1-.3 2.9-.9.1-.1.2-.2.2-.3-.1-1.3-1.3-1.8-2.4-1.2-.1.1-.2.3-.2.5 1.1 3.3 5.1 3.5 8 3.3 3.6-.4 7-1.5 10.4-2.4q2.5-.6 5.1-1.1c1.3-.3 2.7-.3 3.7-1.1.1-.1.2-.3.1-.4-.1-.6-.5-1.2-.9-1.7q-.8-1-1.9-1.9c-1.1-.8-2.8-1.8-4-.4-.2.1-.2.5.1.6q1.3.7 2.7.5c.2 0 .4-.3.3-.5-.2-.7-.9-1-1.5-1.3-.8-.3-1.7-.4-2.5-.6q-1-.2-2.1-.6c-.8-.2-1.7-.5-2.6-.5-1 0-1.9.4-2.4 1.3-.1.2-.1.3 0 .4 1.3 2.2 3.5 3.1 5.9 3.3.9.1 1.8.1 2.7.2.9.1 1.8.2 2.7.2.6 0 1.9 0 2.2-.7q.1-.4-.2-.6c-1.1-.8-2.5-1.3-3.7-1.9-.7-.4-1.3-.8-1.9-1.3-.4-.4-.9-.8-1-1.4l-.2.4c1.6-.7 3.5-.2 5 .4 1.7.5 3.3 1.3 5 1.6.6.1.8-.6.3-.8-1.6-.5-3.1-1.4-4.6-2.1-1.4-.6-3-.8-4.2-1.7q-.2.4-.3.8c5.4.3 10.7.7 16.1.6v-.8c-1.2.1-2 .7-2.1 1.9-.2.9.1 2-.4 2.8h.7c-.8-1.1-2.2-1.5-3.5-1.7-1.1-.1-2.6.1-3.3 1.2-.4.6-.4 1.4-.1 2q.2-.2.4-.5c-2.8-.1-5.4-1.1-8.1-.9-1.2.1-2.4.4-3.6.3-1.4-.2-2.8-.6-4.2-.3q-.9.2-1.6.8c-.4.4-.7.7-1.2 1q.3.1.6.1c-.2-.3-.1-.5.2-.7h-.5l1.7 1.7c.1.1.2.2.4.1 1.7-.5 3.1-1.6 4.6-2.4 1.7-.8 3.4-1.1 5.1-.3 1.6.7 3.1 2 4.9 2 .9.1 1.6-.3 2.4-.8.3-.2.6-.4.9-.5.2-.1.4-.2.6-.2.2 0 .5.1.7.1 1.1.1 2.1-.3 2.9-1 .4-.3.7-.9 1.1-1.2q.6-.6 1.4-.9-.3-.1-.5-.2c.3.8.6 1.5 1.1 2.1.5.5 1.4 1.2 1.9.4.4-.6.3-1.4-.2-2-.4-.5-1.4-1.1-2-.5-.6.7-.9 1.8-.6 2.7.1.2.2.5.3.6.1.2.3.2.5.3q.5.1 1.1 0c1.5 0 3-1 2.9-2.6 0-.7-1-2-.1-2.3.7-.3 1.7.2 2 .8.3.4.9.1.8-.4 0-.2 0-.3.2-.4q-.4-.1-.7-.2c.2.8.9 1.3 1.1 2.1q.1-.2.1-.4c-1.6 1.9-4.2 2.4-6.5 2.9-1 .3-2 .4-3 .6-.9.2-1.9.5-2.5 1.3-.2.2-.2.6.1.7 1.7.3 3.4.3 5 .1.8 0 1.6-.1 2.4-.1h1.9c1.2-.1 2.1-.5 2.8-1.4.6-.9 1-1.9 1.2-3 .3-1.1.5-2.3.7-3.5.1-.5-.7-.7-.8-.2-.4 1.9-.5 4-1.5 5.7-.5.9-1.2 1.4-2.2 1.5-.6.1-1.2 0-1.8 0q-1 .1-2.1.2c-1.7.1-3.6.3-5.3-.1q.1.3.2.7c.5-.7 1.5-1 2.3-1.1 1-.2 1.9-.3 2.8-.5 2.1-.6 4.5-1 6.2-2.5.3-.2.5-.5.7-.7.2-.3.1-.6 0-.9-.3-.5-.8-1-1-1.6-.2-.3-.5-.4-.7-.2-.4.4-.5.8-.4 1.3l.8-.4c-.5-.7-1.5-1.2-2.4-1.2-1-.1-1.8.8-1.6 1.9.1.5.5.9.5 1.5-.1.4-.3.9-.7 1.2-.7.5-1.7.5-2.6.3q.2.1.3.2-.7-1.3.3-2.4-.1.1-.3.1c.8-.1 1.6.9 1 1.6q.2-.1.3-.1c-1-.2-1.4-1.7-1.8-2.5 0-.1-.3-.2-.4-.2-.9.4-1.7.9-2.3 1.6-.3.4-.6.7-1 1q-.6.4-1.4.5c-.5 0-.9-.1-1.4-.1-.4 0-.8.2-1.2.4-.7.5-1.3 1-2.2 1.1-1.8.1-3.3-1.3-4.9-2-1.6-.7-3.3-.7-4.9 0-1.9.8-3.4 2.1-5.4 2.7q.2.1.4.1-.8-.8-1.6-1.7c-.2-.2-.4-.2-.5-.1q-1.1.7-.6 1.9c.1.2.4.2.6.1.9-.4 1.3-1.3 2.2-1.6 1.4-.4 2.8 0 4.2.2 1.2.1 2.2-.1 3.4-.2 1.3-.2 2.7 0 4 .2 1.5.3 2.9.6 4.5.6.2 0 .5-.3.4-.5-.2-.5-.3-1.1.1-1.5.4-.4 1.1-.6 1.6-.6 1.2-.1 2.9.2 3.7 1.3.1.2.5.2.7 0 .5-.8.4-1.8.4-2.6.1-.4.1-.8.3-1.2.2-.4.6-.5 1.1-.6.5 0 .5-.8 0-.8-5.4.1-10.7-.4-16.1-.6-.4-.1-.5.5-.2.7 1.4.9 3 1.2 4.4 1.8 1.6.7 3 1.6 4.6 2.1q.1-.4.3-.8c-1.9-.3-3.6-1.2-5.4-1.8-1.7-.5-3.6-.9-5.3-.2-.1.1-.2.3-.2.4.2 1.5 1.7 2.5 2.9 3.2 1.4.7 2.9 1.2 4.1 2.1q-.1-.3-.1-.6c-.1.1 0 .1-.1.2q-.2 0-.4.1h-1.1c-.8 0-1.6 0-2.4-.1-1.8-.2-3.7-.1-5.4-.8-1.1-.4-2-1.2-2.7-2.3v.4c1.1-1.8 3.6-.4 5.1 0 .9.2 1.7.3 2.5.5.4.1.9.3 1.3.4.2.1.6.3.7.6q.1-.3.3-.5-1.1.1-2.1-.4 0 .3.1.6c.9-1 2.3.1 3.1.8q.9.7 1.5 1.6c.3.4.7.9.8 1.3q.1-.2.1-.4c-.8.7-2.1.7-3.1.8-1.5.3-2.9.6-4.3 1-1.9.4-3.8 1-5.6 1.5-1.6.4-3.1.7-4.6.9-1.6.2-3.2.3-4.8 0-1.5-.2-2.9-1-3.4-2.5q-.1.2-.1.5c.4-.3 1-.3 1.1.4l.2-.4c-.6.4-1.4.9-2.2.8-.8-.2-1.1-1.1-1.2-1.8q-.2.3-.3.5c.9-.3 1.7-.8 2.5-1.1 1-.5 2-.6 3.1-.5 2 0 3.9.8 5.9 1.4q-.1-.3-.2-.7c-.5.4-1.4.6-2.1.7q-1.4.3-2.9.5c-.7.1-1.5.2-2.2.1-.7-.1-2.1-.5-2.1-1.5.1-.5.5-1 .9-1.4q.6-.6 1.3-1c1-.6 2.2-1 3.4-1.3 1.9-.4 3.8-.5 5.7-.6 1.1 0 2.2 0 3.3.1.8.1 1.9.3 2.4.9q-.1-.1-.1-.3c0 1.1-.9 1.5-1.8 1.9-.4.2-.9.4-1.3.6-.6.3-1.1.6-1.7.9-1.2.8-2.4 1.4-3.8 1.4-1.3.1-2.7-.1-4-.5-1.5-.4-2.9-.9-4.2-1.8q.1.3.2.5c.6-2.7 5-3.2 5.9-.4v-.3c-.9 1.3-3.1.2-3.9-.7v.6c1-1 2.1-1.6 3.3-2.2 1.2-.5 2.5-.9 3.7-1.2 1.2-.3 2.5-.4 3.8-.7.9-.1 2.1-.4 2.7-1.2 1.1-1.1-.3-2.3-1.3-2.8-1.3-.7-3.1-1.2-4.6-.8-.3.1-.7.2-.9.5-.2.3-.1.8-.1 1.1q0 .5.2 1c.3 1.4 1.2 2.7 2.3 3.7.2.2.6.1.7-.2.3-1.1-.4-2.3-.9-3.3-.6-1.1-1.5-2.2-1.6-3.4 0-.6-.8-.6-.8 0-.1 1-.1 2.1-.3 3.1-.1.4-.2 1.1-.6 1.1-.3.1-.6-.2-.8-.3q-.5-.3-1.1-.5c-1.4-.5-3-.5-4.5-.2-1.3.3-2.4 1.1-3 2.4-.7 1.7-.3 3.7-1.5 5.2q.4 0 .8.1c-.2-.5.1-.9.4-1.3.4-.6.9-1 1.5-1.4.5-.4 1.1-.8 1.8-1 .4-.2 1-.3 1.4-.1q-.1-.3-.3-.6c-.1.7-.7 1.1-1.2 1.5-.6.4-1.2.7-1.7 1l.4.8c.8-.7 1.9-1.1 2.8-1.6 1.2-.5 2.6-1.2 4-1.2q.2-.1.4 0h.1c.1.1.1 0 .1.1l.1.1v.1l.2-.4c-1.1.5-2.3.7-3.4.8-1.1.1-2.4.2-3.4-.2q.1.3.3.6c.9-1.4 2.7-1.7 4.2-2.1.5-.1.3-.9-.2-.8zm74.2-8.1c-2.8.3-5.7.8-7.8 2.9-.2.2-.1.6.1.7 1.2.8 3.8.2 3-1.6-.6-1.6-2.5-.9-3.6-.3q-1.2.6-2.2 1.5c-.5.3-1 .7-1.3 1.2-.5.7-1 1.6-.6 2.4.4.7 1.5.9 2.3.7.9-.2 1.7-.9 2.3-1.6.5-.7 1-1.7.5-2.6-.1-.1-.2-.2-.4-.2-1.2.2-2.3 1-3.3 1.8-.9.8-1.8 1.8-2.7 2.7-1 .8-2 1.5-2.8 2.6-.4.4-.7 1-.7 1.5 0 .7.9 1.1 1.4 1.1 1.5.2 2.5-1.1 3.8-1.6q-.3-.4-.5-.7c-.7.7-2.2 1.7-1.8 3 .1.2.3.4.5.3 2.6-.9 4.3-2.9 6.2-4.6 1.5-1.4 3.8-2.7 4.4-4.8l-.8-.2c0 .9.1 1.9.9 2.6.6.5 1.5.7 2.4.6 2-.2 4.1-1.2 5.6-2.6.7-.6 1.4-1.4 1.6-2.4.1-.2 0-.4-.3-.5-1.3-.4-2.8 0-3.8.9-.5.5-.9 1.1-1.1 1.8-.2.9 0 1.7 0 2.5 0 .2.1.3.2.4.8.4 1.9.1 2.7-.2 1.2-.3 2.3-.8 3.3-1.4.7-.5 1.6-1.1 1.7-2 .1-1-.5-1.7-1.3-2.1-.9-.5-2-.7-3-.7-1-.1-2-.1-2.9.2-.9.3-2.2 1.1-1.6 2.3.4.9 1.7 1.3 2.7 1.4 1.1.1 2.4 0 3.5-.3.9-.3 2-.8 2-2 0-.1 0-.3-.2-.3-1.1-.6-2.3-.6-3.5-.7-1.1-.1-2.5-.2-3.2-1.2v.3c.1-.6.6-.8 1.2-.9.7-.1 1.6 0 2.4.1.8.1 1.6.2 2.4.2.7 0 1.4-.1 1.9-.5.2-.2.1-.6-.1-.7-1.9-1-3.9-.8-5.9-.4-1.9.5-3.9 1.1-5.9.5l.2.6c.3-.4.8-.5 1.2-.6.6-.2 1.2-.3 1.8-.3 1.2-.1 2.4-.2 3.6-.6q1.1-.3 2.1-.8c.7-.3 1.3-.8 1.9-1.1.2-.1.4-.1.6-.2h.1l.1.1v.2q.1.3.1.6c-.1.9-.3 1.9-.3 2.8q0 .3.3.4c.9.3 1.8-.4 2.4-1 .4-.3.7-.6 1.1-.8.3-.1.3-.1.5.3q.3-.3.6-.5c-.3-.3-.2-1.2-.1-1.6.1-.4.3-1.3.8-1.4q-.2-.1-.4-.1c.7.8 1.2 1.9 1.5 2.9.2.4.3.9 0 1.3-.2.5-.8.8-1.3 1.1-1.3.7-2.6 1.3-3.8 2.1q-2.1 1.3-4 2.7-2.2 1.6-4.2 3.3c-.4.4.2 1 .6.6 3.6-3 7.4-5.8 11.7-7.9.7-.4 1.5-.9 1.9-1.7.3-.7 0-1.5-.2-2.3q-.5-1.1-1.2-2.2c-.2-.3-.4-.7-.8-.6-.3 0-.5.2-.7.4-.5.6-.7 1.4-.8 2.1 0 .6 0 1.5.4 1.9.4.3.9-.1.7-.5-.2-.5-.5-.8-1-.8s-.9.3-1.2.6l-1.2.9c-.3.3-.7.6-1.1.4q.2.2.3.4c0-.9.3-1.9.3-2.8 0-.8-.2-1.7-1.1-1.7-.6 0-1.2.4-1.7.7-.7.4-1.5.8-2.3 1.1-.7.3-1.5.5-2.3.7-.6.1-1.2.1-1.8.1-1.3.1-3 .3-3.8 1.4-.2.2 0 .5.3.6 3.8 1.1 7.8-2.1 11.6-.2q-.1-.3-.1-.6c-.2.2-.7.2-1 .2q-.8.1-1.6 0c-1.1-.1-2.2-.3-3.3-.2-.9 0-1.8.3-2.1 1.3-.2.6.4 1.1.8 1.4.6.3 1.2.5 1.9.6 1.4.2 3 0 4.3.7l-.2-.4c0 .7-.8 1-1.3 1.2-.9.2-1.8.3-2.7.3-.8 0-1.5-.1-2.2-.6-.3-.1-.7-.4-.5-.8.2-.4.7-.6 1.1-.7.7-.2 1.5-.2 2.3-.2.8 0 1.7.1 2.5.4.6.2 1.3.5 1.4 1.2.1.7-.5 1.1-1.1 1.5-.9.6-1.9 1.1-3 1.4q-.7.3-1.5.4c-.3 0-.7.1-.9 0q.1.2.2.3c0-1.3-.3-2.6.8-3.6.8-.8 2-1.2 3.1-.8q-.1-.3-.3-.5c-.1.7-.6 1.3-1.1 1.8-.7.6-1.4 1.1-2.3 1.6-.8.4-1.6.7-2.6.9-.6.1-1.4.1-2-.2-.8-.4-.9-1.3-.8-2.1 0-.4-.7-.5-.9-.1-.3 1-1.1 1.8-1.8 2.5-.8.7-1.6 1.3-2.4 2-1.8 1.6-3.4 3.6-5.8 4.4q.3.1.5.3c-.1-.5.2-.9.5-1.2.4-.4.8-.7 1.1-1.1.3-.2 0-.8-.4-.7-.7.4-1.3.9-2 1.3-.8.5-1.5.6-2.2-.1q.1.2.1.3c.1-1 1.1-1.8 1.8-2.4.7-.6 1.4-1.2 2-1.8.8-.8 1.5-1.5 2.3-2.2.8-.6 1.7-1.3 2.6-1.4q-.1-.2-.3-.3c.3.5-.1 1.1-.4 1.5-.4.6-.9 1.1-1.5 1.4-.5.2-1.4.3-1.7-.1-.3-.5.1-1.2.4-1.5.6-.8 1.6-1.5 2.4-2 .6-.4 1.1-.7 1.7-.9.4-.2 1-.4 1.4-.2.3.2.5.8.1 1-.4.3-1.2.3-1.7 0q.1.3.1.6c1.9-1.9 4.6-2.4 7.2-2.7.5 0 .5-.9 0-.8z"/><path class="d" d="M73.9 228.2c.2-.5.5-.6 1-.7.5 0 1-.1 1.5-.2 1.2-.3 2.3-.8 3.4-1.3 1-.5 2.2-.7 3.2-1.3.9-.6 1.7-1.4 2.6-2.1.4-.3 0-1-.4-.7-.9.6-1.7 1.5-2.7 2.1-.5.3-1 .5-1.6.6-.6.2-1.2.5-1.8.8-1.1.5-2.3 1.1-3.5 1.2-1 .2-2 .1-2.4 1.2-.2.5.5.9.7.4z"/><path class="d" d="M80.4 218.5c-1 3.3-4.2 6.7-2.5 10.4.2.4.8.1.8-.2v-.5c.1-.5-.8-.5-.8 0v.5q.3-.1.7-.2c-.7-1.7-.2-3.5.5-5 .7-1.6 1.6-3.1 2.1-4.8.1-.5-.7-.7-.8-.2zm85.3-194.3c.4.8 1.2 1.2 1.9 1.5.9.4 1.9.7 2.8 1 1 .2 2.1.4 3.1.5q2.3.5 4.7.9c.5.1.8-.7.2-.8q-2.2-.4-4.5-.8l-3-.6c-.9-.2-1.8-.4-2.6-.8-.7-.3-1.6-.6-1.9-1.3-.3-.5-1 0-.7.4zm-53.5 205c-.4 1.2.1 2.3 1.1 3.2.1.1.4.1.5 0 .7-.7 1.4-2 .8-2.8q-.2-.4-.6-.5h-.5c-.3 0-.4.1-.6.3-.4.8-.1 1.7.6 2.3.2.2.7.1.7-.3-.1-.5-.2-.9-.5-1.2-.2-.1-.4-.3-.6-.3-.1 0-.3.1-.4.1-.4.2-.8.5-.9.9-.1.9.7 1.7 1.4 2 1 .5 2.1.1 2.6-.8q.6-.9.3-1.8c-.2-.7-.5-1.4-1.1-1.7-.6-.4-1.3-.4-1.8 0-.4.4-.6 1-.5 1.5 0 .6.3 1.2.8 1.6.2.1.6.3.9.2.3 0 .6-.2.8-.5.3-.5.2-1.2 0-1.8q-.3-.4-.6-.7c-.1 0-.3-.1-.4-.2-.2 0-.4.1-.6.2-.9.5-1.8 1.8-1.5 3 .1.6.7 1 1.3 1.2.7.2 1.5-.4 1.9-1 .1-.3.3-.7.2-1.1 0-.4-.6-.6-.9-.6-.8 0-1.1.8-1 1.5q0 .3.1.5c.2.2.3.3.6.3q.4 0 .8-.2c.4-.1.8-.4 1-.9.4-.8.2-2-.4-2.7-.6-.9-1.7-1.2-2.7-.7-1.1.5-1.5 1.9-.5 2.7 1 .8 2.3.4 3.3-.2.7-.5 2-1.7 1-2.6-1-.8-2.1 0-2.8.9-.5.7-1.1 2-.6 3q.2.3.5.4c.1.1.3.2.5.2.2-.1.3-.3.4-.4.5-.6.7-1.2.8-1.9 0-1.4-.8-2.7-1.9-3.4-.6-.4-1.2-.6-1.9-.6-.3 0-.5.3-.4.5.2.7.7 1.2 1.3 1.5.3.1.5-.1.6-.3 0-.2-.1-.4-.3-.5q-.6-.3-.8-.9-.2.3-.4.5c2.2.1 4 3.1 2.2 4.8l.4-.2c-.2 0-.3-.1-.3-.3-.1-.2-.1-.5 0-.7.2-.7.5-1.3 1-1.7.2-.2.4-.3.6-.4h.2q.3.1.4.2v.2q0 .1-.1.2c-.2.2-.4.4-.7.6-.5.4-1 .8-1.7.7-.3 0-.6-.1-.8-.3q-.3-.2-.2-.6c0-.5.7-.9 1.2-.9q.4 0 .7.3c.1.1.3.3.4.5.3.5.4 1.1.3 1.6-.1.2-.1.2-.2.3 0 .1-.1.2-.2.2-.2.2-.5.2-.9.2l.4.2c-.1-.2-.2-.4-.1-.7.1-.2.3 0 .5.1l-.2-.4c0 .6-.3 1.1-.9 1.2-.1.1-.3.1-.1.1q-.2 0-.3-.1-.1 0-.2-.1-.3-.2-.3-.5c-.2-.8.6-1.8 1.4-2.1h-.3c.4.2.6.7.6 1.1q0 .3-.3.5h-.1c.1 0 .1.1 0 0q-.2-.1-.3-.2c-.5-.4-.6-1.9.4-1.8.5.1.9.8 1 1.3q.2.8-.3 1.5c-.5.6-1.3.5-1.8 0-.1 0-.2-.1-.2-.1l-.2-.2q0-.1-.1-.2c0-.1 0 0 0 0v-.1c-.1-.1-.1 0-.1-.1v-.1c0 .1 0 0 .1 0 0-.1-.1 0 0-.1 0-.1 0 0 0 0q.2-.2.5-.3h-.3q.4.2.4.7.4-.2.8-.3c-.5-.4-.7-.9-.4-1.4q-.1.1-.3.2.2 0 .4.1h.1c.1.1.1.1.1.2v.3c-.1.5-.4.9-.7 1.3h.5c-.3-.3-.6-.7-.8-1.1-.2-.4-.2-.9 0-1.3.2-.5-.6-.7-.8-.2zm20.7-1c-.9-.1-1.4.7-1.3 1.5.1.8.7 1.5 1.5 1.7.9.2 2-.4 2-1.4 0-1-.8-1.7-1.6-2.2-.7-.5-1.8-.7-2.5 0-.6.8-.6 2-.1 2.8 1.1 1.7 3.9.7 4.1-1.2.1-1-.6-1.9-1.5-2.1-1-.2-2.1.3-2.8.9-.8.6-1.5 1.4-1.5 2.4.1 1 .8 1.7 1.6 2 .8.2 1.7.2 2.3-.4.5-.7.4-1.7-.1-2.3-.5-.6-1.2-.9-1.9-1.1-.7-.2-1.5-.3-2.1.1-.7.5-.7 1.4-.5 2.1.3.9.9 1.5 1.8 1.4.9 0 1.7-.4 2.3-.9.8-.5 1.4-1.1 2.1-1.7l.5-.5c.2-.1.2-.4 0-.6-.1-.1-.4-.1-.5 0-1 .8-1.8 1.7-2.9 2.3-.5.3-1.1.6-1.6.6-.2 0-.4-.1-.6-.2-.2-.3-.3-.6-.4-.9v-.5s.1-.2 0-.1q.1-.1.1-.2c0 .1.1 0 .1 0 0-.1 0-.1 0 0q0-.1.1-.1c.1-.1 0 0 .1 0 .4-.2 1-.1 1.5 0 .5.2 1 .5 1.3.9l.1.2c.1.1.1.2.1.4q0 .4-.2.6c-.1.1-.4.2-.6.2q-.4 0-.9-.2c-.5-.2-.9-.7-.9-1.3.1-.7.8-1.3 1.3-1.7.6-.3 1.4-.7 2-.6.6.1 1 .8.9 1.3-.2.6-.7 1.1-1.3 1.2-.6.2-1.2-.1-1.4-.7-.2-.5-.2-1.4.4-1.7.5-.2 1.2.2 1.6.6.3.2.5.5.7.8.1.2.1.5 0 .6-.1.2-.5.4-.8.4q-.3 0-.6-.3-.3-.2-.4-.6v-.5c.1-.1 0-.1.1-.1 0 0 .1 0 0 0 .1-.1.2-.1.4 0 .2 0 .4-.3.4-.5s-.2-.3-.4-.4zm15.9-1.9c-.6.6-1.2 1.3-1.6 2-.4.7-1 1.8-.4 2.4.4.4.9.4 1.3.4q1-.1 1.7-.7c.9-.7 1.4-2 1-3-.6-1.7-2.8-1.8-4.1-.9-.3.3-.1.9.4.8l-.6-.4c.1-.3.1-.2 0-.1q-.1.1-.1.2-.2.3-.4.7l-.4.6-.2.2h.5c-.3-.2-.6 0-.6.3 0 .5 0 1.2.5 1.4.4.2.9.1 1.3-.1.8-.5 1.7-1.5 1.7-2.4 0-.5-.3-.9-.8-1-.4 0-.7 0-1 .3q-.3.4-.4.9c-.3 1.5 1 2.5 2.2 3 1.3.6 3.3.7 4.1-.6.1-.1.1-.3 0-.4-1.6-3.1-5.4-2.2-8-1.1l.6.4v-.5c-.1-.5-.9-.5-.8 0v.5c0 .3.3.5.6.3 2.2-.9 5.5-1.8 6.9.8v-.4c-.6 1-2.4.6-3.3.2-.5-.3-1.1-.6-1.4-1.2-.3-.5-.1-1.1.3-1.5l-.4.2q.1-.1.3-.1s.1.1.1 0l.1.1c-.1 0 .1.1 0 0 .1 0 0 0 0 0v.1c0 .4-.3.8-.6 1.1-.2.2-.3.4-.5.5-.2.1-.3.2-.5.2h-.1q-.1-.3-.1-.7l-.6.4c.1.1.3 0 .5-.1.1-.1.2-.2.3-.4q.2-.3.4-.7c.2-.3.6-.7.7-1.1 0-.3-.3-.5-.6-.4q.2.3.4.7c.8-.6 2.3-.8 2.8.4.3.7-.1 1.6-.6 2.1-.4.3-.8.5-1.3.5q-.2.1-.5 0-.2 0-.2-.1v-.1c0-.1 0-.3.1-.4.1-.4.3-.7.5-1 .4-.6.9-1.2 1.4-1.7.3-.5-.3-1-.6-.6z"/><path class="d" d="M183 134c.8.1 1.6-.1 2.3-.5.3-.3.6-.6.8-.9.3-.4.3-.9.4-1.3.1-.8 1-1.2 1.3-2 .5-.9.4-2 .7-3 .3-1 .7-1.9.9-2.9.2-1.1.5-2.1.9-3.1.4-.9.4-2.1 1-3 .2-.3.5-.7.7-1q.2-.6.5-1.2c.3-1 .5-1.9.7-2.9l.6-3.4c.4-2.2.9-4.5 1.3-6.8q.2-1.3-.1-2.7c-.2-1-.7-2.1-.6-3.2 0-.8.5-1.1 1.1-1.6.5-.5.8-1.2.9-1.9.4-2 1-4 1.5-6.1.4-2 .4-3.9-.3-5.9-.4-1-.6-1.9-.5-3 .1-1 .3-1.9.4-2.9.3-2.1-.3-4.1-.6-6-.1-.6-.2-1.1-.2-1.6.1-.6.2-1.1.4-1.7.2-1 .2-2 .2-3 .2-2.2 1-4.3 1-6.5.1-1-.1-2-.3-2.9-.2-.5-.4-1-.5-1.5-.2-.5-.2-1.1-.3-1.6-.2-2.1-1-4-1.8-5.9-.4-.9-.8-1.9-1.2-2.9-.3-.7-.5-1.5-1-2.2-.5-.7-1.3-1.2-2-1.8-.9-.6-1.7-1.2-2.5-1.9-.7-.7-1.5-1.3-2.3-1.9-.3-.2-.8-.4-1.1-.8-.3-.4-.3-1-.5-1.5-.2-.3-.5-.5-.8-.8-.4-.3-.6-.8-.9-1.2-.6-.7-1.2-1.3-2-1.7-.9-.4-1.8-.6-2.8-.7l-.2.8h.2c.6.1.8-.7.2-.8h-.2c-.5-.1-.7.7-.2.8 1 .1 2 .3 2.9.8.8.5 1.3 1.2 1.9 2 .2.3.5.5.8.8.4.4.4.8.6 1.3.2.4.3.8.6 1 .3.3.7.5 1.1.7.8.6 1.5 1.3 2.3 1.9.7.7 1.5 1.3 2.3 1.8.8.6 1.6 1.1 2.1 2 .4.7.7 1.5 1 2.3.7 1.8 1.6 3.6 2.2 5.5.3 1.1.4 2.1.6 3.1.1 1 .5 1.9.7 2.8.5 2.1.2 4.1-.3 6.2-.2 1-.4 2-.4 2.9 0 1.1-.1 2.2-.4 3.2-.2 1-.2 1.9-.1 2.9.2 1 .4 1.9.6 2.9.1 1 .2 2.1.1 3.1-.1.9-.3 1.8-.4 2.8-.1.9-.1 1.8.2 2.7.3 1 .7 1.9.8 3 .2 2-.4 4-.9 6q-.4 1.4-.7 2.9c-.2.8-.3 1.4-.9 2-.5.4-1 .8-1.2 1.4-.2.8 0 1.7.2 2.5.2 1 .5 2 .5 3.1 0 1-.3 2-.5 3l-1.2 6.6c-.3 2-.6 3.9-1.6 5.6-.1.3-.4.6-.6.9-.2.5-.3 1-.4 1.4-.3 1-.7 2-1 3-.3.9-.5 2-.8 3-.3.9-.6 1.8-.7 2.8-.1.5-.1 1-.3 1.4-.2.5-.5.8-.8 1.1-.3.2-.5.5-.6.9-.2.4-.2.9-.3 1.3-.4.8-1.4 1.3-2.2 1.2-.6-.1-.8.7-.3.8z"/><path class="d" d="M179.7 25.7h-.4c-.2 0-.3.2-.4.3-.3.8.4 1.3.9 1.7q.2.1.3.3c.1 0 .1.1 0 0l.1.1v.1c.1 0 0 0 0 0l.1.1s-.1-.1 0-.1v.1c0 .1-.1.1 0 0l-.1.1h.1c0-.1 0 0-.1 0 .2-.1 0 0 0 0s.1-.1.1 0h-.1s.1 0 0 0h-.1c-.1 0 0 0 0 0h-.4q-.3.1-.6.1c-.3.1-.4.3-.3.5 0 .3.3.4.5.3h.1s.1 0 0 0h.3q.3 0 .6-.1c.4 0 .7-.3.8-.7 0-.4-.1-.8-.4-1.1-.2-.2-.5-.4-.7-.6l-.2-.2s0-.1 0 0q-.1-.1-.1-.2s.1.1 0 .1v-.1c0-.1 0 .1 0 0s0 .1 0 0v-.1q-.2.1-.4.3h.4c.2 0 .4-.2.4-.5 0-.2-.2-.4-.4-.4zm-.1 119.1c.6-.4 1.3-.5 2-.3s1.5.4 2.1-.1c.2-.2.1-.5 0-.6-.2-.2-.4-.2-.6 0-.2.1-.5.1-.7 0-.3 0-.6-.1-1-.2-.8-.1-1.5 0-2.2.4-.5.3-.1 1 .4.8z"/><path class="d" d="M146.8 138.2q0-.2.1-.3-.2.1-.4.3c.9-.1 1.8.2 2.7.4 1 .2 2 .4 3 .8 1 .3 1.9.8 2.9 1.2q1.5.5 3.1.9c2.1.6 4.3 1 6.4 1.4q3.4.6 6.9 1.2l7.6 1.4c.6.1.8-.7.3-.8q-6.9-1.3-13.8-2.5c-2.2-.4-4.4-.7-6.6-1.3-2.1-.6-4.1-1.3-6.1-2.2-1.1-.4-2.2-.6-3.4-.9-1-.2-2-.6-3-.5q-.3.1-.4.4-.1.1-.1.2c-.2.5.6.7.8.3zM86.9 95.6c1.1 0 2.2-.2 3.3-.5 1-.3 2-.5 3-.8q.6-.3 1.1-.6c.2-.2.4-.4.6-.5l.9-.3c.9-.2 1.6-.7 2.4-1.3 1.5-1.2 2.5-2.7 3.2-4.5.4-1 .8-2.1 1.1-3.2.2-.5.4-.9.5-1.5 0-.5.3-.9.5-1.3.4-1 .4-2 .6-3 .1-.4.3-.8.5-1.2l.8-1.6c.5-1 1.1-1.9 1.6-2.9.5-.9.9-1.9 1.5-2.9.2-.5.5-.9.8-1.4.3-.3.6-.7.8-1.2.1-.4.2-.9.4-1.3q.3-.8.7-1.5c1.1-1.6 2.4-3.2 3.2-5 .4-1.1.7-2.4 1.3-3.5.6-1 1.3-1.9 1.7-3 .2-.5.3-1.1.5-1.6s.2-1.1.4-1.6c.3-.4.7-.8 1-1.2.4-.5.7-.9 1.2-1.3.4-.3-.2-.9-.6-.6-.7.6-1.3 1.4-1.9 2.2-.3.3-.5.7-.6 1.1-.1.5-.2 1-.4 1.5-.1.4-.2.9-.4 1.4-.2.5-.5.9-.8 1.4-.5.8-1 1.7-1.4 2.6-.4 1.1-.7 2.1-1.2 3.1-.5.9-1 1.7-1.6 2.5-.6.8-1.1 1.6-1.6 2.5-.2.4-.4.9-.5 1.3-.2.5-.3 1-.6 1.4-.3.4-.6.7-.8 1.1q-.4.7-.8 1.5l-1.5 3c-.5.9-1.1 1.8-1.5 2.8-.5.9-.9 1.7-1.1 2.7 0 .5-.1 1-.2 1.4-.1.5-.3 1-.5 1.4-.2.4-.3.8-.4 1.3-.1.6-.3 1.1-.5 1.7-.7 1.9-1.3 3.9-2.7 5.5-.6.8-1.4 1.4-2.3 2-.4.3-1 .4-1.5.6-.5.2-.9.4-1.3.7-.9.7-2.1.8-3.2 1.1-1.2.3-2.4.7-3.7.7-.5 0-.5.8 0 .8zm-34 127.6c.2-.9.1-2.1.6-2.9h-.7c.2.3.1.6.1 1s.4.5.7.3c.8-.6.9-2 1-2.9 0-.5.1-1 .1-1.5.1-.8.4-1.6.6-2.4.2-.8.5-1.6.7-2.5.1-.8.3-1.7.4-2.6.3-1.8.6-3.6 1-5.4.2-.8.4-1.6.8-2.4.3-.7.7-1.4 1.1-2.1.3-.7.7-1.3 1-2 .3-.8.4-1.6.6-2.5.1-.8.3-1.6.5-2.4.3-.7.5-1.6.8-2.3.6-1.5 1.4-3 2.5-4.1.5-.5 1.1-.9 1.6-1.4.6-.5 1-1.2 1.6-1.8.5-.6 1-1.2 1.7-1.7.6-.4 1.4-.5 2.1-.7.8-.1 1.6-.3 2.4-.2.8 0 1.6.3 2.5.4.9.2 1.7.3 2.6.5q.7.1 1.3.2c.4.1.8.3 1.2.5.8.3 1.6.5 2.3.8q1.2.4 2.4.7c1.7.3 3.4.5 5 .8q1.4.2 2.8.5c.8.1 1.7.4 2.6.4.4 0 .8-.1 1.2-.1.5.1 1 .2 1.4.2.9.2 1.8.4 2.6.6 1.7.4 3.4 1 5.1 1.2 1.8.2 3.6.3 5.4.7 1.7.3 3.3.9 5 1.2.9.2 1.8.2 2.7.2.7 0 1.4.3 2.1.3.7.1 1.3-.1 1.8-.5.4-.4-.2-1-.6-.6-.5.5-1.3.3-1.9.1-.8-.1-1.6-.1-2.4-.2-1.8 0-3.5-.6-5.2-1-1.7-.5-3.5-.7-5.2-.9-1.8-.1-3.5-.5-5.3-1q-1.3-.4-2.6-.6c-.8-.2-1.7-.4-2.6-.5h-1.2q-.7.1-1.3-.1-1.4-.2-2.8-.5c-1.7-.3-3.4-.5-5.1-.8q-1.2-.2-2.4-.5c-.8-.3-1.6-.6-2.5-.8-.8-.2-1.4-.7-2.2-.8-.9-.3-1.8-.4-2.7-.5q-1.2-.2-2.5-.5c-.8-.2-1.7-.4-2.5-.3-.7.1-1.5.3-2.2.4-.7.2-1.4.4-2 .9-.6.4-1.1 1.1-1.6 1.6-.6.6-1 1.3-1.6 1.9-.5.5-1.2.8-1.7 1.4-.5.5-.9 1.1-1.3 1.8q-.7 1-1.1 2.1c-.4.8-.5 1.5-.8 2.3-.2.8-.5 1.5-.7 2.4-.1.8-.1 1.7-.4 2.4-.3.8-.8 1.4-1.1 2.2-.3.7-.7 1.4-1.1 2.1-.3.7-.6 1.4-.8 2.2q-.3 1.3-.5 2.7l-.9 5.4c-.4 1.7-1 3.3-1.3 4.9-.2 1.1-.2 2.3-.5 3.3-.1.4-.2.9-.5 1.2q.3.1.7.3c0-.5.1-1-.2-1.4-.2-.3-.6-.3-.7 0-.6.9-.5 2-.7 3.1-.1.5.7.7.8.2zM36.1 121.5q.1-.2.3-.3c.3-.4-.1-.9-.5-.7-1.5.7-2.6 2-3.6 3.2-.6.6-1.1 1.3-1.3 2.1-.1.3-.1.7-.3 1.1-.1.4-.4.7-.5 1.1-.3.8-.3 1.7-.6 2.5-.3.9-.6 1.7-.8 2.7q-.2 1.4-.5 2.9c-.1.9-.2 1.9-.5 2.8-.2.8-.6 1.6-.8 2.4-.2.8-.3 1.8-.4 2.7-.3 2-.4 4-.8 5.9q-.5 3-1 5.9c-.2 1-.5 1.8-.8 2.7-.3.8-.5 1.7-.7 2.6-.3.9-.5 1.8-.7 2.7-.2.8-.5 1.8-.4 2.7.1.3.2.7.3 1.1.1.4 0 .9-.1 1.3-.2.9-.3 1.6-.2 2.4.1.5.2.9.2 1.4 0 .5-.1.9-.2 1.4-.2.9-.3 1.8-.7 2.6-.4.8-.7 1.7-1.1 2.5-.3.8-.8 1.6-1.1 2.5-.7 1.6-1 3.5-1.3 5.2-.1 1-.4 1.9-.4 2.9-.1.9 0 1.9-.2 2.8-.2 1.8-.9 3.7-1 5.5-.1 1 0 2-.2 2.9-.2.9-.4 1.8-.5 2.7 0 2-.4 3.9-.7 5.8-.2 1.2-.3 2.4-.5 3.7-.4 2.5-.9 5.3-2.6 7.2q-.7.7-1.5 1.2c-.4.3 0 1 .5.7 2.2-1.3 3.3-3.8 3.9-6.2.3-1.3.5-2.6.6-3.9q.3-2.1.7-4.2.3-1.4.4-2.8c.1-1 0-1.9.3-2.9.2-.9.4-1.8.4-2.8 0-.9.1-1.9.3-2.8.3-1.9.8-3.7.9-5.6 0-.9.1-1.9.2-2.9l.6-2.8c.1-.9.3-1.7.5-2.6.3-.9.8-1.7 1.2-2.6.4-.8.7-1.7 1.1-2.6.3-.8.6-1.4.8-2.2.1-.9.4-1.7.4-2.6 0-.9-.3-1.8-.2-2.7.1-.8.5-1.6.4-2.4-.1-.4-.2-.8-.3-1.1-.1-.5 0-1 .1-1.5.2-.9.3-1.8.6-2.7.2-.9.5-1.8.7-2.8.2-.9.6-1.7.9-2.5.2-1 .3-2 .5-2.9.4-1.9.8-3.9 1-5.8.1-1 .2-2 .3-2.9.1-1 .3-2 .4-3 .1-.9.4-1.6.7-2.5.4-.8.5-1.7.6-2.6q.3-1.5.5-2.9c.2-.9.3-1.9.7-2.9.3-.8.6-1.5.7-2.4 0-.4.1-.8.3-1.2.2-.4.4-.7.5-1.2.1-.3.2-.7.3-1.1.2-.4.4-.8.7-1.1.6-.7 1.1-1.3 1.7-1.9q.9-.9 2-1.4-.3-.4-.5-.7-.2.1-.3.3c-.4.4.2.9.6.6zm118-115c0 .4-.6.8-.9 1.1-.3.4-.4.8-.9 1-.5.2-.9.3-1.2.8-.3.4-.4 1-.4 1.6.2 1.3 1.1 2.1 1.9 3 .5.4.8.9 1.2 1.4.4.5.8.8 1.4 1 .5.1.7-.7.2-.8-.5-.2-.8-.5-1.1-1q-.5-.7-1.2-1.3c-.7-.8-1.7-1.7-1.5-2.9.1-.6.4-.8.9-1 .5-.2.8-.4 1-.8.2-.4.5-.6.8-1 .4-.3.6-.7.6-1.1 0-.6-.9-.6-.8 0zM64.5 123.6c.9.2 1.8 0 2.8-.1.8 0 1.7.1 2.5.4.9.4 1.7.9 2.6 1.2.8.4 1.7.6 2.5.8 1 .2 1.8.6 2.6 1l2.8 1q2.8.9 5.7 1.4c.9.1 1.8.5 2.7.8.9.3 1.9.4 2.9.5.9.2 1.8.4 2.7.7.9.3 1.8.6 2.7.6h1.3c.5 0 1 .1 1.5.2.9.2 1.7.2 2.5 0 .9-.3 1.9-.1 2.7-.5.3-.2.6-.5 1-.6.4-.2.9-.2 1.3-.3 1-.2 1.8-.7 2.6-1.2l1.2-.6c.4-.2.8-.2 1.2-.4.8-.3 1.5-1 2.2-1.5.7-.5 1.5-1 2.3-1.6 1.5-1.1 2.8-2.4 4.2-3.6 1.4-1.1 2.8-2.4 4.1-3.7.6-.7 1.2-1.4 1.7-2.2.4-.6.5-1.4.9-2.1.2-.4.4-.7.6-1.1.2-.4.3-.9.5-1.3.3-.9.7-1.9 1-2.8.2-.9.3-1.8.7-2.7.2-.4.5-.8.7-1.2.2-.5.3-.9.5-1.4.3-.9.9-1.6 1.3-2.5.4-.9.6-1.8.8-2.7.2-.5.3-.9.5-1.2.1-.4.4-.8.6-1.1.3-.7.4-1.6.8-2.3.4-.7.8-1.3.9-2.2.1-.4.1-.9.2-1.3q.2-.7.5-1.4c.6-1.7.7-3.6 1-5.4q.3-1.4.8-2.7c.4-.8.7-1.7 1-2.6.3-.8.7-1.5.8-2.4.1-.6-.8-.6-.8 0-.1.8-.6 1.6-.9 2.5-.2.9-.7 1.7-1 2.6-.7 1.7-.9 3.5-1.1 5.3-.2.9-.3 1.7-.6 2.6-.3.9-.6 1.7-.7 2.6 0 .4-.1.8-.4 1.2-.2.3-.4.7-.5 1-.4.7-.5 1.6-.9 2.3-.4.7-.7 1.4-.9 2.2-.3.9-.5 1.8-.9 2.7-.4.8-.9 1.6-1.3 2.4q-.2.7-.4 1.3c-.2.5-.5.9-.7 1.4-.4.8-.5 1.6-.7 2.5-.3.9-.7 1.8-1 2.7q-.2.6-.4 1.3c-.2.4-.4.8-.7 1.1q-.3.5-.5 1.1c-.1.4-.2.8-.4 1.1-.4.8-1.1 1.5-1.7 2.2q-.9 1-1.9 1.9c-1.4 1.2-2.7 2.3-4.1 3.5-.7.6-1.4 1.2-2.2 1.8-.7.5-1.5 1-2.3 1.6-.7.5-1.3 1.2-2.2 1.4-.8.2-1.5.6-2.3 1-.8.5-1.6 1-2.5 1.1-.5.1-.9.2-1.3.4-.4.1-.7.3-1 .5-.4.2-.7.3-1.2.3s-.9.1-1.4.2q-.6.2-1.2.1c-.5 0-1-.1-1.5-.2-.9-.2-1.8-.1-2.7-.1-.9-.1-1.8-.5-2.6-.8-1.9-.6-3.8-.5-5.6-1.2-1.8-.7-3.7-.9-5.5-1.3-1.8-.5-3.7-1.1-5.4-1.9-.4-.2-.8-.4-1.2-.5-.5-.2-.9-.3-1.4-.4-.9-.1-1.8-.4-2.6-.8-1.6-.8-3.1-1.6-4.9-1.5-.9.1-1.8.3-2.7.1-.5-.2-.8.6-.2.8zm82.6 61.6c1.6-.8 3.2-1.8 5-2.4.9-.2 1.8-.5 2.8-.7l2.6-1 2.6-1.2c.9-.4 1.7-.7 2.5-1.2 1.6-.9 2.9-2.1 4.4-3.3 1.4-1 2.7-2.1 3.8-3.5 1.2-1.4 2.3-3 3.3-4.5.5-.7 1-1.4 1.3-2.2.4-.8.6-1.7 1-2.5.5-.8 1-1.7 1.4-2.5.2-.4.5-.8.6-1.2.2-.4.2-.8.3-1.2.3-.9.9-1.5 1.4-2.4.5-.8.6-1.8.9-2.7.2-.5.3-.9.4-1.4.1-.5.2-.9.3-1.4.3-1 .8-2 1.2-3 .2-.5-.6-.7-.8-.2-.3.8-.7 1.7-1.1 2.5-.3.9-.3 1.8-.5 2.6-.2.4-.3.8-.4 1.2-.1.4-.2.9-.4 1.3-.2.8-.8 1.4-1.2 2-.5.7-.6 1.5-.8 2.3-.3.9-.8 1.7-1.3 2.4-.4.8-.9 1.6-1.2 2.5-.3.8-.6 1.6-1.1 2.4-.9 1.5-2 3-3.1 4.4-1.1 1.4-2.2 2.7-3.6 3.8-.7.6-1.5 1.1-2.2 1.7-.7.6-1.4 1.2-2.1 1.7-1.5 1-3.3 1.6-4.9 2.3-1 .5-2 .9-3 1.3l-3 .9c-2 .5-3.7 1.6-5.6 2.5-.5.2 0 1 .5.7zm-65.8 36c-2.1 1.3-4.3 3-5.1 5.4-.1.2 0 .4.2.5.8.7 2.2.1 3.1-.2 1.1-.5 2.3-1.2 3-2.3.7-1 .1-2.4-1.2-2.4s-2 .9-2.6 1.9q-.7 1-1.1 2.2c-.1.5-.3 1.1-.1 1.7.1.2.3.2.5.2 1.5-.2 3.1-1 4.4-1.9 1.2-.8 2.6-2 2.9-3.6.1-.5-.4-.7-.7-.3-1.1 1.4-1.7 3.1-2.2 4.7-.1.2 0 .3.1.4.6.6 1.4.3 2.1.1.9-.5 1.8-1.1 2.7-1.7q1.3-.9 2.6-2c.8-.6 1.7-1.2 2.4-1.9 1.5-1.2 2.6-2.8 4-4.1.4-.4-.1-.9-.5-.7-1 .5-2.2.6-3.2 1.3-.4.3-.8.7-.9 1.3 0 .5.4 1 .9 1.1 1 .4 2.2-.2 3.1-.8.9-.6 1.8-1.3 2.4-2.2.4-.7.6-1.4.3-2.2-.2-.5-.6-1-.6-1.6q-.3.2-.5.4c1.1-.1 2.2.2 3.1.7l-.2-.4c.1 2.4-2.3 4.4-4.5 4.6q.2.2.4.3c-.1-.5.2-.8.5-1.2.3-.5.4-1.1.2-1.7-.4-1.1-1.7-1-2.6-1.2-.6-.1-.8.7-.3.8q.6.1 1.2.3c.6.1.8-.7.3-.8q-.6-.2-1.2-.3-.2.4-.3.8c.7.1 2.2 0 2.1 1 0 .5-.3.8-.5 1.2q-.4.6-.2 1.4c.1.1.2.3.4.3 2-.2 4-1.6 4.9-3.4q.3-.7.4-1.4c0-.2.1-.6 0-.8 0-.2-.3-.3-.5-.4-.9-.4-2.1-.7-3.2-.7-.2.1-.4.2-.4.5 0 .5.2.9.4 1.3.3.4.5.8.4 1.3-.2.9-1.1 1.6-1.8 2.2-.7.6-1.6 1.2-2.5 1.3-.3 0-.7 0-.9-.4.1.1 0 0 .1-.1q0-.1.1-.2.2-.2.5-.4c.9-.6 2.1-.7 3.1-1.2l-.6-.6c-1.1 1.1-2.1 2.3-3.3 3.5-.8.8-1.7 1.4-2.6 2.1-1.5 1.2-3.1 2.5-4.8 3.5-.4.2-.8.4-1.3.6h-.6q0 .2.1.4c.5-1.7 1.1-3.3 2.1-4.6q-.4-.2-.8-.3c-.2 1.4-1.6 2.5-2.7 3.2-1.2.8-2.6 1.5-4 1.7q.2.1.5.2c-.1-.2 0-.8.1-1q.3-.8.7-1.5c.4-.8.8-1.8 1.7-2 .3-.1.9-.2 1.1.2.2.3.1.6-.1.9-.6.8-1.5 1.4-2.4 1.8-.6.3-1.9.9-2.6.4q.1.2.2.5c.7-2.2 2.9-3.8 4.7-5 .4-.3 0-1-.4-.7zM17 228c-1.1-.3-2.2-.4-3.4-.7-.9-.2-2.3-.6-2.8-1.5l-.2.6c1.6-.2 2.6-1.5 3.9-2.2.2-.1.3-.3.2-.5-.1-.5-.4-.8-.8-1.1q0 .2.1.5c.1-.2.2-.1.4 0l-.2-.4c-.1.3-.3.1-.5-.1q0 .4-.1.7c.7-.5 1.9-.2 2.6 0q1.6.4 3.1 1c2.5 1 4.6 2.9 7.1 4 .6.3 1.3.5 1.9.8.5.3 1.1.6 1.5 1.2q.1-.3.3-.6c-1.6 0-3.3 0-4.9.2-1.6.3-3.4.8-4.3 2.3-.2.2 0 .5.2.6 1.3.3 2.6.1 3.9-.3 1.2-.3 2.5-.9 3.8-1 2.7-.1 5.6.6 8.2-.5.9-.5 2.1-1.1 2.6-2.1.5-.9.3-1.9-.4-2.7-1-1.3-3-2-4.5-2.6-1-.4-2-.8-3.1-1-.7-.1-1.6-.3-2.4-.1-.3.1-.5.6-.1.8 1.8.9 3.6 1.7 5.6 2.1q1.5.3 2.9.3c1 0 2.1 0 3 .4q.1-.4.1-.8-.4-.1-.8-.3.1.2.2.3c0-1 1.3-1.6 2.1-1.9 1-.3 2.2-.6 3.2-.5.6.1.6-.7 0-.8-1.4-.2-3 .3-4.3.9-.7.3-1.3.8-1.6 1.4-.1.3-.3.7-.2 1 .1.5 1 .7 1.4.7.5.1.5-.6.1-.8-.9-.4-1.8-.4-2.8-.4-1-.1-1.9-.1-2.9-.3-2-.4-3.8-1.1-5.6-2q-.1.3-.1.7c.6-.2 1.2 0 1.8.1q1.2.2 2.4.7c1.4.5 2.9 1 4.1 1.9.7.4 1.6 1.3 1.3 2.2-.3.9-1.4 1.5-2.3 1.9-1.1.6-2.5.7-3.7.7-1.3-.1-2.5-.1-3.8-.1-2.7-.1-5.2 2-7.9 1.3q.2.3.3.6c.8-1.3 2.6-1.7 4-1.9 1.5-.2 3-.2 4.5-.2.3 0 .5-.4.4-.6-.7-1.1-2-1.6-3.1-2.1-.6-.2-1.1-.4-1.7-.7-.7-.5-1.4-.9-2.2-1.4-1.2-.8-2.4-1.6-3.8-2.1q-1.5-.7-3.2-1.1c-1-.2-2.4-.5-3.3.1-.2.1-.3.4-.1.6.3.3.7.5 1.1.5.4-.1.7-.4.8-.8.1-.2-.1-.4-.2-.5-.6-.4-1.2-.3-1.5.3-.1.2 0 .4.1.6q.4.2.5.7.1-.3.2-.5c-1.3.6-2.2 1.9-3.7 2.1-.3 0-.4.4-.3.6.5 1.1 1.9 1.5 3 1.8 1.2.3 2.5.5 3.7.8.5.1.7-.7.2-.8z"/><path class="d" d="M132.4 189.8c-1.4 1.1-2.2 2.8-2.7 4.4-.2.5.5.7.7.3l.6-.9c.3-.3.1-.8-.4-.7-1.2.4-2.5.6-3.8.6q-.9.1-1.7.1c-.3-.1-.6-.1-.8-.1-.2.1-.5.3-.6.4-1.3 1.1-1.7 3.2-.6 4.5.8 1 2.2 1.3 3.4 1.2 1.1-.1 2.4-.6 3-1.6.6-1 .2-2.3-.7-2.9-.9-.7-2.1-.8-3.1-.8-1.3-.1-2.6 0-3.9.4-.9.3-1.9.9-2.1 1.9-.3 1.4 1.2 2.1 2.2 2.4 1.4.4 2.8.5 4.1.1.9-.3 1.8-.7 2.4-1.4.3-.2.6-.5.5-.9-.1-.2-.2-.4-.4-.6-.9-.9-2.3-1.2-3.4-1.5-1.2-.3-2.5-.4-3.7-.6-1.5-.3-3-.8-4.6-.9-.8-.1-1.7 0-2.5.3-.4.1-.7.3-.7.7q-.1.4.2.8c.5 1.1 2 1.7 3.1 2.1 1.4.5 2.9 1.1 4.3 1.5 2.2.7 4.6 1.2 7 1 2.1-.2 4.2-.8 6.2-1.6q2.9-1.3 4.9-3.9c.6-.9 1.2-1.7 1.9-2.5q-.3-.1-.7-.2c.2.9.2 2.2 1.4 2.6.4.1 1-.5 1.2-.8.3-.5.5-1 .6-1.6.1-.5-.7-.7-.8-.2-.3.7-.5 1.3-.5 2-.1.7.2 1.2.6 1.8.9 1.2 2.3 1.7 3.8 1.2 2.2-.7 3.5-3.2 3.2-5.5-.1-1.3-.7-2.4-1.8-3.1q-.2.3-.3.7c1 .3 2 .8 2.8 1.5.4.3.7.7.9 1.2.1.6-.2 1.2-.4 1.8-.5 1-1.1 2-2 2.8-1.1.9-2.4 1-3.8 1.2-1.3.2-2.6 1.1-3.9.8-.7-.1-1.4-.3-2.1-.2-.7 0-1.4.1-2.1.2-1.4.1-2.9-.2-4.3-.4-.8-.1-1.5-.1-2.2-.2-.8-.1-1.5-.3-2.3-.5q-2-.6-4.1-1.2c-1.1-.4-2.5-.7-3.7 0-.4.3 0 1 .5.7 1-.7 2.4-.1 3.5.2q2 .7 4 1.2 1.1.3 2.2.4c.8.1 1.6.1 2.4.3q1.1.1 2.2.3c.8.1 1.6.1 2.3 0 .8-.1 1.6-.3 2.3-.2.8.1 1.4.4 2.2.3.7-.1 1.3-.3 2-.6.7-.2 1.5-.3 2.2-.4 1.4-.2 2.6-.6 3.6-1.6.9-.8 1.5-2 1.9-3.1.3-.6.5-1.3.4-1.9-.1-.6-.5-1.2-1-1.6-.9-.8-2.1-1.4-3.3-1.8-.5-.1-.7.5-.3.8 1.5 1 1.7 3.1 1.1 4.8-.3.8-.8 1.5-1.6 2-1 .6-2.3.7-3.2-.2-.5-.4-.9-1-.9-1.6 0-.7.3-1.3.5-1.9l-.8-.2c-.2.7-.4 1.5-1.1 1.8h.4c-.8-.3-.7-1.3-.9-2.1 0-.3-.5-.4-.7-.1-1.5 1.7-2.5 3.8-4.5 5.1-1.9 1.3-4.1 2-6.3 2.4-2.4.5-4.8.3-7.2-.3-1.7-.5-3.4-1.1-5-1.8-.8-.2-1.6-.6-2.2-1-.4-.2-1.1-.7-1-1.2q-.1.1-.1.2c1-.6 2.4-.5 3.6-.3 1.1.2 2.1.5 3.2.7 1.7.4 3.4.6 5.1 1.1.6.2 1.7.6 1.9 1.2q.1-.2.1-.4c-.8 1.1-2.5 1.9-3.9 1.8-1.1 0-2.4-.2-3.3-.8-.7-.5-.6-1.2.1-1.7.8-.5 1.9-.7 2.9-.8 1-.1 2.1-.1 3.2.1.8.2 1.5.5 1.7 1.4.2.9-.7 1.5-1.4 1.8-.9.3-2.1.4-3 0-1.5-.8-1.5-2.7-.4-3.8.1-.2.3-.3.5-.3.2-.1.5 0 .8 0q1 0 1.9-.1 1.8-.1 3.6-.6-.2-.3-.4-.7c-.3.4-.5.8-.8 1.1q.4.2.8.3c.4-1.4 1.2-3 2.4-4 .5-.3-.1-.9-.5-.6z"/><path class="d" d="M131.2 191.9c.2-1.1.3-2.2.9-3.2q-.3.1-.5.2c1 .2 1.9-.1 2.9-.5.9-.3 1.8-.8 2.7-.9 1.2-.2 2.2.5 3.4.5 1.2 0 2.2-.2 3.3.4l-.2-.4c0 .5-.5.6-.9.7-.4.2-.9.3-1.3.5-1.6.7-3 1.5-4.5 2.3-1.3.6-2.5 1.3-3.8 2-1.2.7-2.6 1.3-4 1.1-.5 0-.5.8 0 .9 2.4.2 4.6-1.4 6.6-2.5l3.6-1.8c1-.6 2.1-1.3 3.2-1.5.9-.3 1.9-.6 1.9-1.7 0-.1-.1-.3-.2-.3-1-.5-2-.6-3.1-.5-.7 0-1.3-.1-1.9-.3-.6-.1-1.1-.3-1.7-.3-2.1 0-3.7 1.8-5.8 1.5-.2 0-.4 0-.5.2-.5 1.1-.7 2.2-1 3.4-.1.5.7.7.9.2zm-54.8 34c-.2-1.9 1.4-3.8 3.2-4 1.4-.2 3.5.2 4.5-1.1q-.4-.1-.8-.3c-.5 1.5-.9 3.1-1.7 4.4-.2.4-.4.8-.9.9-.4.2-.9.1-1.4.1-1.5 0-2.9.5-4.3 1q-.8.3-1.5.8l-.6.6c-.1.2-.3.4-.5.4l.3.3q-.1-.4-.2-.9c0-.1-.2-.3-.4-.3-.8 0-1.7.7-2.2 1.3-.5.7-.7 1.6-.2 2.4.5.7 1.4.8 2.2.9 1.1 0 2.3-.1 3.4-.4 1.3-.3 2.6-1 3.8-1.7.2-.2.2-.6 0-.7q-.8-.5-1.8-.4c-.6.1-1.1.4-1.7.4q.2.3.3.6c.8-1.2 2.4-1.4 3.6-1.6.7-.1 1.4-.2 2-.4 1-.3 2-.7 2.9-1.1 2-.7 3.9-1.5 5.8-2.3 1.8-.9 3.7-1.8 5.5-2.7q1.4-.7 2.9-1.3c.6-.2 1.3-.5 2-.8 1.2-.7 1.8-1.8 1.8-3.2 0-1.3-.4-2.6-1.6-3.3-1.4-.7-3.2-.3-4.6.1q-1.5.3-2.9 1.1c-.5.3-.9.6-1.4.8-.5.3-1 .5-1.5.7-1.9.7-3.6 2.1-5.6 2.3-.5 0-.5.8 0 .8 1.8-.1 3.2-1.1 4.8-1.9.8-.4 1.6-.6 2.4-1 .8-.4 1.5-.9 2.4-1.3.8-.4 1.7-.7 2.7-.9.8-.1 1.6-.3 2.4-.2 1.2.2 1.9 1.1 2.1 2.3 0 .7 0 1.4-.4 2-.3.5-.8.8-1.3 1-.6.4-1.3.6-2 .9q-1.3.6-2.7 1.2c-1.8.9-3.6 1.8-5.4 2.6-1.8.9-3.7 1.5-5.5 2.3-1 .4-2.1.8-3.1 1.1-.7.2-1.4.3-2.1.5-1.5.2-3.1.6-3.9 1.9-.1.3.1.6.4.6 1 0 2.1-.7 3-.1v-.7c-2 1.3-4.4 2-6.9 1.9-.7 0-1.7-.3-1.5-1.3.2-.6 1.2-1.6 1.9-1.5q-.2-.2-.4-.3l.2.8c0 .1.1.3.3.3 1 .2 1.4-.8 2.1-1.3 1-.7 2.2-1 3.3-1.2q1-.3 2-.3c.4 0 .8.1 1.2 0 .9-.2 1.4-1 1.8-1.8.7-1.3 1.1-2.8 1.5-4.2.2-.4-.5-.7-.7-.3-.4.6-1.5.5-2.1.6-.9 0-1.7-.1-2.5.2-1.9.6-3.5 2.6-3.3 4.7.1.5.9.5.9 0zm-57 5.1c-.8.2-1.4.8-2.2 1-.4.2-.8.3-1.2.4-.4.2-.8.4-1.1.6-1.6.7-3.1 1.2-4.8 1.3-1 0-2 0-2.9.3-.4.2-.7.5-.8.9q0 .4.2.7c.2.3.6.3 1 .4q1.3.1 2.7-.1c.9-.1 1.7-.4 2.5-.7.9-.3 1.8-.3 2.7-.6.8-.3 1.4-.7 2-1.2.6-.4 1.2-.7 2-.9q1-.2 2.1-.3c.9-.1 1.7-.3 2.6-.4.9-.2 1.8-.2 2.6-.2.9.1 1.7.1 2.6.1.9 0 1.8-.1 2.6 0 1.8.2 3.5.8 5.3.5.8-.2 1.6-.4 2.4-.5h2.9c1.4 0 2.8 0 4-.6 1.4-.6 2.2-1.9 2.2-3.4 0-.4 0-.9.2-1.3.1-.4.3-.8.5-1.1.3-.5.9-1.4.3-1.9-.7-.7-2.1-.6-3.1-.8-.8-.1-1.7-.2-2.6 0-.9.1-1.7.4-2.5.7-1.1.4-2.4.3-3.4.9-.3.2-.9.8-.7 1.3.3.5 1.2.7 1.8.7.7 0 1.4 0 2.1-.1q1.4 0 2.7-.2l2.6-.6c.8-.2 1.7-.5 2.4-.9s1.1-1 1.8-1.4q-.3-.2-.6-.3c.4 1-.2 2.1-.4 3.1-.3 1-.5 2.2.2 3.1.1.2.4.2.6.1 1.2-.6 1.7-2.3 1.6-3.6q-.1-1.1-1-1.8c-.7-.5-1.7-.6-2.5-.6-2.2-.2-4.4-.6-6.6-.5-2.3.2-4.5.8-6.7 1.1-2.4.4-4.7.3-7.1.4q-1.7 0-3.5.2c-1 .1-2.1.2-3.2.3q-1.6.1-3.2 0c-1-.1-2.1-.3-3.2-.4q-.8 0-1.6-.1c-.4 0-.9 0-1.2-.3-.4-.5-.4-1.4-.2-1.9.6-1.2 2.5-1.3 3.7-1.3 1.1.1 2.1.3 3.2.5.5.1 1.1.3 1.7.3.6.1 1.3.1 1.9.2q-.1-.2-.3-.5c-.1.7-.2 1.5.2 2.1.4.8 1.4.9 2.2 1.1 1.2.3 2.5.6 3.6 1.1q.7.3 1.5.7c.4.2.9.4 1.1.9v-.5c-.4.9-1.5 1.2-2.3 1.5-.5.2-1 .5-1.5.6-.6.1-1.2.1-1.8.1-.5 0-.5.8 0 .8.7 0 1.4 0 2-.1.7-.2 1.2-.5 1.8-.7.6-.2 1.1-.4 1.6-.7.4-.2 1-.7 1-1.2 0-.6-.8-1-1.2-1.3-.5-.3-1.1-.5-1.7-.8-1.4-.6-2.9-.9-4.4-1.3-.4-.1-1-.3-1.3-.7-.2-.4-.1-.9 0-1.4.1-.2 0-.4-.3-.5-.5-.1-1-.1-1.5-.2-.6 0-1.2-.1-1.8-.2-1.1-.2-2.1-.5-3.2-.6-1.2-.1-2.6 0-3.8.6-1.2.7-1.7 2.1-1.1 3.4.3.8 1 1 1.8 1.1 1.2.1 2.4.2 3.5.4 2.1.2 4.2.2 6.2 0 2.3-.2 4.6-.4 7-.4 1.2 0 2.4 0 3.6-.1 1.1-.1 2.3-.3 3.4-.5 2.3-.4 4.6-1 7-.9 1.2.1 2.5.3 3.8.4 1 .1 2.1 0 3 .6.7.5.7 1.4.5 2.1-.1.7-.5 1.5-1.1 1.9q.2.1.5.1c-.6-.8-.2-2 0-2.9.3-.9.7-2.1.3-3-.1-.2-.4-.4-.6-.3-.9.6-1.6 1.5-2.6 1.8-1.1.5-2.3.7-3.5 1-1.2.2-2.4.3-3.6.3-.8 0-2 .3-2.6-.3q0 .2.1.4c.1-.7 1.4-.9 2-1 .4 0 .8-.1 1.3-.2.6-.2 1.1-.5 1.7-.6 1.3-.4 2.5-.2 3.7-.1q.7.1 1.3.2c.3 0 .8.1 1 .3v-.3c-.2.8-.7 1.4-1 2.1-.3.8-.3 1.5-.3 2.3-.2 1.4-1.4 2.3-2.7 2.6-1.4.3-2.9.2-4.4.2-.8 0-1.6 0-2.4.1-.8.2-1.5.4-2.4.4-1.6.1-3.2-.6-4.9-.6-.8 0-1.6.1-2.4.1-.8 0-1.7-.1-2.5-.1-1.6-.1-3.2.4-4.8.6-1.3.1-2.7.3-3.9 1-.7.4-1.3 1-2 1.3-.9.4-1.9.4-2.8.7-.9.2-1.8.6-2.7.7q-1.5.2-3-.1l.2.2c-.1-.2 0-.3.3-.4.3-.2.7-.2 1.1-.2 1-.1 2.1-.1 3.1-.3 1.4-.2 2.6-.8 3.9-1.4.6-.3 1.3-.5 2-.8.6-.2 1.2-.7 1.9-.8.5-.1.3-.9-.2-.9z"/><path class="d" d="M132.2 191.2c.6-.5 1.7-1 2.4-.7q-.1-.2-.3-.3c.1.9.3 2.1-.7 2.4-.8.4-1.6-.6-2.3-.9-.5-.3-1.1-.3-1.6-.3-.4 0-.7 0-1-.1-.3 0-.6-.2-.9-.2-1.1-.4-2.4 0-3.5-.6l-.2.8c1.2 0 2.4-.3 3.4.4.5.3.9-.4.5-.7-1.2-.8-2.6-.5-3.9-.6-.4 0-.5.6-.2.8.6.4 1.3.5 2 .5s1.3 0 2 .3c.4.1.7.2 1.1.2.4.1.7 0 1.1 0 .6 0 1 .4 1.5.7 1 .6 2 .9 2.9.2 1-.8.8-2.1.6-3.1 0-.2-.1-.3-.3-.3-1-.4-2.3.3-3.1.9-.5.3.1.9.5.6z"/></svg>