<svg width="247" height="223" viewBox="0 0 247 223" fill="none" xmlns="http://www.w3.org/2000/svg"><g clip-path="url(#clip0_26_34470)" fill="#100F12"><path fill-rule="evenodd" clip-rule="evenodd" d="M109.3 83.8c.3-1 .5-2.1.7-3.1.6-.4 1.4.9 1.7-.5a2.74 2.74 0 01-.6-.1c0-.4.1-.8.3-1.3.333-.133.8-.3 1.4-.5-.3-.5-.6-.9-.9-1.4.5-1.3 1-2.6 1.4-4 .4 0 1.1-.1 1.1-.2.2-1.3 1.1-1.2 2.1-.8-.3-1.4-1.3-1.3-2.2-1.4.2-.8.367-1.6.5-2.4.2-.9.4-1.6 1.6-1.3.1 0 .3-.4.6-.8-.7 0-1.1.1-1.8.1.4-.8.1-1.5.6-2.2.5-.6.2-1.6.3-2.4.7-3.2 1-6.5 1.4-9.8.2-1.1.1-2.2.1-3.3-.1-1.8.4-3.7-.2-5.5-.1-.3.1-.7.2-1 .3-.4.3-.7 0-1.2-.5-1-.2-2 .6-2.9-1.1-.5-1.1-1.3-.4-3.2-.2-1-.4-1.7-.4-2.3.2-2.8.2-2.8.6-3.2-.2-.9-.3-1.7-.4-2.5-.1-.6.1-1.3-.1-1.9-.4-1-.3-1.7.6-2.2-1.1-1 .4-2.6-1.2-3.5.6-.2.8-.3 1-.3v-.4c-.5-.4-.6-.8-.6-1.5.1-1.3-.1-2.6 0-3.9.1-.8.3-1.5.1-2.3-.3-.7-.2-1.5-.3-2.3v-.6c.8-1.9.4-3.9.8-5.9 0-.5.2-.9.3-1.4h.5c.1.5.4 1 .5 1.5 1.933 7.867 4.3 15.6 7.1 23.2 2.6 7.2 5.4 14.4 8.6 21.5.8 1.6 1.3 3.4 2 5.1.5 1.1 1.1 2.3 1.8 3.2.5.7.4 1.1 0 1.7.9.6 1.6 1.3 1.5 2.4 0 .2.3.5.6.6.8.5.9 1.2.8 2.1 0 .6.1 1.4.5 1.9.8.9 1.1 2.2 2.2 2.9.2.1.2.5.4.7.2.4.2 1.1 1 1.1.1-.1.3.1.4.2.8 1.8 2.1 3.2 3 4.9.1.4-.7.9.1.9.9 0 .5.6.7 1 .1.3.2.7.4 1.1.2-.2.4-.4.7-.8 1.2 1.5 2.8 2.5 3.6 4.3.4.8 1.3 1.4 2 2.1.333.333.633.733.9 1.2.4.6.5 1.3 1.5 1.2.7 1.2 2.4 1.1 3.2 2.4.3.4 1 .6 1.5 1 .6.4 1.1.8 1.7 1.1.3.2.7.4 1.1.5.6.133 1.2.233 1.8.3.9.1 1.6.6 2.5.6.9 0 1.7.8 2.6 1.2a97.563 97.563 0 004 1.5c1.4.467 2.8.9 4.2 1.3 3.9 1.2 7.9 1.2 12 1.4 4.1.2 8.2.5 12.4.6 3.7.1 7.5-.2 11.2-.3 1.3 0 2.5-.1 3.8-.1.6.1 1.1.4 1.7.6-.3 1-.3 1.9 0 2.9.3.9 0 1.9 0 3-1.4.3-2.6.6-3.8 1a285.464 285.464 0 00-9.8 3.4c-4.2 1.6-8.5 3.2-12.5 5.5-3.3 1.8-6.5 3.8-9.7 5.9-3.1 2-6.1 4.1-8.9 6.4-2.1 1.8-3.7 4-5.5 6-.8.9-1.4 2-2.1 3.1-.3.6-.8.6-1.5.4 0 .4 0 .7.1 1.1-.9.6-1.8 1.3-2.3 2.4-.5.9-1.3 1.7-2.1 2.3-.7.7-1.2 1.5-2 2.2-.7.6-.9 1.8-1.5 2.7-1 1.3-1.4 3-2.8 3.9-.2.2-.2.7-.4 1-.4.8-.8 1.7-1.3 2.5-.7 1.5-1.4 3.1-2.2 4.6-.7 1.3-.8 3-2.1 3.9-.4 1.2-.7 2.3-1.1 3.4-.2.133-.433.233-.7.3v.5c0 .5.2 1.1 0 1.3-1 1.4-.6 3.1-1.3 4.5-.6 1.4-.8 3.1-1.3 4.6-.4.9-.8 1.7-1 2.6-.5 1.8-1 3.6-1.4 5.5-.6 3.2-1.3 6.4-1.9 9.6-.7 3.5-1.1 7-1.3 10.5-.3 5.5-.9 10.9-1.4 16.4-.1 1.2-.9 1.8-2.2 2l-.6-2.4c-1.7-6.5-3.3-13.1-5.2-19.7-2-6.8-4.2-13.5-6.4-20.2-1.2-3.6-2.6-7.1-3.9-10.7-1.5-4.1-3.8-7.8-6.3-11.4-2.6-3.9-5.4-7.6-8.7-10.9-3.2-3.2-6.6-6.1-10.8-7.8-2.1-.9-4.4-1.6-6.5-2.4-1.8-.6-3.6-1.5-5.5-2.1-1.7-.5-3.6-.9-5.4-.8-3.8.1-7.4-.6-11.1-1.4-2.6-.5-5.2-.9-7.9-.7-2.6.2-5.3.4-7.9.3-2.4 0-4.7-.4-7.1-.7-1.1-.1-1.9-2.3-1.1-3.2.5-.6 1.3-1 2-1.3 1.4-.4 2.8-.5 4.2-.8 10.8-2.2 20.6-6.5 29.4-13 3.4-2.5 6.3-5.4 9.5-8.1 1.8-1.5 3.7-3 5.6-4.4 1.1-.9 2.3-1.8 3.4-2.7 1.4-1.4 2.8-2.8 4.3-4.1.6-.6.4-1.8 1.5-2 .8-1.7 2.6-2.8 3.2-4.8.3-1 1.3-1.8 1.9-2.8zm8.3-35.4h.1c-.067 0-.1-.033-.1-.1v.1zm.8 1.2c.6-1.1.6-1.1-.7-1.2.2.4.433.8.7 1.2zM111 85.8c-.4.3-.7.4-1 .6.067.133.133.233.2.3.5-.1 1.1-.2 1.8-.4-.6-1.2-1-2.3-1.5-3.4-.4.333-.767.633-1.1.9l1.6 2zm.2 1.9c-.7-1-1.2-.3-1.6 0-.667.533-.567 1.3.3 2.3-.1-.6-.2-1-.2-1.4.5-.3.9-.6 1.5-.9zm.7-4.8c-.6 1.3.4 1.1.8 1.5.1-.1.1-.2.3-.4l-1.1-1.1zm63.3 23.2c-.3.2-.6.3-.9.5 0 .1 0 .3-.1.5.4 0 .7 0 1.1-.1-.1-.3-.1-.6-.1-.9zm-61.4-31.5c.067.067.167.133.3.2.1-.2.2-.3.3-.5.1-.2.1-.4.1-.6-.133-.067-.233-.1-.3-.1l-.4 1zm2.7-1.1c.067 0 .133-.033.2-.1 0-.2 0-.5-.1-.7 0 0-.4.1-.7.1.3.3.4.5.6.7zM105.7 95c.067.067.167.133.3.2.067-.2.167-.4.3-.6l-.1-.1c-.133.2-.3.367-.5.5zm1.7-2.7a.883.883 0 00-.1-.4 9.56 9.56 0 01-.7.2v.2h.8z"/><path d="M1.7 71.3c-.5.1-1 .1-1.7.1 0-3.4.4-6.7 1.6-10h1.1c-.6-1.3-.5-1.5.5-2.3 2.4-1.8 5-3.2 7.8-4.2 1.8-.6 3.6-1.5 5.6-1.3 1.3.1 2.6-.3 3.9.1.6.2 1.4 0 2 .1 1 .3 2.2 0 3.1 1 .3.4 1.1.4 1.7.6-.1.2-.1.4-.1.8 1-.7 1.7.1 2 .6.5 1 2.1 1 1.8 2.3.5.4 1.2.7 1.3 1.1.4 1.6 1.5 2.9 1.7 4.5.4 2.6.7 5.3-1.2 7.6-.1.1-.3.3-.3.4.1 1.3-.9 1.8-1.7 2.5-.5.4-1 .9-1.4 1.5-.7 1-2.1.8-2.8 1.9-.6.9-1.6 1.5-3 1.6-.9 0-1.9.4-2.7 1-1.5 1.1-3.2 1-5 1.2-.5 0-1.1.3-1.7.2-1.1 0-2.2-.1-3.3-.3-.8-.1-1.7-.3-2.6-.4-.9 0-1-.4-.8-1.2-1.5-.5-2.4-1.4-2.6-3.1-.1-1.3-.8-2.5-2.2-3.1-.8-.3-1.5-1-2.3-1.5.6-.5 1-.8 1.5-1.2a3.884 3.884 0 01-.2-.5zm223.5 91.2c-.7-2 .4-3.6 1.8-5.2 3.1-3.5 7.1-4.2 11.4-3.4 1.7.3 3.2 1 4.6 2.2 1.3 1.2 1.5 2.9 2.2 4.3.1.2 0 .6.1.8.9 1.5 1 3 .9 4.7 0 .4.3.8-.3 1.1-.1.1 0 .6-.1.9 0 .3 0 .8-.2.9-1.6 1.5-2.2 3.9-4.6 4.6-.6 1.7-2.6 1.2-3.6 2.3-.2.2-.7.1-1 .2-1 0-2 .2-2.9.1-.6 0-1.4 0-1.7-.9-.1-.3-.6-.5-.9-.7-1.9-.9-3.3-2-3.5-4.3 0-.2-.1-.6-.3-.7-1.8-1.4-1.5-3.4-1.8-5.3-.1-.4-.1-.9-.1-1.6z"/></g><defs><clipPath id="clip0_26_34470"><path fill="#fff" transform="translate(0 .5)" d="M0 0h247v222H0z"/></clipPath></defs></svg>