<svg width="193" height="216" viewBox="0 0 193 216" fill="none" xmlns="http://www.w3.org/2000/svg"><g clip-path="url(#clip0_26_34468)"><path fill-rule="evenodd" clip-rule="evenodd" d="M55.3 109.9c-1.1-.2-2-.3-2.7-.6-5.5-2.9-10.9-5.9-16.4-8.6a81.537 81.537 0 00-21.1-6.9C10.3 92.9 5.5 91.9.9 91c-1.1-1.5.8-2.7-.2-4 1.3-.9 2.5-.7 3.8-.5 2.2.5 4.5 1 6.7 1.5 3.8.8 7.6 1 11.4.7 6.3-.5 12.6-1 18.9-1.8 4.6-.6 9.1-1.7 13.3-3.9 2-1 4.1-1.6 6.1-2.6 1.4-.8 2.7-1.8 4.1-2.6 5.6-3.1 10.8-6.7 15.4-11.3C86 61 90.3 54.5 95 48.3c5.3-7.1 7.7-15.4 9.7-23.8 1.6-7 3.6-13.9 4.3-21.1.1-.9.5-1.7.8-2.6.533 0 1.067-.033 1.6-.1.1.3.3.6.3.8-.2 2.6-.5 5.2-.5 7.8 0 5.6.1 11.2.1 16.8 0 6.4.1 12.8.1 19.3-.1 6.1 1 11.9 3.4 17.5.5 1.2.9 2.5 1.1 3.8.6 3.8 2.4 7 5 9.8 2.2 2.3 4.1 4.7 6.3 7 2.7 3 6.1 5.1 9.6 6.9 3 1.533 5.9 3.167 8.7 4.9 3.8 2.3 8 3.6 12.3 4.7 3.9.9 7.9 1.8 11.8 2.9 4.1 1.1 8.2 1.4 12.3 1.8 3.3.4 6.6.8 10.4 1.2-.6.6-.9 1.1-1.1 1.1-7.8.2-15.7.3-23.4.7-4.3.3-8.5.9-12.6 1.7-4.9.9-9.8 2-14.5 3.3-5.2 1.4-10.3 3.2-15.3 5-4.9 1.7-8.9 4.8-12.9 8.2-3.3 3-4.9 7.1-7.5 10.5-3.6 4.6-5.3 10.2-6.8 15.8-2.5 9.5-5 19.1-7.1 28.7-2.1 9.8-3.7 19.7-4.4 29.7-.1 1.2-.6 2.3-1 3.5-.2.3-.7.6-1 .8-.9-.7-1.7-1.4-2.4-2.1-1-.8-1.2-1.9-1.1-3.1.2-6.9.6-13.8.8-20.7.1-5.1.4-10.3.1-15.4-.4-6.1-1.2-12.2-2.2-18.2-.6-3.7-1.9-7.4-3-11-1.3-4.6-3.5-8.8-5.2-13.1-1-2.6-2.8-4.8-3.6-7.4-.2-.4-.7-.6-1-.9-.3-.3-.7-.5-.9-.8-1.5-4-5.3-6-7.6-9.4-.2-.3-.8-.4-1.2-.6-1-.6-2.2-1-2.1-2.3zm8.6-29.4c.9.3 1.7.4 1.9-1.2-.8.5-1.3.8-1.9 1.2z" fill="#100F12"/></g><defs><clipPath id="clip0_26_34468"><path fill="#fff" transform="translate(0 .5)" d="M0 0h193v215H0z"/></clipPath></defs></svg>