<svg width="69" height="95" viewBox="0 0 69 95" fill="none" xmlns="http://www.w3.org/2000/svg"><g clip-path="url(#clip0_26_34474)"><path d="M5.2.7c2.5.9 3.8 2.8 5.3 4.6 4.8 5.6 9.4 11.3 14.2 16.8 2 2.4 4.2 4.5 6.4 6.7 1 .9 1.8 1.8 2.1 3.1.5 2.2 2.2 3.4 3.7 4.6 2.6-.4 5-1 7.5-1.2 6.4-.7 11.8-3.4 17.1-6.9l4.8-3.2c.8 1.2 1.5 2.1 2.1 3 1 1.5.8 2.7-.4 3.9-5.5 5.1-10 10.9-13.7 17.3-.3.6-.5 1.2-.7 1.8-.6 1.7-1 3.3-2.1 4.8-1.2 1.7-1.2 4-.9 6.1.6 5.7 3.6 10.4 6.4 15.2 2.1 3.6 4.2 7.3 6.3 11 .9 1.7 1.3 3.4.4 5.4-3-3-6-5.9-8.9-8.9-2.9-3-5.6-6.2-8.6-9.1-2.2-2.2-4.6-4.1-6.9-6.2-.6-.6-1.4-1.1-1.9-1.8-1.1-1.5-2.4-2.3-4.4-1.7-1.1.3-2.3.3-3.5.3-4.1 0-7.6 1.8-11.2 3.3-5.1 2.2-10.1 4.6-15.1 6.9-1.7.8-2.8.2-2.9-1.7-.1-1.3.4-2.2 1.3-3 2.7-2.5 5.3-5.1 8-7.6 3.6-3.4 6.4-7.3 8.4-11.9.6-1.5 1.8-2.9 2.3-4.4 2-5.2 1.5-10.5.2-15.7-.5-1.9-1.1-3.9-1.8-5.8-.8-2.6-1.8-5.2-2.7-7.9-1.2-3.6-3.6-6.5-5.6-9.6C9 6.5 7.3 4.3 5.8 2c-.3-.4-.4-.9-.6-1.3z" fill="#100F12"/></g><defs><clipPath id="clip0_26_34474"><path fill="#fff" transform="translate(0 .5)" d="M0 0h69v94H0z"/></clipPath></defs></svg>