<svg width="40" height="40" viewBox="0 0 40 40" fill="none" xmlns="http://www.w3.org/2000/svg"><g clip-path="url(#clip0_96_25)"><path d="M4.976 31.88c-1.803.005-3.463-.996-4.354-2.623a5.16 5.16 0 01.14-5.155L9.723 9.5c.932-1.598 2.63-2.552 4.428-2.497 1.798.043 3.437 1.09 4.283 2.735a5.168 5.168 0 01-.267 5.15L9.202 29.5c-.924 1.491-2.518 2.39-4.226 2.382v-.002z" fill="#F62B54"/><path d="M20.352 31.88a4.952 4.952 0 01-4.345-2.614 5.157 5.157 0 01.135-5.142l8.945-14.57c.92-1.619 2.617-2.594 4.428-2.547 1.823.038 3.474 1.1 4.312 2.752a5.139 5.139 0 01-.324 5.171L24.558 29.5c-.916 1.49-2.506 2.386-4.206 2.38z" fill="#FC0"/><path d="M35.384 32C37.934 32 40 29.906 40 27.316c0-2.586-2.066-4.686-4.616-4.686s-4.617 2.096-4.617 4.686S32.834 32 35.384 32z" fill="#00CA72"/></g><defs><clipPath id="clip0_96_25"><path fill="#fff" d="M0 0h40v40H0z"/></clipPath></defs></svg>