<svg width="40" height="40" viewBox="0 0 40 40" fill="none" xmlns="http://www.w3.org/2000/svg"><g clip-path="url(#clip0_96_31)"><path d="M8.4 25.28a4.2 4.2 0 11-4.2-4.21h4.2v4.21zm2.12 0a4.21 4.21 0 118.41 0V35.8a4.21 4.21 0 01-8.41 0V25.28z" fill="#E01E5A"/><path d="M14.72 8.4a4.2 4.2 0 114.21-4.2v4.2h-4.21zm0 2.12a4.21 4.21 0 110 8.41H4.2a4.21 4.21 0 010-8.41h10.52z" fill="#36C5F0"/><path d="M31.6 14.72a4.2 4.2 0 114.2 4.21h-4.2v-4.21zm-2.12 0a4.211 4.211 0 11-8.41 0V4.2a4.21 4.21 0 018.41 0v10.52z" fill="#2EB67D"/><path d="M25.28 31.6a4.2 4.2 0 11-4.21 4.2v-4.2h4.21zm0-2.12a4.21 4.21 0 110-8.41H35.8a4.21 4.21 0 010 8.41H25.28z" fill="#ECB22E"/></g><defs><clipPath id="clip0_96_31"><path fill="#fff" d="M0 0h40v40H0z"/></clipPath></defs></svg>