<svg width="40" height="40" viewBox="0 0 40 40" fill="none" xmlns="http://www.w3.org/2000/svg"><g clip-path="url(#clip0_96_7)"><mask id="a" style="mask-type:luminance" maskUnits="userSpaceOnUse" x="0" y="0" width="40" height="40"><path d="M0 0h40v40H0V0z" fill="#fff"/></mask><g mask="url(#a)"><path d="M35.2 0H4.8A4.8 4.8 0 000 4.8v30.4A4.8 4.8 0 004.8 40h30.4a4.8 4.8 0 004.8-4.8V4.8A4.8 4.8 0 0035.2 0z" fill="#FF4F00"/><path d="M6.028 32.54l-.006-.019L9.63 29.22v-1.59H3.843v1.59h3.456l.006.015-3.572 3.305v1.59h5.954v-1.59h-3.66zm7.212-5.063c-.668 0-1.212.1-1.633.302a2.146 2.146 0 00-.946.83 3.02 3.02 0 00-.398 1.2l1.756.246c.063-.374.19-.639.38-.795.218-.163.484-.246.756-.233.356 0 .614.095.775.285.159.19.24.455.24.802v.174h-1.688c-.86 0-1.477.19-1.852.571-.375.381-.563.884-.562 1.51 0 .64.187 1.116.562 1.428.375.313.846.468 1.414.466.704 0 1.246-.242 1.625-.727a2.7 2.7 0 00.47-1h.063l.242 1.59h1.59v-4.029c0-.832-.22-1.477-.657-1.934-.44-.458-1.15-.686-2.137-.686zm.556 4.965c-.253.211-.583.316-.995.316-.34 0-.575-.06-.707-.178a.58.58 0 01-.2-.453.594.594 0 01.166-.439.614.614 0 01.452-.165h1.66v.11a1.011 1.011 0 01-.376.81zm11.859-4.813h-1.88v6.502h1.88V27.63zm11.097 0c-.531 0-.95.187-1.256.561-.22.27-.387.667-.5 1.194h-.056l-.246-1.756H33.09v6.502h1.88v-3.334c0-.42.098-.743.295-.967.197-.224.56-.337 1.09-.337h.713V27.63h-.316zm-5.528.212c-.44-.26-.993-.39-1.66-.39-1.052 0-1.875.3-2.47.897-.595.6-.892 1.425-.892 2.477a3.946 3.946 0 00.405 1.838c.258.508.658.93 1.153 1.214.498.288 1.09.432 1.776.433.594 0 1.09-.092 1.488-.275.375-.164.7-.42.947-.747.235-.32.41-.68.515-1.063l-1.62-.454a1.5 1.5 0 01-.38.66c-.184.182-.49.274-.92.274-.511 0-.892-.147-1.143-.44-.182-.21-.296-.513-.347-.904h4.434c.019-.183.028-.337.028-.46v-.405a3.61 3.61 0 00-.33-1.578 2.47 2.47 0 00-.985-1.077zM29.509 29c.762 0 1.194.375 1.296 1.125H28.11c.043-.25.147-.486.302-.687.247-.293.612-.439 1.097-.438zm-4.773-3.99a1.058 1.058 0 00-.77.294 1.019 1.019 0 00-.301.762 1.035 1.035 0 001.07 1.07 1.017 1.017 0 001.057-1.07 1.012 1.012 0 00-1.055-1.056h-.001zm-3.883 2.441c-.64 0-1.154.201-1.543.603-.288.298-.5.743-.633 1.334h-.06l-.246-1.756h-1.605V36h1.88v-3.447h.068c.057.23.138.453.24.667.159.348.42.64.748.837.34.185.723.277 1.11.267.787 0 1.386-.306 1.798-.92.41-.612.617-1.467.617-2.564 0-1.06-.2-1.89-.597-2.49-.398-.6-.99-.899-1.777-.899zm.19 4.712c-.218.317-.561.476-1.028.476a1.214 1.214 0 01-1.008-.46c-.243-.306-.364-.724-.364-1.255V30.8c0-.54.122-.952.364-1.239.243-.286.579-.428 1.008-.425.475 0 .82.151 1.035.453.216.301.323.722.323 1.262.002.558-.108.995-.327 1.31h-.002l-.001.001z" fill="#FFFDF9"/></g></g><defs><clipPath id="clip0_96_7"><path fill="#fff" d="M0 0h40v40H0z"/></clipPath></defs></svg>