<svg width="40" height="40" viewBox="0 0 40 40" fill="none" xmlns="http://www.w3.org/2000/svg"><g clip-path="url(#clip0_96_14)"><path d="M16.7 9a7 7 0 015.09-2.19A7.15 7.15 0 0128 10.49a8.59 8.59 0 013.5-.74 8.73 8.73 0 010 17.45 8.846 8.846 0 01-1.73-.2 6.31 6.31 0 01-8.28 2.6 7.22 7.22 0 01-13.41-.3c-.454.093-.917.14-1.38.14A6.78 6.78 0 013.36 16.8 7.79 7.79 0 0116.7 9z" fill="#179FDA"/><path fill-rule="evenodd" clip-rule="evenodd" d="M23.91 15.83l-.22-.06h-.34a1.34 1.34 0 00-1 .36 1.9 1.9 0 00-.47 1.05v.16h-.5a.09.09 0 00-.08.06l-.08.47c0 .05 0 .08.08.08h.51l-.52 2.91c-.033.193-.08.384-.14.57a1.26 1.26 0 01-.16.33.43.43 0 01-.21.17.9.9 0 01-.28 0 .6.6 0 01-.19 0h-.12a.07.07 0 00-.09 0l-.18.47a.07.07 0 000 .09l.21.06c.11.015.22.015.33 0 .2-.007.4-.044.59-.11.164-.067.31-.17.43-.3.13-.154.232-.33.3-.52.09-.25.16-.508.21-.77l.52-3h.77a.08.08 0 00.09-.06l.08-.46c0-.05 0-.08-.07-.08h-.76c.02-.177.06-.352.12-.52a.6.6 0 01.16-.25.41.41 0 01.2-.12.752.752 0 01.26 0h.42L24 16a.07.07 0 000-.08l-.09-.09zm-10.38 5.03a.09.09 0 01-.06.07h-.63a.07.07 0 01-.06-.07v-5s0-.07.06-.07h.62a.07.07 0 01.07.06v5.01zm-7.72-.35v.08c.07.056.148.103.23.14.368.2.781.3 1.2.29.82 0 1.32-.44 1.32-1.15 0-.66-.57-.89-1.12-1.05h-.07l-.05-.018c-.38-.132-.7-.244-.7-.502a.46.46 0 01.49-.4c.349.015.69.107 1 .27a.09.09 0 00.1 0l.17-.47a.08.08 0 000-.11 2.33 2.33 0 00-1.18-.33h-.01a1.16 1.16 0 00-1.28 1 .38.38 0 010 .1c0 .68.59.91 1.13 1.06l.1.06.019.006c.382.117.71.22.71.494a.5.5 0 01-.52.47h-.07a1.9 1.9 0 01-1.06-.31L6.1 20a.07.07 0 00-.076-.016A.069.069 0 006 20l-.19.51zm12.05 0a.06.06 0 000 .08c.072.054.15.1.23.14.373.193.79.286 1.21.27.82 0 1.32-.44 1.32-1.15 0-.66-.58-.89-1.12-1.05h-.07l-.04-.014c-.393-.134-.72-.245-.72-.506a.48.48 0 01.51-.43c.349.007.691.096 1 .26a.071.071 0 00.077.016.07.07 0 00.023-.016l.17-.47a.09.09 0 000-.09 2.36 2.36 0 00-1.18-.33h-.08a1.15 1.15 0 00-1.27 1 .335.335 0 000 .1c0 .69.58.91 1.12 1.06h.09l.03.01c.378.115.71.217.71.49a.49.49 0 01-.52.47h-.05a1.94 1.94 0 01-1-.33l-.13-.1a.07.07 0 00-.05-.02.07.07 0 00-.05.02l-.21.59zm8.23-1.38a1.72 1.72 0 01-.22.94.76.76 0 01-.66.33.74.74 0 01-.67-.33 1.71 1.71 0 01-.21-.94 1.708 1.708 0 01.21-.94.74.74 0 01.67-.33.76.76 0 01.66.33c.162.286.238.612.22.94zm.69-.74a1.59 1.59 0 00-.32-.6 1.45 1.45 0 00-.52-.4 1.9 1.9 0 00-1.48 0 1.58 1.58 0 00-.53.4 1.717 1.717 0 00-.31.6 2.82 2.82 0 000 1.47 1.52 1.52 0 00.84 1 2 2 0 001.48 0 1.45 1.45 0 00.52-.4c.144-.176.25-.38.31-.6.14-.48.14-.99 0-1.47h.01zm5.63 1.89a.07.07 0 00-.08 0c-.107.04-.218.07-.33.09h-.38a1.001 1.001 0 01-.79-.29 1.34 1.34 0 01-.29-.94 1.38 1.38 0 01.26-.9.9.9 0 01.76-.34c.248-.003.494.034.73.11a.06.06 0 00.07 0l.023-.06c.05-.134.095-.253.147-.41a.07.07 0 000-.08 2.65 2.65 0 00-.53-.16 2.99 2.99 0 00-.52 0c-.26-.009-.52.039-.76.14a1.72 1.72 0 00-.56.41c-.15.172-.263.373-.33.59-.072.24-.109.49-.11.74a2 2 0 00.47 1.37 1.71 1.71 0 001.35.51c.34.002.679-.055 1-.17a.07.07 0 000-.08l-.13-.53zm1.21-1.53c.017-.196.083-.385.19-.55a.728.728 0 01.66-.33.7.7 0 01.66.33c.098.167.153.356.16.55h-1.67zm2.38-.47a1.37 1.37 0 00-.3-.54 1.34 1.34 0 00-.44-.34 1.7 1.7 0 00-.67-.13 1.67 1.67 0 00-.76.15 1.518 1.518 0 00-.54.4 1.608 1.608 0 00-.31.61c-.072.24-.109.49-.11.74a2.8 2.8 0 00.11.75 1.48 1.48 0 00.94 1c.268.101.554.15.84.14a2.35 2.35 0 001.17-.24v-.11l-.15-.42a.07.07 0 00-.08-.05 2.11 2.11 0 01-.93.18 1 1 0 01-1.08-.78 1.392 1.392 0 010-.29H36a.07.07 0 00.07-.06 2.54 2.54 0 00-.07-1v-.01zm-21 .47c.019-.194.08-.382.18-.55a.74.74 0 01.67-.33.71.71 0 01.66.33c.098.167.153.356.16.55H15zm2.34-.47a1.5 1.5 0 00-.3-.54 1.579 1.579 0 00-.44-.34 1.72 1.72 0 00-.67-.15 1.67 1.67 0 00-.76.15c-.212.09-.397.23-.54.41-.147.176-.256.38-.32.6a2.64 2.64 0 00-.1.74c-.004.254.033.508.11.75a1.48 1.48 0 00.93 1c.272.1.56.148.85.14.403.02.804-.06 1.17-.23v-.12l-.18-.44a.05.05 0 00-.04-.02.05.05 0 00-.04.02c-.299.12-.619.179-.94.17a.94.94 0 01-1.07-.83.816.816 0 010-.27h2.34a.06.06 0 00.06-.06 2.42 2.42 0 00-.07-1l.01.02zM10 20.27a.623.623 0 01-.14-.14.66.66 0 01-.07-.3.5.5 0 01.21-.47c.198-.13.434-.19.67-.17.21-.015.42-.015.63 0v1.11a4.525 4.525 0 01-.63.08 1 1 0 01-.68-.13l.01.02zm.92-1.66h-.36a2.175 2.175 0 00-.57.08 1.56 1.56 0 00-.47.22 1.11 1.11 0 00-.47.94 1.23 1.23 0 00.11.53c.07.142.173.266.3.36.128.115.278.203.44.26.204.04.412.06.62.06a4.1 4.1 0 00.7-.06l.59-.11h.16a.09.09 0 00.06-.08v-2.23a1.35 1.35 0 00-.37-1 1.66 1.66 0 00-1.07-.33c-.208 0-.416.02-.62.06a2 2 0 00-.72.26.07.07 0 000 .09l.16.44a.07.07 0 00.08 0 2.379 2.379 0 011-.23.84.84 0 01.57.15.58.58 0 01.15.55v.1l-.38-.05.09-.01zm18.73-1.17a.07.07 0 000-.09 1.755 1.755 0 00-.39-.06 1.099 1.099 0 00-.6.09 1.178 1.178 0 00-.4.29v-.28s0-.06-.06-.07h-.61a.07.07 0 00-.06.07v3.47a.08.08 0 00.07.07h.61a.08.08 0 00.07-.07v-1.74a1.999 1.999 0 01.07-.6.899.899 0 01.2-.34c.08-.08.18-.14.29-.17.106-.015.214-.015.32 0 .083-.01.167-.01.25 0a.1.1 0 00.09-.06l.18-.47-.03-.04zm-19.118 7.648a.471.471 0 01-.128-.152.926.926 0 00.443-.163.84.84 0 00.28-.349 1.17 1.17 0 00.099-.49c0-.199-.038-.375-.115-.527a.824.824 0 00-.332-.354 1.008 1.008 0 00-.52-.128c-.2 0-.374.043-.52.128a.823.823 0 00-.331.354 1.165 1.165 0 00-.114.528c0 .187.033.353.1.5a.854.854 0 00.294.351c.13.087.286.138.466.153a.8.8 0 00.176.261.665.665 0 00.286.15c.12.034.275.051.465.051v-.198c-.143 0-.258-.01-.345-.03a.496.496 0 01-.204-.085zm-.808-.57c-.124-.146-.185-.34-.185-.583 0-.243.06-.438.185-.583.123-.145.302-.217.536-.217.234 0 .412.072.533.217.123.145.185.34.185.583 0 .243-.062.437-.185.582-.121.145-.3.218-.533.218-.234 0-.413-.073-.536-.218zm-.63-.92a.623.623 0 01-.095.35.59.59 0 01-.253.212.796.796 0 01-.335.071h-.414v.667h-.242V22.97h.65c.202 0 .367.051.496.153.129.101.193.261.193.474zm-1.1-.433v.87h.395a.481.481 0 00.324-.11c.089-.076.133-.184.133-.325 0-.152-.044-.263-.133-.332a.514.514 0 00-.33-.103h-.39zm-.717.15l.14-.156a.824.824 0 00-.29-.174 1.033 1.033 0 00-.362-.063 1 1 0 00-.52.128.811.811 0 00-.326.354 1.214 1.214 0 00-.11.528c0 .2.037.375.11.528.07.148.183.272.324.356a.994.994 0 00.517.128c.14 0 .268-.023.386-.07a.917.917 0 00.305-.2l-.147-.16a.766.766 0 01-.536.218c-.232 0-.408-.073-.528-.22-.12-.147-.18-.34-.18-.58 0-.24.06-.435.18-.582.12-.147.298-.22.533-.22a.754.754 0 01.504.184v.001z" fill="#fff"/></g><defs><clipPath id="clip0_96_14"><path fill="#fff" d="M0 0h40v40H0z"/></clipPath></defs></svg>