<svg width="40" height="40" viewBox="0 0 40 40" fill="none" xmlns="http://www.w3.org/2000/svg"><g clip-path="url(#clip0_96_23)"><path d="M30.25 13.16V8.4a3.67 3.67 0 002.11-3.3V5a3.67 3.67 0 00-3.66-3.67h-.11A3.66 3.66 0 0024.93 5v.1A3.63 3.63 0 0027 8.4v4.76a10.42 10.42 0 00-4.94 2.18L9 5.17a4.58 4.58 0 00.15-1A4.14 4.14 0 105 8.26a4.05 4.05 0 002-.55l12.85 10a10.43 10.43 0 00.17 11.75l-3.92 3.91a3.175 3.175 0 00-1-.16 3.4 3.4 0 103.4 3.39 3.64 3.64 0 00-.16-1l3.87-3.87a10.432 10.432 0 0016.74-8.834 10.429 10.429 0 00-8.81-9.766m-1.5 15.69a5.35 5.35 0 11.02-10.701 5.35 5.35 0 01-.02 10.701z" fill="#FF7A59"/></g><defs><clipPath id="clip0_96_23"><path fill="#fff" d="M0 0h40v40H0z"/></clipPath></defs></svg>