<svg width="40" height="40" viewBox="0 0 40 40" fill="none" xmlns="http://www.w3.org/2000/svg"><path d="M28.593 20.459l1.272-7.745c.367-2.361 0-3.97-1.265-5.421C27.216 5.683 24.708 5 21.505 5h-9.302c-.317 0-.624.114-.866.323a1.357 1.357 0 00-.451.816L7.009 31.066a.824.824 0 00.185.652.8.8 0 00.608.282h6.489s14.743-11.306 14.302-11.541z" fill="#253B80"/><path d="M30.37 13c0 .177-.062.354-.101.538-1.275 6.208-5.634 8.353-11.198 8.353h-2.837a1.413 1.413 0 00-.897.313c-.25.203-.414.485-.463.793l-1.453 8.73-.412 2.477a.651.651 0 00.163.555.723.723 0 00.248.178.757.757 0 00.304.063h5.028c.288 0 .567-.097.786-.274.22-.177.365-.422.41-.692l.055-.243.94-5.7.063-.316a1.14 1.14 0 01.41-.692c.22-.177.499-.274.787-.274h.777c4.872 0 8.68-1.88 9.799-7.306.466-2.271.225-4.166-1.01-5.493a4.706 4.706 0 00-1.4-1.01z" fill="#179BD7"/><path d="M28.706 12.438a10.82 10.82 0 00-.58-.149l-.616-.118a16.317 16.317 0 00-2.422-.17H17.76a1.17 1.17 0 00-1.159.98l-1.557 9.737L15 23a1.3 1.3 0 01.448-.798c.242-.205.55-.316.868-.315h2.746c5.386 0 9.607-2.158 10.84-8.403.038-.186.068-.364.098-.542a6.587 6.587 0 00-1.015-.423l-.279-.081z" fill="#222D65"/></svg>