<svg width="40" height="40" viewBox="0 0 40 40" fill="none" xmlns="http://www.w3.org/2000/svg"><rect width="40" height="40" rx="5" fill="#fff"/><path d="M32.823 19.519c.068-1.115.366-1.621.944-1.621s.85.531.85 1.62h-1.794zm4.173.658a4.74 4.74 0 00-.85-2.896 2.837 2.837 0 00-2.388-1.055c-2.116 0-3.4 1.553-3.4 4.044a4.196 4.196 0 001.055 3.108 3.677 3.677 0 002.668.895 5.067 5.067 0 002.669-.65l-.28-1.69a4.332 4.332 0 01-2.125.507 1.52 1.52 0 01-1.054-.304 1.536 1.536 0 01-.46-1.089h4.165v-.87zm-9.96 1.69a.972.972 0 01-.85.582 1.504 1.504 0 01-.672-.152v-3.699a1.318 1.318 0 01.944-.49c.629 0 .943.676.943 2.002a3.56 3.56 0 01-.34 1.748l-.026.008zm2.073-4.78a2.182 2.182 0 00-1.836-.845 2.608 2.608 0 00-1.946.93l-.136-.778h-2.184V27l2.49-.405V24.06c.365.118.747.178 1.13.178a2.966 2.966 0 002.227-.861A4.817 4.817 0 0029.866 20a4.764 4.764 0 00-.757-2.947v.034zm-9.587-.701h2.508v7.752h-2.5v-7.769l-.008.017zm1.25-.768a1.323 1.323 0 001.224-.804 1.302 1.302 0 00-.284-1.43 1.32 1.32 0 00-2.25.933c0 .345.139.676.384.92.246.244.578.38.926.38zm-2.33.667a1.494 1.494 0 00-.917.26 1.479 1.479 0 00-.57.761l-.144-.92h-2.167v7.752h2.49V19.07a1.589 1.589 0 011.351-.515c.147-.017.296-.017.442 0v-2.23c-.152-.04-.31-.06-.467-.058l-.017.017zm-4.759 1.925l.298-1.832h-1.632v-2.23l-2.133.347-.306 1.883-.757.118-.28 1.689h1.062v3.597a2.383 2.383 0 00.714 2.01 2.87 2.87 0 001.836.48c.443.01.885-.05 1.309-.177v-1.942a3.571 3.571 0 01-.723.11c-.492 0-.705-.253-.705-.844V18.2l1.317.009zm-7.13 1.08c-.731-.278-1.13-.48-1.13-.802 0-.32.237-.439.645-.439.71.035 1.404.226 2.031.558l.306-1.841a5.733 5.733 0 00-2.481-.532 3.185 3.185 0 00-2.049.625 2.248 2.248 0 00-.79 1.798c0 1.351.85 1.934 2.184 2.424.85.304 1.165.532 1.165.844 0 .313-.28.515-.79.515a5.534 5.534 0 01-2.355-.709L3 23.614c.864.436 1.82.661 2.788.659a3.416 3.416 0 002.141-.608 2.316 2.316 0 00.85-1.917c0-1.393-.85-1.968-2.226-2.457z" fill="#000"/></svg>