<svg version="1.2" xmlns="http://www.w3.org/2000/svg" viewBox="0 0 224 226" width="224" height="226"><style>.d{fill:#222221}</style><path d="M65 138.8s70.7 14.4 85.8 4c-.5 31.1-7 69.1-7 69.1l-14.6 2.8-14-47.2s-.5-11.5-14 1.2c-13.5 12.6-41.1 23-45.9 19.5-4.9-3.4-11.9-19.5-11.9-19.5s22.1 4 21.6-29.9z" fill="#0fa6a6"/><path d="M14.3 95.8l20.5-8.7s-5.9-8.7 1.1-10.4c7-1.7 29.7-6.9 29.7-6.9l-.1 68.4s81.6 12.8 86.4 3.5c4.9-9.3 6-58 6-58s23.7 11.6 32.9 7c9.2-4.7 22.7-16.2 28.1-25.5-8.6-6.4-16.2-15.1-16.2-18.6 0-3.5-11.3 24.4-29.7 11-18.3-13.3-34-27.2-46.9-31.3-13-4.1-45.9-9.3-72.9 2.9-27 12.1-64.8 22-38.9 66.6z" fill="#afe8d9"/><path d="M105 22.2s-2.7-8.7 3.2-11.6c6-2.9 15.2-2.3 15.2-2.3s4.8 17.4 2.7 18c-2.2.6-21.1-4.1-21.1-4.1zM11.6 97s12.4-8.7 16.2-8.7c3.8 0 13.5 16.8 13.5 16.8l-4.9 1.2.5 4-2.1.6-.6 2.3S19.1 110.3 11.6 97zm187.3-52.7s13 23.2 16.2 19.1c3.2-4 8.1-15.6 8.1-15.6h-6.5l4.9-4.7h-3.2l1.6-2.8-3.8-.6 2.7-4.1s-5.4 0-8.1 1.2c-2.7 1.1-5.4.5-11.9 7.5z" fill="#fff"/><path class="d" d="M154.4 68.9c.4 8.2-.6 16.3-1.2 24.4q-.2 3.1-.2 6.2c-.1 1 0 2-.2 2.9q-.2 1.7-.4 3.3-.7 6.2-1.4 12.3c-1.8 16.5-3.5 33.1-5.3 49.7q-1.3 12.5-2.7 25-.7 6.3-1.4 12.5c-.2 1.9-.6 3.7-.3 5.6.2 1.6 1 3.2 2.1 4.3 1.1 1.2 2.5 2 3.8 2.9.7.4 1.3.9 1.8 1.6.5.9.2 1.4-.4 2.2-1.8 2.1-4.6 2.4-7.1 2.2-1.4-.1-2.7-.3-4-.5q-1-.1-1.9-.2c-.7-.1-1.3-.4-1.9-.7-.7-.4-1.5-.6-2.1-1.2-.7-.5-1.2-1.2-1.7-1.9-.9-1.3-1.6-2.8-2.2-4.3-.8-1.7-1.2-3.6-1.8-5.4-.7-2-1.2-3.9-1.9-5.9q-2.1-5.7-4.2-11.5c-2.9-7.6-5.7-15.1-8.3-22.8-.8-2.5-1.5-6.6-4-7.9-1.1-.5-2.6-.4-3.6.3-1.2.7-2 2.1-2.7 3.4-1.8 3-4 5.7-6.7 7.9-1.5 1.2-3.1 2.3-4.7 3.5-1.5 1.2-3 2.3-4.7 3.2-3.2 1.9-6.6 3.7-10.2 4.8-3.6 1.1-7.3 1.6-11.1 1.9-3.8.3-7.6.4-11.4.8-1.3.1-2.6.3-3.7 1.2-.8.7-1.4 1.7-1.7 2.8-.5 1.3-.6 2.5-1 3.8-.2.7-.8.8-1.4.5-.9-.4-1.3-1.5-1.8-2.3-1.8-3.1-3.3-6.4-4.2-9.9-.9-3.5-1.3-7.2-1.2-10.8.1-2 2.6-2.5 4-3 1.7-.6 3.3-1.1 5-1.7 3.1-1.1 6.3-2.5 9-4.7 2.3-2 4.2-4.7 5.2-7.7 1.2-3.3 1.2-6.6 1.3-10l.2-12.9c.3-17 .3-33.9.8-50.8q.1-6.1.4-12.3c0-.8-1.1-.8-1.1 0-.8 17.2-.9 34.4-1 51.6-.1 8.6-.3 17.2-.5 25.8-.1 1.8-.1 3.5-.4 5.3-.3 1.6-.8 3.1-1.5 4.6-1.5 3.2-4 5.6-6.9 7.3-3.1 1.8-6.4 2.8-9.7 4q-1.3.4-2.5.9c-.8.3-1.5.5-2.2 1-1.4 1.2-1.3 2.7-1.2 4.4.1 7.4 2.4 14.6 6.2 20.7.7 1.1 1.9 2.2 3.3 1.8 1.3-.4 1.4-1.8 1.6-2.9.3-1.3.6-2.5 1.2-3.6.8-1.2 1.9-1.7 3.2-1.8 7.6-.8 15.2-.5 22.6-2.6 3.5-1 6.9-2.7 10.1-4.5 1.8-.9 3.4-1.9 5-3.1 1.6-1.2 3.1-2.5 4.7-3.6 2.7-2 5.1-4.5 7-7.4.9-1.4 1.5-3.1 2.8-4.2 1-.9 2.6-1.1 3.6-.1s1.5 2.6 2 3.9q.9 3 1.9 6 2 5.8 4.2 11.6c2.8 7.7 6 15.2 8.4 23.1.6 2 1.3 3.9 1.9 5.9q.7 2.4 1.8 4.6c.8 1.3 1.7 2.7 2.8 3.7.5.5 1.1.9 1.7 1.2.8.3 1.6.8 2.3 1.1.6.2 1.2.2 1.8.2q1.1.2 2.1.3c1.4.2 2.7.4 4.1.4 2.5 0 5.1-.6 6.8-2.7 1-1.1 1.4-2.3.5-3.7-.9-1.4-2.3-2.1-3.6-2.9-1.5-1.1-2.8-2.2-3.5-4-.7-1.7-.4-3.4-.2-5.2q1.5-12.8 2.8-25.6c1.8-16.8 3.5-33.6 5.4-50.4q1.3-12.5 2.8-25.1.2-1.5.3-3c.2-1 .2-2.1.2-3.2q.1-3.1.3-6.2c.3-4.1.6-8.3.9-12.4.3-4 .4-8 .3-12-.1-.8-1.2-.8-1.2 0zM77.7 23.1c5.2-.4 10.5-.6 15.8-.5 5.3.2 10.5.6 15.7 1.5 4.8.8 9.6 2 14.2 3.6 4.5 1.7 8.8 3.8 12.9 6.4 3.8 2.4 7.5 5.1 10.2 8.8q.5.6.9 1.3c.4.7 1.4.1 1-.6-2.5-4-6.1-7-9.9-9.5-4-2.7-8.3-5-12.7-6.8-4.7-1.8-9.5-3.1-14.3-4.1-5.2-1-10.5-1.5-15.7-1.7-5.4-.2-10.8-.1-16.1.2l-2 .2c-.7 0-.8 1.3 0 1.2z"/><path class="d" d="M77.3 21.6c-4.5 1.1-9 2.2-13.4 3.3-4.9 1.2-9.8 2.5-14.6 3.9-4.8 1.4-9.5 3-14.1 5.1-5.2 2.3-10.3 5.1-15 8.4-4.2 3-8.3 6.5-11.7 10.5-3.3 3.8-6.1 8.4-7.3 13.5C.1 71.8.9 77.5 2.9 82.7c2.1 5.3 5.2 10 8.6 14.4 3.5 4.6 7.2 9.1 11.8 12.4 2.4 1.6 5 3 7.8 3.7q1 .2 2 .3c.5.1.9.1 1.3-.3.8-1 .4-2.7-.1-3.7-.5-1.2-1.4-2.2-2.6-2.6-.4-.2-.8.3-.7.7.3 1.3 1.1 2.4 2.2 3.1.9.5 2.1.9 3.2.7.5 0 1.1-.3 1.3-.7.3-.5.1-1.2.1-1.7-.2-1.4-.9-2.5-1.8-3.5l-.8.8q.3.3.6.5c0 .1.1.1.1.2q-.1-.1-.1-.3.3-.4.6-.7.3.2.2.1c0-.1-.1-.1-.1-.1q-.2-.3-.5-.5-.3.5-.6.9c1 .9 2.2 1.7 3.6 1.7 1.2 0 2.6-.6 2.8-2 .2-1.4-.8-2.9-1.5-4q-1.2-2.2-2.5-4.4-2.4-4.3-4.9-8.6-1.3-2.2-2.5-4.4c-.4-.6-.7-1.2-.8-2-.2-.6-.3-1.1 0-1.7 1.1-2.8 4.2-3.7 6.6-4.5 2.9-1.1 5.9-2 8.8-2.8 6-1.5 12-2.8 18-4.3l4.6-1.2c.7-.2 1.4-.5 2.2-.8q1-.5 2.1-.9 2.2-1 4.3-2c.4-.2.8-.4 1.1-.6.3-.2.5-.5.7-.7.5-.5 1-.9 1.6-1.2.2-.1.3-.1.5-.2l.4-.4q.3-.4.8-.6c.7-.4.1-1.5-.6-1.1q-.4.2-.8.6c-.1.1-.2.3-.4.4q-.1.1-.3.2c-.6.3-1.2.7-1.7 1.1q-.3.4-.6.7c-.3.3-.7.4-1 .6q-1.1.5-2.2 1.1l-4.2 1.8c-.8.3-1.5.6-2.2.8q-1.1.3-2.3.6c-5.9 1.6-11.9 2.8-17.8 4.3-3 .8-5.9 1.6-8.8 2.5q-2.2.7-4.3 1.6c-1.3.5-2.5 1-3.6 1.9-1 .8-1.8 1.8-2.1 3.1-.2.6-.1 1.3 0 1.9.2.7.4 1.4.7 2 .8 1.4 1.7 2.8 2.5 4.3q1.3 2.1 2.5 4.3 2.4 4.3 4.9 8.5c.4.7.9 1.5 1.2 2.2.2.5.5 1.2.4 1.7 0 .6-.7.9-1.2 1-.6.1-1.2-.1-1.7-.3-.6-.3-1.2-.8-1.8-1.2-.5-.5-1.1.5-.7.9.3.4.8 1 1.2 1 .3-.1.5-.3.6-.6 0-.5-.7-1-1-1.2-.5-.5-1.3.3-.8.8.7.8 1.2 1.6 1.4 2.6q.1.3.1.6v.6q0 .3.1-.1s-.3.1-.3.2c-.2 0-.4.1-.6.1-1.7-.1-3.3-1.1-3.8-3q-.3.4-.7.8c1.1.4 1.9 1.5 2.2 2.7q.1.4.1.9c0 .2 0 .5-.2.7.1-.1-.1-.1-.2-.1q-.5-.1-1-.1c-2.7-.5-5.3-1.7-7.6-3.3-4.6-3-8.3-7.3-11.7-11.7-3.3-4.2-6.3-8.7-8.5-13.7-2.1-4.8-3.2-10.3-2.4-15.6.8-5 3.3-9.5 6.3-13.3 3.2-3.9 7-7.2 11-10.2 4.4-3.3 9.2-6.1 14.2-8.5 4.5-2.1 9.1-3.8 13.9-5.2 4.5-1.4 9.1-2.7 13.7-3.8q6.8-1.8 13.6-3.4 1.4-.3 2.8-.7c.7-.2.4-1.3-.3-1.2zm68.2 19.9c.2 1 1.2 1.7 1.8 2.3 1.1 1 2.3 1.9 3.5 2.8q1.7 1.2 3.4 2.5.5.3 1.1.8.1 0 .1.1c.1 0 .1 0 0 0-.1-.1.1 0 .1 0q.2.2.5.4.7.6 1.5 1.2c2 1.6 4.1 3 6.3 4.4 2.1 1.3 4.3 2.6 6.7 3.5 3.2 1.3 6.7 1.7 10.1 1.1 2.7-.4 5.3-1.7 7.5-3.3 2.4-1.7 4.5-3.8 6.5-5.9 2.1-2.2 4.1-4.5 6.2-6.7 2-2.1 4.2-4.1 6.7-5.6q1.8-1.2 3.8-1.9c.7-.3 1.4-.4 2-.6.8-.2 1.5-.6 2.3-.8.7-.2 1.5-.5 2.2-.3q.2 0 .4.2l.1.1s0-.1 0 0v.1c0-.2 0-.1 0 0 0 0-.1.1 0 0v.1c-.3.3-.8.7-1.2 1-.5.4-1.1.7-1.6 1.1-.4.2-.8.4-1.1.8-.1.3 0 .7.3.9.9.5 2.1.6 3.1.3.3-.1.7-.4 1.1-.4.3-.1.4.2.5.5 0 .1.1.3.1.3v.2l-.1.2c-.1.1-.2.2-.3.2-.4.4-.9.6-1.4.9-.5.4-1 .8-1.2 1.5-.1.4.2.7.6.8.8.1 1.6-.3 2.5-.5.3-.1.6-.1.9 0q.2.2.3.4s.1.2.1.1c-.1 0 0 0 0 0v.1s0-.1 0 0c-.1.2 0 0-.1.1 0 .2-.1.2-.1.3q-.3.3-.7.6c-.5.5-1.1.9-1.7 1.3-.4.4-1 1-1 1.7 0 .2.2.5.4.6.5.1 1 0 1.4 0q.9-.1 1.7-.3c.5-.1.9-.1 1.4-.1h.2c.1 0-.2 0 0 0h.1c-.1 0 0 0 0 0 .1.1-.1-.1-.1 0-.1-.2.1 0 0-.2 0 .1.1-.1 0 .1-.1.1 0 0-.1.2q-.1.2-.3.5-.4.6-.7 1.3-.8 1.3-1.5 2.7c-.9 1.8-1.7 3.7-2.5 5.5-1.6 3.7-3.2 7.5-5.1 11-1.9 3.6-4.2 6.8-7.1 9.6-5.6 5.4-12.5 8.7-19.9 10.1-5.6 1-11.4 1-16.9-.3-2.7-.6-5.3-1.5-7.7-3-2.1-1.2-4-3-4.9-5.4q-.4-.9-.6-1.8c-.1-.8-1.2-.4-1.1.3 1.2 6 6.9 9 11.9 10.5 5.5 1.7 11.3 2 17 1.3 7.6-1 15-3.9 21.1-9.1 3.2-2.7 5.9-5.9 8.1-9.5 2.1-3.6 3.7-7.4 5.4-11.3 1.6-3.8 3.3-7.7 5.5-11.2.3-.5.7-1.1.5-1.7-.1-.6-.6-.8-1.1-.8-1-.2-2.2.2-3.2.3q-.3.1-.7.1h-.3c-.2 0 .1 0 0 0h-.2q.3.3.5.6v-.1c0-.1-.1.1 0 0 .1-.2 0-.1.2-.3q.3-.3.7-.6c.6-.5 1.2-.9 1.8-1.4.5-.5.9-1.1.8-1.9-.2-.9-1.1-1.6-2-1.6-1 0-1.9.7-2.9.5q.2.4.5.8s.1-.2 0-.1l.1-.1c0-.1 0 0 0 0l.1-.1q0-.1.1-.1c.1-.2.4-.3.7-.5.5-.3 1.1-.6 1.5-1.1.5-.5.7-1.2.4-1.8-.2-1-1-1.8-2-1.5-.5.1-.9.4-1.3.5q-1 .2-2-.3.1.4.2.9c.1-.1-.1.1 0 0q.1 0 .1-.1c.1-.1 0 0 0 0q.1-.1.2-.1.3-.2.6-.5c.6-.3 1.2-.7 1.7-1.1.9-.6 2.1-1.8 1-3-1.2-1.2-3.3-.4-4.7.1-1.3.5-2.7.8-4.1 1.4-2.7 1.1-5.2 2.8-7.4 4.8-2.3 2-4.3 4.3-6.3 6.5-2.1 2.2-4.1 4.5-6.3 6.5-2 1.8-4.3 3.5-6.9 4.5-2.7 1.1-5.6 1.3-8.5.8-4.6-.7-8.8-3.4-12.8-6-2.9-1.9-5.5-4.2-8.4-6.2l-3.6-2.8c-1-.8-2.1-1.6-2.9-2.5q-.2-.1-.3-.3l-.1-.1c0-.1.1.1 0 0q0-.1-.1-.2c-.1-.2 0 .1 0-.1-.2-.7-1.3-.4-1.1.3zm-39.9-19.8c0-3.1.8-6.2 2.2-8.8 1.2-2.6 3.2-5.1 6-5.9 2.5-.8 5.3.2 7.1 2.2 1.8 2 2.8 4.9 3.3 7.6.5 3 .5 6.3-.4 9.3q.2-.3.4-.5-.2.1-.5.1c-.7.1-.4 1.3.3 1.2q.3-.1.5-.1c.2 0 .3-.2.4-.4.9-2.8.9-5.9.6-8.9-.4-3-1.4-6.2-3.3-8.6-1.9-2.3-4.7-3.7-7.6-3.4-3.1.4-5.6 2.8-7.2 5.6-1.7 2.8-2.7 6.1-2.9 9.5q-.1.5-.1 1.1c0 .7 1.2.7 1.2 0zm42.8 119.5c-.6.2-1.1.3-1.7.4-.7.1-1.3.3-2 .5q-2.1.5-4.2.9-4.2.9-8.5 1.5c-5.7.7-11.4.9-17.1.8-5.7-.1-11.5-.5-17.1-1.4-5.6-1-11.1-2.4-16.6-3.5-5.6-1.2-11.1-2.2-16.8-2.3h-2.1c-.7 0-.7 1.2 0 1.2 5.7-.1 11.3.7 16.9 1.9 5.6 1.1 11.1 2.6 16.7 3.6 5.7 1 11.5 1.5 17.2 1.7 5.8.2 11.6 0 17.3-.6q4.3-.5 8.5-1.3 2.2-.4 4.3-.9c1.4-.3 2.7-.7 4-.9q.9-.2 1.8-.6c.6-.3.1-1.4-.6-1zM42.4 170q0-.1-.1-.3c0-.8-1-.8-1.1 0-.1 1.2.7 2.4 1.3 3.3.7 1.2 1.3 2.4 2 3.7.7 1.4 1.5 2.8 2.2 4.3l.9 1.8c.3.5.8 1 1.1 1.4.4.6.6 1.2.8 1.9.3.6.6 1.3 1.1 1.8.5.5 1.3-.3.8-.9-.8-.8-.9-2.1-1.5-3.1-.3-.5-.7-.9-1.1-1.4-.3-.5-.5-1-.8-1.5q-1-2.1-2.1-4.2-.6-1-1.1-2.1c-.3-.5-.6-1.1-.9-1.6-.4-.6-.7-1.2-1.1-1.8-.2-.5-.5-1-.5-1.6h-1.1v.3c0 .8 1.2.8 1.2 0zm86.7 45.7c.4-.5 1.3-.5 2-.5.9-.1 1.8.1 2.7.1 2.5.2 5-.6 7.4-1.1.8-.2.5-1.4-.3-1.2-2.4.5-4.9 1.3-7.5 1.1-.9-.1-1.8-.2-2.8-.1-.8 0-1.8.2-2.3.9-.5.6.3 1.4.8.8z"/><path class="d" d="M11.4 96.4c1.4.2 2.3-.9 3.2-1.8 1-1.1 2.2-1.8 3.5-2.5 1.3-.7 2.7-1.4 4-2.1 1.3-.6 2.7-1.2 4.2-1.6.8-.2 1.7 0 2.6-.2.9-.1 1.6-.5 2.5-.4v-1.3H31c-.7 0-.7 1.2 0 1.3h.4c.7 0 .7-1.2 0-1.3-.8-.1-1.5.2-2.2.4-.3.1-.7.2-1.1.2h-1.3c-1.4.1-2.9.8-4.2 1.4-1.4.6-2.7 1.3-4 2-1.3.7-2.7 1.3-3.9 2.3l-1.5 1.5c-.3.4-.9 1-1.5.9-.3 0-.6.1-.7.5 0 .3.1.7.4.7zm187.7-49.3c.4.6.6 1.3.8 2.1.3.7.5 1.5.9 2.2.9 1.6 2 3.1 3.2 4.6 1.2 1.4 2.4 2.8 3.8 3.9.7.6 1.4 1.1 2.2 1.5.7.5 1.4.9 2.1 1.3.7.3 1.3.4 2 .6.5.2 1.1.3 1.4.9q.2-.4.4-.9-.2.1-.4.1c-.7.2-.4 1.4.3 1.2q.2 0 .4-.1c.3-.1.5-.5.3-.9-.6-1.2-2-1.5-3.2-1.8-.6-.2-1.1-.5-1.7-.8-.8-.5-1.6-.9-2.3-1.4-1.5-1.1-2.8-2.5-4-3.9-1.2-1.4-2.3-2.8-3.2-4.4-.5-.9-.8-1.7-1.1-2.6-.3-.9-.6-1.8-1.1-2.5-.2-.3-.6-.2-.8 0-.3.2-.2.6 0 .9zm-93-35.3c.8.1 1.7.2 2.5.1.7-.1 1.4-.4 2.1-.7 1.3-.7 2.4-1.8 3.5-2.8 1.3-1.1 2.6-2.3 3.9-3.3 1-.8 2.2-1.3 3.1-2.3.2-.2.4-.6.4-.9 0-.3-.2-.6-.3-.8-.4-.3-.9-.4-1.4-.5-.9-.1-2 .2-2.8.6-1.2.4-2.2 1.2-3.2 1.9-.9.8-1.8 1.7-2.7 2.6-.8.7-1.6 1.5-2.1 2.5-.2.4-.4.9-.4 1.4.1.4.5.7.9.7.7.2 1.4-.1 2.1-.4.8-.3 1.7-.8 2.5-1.4q1.2-.8 2.4-1.7c.5-.4 1.1-.9 1.5-1.5.6-.7.9-1.9.5-2.8-.5-.9-1.6-1.3-2.5-1.4-1.1-.1-2.3.1-3.3.5-1.1.5-2 1.3-3 2.1-1 .7-2 1.5-2.8 2.4-.6.8-1.1 1.8-.8 2.9.5 1.6 2.4 1.8 3.8 1.9 1.8.1 3.6-.1 5.4-.4.5-.2 1.1-.3 1.6-.5 1.5-.5 2.9-1.3 4.2-2.2 1-.6 1.9-1.3 2.9-1.8.8-.4 1.7-.9 2.3-1.7.5-.6.3-1.7-.4-2.2-.6-.4-1.5-.2-2.2.1-1.4.4-2.7 1.1-3.9 1.9-1.5.9-4.3 3.3-2.4 5.3 1.1 1.1 2.7 1.3 4.1.9 1.1-.2 2.2-.8 3.1-1.4.7-.6 1.8-1.4 1.9-2.4.1-1.4-1.6-1.3-2.3-.8-1.7 1.2-2.1 4.6.2 5.3 1.4.3 2.7-.6 3.6-1.7.4-.6-.4-1.4-.8-.8-.5.6-1.3 1.3-2.2 1.3-.6 0-1.1-.5-1.1-1.1 0-1 .7-2.4 1.8-2.1q-.2-.1-.4-.3l.1.1c-.1.1-.1.1-.2.3-.1.2-.4.5-.6.7q-.7.6-1.5 1c-.9.5-1.9.9-2.9.9q-.8-.1-1.5-.4c-.2-.2-.6-.4-.7-.7q-.1-.3 0-.7c.1-.3.3-.5.5-.8.5-.6 1.2-1.1 1.8-1.5q1.2-.7 2.4-1.3c.6-.3 1.1-.5 1.7-.7.2 0 .3-.1.6-.1q.1 0 .2.1c.1 0-.1-.1 0 0h.1c.1 0 0-.1.1 0 0 0-.1-.1 0 0 0 .1-.1-.1 0 0v.1s0 .2 0 0v.2c0 .1 0 0 0 0v.1c0-.1-.1.1-.1.1-.5.4-1.1.8-1.6 1.1-.5.3-1 .5-1.5.8-.9.7-1.9 1.3-2.9 1.9-1.2.8-2.5 1.4-3.8 1.7q-1.8.3-3.5.5c-1.2 0-2.5.1-3.6-.2q-.2-.1-.3-.1c-.2-.1-.2-.1-.3-.1q-.1-.1-.3-.2s-.1-.1 0 0l-.1-.1-.1-.1v-.1q-.1 0-.1-.1c-.1-.1 0 0 0 0q-.1-.1-.1-.2c0-.1 0 .1 0 0v-.4c.2-.7.8-1.3 1.3-1.8.6-.6 1.3-1.1 2-1.6.6-.5 1.2-1.1 2-1.6.7-.4 1.6-.7 2.4-.8.7 0 1.3 0 1.9.2.5.2.8.5.8 1 0 .3-.1.6-.3.9v.1c-.1.1.1-.1 0 0l-.2.2q-.5.5-1.1 1c-1 .9-2.1 1.7-3.3 2.3q-.8.5-1.6.9l-.8.2h-.1c-.1.1 0 0-.1 0q-.1.1-.3.1c-.1 0 .1 0 0 0q0-.1-.1-.1s0 .1 0 0l.2.3v-.2c.1-.1.1-.3.2-.4.4-.7.9-1.3 1.4-1.8 1.2-1.3 2.5-2.4 3.9-3.5 1.3-.8 2.4-1.5 3.9-1.7.3 0 .6 0 .9.1.2 0 .3.1.4.3v-.6c-.4.8-1.4 1.2-2.1 1.7-1 .7-2 1.5-2.9 2.3q-1.4 1.2-2.8 2.5c-.8.8-1.7 1.5-2.7 2.1-.6.2-1.2.4-1.8.5-.7 0-1.5-.1-2.2-.1-.8 0-.8 1.2 0 1.2zm11.3 3.1c.3 1.6 1 3.2 1.7 4.8.1.2.5.3.8.2.2-.2.3-.6.2-.9-.7-1.4-1.3-2.9-1.6-4.5 0-.3-.4-.5-.7-.4-.3.1-.4.4-.4.8zm-3.8 1.6c.8 0 .8-1.3 0-1.3-.7 0-.7 1.3 0 1.3zm8.1-.6c.8 0 .8-1.2 0-1.2-.7 0-.7 1.2 0 1.2zm-9.5 5c.3.4.7.7 1.1 1l2 1c1.2.5 2.8 1 4.1.8.6-.2 1.2-.6 1.3-1.3 0-.3-.1-.7-.4-.8-.3 0-.7.1-.7.5 0 0-.1.3-.1.1v.1s-.1.1 0 0c0 .1-.2.1-.1.1q-.2.1-.3.1h-.7c-.2 0-.5-.1-.8-.2-1.2-.2-2.4-.8-3.6-1.4q-.3-.2-.7-.5s-.1-.1 0 0q-.1-.1-.2-.1-.1-.1-.1-.2c-.2-.3-.6-.2-.8 0-.3.2-.2.6 0 .8zM39 177.6q-.3-.1-.5-.2c-.4-.2-.7.2-.7.5-.2 1.7.7 3.4 1.4 4.8.5 1.3 1.1 2.9 2.5 3.2.2.1.4 0 .5-.1 1.1-1.5.5-3.3-.2-4.7-.8-1.8-1.5-3.5-2.3-5.2-.3-.6-.7-1.4-1.4-1.2-.6.1-.8.7-.8 1.3 0 1.1.4 2.2.8 3.2.5 1.8 1.2 3.7 2.7 4.7.2.2.5.1.7 0 .5-.5.3-1.4.1-1.9-.1-.6-.4-1.2-.6-1.8q-.5-1.7-1-3.5c-.3-1.1-.6-2.3-1-3.3q-.1-.4-.2-.7c0-.1-.2-.4-.1-.6 0-.2.4-.3.5-.3.4.1.7 1.1.8 1.4.4 1.1.9 2 1.4 3 .5 1.1 1 2.2 1.6 3.2.5 1.1 1.2 2.2 1.7 3.4.2.6.5 1.6 1 2.1.4.3 1 .2 1-.4 0-.9-.6-1.5-1.1-2.1-.7-.8-1.2-1.8-1.8-2.7-.6-.8-1.1-1.7-1.7-2.5-.5-.8-.9-1.6-1.6-2.2-.3-.2-.6 0-.8.3-.6 1 .1 2.4.4 3.4.2.8.4 1.6.7 2.3q.6 1.1 1.3 2.1c.9 1.2 2.1 2.2 3.5 2.6.2 0 .4.1.6.2.2.1.3.3.3.5.2.5.4 1.2.3 1.8-.1.6-.7 1.1-1.1 1.6q-.7.9-1.3 2c-.5 1.1-1.3 3.1.1 3.9.7.4 1.3 0 1.6-.6.4-.6.5-1.3.5-1.9-.1-1.3-.5-2.5-.9-3.6-.2-.6-.4-1.2-1-1.4-.6-.1-1.1.3-1.2.9-.3.9-.1 2 0 3h1.1c-.1-1.3-.6-2.4-1.1-3.5-.5-1-1-2-1.9-2.5-.3-.1-.5-.1-.7.1-.7.5-.4 1.6-.2 2.3.2.9.3 1.6 1.2 2.1.2.1.6 0 .7-.3.4-.6.1-1.6-.1-2.3-.1-.8-.3-1.8-.9-2.5-.3-.4-.8-.4-1.2.1-.3.4-.4 1-.4 1.5.1 1.1.7 2.3 1.7 2.8.4.2.7.1 1-.2q.4-.4.4-.9c.1-.6-.1-1.3.2-1.8q-.4.2-.7.3c.6.1 1.1.6 1.8.8.3 0 .8 0 1.1-.2.2-.2.2-.6.2-.9 0-.5-.2-1.1-.5-1.6-.2-.5-.5-1-1-1.1-.3-.1-.6.1-.7.4-.1.3-.1.6 0 .9 0 .3.4.5.7.4.3-.1.4-.4.4-.7v-.3q-.3.2-.7.5c-.1-.1 0-.1 0 0l.2.2q.1.2.2.5.2.3.2.7v.2c.1.1 0 .1.1 0l.3-.3c-.3.1-.6-.1-.9-.2-.4-.2-.7-.4-1.1-.5-.2 0-.5.1-.6.3-.3.5-.3.9-.3 1.5 0 .3.1.8-.2 1h.4c-.8-.4-1.4-1.9-.8-2.7l-.4.2c-.2 0-.2-.1-.2-.1v.1q-.1-.1 0 0l.2.4c.1.4.3.8.4 1.2q.1.6.2 1.3v.5q0-.1 0 0t.1-.1q.4-.1.7-.2c-.5-.3-.5-.7-.6-1.3-.1-.2-.3-1-.1-1.1h-.7c.7.5 1.1 1.3 1.5 2.1.4.9.9 1.9 1 2.9 0 .8 1.1.8 1.1 0-.1-.7-.1-1.5-.1-2.2 0-.2 0-.3.1-.4v-.2c0-.1 0 0 0 0s.1-.1 0 0l-.1.1c-.2 0-.2-.1-.1 0l.1.2.2.6c.3.9.7 1.9.7 2.9 0 .6 0 1-.3 1.5 0 0-.1.1 0 .1 0 0-.2-.1-.2-.2-.1-.1 0-.4 0-.6.2-1.3 1-2.4 1.8-3.4.3-.5.8-.9 1-1.5.3-.5.3-1.1.2-1.7-.1-1.1-.5-2.3-1.5-2.7-.5-.1-1-.2-1.5-.5q-.8-.5-1.4-1.2c-1-1.1-1.7-2.4-2.2-3.9q-.2-.9-.5-1.7c-.1-.4-.3-1.1-.1-1.4l-.8.2c.3.2.5.5.6.8q.4.6.8 1.1l1.5 2.4q.8 1.2 1.6 2.3.3.5.7 1c.2.2.5.5.5.8q.5-.2.9-.4c-.2-.3-.3-.6-.5-.9-.1-.4-.2-.8-.4-1.2-.5-1-1-2.1-1.6-3.1-.6-1.1-1.1-2.2-1.6-3.3-.5-1-1-1.9-1.4-2.9-.2-.7-.5-1.6-1.2-1.9-.7-.4-1.7 0-2.1.7-.5.9.2 2.1.5 3 .4 1.1.6 2.4 1 3.6.3 1 .6 2.2 1 3.2q.2.6.4 1.1c0 .2 0 .4.1.5v.2c-.1 0 .1-.2 0-.1q.3-.1.7-.1c-1-.7-1.6-2.1-2-3.2-.3-.9-.6-1.9-.8-2.8q-.1-.3-.1-.6-.1-.2-.1-.4c0-.1.1-.1.1-.2-.1-.1 0 0-.1.1h-.1c-.2.2-.2-.1-.1.1s.2.4.3.7c.7 1.4 1.3 2.9 2 4.4.3.6.6 1.3.8 2 .2.6.3 1.4-.1 1.9l.6-.2c-.6-.1-.9-.6-1.1-1-.3-.6-.5-1.1-.8-1.7-.6-1.2-1.3-2.6-1.2-4.1q-.4.3-.7.6.2.1.5.3c.2.1.6-.2.7-.5.1-.3-.2-.6-.4-.7z"/><path class="d" d="M43.6 191.8c0-1-.4-2-.9-2.8-.6-1-1.5-1.8-2.5-1.8-.4 0-.8.4-.8.8 0 .5.3.8.8.8 0 0 .2.1-.1 0q.1 0 .2.1h.2c-.2 0-.1 0 0 0l.1.1.2.2c-.2-.2 0-.1 0 0q.1 0 .1.1l.2.2q.1 0 .1.1l.1.1q0 .1-.1-.1c.1.1.2.2.2.3q.2.2.3.5.1.2.1.3s0-.1 0 0q.1.1.1.2.1.3.1.5.1.2.1.3v-.1.2c0 .4.3.8.8.8.3 0 .7-.4.7-.8zm91.3 24.6c-1.3 0-2.9-.5-4 .3-.3.1-.7.5-.7.9 0 .3.2.6.4.8.4.4 1 .7 1.5.9 1 .3 2.5.6 3.4-.2.5-.5.6-1.1.5-1.7-.2-.9-.9-1.4-1.6-1.7-.8-.2-1.6-.1-2.4-.1-.9.1-2 0-2.7.6-.2.1-.3.4-.3.7.2.6.7 1 1.1 1.3q.9.7 1.9 1.1c.5.3 1.2.5 1.9.4q.4-.1.7-.4c.4-.4.2-1-.1-1.4-.8-1.6-3.1-2.6-4.4-.9-1.1 1.4.1 2.8 1.2 3.7 1.3 1 3 1.7 4.6 1.9 1.1.2 2.1.1 3.2 0 .9 0 1.8 0 2.7-.2.8-.2 1.7-.7 2.2-1.5.5-.9.3-2-.2-2.9-1.1-1.6-3.5-2.6-5.3-1.7-.7.4-1.4 1.1-1.2 2.1.2.9 1 1.5 1.7 1.9q1.2.8 2.5 1.2.8.3 1.7.6c.4.1.8.2 1.2.2.8-.1 1.7-1.1 1.7-2.1s-.8-1.7-1.5-2.2c-.8-.4-1.6-.8-2.4-1.1-1.1-.5-2.2-1-3.4-1.1-1 0-1.9.4-2.5 1.3-.5.8-.7 1.8-.1 2.6.9 1.5 2.6 2 4 2.5 1.4.4 2.8 1.1 4.2 1.1.8 0 1.5-.3 2-1 .3-.5.5-1.2.5-1.8-.1-1.2-1-2.1-1.9-2.6-1.2-.6-2.4-1-3.6-1.2-1.1-.3-2.2-.4-3.3-.6h-.2q-.2 0-.3-.1h-1.1c-.7.1-1.6.3-2.1 1-.6.6-.7 1.9-.3 2.7.4.6 1.4 0 1-.6-.2-.4-.1-1.2.2-1.4.5-.3 1.1-.4 1.6-.5.6 0 1.4.2 1.9.2 1.8.3 3.7.6 5.3 1.4.7.3 1.3.7 1.5 1.4.1.1 0-.1.1 0v.7c-.1.4-.2.8-.6 1-.9.5-2.1 0-2.9-.3q-1.5-.5-3-1.1c-.5-.2-1-.5-1.5-.8-.3-.3-.8-.7-.7-1.2 0-.6.5-1.2 1.1-1.4.7-.2 1.5.1 2.1.3 1.4.5 2.9 1 4.1 1.9.2.2.4.3.5.5.2.3.1.5 0 .8-.4.5-.6.5-1.2.3-1.5-.4-2.9-.9-4.2-1.7-.3-.3-1-.7-1-1.2 0-.4.7-.7 1-.7 1.2-.4 2.9.4 3.6 1.7.3.5.2 1.2-.3 1.6-.5.5-1.1.6-1.7.7-.6.1-1.2.1-1.9.1s-1.5.1-2.2.1q-1.4-.1-2.7-.5c-.5-.2-.8-.4-1.3-.7-.7-.4-1.8-1.1-2.1-1.9-.1-.2-.1-.2 0-.4 0-.1.2-.3.3-.4.5-.4 1.1-.3 1.6 0 .4.3.9.7 1 1.3q.1-.3.1-.6v.1c.1 0 0 0 0 0 .1 0-.1.1-.2.1s.2 0 0 0h-.1c-.1 0-.2 0-.3-.1-.4 0-.9-.2-1.3-.4q-.7-.4-1.2-.8l-.4-.4c-.1-.1-.1-.1-.1-.2-.1-.1 0 .1-.1-.1q-.1.4-.2.7c.3-.2.7-.3 1.1-.3.5 0 1 0 1.5-.1.7 0 1.7-.1 2.2.5q.1.1.2.4v.3c0 .1 0 0-.1.1 0 0-.2.1-.2.2-.5.2-1.2.1-1.8-.1-.4-.1-.7-.2-1-.4q-.1-.1-.2-.1l-.1-.1q-.1-.1-.1-.2c.1.2-.1-.2-.1 0v.5c.1-.2.2-.3.5-.3.4-.1.7-.1 1.1-.1.6 0 1.3.1 2 .2.7 0 .7-1.3 0-1.3z"/><path class="d" d="M141.6 219.5c.4-.9.7-2 .6-3 0-.3-.2-.7-.6-.6-.2 0-.6.2-.5.6v.7l-.1.1q.1-.1 0 0v.1q0 .2-.1.4-.1.7-.4 1.4c-.1.3.2.7.4.8.4 0 .6-.1.7-.5z"/><path class="d" d="M140.5 215.3v.1q-.1.2-.1.1l.1-.1c.1 0 .2 0 .3-.1.2-.1.4-.2.6-.1.2 0 .5.2.7.4q.4.4.9.8c.6.5 1.4.8 2.1 1.2.3.3.6.6.9.8.3.3.8.3 1.1.6q.4-.8.8-1.5-.2 0-.3-.2c-.3-.3-.8-.3-1.1 0-.3.3-.3.9 0 1.2q.3.3.6.5c.9.4 1.6-.9.8-1.5-.4-.2-.9-.3-1.2-.6l-1.2-.9c-.9-.5-1.7-.9-2.4-1.5-.7-.7-1.4-1.2-2.4-.9-.8.3-1.7.7-1.7 1.7 0 1.1 1.5 1.1 1.5 0z"/><path class="d" d="M144.9 219.4h.3s.2.1 0 0q.1.1.2.1.3 0 .6.1.1.1.2.1s.2.1.1 0q.1.1.3.2l.1.1c-.1-.1 0 0 0 0l.1.1c.1.1 0-.1.1.1v.1c.1.1 0-.1 0 0q.1.1.1.2.1.4.3.7c.2.5.6.9 1.1.8.3 0 .6-.3.6-.6-.1-.3-.3-.6-.6-.6-.1 0-.2 0 0 0q-.1 0 0 0c.1.1 0 0 0 0-.1-.1 0 .1 0 0q-.1-.1-.2-.3c0-.1.1.2 0 0v-.1c-.2-.5-.3-.9-.6-1.2-.7-.8-1.8-.9-2.7-1-.3 0-.6.3-.6.6s.3.6.6.6z"/><path class="d" d="M139.5 223.7c.7.1 1.5.2 2.2.3.8.1 1.5 0 2.2 0q1.2.1 2.4.1c.3 0 .6-.1 1-.2.2-.1.4-.2.6-.2.5 0 1 0 1.5-.1.6-.3 1-.8 1.2-1.4.4-1.4-.5-2.7-1.3-3.6-.5-.5-1.3.4-.8.9.6.6 1.5 1.8.8 2.7-.2.3-.6.3-.9.3-.5 0-.9 0-1.4.2-.5.2-1.2.1-1.7.1h-3.9c-.6-.1-1.3-.2-1.9-.3-.8 0-.8 1.2 0 1.2zM13.1 98.4q-.2 0-.3-.1.2.3.4.5c-.3-1.9-2-3.4-3.1-4.8-1.5-1.9-2.7-4.1-3.9-6.2-.6-1-1.1-2-1.6-3-.4-1.1-.8-2.2-1.3-3.2-1.1-2-1.2-4.2-1.6-6.5-.2-1.2-.4-2.3-.4-3.5.1-1.3-.1-2.7.3-4 .6-2.3 1.5-4.4 2.5-6.6.5-.9.9-1.9 1.7-2.6.8-.8 1.8-1.3 2.4-2.2.8-1 1.3-1.8 2.3-2.5.9-.7 1.7-1.5 2.6-2.1 1.9-1.5 3.7-2.8 5.4-4.5.8-.8 1.5-1.6 2.3-2.4.7-.7 1.6-1.3 2.4-2.1.8-.8 1.5-1.6 2.4-2.3 1-.6 1.9-1.3 2.8-2 1.7-1.4 4.1-2.3 6.1-3.1 2.2-.8 4.3-1.8 6.5-2.6q1.6-.5 3.3-.9c1.1-.3 2.3-.4 3.4-.7 1-.3 1.9-.7 2.9-1q1.9-.4 3.9-.8c2.4-.4 4.8-.7 7.2-1.2 1.1-.2 2.3-.5 3.4-.6 1.2-.1 2.3-.1 3.4-.3 1-.3 2-.4 3-.7 1-.4 2-1 3-1.4 1-.4 1.9-1 3-1.1 1.2 0 2.4.1 3.6-.1 2.3-.2 4.5-.6 6.7-1.2s4.6-.3 6.9-.3c2.2 0 4.4-.4 6.6-.5 2.2-.2 4.4.1 6.4 1.3 1.9 1.1 4 1.1 6.1 1.7 2.2.7 4.3 1.6 6.5 2.4q3.4 1.2 6.7 2.7c2.1 1 4.1 2.2 6.1 3.2 2 .9 4.2 1.6 6.1 2.7 4 2.5 7.1 6.2 10.1 9.9 1.5 1.8 3 3.5 4.8 5.1 1.7 1.5 3.2 2.9 5.1 4 1.9 1.1 4.1 1.4 6 2.4.9.5 1.7.9 2.6 1.2 1.1.3 2.1.9 3.2 1.3 1.9.6 4.3 1.1 6.2.8 1.1-.1 2.1-.3 3.1-.5 1.1-.3 2.3-.2 3.5-.5 2-.5 3.8-1.7 5.7-2.6 1.9-.9 3.9-1.9 5.6-3.3 1.5-1.2 2.1-3.3 3.3-4.9.6-.7 1.3-1.3 1.9-2 .6-.8.8-1.9 1.5-2.6.6-.6 1.4-.9 2-1.7.5-.7.9-1.4 1.2-2.3.2-.7-.9-1.1-1.1-.3-.3 1-1 2-1.8 2.6-.7.6-1.4 1-1.8 1.9-.4 1-.9 1.7-1.7 2.4-.6.7-1.2 1.4-1.7 2.3-.6.9-1.1 2-1.7 2.9-.6.8-1.6 1.3-2.5 1.9-1.9 1.2-4.1 2.2-6.1 3.2-1 .5-1.9 1-3 1.3-1 .3-2.2.2-3.3.4-1.1.2-2.3.6-3.4.7-1.3 0-2.6-.3-3.9-.5-1-.2-2-.5-3-.9-1-.5-2.1-.8-3.1-1.2-.9-.4-1.7-1-2.6-1.3-1.1-.4-2.2-.7-3.3-1.1-2.3-1-4-2.6-5.8-4.2-1.7-1.6-3.2-3.1-4.7-4.9-3-3.7-6-7.3-9.8-9.9-1.8-1.3-3.8-2-5.8-2.9-2.2-.9-4.3-2.2-6.4-3.3-4.2-2-8.5-3.4-12.8-5-1.1-.4-2.1-.8-3.2-1-1.2-.2-2.5-.2-3.5-.8-.9-.4-1.6-.9-2.5-1.2-1-.4-2-.6-3-.7-2.2-.1-4.3.4-6.6.5-2.2.2-4.5 0-6.8 0-1 0-2 .2-3 .5-1.2.3-2.3.5-3.5.7-1.2.2-2.4.4-3.6.5-1.1.1-2.2-.1-3.3.1-1 .2-1.9.8-2.8 1.2-1.1.4-2 1-3.1 1.3-2.1.7-4.3.7-6.5 1-2.4.3-4.8.9-7.2 1.3-2.4.4-4.8.7-7.2 1.4-1 .2-2 .7-3 .9-1.2.3-2.5.4-3.7.8-2.2.6-4.2 1.4-6.3 2.3-1.1.5-2.2.8-3.2 1.2-1.2.5-2.2 1.1-3.4 1.6-1.9.8-3.4 2.2-5.1 3.4-1.7 1.2-3.1 2.8-4.7 4.2-1.8 1.6-3.3 3.5-5.2 5-1.8 1.4-3.6 2.9-5.4 4.2-.7.5-1.4 1-1.9 1.8-.4.6-.7 1.1-1.1 1.6l-1.5 1.2c-1.6 1.3-2.3 3.3-3.2 5.2-.5.9-.9 1.9-1.1 3-.3 1-.8 2-.9 3.1-.1 1.2 0 2.4 0 3.5 0 1.2.2 2.3.4 3.5.4 2.1.5 4.3 1.4 6.2 1 2 1.8 4 2.8 6C6 89.8 7.2 92 8.6 93.9q.9 1.4 2 2.6c.6.8 1.3 1.6 1.5 2.6 0 .2.2.4.4.4q.1.1.3.1c.7.2 1-1 .3-1.2z"/><path class="d" d="M199.6 47.5c.1 0 0 0 .1.1q.1.1.3.2.2.3.5.6.5.8 1.1 1.6c1 1.3 1.7 2.9 2.6 4.4.7 1.4 1.6 2.8 2.7 3.8 1 1 2.3 1.8 3.5 2.5 1.4.7 2.9 1.3 4.3 2 .3.1.6.1.8-.3.1-.2 0-.7-.2-.8-2.6-1.2-5.4-2.1-7.5-4.1-1.2-1.1-2-2.5-2.8-4-.8-1.5-1.6-3.1-2.7-4.5-.4-.5-.7-1.1-1.2-1.6-.3-.5-.8-1.1-1.5-1.1s-.7 1.2 0 1.2zm-4.7 4.5q-.2-.1-.4-.1l.4.6q0-.1.1-.2-.1.1-.1.2l.2-.6-.1.1.4-.6-.1.1q.1-.2.3-.3l-.1.1q0-.1.2-.1h-.2.1q-.3-.3-.7-.6 0 .3.1.7c0 .1 0 .3.1.4.1.1.3.2.4.2q.3 0 .4-.2c.1-.1.2-.3.2-.4q0-.4-.1-.7c0-.2 0-.3-.2-.5q-.2-.2-.5-.1c-.5.2-.8.6-1.1 1.1-.2.4-.4.9-.4 1.4 0 .2.2.5.4.6q.2 0 .4.1.2 0 .4-.1c.1-.1.3-.2.3-.4 0-.3-.1-.7-.4-.7zm9.6-10.9c.4-.8.9-1.6 1.6-2.2.7-.5 1.5-.9 2.3-1.3l2.7-1.2c1-.3 2.1-.7 3.1-.6.6 0 1.2 0 1.8-.1.6-.2 1.2-.4 1.8-.3.8 0 .8-1.3 0-1.3-.6 0-1.1.1-1.7.3-.5.1-1 .2-1.6.2-1.2-.1-2.3.2-3.4.6-1 .3-2 .8-2.9 1.2-.9.4-1.8.8-2.5 1.3-1 .8-1.7 1.7-2.1 2.8-.2.3-.1.7.2.9.2.1.6 0 .7-.3zm-191 55.3c0-.7 0-1.4.3-2 .2-.5.7-.8 1.1-1.1.5-.4.9-.8 1.4-1.3.5-.5 1.1-.8 1.7-1 1.4-.7 2.9-1.2 4.4-1.4q1.1-.2 2.2-.3c.7-.1 1.5 0 2.2-.1.8-.1 1.6-.4 2.4-.4.9-.1 1.9 0 2.8 0 .7 0 .7-1.3 0-1.3h-2.6c-.8.1-1.6.3-2.3.4-.8.2-1.7.1-2.5.2q-1.1 0-2.3.2c-1.6.3-3.2.9-4.7 1.5-.7.3-1.4.6-2 1.2-.4.4-.8.9-1.4 1.3-.5.4-1.1.8-1.4 1.5-.4.8-.4 1.7-.4 2.6 0 .8 1.1.8 1.1 0z"/><path class="d" d="M41.4 107.5c.3-1.5.7-2.8.2-4.3-.4-1.3-1-2.5-1.9-3.5-.5-.5-1-.8-1.4-1.3-.5-.5-.7-1.2-1.1-1.8-.4-.5-.9-1-1.3-1.6-.4-.6-.6-1.3-1.1-1.9-.3-.6-.8-1.1-1.1-1.7q-.6-1.1-1.1-2.1l-1-2.2c-.3-.6-.8-1.2-1-1.9-.3-1.3-.1-2.7-.1-4.1 0-.5 0-1 .2-1.6.2-.5.6-.9 1-1.3 1-.9 2.2-1.6 3.5-2 .6-.1 1.2-.1 1.9-.2s1.3-.5 2-.6c.7-.1 1.5-.2 2.2-.3.7-.2 1.4-.5 2.1-.8 1.4-.5 2.8-1 4.2-1.4q4.4-1.2 8.9-2.2l4.4-1c1.4-.3 2.8-.6 4.1-1 1.4-.3 2.7-1 4.1-1.4 1.4-.4 2.9-.7 4.2-1.2 1.4-.5 2.7-1.3 3.9-2.1 1.2-.7 2.4-1.4 3.4-2.2q.9-.7 1.6-1.5c.5-.5-.3-1.4-.8-.8-1 1-2.1 1.8-3.2 2.5-1.3.8-2.5 1.6-3.8 2.3-1.3.7-2.7 1.1-4.2 1.4q-1 .3-2.1.6c-.7.3-1.3.6-2 .8-1.4.5-2.7.8-4.1 1.1l-4.4 1q-4.5 1-8.9 2.2c-1.5.4-2.9.8-4.4 1.3-1.4.4-2.7 1.2-4.2 1.3-.7.1-1.5.2-2.2.4-.6.3-1.2.4-1.9.5-1.3.1-2.6.6-3.7 1.4-1.1.7-2.2 1.6-2.7 2.8-.4 1.1-.2 2.4-.3 3.6 0 .7 0 1.4.1 2.1.1.8.4 1.4.7 2l2.1 4.2c.3.8.7 1.5 1.2 2.1.1.2.3.4.5.7.2.3.4.7.5 1.1.4.6.8 1.2 1.3 1.7.4.6.8 1.1 1.1 1.8.4.6.9 1 1.4 1.5.4.4.9.8 1.2 1.3.4.6.7 1.2.9 1.9.3.6.4 1.3.4 2-.1.7-.3 1.4-.4 2-.1.8 1 1.1 1.1.4z"/><path class="d" d="M61.4 69.9c0 1.9.3 3.7.5 5.6.3 1.9.4 3.8.3 5.7 0 1.9-.1 3.8 0 5.7.1.9.2 1.9.3 2.8.1 1 .1 2 .1 3v5.7c0 1 0 1.9-.1 2.9-.2.8-.4 1.7-.6 2.5-.3 1.9-.2 3.8-.2 5.7.1.9 0 1.8.1 2.7.1.9.3 1.7.4 2.6v5.7q0 3-.1 5.9v6c0 1.9.2 3.8 0 5.6-.1.9-.4 1.7-.7 2.4q-.4 1.3-.7 2.6c-.3.9-.5 1.8-.6 2.7-.1.9-.1 1.8-.2 2.7-.1.8-.2 1.7-.5 2.5l-.9 2.4q-.4 1.2-.5 2.5c0 .9.1 1.7.1 2.6-.1 3.4-3.1 4.9-5.5 6.3-1.5.9-3 1.8-4.6 2.7-1.4.7-2.5 1.9-3.9 2.8-.6.4-1.2.9-1.6 1.4-.5.6.3 1.5.8.9s1.1-1 1.7-1.4c.7-.5 1.2-1 1.8-1.5 1.4-1.2 3.1-1.9 4.6-2.8 1.3-.8 2.7-1.5 4-2.4 1.1-.7 2.2-1.6 2.9-2.8q.7-1.1.9-2.4c.1-.9 0-1.7 0-2.6-.1-.9 0-1.8.3-2.6.3-.9.6-1.6.9-2.4.6-1.7.6-3.5.8-5.3.2-1.8.7-3.6 1.2-5.3.3-.8.7-1.6.8-2.5.1-.8.1-1.6.1-2.4v-20.8c0-1-.1-1.8-.3-2.7-.1-.9-.1-1.9-.1-2.8v-2.9c0-1 0-1.9.2-2.9.1-.8.3-1.6.5-2.5.1-.9.1-1.8.1-2.8v-3c0-1.9.1-3.9 0-5.8-.2-1.9-.4-3.8-.4-5.7 0-2 .1-3.9 0-5.8 0-1.9-.4-3.8-.6-5.6q-.2-1.5-.2-2.9c0-.8-1.2-.8-1.1 0z"/><path class="d" d="M43.4 170.5q0-.1.1-.2-.1.1-.1.2l.2-.4q0 .1-.1.2c.3-.4.7-.7 1-1.1q-.4-.4-.8-.9 0 .1-.1.1.1 0 .1-.1c-.2.2-.4.3-.7.5-.3.2-.6.5-.7.9 0 .2 0 .4.1.5 0 .1.2.3.3.3.2 0 .3 0 .5-.1.1 0 .2-.2.2-.3q0-.1.1-.2l-.1.1.1-.1q-.1 0-.1.1l.1-.1-.1.1q.3-.2.5-.4.4-.1.6-.4c.2-.2.3-.6 0-.9-.2-.2-.5-.2-.8 0-.2.3-.5.5-.7.8q-.3.2-.4.5-.2.3-.3.6 0 .2.1.4c0 .2.2.3.3.3.2.1.3.1.5 0 .1-.1.2-.2.2-.4zm19.3-32.3q-.1.2-.3.3c-.2.4-.1.9.3 1.1.6.2 1.3.1 1.9-.1q1-.2 2.1-.2c1.5-.1 3-.1 4.5-.1 1.4-.1 2.8-.1 4.2.2q2.2.5 4.4 1.2c1.4.3 2.7 1.1 4 1.7 1.4.5 2.8.8 4.3.9 1.4.2 2.9.3 4.4.6l2.2.4c.7.2 1.5.4 2.2.6.7.1 1.4.1 2.1.2.7 0 1.4.2 2.2.3 1.4.2 2.8.2 4.2.1 3-.1 6-.1 9.1-.1 1.5 0 3 0 4.6.2 1.4.1 2.9.3 4.4.3.7 0 1.4-.1 2-.3.7-.2 1.2-.5 1.9-.6 1.4-.3 2.8 0 4.2 0 1.4 0 2.8.2 4.1.1.7-.1 1.3-.4 1.9-.5.7-.1 1.5 0 2.2 0 1.4 0 2.9.1 4.3 0 .7 0 1.3-.2 2-.3.6-.2 1.1-.1 1.7-.1.6 0 1.1-.2 1.6-.7.4-.6-.4-1.4-.9-.8-.3.4-.9.2-1.3.2-.7 0-1.3.1-2 .3-1.3.4-2.7.2-4.1.2q-1-.1-2.1-.1c-.7 0-1.4 0-2.1.2-.6.2-1.2.4-1.8.4-.7 0-1.4-.1-2.1-.1q-2.1-.1-4.2-.1c-.7 0-1.3 0-2 .2-.6.1-1.2.4-1.8.6-1.3.4-2.9.1-4.2 0-1.5-.1-3-.3-4.4-.3-3.1 0-6.2-.1-9.2 0-1.4.1-2.8.2-4.2.1q-1 0-2.1-.1c-.7-.2-1.3-.3-2-.4-.8 0-1.5 0-2.2-.2q-1.1-.3-2.2-.5-2.1-.5-4.3-.7c-1.5-.2-2.9-.4-4.4-.7-1.4-.3-2.6-1-3.9-1.6-1.4-.6-2.8-.9-4.2-1.2-1.5-.4-2.8-.8-4.3-.9-1.4 0-2.8.1-4.2.1-1.5 0-3 0-4.5.2-.5.2-1.1.4-1.7.2q.1.5.3 1l.2-.4c.5-.6-.3-1.4-.8-.8z"/><path class="d" d="M155.3 69.5V77c0 1.2.1 2.4-.2 3.6-.2 1.1-.5 2.1-.6 3.2-.2 1.2-.2 2.5-.4 3.7l-.6 3.4c-.5 2.3-.6 4.6-.9 7-.3 2.3-.1 4.7-.2 7.1 0 1.3-.2 2.5-.3 3.8-.1 1.2 0 2.4-.1 3.6-.1 1.1-.3 2.3-.3 3.5-.1 1.2-.1 2.4-.2 3.6-.1 1.2-.3 2.4-.5 3.7-.1 1.2-.1 2.4-.3 3.5-.2 1.1-.3 2.2-.4 3.2-.1.6-.2 1.1-.3 1.7-.1.5 0 1.1 0 1.6 0 .6-.1 1.1-.3 1.6-.1.6-.2 1.2-.2 1.7-.2 1.3-.3 2.5-.6 3.7-.3 1.2-.5 2.3-.5 3.5 0 1.2-.2 2.3-.3 3.5-.2 1.1-.1 2.3-.3 3.4-.2 1.2-.5 2.3-.8 3.5-.6 2.3-1 4.6-1.4 6.9-.2 1.2-.4 2.4-.5 3.7v3.5c-.2 4.8.9 9.6.2 14.4-.2 1.1-.4 2.3-.5 3.4-.1.6 0 1.2-.1 1.7-.1.6-.2 1.1-.4 1.6-.3 1.1-.4 2.2-.6 3.3-.2 1.2-.5 2.4-.7 3.6-.3 2.3-.3 4.7-.7 7-.2 1.1-.3 2.2-.5 3.3-.2.9-.4 1.7-.3 2.7 0 .6.3 1.8-.1 2.3q.3 0 .6-.1-.3-.2-.6-.3c-.7-.3-1 .9-.3 1.2l.4.2c.2.1.5.1.7-.1 1-1.3.2-3.2.5-4.8.2-1 .3-2.1.5-3.2q.3-1.7.5-3.4c.3-2.4.4-4.9.9-7.3.3-1.1.3-2.3.6-3.4s.6-2 .7-3.1c.1-2.4.7-4.6.8-7 0-2.4 0-4.9-.3-7.2-.3-2.5-.1-4.9-.1-7.4s.5-5 .9-7.4c.4-2.4 1.2-4.6 1.7-6.9.2-1.2.2-2.3.2-3.4.1-1.1.4-2.2.5-3.3 0-.7-.1-1.3 0-1.9 0-.7.2-1.3.3-1.9.3-1.2.5-2.4.6-3.6.1-.6.1-1.2.3-1.8.1-.5.3-1.1.3-1.6.1-.6 0-1.1 0-1.6 0-.6.2-1.2.3-1.8.1-1.1.1-2.2.4-3.2.2-1.2.2-2.3.3-3.5.1-1.2.3-2.5.5-3.7.1-1.2.1-2.4.2-3.6 0-1.2.2-2.4.3-3.6.1-1.2.1-2.4.1-3.6.1-1.3.3-2.5.4-3.8v-3.9c0-1.2 0-2.3.1-3.5.2-1.1.3-2.3.4-3.4.1-2.4.8-4.8 1.1-7.2.2-1.2.2-2.4.4-3.6.2-1.1.5-2.1.7-3.2.2-1.2.1-2.4.1-3.6v-7.5c0-.8-1.1-.8-1.1 0zM50.1 188.3c2.1.1 4.2.3 6.3.1 1 0 2-.3 3-.4 1-.2 2.1-.1 3.2-.1q1.5 0 3.1-.2c1-.1 2.1-.1 3.1-.3 2-.3 4-1.1 5.9-1.8 1.9-.7 3.6-1.7 5.3-2.7 1.7-1 3.5-2 5.2-3.2 1.6-1.1 3.2-2.4 5-3.2.8-.4 1.7-.6 2.5-1q1.2-.6 2.3-1.4.5-.5 1.1-.9c.3-.3.7-.5 1.1-.7q.5-.4.9-.9c.3-.4.4-.8.6-1.3.3-1 1.1-1.5 1.8-2s1.5-.9 2.2-1.5c.7-.6 1.2-1.4 1.7-2.2.2-.4.5-.8.7-1.2.2-.4.3-.7.5-1 .2-.3.5-.3.8-.1.3.4.2.9.4 1.4.1.4.3.7.6 1.1.3.5.5 1 .8 1.6.4 1 .7 2.1 1 3.2q.4 1.6.9 3.3c.6 2.1 1.2 4.3 2.1 6.2.5 1 1.1 1.8 1.6 2.8.4.9.7 1.9 1 2.9.3 1 .8 1.9 1.2 2.9.4 1 .9 2 1.5 2.9.5.9.9 1.9 1.2 2.9.3 1 .6 2 1 3 .8 1.9 2 3.6 3 5.4 1 1.8 1.9 3.6 2.6 5.5.6 2.2.9 4.4 1.5 6.5.3 1 .6 2 .5 3-.1.8 1.1.8 1.1 0 .1-1.1-.2-2.2-.5-3.2l-.8-3.4c-.2-1-.4-2.1-.7-3.2q-.5-1.5-1.2-2.9c-.8-1.8-1.9-3.6-3-5.4-.5-.9-1.1-1.8-1.5-2.8-.4-.9-.6-2-.9-3q-.5-1.5-1.3-2.9c-.5-.9-1-1.8-1.4-2.9-.4-1-1-2-1.3-3q-.5-1.5-1.1-3c-.4-1-1.1-1.9-1.5-2.8-.5-1-.8-2-1.2-3-.7-2.2-1.2-4.5-1.9-6.7-.3-1.1-.6-2.2-1.1-3.2-.2-.5-.4-1-.7-1.4-.3-.4-.5-.8-.5-1.3-.1-.9-.8-1.8-1.8-1.9-.9 0-1.4.8-1.8 1.6-.3.8-.9 1.6-1.4 2.4-.5.8-1.2 1.3-2 1.8s-1.6 1-2.2 1.6c-.3.3-.6.7-.8 1.1-.2.5-.3 1-.6 1.5-.2.3-.5.5-.8.6q-.6.4-1.2.9c-.7.6-1.5 1.1-2.3 1.6-.8.5-1.6.8-2.5 1.1-.9.3-1.7.8-2.6 1.3-1.6 1.1-3.2 2.3-4.9 3.4-1.8 1-3.5 2.1-5.3 3.1q-1.4.8-2.8 1.4c-1 .3-2 .6-2.9 1-1 .3-2 .6-3 .8-1 .2-2.1.3-3.1.4q-1.6.2-3.2.2c-1.1 0-2.2-.1-3.2 0s-2 .4-3 .5c-1 .1-2.1.1-3.1 0-1.1 0-2.1-.1-3.2-.1-.7 0-.7 1.2 0 1.2z"/><path class="d" d="M154.6 83c.4.5.7 1.1 1.1 1.6.4.4.9.8 1.4 1.1l3.4 1.6q.9.5 1.8.8c.7.2 1.4.4 2 .5 1.4.4 2.7.9 4 1.3 1.3.3 2.6.7 4 .8 1.2.1 2.5-.1 3.7-.3q1-.1 1.9 0 .5 0 .9.1c.3.1.5.2.8.4 1.1.4 2.4.1 3.5.1h2c.7-.1 1.2-.3 1.9-.6 1.2-.5 2.5-.4 3.8-.5 1.4-.1 2.6-.5 4-.8 1.3-.3 2.5-.8 3.6-1.6.5-.3 1.1-.7 1.6-1 .6-.3 1.2-.5 1.7-.7 1.1-.5 2.1-1.3 3-2.1 1.9-1.6 3-4.1 4.2-6.3.7-1.2 1.3-2.3 2-3.5.7-1.1 1.6-2 2.3-3.1.3-.6.6-1.2.7-1.9.2-.4.3-.9.4-1.4.2-.8.3-1.7.6-2.5q0-.2.1-.4l.1-.1c0-.1.1 0 0 0 .7-.3.4-1.5-.3-1.2-.7.2-1 1.1-1.2 1.9-.2.7-.3 1.6-.5 2.4-.1.5-.3 1.2-.5 1.7-.2.6-.6 1.1-1 1.6q-1.2 1.5-2.2 3.2c-1.3 2.3-2.4 4.7-3.8 6.9-.7.9-1.5 1.7-2.4 2.4q-.7.5-1.5 1c-.5.3-1.1.5-1.6.8-1.2.5-2.2 1.3-3.3 1.9-1.2.6-2.5.8-3.8 1.1-.6.2-1.3.4-1.9.5-.7 0-1.3 0-1.9.1-.7 0-1.4 0-2 .2-.6.2-1.2.6-1.8.7-.6.1-1.3.1-2 .1-.5 0-1.1 0-1.7.1-.5 0-1.1 0-1.6-.1-.3-.1-.6-.3-.8-.4-.3-.1-.7-.2-1-.2-2.5-.3-4.9.6-7.3.1-2.7-.6-5.3-1.6-8-2.3-1.2-.3-2.4-.9-3.5-1.5-1-.5-2.3-.9-3-1.9-.4-.4-.7-1-1.1-1.5-.4-.6-1.2.3-.8.9zm-45.7-72.6q-.2-.2-.2-.5c-.2-.4-.7-.6-1-.3-.8.8-.8 2.2-1.1 3.2-.2 1.1-.6 2.2-1 3.2-.3.9-.5 1.8-.7 2.7 0 .8 0 1.8.7 2.4.3.3.8.2.9-.3q.1-.1.1-.3c.3-.7-.8-1-1.1-.3q0 .1-.1.3.5-.2 1-.3c-.4-.4-.4-1.1-.3-1.7.2-.8.4-1.6.7-2.3.3-1 .6-1.9.9-2.8q.2-.8.3-1.7c.1-.4.2-.9.5-1.2q-.5-.1-1-.3.2.6.6 1c.5.6 1.3-.3.8-.8zM12.1 97.7c.5.7 1 1.5 1.5 2.2.5.8 1 1.5 1.6 2.2q.7.9 1.4 1.9c.4.6 1 1.1 1.6 1.6 2.7 2 5.7 3.6 8.6 5.4.7.4 1.4.8 2.2.9.2 0 .5 0 .7.1.3 0 .5.3.6.5.2.3.6.2.8 0 .3-.3.2-.6 0-.9-.3-.5-.8-.8-1.4-.9-.6 0-1-.1-1.5-.4-.7-.3-1.4-.8-2-1.1q-1.2-.7-2.3-1.4-2.2-1.3-4.4-2.8c-.6-.4-1.3-.8-1.8-1.4-.4-.6-.8-1.3-1.3-1.9-.6-.7-1.2-1.5-1.8-2.3-.6-.9-1.1-1.7-1.7-2.6-.2-.2-.6-.2-.8 0-.2.3-.2.7 0 .9z"/></svg>