<svg width="224" height="227" viewBox="0 0 224 227" fill="none" xmlns="http://www.w3.org/2000/svg"><path d="M65 139.3s70.7 14.4 85.8 4c-.5 31.1-7 69.1-7 69.1l-14.6 2.8-14-47.2s-.5-11.5-14 1.2c-13.5 12.6-41.1 23-45.9 19.5-4.9-3.4-11.9-19.5-11.9-19.5s22.1 4 21.6-29.9z" fill="#0FA6A6"/><path d="M14.3 96.3l20.5-8.7s-5.9-8.7 1.1-10.4c7-1.7 29.7-6.9 29.7-6.9l-.1 68.4s81.6 12.8 86.4 3.5c4.9-9.3 6-58 6-58s23.7 11.6 32.9 7c9.2-4.7 22.7-16.2 28.1-25.5-8.6-6.4-16.2-15.1-16.2-18.6 0-3.5-11.3 24.4-29.7 11-18.3-13.3-34-27.2-46.9-31.3-13-4.1-45.9-9.3-72.9 2.9-27 12.1-64.8 22-38.9 66.6z" fill="#AFE8D9"/><path d="M105 22.7s-2.7-8.7 3.2-11.6c6-2.9 15.2-2.3 15.2-2.3s4.8 17.4 2.7 18c-2.2.6-21.1-4.1-21.1-4.1zM11.6 97.5s12.4-8.7 16.2-8.7c3.8 0 13.5 16.8 13.5 16.8l-4.9 1.2.5 4-2.1.6-.6 2.3s-15.1-2.9-22.6-16.2zm187.3-52.7s13 23.2 16.2 19.1c3.2-4 8.1-15.6 8.1-15.6h-6.5l4.9-4.7h-3.2l1.6-2.8-3.8-.6 2.7-4.1s-5.4 0-8.1 1.2c-2.7 1.1-5.4.5-11.9 7.5z" fill="#1D1C20"/><path d="M154.4 69.4c.4 8.2-.6 16.3-1.2 24.4a95.796 95.796 0 00-.2 6.2c-.1 1 0 2-.2 2.9a529.927 529.927 0 01-.4 3.3c-.467 4.133-.934 8.233-1.4 12.3-1.8 16.5-3.5 33.1-5.3 49.7a3217.23 3217.23 0 01-2.7 25c-.467 4.2-.934 8.366-1.4 12.5-.2 1.9-.6 3.7-.3 5.6.2 1.6 1 3.2 2.1 4.3 1.1 1.2 2.5 2 3.8 2.9.7.4 1.3.9 1.8 1.6.5.9.2 1.4-.4 2.2-1.8 2.1-4.6 2.4-7.1 2.2-1.4-.1-2.7-.3-4-.5-.667-.067-1.3-.134-1.9-.2-.7-.1-1.3-.4-1.9-.7-.7-.4-1.5-.6-2.1-1.2-.7-.5-1.2-1.2-1.7-1.9-.9-1.3-1.6-2.8-2.2-4.3-.8-1.7-1.2-3.6-1.8-5.4-.7-2-1.2-3.9-1.9-5.9-1.4-3.8-2.8-7.634-4.2-11.5-2.9-7.6-5.7-15.1-8.3-22.8-.8-2.5-1.5-6.6-4-7.9-1.1-.5-2.6-.4-3.6.3-1.2.7-2 2.1-2.7 3.4-1.8 3-4 5.7-6.7 7.9-1.5 1.2-3.1 2.3-4.7 3.5-1.5 1.2-3 2.3-4.7 3.2-3.2 1.9-6.6 3.7-10.2 4.8-3.6 1.1-7.3 1.6-11.1 1.9-3.8.3-7.6.4-11.4.8-1.3.1-2.6.3-3.7 1.2-.8.7-1.4 1.7-1.7 2.8-.5 1.3-.6 2.5-1 3.8-.2.7-.8.8-1.4.5-.9-.4-1.3-1.5-1.8-2.3-1.8-3.1-3.3-6.4-4.2-9.9-.9-3.5-1.3-7.2-1.2-10.8.1-2 2.6-2.5 4-3 1.7-.6 3.3-1.1 5-1.7 3.1-1.1 6.3-2.5 9-4.7 2.3-2 4.2-4.7 5.2-7.7 1.2-3.3 1.2-6.6 1.3-10 .066-4.334.133-8.634.2-12.9.3-17 .3-33.9.8-50.8.066-4.067.2-8.167.4-12.3 0-.8-1.1-.8-1.1 0-.8 17.2-.9 34.4-1 51.6-.1 8.6-.3 17.2-.5 25.8-.1 1.8-.1 3.5-.4 5.3-.3 1.6-.8 3.1-1.5 4.6-1.5 3.2-4 5.6-6.9 7.3-3.1 1.8-6.4 2.8-9.7 4-.867.266-1.7.566-2.5.9-.8.3-1.5.5-2.2 1-1.4 1.2-1.3 2.7-1.2 4.4.1 7.4 2.4 14.6 6.2 20.7.7 1.1 1.9 2.2 3.3 1.8 1.3-.4 1.4-1.8 1.6-2.9.3-1.3.6-2.5 1.2-3.6.8-1.2 1.9-1.7 3.2-1.8 7.6-.8 15.2-.5 22.6-2.6 3.5-1 6.9-2.7 10.1-4.5 1.8-.9 3.4-1.9 5-3.1 1.6-1.2 3.1-2.5 4.7-3.6 2.7-2 5.1-4.5 7-7.4.9-1.4 1.5-3.1 2.8-4.2 1-.9 2.6-1.1 3.6-.1s1.5 2.6 2 3.9c.6 2 1.233 4 1.9 6a403.77 403.77 0 004.2 11.6c2.8 7.7 6 15.2 8.4 23.1.6 2 1.3 3.9 1.9 5.9a27.345 27.345 0 001.8 4.6c.8 1.3 1.7 2.7 2.8 3.7.5.5 1.1.9 1.7 1.2.8.3 1.6.8 2.3 1.1.6.2 1.2.2 1.8.2.733.133 1.433.233 2.1.3 1.4.2 2.7.4 4.1.4 2.5 0 5.1-.6 6.8-2.7 1-1.1 1.4-2.3.5-3.7-.9-1.4-2.3-2.1-3.6-2.9-1.5-1.1-2.8-2.2-3.5-4-.7-1.7-.4-3.4-.2-5.2 1-8.534 1.933-17.067 2.8-25.6 1.8-16.8 3.5-33.6 5.4-50.4.866-8.334 1.8-16.7 2.8-25.1.133-1 .233-2 .3-3 .2-1 .2-2.1.2-3.2.066-2.067.166-4.133.3-6.2.3-4.1.6-8.3.9-12.4.3-4 .4-8 .3-12-.1-.8-1.2-.8-1.2 0zM77.7 23.6c5.2-.4 10.5-.6 15.8-.5 5.3.2 10.5.6 15.7 1.5 4.8.8 9.6 2 14.2 3.6 4.5 1.7 8.8 3.8 12.9 6.4 3.8 2.4 7.5 5.1 10.2 8.8.333.4.633.833.9 1.3.4.7 1.4.1 1-.6-2.5-4-6.1-7-9.9-9.5-4-2.7-8.3-5-12.7-6.8-4.7-1.8-9.5-3.1-14.3-4.1-5.2-1-10.5-1.5-15.7-1.7-5.4-.2-10.8-.1-16.1.2l-2 .2c-.7 0-.8 1.3 0 1.2z" fill="#fff"/><path d="M77.3 22.1c-4.5 1.1-9 2.2-13.4 3.3-4.9 1.2-9.8 2.5-14.6 3.9-4.8 1.4-9.5 3-14.1 5.1-5.2 2.3-10.3 5.1-15 8.4-4.2 3-8.3 6.5-11.7 10.5-3.3 3.8-6.1 8.4-7.3 13.5C.1 72.3.9 78 2.9 83.2c2.1 5.3 5.2 10 8.6 14.4 3.5 4.6 7.2 9.1 11.8 12.4 2.4 1.6 5 3 7.8 3.7.667.133 1.334.233 2 .3.5.1.9.1 1.3-.3.8-1 .4-2.7-.1-3.7-.5-1.2-1.4-2.2-2.6-2.6-.4-.2-.8.3-.7.7.3 1.3 1.1 2.4 2.2 3.1.9.5 2.1.9 3.2.7.5 0 1.1-.3 1.3-.7.3-.5.1-1.2.1-1.7-.2-1.4-.9-2.5-1.8-3.5l-.8.8c.2.2.4.367.6.5 0 .1.1.1.1.2-.066-.067-.1-.167-.1-.3.2-.267.4-.5.6-.7.2.133.267.167.2.1 0-.1-.1-.1-.1-.1a1.78 1.78 0 00-.5-.5c-.2.333-.4.633-.6.9 1 .9 2.2 1.7 3.6 1.7 1.2 0 2.6-.6 2.8-2 .2-1.4-.8-2.9-1.5-4a146.55 146.55 0 00-2.5-4.4 563.027 563.027 0 00-4.9-8.6c-.866-1.466-1.7-2.933-2.5-4.4-.4-.6-.7-1.2-.8-2-.2-.6-.3-1.1 0-1.7 1.1-2.8 4.2-3.7 6.6-4.5 2.9-1.1 5.9-2 8.8-2.8 6-1.5 12-2.8 18-4.3l4.6-1.2c.7-.2 1.4-.5 2.2-.8a19.87 19.87 0 012.1-.9c1.467-.666 2.9-1.333 4.3-2 .4-.2.8-.4 1.1-.6.3-.2.5-.5.7-.7.5-.5 1-.9 1.6-1.2.2-.1.3-.1.5-.2l.4-.4c.2-.267.467-.466.8-.6.7-.4.1-1.5-.6-1.1a3.134 3.134 0 00-.8.6c-.1.1-.2.3-.4.4a1.164 1.164 0 01-.3.2c-.6.3-1.2.7-1.7 1.1-.2.267-.4.5-.6.7-.3.3-.7.4-1 .6-.733.334-1.466.7-2.2 1.1l-4.2 1.8c-.8.3-1.5.6-2.2.8-.733.2-1.5.4-2.3.6-5.9 1.6-11.9 2.8-17.8 4.3-3 .8-5.9 1.6-8.8 2.5-1.466.467-2.9 1-4.3 1.6-1.3.5-2.5 1-3.6 1.9-1 .8-1.8 1.8-2.1 3.1-.2.6-.1 1.3 0 1.9.2.7.4 1.4.7 2 .8 1.4 1.7 2.8 2.5 4.3.867 1.4 1.7 2.834 2.5 4.3 1.6 2.867 3.234 5.7 4.9 8.5.4.7.9 1.5 1.2 2.2.2.5.5 1.2.4 1.7 0 .6-.7.9-1.2 1-.6.1-1.2-.1-1.7-.3-.6-.3-1.2-.8-1.8-1.2-.5-.5-1.1.5-.7.9.3.4.8 1 1.2 1 .3-.1.5-.3.6-.6 0-.5-.7-1-1-1.2-.5-.5-1.3.3-.8.8.7.8 1.2 1.6 1.4 2.6.067.2.1.4.1.6v.6c0 .2.034.167.1-.1 0 0-.3.1-.3.2-.2 0-.4.1-.6.1-1.7-.1-3.3-1.1-3.8-3-.2.267-.433.533-.7.8 1.1.4 1.9 1.5 2.2 2.7.067.267.1.567.1.9 0 .2 0 .5-.2.7.1-.1-.1-.1-.2-.1a5.062 5.062 0 00-1-.1c-2.7-.5-5.3-1.7-7.6-3.3-4.6-3-8.3-7.3-11.7-11.7C9.7 93.5 6.7 89 4.5 84c-2.1-4.8-3.2-10.3-2.4-15.6.8-5 3.3-9.5 6.3-13.3 3.2-3.9 7-7.2 11-10.2 4.4-3.3 9.2-6.1 14.2-8.5 4.5-2.1 9.1-3.8 13.9-5.2 4.5-1.4 9.1-2.7 13.7-3.8 4.534-1.2 9.067-2.333 13.6-3.4a42.97 42.97 0 002.8-.7c.7-.2.4-1.3-.3-1.2zM145.5 42c.2 1 1.2 1.7 1.8 2.3 1.1 1 2.3 1.9 3.5 2.8 1.133.8 2.266 1.633 3.4 2.5.333.2.7.466 1.1.8.066 0 .1.033.1.1.1 0 .1 0 0 0-.1-.1.1 0 .1 0 .133.133.3.266.5.4.466.4.966.8 1.5 1.2 2 1.6 4.1 3 6.3 4.4 2.1 1.3 4.3 2.6 6.7 3.5 3.2 1.3 6.7 1.7 10.1 1.1 2.7-.4 5.3-1.7 7.5-3.3 2.4-1.7 4.5-3.8 6.5-5.9 2.1-2.2 4.1-4.5 6.2-6.7 2-2.1 4.2-4.1 6.7-5.6 1.2-.8 2.466-1.434 3.8-1.9.7-.3 1.4-.4 2-.6.8-.2 1.5-.6 2.3-.8.7-.2 1.5-.5 2.2-.3.133 0 .266.066.4.2l.1.1v.1c0-.1 0-.2 0 0v.1c-.3.3-.8.7-1.2 1-.5.4-1.1.7-1.6 1.1-.4.2-.8.4-1.1.8-.1.3 0 .7.3.9.9.5 2.1.6 3.1.3.3-.1.7-.4 1.1-.4.3-.1.4.2.5.5 0 .1.1.3.1.3v.2l-.1.2c-.1.1-.2.2-.3.2-.4.4-.9.6-1.4.9-.5.4-1 .8-1.2 1.5-.1.4.2.7.6.8.8.1 1.6-.3 2.5-.5.3-.1.6-.1.9 0 .133.133.233.266.3.4 0 0 .1.2.1.1v.1c-.1.2 0 0-.1.1 0 .2-.1.2-.1.3-.2.2-.434.4-.7.6-.5.5-1.1.9-1.7 1.3-.4.4-1 1-1 1.7 0 .2.2.5.4.6.5.1 1 0 1.4 0 .6-.067 1.166-.167 1.7-.3.5-.1.9-.1 1.4-.1h.2c.1 0-.2 0 0 0h.1c.1.1-.1-.1-.1 0-.1-.2.1 0 0-.2 0 .1.1-.1 0 .1-.1.1 0 0-.1.2-.067.133-.167.3-.3.5-.267.4-.5.833-.7 1.3a34.625 34.625 0 00-1.5 2.7c-.9 1.8-1.7 3.7-2.5 5.5-1.6 3.7-3.2 7.5-5.1 11-1.9 3.6-4.2 6.8-7.1 9.6-5.6 5.4-12.5 8.7-19.9 10.1-5.6 1-11.4 1-16.9-.3-2.7-.6-5.3-1.5-7.7-3-2.1-1.2-4-3-4.9-5.4a9.46 9.46 0 01-.6-1.8c-.1-.8-1.2-.4-1.1.3 1.2 6 6.9 9 11.9 10.5 5.5 1.7 11.3 2 17 1.3 7.6-1 15-3.9 21.1-9.1 3.2-2.7 5.9-5.9 8.1-9.5 2.1-3.6 3.7-7.4 5.4-11.3 1.6-3.8 3.3-7.7 5.5-11.2.3-.5.7-1.1.5-1.7-.1-.6-.6-.8-1.1-.8-1-.2-2.2.2-3.2.3-.2.066-.434.1-.7.1h-.3c.1 0-.2 0 0 0h-.2c.2.2.366.4.5.6v-.1c0-.1-.1.1 0 0 .1-.2 0-.1.2-.3.2-.2.433-.4.7-.6.6-.5 1.2-.9 1.8-1.4.5-.5.9-1.1.8-1.9-.2-.9-1.1-1.6-2-1.6-1 0-1.9.7-2.9.5.133.266.3.533.5.8 0 0 .1-.2 0-.1l.1-.1.1-.1c0-.067.033-.1.1-.1.1-.2.4-.3.7-.5.5-.3 1.1-.6 1.5-1.1.5-.5.7-1.2.4-1.8-.2-1-1-1.8-2-1.5-.5.1-.9.4-1.3.5-.667.133-1.334.033-2-.3.066.266.133.566.2.9.1-.1-.1.1 0 0 .066 0 .1-.034.1-.1.066-.067.133-.1.2-.1.2-.134.4-.3.6-.5.6-.3 1.2-.7 1.7-1.1.9-.6 2.1-1.8 1-3-1.2-1.2-3.3-.4-4.7.1-1.3.5-2.7.8-4.1 1.4-2.7 1.1-5.2 2.8-7.4 4.8-2.3 2-4.3 4.3-6.3 6.5-2.1 2.2-4.1 4.5-6.3 6.5-2 1.8-4.3 3.5-6.9 4.5-2.7 1.1-5.6 1.3-8.5.8-4.6-.7-8.8-3.4-12.8-6-2.9-1.9-5.5-4.2-8.4-6.2l-3.6-2.8c-1-.8-2.1-1.6-2.9-2.5a.648.648 0 01-.3-.3l-.1-.1c.1.1 0-.1 0 0 0-.067-.034-.134-.1-.2-.1-.2 0 .1 0-.1-.2-.7-1.3-.4-1.1.3zm-39.9-19.8c0-3.1.8-6.2 2.2-8.8 1.2-2.6 3.2-5.1 6-5.9 2.5-.8 5.3.2 7.1 2.2 1.8 2 2.8 4.9 3.3 7.6.5 3 .5 6.3-.4 9.3.134-.2.267-.366.4-.5-.133.067-.3.1-.5.1-.7.1-.4 1.3.3 1.2.2-.066.367-.1.5-.1.2 0 .3-.2.4-.4.9-2.8.9-5.9.6-8.9-.4-3-1.4-6.2-3.3-8.6-1.9-2.3-4.7-3.7-7.6-3.4-3.1.4-5.6 2.8-7.2 5.6-1.7 2.8-2.7 6.1-2.9 9.5-.066.334-.1.7-.1 1.1 0 .7 1.2.7 1.2 0zm42.8 119.5c-.6.2-1.1.3-1.7.4-.7.1-1.3.3-2 .5-1.4.333-2.8.633-4.2.9-2.8.6-5.633 1.1-8.5 1.5-5.7.7-11.4.9-17.1.8-5.7-.1-11.5-.5-17.1-1.4-5.6-1-11.1-2.4-16.6-3.5-5.6-1.2-11.1-2.2-16.8-2.3h-2.1c-.7 0-.7 1.2 0 1.2 5.7-.1 11.3.7 16.9 1.9 5.6 1.1 11.1 2.6 16.7 3.6 5.7 1 11.5 1.5 17.2 1.7 5.8.2 11.6 0 17.3-.6 2.867-.333 5.7-.767 8.5-1.3 1.467-.267 2.9-.567 4.3-.9 1.4-.3 2.7-.7 4-.9a9.46 9.46 0 001.8-.6c.6-.3.1-1.4-.6-1zm-106 28.8c0-.067-.033-.167-.1-.3 0-.8-1-.8-1.1 0-.1 1.2.7 2.4 1.3 3.3.7 1.2 1.3 2.4 2 3.7.7 1.4 1.5 2.8 2.2 4.3l.9 1.8c.3.5.8 1 1.1 1.4.4.6.6 1.2.8 1.9.3.6.6 1.3 1.1 1.8.5.5 1.3-.3.8-.9-.8-.8-.9-2.1-1.5-3.1-.3-.5-.7-.9-1.1-1.4-.3-.5-.5-1-.8-1.5-.667-1.4-1.367-2.8-2.1-4.2-.4-.667-.767-1.367-1.1-2.1-.3-.5-.6-1.1-.9-1.6-.4-.6-.7-1.2-1.1-1.8-.2-.5-.5-1-.5-1.6h-1.1v.3c0 .8 1.2.8 1.2 0zm86.7 45.7c.4-.5 1.3-.5 2-.5.9-.1 1.8.1 2.7.1 2.5.2 5-.6 7.4-1.1.8-.2.5-1.4-.3-1.2-2.4.5-4.9 1.3-7.5 1.1-.9-.1-1.8-.2-2.8-.1-.8 0-1.8.2-2.3.9-.5.6.3 1.4.8.8z" fill="#fff"/><path d="M11.4 96.9c1.4.2 2.3-.9 3.2-1.8 1-1.1 2.2-1.8 3.5-2.5 1.3-.7 2.7-1.4 4-2.1 1.3-.6 2.7-1.2 4.2-1.6.8-.2 1.7 0 2.6-.2.9-.1 1.6-.5 2.5-.4V87H31c-.7 0-.7 1.2 0 1.3h.4c.7 0 .7-1.2 0-1.3-.8-.1-1.5.2-2.2.4-.3.1-.7.2-1.1.2h-1.3c-1.4.1-2.9.8-4.2 1.4-1.4.6-2.7 1.3-4 2-1.3.7-2.7 1.3-3.9 2.3l-1.5 1.5c-.3.4-.9 1-1.5.9-.3 0-.6.1-.7.5 0 .3.1.7.4.7zm187.7-49.3c.4.6.6 1.3.8 2.1.3.7.5 1.5.9 2.2.9 1.6 2 3.1 3.2 4.6 1.2 1.4 2.4 2.8 3.8 3.9.7.6 1.4 1.1 2.2 1.5.7.5 1.4.9 2.1 1.3.7.3 1.3.4 2 .6.5.2 1.1.3 1.4.9.134-.267.267-.567.4-.9a.885.885 0 01-.4.1c-.7.2-.4 1.4.3 1.2a.885.885 0 00.4-.1c.3-.1.5-.5.3-.9-.6-1.2-2-1.5-3.2-1.8-.6-.2-1.1-.5-1.7-.8-.8-.5-1.6-.9-2.3-1.4-1.5-1.1-2.8-2.5-4-3.9-1.2-1.4-2.3-2.8-3.2-4.4-.5-.9-.8-1.7-1.1-2.6-.3-.9-.6-1.8-1.1-2.5-.2-.3-.6-.2-.8 0-.3.2-.2.6 0 .9zm-93-35.3c.8.1 1.7.2 2.5.1.7-.1 1.4-.4 2.1-.7 1.3-.7 2.4-1.8 3.5-2.8 1.3-1.1 2.6-2.3 3.9-3.3 1-.8 2.2-1.3 3.1-2.3.2-.2.4-.6.4-.9 0-.3-.2-.6-.3-.8-.4-.3-.9-.4-1.4-.5-.9-.1-2 .2-2.8.6-1.2.4-2.2 1.2-3.2 1.9-.9.8-1.8 1.7-2.7 2.6-.8.7-1.6 1.5-2.1 2.5-.2.4-.4.9-.4 1.4.1.4.5.7.9.7.7.2 1.4-.1 2.1-.4.8-.3 1.7-.8 2.5-1.4.8-.533 1.6-1.1 2.4-1.7.5-.4 1.1-.9 1.5-1.5.6-.7.9-1.9.5-2.8-.5-.9-1.6-1.3-2.5-1.4-1.1-.1-2.3.1-3.3.5-1.1.5-2 1.3-3 2.1-1 .7-2 1.5-2.8 2.4-.6.8-1.1 1.8-.8 2.9.5 1.6 2.4 1.8 3.8 1.9 1.8.1 3.6-.1 5.4-.4.5-.2 1.1-.3 1.6-.5 1.5-.5 2.9-1.3 4.2-2.2 1-.6 1.9-1.3 2.9-1.8.8-.4 1.7-.9 2.3-1.7.5-.6.3-1.7-.4-2.2-.6-.4-1.5-.2-2.2.1-1.4.4-2.7 1.1-3.9 1.9-1.5.9-4.3 3.3-2.4 5.3 1.1 1.1 2.7 1.3 4.1.9 1.1-.2 2.2-.8 3.1-1.4.7-.6 1.8-1.4 1.9-2.4.1-1.4-1.6-1.3-2.3-.8-1.7 1.2-2.1 4.6.2 5.3 1.4.3 2.7-.6 3.6-1.7.4-.6-.4-1.4-.8-.8-.5.6-1.3 1.3-2.2 1.3-.6 0-1.1-.5-1.1-1.1 0-1 .7-2.4 1.8-2.1a1.567 1.567 0 01-.4-.3l.1.1c-.1.1-.1.1-.2.3-.1.2-.4.5-.6.7a7.37 7.37 0 01-1.5 1c-.9.5-1.9.9-2.9.9a5.535 5.535 0 01-1.5-.4c-.2-.2-.6-.4-.7-.7-.067-.2-.067-.433 0-.7.1-.3.3-.5.5-.8.5-.6 1.2-1.1 1.8-1.5.8-.467 1.6-.9 2.4-1.3.6-.3 1.1-.5 1.7-.7.2 0 .3-.1.6-.1.067 0 .133.033.2.1.1 0-.1-.1 0 0h.1c.1 0 0-.1.1 0 0 .1-.1-.1 0 0v.4c0-.1-.1.1-.1.1-.5.4-1.1.8-1.6 1.1-.5.3-1 .5-1.5.8-.9.7-1.9 1.3-2.9 1.9-1.2.8-2.5 1.4-3.8 1.7-1.2.2-2.367.367-3.5.5-1.2 0-2.5.1-3.6-.2-.133-.067-.233-.1-.3-.1-.2-.1-.2-.1-.3-.1a1.175 1.175 0 00-.3-.2l-.1-.1-.1-.1v-.1c-.067 0-.1-.033-.1-.1-.067-.067-.1-.133-.1-.2 0 .1 0-.1 0 0v-.4c.2-.7.8-1.3 1.3-1.8.6-.6 1.3-1.1 2-1.6.6-.5 1.2-1.1 2-1.6.7-.4 1.6-.7 2.4-.8.7 0 1.3 0 1.9.2.5.2.8.5.8 1 0 .3-.1.6-.3.9V5c.1-.1-.1.1 0 0l-.2.2c-.333.333-.7.667-1.1 1-1 .9-2.1 1.7-3.3 2.3-.533.333-1.067.633-1.6.9l-.8.2h-.1c-.1.1 0 0-.1 0-.067.067-.167.1-.3.1.1 0-.1 0 0 0 0-.067-.033-.1-.1-.1l.2.3v-.2c.1-.1.1-.3.2-.4.4-.7.9-1.3 1.4-1.8 1.2-1.3 2.5-2.4 3.9-3.5 1.3-.8 2.4-1.5 3.9-1.7.3 0 .6 0 .9.1.2 0 .3.1.4.3v-.6c-.4.8-1.4 1.2-2.1 1.7-1 .7-2 1.5-2.9 2.3-.933.8-1.867 1.633-2.8 2.5-.8.8-1.7 1.5-2.7 2.1-.6.2-1.2.4-1.8.5-.7 0-1.5-.1-2.2-.1-.8 0-.8 1.2 0 1.2zm11.3 3.1c.3 1.6 1 3.2 1.7 4.8.1.2.5.3.8.2.2-.2.3-.6.2-.9-.7-1.4-1.3-2.9-1.6-4.5 0-.3-.4-.5-.7-.4-.3.1-.4.4-.4.8zm-3.8 1.6c.8 0 .8-1.3 0-1.3-.7 0-.7 1.3 0 1.3zm8.1-.6c.8 0 .8-1.2 0-1.2-.7 0-.7 1.2 0 1.2zm-9.5 5c.3.4.7.7 1.1 1l2 1c1.2.5 2.8 1 4.1.8.6-.2 1.2-.6 1.3-1.3 0-.3-.1-.7-.4-.8-.3 0-.7.1-.7.5 0 0-.1.3-.1.1v.1c0 .1-.2.1-.1.1-.133.067-.233.1-.3.1h-.7c-.2 0-.5-.1-.8-.2-1.2-.2-2.4-.8-3.6-1.4-.2-.133-.433-.3-.7-.5-.067-.067-.133-.1-.2-.1-.067-.067-.1-.133-.1-.2-.2-.3-.6-.2-.8 0-.3.2-.2.6 0 .8zM39 178.1a3.878 3.878 0 01-.5-.2c-.4-.2-.7.2-.7.5-.2 1.7.7 3.4 1.4 4.8.5 1.3 1.1 2.9 2.5 3.2.2.1.4 0 .5-.1 1.1-1.5.5-3.3-.2-4.7-.8-1.8-1.5-3.5-2.3-5.2-.3-.6-.7-1.4-1.4-1.2-.6.1-.8.7-.8 1.3 0 1.1.4 2.2.8 3.2.5 1.8 1.2 3.7 2.7 4.7.2.2.5.1.7 0 .5-.5.3-1.4.1-1.9-.1-.6-.4-1.2-.6-1.8-.333-1.133-.667-2.3-1-3.5-.3-1.1-.6-2.3-1-3.3a9.56 9.56 0 00-.2-.7c0-.1-.2-.4-.1-.6 0-.2.4-.3.5-.3.4.1.7 1.1.8 1.4.4 1.1.9 2 1.4 3 .5 1.1 1 2.2 1.6 3.2.5 1.1 1.2 2.2 1.7 3.4.2.6.5 1.6 1 2.1.4.3 1 .2 1-.4 0-.9-.6-1.5-1.1-2.1-.7-.8-1.2-1.8-1.8-2.7-.6-.8-1.1-1.7-1.7-2.5-.5-.8-.9-1.6-1.6-2.2-.3-.2-.6 0-.8.3-.6 1 .1 2.4.4 3.4.2.8.4 1.6.7 2.3.4.733.833 1.433 1.3 2.1.9 1.2 2.1 2.2 3.5 2.6.2 0 .4.1.6.2.2.1.3.3.3.5.2.5.4 1.2.3 1.8-.1.6-.7 1.1-1.1 1.6-.467.6-.9 1.267-1.3 2-.5 1.1-1.3 3.1.1 3.9.7.4 1.3 0 1.6-.6.4-.6.5-1.3.5-1.9-.1-1.3-.5-2.5-.9-3.6-.2-.6-.4-1.2-1-1.4-.6-.1-1.1.3-1.2.9-.3.9-.1 2 0 3h1.1c-.1-1.3-.6-2.4-1.1-3.5-.5-1-1-2-1.9-2.5-.3-.1-.5-.1-.7.1-.7.5-.4 1.6-.2 2.3.2.9.3 1.6 1.2 2.1.2.1.6 0 .7-.3.4-.6.1-1.6-.1-2.3-.1-.8-.3-1.8-.9-2.5-.3-.4-.8-.4-1.2.1-.3.4-.4 1-.4 1.5.1 1.1.7 2.3 1.7 2.8.4.2.7.1 1-.2.267-.267.4-.567.4-.9.1-.6-.1-1.3.2-1.8-.267.133-.5.233-.7.3.6.1 1.1.6 1.8.8.3 0 .8 0 1.1-.2.2-.2.2-.6.2-.9 0-.5-.2-1.1-.5-1.6-.2-.5-.5-1-1-1.1-.3-.1-.6.1-.7.4-.1.3-.1.6 0 .9 0 .3.4.5.7.4.3-.1.4-.4.4-.7v-.3c-.2.133-.433.3-.7.5 0-.1-.1-.1 0 0l.2.2c.067.133.133.3.2.5.133.2.2.433.2.7v.2c.1.1 0 .1.1 0l.3-.3c-.3.1-.6-.1-.9-.2-.4-.2-.7-.4-1.1-.5-.2 0-.5.1-.6.3-.3.5-.3.9-.3 1.5 0 .3.1.8-.2 1h.4c-.8-.4-1.4-1.9-.8-2.7l-.4.2c-.2 0-.2-.1-.2-.1v.1c-.067-.067-.067-.067 0 0l.2.4c.1.4.3.8.4 1.2.067.4.133.833.2 1.3v.5c0-.067 0-.067 0 0s.033.033.1-.1c.267-.067.5-.133.7-.2-.5-.3-.5-.7-.6-1.3-.1-.2-.3-1-.1-1.1h-.7c.7.5 1.1 1.3 1.5 2.1.4.9.9 1.9 1 2.9 0 .8 1.1.8 1.1 0-.1-.7-.1-1.5-.1-2.2 0-.2 0-.3.1-.4v-.2l-.1.1c-.2 0-.2-.1-.1 0l.1.2.2.6c.3.9.7 1.9.7 2.9 0 .6 0 1-.3 1.5 0 0-.1.1 0 .1 0 0-.2-.1-.2-.2-.1-.1 0-.4 0-.6.2-1.3 1-2.4 1.8-3.4.3-.5.8-.9 1-1.5.3-.5.3-1.1.2-1.7-.1-1.1-.5-2.3-1.5-2.7-.5-.1-1-.2-1.5-.5-.533-.333-1-.733-1.4-1.2-1-1.1-1.7-2.4-2.2-3.9-.133-.6-.3-1.167-.5-1.7-.1-.4-.3-1.1-.1-1.4l-.8.2c.3.2.5.5.6.8.267.4.533.767.8 1.1l1.5 2.4c.533.8 1.067 1.567 1.6 2.3.2.333.433.667.7 1 .2.2.5.5.5.8.333-.133.633-.267.9-.4-.2-.3-.3-.6-.5-.9-.1-.4-.2-.8-.4-1.2-.5-1-1-2.1-1.6-3.1-.6-1.1-1.1-2.2-1.6-3.3-.5-1-1-1.9-1.4-2.9-.2-.7-.5-1.6-1.2-1.9-.7-.4-1.7 0-2.1.7-.5.9.2 2.1.5 3 .4 1.1.6 2.4 1 3.6.3 1 .6 2.2 1 3.2.133.4.267.767.4 1.1 0 .2 0 .4.1.5v.2c-.1 0 .1-.2 0-.1.2-.067.433-.1.7-.1-1-.7-1.6-2.1-2-3.2-.3-.9-.6-1.9-.8-2.8-.067-.2-.1-.4-.1-.6a.887.887 0 01-.1-.4c0-.1.1-.1.1-.2-.1-.1 0 0-.1.1h-.1c-.2.2-.2-.1-.1.1s.2.4.3.7c.7 1.4 1.3 2.9 2 4.4.3.6.6 1.3.8 2 .2.6.3 1.4-.1 1.9l.6-.2c-.6-.1-.9-.6-1.1-1-.3-.6-.5-1.1-.8-1.7-.6-1.2-1.3-2.6-1.2-4.1-.267.2-.5.4-.7.6.133.067.3.167.5.3.2.1.6-.2.7-.5.1-.3-.2-.6-.4-.7z" fill="#fff"/><path d="M43.6 192.3c0-1-.4-2-.9-2.8-.6-1-1.5-1.8-2.5-1.8-.4 0-.8.4-.8.8 0 .5.3.8.8.8 0 0 .2.1-.1 0 .067 0 .134.034.2.1h.2c-.1 0-.2 0 0 0l.1.1.2.2c0-.1-.2-.2 0 0 .067 0 .1.034.1.1l.2.2c.067 0 .1.034.1.1l.1.1c0 .067-.033.034-.1-.1.1.1.2.2.2.3.134.134.234.3.3.5.067.134.1.234.1.3.067.067.1.134.1.2.067.2.1.367.1.5.067.134.1.234.1.3v-.1.2c0 .4.3.8.8.8.3 0 .7-.4.7-.8zm91.3 24.6c-1.3 0-2.9-.5-4 .3-.3.1-.7.5-.7.9 0 .3.2.6.4.8.4.4 1 .7 1.5.9 1 .3 2.5.6 3.4-.2.5-.5.6-1.1.5-1.7-.2-.9-.9-1.4-1.6-1.7-.8-.2-1.6-.1-2.4-.1-.9.1-2 0-2.7.6-.2.1-.3.4-.3.7.2.6.7 1 1.1 1.3a7.78 7.78 0 001.9 1.1c.5.3 1.2.5 1.9.4.267-.066.5-.2.7-.4.4-.4.2-1-.1-1.4-.8-1.6-3.1-2.6-4.4-.9-1.1 1.4.1 2.8 1.2 3.7 1.3 1 3 1.7 4.6 1.9 1.1.2 2.1.1 3.2 0 .9 0 1.8 0 2.7-.2.8-.2 1.7-.7 2.2-1.5.5-.9.3-2-.2-2.9-1.1-1.6-3.5-2.6-5.3-1.7-.7.4-1.4 1.1-1.2 2.1.2.9 1 1.5 1.7 1.9.8.534 1.633.934 2.5 1.2.533.2 1.1.4 1.7.6.4.1.8.2 1.2.2.8-.1 1.7-1.1 1.7-2.1s-.8-1.7-1.5-2.2c-.8-.4-1.6-.8-2.4-1.1-1.1-.5-2.2-1-3.4-1.1-1 0-1.9.4-2.5 1.3-.5.8-.7 1.8-.1 2.6.9 1.5 2.6 2 4 2.5 1.4.4 2.8 1.1 4.2 1.1.8 0 1.5-.3 2-1 .3-.5.5-1.2.5-1.8-.1-1.2-1-2.1-1.9-2.6-1.2-.6-2.4-1-3.6-1.2-1.1-.3-2.2-.4-3.3-.6h-.2c-.133 0-.233-.033-.3-.1h-1.1c-.7.1-1.6.3-2.1 1-.6.6-.7 1.9-.3 2.7.4.6 1.4 0 1-.6-.2-.4-.1-1.2.2-1.4.5-.3 1.1-.4 1.6-.5.6 0 1.4.2 1.9.2 1.8.3 3.7.6 5.3 1.4.7.3 1.3.7 1.5 1.4.1.1 0-.1.1 0v.7c-.1.4-.2.8-.6 1-.9.5-2.1 0-2.9-.3-1-.333-2-.7-3-1.1-.5-.2-1-.5-1.5-.8-.3-.3-.8-.7-.7-1.2 0-.6.5-1.2 1.1-1.4.7-.2 1.5.1 2.1.3 1.4.5 2.9 1 4.1 1.9.2.2.4.3.5.5.2.3.1.5 0 .8-.4.5-.6.5-1.2.3-1.5-.4-2.9-.9-4.2-1.7-.3-.3-1-.7-1-1.2 0-.4.7-.7 1-.7 1.2-.4 2.9.4 3.6 1.7.3.5.2 1.2-.3 1.6-.5.5-1.1.6-1.7.7-.6.1-1.2.1-1.9.1s-1.5.1-2.2.1a12.026 12.026 0 01-2.7-.5c-.5-.2-.8-.4-1.3-.7-.7-.4-1.8-1.1-2.1-1.9-.1-.2-.1-.2 0-.4 0-.1.2-.3.3-.4.5-.4 1.1-.3 1.6 0 .4.3.9.7 1 1.3.067-.2.1-.4.1-.6v.1c.1 0-.1.1-.2.1.2 0-.1 0 0 0h-.1c-.1 0-.2 0-.3-.1-.4 0-.9-.2-1.3-.4a9.208 9.208 0 01-1.2-.8l-.4-.4c-.1-.1-.1-.1-.1-.2-.1-.1 0 .1-.1-.1a9.56 9.56 0 01-.2.7c.3-.2.7-.3 1.1-.3.5 0 1 0 1.5-.1.7 0 1.7-.1 2.2.5.067.067.133.2.2.4v.3c0 .1 0 0-.1.1 0 0-.2.1-.2.2-.5.2-1.2.1-1.8-.1-.4-.1-.7-.2-1-.4-.067-.066-.133-.1-.2-.1l-.1-.1c-.067-.066-.1-.133-.1-.2.1.2-.1-.2-.1 0v.5c.1-.2.2-.3.5-.3.4-.1.7-.1 1.1-.1.6 0 1.3.1 2 .2.7 0 .7-1.3 0-1.3z" fill="#fff"/><path d="M141.6 220c.4-.9.7-2 .6-3 0-.3-.2-.7-.6-.6-.2 0-.6.2-.5.6v.7l-.1.1c.067-.067.067-.067 0 0v.1a.883.883 0 01-.1.4c-.066.467-.2.933-.4 1.4-.1.3.2.7.4.8.4 0 .6-.1.7-.5z" fill="#fff"/><path d="M140.5 215.8v.1c-.067.133-.1.167-.1.1l.1-.1c.1 0 .2 0 .3-.1.2-.1.4-.2.6-.1.2 0 .5.2.7.4.267.267.567.533.9.8.6.5 1.4.8 2.1 1.2.3.3.6.6.9.8.3.3.8.3 1.1.6.267-.533.533-1.033.8-1.5-.133 0-.233-.067-.3-.2-.3-.3-.8-.3-1.1 0-.3.3-.3.9 0 1.2.2.2.4.367.6.5.9.4 1.6-.9.8-1.5-.4-.2-.9-.3-1.2-.6l-1.2-.9c-.9-.5-1.7-.9-2.4-1.5-.7-.7-1.4-1.2-2.4-.9-.8.3-1.7.7-1.7 1.7 0 1.1 1.5 1.1 1.5 0z" fill="#fff"/><path d="M144.9 219.9h.3c.066.067.133.1.2.1.2 0 .4.034.6.1.066.067.133.1.2.1 0 0 .2.1.1 0 .066.067.166.134.3.2l.1.1.1.1c.1.1 0-.1.1.1v.1c.1.1 0-.1 0 0 .066.067.1.134.1.2.066.267.166.5.3.7.2.5.6.9 1.1.8.3 0 .6-.3.6-.6-.1-.3-.3-.6-.6-.6-.1 0-.2 0 0 0-.067 0-.067 0 0 0 0 .1-.1-.1 0 0a1.116 1.116 0 01-.2-.3c.1.2 0-.1 0 0v-.1c-.2-.5-.3-.9-.6-1.2-.7-.8-1.8-.9-2.7-1-.3 0-.6.3-.6.6s.3.6.6.6z" fill="#fff"/><path d="M139.5 224.2c.7.1 1.5.2 2.2.3.8.1 1.5 0 2.2 0 .8.067 1.6.1 2.4.1.3 0 .6-.1 1-.2.2-.1.4-.2.6-.2.5 0 1 0 1.5-.1.6-.3 1-.8 1.2-1.4.4-1.4-.5-2.7-1.3-3.6-.5-.5-1.3.4-.8.9.6.6 1.5 1.8.8 2.7-.2.3-.6.3-.9.3-.5 0-.9 0-1.4.2-.5.2-1.2.1-1.7.1h-3.9c-.6-.1-1.3-.2-1.9-.3-.8 0-.8 1.2 0 1.2zM13.1 98.9c-.134 0-.234-.033-.3-.1.133.2.266.367.4.5-.3-1.9-2-3.4-3.1-4.8-1.5-1.9-2.7-4.1-3.9-6.2-.6-1-1.1-2-1.6-3-.4-1.1-.8-2.2-1.3-3.2-1.1-2-1.2-4.2-1.6-6.5-.2-1.2-.4-2.3-.4-3.5.1-1.3-.1-2.7.3-4 .6-2.3 1.5-4.4 2.5-6.6.5-.9.9-1.9 1.7-2.6.8-.8 1.8-1.3 2.4-2.2.8-1 1.3-1.8 2.3-2.5.9-.7 1.7-1.5 2.6-2.1 1.9-1.5 3.7-2.8 5.4-4.5.8-.8 1.5-1.6 2.3-2.4.7-.7 1.6-1.3 2.4-2.1.8-.8 1.5-1.6 2.4-2.3 1-.6 1.9-1.3 2.8-2 1.7-1.4 4.1-2.3 6.1-3.1 2.2-.8 4.3-1.8 6.5-2.6a47.589 47.589 0 013.3-.9c1.1-.3 2.3-.4 3.4-.7 1-.3 1.9-.7 2.9-1 1.266-.267 2.566-.533 3.9-.8 2.4-.4 4.8-.7 7.2-1.2 1.1-.2 2.3-.5 3.4-.6 1.2-.1 2.3-.1 3.4-.3 1-.3 2-.4 3-.7 1-.4 2-1 3-1.4 1-.4 1.9-1 3-1.1 1.2 0 2.4.1 3.6-.1 2.3-.2 4.5-.6 6.7-1.2s4.6-.3 6.9-.3c2.2 0 4.4-.4 6.6-.5 2.2-.2 4.4.1 6.4 1.3 1.9 1.1 4 1.1 6.1 1.7 2.2.7 4.3 1.6 6.5 2.4 2.266.8 4.5 1.7 6.7 2.7 2.1 1 4.1 2.2 6.1 3.2 2 .9 4.2 1.6 6.1 2.7 4 2.5 7.1 6.2 10.1 9.9 1.5 1.8 3 3.5 4.8 5.1 1.7 1.5 3.2 2.9 5.1 4 1.9 1.1 4.1 1.4 6 2.4.9.5 1.7.9 2.6 1.2 1.1.3 2.1.9 3.2 1.3 1.9.6 4.3 1.1 6.2.8 1.1-.1 2.1-.3 3.1-.5 1.1-.3 2.3-.2 3.5-.5 2-.5 3.8-1.7 5.7-2.6 1.9-.9 3.9-1.9 5.6-3.3 1.5-1.2 2.1-3.3 3.3-4.9.6-.7 1.3-1.3 1.9-2 .6-.8.8-1.9 1.5-2.6.6-.6 1.4-.9 2-1.7.5-.7.9-1.4 1.2-2.3.2-.7-.9-1.1-1.1-.3-.3 1-1 2-1.8 2.6-.7.6-1.4 1-1.8 1.9-.4 1-.9 1.7-1.7 2.4-.6.7-1.2 1.4-1.7 2.3-.6.9-1.1 2-1.7 2.9-.6.8-1.6 1.3-2.5 1.9-1.9 1.2-4.1 2.2-6.1 3.2-1 .5-1.9 1-3 1.3-1 .3-2.2.2-3.3.4-1.1.2-2.3.6-3.4.7-1.3 0-2.6-.3-3.9-.5-1-.2-2-.5-3-.9-1-.5-2.1-.8-3.1-1.2-.9-.4-1.7-1-2.6-1.3-1.1-.4-2.2-.7-3.3-1.1-2.3-1-4-2.6-5.8-4.2-1.7-1.6-3.2-3.1-4.7-4.9-3-3.7-6-7.3-9.8-9.9-1.8-1.3-3.8-2-5.8-2.9-2.2-.9-4.3-2.2-6.4-3.3-4.2-2-8.5-3.4-12.8-5-1.1-.4-2.1-.8-3.2-1-1.2-.2-2.5-.2-3.5-.8-.9-.4-1.6-.9-2.5-1.2-1-.4-2-.6-3-.7-2.2-.1-4.3.4-6.6.5-2.2.2-4.5 0-6.8 0-1 0-2 .2-3 .5-1.2.3-2.3.5-3.5.7-1.2.2-2.4.4-3.6.5-1.1.1-2.2-.1-3.3.1-1 .2-1.9.8-2.8 1.2-1.1.4-2 1-3.1 1.3-2.1.7-4.3.7-6.5 1-2.4.3-4.8.9-7.2 1.3-2.4.4-4.8.7-7.2 1.4-1 .2-2 .7-3 .9-1.2.3-2.5.4-3.7.8-2.2.6-4.2 1.4-6.3 2.3-1.1.5-2.2.8-3.2 1.2-1.2.5-2.2 1.1-3.4 1.6-1.9.8-3.4 2.2-5.1 3.4-1.7 1.2-3.1 2.8-4.7 4.2-1.8 1.6-3.3 3.5-5.2 5-1.8 1.4-3.6 2.9-5.4 4.2-.7.5-1.4 1-1.9 1.8-.4.6-.7 1.1-1.1 1.6l-1.5 1.2C3.8 59 3.1 61 2.2 62.9c-.5.9-.9 1.9-1.1 3-.3 1-.8 2-.9 3.1-.1 1.2 0 2.4 0 3.5 0 1.2.2 2.3.4 3.5.4 2.1.5 4.3 1.4 6.2 1 2 1.8 4 2.8 6 1.2 2.1 2.4 4.3 3.8 6.2.6.933 1.266 1.8 2 2.6.6.8 1.3 1.6 1.5 2.6 0 .2.2.4.4.4.066.067.166.1.3.1.7.2 1-1 .3-1.2z" fill="#fff"/><path d="M199.6 48c.1 0 0 0 .1.1.067.066.167.133.3.2.134.2.3.4.5.6.334.533.7 1.067 1.1 1.6 1 1.3 1.7 2.9 2.6 4.4.7 1.4 1.6 2.8 2.7 3.8 1 1 2.3 1.8 3.5 2.5 1.4.7 2.9 1.3 4.3 2 .3.1.6.1.8-.3.1-.2 0-.7-.2-.8-2.6-1.2-5.4-2.1-7.5-4.1-1.2-1.1-2-2.5-2.8-4-.8-1.5-1.6-3.1-2.7-4.5-.4-.5-.7-1.1-1.2-1.6-.3-.5-.8-1.1-1.5-1.1s-.7 1.2 0 1.2zm-4.7 4.5a.892.892 0 00-.4-.1l.4.6.2-.6-.1.1.4-.6-.1.1a.648.648 0 01.3-.3l-.1.1c0-.066.066-.1.2-.1h-.2.1c-.2-.2-.434-.4-.7-.6 0 .2.033.433.1.7 0 .1 0 .3.1.4.1.1.3.2.4.2.2 0 .333-.066.4-.2.1-.1.2-.3.2-.4 0-.267-.034-.5-.1-.7 0-.2 0-.3-.2-.5-.134-.133-.3-.166-.5-.1-.5.2-.8.6-1.1 1.1-.2.4-.4.9-.4 1.4 0 .2.2.5.4.6.133 0 .266.033.4.1a.89.89 0 00.4-.1c.1-.1.3-.2.3-.4 0-.3-.1-.7-.4-.7zm9.6-10.9c.4-.8.9-1.6 1.6-2.2.7-.5 1.5-.9 2.3-1.3l2.7-1.2c1-.3 2.1-.7 3.1-.6.6 0 1.2 0 1.8-.1.6-.2 1.2-.4 1.8-.3.8 0 .8-1.3 0-1.3-.6 0-1.1.1-1.7.3-.5.1-1 .2-1.6.2-1.2-.1-2.3.2-3.4.6-1 .3-2 .8-2.9 1.2-.9.4-1.8.8-2.5 1.3-1 .8-1.7 1.7-2.1 2.8-.2.3-.1.7.2.9.2.1.6 0 .7-.3zm-191 55.3c0-.7 0-1.4.3-2 .2-.5.7-.8 1.1-1.1.5-.4.9-.8 1.4-1.3.5-.5 1.1-.8 1.7-1 1.4-.7 2.9-1.2 4.4-1.4a24.915 24.915 0 012.2-.3c.7-.1 1.5 0 2.2-.1.8-.1 1.6-.4 2.4-.4.9-.1 1.9 0 2.8 0 .7 0 .7-1.3 0-1.3h-2.6c-.8.1-1.6.3-2.3.4-.8.2-1.7.1-2.5.2-.733 0-1.5.067-2.3.2-1.6.3-3.2.9-4.7 1.5-.7.3-1.4.6-2 1.2-.4.4-.8.9-1.4 1.3-.5.4-1.1.8-1.4 1.5-.4.8-.4 1.7-.4 2.6 0 .8 1.1.8 1.1 0z" fill="#fff"/><path d="M41.4 108c.3-1.5.7-2.8.2-4.3-.4-1.3-1-2.5-1.9-3.5-.5-.5-1-.8-1.4-1.3-.5-.5-.7-1.2-1.1-1.8-.4-.5-.9-1-1.3-1.6-.4-.6-.6-1.3-1.1-1.9-.3-.6-.8-1.1-1.1-1.7-.4-.733-.767-1.433-1.1-2.1l-1-2.2c-.3-.6-.8-1.2-1-1.9-.3-1.3-.1-2.7-.1-4.1 0-.5 0-1 .2-1.6.2-.5.6-.9 1-1.3 1-.9 2.2-1.6 3.5-2 .6-.1 1.2-.1 1.9-.2s1.3-.5 2-.6c.7-.1 1.5-.2 2.2-.3.7-.2 1.4-.5 2.1-.8 1.4-.5 2.8-1 4.2-1.4 2.933-.8 5.9-1.533 8.9-2.2l4.4-1c1.4-.3 2.8-.6 4.1-1 1.4-.3 2.7-1 4.1-1.4 1.4-.4 2.9-.7 4.2-1.2 1.4-.5 2.7-1.3 3.9-2.1 1.2-.7 2.4-1.4 3.4-2.2.6-.467 1.133-.967 1.6-1.5.5-.5-.3-1.4-.8-.8-1 1-2.1 1.8-3.2 2.5-1.3.8-2.5 1.6-3.8 2.3-1.3.7-2.7 1.1-4.2 1.4-.667.2-1.367.4-2.1.6-.7.3-1.3.6-2 .8-1.4.5-2.7.8-4.1 1.1l-4.4 1c-3 .667-5.967 1.4-8.9 2.2-1.5.4-2.9.8-4.4 1.3-1.4.4-2.7 1.2-4.2 1.3-.7.1-1.5.2-2.2.4-.6.3-1.2.4-1.9.5-1.3.1-2.6.6-3.7 1.4-1.1.7-2.2 1.6-2.7 2.8-.4 1.1-.2 2.4-.3 3.6 0 .7 0 1.4.1 2.1.1.8.4 1.4.7 2l2.1 4.2c.3.8.7 1.5 1.2 2.1.1.2.3.4.5.7.2.3.4.7.5 1.1.4.6.8 1.2 1.3 1.7.4.6.8 1.1 1.1 1.8.4.6.9 1 1.4 1.5.4.4.9.8 1.2 1.3.4.6.7 1.2.9 1.9.3.6.4 1.3.4 2-.1.7-.3 1.4-.4 2-.1.8 1 1.1 1.1.4z" fill="#fff"/><path d="M61.4 70.4c0 1.9.3 3.7.5 5.6.3 1.9.4 3.8.3 5.7 0 1.9-.1 3.8 0 5.7.1.9.2 1.9.3 2.8.1 1 .1 2 .1 3v5.7c0 1 0 1.9-.1 2.9-.2.8-.4 1.7-.6 2.5-.3 1.9-.2 3.8-.2 5.7.1.9 0 1.8.1 2.7.1.9.3 1.7.4 2.6v5.7c0 2-.033 3.966-.1 5.9v6c0 1.9.2 3.8 0 5.6-.1.9-.4 1.7-.7 2.4-.267.866-.5 1.733-.7 2.6-.3.9-.5 1.8-.6 2.7-.1.9-.1 1.8-.2 2.7-.1.8-.2 1.7-.5 2.5l-.9 2.4c-.267.8-.433 1.633-.5 2.5 0 .9.1 1.7.1 2.6-.1 3.4-3.1 4.9-5.5 6.3-1.5.9-3 1.8-4.6 2.7-1.4.7-2.5 1.9-3.9 2.8-.6.4-1.2.9-1.6 1.4-.5.6.3 1.5.8.9s1.1-1 1.7-1.4c.7-.5 1.2-1 1.8-1.5 1.4-1.2 3.1-1.9 4.6-2.8 1.3-.8 2.7-1.5 4-2.4 1.1-.7 2.2-1.6 2.9-2.8a6.176 6.176 0 00.9-2.4c.1-.9 0-1.7 0-2.6-.1-.9 0-1.8.3-2.6.3-.9.6-1.6.9-2.4.6-1.7.6-3.5.8-5.3.2-1.8.7-3.6 1.2-5.3.3-.8.7-1.6.8-2.5.1-.8.1-1.6.1-2.4v-20.8c0-1-.1-1.8-.3-2.7-.1-.9-.1-1.9-.1-2.8v-2.9c0-1 0-1.9.2-2.9.1-.8.3-1.6.5-2.5.1-.9.1-1.8.1-2.8v-3c0-1.9.1-3.9 0-5.8-.2-1.9-.4-3.8-.4-5.7 0-2 .1-3.9 0-5.8 0-1.9-.4-3.8-.6-5.6-.133-1-.2-1.967-.2-2.9 0-.8-1.2-.8-1.1 0z" fill="#fff"/><path d="M43.4 171l.2-.4c0 .067-.034.133-.1.2.3-.4.7-.7 1-1.1a11.02 11.02 0 01-.8-.9c-.2.2-.4.3-.7.5-.3.2-.6.5-.7.9 0 .2 0 .4.1.5 0 .1.2.3.3.3.2 0 .3 0 .5-.1.1 0 .2-.2.2-.3 0-.067.033-.133.1-.2-.067 0-.1.033-.1.1.2-.133.367-.267.5-.4a.972.972 0 00.6-.4c.2-.2.3-.6 0-.9-.2-.2-.5-.2-.8 0-.2.3-.5.5-.7.8a.96.96 0 00-.4.5c-.133.2-.233.4-.3.6 0 .133.033.267.1.4 0 .2.2.3.3.3.2.1.3.1.5 0 .1-.1.2-.2.2-.4zm19.3-32.3a.657.657 0 01-.3.3c-.2.4-.1.9.3 1.1.6.2 1.3.1 1.9-.1.666-.133 1.367-.2 2.1-.2 1.5-.1 3-.1 4.5-.1 1.4-.1 2.8-.1 4.2.2 1.466.333 2.933.733 4.4 1.2 1.4.3 2.7 1.1 4 1.7 1.4.5 2.8.8 4.3.9 1.4.2 2.9.3 4.4.6l2.2.4c.7.2 1.5.4 2.2.6.7.1 1.4.1 2.1.2.7 0 1.4.2 2.2.3 1.4.2 2.8.2 4.2.1 3-.1 6-.1 9.1-.1 1.5 0 3 0 4.6.2 1.4.1 2.9.3 4.4.3.7 0 1.4-.1 2-.3.7-.2 1.2-.5 1.9-.6 1.4-.3 2.8 0 4.2 0 1.4 0 2.8.2 4.1.1.7-.1 1.3-.4 1.9-.5.7-.1 1.5 0 2.2 0 1.4 0 2.9.1 4.3 0 .7 0 1.3-.2 2-.3.6-.2 1.1-.1 1.7-.1.6 0 1.1-.2 1.6-.7.4-.6-.4-1.4-.9-.8-.3.4-.9.2-1.3.2-.7 0-1.3.1-2 .3-1.3.4-2.7.2-4.1.2-.667-.067-1.367-.1-2.1-.1-.7 0-1.4 0-2.1.2-.6.2-1.2.4-1.8.4-.7 0-1.4-.1-2.1-.1-1.4-.067-2.8-.1-4.2-.1-.7 0-1.3 0-2 .2-.6.1-1.2.4-1.8.6-1.3.4-2.9.1-4.2 0-1.5-.1-3-.3-4.4-.3-3.1 0-6.2-.1-9.2 0-1.4.1-2.8.2-4.2.1-.667 0-1.367-.033-2.1-.1-.7-.2-1.3-.3-2-.4-.8 0-1.5 0-2.2-.2a25.98 25.98 0 00-2.2-.5 30.437 30.437 0 00-4.3-.7c-1.5-.2-2.9-.4-4.4-.7-1.4-.3-2.6-1-3.9-1.6-1.4-.6-2.8-.9-4.2-1.2-1.5-.4-2.8-.8-4.3-.9-1.4 0-2.8.1-4.2.1-1.5 0-3 0-4.5.2-.5.2-1.1.4-1.7.2.066.333.166.667.3 1l.2-.4c.5-.6-.3-1.4-.8-.8z" fill="#fff"/><path d="M155.3 70v7.5c0 1.2.1 2.4-.2 3.6-.2 1.1-.5 2.1-.6 3.2-.2 1.2-.2 2.5-.4 3.7l-.6 3.4c-.5 2.3-.6 4.6-.9 7-.3 2.3-.1 4.7-.2 7.1 0 1.3-.2 2.5-.3 3.8-.1 1.2 0 2.4-.1 3.6-.1 1.1-.3 2.3-.3 3.5-.1 1.2-.1 2.4-.2 3.6-.1 1.2-.3 2.4-.5 3.7-.1 1.2-.1 2.4-.3 3.5-.2 1.1-.3 2.2-.4 3.2-.1.6-.2 1.1-.3 1.7-.1.5 0 1.1 0 1.6 0 .6-.1 1.1-.3 1.6-.1.6-.2 1.2-.2 1.7-.2 1.3-.3 2.5-.6 3.7-.3 1.2-.5 2.3-.5 3.5 0 1.2-.2 2.3-.3 3.5-.2 1.1-.1 2.3-.3 3.4-.2 1.2-.5 2.3-.8 3.5-.6 2.3-1 4.6-1.4 6.9-.2 1.2-.4 2.4-.5 3.7v3.5c-.2 4.8.9 9.6.2 14.4-.2 1.1-.4 2.3-.5 3.4-.1.6 0 1.2-.1 1.7-.1.6-.2 1.1-.4 1.6-.3 1.1-.4 2.2-.6 3.3-.2 1.2-.5 2.4-.7 3.6-.3 2.3-.3 4.7-.7 7-.2 1.1-.3 2.2-.5 3.3-.2.9-.4 1.7-.3 2.7 0 .6.3 1.8-.1 2.3.2 0 .4-.033.6-.1a2.55 2.55 0 00-.6-.3c-.7-.3-1 .9-.3 1.2l.4.2c.2.1.5.1.7-.1 1-1.3.2-3.2.5-4.8.2-1 .3-2.1.5-3.2a60.3 60.3 0 00.5-3.4c.3-2.4.4-4.9.9-7.3.3-1.1.3-2.3.6-3.4s.6-2 .7-3.1c.1-2.4.7-4.6.8-7 0-2.4 0-4.9-.3-7.2-.3-2.5-.1-4.9-.1-7.4s.5-5 .9-7.4c.4-2.4 1.2-4.6 1.7-6.9.2-1.2.2-2.3.2-3.4.1-1.1.4-2.2.5-3.3 0-.7-.1-1.3 0-1.9 0-.7.2-1.3.3-1.9.3-1.2.5-2.4.6-3.6.1-.6.1-1.2.3-1.8.1-.5.3-1.1.3-1.6.1-.6 0-1.1 0-1.6 0-.6.2-1.2.3-1.8.1-1.1.1-2.2.4-3.2.2-1.2.2-2.3.3-3.5.1-1.2.3-2.5.5-3.7.1-1.2.1-2.4.2-3.6 0-1.2.2-2.4.3-3.6.1-1.2.1-2.4.1-3.6.1-1.3.3-2.5.4-3.8V102c0-1.2 0-2.3.1-3.5.2-1.1.3-2.3.4-3.4.1-2.4.8-4.8 1.1-7.2.2-1.2.2-2.4.4-3.6.2-1.1.5-2.1.7-3.2.2-1.2.1-2.4.1-3.6V70c0-.8-1.1-.8-1.1 0zM50.1 188.8c2.1.1 4.2.3 6.3.1 1 0 2-.3 3-.4 1-.2 2.1-.1 3.2-.1 1 0 2.033-.067 3.1-.2 1-.1 2.1-.1 3.1-.3 2-.3 4-1.1 5.9-1.8 1.9-.7 3.6-1.7 5.3-2.7 1.7-1 3.5-2 5.2-3.2 1.6-1.1 3.2-2.4 5-3.2.8-.4 1.7-.6 2.5-1s1.567-.867 2.3-1.4c.334-.333.7-.633 1.1-.9.3-.3.7-.5 1.1-.7a5.76 5.76 0 00.9-.9c.3-.4.4-.8.6-1.3.3-1 1.1-1.5 1.8-2s1.5-.9 2.2-1.5c.7-.6 1.2-1.4 1.7-2.2.2-.4.5-.8.7-1.2.2-.4.3-.7.5-1 .2-.3.5-.3.8-.1.3.4.2.9.4 1.4.1.4.3.7.6 1.1.3.5.5 1 .8 1.6.4 1 .7 2.1 1 3.2a84.2 84.2 0 00.9 3.3c.6 2.1 1.2 4.3 2.1 6.2.5 1 1.1 1.8 1.6 2.8.4.9.7 1.9 1 2.9.3 1 .8 1.9 1.2 2.9.4 1 .9 2 1.5 2.9.5.9.9 1.9 1.2 2.9.3 1 .6 2 1 3 .8 1.9 2 3.6 3 5.4 1 1.8 1.9 3.6 2.6 5.5.6 2.2.9 4.4 1.5 6.5.3 1 .6 2 .5 3-.1.8 1.1.8 1.1 0 .1-1.1-.2-2.2-.5-3.2l-.8-3.4c-.2-1-.4-2.1-.7-3.2a22 22 0 00-1.2-2.9c-.8-1.8-1.9-3.6-3-5.4-.5-.9-1.1-1.8-1.5-2.8-.4-.9-.6-2-.9-3-.333-1-.766-1.967-1.3-2.9-.5-.9-1-1.8-1.4-2.9-.4-1-1-2-1.3-3-.333-1-.7-2-1.1-3-.4-1-1.1-1.9-1.5-2.8-.5-1-.8-2-1.2-3-.7-2.2-1.2-4.5-1.9-6.7-.3-1.1-.6-2.2-1.1-3.2-.2-.5-.4-1-.7-1.4-.3-.4-.5-.8-.5-1.3-.1-.9-.8-1.8-1.8-1.9-.9 0-1.4.8-1.8 1.6-.3.8-.9 1.6-1.4 2.4-.5.8-1.2 1.3-2 1.8s-1.6 1-2.2 1.6c-.3.3-.6.7-.8 1.1-.2.5-.3 1-.6 1.5-.2.3-.5.5-.8.6-.4.267-.8.567-1.2.9-.7.6-1.5 1.1-2.3 1.6-.8.5-1.6.8-2.5 1.1-.9.3-1.7.8-2.6 1.3-1.6 1.1-3.2 2.3-4.9 3.4-1.8 1-3.5 2.1-5.3 3.1-.933.533-1.866 1-2.8 1.4-1 .3-2 .6-2.9 1-1 .3-2 .6-3 .8-1 .2-2.1.3-3.1.4a25.84 25.84 0 01-3.2.2c-1.1 0-2.2-.1-3.2 0s-2 .4-3 .5c-1 .1-2.1.1-3.1 0-1.1 0-2.1-.1-3.2-.1-.7 0-.7 1.2 0 1.2z" fill="#fff"/><path d="M154.6 83.5c.4.5.7 1.1 1.1 1.6.4.4.9.8 1.4 1.1l3.4 1.6c.6.334 1.2.6 1.8.8.7.2 1.4.4 2 .5 1.4.4 2.7.9 4 1.3 1.3.3 2.6.7 4 .8 1.2.1 2.5-.1 3.7-.3a9.04 9.04 0 011.9 0c.334 0 .634.033.9.1.3.1.5.2.8.4 1.1.4 2.4.1 3.5.1h2c.7-.1 1.2-.3 1.9-.6 1.2-.5 2.5-.4 3.8-.5 1.4-.1 2.6-.5 4-.8 1.3-.3 2.5-.8 3.6-1.6.5-.3 1.1-.7 1.6-1 .6-.3 1.2-.5 1.7-.7 1.1-.5 2.1-1.3 3-2.1 1.9-1.6 3-4.1 4.2-6.3.7-1.2 1.3-2.3 2-3.5.7-1.1 1.6-2 2.3-3.1.3-.6.6-1.2.7-1.9.2-.4.3-.9.4-1.4.2-.8.3-1.7.6-2.5a.9.9 0 01.1-.4l.1-.1c.1 0 0-.1 0 0 .7-.3.4-1.5-.3-1.2-.7.2-1 1.1-1.2 1.9-.2.7-.3 1.6-.5 2.4-.1.5-.3 1.2-.5 1.7-.2.6-.6 1.1-1 1.6-.8 1-1.533 2.067-2.2 3.2-1.3 2.3-2.4 4.7-3.8 6.9-.7.9-1.5 1.7-2.4 2.4-.466.334-.966.667-1.5 1-.5.3-1.1.5-1.6.8-1.2.5-2.2 1.3-3.3 1.9-1.2.6-2.5.8-3.8 1.1-.6.2-1.3.4-1.9.5-.7 0-1.3 0-1.9.1-.7 0-1.4 0-2 .2-.6.2-1.2.6-1.8.7-.6.1-1.3.1-2 .1-.5 0-1.1 0-1.7.1-.5 0-1.1 0-1.6-.1-.3-.1-.6-.3-.8-.4-.3-.1-.7-.2-1-.2-2.5-.3-4.9.6-7.3.1-2.7-.6-5.3-1.6-8-2.3-1.2-.3-2.4-.9-3.5-1.5-1-.5-2.3-.9-3-1.9-.4-.4-.7-1-1.1-1.5-.4-.6-1.2.3-.8.9zm-45.7-72.6a.68.68 0 01-.2-.5c-.2-.4-.7-.6-1-.3-.8.8-.8 2.2-1.1 3.2-.2 1.1-.6 2.2-1 3.2-.3.9-.5 1.8-.7 2.7 0 .8 0 1.8.7 2.4.3.3.8.2.9-.3.067-.067.1-.167.1-.3.3-.7-.8-1-1.1-.3 0 .067-.033.167-.1.3a5.732 5.732 0 011-.3c-.4-.4-.4-1.1-.3-1.7.2-.8.4-1.6.7-2.3.3-1 .6-1.9.9-2.8.134-.533.234-1.1.3-1.7.1-.4.2-.9.5-1.2a5.732 5.732 0 01-1-.3c.134.4.334.733.6 1 .5.6 1.3-.3.8-.8zM12.1 98.2c.5.7 1 1.5 1.5 2.2.5.8 1 1.5 1.6 2.2.467.6.934 1.233 1.4 1.9.4.6 1 1.1 1.6 1.6 2.7 2 5.7 3.6 8.6 5.4.7.4 1.4.8 2.2.9.2 0 .5 0 .7.1.3 0 .5.3.6.5.2.3.6.2.8 0 .3-.3.2-.6 0-.9-.3-.5-.8-.8-1.4-.9-.6 0-1-.1-1.5-.4-.7-.3-1.4-.8-2-1.1-.8-.467-1.566-.933-2.3-1.4a80.816 80.816 0 01-4.4-2.8c-.6-.4-1.3-.8-1.8-1.4-.4-.6-.8-1.3-1.3-1.9-.6-.7-1.2-1.5-1.8-2.3-.6-.9-1.1-1.7-1.7-2.6-.2-.2-.6-.2-.8 0-.2.3-.2.7 0 .9z" fill="#fff"/></svg>