<svg width="882" height="870" viewBox="0 0 882 870" fill="none" xmlns="http://www.w3.org/2000/svg"><path opacity=".5" fill-rule="evenodd" clip-rule="evenodd" d="M325 650c179.493 0 325-145.507 325-325S504.493 0 325 0 0 145.507 0 325s145.507 325 325 325zm0-75c138.071 0 250-111.929 250-250S463.071 75 325 75 75 186.929 75 325s111.929 250 250 250z" fill="#12715B"/><path fill-rule="evenodd" clip-rule="evenodd" d="M557 870c179.493 0 325-145.507 325-325S736.493 220 557 220 232 365.507 232 545s145.507 325 325 325zm0-75c138.071 0 250-111.929 250-250S695.071 295 557 295 307 406.929 307 545s111.929 250 250 250z" fill="#12715B"/></svg>