<svg width="424" height="96" viewBox="0 0 424 96" fill="none" xmlns="http://www.w3.org/2000/svg"><path fill-rule="evenodd" clip-rule="evenodd" d="M5 5h414v86H5V5zm1.49 1.45v83.1h411.02V6.45H6.489z" fill="#12715B"/><path d="M0 0h10v10H0V0z" fill="#fff"/><path fill-rule="evenodd" clip-rule="evenodd" d="M8.5 1.5h-7v7h7v-7zM0 0v10h10V0H0z" fill="#12715B"/><path d="M414 0h10v10h-10V0z" fill="#fff"/><path fill-rule="evenodd" clip-rule="evenodd" d="M422.5 1.5h-7v7h7v-7zM414 0v10h10V0h-10z" fill="#12715B"/><path d="M0 86h10v10H0V86z" fill="#fff"/><path fill-rule="evenodd" clip-rule="evenodd" d="M8.5 87.5h-7v7h7v-7zM0 86v10h10V86H0z" fill="#12715B"/><path d="M414 86h10v10h-10V86z" fill="#fff"/><path fill-rule="evenodd" clip-rule="evenodd" d="M422.5 87.5h-7v7h7v-7zM414 86v10h10V86h-10z" fill="#12715B"/></svg>