<svg width="150" height="50" viewBox="0 0 150 50" xmlns="http://www.w3.org/2000/svg"><g fill="none" fill-rule="evenodd"><rect fill="#121212" width="150" height="50" rx="5"/><path d="M53.862 32.888h-5.928l-1.423 4.287H44l5.615-15.861h2.608l5.615 15.86h-2.554l-1.422-4.286zm-5.314-1.979h4.699l-2.316-6.957h-.065l-2.318 6.957zm21.416.484c0 3.594-1.886 5.903-4.732 5.903a3.829 3.829 0 01-3.567-2.024h-.054V41h-2.328V25.61h2.253v1.924h.043a4.005 4.005 0 013.61-2.044c2.878 0 4.775 2.32 4.775 5.903zm-2.392 0c0-2.34-1.187-3.88-2.997-3.88-1.778 0-2.974 1.572-2.974 3.88 0 2.33 1.196 3.89 2.974 3.89 1.81 0 2.997-1.527 2.997-3.89zm14.87 0c0 3.594-1.885 5.903-4.73 5.903a3.829 3.829 0 01-3.568-2.024h-.054V41h-2.327V25.61h2.252v1.924h.043a4.005 4.005 0 013.61-2.044c2.878 0 4.775 2.32 4.775 5.903zm-2.391 0c0-2.34-1.187-3.88-2.997-3.88-1.778 0-2.974 1.572-2.974 3.88 0 2.33 1.196 3.89 2.974 3.89 1.81 0 2.997-1.527 2.997-3.89zm10.64 1.362c.172 1.573 1.67 2.606 3.717 2.606 1.962 0 3.373-1.033 3.373-2.451 0-1.231-.85-1.968-2.866-2.473l-2.016-.496c-2.855-.703-4.181-2.065-4.181-4.275 0-2.737 2.338-4.617 5.659-4.617 3.286 0 5.538 1.88 5.614 4.617h-2.35c-.14-1.583-1.423-2.539-3.297-2.539-1.875 0-3.158.967-3.158 2.374 0 1.121.82 1.781 2.824 2.286l1.713.43c3.19.769 4.517 2.076 4.517 4.396 0 2.967-2.318 4.826-6.004 4.826-3.449 0-5.777-1.815-5.928-4.684h2.383zm14.571-9.88v2.736h2.156v1.88h-2.156v6.374c0 .99.432 1.452 1.38 1.452a6.99 6.99 0 00.765-.055v1.869a6.27 6.27 0 01-1.292.11c-2.296 0-3.191-.88-3.191-3.122V27.49h-1.649v-1.88h1.649v-2.737h2.338zm3.405 8.518c0-3.638 2.101-5.924 5.377-5.924 3.288 0 5.38 2.286 5.38 5.924 0 3.649-2.081 5.925-5.38 5.925-3.297 0-5.377-2.276-5.377-5.925zm8.385 0c0-2.495-1.122-3.969-3.008-3.969-1.885 0-3.006 1.485-3.006 3.97 0 2.505 1.12 3.967 3.006 3.967 1.886 0 3.008-1.462 3.008-3.968zm4.29-5.782h2.22v1.968h.053c.31-1.267 1.448-2.139 2.728-2.09.268 0 .535.03.797.09v2.22a3.194 3.194 0 00-1.046-.144 2.323 2.323 0 00-1.812.761 2.422 2.422 0 00-.613 1.9v6.859h-2.327V25.61zm16.528 8.167c-.313 2.1-2.317 3.54-4.882 3.54-3.298 0-5.345-2.254-5.345-5.87 0-3.627 2.058-5.98 5.247-5.98 3.137 0 5.11 2.198 5.11 5.705v.813h-8.008v.143a3.05 3.05 0 00.8 2.34 2.924 2.924 0 002.25.936 2.56 2.56 0 002.618-1.627h2.21zm-7.867-3.451h5.668a2.813 2.813 0 00-.761-2.087 2.7 2.7 0 00-2.02-.848 2.842 2.842 0 00-2.043.854 2.957 2.957 0 00-.844 2.08zM48.257 9.376a3.271 3.271 0 012.636 1.044 3.414 3.414 0 01.88 2.742c0 2.435-1.29 3.835-3.516 3.835h-2.7V9.376h2.7zm-1.539 6.543h1.409a2.326 2.326 0 001.872-.773 2.428 2.428 0 00.592-1.968 2.434 2.434 0 00-.602-1.955 2.333 2.333 0 00-1.862-.77h-1.409v5.466zm6.366-1.8a2.742 2.742 0 011.25-2.575 2.627 2.627 0 012.818 0 2.742 2.742 0 011.25 2.574 2.743 2.743 0 01-1.249 2.58 2.628 2.628 0 01-2.82 0 2.743 2.743 0 01-1.25-2.58zm4.174 0c0-1.247-.55-1.976-1.513-1.976-.968 0-1.512.729-1.512 1.975 0 1.257.544 1.98 1.512 1.98.964 0 1.513-.728 1.513-1.98zm8.214 2.877h-1.154l-1.166-4.235h-.088l-1.16 4.235H60.76l-1.554-5.75h1.129l1.01 4.388h.083l1.16-4.389h1.067l1.16 4.389h.087l1.006-4.389h1.113l-1.549 5.751zm2.856-5.75h1.071v.913h.083a1.684 1.684 0 011.683-1.025c.556-.042 1.1.175 1.48.591.38.416.554.986.472 1.548v3.723h-1.113v-3.438c0-.924-.394-1.384-1.217-1.384a1.28 1.28 0 00-1.001.414 1.33 1.33 0 00-.345 1.044v3.364h-1.113v-5.75zM74.89 9h1.113v7.996H74.89V9zm2.66 5.118a2.742 2.742 0 011.251-2.574 2.628 2.628 0 012.818 0 2.742 2.742 0 011.25 2.574 2.743 2.743 0 01-1.249 2.58 2.628 2.628 0 01-2.82 0 2.743 2.743 0 01-1.25-2.58zm4.174 0c0-1.246-.549-1.975-1.512-1.975-.968 0-1.512.729-1.512 1.975 0 1.257.544 1.98 1.512 1.98.963 0 1.512-.728 1.512-1.98zm2.317 1.252c0-1.035.756-1.632 2.098-1.717l1.527-.09v-.496c0-.608-.394-.95-1.154-.95-.622 0-1.052.232-1.176.639H84.26c.114-.988 1.025-1.622 2.304-1.622 1.414 0 2.211.718 2.211 1.933v3.93h-1.071v-.809h-.088a1.888 1.888 0 01-1.694.903 1.682 1.682 0 01-1.314-.435 1.753 1.753 0 01-.566-1.286zm3.625-.491v-.481l-1.377.09c-.776.053-1.129.322-1.129.829 0 .518.44.819 1.046.819.358.037.716-.076.991-.313.276-.237.445-.578.47-.944zm2.57-.76c0-1.818.917-2.97 2.342-2.97a1.854 1.854 0 011.729 1.01h.083V9h1.113v7.996h-1.066v-.908h-.089a1.95 1.95 0 01-1.77 1.003c-1.435 0-2.341-1.151-2.341-2.973zm1.15 0c0 1.22.564 1.953 1.507 1.953.938 0 1.518-.744 1.518-1.949 0-1.198-.586-1.954-1.518-1.954-.937 0-1.507.74-1.507 1.95zm8.721 0a2.742 2.742 0 011.251-2.575 2.627 2.627 0 012.817 0 2.742 2.742 0 011.251 2.574 2.743 2.743 0 01-1.25 2.58 2.628 2.628 0 01-2.82 0 2.743 2.743 0 01-1.249-2.58zm4.174 0c0-1.247-.549-1.976-1.512-1.976-.968 0-1.512.729-1.512 1.975 0 1.257.544 1.98 1.512 1.98.963 0 1.512-.728 1.512-1.98zm2.638-2.874h1.072v.914h.083a1.684 1.684 0 011.683-1.025c.556-.042 1.1.175 1.48.591.38.416.553.986.472 1.548v3.723h-1.113v-3.438c0-.924-.394-1.384-1.217-1.384a1.28 1.28 0 00-1.002.414c-.259.28-.385.661-.345 1.044v3.364h-1.113v-5.75zm11.078-1.432v1.458h1.222v.956h-1.222v2.958c0 .602.243.866.797.866.142 0 .284-.01.425-.026v.945c-.2.037-.403.056-.606.058-1.237 0-1.73-.444-1.73-1.553v-3.248h-.895v-.956h.895V9.813h1.114zM120.74 9h1.103v3.17h.088a1.73 1.73 0 011.72-1.03 1.84 1.84 0 011.465.605c.376.415.55.979.477 1.538v3.713h-1.114v-3.433c0-.918-.42-1.384-1.206-1.384a1.303 1.303 0 00-1.043.393 1.36 1.36 0 00-.377 1.065v3.36h-1.113V9zm11.342 6.444c-.312 1.084-1.342 1.785-2.444 1.663a2.538 2.538 0 01-1.976-.869 2.647 2.647 0 01-.629-2.1c-.1-.761.13-1.53.628-2.107a2.579 2.579 0 011.972-.897c1.57 0 2.516 1.093 2.516 2.9v.396h-3.982v.063a1.54 1.54 0 00.394 1.163c.286.313.688.49 1.108.485a1.344 1.344 0 001.341-.697h1.072zm-3.915-1.854h2.848a1.404 1.404 0 00-.37-1.058 1.348 1.348 0 00-1.018-.432 1.428 1.428 0 00-1.038.431c-.275.28-.427.662-.422 1.06zM31.314 25.167a6.676 6.676 0 004.086 6.141 15.286 15.286 0 01-2.126 4.317c-1.251 1.868-2.564 3.693-4.648 3.727-2.024.046-2.704-1.189-5.026-1.189-2.344 0-3.07 1.155-5.01 1.235-1.985.073-3.501-1.993-4.799-3.844-2.593-3.778-4.613-10.648-1.905-15.323a7.443 7.443 0 016.26-3.808c1.987-.04 3.831 1.338 5.052 1.338 1.198 0 3.477-1.649 5.827-1.403a7.096 7.096 0 015.587 3.012 6.905 6.905 0 00-3.298 5.797zM27.49 13.873a5.744 5.744 0 01-4.531 2.136 6.461 6.461 0 011.6-4.692A6.946 6.946 0 0129.05 9a6.79 6.79 0 01-1.56 4.873z" fill="#FFF"/></g></svg>