<svg width="134" height="40" viewBox="0 0 134 40" fill="none" xmlns="http://www.w3.org/2000/svg"><path opacity=".3" d="M129.642 40H4.358c-1.156 0-2.264-.421-3.082-1.172C.46 38.078 0 37.061 0 36V4c0-1.06.46-2.078 1.276-2.828C2.094.422 3.202 0 4.358 0h125.284c1.156 0 2.264.421 3.082 1.172C133.541 1.922 134 2.939 134 4v32c0 1.06-.459 2.078-1.276 2.828-.818.75-1.926 1.172-3.082 1.172zM4.358 1a3.42 3.42 0 00-2.311.879c-.613.562-.958 1.325-.958 2.121v32c0 .796.345 1.559.958 2.121a3.422 3.422 0 002.31.879h125.285a3.42 3.42 0 002.311-.879c.613-.562.958-1.325.958-2.121V4c0-.796-.345-1.559-.958-2.121A3.422 3.422 0 00129.642 1H4.358z" fill="#121212"/><path fill-rule="evenodd" clip-rule="evenodd" d="M81 29.45c-1.71 0-2.95-.84-3.1-2.12h-2c.13 2.34 2.07 3.82 4.93 3.82 3.07 0 5-1.52 5-3.94 0-1.89-1.1-2.95-3.76-3.58l-1.42-.35c-1.67-.41-2.35-1-2.35-1.87 0-1.14 1.06-1.93 2.62-1.93s2.63.78 2.75 2.07h1.93c-.06-2.23-1.94-3.77-4.67-3.77s-4.71 1.54-4.71 3.77c0 1.8 1.11 2.91 3.48 3.48l1.68.41c1.68.41 2.38 1 2.38 2s-1.17 2.01-2.76 2.01zm-33.73-2H42.3l-1.18 3.49H39L43.7 18h2.17l4.67 12.93h-2.13l-1.14-3.48zm-4.42-1.62h3.91l-1.93-5.67-1.98 5.67zM56.69 31c2.37 0 3.93-1.88 3.93-4.81 0-2.93-1.57-4.82-4-4.82a3.34 3.34 0 00-3 1.67V21.5h-1.88v12.55h1.94v-4.67A3.18 3.18 0 0056.69 31zm1.94-4.81c0-1.91-1-3.17-2.49-3.17-1.49 0-2.47 1.29-2.47 3.17s1 3.17 2.47 3.17c1.47 0 2.49-1.21 2.49-3.14v-.03zM67.07 31c2.37 0 3.93-1.85 3.93-4.78s-1.57-4.82-4-4.82a3.34 3.34 0 00-3 1.67V21.5h-1.88v12.55h1.94v-4.67A3.18 3.18 0 0067.07 31zM69 26.22c0-1.91-1-3.17-2.49-3.17-1.49 0-2.47 1.29-2.47 3.17s1 3.17 2.47 3.17c1.47 0 2.49-1.24 2.49-3.17zm21-6.95v2.23h1.79V23H90v5.19c0 .81.35 1.19 1.14 1.19a4.48 4.48 0 00.64-.05v1.57c-.357.06-.718.09-1.08.09-1.9 0-2.65-.72-2.65-2.55V23h-1.38v-1.5H88v-2.23h2zm7.3 2.12c-2.72 0-4.47 1.86-4.47 4.83 0 2.97 1.73 4.83 4.47 4.83 2.74 0 4.47-1.86 4.47-4.83 0-2.97-1.77-4.83-4.48-4.83h.01zm2.5 4.83c0-2-.93-3.24-2.5-3.24-1.57 0-2.5 1.21-2.5 3.24 0 2.03.93 3.23 2.5 3.23 1.57 0 2.5-1.19 2.5-3.23zm5.42-4.72h-1.86v9.43h1.94v-5.59a1.944 1.944 0 01.504-1.543 1.942 1.942 0 011.496-.627c.295-.01.589.03.87.12v-1.81a2.912 2.912 0 00-.66-.08 2.258 2.258 0 00-2.27 1.71l-.02-1.61zm11.9 6.66c-.26 1.72-1.93 2.89-4.06 2.89-2.75 0-4.45-1.84-4.45-4.79s1.71-4.87 4.37-4.87 4.25 1.79 4.25 4.65v.66h-6.66v.12a2.434 2.434 0 00.658 1.91 2.434 2.434 0 001.872.76 2.129 2.129 0 002.18-1.33h1.84zm-1.83-2.81h-4.71a2.367 2.367 0 011.502-2.186A2.37 2.37 0 01113 23a2.225 2.225 0 011.68.69 2.266 2.266 0 01.6 1.66h.01zM64.72 8h.93v6.52h-.93V8zm-20 1.15a2.76 2.76 0 00-2.19-.85h-2.21v6.22h2.25c1.85 0 2.92-1.14 2.92-3.13a2.72 2.72 0 00-.73-2.28l-.04.04zm-2.3 4.49h-1.13v-4.5h1.17a2 2 0 011.54.63 1.94 1.94 0 01.5 1.59A1.999 1.999 0 0144 13a2 2 0 01-1.54.6l-.04.04zm4.12-1.47a2.241 2.241 0 011-2.1A2.22 2.22 0 0151 12.13a2.22 2.22 0 11-4.43 0l-.03.04zm2.22-1.61c.8 0 1.26.59 1.26 1.61 0 1-.46 1.61-1.26 1.61s-1.26-.59-1.26-1.61.5-1.65 1.3-1.65l-.04.04zm8.09 4h-1L55 11h-.07l-1 3.46H53l-1.32-4.67h.94l.84 3.58h.06l1-3.58h.89l1 3.58h.07l.84-3.58h.93l-1.4 4.77zm3.27-4.69h-.9v4.69h.93v-2.83a1.081 1.081 0 011.12-1.19c.68 0 1 .38 1 1.13v2.81h.93v-3a1.52 1.52 0 00-1.58-1.78 1.4 1.4 0 00-1.4.83h-.06l-.04-.66zM68 10a2.2 2.2 0 00-1 2.1 2.22 2.22 0 104.42 0 2.22 2.22 0 00-1-2.1A2.2 2.2 0 0068 10zm2.43 2.1c0-1-.46-1.61-1.26-1.61s-1.26.59-1.26 1.61.45 1.61 1.26 1.61 1.24-.56 1.24-1.58l.02-.03zm3.67-.38c-1.12.07-1.75.56-1.75 1.4.023.381.19.74.47 1a1.391 1.391 0 001.1.35 1.58 1.58 0 001.41-.73h.07v.66h.89v-3.13c0-1-.66-1.57-1.84-1.57-1.18 0-1.82.51-1.91 1.32h.89c.1-.33.46-.52 1-.52s1 .28 1 .77v.41l-1.33.04zm1.27 1v-.39l-1.15.07c-.64 0-.94.26-.94.68 0 .42.37.66.87.66a1.1 1.1 0 001.22-1v-.02zm4.08-3c-1.18 0-1.94.94-1.94 2.42s.75 2.42 1.94 2.42a1.62 1.62 0 001.48-.81H81v.74h.89V8h-.93v2.57h-.07a1.54 1.54 0 00-1.46-.86l.02.01zm-1 2.42c0 1 .47 1.59 1.26 1.59s1.29-.61 1.29-1.6c0-.99-.49-1.59-1.26-1.59s-1.26.6-1.26 1.59l-.03.01zm8.3-2.1a2.22 2.22 0 00-1 2.1 2.22 2.22 0 104.42 0 2.22 2.22 0 00-1-2.1 2.2 2.2 0 00-2.43-.04l.01.04zm2.43 2.1c0-1-.46-1.61-1.26-1.61s-1.26.59-1.26 1.61.46 1.61 1.26 1.61 1.25-.6 1.25-1.62l.01.01zm3.08-2.34h-.89v4.69h.93v-2.76a1.081 1.081 0 011.12-1.19c.68 0 1 .38 1 1.13v2.81h.93v-3a1.52 1.52 0 00-1.63-1.78 1.4 1.4 0 00-1.4.83h-.07l.01-.73zm8.33-1.17v1.18h1v.78h-1V13c0 .49.2.71.66.71.116.01.234.01.35 0v.78a2.747 2.747 0 01-.5 0c-1 0-1.44-.36-1.44-1.26v-2.64h-.74v-.78h.74V8.62l.93.01zm3.19-.63h-.92v6.52h.92v-2.78a1.12 1.12 0 01.32-.87 1.075 1.075 0 01.87-.32c.65 0 1 .38 1 1.13v2.8h.92v-3a1.538 1.538 0 00-.39-1.26 1.55 1.55 0 00-1.22-.49 1.44 1.44 0 00-1.43.84h-.07V8zm8.51 5.25a1.902 1.902 0 01-2 1.36 2.142 2.142 0 01-2.17-2.42 2.16 2.16 0 01.53-1.72 2.134 2.134 0 011.64-.73c1.3 0 2.09.89 2.09 2.36v.32H109v.06a1.245 1.245 0 00.32.94 1.26 1.26 0 00.93.4 1.121 1.121 0 001.11-.57h.93zm-.88-1.51H109a1.148 1.148 0 01.35-.86 1.22 1.22 0 01.86-.36 1.151 1.151 0 011.16 1.22h.04zM27.28 8.25a5.07 5.07 0 01-1.16 3.64 4.27 4.27 0 01-3.37 1.59A4.86 4.86 0 0123.94 10a5.17 5.17 0 013.34-1.75zM31.42 16A5.15 5.15 0 0029 20.31a5 5 0 003 4.59 11.756 11.756 0 01-1.58 3.22c-.93 1.39-1.91 2.75-3.46 2.78a4 4 0 01-1.76-.42 4.58 4.58 0 00-2-.47 4.88 4.88 0 00-2.1.49 4.529 4.529 0 01-1.63.43c-1.48.06-2.61-1.49-3.57-2.87-1.9-2.82-3.4-7.94-1.39-11.43a5.54 5.54 0 014.66-2.84 6 6 0 012.35.59c.443.216.92.354 1.41.41a4.65 4.65 0 001.36-.4 6.42 6.42 0 013-.65A5.27 5.27 0 0131.42 16z" fill="#121212"/></svg>