<svg version="1.2" xmlns="http://www.w3.org/2000/svg" viewBox="0 0 68 42" width="68" height="42"><style>.b{fill:#fff}</style><path d="M67.1 41.7H.6V0h66.5z" fill="#f42525"/><path class="b" d="M14.2 11.8l1.8 5.1-4.3-3.2-4.3 3.2 1.8-5.1v-.1l-4.5-3h5.4l1.5-5.1 1.6 5.1h5.5l-4.5 3zM26.1 17l.3-1.1.4 1.1-.3 1z"/><path class="b" d="M26.8 17h1.1l-.9.6h-1z"/><path class="b" d="M27 17.6l.4 1-.9-.6-.4-1z"/><path class="b" d="M26.2 17h-1.1l.9.6h1z"/><path class="b" d="M26 17.6l-.4 1 .9-.6.3-1zm-4.9 4.6l.6-.9.1 1.1-.6.9z"/><path class="b" d="M21.8 22.4l1 .3-1 .4-1-.4z"/><path class="b" d="M21.8 23.1v1.1l-.6-.9-.1-1z"/><path class="b" d="M21.2 22.2l-1.1-.3.7.9 1 .2z"/><path class="b" d="M20.8 22.8l-.7.9 1.1-.4.6-.9zm6.7-12.3l.8-.7-.3 1.1-.8.6z"/><path class="b" d="M28 10.9l.9.6h-1.1l-.8-.6z"/><path class="b" d="M27.8 11.5l-.2 1.1-.4-1.1.2-1z"/><path class="b" d="M27.5 10.5l-.9-.6.4 1 .8.6z"/><path class="b" d="M27 10.9l-.9.7 1.1-.1.8-.6zm-2.7-6.5l.6-.9.1 1.1-.6.8z"/><path class="b" d="M25 4.6l1 .3-1 .3-1-.3z"/><path class="b" d="M25 5.2v1.1l-.6-.8-.1-1.1z"/><path class="b" d="M24.4 4.4l-1.1-.3.7.8 1 .3z"/><path class="b" d="M24 4.9l-.7.9 1.1-.3.5-.9z"/></svg>