<svg width="36" height="36" viewBox="0 0 36 36" fill="none" xmlns="http://www.w3.org/2000/svg">
<path d="M25.5547 0H10.4632C3.90795 0 0 3.906 0 10.458V25.524C0 32.094 3.90795 36 10.4632 36H25.5367C32.092 36 35.9999 32.094 35.9999 25.542V10.458C36.0179 3.906 32.11 0 25.5547 0Z" fill="#198754"/>
<path d="M15.4516 24.4437C15.0914 24.4437 14.7493 24.2997 14.4971 24.0477L9.40061 18.9537C8.87835 18.4317 8.87835 17.5677 9.40061 17.0457C9.92287 16.5237 10.7873 16.5237 11.3096 17.0457L15.4516 21.1857L24.7082 11.9337C25.2305 11.4117 26.0949 11.4117 26.6172 11.9337C27.1394 12.4557 27.1394 13.3197 26.6172 13.8417L16.4061 24.0477C16.154 24.2997 15.8118 24.4437 15.4516 24.4437Z" fill="white"/>
</svg>
