<svg version="1.2" xmlns="http://www.w3.org/2000/svg" viewBox="0 0 67 43" width="67" height="43"><style>.b{fill:#fcf5ff}.c{fill:#f42525}.d{fill:#fff}</style><path d="M66.7.9v41.7H.2V.9z" fill="#2e4593"/><path class="b" d="M66.7 38.2v4.4h-6.9L39.4 29.8l-2.1-1.3-2.4-1.5-.8-.5-2.4-1.6-1-.5-.7-.5-1.6-1-.5-.3-.7-.5-7.3-4.5-3.2-2.1L.2 5.2V.8l.2.1h6.7l20.8 13 2.1 1.3.5.3 3.3 2.1.3.2 1.3.8 1.9 1.2.4.2 1.7 1.1 1.6 1 4.5 2.8 3.3 2.1z"/><path class="c" d="M66.7 42.5l.1.1h-4.5L39.4 28.2l-2-1.2-.1-.1-1.9-1.2-1.2-.8-2.2-1.3-2-1.3-.3-.2-1.3-.8-.5-.3-5.5-3.4-3.2-2.1L.2 3.6V.8l.2.1 23.4 14.6 3.2 2.1.9.5 2.1 1.3.7.5 1.3.8 2.3 1.4 3 1.9.4.2 1.1.7.6.4L42 27z"/><path class="b" d="M66.7 1.7V6l-15.1 9.5-3.3 2.1-7.3 4.5-1.6 1.1-1.7 1-.4.3-.7.4-1.2.8-1.3.8-.8.5-3.3 2.1-2.1 1.3L8.4 42.6H.2v-3.5L19.4 27l3.3-2.1 4.5-2.8.7-.4.5-.4 1.6-.9.7-.5 3.4-2.1.3-.2 2.9-1.8.4-.3 1.7-1L61.1.9h5.1z"/><path class="c" d="M66.6 1.9L44.8 15.5l-3.2 2.1-2.2 1.3-1.7 1.1-.4.2-3 1.9-2.3 1.5-1.3.8-.7.4-.2.1-1.9 1.2-1.3.9L1.7 42.6H.2v-2L21.9 27l3.3-2.1 2.7-1.7.5-.3 1.3-.8.3-.2 2-1.2 3.4-2.1 1.5-1 .4-.3 2.1-1.2.8-.6L63.6.9h3.1v.9z"/><path class="d" d="M66.8 27H.1V15.5h66.7z"/><path class="c" d="M66.8 24.9H.1v-7.3h66.7z"/><path d="M37.3.9v41.7H30V.9z" fill="#cd002a"/><path class="d" d="M37.3 27h2.1v15.6H27.9V27H30V15.5h-2.1V.9h11.5v14.6h-2.1z"/><path class="c" d="M37.4.9v41.7h-7.5V.9z"/></svg>