<svg width="34" height="34" viewBox="0 0 34 34" fill="none" xmlns="http://www.w3.org/2000/svg"><mask id="a" style="mask-type:luminance" maskUnits="userSpaceOnUse" x="1" y="1" width="32" height="32"><path d="M25 1H9a8 8 0 00-8 8v16a8 8 0 008 8h16a8 8 0 008-8V9a8 8 0 00-8-8z" fill="#fff"/></mask><g mask="url(#a)"><path d="M25 1H9a8 8 0 00-8 8v16a8 8 0 008 8h16a8 8 0 008-8V9a8 8 0 00-8-8z" fill="#178D72"/><path d="M1 1h32v32H1V1z" fill="url(#paint0_linear_26869_153565)"/><path d="M14.625 7.5A7.125 7.125 0 017.5 14.625v4.75h7.125V26.5h4.75a7.125 7.125 0 017.125-7.125v-4.75h-7.125V7.5h-4.75z" fill="url(#paint1_linear_26869_153565)"/></g><path d="M25 1.667H9A7.333 7.333 0 001.667 9v16A7.333 7.333 0 009 32.333h16A7.333 7.333 0 0032.333 25V9A7.333 7.333 0 0025 1.667z" stroke="url(#paint2_linear_26869_153565)" stroke-width="2"/><defs><linearGradient id="paint0_linear_26869_153565" x1="17" y1="1" x2="18.333" y2="33" gradientUnits="userSpaceOnUse"><stop stop-color="#fff" stop-opacity="0"/><stop offset="1" stop-color="#fff" stop-opacity=".12"/></linearGradient><linearGradient id="paint1_linear_26869_153565" x1="17" y1="7.5" x2="17" y2="26.5" gradientUnits="userSpaceOnUse"><stop stop-color="#fff" stop-opacity=".8"/><stop offset="1" stop-color="#fff" stop-opacity=".5"/></linearGradient><linearGradient id="paint2_linear_26869_153565" x1="17" y1="1" x2="17" y2="33" gradientUnits="userSpaceOnUse"><stop stop-color="#fff" stop-opacity=".12"/><stop offset="1" stop-color="#fff" stop-opacity="0"/></linearGradient></defs></svg>