<svg width="40" height="40" viewBox="0 0 40 40" fill="none" xmlns="http://www.w3.org/2000/svg"><g filter="url(#filter0_dd_1083_50505)"><mask id="a" style="mask-type:luminance" maskUnits="userSpaceOnUse" x="4" y="3" width="32" height="32"><path d="M28 3H12a8 8 0 00-8 8v16a8 8 0 008 8h16a8 8 0 008-8V11a8 8 0 00-8-8z" fill="#fff"/></mask><g mask="url(#a)"><path d="M28 3H12a8 8 0 00-8 8v16a8 8 0 008 8h16a8 8 0 008-8V11a8 8 0 00-8-8z" fill="#178D72"/><path d="M4 3h32v32H4V3z" fill="url(#paint0_linear_1083_50505)"/><path d="M17.625 9.5a7.125 7.125 0 01-7.125 7.125v4.75h7.125V28.5h4.75a7.125 7.125 0 017.125-7.125v-4.75h-7.125V9.5h-4.75z" fill="url(#paint1_linear_1083_50505)"/></g><path d="M28 3.667H12A7.333 7.333 0 004.667 11v16A7.333 7.333 0 0012 34.333h16A7.333 7.333 0 0035.333 27V11A7.333 7.333 0 0028 3.667z" stroke="url(#paint2_linear_1083_50505)" stroke-width="2"/></g><defs><linearGradient id="paint0_linear_1083_50505" x1="20" y1="3" x2="21.333" y2="35" gradientUnits="userSpaceOnUse"><stop stop-color="#fff" stop-opacity="0"/><stop offset="1" stop-color="#fff" stop-opacity=".12"/></linearGradient><linearGradient id="paint1_linear_1083_50505" x1="20" y1="9.5" x2="20" y2="28.5" gradientUnits="userSpaceOnUse"><stop stop-color="#fff" stop-opacity=".8"/><stop offset="1" stop-color="#fff" stop-opacity=".5"/></linearGradient><linearGradient id="paint2_linear_1083_50505" x1="20" y1="3" x2="20" y2="35" gradientUnits="userSpaceOnUse"><stop stop-color="#fff" stop-opacity=".12"/><stop offset="1" stop-color="#fff" stop-opacity="0"/></linearGradient><filter id="filter0_dd_1083_50505" x=".667" y=".667" width="38.667" height="38.667" filterUnits="userSpaceOnUse" color-interpolation-filters="sRGB"><feFlood flood-opacity="0" result="BackgroundImageFix"/><feColorMatrix in="SourceAlpha" values="0 0 0 0 0 0 0 0 0 0 0 0 0 0 0 0 0 0 127 0" result="hardAlpha"/><feOffset dy="1"/><feGaussianBlur stdDeviation="1"/><feColorMatrix values="0 0 0 0 0.0627451 0 0 0 0 0.0941176 0 0 0 0 0.156863 0 0 0 0.06 0"/><feBlend in2="BackgroundImageFix" result="effect1_dropShadow_1083_50505"/><feColorMatrix in="SourceAlpha" values="0 0 0 0 0 0 0 0 0 0 0 0 0 0 0 0 0 0 127 0" result="hardAlpha"/><feOffset dy="1"/><feGaussianBlur stdDeviation="1.5"/><feColorMatrix values="0 0 0 0 0.0627451 0 0 0 0 0.0941176 0 0 0 0 0.156863 0 0 0 0.1 0"/><feBlend in2="effect1_dropShadow_1083_50505" result="effect2_dropShadow_1083_50505"/><feBlend in="SourceGraphic" in2="effect2_dropShadow_1083_50505" result="shape"/></filter></defs></svg>