<svg width="166" height="50" viewBox="0 0 166 50" xmlns="http://www.w3.org/2000/svg"><g fill="none" fill-rule="evenodd"><rect fill="#121212" width="166" height="50" rx="5"/><path d="M58.016 12.24a3.44 3.44 0 01-.919 2.506 3.522 3.522 0 01-2.693 1.115c-1.552-.013-2.946-.976-3.536-2.444a4.012 4.012 0 01.83-4.282 3.63 3.63 0 012.706-1.128 3.722 3.722 0 011.506.314c.443.182.837.47 1.15.839l-.648.664a2.424 2.424 0 00-2.008-.89 2.81 2.81 0 00-2.052.882 2.943 2.943 0 00-.8 2.124 2.96 2.96 0 001.741 2.755 2.841 2.841 0 003.155-.588 2.4 2.4 0 00.613-1.528h-2.657v-.902h3.563c.032.186.049.375.049.564zm5.607-3.13h-3.306v2.38h3.012v.901h-3.012v2.38h3.306v.927h-4.285V8.183h4.285v.927zm4.015 6.588h-.942V9.11h-2.057v-.927h5.105v.927h-2.106v6.588zm5.706 0V8.183h.942v7.515h-.942zm5.13 0h-.943V9.11h-2.057v-.927h5.044v.927h-2.045v6.588zm11.606-.977a3.76 3.76 0 01-5.387 0 4.126 4.126 0 010-5.574A3.753 3.753 0 0187.386 8c1.012 0 1.981.413 2.694 1.147a4.113 4.113 0 010 5.574zm-4.69-.626a2.783 2.783 0 003.992 0 3.261 3.261 0 000-4.309 2.783 2.783 0 00-3.991 0 3.261 3.261 0 000 4.309zm7.102 1.603V8.183h1.15l3.575 5.849v-5.85h.943v7.516h-.98l-3.733-6.125v6.125h-.955zm-9.11 10.959a5.07 5.07 0 013.718 1.527 5.311 5.311 0 011.51 3.796c0 2.937-2.324 5.318-5.195 5.323-2.87.005-5.202-2.37-5.21-5.306-.01-2.937 2.307-5.326 5.178-5.34zm0 8.554a2.982 2.982 0 002.136-.981c.553-.609.843-1.42.803-2.25-.003-1.327-.799-2.517-2.006-3a3.11 3.11 0 00-3.465.807 3.289 3.289 0 00-.538 3.594 3.148 3.148 0 003.07 1.83zm-11.397-8.554h-.013a5.07 5.07 0 013.718 1.527 5.311 5.311 0 011.51 3.796c0 2.938-2.327 5.32-5.199 5.323-2.872.002-5.203-2.376-5.207-5.315-.005-2.938 2.319-5.324 5.19-5.331zm0 8.554h-.013a2.982 2.982 0 002.136-.981c.553-.609.843-1.42.803-2.25-.004-1.328-.801-2.518-2.01-3.001a3.11 3.11 0 00-3.466.814 3.289 3.289 0 00-.529 3.597 3.148 3.148 0 003.079 1.821zm-13.578-6.913l7.432-.063c.085.467.126.94.122 1.415a7.617 7.617 0 01-1.91 5.286 7.26 7.26 0 01-5.644 2.317c-2.964.118-5.753-1.432-7.27-4.04a8.443 8.443 0 010-8.465c1.517-2.608 4.306-4.158 7.27-4.04a7.614 7.614 0 015.546 2.342l-1.555 1.59a5.564 5.564 0 00-4.003-1.615c-3.246 0-5.877 2.691-5.877 6.012 0 3.32 2.631 6.012 5.877 6.012a5.347 5.347 0 004.077-1.654 4.774 4.774 0 001.224-2.843h-5.289v-2.254zm55.473 1.753l.257.564-6.966 2.943a2.64 2.64 0 002.522 1.616 2.962 2.962 0 002.559-1.478l1.775 1.252a5.148 5.148 0 01-4.334 2.355 5.035 5.035 0 01-3.689-1.538 5.274 5.274 0 01-1.478-3.785 5.079 5.079 0 011.322-3.747 4.846 4.846 0 013.576-1.576c2.03.076 3.802 1.427 4.456 3.394zm-7.1 1.779l4.651-1.98a2.012 2.012 0 00-1.934-1.126 2.827 2.827 0 00-1.997.968 2.96 2.96 0 00-.72 2.138zm-5.657 5.16V21.334h2.29V36.99h-2.29zm-3.747-9.143v-.877h2.106v9.481c0 3.933-2.216 5.549-4.897 5.549-2.02.012-3.847-1.232-4.615-3.144l1.995-.852a2.881 2.881 0 002.62 1.892c1.714 0 2.78-1.09 2.78-3.131V36h-.074a3.516 3.516 0 01-2.743 1.252c-2.779-.138-4.962-2.483-4.962-5.33 0-2.846 2.183-5.19 4.962-5.329a3.637 3.637 0 012.743 1.253h.085zm-2.62 7.364h-.012a2.888 2.888 0 002.072-1.004c.527-.61.787-1.415.72-2.227a3.05 3.05 0 00-.724-2.215 2.913 2.913 0 00-2.055-1.016c-1.638.147-2.893 1.55-2.893 3.231 0 1.681 1.255 3.084 2.893 3.231zm29.849-13.877h.012c1.778-.13 3.48.766 4.408 2.323a4.968 4.968 0 010 5.073c-.929 1.557-2.63 2.454-4.408 2.323h-3.195v5.937h-2.29V21.334h5.473zm0 7.515l.049.037c1.45 0 2.626-1.202 2.626-2.686s-1.176-2.687-2.626-2.687h-3.245v5.336h3.196zm14.116-2.255l.061.038c2.608 0 4.64 1.59 4.64 4.334v6.024h-2.204v-1.253h-.073a3.198 3.198 0 01-2.938 1.503 3.488 3.488 0 01-2.61-.902 3.653 3.653 0 01-1.186-2.542c0-2.267 2.216-3.52 4.408-3.52a4.965 4.965 0 012.387.602v-.163a2.27 2.27 0 00-.81-1.533 2.169 2.169 0 00-1.638-.483 2.156 2.156 0 00-2.082 1.152l-2.032-.864c.772-1.557 2.373-2.497 4.077-2.393zm-.282 8.58l.061.037c1.38-.034 2.523-1.102 2.682-2.505a3.992 3.992 0 00-2.082-.526c-1.15 0-2.448.414-2.448 1.666 0 .94 1.04 1.328 1.787 1.328zm13.014-8.204H154l-6.268 14.767h-2.388l2.326-5.273-4.076-9.494h2.448l2.718 6.789h.073l2.62-6.789zm-20.58 10.02V21.334h2.29V36.99h-2.29zM40.22 23.958c.31.18.494.5.494.857a.979.979 0 01-.494.856l-5.618 3.243-3.943-3.812 4.315-4.171 5.246 3.027zm-6.137-3.541l-4.135 3.997L15.658 10.6l12.652 6.484 5.773 3.333zM15.868 39.4l14.08-13.61 3.764 3.638-5.38 3.106L15.868 39.4zm-1.055-28.24l14.424 13.942L14.8 39.057l.013-27.898z" fill="#FFF"/></g></svg>