<svg width="135" height="40" viewBox="0 0 135 40" fill="none" xmlns="http://www.w3.org/2000/svg"><g clip-path="url(#clip0_2481_7515)" fill="#121212"><path opacity=".3" d="M131 40H4a4.004 4.004 0 01-4-4V4a4.005 4.005 0 014-4h127a4.003 4.003 0 014 4v32a4.004 4.004 0 01-4 4zM4 1a3.003 3.003 0 00-3 3v32a3.003 3.003 0 003 3h127a3.002 3.002 0 003-3V4a3.002 3.002 0 00-3-3H4z"/><path d="M11.506 33.039l5.974-6.196 5.973-6.196-5.968-6.184-5.969-6.185a.974.974 0 00-.377.464c-.096.24-.144.498-.139.758v22.329c-.003.255.044.507.138.744.076.187.204.349.368.466zm12.376-12.734l1.78-1.846 1.78-1.846-7.248-4.12-7.246-4.122a1.573 1.573 0 00-.804-.225l5.868 6.079 5.868 6.079h.002zm0 .686l-5.887 6.105-5.887 6.106a1.539 1.539 0 00.841-.231l7.26-4.133 7.26-4.132-1.793-1.857-1.794-1.858zm8.808-1.387l-2.41-1.374-2.413-1.374-1.828 1.896-1.828 1.897 1.842 1.908 1.842 1.908 2.397-1.37 2.397-1.37a1.289 1.289 0 00.764-1.062 1.283 1.283 0 00-.763-1.06zm38.721-6.372a3.235 3.235 0 01-1.249-.236 3.03 3.03 0 01-1.022-.704 3.202 3.202 0 01-.918-2.295c-.004-.43.074-.857.23-1.258a3.08 3.08 0 01.688-1.033 3.012 3.012 0 011.02-.704c.8-.315 1.69-.315 2.49 0a3.24 3.24 0 011.718 1.752c.156.396.234.818.23 1.243 0 .431-.08.858-.238 1.26a3.112 3.112 0 01-.68 1.032 2.986 2.986 0 01-1.02.707c-.396.16-.821.24-1.249.236zm-26.935 0a3.257 3.257 0 01-1.237-.233 3.219 3.219 0 01-1.045-.695 3.086 3.086 0 01-.703-1.04 3.507 3.507 0 010-2.53c.161-.39.4-.744.703-1.04a3.118 3.118 0 011.036-.693c.397-.158.82-.237 1.246-.233a3.18 3.18 0 011.82.568c.158.112.3.243.425.39l.03.036.03.036-.338.332-.338.33-.035-.04-.035-.041a1.805 1.805 0 00-.674-.508 2.244 2.244 0 00-2.95 1.207 2.662 2.662 0 000 1.848c.11.278.278.529.492.737a2.169 2.169 0 001.563.639c.303.003.605-.05.887-.16a2.1 2.1 0 00.72-.48c.128-.128.23-.28.302-.447a2.1 2.1 0 00.156-.592h-2.167V9.69h3.097l.007.042.006.043c.011.078.022.158.03.237.01.076.014.154.015.23.006.398-.06.792-.194 1.166a2.49 2.49 0 01-.58.905 2.883 2.883 0 01-1.007.687c-.401.157-.83.236-1.262.23zM80.29 13.1h-.955l-1.462-2.34-1.463-2.341.012.42.013.423v3.835h-.955V6.9h1.09l.015.024.014.024 1.376 2.204 1.375 2.205-.012-.42-.013-.42V6.9h.965v6.2zm-16.055 0h-.967V7.833H61.59V6.9h4.321v.933h-1.678V13.1h.002zm-3.434 0h-.965V6.9h.965v6.2zm-5.423 0h-.966V7.833h-1.678V6.9h4.322v.933h-1.678V13.1zm-3.255-.01h-3.7V6.9h3.7v.933H49.39v1.7h2.466v.923H49.39v1.7h2.733v.934zm17.726-1.44a2.258 2.258 0 002.42.489c.267-.113.507-.279.707-.488.21-.208.372-.458.478-.733a2.714 2.714 0 000-1.837 2.084 2.084 0 00-.475-.732 2.257 2.257 0 00-2.42-.488 2.25 2.25 0 00-1.183 1.22 2.53 2.53 0 00-.16.919c-.004.313.05.625.158.919.105.275.267.524.475.732v-.001zm-1.716 10.106a4.285 4.285 0 00-3.017 1.202 4.336 4.336 0 00.004 6.096 4.364 4.364 0 006.03.003 4.345 4.345 0 000-6.1 4.285 4.285 0 00-3.017-1.201zm0 6.823a2.33 2.33 0 01-1.683-.723 2.773 2.773 0 010-3.72 2.34 2.34 0 013.366 0 2.78 2.78 0 010 3.724 2.334 2.334 0 01-1.683.719zm-9.31-6.823a4.285 4.285 0 00-3.017 1.202 4.336 4.336 0 00.005 6.096 4.364 4.364 0 006.03.003 4.345 4.345 0 000-6.1 4.287 4.287 0 00-3.018-1.201zm0 6.823a2.33 2.33 0 01-1.682-.723 2.773 2.773 0 010-3.72 2.34 2.34 0 013.366 0 2.78 2.78 0 010 3.724 2.33 2.33 0 01-1.684.719zm-11.077-5.524v1.8h4.322c-.053.454-.17.898-.347 1.32a3.03 3.03 0 01-.63.947 4.38 4.38 0 01-1.259.899 4.83 4.83 0 01-2.076.423 4.676 4.676 0 01-3.362-1.404 4.893 4.893 0 010-6.793 4.78 4.78 0 015.236-1.03c.51.223.976.533 1.38.915l.64-.638.637-.64a6.58 6.58 0 00-1.91-1.297 6.412 6.412 0 00-2.61-.525 6.74 6.74 0 00-4.717 1.938 6.476 6.476 0 000 9.33 6.933 6.933 0 007.322 1.46 5.837 5.837 0 002.005-1.381 5.14 5.14 0 001.23-2.05 7.016 7.016 0 00.336-2.172c0-.21-.008-.41-.024-.598a4.454 4.454 0 00-.075-.524h-6.1l.002.009v.01zm45.31 1.4a4.681 4.681 0 00-1.127-1.712 3.561 3.561 0 00-2.517-.997 3.918 3.918 0 00-2.826 1.178A4.333 4.333 0 0085.401 26a4.27 4.27 0 001.203 3.023 4.313 4.313 0 005.346.55 4.386 4.386 0 001.217-1.206l-.722-.484-.722-.484c-.223.346-.52.638-.87.855a2.332 2.332 0 01-1.22.322c-.43.012-.856-.1-1.225-.324a2.417 2.417 0 01-.842-.965l2.844-1.178 2.844-1.18-.1-.235-.098-.238zm-5.8 1.423a2.378 2.378 0 01.74-1.856c.4-.383.928-.604 1.481-.623a1.98 1.98 0 01.99.25c.264.144.472.373.59.65l-1.9.79-1.9.789zM82.632 30H84.5V17.5h-1.868V30zm-3.067-7.3h-.068a2.602 2.602 0 00-.896-.665 3.203 3.203 0 00-1.348-.29 4.014 4.014 0 00-2.834 1.234 4.316 4.316 0 00-1.243 3.034 4.266 4.266 0 001.24 3.013 4.028 4.028 0 002.837 1.22c.464.002.922-.097 1.343-.291.347-.157.654-.387.901-.676h.068v.61a2.651 2.651 0 01-.609 1.859 2.337 2.337 0 01-3.05.144 2.663 2.663 0 01-.753-1.014l-.81.339-.813.34c.28.659.723 1.235 1.287 1.676a4.263 4.263 0 005.322-.203 4.535 4.535 0 001.201-3.397V22h-1.765v.7h-.01zm-2.145 5.88a2.282 2.282 0 01-1.667-.725 2.651 2.651 0 01-.7-1.841 2.688 2.688 0 01.7-1.858 2.276 2.276 0 011.667-.731 2.13 2.13 0 011.612.736 2.77 2.77 0 01.655 1.853c.022.673-.21 1.33-.649 1.84a2.149 2.149 0 01-1.618.726zM101.8 17.5h-4.466V30h1.868v-4.733h2.601a4.318 4.318 0 002.825-1.047 3.788 3.788 0 00.003-5.667A4.315 4.315 0 00101.8 17.5zm.055 6.02h-2.656v-4.29h2.656a2.13 2.13 0 011.62.702 2.1 2.1 0 01-.004 2.883 2.13 2.13 0 01-1.616.705zm11.534-1.788a4.215 4.215 0 00-1.96.464 3.008 3.008 0 00-1.374 1.446l.828.345.828.344a1.6 1.6 0 01.724-.72c.306-.141.64-.21.976-.203.479-.006.948.14 1.338.418a1.493 1.493 0 01.63 1.193v.132a3.644 3.644 0 00-.768-.31 4.29 4.29 0 00-1.177-.17 4.379 4.379 0 00-2.471.719 2.496 2.496 0 00-1.13 2.093 2.577 2.577 0 00.937 2.007 3.37 3.37 0 002.162.748 2.908 2.908 0 001.498-.365 2.65 2.65 0 00.879-.857h.067v.968h1.801v-4.788a3.265 3.265 0 00-1.095-2.568 4.075 4.075 0 00-2.693-.896zm-.235 6.846a1.974 1.974 0 01-.962-.246.932.932 0 01-.504-.822 1.144 1.144 0 01.647-1.03 2.815 2.815 0 011.331-.304c.33-.007.658.034.976.12.251.077.493.178.724.302a2.247 2.247 0 01-2.212 1.98zM123.745 22l-1.072 2.71-1.072 2.71h-.068l-1.11-2.71-1.112-2.71h-2.01l1.667 3.79 1.667 3.789-.95 2.106-.951 2.106h1.946l2.564-5.896L125.81 22h-2.065zm-16.813 8h1.868V17.5h-1.868V30z"/></g><defs><clipPath id="clip0_2481_7515"><path fill="#fff" d="M0 0h135v40H0z"/></clipPath></defs></svg>