<svg width="19" height="29" viewBox="0 0 19 29" fill="none" xmlns="http://www.w3.org/2000/svg"><path d="M.737 12.065c4.231.07 7.879-3.847 8.77-10.145a16.076 16.076 0 010-1.623c0-.304.338-.445.385-.078.426 3.246.938 6.344 2.569 8.748 1.63 2.403 3.94 3.745 6.303 3.69.197 0 .244.266.189.469.055 0 .07.164 0 .171a1.23 1.23 0 00-.181.047h-.048c-2.182.546-4.617.78-6.381 3.005-2.088 2.63-2.293 6.905-2.254 10.745a.776.776 0 01-.197.554v.039c0 .421-.402.491-.472.093v-.148a.718.718 0 01-.213-.538v-.68c-.473-2.738-.875-5.462-2.127-7.732-1.576-2.833-3.782-4.378-6.177-4.791-.268-.047-.41-.39-.41-.71-.268-.313-.197-1.124.244-1.116z" fill="#6B7280"/><path d="M.737 12.065c4.231.07 7.879-3.847 8.77-10.145a16.076 16.076 0 010-1.623c0-.304.338-.445.385-.078.426 3.246.938 6.344 2.569 8.748 1.63 2.403 3.94 3.745 6.303 3.69.197 0 .244.266.189.469.055 0 .07.164 0 .171a1.23 1.23 0 00-.181.047h-.048c-2.182.546-4.617.78-6.381 3.005-2.088 2.63-2.293 6.905-2.254 10.745a.776.776 0 01-.197.554v.039c0 .421-.402.491-.472.093v-.148a.718.718 0 01-.213-.538v-.68c-.473-2.738-.875-5.462-2.127-7.732-1.576-2.833-3.782-4.378-6.177-4.791-.268-.047-.41-.39-.41-.71-.268-.313-.197-1.124.244-1.116z" fill="#000" fill-opacity=".8"/></svg>