<svg width="55" height="49" viewBox="0 0 55 49" fill="none" xmlns="http://www.w3.org/2000/svg"><path d="M33.46 29.872c-7.734.084-14.445-4.606-16.028-12.151.027-.65.009-1.3-.054-1.948-.042-.364-.602-.526-.71-.096-.776 3.89-1.703 7.624-4.682 10.474a15.977 15.977 0 01-5.326 3.367 16.064 16.064 0 01-6.224 1.053.382.382 0 00-.342.183.374.374 0 00-.001.385c-.108.03-.139.191 0 .203.138.012.229.042.337.054h.06c3.99.651 8.426.932 11.658 3.585 3.828 3.148 4.213 8.274 4.123 12.874a.73.73 0 00.355.658v.06c-.036.495.74.597.872.107 0-.054.03-.108.043-.18a.737.737 0 00.379-.645v-.812c.872-3.286 1.607-6.53 3.894-9.26 2.858-3.37 6.933-5.222 11.285-5.724a.845.845 0 00.54-.283.834.834 0 00.206-.571.735.735 0 00.282-.802.734.734 0 00-.667-.53zm7.589-20.635c3.232.054 6.018-2.945 6.699-7.767a12.25 12.25 0 010-1.242c0-.233.258-.341.294-.06.325 2.485.717 4.857 1.962 6.697 1.246 1.84 3.01 2.868 4.815 2.826.15 0 .187.203.145.358.042 0 .054.126 0 .132a.944.944 0 00-.139.036h-.036c-1.667.418-3.527.597-4.875 2.3-1.595 2.013-1.751 5.287-1.721 8.227a.595.595 0 01-.15.424v.03c0 .322-.307.376-.362.071v-.113a.55.55 0 01-.162-.412v-.52c-.361-2.097-.668-4.182-1.625-5.92-1.204-2.17-2.89-3.352-4.719-3.67-.204-.035-.313-.298-.313-.543-.204-.239-.15-.86.187-.854z" fill="#6B7280"/><path d="M33.46 29.872c-7.734.084-14.445-4.606-16.028-12.151.027-.65.009-1.3-.054-1.948-.042-.364-.602-.526-.71-.096-.776 3.89-1.703 7.624-4.682 10.474a15.977 15.977 0 01-5.326 3.367 16.064 16.064 0 01-6.224 1.053.382.382 0 00-.342.183.374.374 0 00-.001.385c-.108.03-.139.191 0 .203.138.012.229.042.337.054h.06c3.99.651 8.426.932 11.658 3.585 3.828 3.148 4.213 8.274 4.123 12.874a.73.73 0 00.355.658v.06c-.036.495.74.597.872.107 0-.054.03-.108.043-.18a.737.737 0 00.379-.645v-.812c.872-3.286 1.607-6.53 3.894-9.26 2.858-3.37 6.933-5.222 11.285-5.724a.845.845 0 00.54-.283.834.834 0 00.206-.571.735.735 0 00.282-.802.734.734 0 00-.667-.53zm7.589-20.635c3.232.054 6.018-2.945 6.699-7.767a12.25 12.25 0 010-1.242c0-.233.258-.341.294-.06.325 2.485.717 4.857 1.962 6.697 1.246 1.84 3.01 2.868 4.815 2.826.15 0 .187.203.145.358.042 0 .054.126 0 .132a.944.944 0 00-.139.036h-.036c-1.667.418-3.527.597-4.875 2.3-1.595 2.013-1.751 5.287-1.721 8.227a.595.595 0 01-.15.424v.03c0 .322-.307.376-.362.071v-.113a.55.55 0 01-.162-.412v-.52c-.361-2.097-.668-4.182-1.625-5.92-1.204-2.17-2.89-3.352-4.719-3.67-.204-.035-.313-.298-.313-.543-.204-.239-.15-.86.187-.854z" fill="#000" fill-opacity=".8"/></svg>