<svg width="32" height="32" viewBox="0 0 32 32" fill="none" xmlns="http://www.w3.org/2000/svg"><path fill-rule="evenodd" clip-rule="evenodd" d="M7.11 2.696A16 16 0 0116 0a16.018 16.018 0 0116 16A16 16 0 117.11 2.696zm2.033 23.59v1.573a13.599 13.599 0 0013.714 0v-1.573a3.432 3.432 0 00-3.428-3.429H12.57a3.432 3.432 0 00-3.428 3.429zm14.29-4.068a5.717 5.717 0 011.701 3.983 13.714 13.714 0 10-18.268 0 5.716 5.716 0 015.705-5.63h6.858a5.724 5.724 0 014.005 1.647zM12.825 7.82a5.714 5.714 0 116.35 9.503 5.714 5.714 0 01-6.35-9.503zm1.27 7.602a3.429 3.429 0 103.81-5.702 3.429 3.429 0 00-3.81 5.702z" fill="#15171A"/><path fill-rule="evenodd" clip-rule="evenodd" d="M7.11 2.696A16 16 0 0116 0a16.018 16.018 0 0116 16A16 16 0 117.11 2.696zm2.033 23.59v1.573a13.599 13.599 0 0013.714 0v-1.573a3.432 3.432 0 00-3.428-3.429H12.57a3.432 3.432 0 00-3.428 3.429zm14.29-4.068a5.717 5.717 0 011.701 3.983 13.714 13.714 0 10-18.268 0 5.716 5.716 0 015.705-5.63h6.858a5.724 5.724 0 014.005 1.647zM12.825 7.82a5.714 5.714 0 116.35 9.503 5.714 5.714 0 01-6.35-9.503zm1.27 7.602a3.429 3.429 0 103.81-5.702 3.429 3.429 0 00-3.81 5.702z" fill="#15171A"/></svg>