<svg width="32" height="32" viewBox="0 0 32 32" fill="none" xmlns="http://www.w3.org/2000/svg"><path fill-rule="evenodd" clip-rule="evenodd" d="M24.097 3.367c-.411-.033-.94-.034-1.697-.034H11.733c-1.13 0-1.939 0-2.573.053-.625.05-1.022.149-1.34.31-.627.32-1.137.83-1.457 1.457-.162.319-.26.715-.31 1.34C6 7.128 6 7.937 6 9.068v13a4.653 4.653 0 013.333-1.4H26V6.933c0-.757 0-1.286-.034-1.697-.033-.403-.095-.635-.184-.81a2 2 0 00-.874-.875c-.176-.09-.407-.15-.81-.184zm3.236 3.538c0-.723 0-1.306-.038-1.777-.04-.486-.124-.913-.325-1.308a3.333 3.333 0 00-1.457-1.457c-.395-.2-.821-.285-1.307-.324C23.734 2 23.15 2 22.429 2H11.704c-1.095 0-1.958 0-2.652.057-.708.058-1.3.178-1.837.452a4.667 4.667 0 00-2.04 2.039c-.274.538-.394 1.129-.452 1.837-.056.694-.056 1.557-.056 2.652v13.926c0 .754 0 1.397.018 1.952a4.723 4.723 0 00-.018.418c0 .095.02.185.055.267l.001.015c.058.708.178 1.3.452 1.837a4.667 4.667 0 002.04 2.04c.537.273 1.129.393 1.837.451.694.057 1.557.057 2.652.057h10.725c.722 0 1.305 0 1.777-.038.486-.04.913-.124 1.307-.325a3.333 3.333 0 001.457-1.457c.201-.395.285-.822.325-1.308.034-.416.038-.92.038-1.53V6.904zM6.021 24.959c.007.197.017.378.031.547.051.626.15 1.023.311 1.34a3.33 3.33 0 001.457 1.457c.318.162.715.26 1.34.311.634.052 1.442.053 2.573.053H22.4c.758 0 1.286 0 1.697-.035.404-.032.635-.094.811-.183a2 2 0 00.874-.874c.09-.176.15-.408.184-.811.034-.411.034-.94.034-1.697V22H9.333a3.334 3.334 0 00-3.312 2.959z" fill="#12715B"/></svg>