<svg width="32" height="32" viewBox="0 0 32 32" fill="none" xmlns="http://www.w3.org/2000/svg"><path fill-rule="evenodd" clip-rule="evenodd" d="M10.37 3.333h11.26c1.095 0 1.957 0 2.652.057.708.058 1.3.178 1.837.452a4.667 4.667 0 012.04 2.039c.273.538.393 1.129.451 1.837.057.694.057 1.557.057 2.652v2.296a.667.667 0 01-1.334 0V10.4c0-1.131 0-1.94-.052-2.573-.051-.626-.149-1.022-.31-1.34a3.333 3.333 0 00-1.458-1.457c-.318-.162-.714-.26-1.34-.311-.634-.052-1.442-.053-2.573-.053H10.4c-1.131 0-1.94 0-2.573.053-.626.05-1.022.149-1.34.31-.627.32-1.137.83-1.457 1.457-.162.319-.26.715-.311 1.34-.052.634-.052 1.443-.052 2.574v11.2c0 1.13 0 1.939.052 2.573.051.625.149 1.022.311 1.34.32.627.83 1.137 1.457 1.457.318.162.714.26 1.34.31.634.052 1.442.053 2.573.053h2.267a.667.667 0 010 1.333H10.37c-1.096 0-1.958 0-2.652-.056-.709-.058-1.3-.178-1.838-.452a4.667 4.667 0 01-2.039-2.04c-.274-.537-.394-1.129-.452-1.837-.057-.694-.057-1.557-.057-2.652V10.37c0-1.095 0-1.958.057-2.652.058-.708.178-1.3.452-1.837a4.667 4.667 0 012.04-2.04c.537-.273 1.128-.393 1.837-.451.694-.057 1.556-.057 2.651-.057zm6.493 11.358l11.025 3.65c.346.115.648.215.877.314.217.095.512.244.691.535.222.359.26.8.105 1.192-.127.318-.391.516-.59.647-.207.137-.487.288-.808.46l-4.232 2.28-.103.056h-.002v.002l-.057.104-2.28 4.232c-.172.32-.323.6-.46.809-.13.197-.329.462-.646.588a1.334 1.334 0 01-1.193-.104c-.29-.18-.44-.474-.534-.692-.1-.229-.2-.53-.314-.876l-3.65-11.025a9.94 9.94 0 01-.24-.788c-.05-.216-.097-.51.01-.808.133-.376.43-.672.806-.806.297-.107.591-.06.808-.009.219.051.487.14.787.24zm-1.118 1.053l.006.03c.036.152.104.36.216.698l3.631 10.968a10.977 10.977 0 00.297.83l.021-.032c.1-.153.223-.379.414-.734l2.265-4.205.011-.022a1.84 1.84 0 01.173-.279 1.33 1.33 0 01.22-.219 1.84 1.84 0 01.278-.173l.022-.012 4.205-2.264a11.025 11.025 0 00.766-.436 11.015 11.015 0 00-.83-.296l-10.968-3.632a9.408 9.408 0 00-.727-.222z" fill="#12715B"/></svg>