<svg width="32" height="32" viewBox="0 0 32 32" fill="none" xmlns="http://www.w3.org/2000/svg"><path fill-rule="evenodd" clip-rule="evenodd" d="M10 5.818C10 2.605 12.686 0 16 0s6 2.605 6 5.818V6.4h3.6c.64 0 1.167.486 1.198 1.106l1.2 23.272c.017.319-.102.63-.329.86-.226.231-.54.362-.869.362H5.2c-.329 0-.643-.13-.87-.362a1.144 1.144 0 01-.329-.86l1.2-23.272c.032-.62.56-1.106 1.199-1.106H10v-.582zm0 2.91v1.745c0 .642.537 1.163 1.2 1.163.663 0 1.2-.52 1.2-1.163V8.727h7.2v1.746c0 .642.537 1.163 1.2 1.163.663 0 1.2-.52 1.2-1.163V8.727h2.459l1.08 20.946H6.46L7.54 8.727H10zM19.6 6.4h-7.2v-.582c0-1.928 1.612-3.49 3.6-3.49s3.6 1.562 3.6 3.49V6.4z" fill="#15171A"/><path fill-rule="evenodd" clip-rule="evenodd" d="M10 5.818C10 2.605 12.686 0 16 0s6 2.605 6 5.818V6.4h3.6c.64 0 1.167.486 1.198 1.106l1.2 23.272c.017.319-.102.63-.329.86-.226.231-.54.362-.869.362H5.2c-.329 0-.643-.13-.87-.362a1.144 1.144 0 01-.329-.86l1.2-23.272c.032-.62.56-1.106 1.199-1.106H10v-.582zm0 2.91v1.745c0 .642.537 1.163 1.2 1.163.663 0 1.2-.52 1.2-1.163V8.727h7.2v1.746c0 .642.537 1.163 1.2 1.163.663 0 1.2-.52 1.2-1.163V8.727h2.459l1.08 20.946H6.46L7.54 8.727H10zM19.6 6.4h-7.2v-.582c0-1.928 1.612-3.49 3.6-3.49s3.6 1.562 3.6 3.49V6.4z" fill="#15171A"/></svg>