<svg width="32" height="32" viewBox="0 0 32 32" fill="none" xmlns="http://www.w3.org/2000/svg"><path fill-rule="evenodd" clip-rule="evenodd" d="M17.049 2.039l.07.006A14 14 0 0129.962 14.95c.022.265.052.605-.088.92a1.366 1.366 0 01-.586.635 1.33 1.33 0 01-.526.148c-.141.012-.307.012-.473.012H17.047c-.168 0-.332 0-.47-.01a1.349 1.349 0 01-.514-.135 1.333 1.333 0 01-.583-.583 1.347 1.347 0 01-.134-.513 6.05 6.05 0 01-.011-.47V3.71c0-.166 0-.331.013-.473a1.33 1.33 0 01.147-.526c.137-.254.371-.47.635-.586.316-.14.655-.11.92-.087zm-.374 1.314v.005a4.867 4.867 0 00-.008.375v11.2c0 .198 0 .306.007.384v.008l.01.001c.077.007.185.007.383.007h11.2c.197 0 .301 0 .376-.007h.004c0-.066-.006-.158-.02-.338A12.667 12.667 0 0017.013 3.373a4.29 4.29 0 00-.338-.02zm-5.397.153a.667.667 0 01-.344.878 12.667 12.667 0 1016.733 16.543.667.667 0 011.228.52A14 14 0 1110.4 3.161a.667.667 0 01.877.344z" fill="#12715B"/></svg>