<svg width="32" height="32" viewBox="0 0 32 32" fill="none" xmlns="http://www.w3.org/2000/svg"><path fill-rule="evenodd" clip-rule="evenodd" d="M10.37 3.333h11.26c1.095 0 1.957 0 2.652.057.708.058 1.3.178 1.837.452a4.667 4.667 0 012.04 2.039c.273.538.393 1.129.451 1.837.057.694.057 1.557.057 2.652v11.26c0 1.094 0 1.957-.057 2.651-.058.708-.178 1.3-.452 1.837a4.666 4.666 0 01-2.04 2.04c-.537.274-1.128.394-1.836.452-.695.056-1.557.056-2.652.056H10.37c-1.095 0-1.957 0-2.651-.056-.709-.058-1.3-.178-1.838-.452a4.667 4.667 0 01-2.039-2.04c-.274-.537-.394-1.129-.452-1.837-.057-.694-.057-1.557-.057-2.652V10.37c0-1.095 0-1.958.057-2.652.058-.708.178-1.3.452-1.837a4.667 4.667 0 012.04-2.04c.537-.273 1.128-.393 1.837-.451.694-.057 1.556-.057 2.651-.057zM7.827 4.719c-.626.05-1.022.149-1.34.31-.627.32-1.137.83-1.457 1.457-.162.319-.26.715-.311 1.34-.052.634-.052 1.443-.052 2.574v11.2c0 1.13 0 1.939.052 2.573.051.625.149 1.022.311 1.34.32.627.83 1.137 1.457 1.457.318.162.714.26 1.34.31.634.052 1.442.053 2.573.053h11.2c1.131 0 1.94 0 2.573-.052.626-.051 1.022-.15 1.34-.311a3.333 3.333 0 001.457-1.457c.162-.318.26-.715.311-1.34.052-.634.052-1.442.052-2.573V10.4c0-1.131 0-1.94-.052-2.573-.051-.626-.149-1.022-.31-1.34a3.333 3.333 0 00-1.458-1.457c-.318-.162-.714-.26-1.34-.311-.634-.052-1.442-.053-2.573-.053H10.4c-1.131 0-1.94 0-2.573.053zm.84 18.08h14.666a.667.667 0 010 1.334H8.667a.667.667 0 010-1.333z" fill="#12715B"/></svg>