<svg width="32" height="32" viewBox="0 0 32 32" fill="none" xmlns="http://www.w3.org/2000/svg"><path fill-rule="evenodd" clip-rule="evenodd" d="M4 3.333c.368 0 .667.298.667.667v1.066c0 .758 0 1.286.034 1.698.033.403.094.635.184.81a2 2 0 00.874.874c.175.09.407.151.81.184.412.034.94.034 1.698.034h15.466c.758 0 1.286 0 1.697-.034.404-.033.636-.094.811-.184a2 2 0 00.874-.874c.09-.175.151-.407.184-.81.034-.412.034-.94.034-1.698V4a.667.667 0 011.334 0v1.095c0 .722 0 1.305-.039 1.777-.04.486-.123.913-.325 1.308a3.333 3.333 0 01-1.456 1.456c-.395.202-.822.285-1.308.325-.472.039-1.055.039-1.777.039H8.238c-.722 0-1.305 0-1.777-.039-.486-.04-.913-.123-1.308-.325A3.333 3.333 0 013.697 8.18c-.202-.395-.285-.822-.325-1.308-.039-.472-.039-1.055-.039-1.777V4c0-.369.299-.667.667-.667zM3.333 16c0-.368.299-.667.667-.667h.013a.667.667 0 010 1.333H4A.667.667 0 013.333 16zm6 0c0-.368.299-.667.667-.667h.013a.667.667 0 010 1.333H10A.667.667 0 019.333 16zm6 0c0-.368.299-.667.667-.667h.013a.667.667 0 010 1.333H16a.667.667 0 01-.667-.666zm6 0c0-.368.299-.667.667-.667h.013a.667.667 0 010 1.333H22a.667.667 0 01-.667-.666zm6 0c0-.368.299-.667.667-.667h.013a.667.667 0 010 1.333H28a.667.667 0 01-.667-.666zM8.238 22h15.524c.722 0 1.305 0 1.777.038.486.04.913.124 1.308.325.627.32 1.137.83 1.456 1.457.202.395.285.821.325 1.307.039.472.039 1.055.039 1.777V28a.667.667 0 01-1.334 0v-1.067c0-.758 0-1.286-.034-1.697-.033-.404-.094-.635-.184-.811a2 2 0 00-.874-.874c-.175-.09-.407-.15-.81-.184-.412-.034-.94-.034-1.698-.034H8.267c-.758 0-1.286 0-1.697.034-.404.033-.636.095-.811.184a2 2 0 00-.874.874c-.09.176-.151.407-.184.81-.034.412-.034.94-.034 1.698V28a.667.667 0 01-1.334 0v-1.096c0-.722 0-1.305.039-1.777.04-.486.123-.912.325-1.307.32-.628.83-1.137 1.456-1.457.395-.201.822-.285 1.308-.325C6.933 22 7.516 22 8.238 22z" fill="#12715B"/></svg>