<svg width="32" height="32" viewBox="0 0 32 32" fill="none" xmlns="http://www.w3.org/2000/svg"><path fill-rule="evenodd" clip-rule="evenodd" d="M11.193 3.333h9.612c1.015 0 1.816 0 2.464.051.662.052 1.218.16 1.73.406a4.667 4.667 0 012.014 1.853c.288.49.442 1.035.549 1.69.104.642.17 1.44.255 2.452l.938 11.259c.099 1.177.176 2.102.175 2.848 0 .759-.08 1.396-.337 1.98a4.667 4.667 0 01-2.052 2.232c-.561.303-1.19.436-1.947.5-.743.062-1.672.062-2.853.062H10.257c-1.18 0-2.11 0-2.852-.062-.757-.064-1.386-.197-1.947-.5a4.667 4.667 0 01-2.052-2.231c-.256-.585-.336-1.222-.337-1.981 0-.746.076-1.671.174-2.848l.939-11.26c.084-1.01.15-1.809.255-2.45.107-.656.261-1.2.549-1.691A4.667 4.667 0 016.999 3.79c.513-.245 1.069-.354 1.73-.406.649-.051 1.45-.051 2.464-.051zm-2.358 1.38c-.582.046-.955.134-1.26.28a3.333 3.333 0 00-1.439 1.323c-.17.293-.29.657-.383 1.233-.095.583-.158 1.329-.245 2.375l-.933 11.2c-.101 1.214-.173 2.084-.173 2.766.001.676.074 1.104.225 1.448.298.68.814 1.24 1.466 1.593.33.179.75.287 1.424.344.68.058 1.553.058 2.771.058h11.423c1.218 0 2.09 0 2.771-.058.673-.057 1.094-.165 1.424-.344a3.334 3.334 0 001.466-1.593c.15-.344.224-.772.224-1.448.001-.683-.07-1.552-.172-2.767l-.933-11.2c-.087-1.045-.15-1.79-.245-2.374-.094-.576-.212-.94-.383-1.233a3.333 3.333 0 00-1.439-1.323c-.305-.146-.678-.234-1.26-.28-.59-.046-1.338-.047-2.387-.047h-9.555c-1.05 0-1.798 0-2.387.047zM10.666 10c.368 0 .667.298.667.666a4.667 4.667 0 009.333 0 .667.667 0 011.333 0 6 6 0 11-12 0c0-.368.299-.666.667-.666z" fill="#12715B"/></svg>