<svg width="32" height="32" viewBox="0 0 32 32" fill="none" xmlns="http://www.w3.org/2000/svg"><path fill-rule="evenodd" clip-rule="evenodd" d="M18.667 4c0-.369.298-.667.666-.667H26a.667.667 0 110 1.333h-2.667v4h1.762c.723 0 1.306 0 1.777.039.486.04.913.123 1.308.325.627.32 1.137.83 1.457 1.456.2.395.285.822.325 1.308.038.472.038 1.055.038 1.777v4.857c0 .723 0 1.305-.038 1.777-.04.486-.124.913-.325 1.308a3.334 3.334 0 01-1.457 1.457c-.395.2-.822.285-1.308.325-.471.038-1.054.038-1.777.038h-1.762v4H26a.667.667 0 010 1.333h-6.667a.667.667 0 110-1.333H22V4.666h-2.667A.667.667 0 0118.667 4zm4.666 6v12h1.734c.757 0 1.286 0 1.697-.034.403-.033.635-.095.81-.184a2 2 0 00.875-.874c.09-.176.15-.408.183-.811.034-.411.035-.94.035-1.697v-4.8c0-.758 0-1.286-.035-1.697-.032-.404-.094-.636-.183-.811a2 2 0 00-.874-.874c-.176-.09-.408-.151-.811-.184-.411-.034-.94-.034-1.697-.034h-1.734zM6.905 8.666h10.428a.667.667 0 110 1.334h-10.4c-.757 0-1.286 0-1.697.034-.403.033-.635.094-.81.184a2 2 0 00-.875.874c-.09.175-.15.407-.184.81-.033.412-.034.94-.034 1.698v4.8c0 .757 0 1.286.034 1.697.033.403.095.635.184.81a2 2 0 00.874.875c.176.09.408.15.811.184.411.033.94.034 1.697.034h10.4a.667.667 0 110 1.333H6.905c-.723 0-1.306 0-1.777-.038-.486-.04-.913-.124-1.308-.325a3.333 3.333 0 01-1.457-1.457c-.2-.395-.285-.822-.324-1.308C2 19.734 2 19.151 2 18.428v-4.857c0-.722 0-1.305.039-1.777.04-.486.123-.913.324-1.308.32-.627.83-1.137 1.457-1.456.395-.202.822-.285 1.308-.325.471-.039 1.054-.039 1.777-.039z" fill="#12715B"/></svg>