<svg width="32" height="32" viewBox="0 0 32 32" fill="none" xmlns="http://www.w3.org/2000/svg"><path fill-rule="evenodd" clip-rule="evenodd" d="M16.174 3.712a.667.667 0 00-.348 0c-.098.026-.21.097-.726.5l-9.043 7.033c-.635.493-.848.666-.998.87a2 2 0 00-.318.65c-.069.244-.074.518-.074 1.321v9.647c0 .758 0 1.286.034 1.697.033.404.094.635.184.811a2 2 0 00.874.874c.175.09.407.15.81.184.412.034.94.034 1.698.034h15.466c.758 0 1.286 0 1.697-.034.404-.033.636-.095.811-.184a2 2 0 00.874-.874c.09-.176.151-.407.184-.81.034-.412.034-.94.034-1.698v-9.647c0-.803-.005-1.077-.074-1.321a1.998 1.998 0 00-.318-.65c-.15-.204-.363-.377-.997-.87L16.9 4.21c-.518-.402-.629-.473-.727-.499zm-.697-1.287a2 2 0 011.046 0c.392.106.729.37 1.114.67l.082.064 9.043 7.033.071.055c.536.417.907.706 1.18 1.075.241.326.421.693.53 1.083.124.443.124.912.124 1.592v9.765c0 .722 0 1.305-.039 1.777-.04.486-.123.912-.325 1.307a3.334 3.334 0 01-1.456 1.457c-.395.201-.822.285-1.308.325-.472.038-1.055.038-1.777.038H8.238c-.722 0-1.305 0-1.777-.038-.486-.04-.913-.124-1.308-.325a3.333 3.333 0 01-1.456-1.457c-.202-.395-.285-.821-.325-1.307-.039-.472-.039-1.055-.039-1.777v-9.766c0-.679 0-1.148.124-1.59.109-.391.289-.758.53-1.084.273-.37.644-.658 1.18-1.075l.07-.055 9.044-7.033.082-.064c.385-.3.723-.564 1.114-.67zm-4.809 15.596a.667.667 0 01.812.48 4.669 4.669 0 009.04 0 .667.667 0 011.291.331 6.002 6.002 0 01-11.622 0 .667.667 0 01.48-.811z" fill="#12715B"/></svg>