<svg width="18" height="18" viewBox="0 0 18 18" fill="none" xmlns="http://www.w3.org/2000/svg"><path d="M5.667 13.167h6.666M8.181 1.303L2.53 5.7c-.377.294-.566.441-.702.625-.12.163-.21.347-.265.542-.062.22-.062.46-.062.938v6.03c0 .933 0 1.4.182 1.756.16.314.414.569.728.728.357.182.823.182 1.757.182h9.666c.934 0 1.4 0 1.757-.182.314-.16.569-.414.728-.728.182-.357.182-.823.182-1.757v-6.03c0-.478 0-.718-.062-.938a1.665 1.665 0 00-.265-.542c-.136-.184-.325-.33-.702-.625L9.819 1.303c-.293-.227-.44-.341-.601-.385a.833.833 0 00-.436 0c-.161.044-.308.158-.6.385z" stroke="#101828" stroke-width="1.667" stroke-linecap="round" stroke-linejoin="round"/></svg>