<svg width="32" height="32" viewBox="0 0 32 32" fill="none" xmlns="http://www.w3.org/2000/svg"><path fill-rule="evenodd" clip-rule="evenodd" d="M25.333 2c.369 0 .667.298.667.667V6h3.333a.667.667 0 110 1.333H26v3.334a.667.667 0 01-1.333 0V7.333h-3.334a.667.667 0 110-1.333h3.334V2.667c0-.369.298-.667.666-.667zM10.37 3.333h6.297a.667.667 0 110 1.334H10.4c-1.131 0-1.94 0-2.573.052-.626.051-1.022.149-1.34.311-.628.32-1.137.83-1.457 1.457-.162.318-.26.714-.311 1.34-.052.634-.052 1.442-.052 2.573v11.2c0 1.131 0 1.94.052 2.573.051.626.149 1.022.311 1.34.32.627.83 1.137 1.457 1.457.165.084.352.151.58.203.044-.352.268-.621.434-.801.182-.197.438-.43.736-.7l11.318-10.29c.225-.204.42-.382.594-.517a2.02 2.02 0 01.622-.349c.36-.117.747-.13 1.114-.035.244.063.45.177.643.309.182.124.388.289.625.479l3.748 2.998.059.047c.447.358.756.605.995.91.3.381.513.824.623 1.296.089.377.089.773.089 1.346v.101l-.001.67v.146c0 1.129.001 1.83-.158 2.425a4.662 4.662 0 01-3.3 3.3c-.595.159-1.296.159-2.425.159H9.395c-.364 0-.681 0-.936-.018a14.94 14.94 0 01-.74-.039c-.709-.058-1.3-.178-1.838-.452a4.667 4.667 0 01-2.039-2.04c-.274-.537-.394-1.128-.452-1.836-.057-.695-.057-1.557-.057-2.652V10.37c0-1.095 0-1.957.057-2.651.058-.709.178-1.3.452-1.838a4.667 4.667 0 012.04-2.039c.537-.274 1.128-.394 1.837-.452.694-.057 1.556-.057 2.651-.057zm16.22 22.765a3.34 3.34 0 00.475-.787c.12-.28.192-.625.23-1.163.038-.546.038-1.238.038-2.207 0-.677-.004-.909-.053-1.116a2 2 0 00-.373-.778c-.132-.168-.31-.316-.84-.74l-3.729-2.983c-.26-.208-.427-.34-.562-.433a.739.739 0 00-.222-.118.667.667 0 00-.371.011.74.74 0 00-.215.133c-.128.1-.286.243-.533.467L9.157 26.637a12.435 12.435 0 00-.707.674 1.883 1.883 0 00.078.007c.51.015 1.12.015 1.872.015h11.541c.97 0 1.661 0 2.207-.038.538-.038.883-.11 1.163-.23a3.331 3.331 0 001.28-.967zM11.333 9.333a2 2 0 100 4 2 2 0 000-4zm-3.333 2a3.333 3.333 0 116.667 0 3.333 3.333 0 01-6.667 0z" fill="#12715B"/></svg>