<svg width="32" height="32" viewBox="0 0 32 32" fill="none" xmlns="http://www.w3.org/2000/svg"><path fill-rule="evenodd" clip-rule="evenodd" d="M29.648 2.079a.667.667 0 01.352.588V24a.667.667 0 01-.297.555l-8 5.333a.667.667 0 01-.7.024L12 24.768l-9.003 5.144A.667.667 0 012 29.333V8c0-.24.128-.46.336-.579l9.333-5.333a.667.667 0 01.662 0l8.975 5.129 7.657-5.105a.667.667 0 01.685-.033zm-8.981 6.308l-8-4.572v19.798l8 4.572V8.387zM22 28.087l6.667-4.444V3.913L22 8.356v19.73zm-10.667-4.474V3.815l-8 4.572v19.797l8-4.57z" fill="#12715B"/></svg>