<svg width="32" height="32" viewBox="0 0 32 32" fill="none" xmlns="http://www.w3.org/2000/svg"><path fill-rule="evenodd" clip-rule="evenodd" d="M15.883 3.333h.234c1.128 0 1.83 0 2.424.159a4.667 4.667 0 013.3 3.3c.132.491.154 1.056.158 1.874h3.096c.723 0 1.306 0 1.777.039.486.04.913.123 1.308.325.627.32 1.137.83 1.457 1.456.2.395.285.822.325 1.308.038.472.038 1.055.038 1.777v10.19c0 .723 0 1.306-.038 1.778-.04.486-.124.912-.325 1.307a3.334 3.334 0 01-1.457 1.457c-.395.201-.822.285-1.308.325-.471.038-1.054.038-1.777.038H6.905c-.723 0-1.306 0-1.777-.038-.486-.04-.913-.124-1.308-.325a3.334 3.334 0 01-1.457-1.457c-.2-.395-.285-.821-.324-1.307C2 25.067 2 24.484 2 23.762v-10.19c0-.723 0-1.306.039-1.778.04-.486.123-.913.324-1.308.32-.627.83-1.137 1.457-1.456.395-.202.822-.285 1.308-.325.471-.039 1.054-.039 1.777-.039H10c.004-.818.026-1.383.158-1.874a4.667 4.667 0 013.3-3.3c.594-.16 1.296-.16 2.424-.159zM6.933 10c-.757 0-1.286 0-1.697.034-.403.033-.635.094-.81.184a2 2 0 00-.875.874c-.09.175-.15.407-.184.81-.033.412-.034.94-.034 1.698v10.133c0 .758 0 1.286.034 1.697.033.404.095.635.184.811a2 2 0 00.874.874c.176.09.408.151.811.184.411.034.94.034 1.697.034h18.134c.757 0 1.286 0 1.697-.034.403-.033.635-.095.81-.184a2 2 0 00.875-.874c.09-.176.15-.407.183-.81.034-.412.035-.94.035-1.698V13.6c0-.758 0-1.286-.035-1.697-.032-.404-.094-.636-.183-.811a2 2 0 00-.874-.874c-.176-.09-.408-.151-.811-.184-.411-.034-.94-.034-1.697-.034H6.933zm13.732-1.334h-9.33c.004-.81.025-1.205.112-1.529a3.333 3.333 0 012.357-2.357c.402-.108.913-.114 2.196-.114 1.283 0 1.794.006 2.196.114a3.333 3.333 0 012.357 2.357c.087.324.108.718.112 1.53z" fill="#12715B"/></svg>