<svg width="32" height="32" viewBox="0 0 32 32" fill="none" xmlns="http://www.w3.org/2000/svg"><path fill-rule="evenodd" clip-rule="evenodd" d="M4 3.333c.368 0 .667.298.667.667v24a.667.667 0 01-1.334 0V4c0-.369.299-.667.667-.667zm24 0c.368 0 .667.298.667.667v24a.667.667 0 01-1.334 0V4c0-.369.299-.667.667-.667zM15.976 6h.048c.6 0 1.086 0 1.48.027.406.027.765.086 1.105.226a3.334 3.334 0 011.804 1.804c.14.34.2.699.227 1.105.027.395.027.88.027 1.48v10.715c0 .6 0 1.086-.027 1.48-.028.406-.086.765-.227 1.105a3.334 3.334 0 01-1.804 1.804c-.34.14-.699.2-1.105.227-.394.027-.88.027-1.48.027h-.048c-.6 0-1.086 0-1.48-.027-.406-.028-.765-.086-1.105-.227a3.333 3.333 0 01-1.804-1.804c-.14-.34-.199-.699-.227-1.105-.027-.394-.027-.88-.027-1.48V10.643c0-.602 0-1.086.027-1.481.028-.406.086-.765.227-1.105a3.333 3.333 0 011.804-1.804c.34-.14.699-.199 1.105-.226C14.89 6 15.376 6 15.976 6zm-1.39 1.357c-.338.023-.534.066-.685.128a2 2 0 00-1.082 1.083c-.062.15-.105.347-.129.685-.023.344-.023.783-.023 1.413v10.667c0 .63 0 1.07.024 1.414.023.338.066.535.128.685a2 2 0 001.082 1.082c.15.062.347.105.685.128.344.024.784.024 1.414.024.63 0 1.07 0 1.414-.024.338-.023.534-.066.685-.128a2 2 0 001.082-1.082c.062-.15.105-.347.128-.685.024-.344.024-.784.024-1.414V10.666c0-.63 0-1.07-.023-1.413-.023-.338-.067-.535-.129-.685A2 2 0 0018.1 7.485c-.15-.062-.347-.105-.685-.128A23.014 23.014 0 0016 7.333c-.63 0-1.07 0-1.414.024z" fill="#12715B"/></svg>