<svg width="24" height="24" viewBox="0 0 24 24" fill="none" xmlns="http://www.w3.org/2000/svg"><path fill-rule="evenodd" clip-rule="evenodd" d="M19.16 1.013a1 1 0 01.734.54l.851 1.702 1.702.85a1 1 0 01.26 1.602l-3 3A1 1 0 0119 9h-2.586l-3.707 3.707a1 1 0 01-1.414-1.414L15 7.586V5a1 1 0 01.293-.707l3-3a1 1 0 01.867-.28zM17 7h1.586l1.726-1.726-.76-.38a1 1 0 01-.447-.447l-.379-.759L17 5.414V7zm-5-4a9 9 0 109 9 1 1 0 112 0c0 6.075-4.925 11-11 11S1 18.075 1 12 5.925 1 12 1a1 1 0 110 2zm0 5a4 4 0 104 4 1 1 0 112 0 6 6 0 11-6-6 1 1 0 110 2z" fill="#000"/></svg>