<svg width="32" height="32" viewBox="0 0 32 32" fill="none" xmlns="http://www.w3.org/2000/svg"><path fill-rule="evenodd" clip-rule="evenodd" d="M16 6v1.333h-.093a106.041 106.041 0 00-1.235.009c-.812.009-1.915.026-3.082.06a83.64 83.64 0 00-3.457.165c-1.076.078-1.927.18-2.38.3A2.703 2.703 0 003.877 9.79a34.484 34.484 0 00-.543 6.267v.007a34.483 34.483 0 00.54 6.304 2.703 2.703 0 001.876 1.836c.453.12 1.305.222 2.383.301 1.061.077 2.289.13 3.457.164a164.649 164.649 0 004.05.068l.267.001H16l.001.667v.667h-.096a108.7 108.7 0 01-1.247-.009 168.95 168.95 0 01-3.107-.061 84.95 84.95 0 01-3.514-.167c-1.07-.078-2.042-.186-2.632-.343L5.4 25.49a4.035 4.035 0 01-2.831-2.852A35.815 35.815 0 012 16.059a35.816 35.816 0 01.577-6.573 4.036 4.036 0 012.817-2.903l.009-.003c.59-.158 1.562-.265 2.632-.343a84.914 84.914 0 013.514-.167A166.849 166.849 0 0115.904 6H16zm10.247 18.205c-.453.12-1.304.222-2.38.3-1.061.077-2.289.13-3.457.164a164.649 164.649 0 01-4.05.068l-.267.001H16v1.334h.096a108.7 108.7 0 001.247-.009 168.95 168.95 0 003.107-.061 84.946 84.946 0 003.514-.167c1.07-.078 2.042-.186 2.632-.343l.01-.003a4.035 4.035 0 002.825-2.947 35.75 35.75 0 00.568-6.481 35.811 35.811 0 00-.577-6.623 4.037 4.037 0 00-2.84-2.91c-.585-.143-1.552-.24-2.622-.312a92.868 92.868 0 00-3.512-.152A182.6 182.6 0 0016.096 6H16v1.333h.093a119 119 0 011.236.008c.812.008 1.915.024 3.083.056 1.169.031 2.397.079 3.46.15 1.07.07 1.922.163 2.382.274a2.703 2.703 0 011.87 1.92 34.55 34.55 0 01.542 6.315v.006a34.485 34.485 0 01-.543 6.22 2.703 2.703 0 01-1.876 1.923zM14.98 11.147l5.304 3.41c.212.136.409.262.56.38.155.121.341.292.448.544.14.332.14.706 0 1.038a1.384 1.384 0 01-.449.544 8 8 0 01-.56.38l-5.303 3.41c-.247.159-.47.302-.659.4-.19.1-.449.21-.75.19a1.334 1.334 0 01-.972-.532c-.18-.241-.227-.52-.246-.732-.02-.213-.02-.477-.02-.77v-6.817c0-.294 0-.558.02-.77.02-.214.066-.492.246-.733.232-.31.587-.504.973-.531.3-.022.56.09.75.189.188.098.411.241.658.4zm-1.297.77a8.6 8.6 0 00-.016.703v6.76a8.6 8.6 0 00.016.702l.023-.011c.128-.067.298-.176.577-.355l5.257-3.38a7.459 7.459 0 00.498-.336 7.459 7.459 0 00-.498-.336l-5.257-3.38a8.638 8.638 0 00-.6-.366z" fill="#12715B"/></svg>