<svg width="24" height="24" viewBox="0 0 24 24" fill="none" xmlns="http://www.w3.org/2000/svg"><path fill-rule="evenodd" clip-rule="evenodd" d="M13.398 1.083a1 1 0 01.594 1.041L13.132 9h6.196c.24 0 .485 0 .684.018.189.017.55.062.863.315a1.5 1.5 0 01.557 1.19c-.006.402-.202.709-.31.864-.114.165-.27.353-.424.538l-8.93 10.715a1 1 0 01-1.76-.764l.86-6.876H4.671c-.24 0-.485 0-.684-.018-.189-.017-.55-.062-.863-.315a1.5 1.5 0 01-.557-1.19c.006-.402.202-.709.31-.864.114-.165.27-.353.424-.538l.023-.027L12.232 1.36a1 1 0 011.166-.277zM5.135 13H12a1 1 0 01.992 1.124l-.577 4.616 6.45-7.74H12a1 1 0 01-.992-1.124l.577-4.615L5.135 13z" fill="#000"/></svg>