<svg width="170" height="48" viewBox="0 0 170 48" fill="none" xmlns="http://www.w3.org/2000/svg"><path fill-rule="evenodd" clip-rule="evenodd" d="M22 46c12.15 0 22-9.85 22-22S34.15 2 22 2 0 11.85 0 24s9.85 22 22 22zm6.863-33.752c.334-1.186-.817-1.888-1.869-1.139L12.312 21.57c-1.14.812-.96 2.431.27 2.431h3.866v-.03h7.535l-6.14 2.166-2.706 9.616c-.334 1.186.817 1.888 1.869 1.139l14.682-10.46c1.14-.812.96-2.431-.27-2.431h-5.863l3.308-11.752z" fill="#12715B"/><path d="M55.38 33.91v-3.48h2.76V16.39h-2.76v-3.48h10.8c1.28 0 2.39.22 3.33.66.96.42 1.7 1.03 2.22 1.83.54.78.81 1.72.81 2.82v.3c0 .96-.18 1.75-.54 2.37-.36.6-.79 1.07-1.29 1.41-.48.32-.94.55-1.38.69v.54c.44.12.92.35 1.44.69.52.32.96.79 1.32 1.41.38.62.57 1.43.57 2.43v.3c0 1.16-.27 2.16-.81 3-.54.82-1.29 1.45-2.25 1.89-.94.44-2.04.66-3.3.66H55.38zm6.72-3.6h3.72c.86 0 1.55-.21 2.07-.63.54-.42.81-1.02.81-1.8v-.3c0-.78-.26-1.38-.78-1.8-.52-.42-1.22-.63-2.1-.63H62.1v5.16zm0-8.76h3.66c.82 0 1.49-.21 2.01-.63.54-.42.81-1 .81-1.74v-.3c0-.76-.26-1.34-.78-1.74-.52-.42-1.2-.63-2.04-.63H62.1v5.04zm19.502 12.78c-1.48 0-2.81-.3-3.99-.9a6.75 6.75 0 01-2.79-2.61c-.68-1.14-1.02-2.51-1.02-4.11v-.48c0-1.6.34-2.97 1.02-4.11a6.75 6.75 0 012.79-2.61c1.18-.6 2.51-.9 3.99-.9 1.48 0 2.81.3 3.99.9a6.75 6.75 0 012.79 2.61c.68 1.14 1.02 2.51 1.02 4.11v.48c0 1.6-.34 2.97-1.02 4.11a6.75 6.75 0 01-2.79 2.61c-1.18.6-2.51.9-3.99.9zm0-3.36c1.16 0 2.12-.37 2.88-1.11.76-.76 1.14-1.84 1.14-3.24v-.3c0-1.4-.38-2.47-1.14-3.21-.74-.76-1.7-1.14-2.88-1.14-1.16 0-2.12.38-2.88 1.14-.76.74-1.14 1.81-1.14 3.21v.3c0 1.4.38 2.48 1.14 3.24.76.74 1.72 1.11 2.88 1.11zm9.789 2.94v-21h3.78v21h-3.78zm12.169 0c-.98 0-1.78-.3-2.4-.9-.6-.62-.9-1.44-.9-2.46v-8.4h-3.72v-3.12h3.72v-4.62h3.78v4.62h4.08v3.12h-4.08v7.74c0 .6.28.9.84.9h2.88v3.12h-4.2zm12.661.42c-1.94 0-3.53-.42-4.77-1.26-1.24-.84-1.99-2.04-2.25-3.6l3.48-.9c.14.7.37 1.25.69 1.65.34.4.75.69 1.23.87.5.16 1.04.24 1.62.24.88 0 1.53-.15 1.95-.45.42-.32.63-.71.63-1.17 0-.46-.2-.81-.6-1.05-.4-.26-1.04-.47-1.92-.63l-.84-.15c-1.04-.2-1.99-.47-2.85-.81-.86-.36-1.55-.85-2.07-1.47-.52-.62-.78-1.42-.78-2.4 0-1.48.54-2.61 1.62-3.39 1.08-.8 2.5-1.2 4.26-1.2 1.66 0 3.04.37 4.14 1.11 1.1.74 1.82 1.71 2.16 2.91l-3.51 1.08c-.16-.76-.49-1.3-.99-1.62-.48-.32-1.08-.48-1.8-.48s-1.27.13-1.65.39c-.38.24-.57.58-.57 1.02 0 .48.2.84.6 1.08.4.22.94.39 1.62.51l.84.15c1.12.2 2.13.47 3.03.81.92.32 1.64.79 2.16 1.41.54.6.81 1.42.81 2.46 0 1.56-.57 2.77-1.71 3.63-1.12.84-2.63 1.26-4.53 1.26zm8.053-.42v-21h3.78v7.95h.54c.16-.32.41-.64.75-.96.34-.32.79-.58 1.35-.78.58-.22 1.31-.33 2.19-.33 1.16 0 2.17.27 3.03.81.88.52 1.56 1.25 2.04 2.19.48.92.72 2 .72 3.24v8.88h-3.78v-8.58c0-1.12-.28-1.96-.84-2.52-.54-.56-1.32-.84-2.34-.84-1.16 0-2.06.39-2.7 1.17-.64.76-.96 1.83-.96 3.21v7.56h-3.78zm16.986 0V19.03h3.78v14.88h-3.78zm1.89-16.62c-.68 0-1.26-.22-1.74-.66-.46-.44-.69-1.02-.69-1.74s.23-1.3.69-1.74c.48-.44 1.06-.66 1.74-.66.7 0 1.28.22 1.74.66.46.44.69 1.02.69 1.74s-.23 1.3-.69 1.74c-.46.44-1.04.66-1.74.66zm7.039 16.62V22.15h-3.78v-3.12h3.78v-2.76c0-1.02.3-1.83.9-2.43.62-.62 1.42-.93 2.4-.93h3.9v3.12h-2.58c-.56 0-.84.3-.84.9v2.1h3.9v3.12h-3.9v11.76h-3.78z" fill="#101828"/><path d="M164.702 33.91c-.98 0-1.78-.3-2.4-.9-.6-.62-.9-1.44-.9-2.46v-8.4h-3.72v-3.12h3.72v-4.62h3.78v4.62h4.08v3.12h-4.08v7.74c0 .6.28.9.84.9h2.88v3.12h-4.2z" fill="#101828"/></svg>