<svg width="177" height="48" viewBox="0 0 177 48" fill="none" xmlns="http://www.w3.org/2000/svg"><path d="M13.58 3.675A22.002 22.002 0 0122 2v11a10.998 10.998 0 00-11 11H0A22.002 22.002 0 0113.58 3.675z" fill="#12715B"/><path opacity=".6" d="M0 24a22.002 22.002 0 0022 22 22.003 22.003 0 0022-22H33a10.998 10.998 0 01-11 11 10.998 10.998 0 01-11-11H0zm22-7a7 7 0 00-7 7h14a7 7 0 00-7-7z" fill="#12715B"/><path d="M22 31a7 7 0 01-7-7h14a7 7 0 01-7 7z" fill="#12715B"/><path d="M66.817 19.402c-.08-.802-.421-1.425-1.024-1.87-.604-.443-1.422-.666-2.456-.666-.703 0-1.296.1-1.78.299-.484.192-.855.46-1.114.805a1.938 1.938 0 00-.378 1.174c-.013.364.063.682.229.954.172.272.408.507.706.706a5.36 5.36 0 001.034.507c.391.14.809.259 1.253.358l1.83.438a12.86 12.86 0 012.445.795c.743.331 1.386.74 1.93 1.223a5.084 5.084 0 011.262 1.71c.305.656.461 1.409.468 2.257-.007 1.247-.325 2.327-.955 3.242-.623.908-1.525 1.614-2.704 2.118-1.174.497-2.589.745-4.246.745-1.644 0-3.076-.251-4.296-.755-1.213-.504-2.16-1.25-2.843-2.237-.677-.995-1.031-2.224-1.064-3.69h4.166c.046.683.242 1.253.587 1.71.35.452.818.793 1.402 1.025.59.225 1.256.338 1.998.338.73 0 1.362-.106 1.9-.318.543-.212.964-.507 1.262-.885.298-.378.447-.812.447-1.303 0-.457-.136-.841-.407-1.153-.265-.311-.656-.577-1.173-.795a11.933 11.933 0 00-1.88-.597L61.2 24.98c-1.717-.418-3.073-1.07-4.067-1.959-.994-.888-1.488-2.084-1.481-3.59-.007-1.232.321-2.31.984-3.23.67-.922 1.587-1.641 2.754-2.158 1.167-.517 2.493-.776 3.977-.776 1.512 0 2.831.259 3.958.776 1.133.517 2.015 1.236 2.645 2.157.63.922.954 1.989.974 3.202h-4.126zm14.181 14.805c-1.57 0-2.923-.318-4.057-.954a6.538 6.538 0 01-2.605-2.724c-.61-1.18-.915-2.576-.915-4.187 0-1.57.305-2.95.915-4.136.61-1.186 1.469-2.111 2.576-2.774 1.113-.663 2.42-.994 3.917-.994 1.008 0 1.946.162 2.814.487a6.242 6.242 0 012.287 1.441c.656.643 1.167 1.452 1.531 2.427.365.968.547 2.101.547 3.4v1.164H75.112v-2.625h8.909c0-.61-.133-1.15-.398-1.621a2.849 2.849 0 00-1.104-1.104c-.464-.272-1.004-.408-1.62-.408-.643 0-1.213.15-1.71.448a3.142 3.142 0 00-1.154 1.183 3.341 3.341 0 00-.427 1.64v2.496c0 .756.139 1.41.417 1.96.285.55.686.974 1.203 1.272.517.298 1.13.448 1.84.448.47 0 .901-.067 1.293-.2a2.68 2.68 0 001.004-.596c.278-.265.49-.59.636-.974l3.918.258A5.35 5.35 0 0186.696 32c-.61.696-1.399 1.24-2.367 1.63-.961.385-2.071.577-3.33.577zm16.655 5.748c-1.372 0-2.549-.19-3.53-.567-.974-.371-1.75-.878-2.327-1.521a4.677 4.677 0 01-1.123-2.168l3.918-.527c.119.305.308.59.566.855.259.265.6.477 1.025.636.43.166.954.249 1.57.249.922 0 1.68-.225 2.277-.676.604-.444.905-1.19.905-2.237v-2.794h-.179a4.018 4.018 0 01-.835 1.203c-.371.378-.848.686-1.432.924-.583.24-1.28.358-2.088.358-1.147 0-2.19-.265-3.132-.795-.934-.537-1.68-1.356-2.237-2.456-.55-1.107-.825-2.506-.825-4.196 0-1.73.281-3.175.845-4.335.563-1.16 1.312-2.029 2.247-2.605a5.807 5.807 0 013.092-.866c.855 0 1.571.146 2.148.438.577.285 1.04.643 1.392 1.074.358.424.633.842.825 1.253h.159v-2.566h4.206v15.422c0 1.3-.318 2.387-.954 3.262-.637.875-1.518 1.53-2.645 1.968-1.12.445-2.41.667-3.868.667zm.09-9.446c.682 0 1.259-.17 1.73-.508.477-.344.842-.835 1.093-1.471.259-.643.388-1.412.388-2.307s-.126-1.67-.378-2.327c-.252-.663-.616-1.176-1.093-1.54-.478-.365-1.058-.548-1.74-.548-.697 0-1.283.19-1.76.567-.478.371-.839.888-1.084 1.551-.246.663-.368 1.429-.368 2.297 0 .882.122 1.644.368 2.287.252.636.613 1.13 1.084 1.481.477.345 1.063.518 1.76.518zm10.748 3.401V18.635h4.037v2.695h.179c.318-.895.849-1.6 1.591-2.118.742-.517 1.631-.776 2.665-.776 1.047 0 1.939.262 2.674.786a3.697 3.697 0 011.472 2.108h.159c.312-.875.875-1.574 1.69-2.098.822-.53 1.794-.796 2.914-.796 1.425 0 2.582.455 3.47 1.363.895.901 1.342 2.18 1.342 3.838v10.271h-4.226v-9.436c0-.848-.225-1.485-.676-1.909-.45-.424-1.014-.636-1.69-.636-.769 0-1.369.245-1.8.735-.431.484-.646 1.124-.646 1.92v9.326h-4.107v-9.525c0-.75-.215-1.346-.646-1.79-.424-.444-.984-.666-1.68-.666-.471 0-.895.119-1.273.358-.371.232-.666.56-.885.984-.219.418-.328.908-.328 1.471v9.168h-4.236zm32.499.297c-1.571 0-2.923-.318-4.056-.954a6.54 6.54 0 01-2.606-2.724c-.609-1.18-.914-2.576-.914-4.187 0-1.57.305-2.95.914-4.136.61-1.186 1.469-2.111 2.576-2.774 1.113-.663 2.419-.994 3.917-.994 1.008 0 1.946.162 2.814.487a6.236 6.236 0 012.287 1.441c.656.643 1.167 1.452 1.531 2.427.365.968.547 2.101.547 3.4v1.164h-12.896v-2.625h8.909c0-.61-.132-1.15-.398-1.621a2.851 2.851 0 00-1.103-1.104c-.464-.272-1.005-.408-1.621-.408-.643 0-1.213.15-1.71.448a3.14 3.14 0 00-1.154 1.183 3.339 3.339 0 00-.427 1.64v2.496c0 .756.139 1.41.417 1.96.285.55.686.974 1.204 1.272.517.298 1.13.448 1.839.448.471 0 .902-.067 1.293-.2a2.685 2.685 0 001.004-.596 2.6 2.6 0 00.636-.974l3.918.258A5.355 5.355 0 01146.688 32c-.61.696-1.399 1.24-2.367 1.63-.961.385-2.071.577-3.331.577zM155 25.08v8.83h-4.235V18.635h4.036v2.695h.179a4.264 4.264 0 011.701-2.108c.795-.524 1.76-.785 2.893-.785 1.061 0 1.986.232 2.774.696.789.464 1.402 1.127 1.84 1.988.437.855.656 1.876.656 3.063v9.724h-4.236V24.94c.007-.934-.232-1.663-.716-2.187-.483-.53-1.15-.796-1.998-.796-.57 0-1.074.123-1.512.368-.43.246-.768.604-1.014 1.074-.238.464-.361 1.024-.368 1.68zm21.306-6.444v3.182h-9.197v-3.182h9.197zm-7.109-3.659h4.236v14.239c0 .391.059.696.179.915a.986.986 0 00.497.447c.218.086.47.13.755.13.199 0 .398-.017.597-.05l.457-.09.667 3.152a12.13 12.13 0 01-.895.229 7.1 7.1 0 01-1.402.169c-1.021.04-1.916-.096-2.685-.408-.762-.311-1.356-.795-1.78-1.451-.424-.657-.633-1.485-.626-2.486V14.977z" fill="#101828"/></svg>