<svg width="146" height="48" viewBox="0 0 146 48" fill="none" xmlns="http://www.w3.org/2000/svg"><g opacity=".9" fill="#fff"><path opacity=".6" d="M13.277 22.318c.823-3.068 3.977-6.222 7.045-7.044l19.129-5.127c3.068-.822 4.889.999 4.067 4.067l-5.127 19.13c-.822 3.067-3.976 6.221-7.044 7.044l-19.13 5.126c-3.067.822-4.888-.999-4.066-4.067l5.127-19.129z"/><path d="M5.609 14.65c.822-3.069 3.976-6.223 7.044-7.045l19.13-5.126c3.067-.823 4.888.998 4.066 4.066l-5.126 19.13c-.823 3.067-3.976 6.221-7.045 7.044L4.55 37.845c-3.068.822-4.889-.998-4.067-4.067L5.61 14.65zm55.915 15.563h6.272v3.696h-11.06V14.253h4.788v15.96zm7.044-4.143c0-1.606.299-3.015.896-4.229.616-1.213 1.447-2.146 2.492-2.8 1.045-.653 2.212-.98 3.5-.98 1.101 0 2.063.224 2.884.672.84.448 1.484 1.036 1.932 1.764v-2.212h4.788V33.91h-4.788v-2.212c-.467.728-1.12 1.316-1.96 1.764-.822.448-1.783.672-2.884.672a6.42 6.42 0 01-3.472-.98c-1.046-.672-1.876-1.614-2.492-2.828-.597-1.232-.896-2.65-.896-4.256zm11.704.027c0-1.195-.336-2.137-1.008-2.828a3.185 3.185 0 00-2.408-1.036c-.952 0-1.764.345-2.436 1.036-.654.672-.98 1.606-.98 2.8 0 1.195.326 2.147.98 2.856.672.69 1.484 1.036 2.436 1.036s1.755-.345 2.408-1.036c.672-.69 1.008-1.633 1.008-2.828zm23.652-7.812l-9.8 23.044h-5.152l3.584-7.952L86.2 18.285h5.348l3.612 9.772 3.584-9.772h5.18zm15.899 7.56c0 .448-.028.915-.084 1.4h-10.836c.075.97.383 1.717.924 2.24.56.504 1.241.756 2.044.756 1.195 0 2.025-.504 2.492-1.512h5.096a6.895 6.895 0 01-1.428 2.772c-.672.821-1.521 1.466-2.548 1.932-1.027.467-2.175.7-3.444.7-1.531 0-2.893-.327-4.088-.98a6.97 6.97 0 01-2.8-2.8c-.672-1.213-1.008-2.632-1.008-4.256s.327-3.043.98-4.256a6.968 6.968 0 012.8-2.8c1.195-.653 2.567-.98 4.116-.98 1.512 0 2.856.317 4.032.952a6.742 6.742 0 012.744 2.716c.672 1.176 1.008 2.548 1.008 4.116zm-4.9-1.26c0-.821-.28-1.475-.84-1.96-.56-.485-1.26-.728-2.1-.728-.803 0-1.484.234-2.044.7-.541.467-.877 1.13-1.008 1.988h5.992zm11.654-3.695a6.183 6.183 0 012.1-2.017c.84-.504 1.773-.756 2.8-.756v5.068h-1.316c-1.195 0-2.091.262-2.688.784-.597.504-.896 1.4-.896 2.688v7.252h-4.788V18.285h4.788v2.604zm12.985 13.243c-1.363 0-2.576-.233-3.64-.7-1.064-.466-1.904-1.101-2.52-1.904a5.112 5.112 0 01-1.036-2.744h4.732c.056.541.308.98.756 1.316.448.336.998.504 1.652.504.597 0 1.054-.112 1.372-.336.336-.242.504-.55.504-.924 0-.448-.234-.774-.7-.98-.467-.224-1.223-.466-2.268-.728-1.12-.261-2.054-.532-2.8-.812a5.023 5.023 0 01-1.932-1.372c-.542-.634-.812-1.484-.812-2.548 0-.896.242-1.708.728-2.436.504-.747 1.232-1.335 2.184-1.764.97-.43 2.118-.644 3.444-.644 1.96 0 3.5.486 4.62 1.456 1.138.97 1.792 2.259 1.96 3.864h-4.424c-.075-.541-.318-.97-.728-1.288-.392-.317-.915-.476-1.568-.476-.56 0-.99.112-1.288.336a.992.992 0 00-.448.868c0 .448.233.784.7 1.008.485.224 1.232.448 2.24.672 1.157.299 2.1.598 2.828.896.728.28 1.362.747 1.904 1.4.56.635.849 1.494.868 2.576 0 .915-.262 1.736-.784 2.464-.504.71-1.242 1.27-2.212 1.68-.952.41-2.063.616-3.332.616z"/></g></svg>