<svg width="165" height="48" viewBox="0 0 165 48" fill="none" xmlns="http://www.w3.org/2000/svg"><path fill-rule="evenodd" clip-rule="evenodd" d="M12.835 33.165C5.53 31.813 0 25.41 0 17.715 0 9.034 7.036 2 15.714 2c7.696 0 14.099 5.531 15.451 12.835a15.801 15.801 0 00-2.88-.264c-8.678 0-15.714 7.036-15.714 15.715 0 .983.09 1.946.264 2.88z" fill="#12715B"/><path opacity=".6" fill-rule="evenodd" clip-rule="evenodd" d="M15.714 33.428c8.68 0 15.715-7.035 15.715-15.714 0-.983-.09-1.946-.264-2.88C38.47 16.188 44 22.59 44 30.287 44 38.964 36.965 46 28.286 46c-7.695 0-14.099-5.531-15.451-12.835a15.79 15.79 0 002.88.264z" fill="#12715B"/><path d="M67.55 34.24c5.37 0 9.24-3.03 9.63-7.53h-4.5c-.36 2.16-2.43 3.63-5.13 3.63-3.39 0-6-2.34-6-6.84s2.61-6.87 6-6.87c2.64 0 4.71 1.47 5.01 3.66h4.71c-.57-4.53-4.44-7.53-9.72-7.53-5.61 0-10.53 3.66-10.53 10.74s4.83 10.74 10.53 10.74zm17.981-15.6c-4.14 0-6.6 2.43-6.78 5.46h3.72c.06-1.26.99-2.4 2.82-2.4 1.71 0 2.7.87 2.7 2.13 0 .63-.39 1.11-1.14 1.11h-2.55c-3.3 0-5.52 1.8-5.52 4.77 0 2.58 2.01 4.53 4.95 4.53 2.07 0 3.75-.93 4.26-2.34V34h4.14v-9.72c0-3.42-2.79-5.64-6.6-5.64zm-.75 12.57c-1.17 0-2.01-.69-2.01-1.68 0-1.17.9-1.95 2.16-1.95h3.06v.21c0 1.92-1.17 3.42-3.21 3.42zm10.153 8.91h4.17v-7.47c.81 1.02 2.28 1.59 3.99 1.59 4.35 0 7.29-3.09 7.29-7.8s-2.7-7.8-6.93-7.8c-1.95 0-3.45.72-4.35 1.89v-1.65h-4.17v21.24zm7.65-9.48c-2.25 0-3.72-1.68-3.72-4.2 0-2.55 1.47-4.23 3.72-4.23 2.19 0 3.69 1.68 3.69 4.23 0 2.52-1.5 4.2-3.69 4.2zm15.142 3.6c3.54 0 5.88-1.89 5.88-4.77 0-6.84-8.28-3.33-8.28-6.42 0-.96.81-1.47 1.98-1.47 1.14 0 2.31.69 2.49 1.98h3.63c-.15-2.97-2.61-4.92-6.24-4.92-3.09 0-5.4 1.89-5.4 4.56 0 6.36 8.13 3.33 8.13 6.42 0 .84-.9 1.47-2.19 1.47-1.56 0-2.61-.84-2.76-2.19h-3.6c.15 3.27 2.67 5.34 6.36 5.34zm22.35-15.36h-4.2v8.28c0 1.92-1.29 3.36-3.12 3.36-1.71 0-2.91-1.32-2.91-3.15v-8.49h-4.17v9.42c0 3.45 2.22 5.94 5.61 5.94 2.07 0 3.75-.9 4.59-2.34V34h4.2V18.88zM143.077 34h4.17V12.31h-4.17V34zm17.275-5.13c-.33 1.29-1.44 1.95-3.12 1.95-2.1 0-3.45-1.32-3.75-3.45h10.86c.03-.33.06-.78.06-1.35 0-3.45-2.13-7.38-7.47-7.38-5.13 0-7.47 3.93-7.47 7.77 0 3.81 2.64 7.83 7.77 7.83 3.72 0 6.6-2.1 7.2-5.37h-4.08zm-3.42-7.17c2.01 0 3.18 1.35 3.3 3.03h-6.69c.36-2.1 1.5-3.03 3.39-3.03z" fill="#101828"/></svg>