<svg width="178" height="48" viewBox="0 0 178 48" fill="none" xmlns="http://www.w3.org/2000/svg"><g opacity=".9" fill="#fff"><path fill-rule="evenodd" clip-rule="evenodd" d="M20 38c7.732 0 14-6.268 14-14s-6.268-14-14-14S6 16.268 6 24s6.268 14 14 14zm0 6c11.046 0 20-8.954 20-20S31.046 4 20 4 0 12.954 0 24s8.954 20 20 20z"/><path d="M66.184 20.413a5.997 5.997 0 01-.756 2.94c-.485.915-1.26 1.652-2.324 2.212-1.045.56-2.37.84-3.976.84h-3.276v7.504h-3.92V14.365h7.196c1.512 0 2.8.261 3.864.784s1.857 1.242 2.38 2.156c.541.915.812 1.95.812 3.108zm-7.224 2.828c1.083 0 1.885-.242 2.408-.728.523-.504.784-1.204.784-2.1 0-1.904-1.064-2.856-3.192-2.856h-3.108v5.684h3.108zm15.775 10.92c-1.493 0-2.837-.327-4.032-.98a7.351 7.351 0 01-2.828-2.828c-.672-1.213-1.008-2.613-1.008-4.2 0-1.586.346-2.986 1.036-4.2a7.294 7.294 0 012.884-2.8c1.213-.672 2.567-1.008 4.06-1.008 1.494 0 2.847.336 4.06 1.008a7.107 7.107 0 012.856 2.8c.71 1.213 1.064 2.614 1.064 4.2 0 1.587-.364 2.987-1.092 4.2a7.44 7.44 0 01-2.912 2.828c-1.213.654-2.576.98-4.088.98zm0-3.416c.71 0 1.372-.168 1.988-.504.635-.354 1.139-.877 1.512-1.568.374-.69.56-1.53.56-2.52 0-1.474-.392-2.604-1.176-3.388-.765-.803-1.708-1.204-2.828-1.204-1.12 0-2.063.401-2.828 1.204-.746.784-1.12 1.913-1.12 3.388 0 1.475.364 2.614 1.092 3.416.747.784 1.68 1.176 2.8 1.176zM88.503 13.19v20.72h-3.92V13.19h3.92zm17.593 5.207l-9.604 22.848H92.32l3.36-7.728-6.216-15.12h4.396l4.004 10.836 4.06-10.836h4.172zm20.257-.224c1.904 0 3.434.588 4.592 1.764 1.176 1.157 1.764 2.781 1.764 4.872v9.1h-3.92v-8.568c0-1.213-.308-2.137-.924-2.772-.616-.653-1.456-.98-2.52-.98s-1.914.327-2.548.98c-.616.635-.924 1.559-.924 2.772v8.568h-3.92v-8.568c0-1.213-.308-2.137-.924-2.772-.616-.653-1.456-.98-2.52-.98-1.083 0-1.942.327-2.576.98-.616.635-.924 1.559-.924 2.772v8.568h-3.92V18.397h3.92v1.876a5.244 5.244 0 011.932-1.54 6.162 6.162 0 012.632-.56c1.213 0 2.296.262 3.248.784a5.31 5.31 0 012.212 2.184c.504-.896 1.232-1.614 2.184-2.156a6.334 6.334 0 013.136-.812zm7.948 7.924c0-1.568.308-2.959.924-4.172.634-1.213 1.484-2.146 2.548-2.8 1.082-.653 2.286-.98 3.612-.98 1.157 0 2.165.233 3.024.7.877.467 1.577 1.055 2.1 1.764v-2.212h3.948V33.91h-3.948v-2.268c-.504.728-1.204 1.335-2.1 1.82-.878.467-1.895.7-3.052.7a6.66 6.66 0 01-3.584-1.008c-1.064-.672-1.914-1.614-2.548-2.828-.616-1.232-.924-2.641-.924-4.228zm12.208.056c0-.952-.187-1.764-.56-2.436-.374-.69-.878-1.213-1.512-1.568a3.965 3.965 0 00-2.044-.56c-.728 0-1.4.178-2.016.532-.616.355-1.12.878-1.512 1.568-.374.672-.56 1.475-.56 2.408 0 .933.186 1.755.56 2.464.392.69.896 1.223 1.512 1.596a3.91 3.91 0 002.016.56 4.12 4.12 0 002.044-.532 4.083 4.083 0 001.512-1.568c.373-.69.56-1.512.56-2.464zm11.22-4.536v7.504c0 .523.121.905.364 1.148.261.224.691.336 1.288.336h1.82v3.304h-2.464c-3.304 0-4.956-1.605-4.956-4.816v-7.476h-1.848v-3.22h1.848v-3.836h3.948v3.836h3.472v3.22h-3.472zm13.908-3.444c1.176 0 2.221.262 3.136.784.914.504 1.624 1.26 2.128 2.268.522.99.784 2.184.784 3.584v9.1h-3.92v-8.568c0-1.232-.308-2.175-.924-2.828-.616-.672-1.456-1.008-2.52-1.008-1.083 0-1.942.336-2.576 1.008-.616.653-.924 1.596-.924 2.828v8.568h-3.92V13.19h3.92v7.14c.504-.672 1.176-1.195 2.016-1.568.84-.392 1.773-.588 2.8-.588z"/></g></svg>