<svg width="179" height="48" viewBox="0 0 179 48" fill="none" xmlns="http://www.w3.org/2000/svg"><path d="M25.8 35.787c-3.5-1.3-7.1-1.5-10.4-.6-2.3.6-4.5 1.8-6.5 3.3l-1.4 1.2-.4.4.9.8c.1 0 .1.1.2.2.2.2.4.3.7.5l.6.4.6-.5c.1-.1.3-.3.5-.4 1.8-1.5 3.8-2.5 5.9-3 2.7-.7 5.6-.6 8.5.5 2.4.9 7.3 2 13.2-.5l.2-.1.3-.3c0-.1.1-.1.2-.2.5-.6 1-1.2 1.4-1.9l2-3.1-3.2 1.8c-4.7 2.6-9 3.1-13.3 1.5zM12.1 24.988c2.7-.7 5.6-.6 8.5.5 3.2 1.2 11.4 2.9 20.6-5.4l1.5-1.5.1-.1.4-.4-.2-.5c-.1-.4-.3-.9-.5-1.4l-.5-1.4-1 1c-.1.2-.3.3-.5.5-4.4 4.5-11.2 9.1-19 6.3-3.5-1.3-7.1-1.5-10.4-.6-3.2.9-6 2.6-8.6 5v-.1l-1.5 1.6c0 .1-.1.1-.2.2l-.3.3.1.4c.1.5.3 1 .4 1.5l.6 1.6 1-1.3c.1-.2.3-.3.4-.5 2.1-1.9 5-4.6 9.1-5.7z" fill="#12715B"/><path d="M2.4 23.187c2.3-2.4 4.9-3.9 7.7-4.7 2.7-.7 5.6-.6 8.5.5 9 3.3 16.8-2.1 20.2-5l1.3-1.3.5-.4-.4-.6c-.3-.3-.5-.7-.8-1.1l-.6-.8-.7.7-.4.4c-4.2 4-10.7 8.1-18.1 5.3-3.5-1.3-7.1-1.5-10.4-.6-2.1.6-4.1 1.6-6.1 2.9l-2.1 1.7-.5.5-.2.2v.3c-.1.7-.1 1.4-.2 2l-.1 2.5 1.7-1.8c.2-.2.4-.5.7-.7zm26.3 19.4l-.2.6.2-.6c-.3-.1-.5-.2-.8-.3-3.5-1.3-7.1-1.5-10.4-.6-.7.2-1.4.4-2.1.7l-2.4 1.1-.6.3 2 .7 1.8.6.3.1.3-.1c.3-.1.6-.3.9-.3.2 0 .4-.1.6-.2 2.4-.6 5-.6 7.8.3.3.1.5.2.8.3l.5.2.3-.1c.7-.2 1.5-.4 2.1-.7l2.8-1-2.9-.7c-.3-.1-.7-.2-1-.3zm15.3-20.7l-1.5 1.5-.6.6c-4.1 3.9-10.7 8.1-18.1 5.3-3.5-1.3-7.1-1.5-10.4-.6-3.1.9-5.9 2.5-8.4 4.9l-1.3 1.4-.4.5.4.6c.3.4.5.7.7 1.1l.6.9.7-.9.4-.4c2.4-2.6 5-4.2 8-5 2.7-.7 5.6-.6 8.5.5 2.5.9 5.1 1.2 7.7.9 4.6-.5 9.2-3.1 12.6-6 .2-.2.4-.3.6-.5l.3-.3v-.3c0-.6.1-1.3.1-1.9l.1-2.3z" fill="#12715B"/><path d="M6 12.688l-.3-.6.3.6c.6-.3 1.3-.5 1.9-.7 2.7-.7 5.6-.6 8.5.5 1.9.7 3.8 1 5.9 1 4.2 0 8.4-1.5 12.3-4.4l1.5-1.2.5-.4-.9-.7c-.3-.3-.7-.6-1.1-.8l-.6-.4-.5.4c-.2.1-.3.3-.5.4-5.3 4-10.6 5.1-15.6 3.2-3.6-1.3-7.2-1.6-10.8-.5-.3.1-.6.2-1 .3l-.2.1-.3.3c0 .1-.1.1-.2.2-.4.6-.9 1.1-1.3 1.7l-1.9 2.9 3.1-1.6c.5 0 .9-.2 1.2-.3zm8.2-6.801l.3.1c1.3.5 3.3 1 5.8 1 2.6 0 5.1-.6 7.6-1.6l3.1-1.5-2.1-.7c-.6-.2-1.2-.4-1.9-.5h-.3l-.3.1c-.3.1-.6.3-.9.4-3 1.1-6 1.3-8.9.5l-.9-.3-.3-.1-.3.1c-.6.2-1.2.4-1.8.7l-2.3 1 2.4.7c.2-.1.5 0 .8.1z" fill="#12715B"/><path d="M61.28 33.91h-4.614l7.03-20.365h5.548l7.02 20.364H71.65l-5.1-15.71h-.16l-5.11 15.71zm-.289-8.005H71.89v3.36H60.991v-3.36zm21.88-12.36V33.91h-4.235V13.545h4.235zm11.517 5.091v3.182h-9.197v-3.182h9.197zm-7.11-3.659h4.236v14.239c0 .391.06.696.18.915.119.212.284.36.497.447.218.086.47.13.755.13.2 0 .398-.017.597-.05l.457-.09.666 3.152c-.212.066-.51.143-.894.229a7.176 7.176 0 01-1.402.169c-1.021.04-1.916-.096-2.685-.408-.762-.311-1.356-.795-1.78-1.452-.424-.656-.633-1.484-.626-2.485V14.977zm15.45 17.828v-14.08h3.56v14.08h-3.56zm-5.26-5.26v-3.56h14.08v3.56h-14.08zm29.372-8.143c-.079-.802-.421-1.425-1.024-1.87-.603-.444-1.422-.666-2.456-.666-.703 0-1.296.1-1.78.299-.484.192-.855.46-1.113.805a1.938 1.938 0 00-.378 1.173c-.014.365.063.683.228.955.173.272.408.507.706.706a5.41 5.41 0 001.034.507c.392.14.809.259 1.253.358l1.83.438c.888.198 1.703.463 2.446.795.742.331 1.385.74 1.929 1.223a5.101 5.101 0 011.263 1.71c.305.656.46 1.409.467 2.257-.007 1.247-.325 2.327-.955 3.242-.623.908-1.524 1.614-2.704 2.118-1.173.497-2.589.745-4.246.745-1.644 0-3.076-.252-4.295-.755-1.213-.504-2.161-1.25-2.844-2.238-.676-.994-1.031-2.223-1.064-3.688h4.166c.047.682.242 1.252.587 1.71.351.45.819.792 1.402 1.024.59.225 1.256.338 1.998.338.73 0 1.363-.106 1.9-.318.543-.212.964-.507 1.262-.885a2.04 2.04 0 00.448-1.303c0-.457-.136-.841-.408-1.153-.265-.312-.656-.577-1.173-.795a11.97 11.97 0 00-1.879-.597l-2.218-.557c-1.717-.418-3.072-1.07-4.067-1.959-.994-.888-1.488-2.085-1.481-3.59-.007-1.232.321-2.31.984-3.23.67-.922 1.588-1.641 2.755-2.158 1.166-.518 2.492-.776 3.977-.776 1.511 0 2.83.258 3.957.776 1.134.517 2.015 1.236 2.645 2.157.63.922.955 1.989.975 3.202h-4.127zm11.457 5.678v8.83h-4.236V13.544h4.117v7.786h.179c.345-.902.901-1.607 1.67-2.118.769-.517 1.734-.776 2.894-.776 1.06 0 1.985.232 2.774.697.795.457 1.412 1.116 1.849 1.978.444.855.663 1.88.657 3.073v9.724h-4.236V24.94c.006-.941-.232-1.673-.716-2.197-.477-.524-1.147-.786-2.009-.786-.576 0-1.087.123-1.531.368a2.611 2.611 0 00-1.034 1.074c-.245.464-.371 1.024-.378 1.68zm13.237 8.83V18.635h4.236V33.91h-4.236zm2.128-17.242c-.63 0-1.17-.21-1.621-.627-.444-.424-.666-.931-.666-1.521 0-.583.222-1.084.666-1.502a2.282 2.282 0 011.621-.636c.63 0 1.167.212 1.611.636.45.418.676.918.676 1.502 0 .59-.226 1.097-.676 1.521a2.266 2.266 0 01-1.611.627zm15.228 1.968v3.182h-10.94v-3.182h10.94zm-8.782 15.273V17.533c0-1.107.215-2.025.646-2.755a4.148 4.148 0 011.79-1.64c.755-.365 1.614-.547 2.575-.547.65 0 1.243.05 1.78.149.543.1.948.189 1.213.268l-.756 3.182a5.318 5.318 0 00-.616-.149 3.85 3.85 0 00-.736-.07c-.623 0-1.057.146-1.303.438-.245.285-.368.686-.368 1.203V33.91h-4.225zm17.979-15.273v3.182h-9.197v-3.182h9.197zm-7.109-3.659h4.236v14.239c0 .391.059.696.179.915a.986.986 0 00.497.447c.219.086.471.13.756.13.198 0 .397-.017.596-.05.199-.04.351-.07.458-.09l.666 3.152c-.212.066-.511.143-.895.229a7.176 7.176 0 01-1.402.169c-1.021.04-1.916-.096-2.685-.408-.762-.311-1.355-.795-1.78-1.452-.424-.656-.633-1.484-.626-2.485V14.977z" fill="#101828"/></svg>