<svg width="163" height="48" viewBox="0 0 163 48" fill="none" xmlns="http://www.w3.org/2000/svg"><g opacity=".9" fill="#fff"><path opacity=".7" fill-rule="evenodd" clip-rule="evenodd" d="M16 30c6.627 0 12-5.373 12-12S22.627 6 16 6 4 11.373 4 18s5.373 12 12 12zm0 4c8.837 0 16-7.163 16-16S24.837 2 16 2 0 9.163 0 18s7.163 16 16 16z"/><path fill-rule="evenodd" clip-rule="evenodd" d="M24 42c6.627 0 12-5.373 12-12s-5.373-12-12-12-12 5.373-12 12 5.373 12 12 12zm0 4c8.837 0 16-7.163 16-16s-7.163-16-16-16S8 21.163 8 30s7.163 16 16 16z"/><path d="M51.95 33.91h4.53v-21h-4.53v21zm6.518 0h4.2v-8.28c0-1.95 1.29-3.36 3.12-3.36 1.74 0 2.91 1.32 2.91 3.15v8.49h4.2v-9.42c0-3.48-2.22-5.94-5.64-5.94-2.07 0-3.75.87-4.59 2.34v-2.1h-4.2v15.12zm17.471-19.59v4.47h-2.91v3.48h2.91v6.15c0 3.51 2.25 5.49 5.73 5.49h2.49V30.4h-1.92c-1.35 0-2.13-.69-2.13-2.16v-5.97h4.05v-3.48h-4.05v-4.47h-4.17z"/><path d="M94.757 28.78c-.33 1.29-1.44 1.95-3.12 1.95-2.1 0-3.45-1.32-3.75-3.45h10.86c.03-.33.06-.78.06-1.35 0-3.45-2.13-7.38-7.47-7.38-5.13 0-7.47 3.93-7.47 7.77 0 3.81 2.64 7.83 7.77 7.83 3.72 0 6.6-2.1 7.2-5.37h-4.08zm-3.42-7.17c2.01 0 3.18 1.35 3.3 3.03h-6.69c.36-2.1 1.5-3.03 3.39-3.03zm17.965.66v-3.48h-1.71c-1.83 0-2.97.63-3.78 2.52v-2.52h-4.2v15.12h4.2v-7.35c0-2.58.93-4.29 3-4.29h2.49zm.681 11.64h4.17V12.22h-4.17v21.69zm13.165.24c4.65 0 7.98-3.3 7.98-7.8s-3.33-7.8-7.98-7.8-7.98 3.3-7.98 7.8 3.33 7.8 7.98 7.8zm0-3.6c-2.25 0-3.78-1.71-3.78-4.2 0-2.52 1.53-4.23 3.78-4.23s3.78 1.71 3.78 4.23c0 2.49-1.53 4.2-3.78 4.2zm15.781 3.6c3.93 0 7.05-2.52 7.5-5.88h-4.26c-.3 1.35-1.53 2.28-3.06 2.28-2.28 0-3.63-1.74-3.63-4.2s1.32-4.23 3.57-4.23c1.53 0 2.82.99 3.06 2.34h4.2c-.27-3.51-3.42-5.91-7.38-5.91-4.68 0-7.8 3.39-7.8 7.8s3.12 7.8 7.8 7.8zm18.53-.24h5.04l-6.51-9.18 6.03-5.94h-5.28l-5.25 5.16V12.22h-4.2v21.69h4.2v-4.74l1.68-1.65 4.29 6.39z"/></g></svg>