<svg width="167" height="48" viewBox="0 0 167 48" fill="none" xmlns="http://www.w3.org/2000/svg"><path fill-rule="evenodd" clip-rule="evenodd" d="M19.765 3.448a3.8 3.8 0 00-1.53 0c-.584.12-1.106.412-1.52.645l-.114.063-14.06 7.81-.12.067c-.439.242-.99.546-1.415 1.006a3.8 3.8 0 00-.813 1.383c-.197.594-.194 1.224-.193 1.726v15.696c-.001.501-.004 1.131.193 1.726a3.8 3.8 0 00.813 1.383c.424.46.976.764 1.416 1.006l.12.066 14.059 7.81.113.064c.415.232.937.525 1.52.645a3.799 3.799 0 001.531 0c.584-.12 1.106-.413 1.52-.645l.114-.063 14.06-7.811a11.168 11.168 0 01.12-.066c.439-.242.99-.546 1.415-1.006a3.8 3.8 0 00.813-1.383c.197-.595.194-1.225.193-1.726V16.148c.002-.502.004-1.132-.193-1.726a3.8 3.8 0 00-.813-1.383c-.424-.46-.976-.764-1.416-1.006h-.001l-.118-.066-14.06-7.811-.113-.063c-.415-.233-.937-.525-1.52-.645zm-1.319 4.03c.288-.16.435-.241.545-.294L19 7.18l.01.004c.109.053.256.134.544.294l12.633 7.018L19 21.822 5.813 14.496l12.633-7.018zM3.801 17.725L17.1 25.114v14.652L4.387 32.703c-.304-.169-.46-.256-.568-.325l-.01-.006v-.01a12.602 12.602 0 01-.008-.655V17.725z" fill="#12715B"/><path d="M55.291 30.345h6.048v3.564H50.674V14.955h4.617v15.39zm10.302-13.068c-.81 0-1.476-.234-1.998-.702a2.38 2.38 0 01-.756-1.782c0-.72.252-1.314.756-1.782.522-.486 1.188-.729 1.998-.729.792 0 1.44.243 1.944.73.522.467.783 1.061.783 1.781 0 .702-.26 1.296-.783 1.782-.504.468-1.152.702-1.944.702zm2.295 1.566V33.91h-4.617V18.843h4.617zm8.8-.216c1.062 0 1.99.216 2.781.648.81.432 1.431 1 1.863 1.701v-2.133h4.617v15.04c0 1.385-.279 2.636-.837 3.752-.54 1.134-1.377 2.034-2.51 2.7-1.117.666-2.512 1-4.186 1-2.232 0-4.04-.532-5.427-1.594-1.386-1.044-2.178-2.466-2.376-4.266h4.563c.144.576.486 1.026 1.026 1.35.54.342 1.206.513 1.998.513.954 0 1.71-.279 2.268-.837.576-.54.864-1.413.864-2.619V31.75c-.45.702-1.07 1.278-1.863 1.728-.792.432-1.719.648-2.78.648-1.243 0-2.368-.315-3.376-.945-1.008-.648-1.809-1.557-2.403-2.727-.576-1.188-.864-2.556-.864-4.104s.288-2.907.864-4.077c.594-1.17 1.395-2.07 2.403-2.7 1.008-.63 2.133-.945 3.375-.945zm4.644 7.75c0-1.153-.324-2.062-.972-2.728a3.072 3.072 0 00-2.322-.999c-.918 0-1.7.333-2.349 1-.63.647-.945 1.547-.945 2.7 0 1.151.315 2.07.945 2.753.648.666 1.431 1 2.35 1 .917 0 1.691-.334 2.321-1 .648-.666.972-1.575.972-2.727zm16.948-7.696c1.728 0 3.114.576 4.158 1.728 1.044 1.134 1.566 2.7 1.566 4.698v8.802h-4.59v-8.18c0-1.009-.26-1.792-.783-2.35-.522-.558-1.224-.837-2.106-.837-.882 0-1.584.28-2.106.837-.522.558-.783 1.341-.783 2.35v8.18H89.02V13.93h4.617v6.94c.468-.667 1.107-1.198 1.917-1.594.81-.396 1.72-.594 2.727-.594zm17.06 11.313v3.915h-2.349c-1.674 0-2.979-.405-3.915-1.215-.936-.828-1.404-2.169-1.404-4.023v-5.994h-1.836v-3.834h1.836v-3.672h4.617v3.672h3.024v3.834h-3.024v6.048c0 .45.108.774.324.972.216.198.576.297 1.08.297h1.647zm6.918-9.018c.432-.702 1.053-1.269 1.863-1.7.81-.433 1.737-.649 2.781-.649 1.242 0 2.367.315 3.375.945 1.008.63 1.8 1.53 2.376 2.7.594 1.17.891 2.53.891 4.077 0 1.548-.297 2.916-.891 4.104-.576 1.17-1.368 2.08-2.376 2.727-1.008.63-2.133.945-3.375.945-1.062 0-1.989-.207-2.781-.62-.792-.433-1.413-1-1.863-1.702v2.106h-4.617V13.93h4.617v7.047zm6.588 5.373c0-1.152-.324-2.052-.972-2.7-.63-.666-1.413-.999-2.349-.999-.918 0-1.701.333-2.349 1-.63.665-.945 1.574-.945 2.726s.315 2.061.945 2.727c.648.666 1.431 1 2.349 1 .918 0 1.701-.334 2.349-1 .648-.684.972-1.602.972-2.754zm13.709 7.776c-1.476 0-2.808-.315-3.996-.945a7.034 7.034 0 01-2.781-2.7c-.666-1.17-.999-2.538-.999-4.104 0-1.548.342-2.907 1.026-4.077a6.937 6.937 0 012.808-2.727c1.188-.63 2.52-.945 3.996-.945s2.808.315 3.996.945a6.937 6.937 0 012.808 2.727c.684 1.17 1.026 2.53 1.026 4.077 0 1.548-.351 2.916-1.053 4.104a6.944 6.944 0 01-2.835 2.7c-1.188.63-2.52.945-3.996.945zm0-3.996c.882 0 1.629-.324 2.241-.972.63-.648.945-1.575.945-2.78 0-1.207-.306-2.134-.918-2.782a2.881 2.881 0 00-2.214-.972c-.9 0-1.647.324-2.241.972-.594.63-.891 1.557-.891 2.781 0 1.206.288 2.133.864 2.781a2.881 2.881 0 002.214.972zm18.973 3.781l-2.889-4.186-2.43 4.185h-4.995l4.968-7.695-5.103-7.37h5.184L159.152 23l2.43-4.158h4.995l-5.049 7.587 5.184 7.48h-5.184z" fill="#101828"/></svg>