<svg width="244" height="167" viewBox="0 0 244 167" fill="none" xmlns="http://www.w3.org/2000/svg"><path d="M218.155 95.865a4.235 4.235 0 014.263 1.501c1.771 2.243 3.988 4.023 5.77 6.213.195.252.137.699.241 1.039.104.341.19.47.336.494 1.911.403 2.38 2.195 3.425 3.438-1.077 1.38.544.655.787.996a47.683 47.683 0 014.143 6.393 380.117 380.117 0 013.234 6.65 39.897 39.897 0 012.828 9.537 40.2 40.2 0 01.276 11.564 60.135 60.135 0 01-1.783 8.536 33.811 33.811 0 01-3.425 8.708 15.565 15.565 0 01-3.61 4.9 3.05 3.05 0 01-4.024.237 19.086 19.086 0 01-5.095-3.702 2.549 2.549 0 01.18-3.894 2.557 2.557 0 011.364-.517c.229-.048.633-.054.647-.147.399-2.531 1.683-4.791 2.223-7.321.539-2.53 1.039-4.923 1.498-7.419a36.574 36.574 0 00-1.512-17.821c-.523-1.663-1.498-3.166-2.186-4.784-.341-.798-.661-1.702.737-1.936.195-.027.286-.495.433-.75a3.248 3.248 0 01-.74-.107c-.451-.261-1.319-.422-1.336-.671-.077-1.566-1.5-1.947-2.204-2.914a10.979 10.979 0 01-1.42-3.441 4.736 4.736 0 00-1.716-2.892c-.271-.156-.217-.526-.783-.552a2.922 2.922 0 01-2.41-1.691 1.234 1.234 0 01-.108-1.583c.122-.211 0-.521-.007-.785a2.318 2.318 0 01-.659.62c-.552.262-1.334-.43-1.052-.607.696-.339 1.329-.914.195-.928-1.538-.008-2.126-.447-2.441-1.81a3.47 3.47 0 00-.802-1.283 2.1 2.1 0 00-.571-.33c-.598 1.036-.5.312-1.034-.117a26.089 26.089 0 00-5.288-3.993 4.74 4.74 0 01-2.54-1.847c-.323-.587-1.633-.643-2.376-.952-.743-.309-1.172-.676-.606-1.45 0 0-.511-.675-.791-.677-1.065.006-2.17.288-2.763-.975 0 0-.643-.03-.762.14-.508.708-.637.513-.937-.18-.109-.263-.875-.185-1.316-.36a49.008 49.008 0 00-9.704-2.52 3.473 3.473 0 00-1.901-.178c-.968.322-.342 1.043-.475 1.587a2.013 2.013 0 01-.962 1.145c-.546.285-.884.49-.694 1.2.084.472.144.947.18 1.425l-1.211-.159a2.31 2.31 0 01-.283 1.358c-.095.165-.043.075.166.095l-.108-.402a2.95 2.95 0 00-.455.197s.036.181.389.125c.353-.056.706.407.602.588-1.002 1.422-1.366 3.373-3.154 4.282-.416.2-.537.93-.805 1.396-1.257 2.836-3.779 4.601-5.769 6.834a34.674 34.674 0 01-8.281 6.465c-.733.437-.943 2.257-2.427 1.22-.848.531-1.663 1.041-2.546 1.632a21.664 21.664 0 01-2.586 1.668 23.413 23.413 0 01-3.112.845c-1.051.293-2.089.634-3.166.833-1.077.199-2.471.255-3.664.586-1.193.332-2.308-.652-3.707-.139-.913.333-2.264-.867-3.464-.94a15.6 15.6 0 01-4.206-.627c-.617-.216-1.103-.137-1.322-.903-.219-.767-.781-.451-1.328-.407-.547.045-1.051-.226-.626-1.102l-.061.106c.175.042.352.071.531.086 0 0 .13-.225.094-.406-.194.017-.382.08-.547.184-1.228.392-1.671-.644-2.375-1.091a13.216 13.216 0 01-3.78-3.863c-.445-.617-1.538-1.188-.871-2.344a2.02 2.02 0 00-.823-.795c-.969-.439-1.459-.943-.578-1.915.627-.738-.88-1.008-.381-2.22a29.729 29.729 0 011.54-3.674l3.717-6.438a3.47 3.47 0 002.33-1.313 3.458 3.458 0 00.7-2.58l.312-.541c.211.082.409.196.586.338.468.382.889.82 1.251 1.303.105.06-.355.615-.651.885.751.573 2.156.084 2.633-.881a2.12 2.12 0 01.234-.406l.337-.585c-.255-.147-.586-.338-.831-.26-.246.078-.415.44-.665.597a.607.607 0 01-.57-.09c-.158-.21-.355-.564-.281-.762a8.48 8.48 0 01.814-1.41c.373-.646 1.768.2 1.696-1.203-.072-1.402 1.567-.736 2.084-1.458.517-.722 1.36-.655 2.3-.513.379.039.812-.852 1.302-1.249 1.513-1.128 1.528-1.119 2.281.596.127.216.282.414.462.588a4.06 4.06 0 00.394-.474c.153-.275.275-.568.362-.87.372-1.547.617-1.866 1.86-1.348.971.4 1.25.16 1.73-.602a1.58 1.58 0 011.356-.578c.769.264 1.086.166 1.553-.504.26-.45 1.376-.927 1.531-.778 1.146 1.103 1.879-.235 2.805-.381 2.363-.276 4.744-.583 7.12-.812a9.597 9.597 0 013.634-.082c1.448.475 1.631-.5 1.586-1.186a30.71 30.71 0 00-.048-4.29 12.636 12.636 0 01-.085-4.571c.242-1.321-.819-2.954-1.489-4.362-.67-1.407-1.618-2.334-2.202-3.612a32.386 32.386 0 00-1.766-2.84 8.271 8.271 0 00-1.91-2.384c-.555-.46-.482-1.699-.7-2.605a5.389 5.389 0 00-.213-.603c-1.566.596-1.886-1.21-3.057-1.645a5.21 5.21 0 01-2.913-2.242c-.605-1.45-2.469-1.206-2.911-2.802-.199-.695-1.562-1.042-2.395-1.542-1.232-.712-2.412-1.513-3.681-2.126-1.27-.613-2.083-1.703-3.762-1.571-1.241.103-2.135-1.854-3.777-1.3-1.944-1.283-4.304-1.465-6.351-2.327-3.239-1.33-6.754-1.418-10.09-2.303a65.663 65.663 0 00-10.503-1.242c-2.781-.285-5.694.215-8.42-.86-3.035.85-6.18.295-9.223.499-3.495.223-6.988.548-10.468.78-1.771.117-3.434.638-5.218.709-3.883.33-7.742.895-11.556 1.692-2.41.39-4.774 1.086-7.194 1.39-2.42.304-5.129 1.04-7.743 1.232-2.136.228-4.31 1.113-6.572 1.248-1.904.1-3.787.446-5.602 1.028-1.757.528-3.55.931-5.364 1.205-1.863.346-3.702.964-5.594 1.153a22.122 22.122 0 01-5.19.485c-.12-.069-.31.121-.454.198.087.183.212.344.368.473l2.54 1.466a5.211 5.211 0 011.975 1.54c.346.58 1.641.628 2.367.967.726.34 1.503.868 2.27 1.31l4.808 2.776c.82.544 1.673 1.037 2.554 1.475.677.39 1.639.286 2.324.661.684.376 1.357 1.605 2.018 1.606 1.02-.032 1.502.867 2.337.81 1.173.016.905 1.902 2.38 1.533.709-.15 1.669.963 2.54 1.327 2.321.84 3.43 2.98 5.071 4.508.18.104.192.571.092.813-.53 1.475-1.181 1.7-2.88 1.52a12.297 12.297 0 01-5.008-1.531 24.503 24.503 0 00-3.744-1.462c-1.246-.479-2.16-1.846-3.777-1.44-.142.038-.36-.208-.556-.32-3.695-1.894-7.397-3.811-11.133-5.668-1.3-.63-2.73-.996-4.039-1.611a21.957 21.957 0 00-3.98-2.198c-2.261-.526-3.974-2.175-6.048-2.712-3.49-.895-6.292-3.192-9.396-4.825C1.474 42-.42 40.907.898 38.346c.156-.27-.255-.807-.268-1.235.04-.388.12-.771.239-1.143.19.276.401.538.63.784 0 0 .467-.15.498-.273.07-.4-.03-.817.04-1.217.168-.984 1.423-1.56 1.05-2.755-.476.825-1.088 1.573-1.646 2.33-.043.076-.256.133-.278.1-.02-.032-.29-.328-.254-.426.726-1.743 1.496-3.459 2.213-5.186.554-1.341.979-2.737 1.616-4.05a17.759 17.759 0 002.172-3.968c.433-2.452 2.227-4.137 2.924-6.316 1.284-4.061 3.784-7.42 5.698-11.118.234-.405-.07-1.161.21-1.44.28-.277.932.018 1.41-.046.09.052.207-.36.311-.54.607-1.05.793-.643 1.006.2.113.466.074 1.644.974.362.182-.315.849-.29 1.03-.605.65-1.126 1.08-1.558 1.816.048.414.879 1.36.525 1.698-.581.338-1.106.554-1.341 1.798-.443a.71.71 0 00.451.121c.788-.046.833-.02.601.347a2.111 2.111 0 00-.464 2.053c-1.476.128-.395 1.032-.475 1.587-.005.302-.062.6-.169.883-1.669 3.619-2.843 7.423-4.65 11.002a90.9 90.9 0 00-4.23 8.543 51.357 51.357 0 01-3.15 6.566c-.086.15-.008.395-.004.598a2.24 2.24 0 00.622-.141c.339-.205.838-.377.973-.68.606-1.43 2.144-2.463 1.85-4.314-.057-.353.424-.735.633-1.095a64.502 64.502 0 003.93-8.336c.667-2.057 2.027-3.753 2.588-5.73a43.43 43.43 0 013.425-7.147 22.7 22.7 0 011.421-3.782c.689-.983.59-.5 1.272.054 1.274 1.056.636 2.368.555 3.202a21.598 21.598 0 01-1.8 4.644c-.642 1.53-1.255 3.077-1.921 4.613-.667 1.536-1.97 2.545-1.758 4.328.021.172-.216.375-.32.555a1380.112 1380.112 0 00-5.495 10.835 6.162 6.162 0 00-.475 1.727c-.032.262.096 1.116.628.543 1.439-1.59 3.477-.194 5.1-1.198.718-.446 1.847-.355 2.765-.765.36-.172.96.175 1.58.352l-.135-.078a2.18 2.18 0 00-.071.54s.225.13.406.094a1.282 1.282 0 00-.187-.648 10.666 10.666 0 016.796-1.36l-.12-.069c-.06.17-.088.35-.087.53 0 0 .226.13.407.095a1.301 1.301 0 00-.2-.556c.895-.683 1.9-1.244 3.106-.487a.904.904 0 00.814-.09 7.072 7.072 0 015.64-.747c.165.096.532.188.582.137.425-.736 1.548-.287 1.782-.553 1.454-1.581 3.442-.514 5.09-1.183a24.549 24.549 0 015.152-.767c1.035-.163 2.065-.349 3.106-.488 1.042-.139 1.836-.16 2.76-.268 1.253-.157 2.65-.771 3.683-.375 1.033.397 1.166-.667 1.87-.601a6.335 6.335 0 002.1-.168A14.73 14.73 0 0177 22.754c1.847.04 3.69-.138 5.495-.53A10.551 10.551 0 0185.57 22a9.822 9.822 0 004.597-.328 27.309 27.309 0 015.8-.433 99.122 99.122 0 0110.32.415c2.314.156 4.624.389 6.939.405 2.217.084 4.422.378 6.584.88 1.206.236 2.319-.303 3.646.244a31.523 31.523 0 006.499 1.27c2.071.336 4.139.85 6.231 1.217a28.153 28.153 0 014.633 1.794c.761.28 1.58.352 2.341.631a67.904 67.904 0 0110.686 4.57c1.893 1.092 4.378 1.266 5.946 2.852a53.983 53.983 0 004.819 3.522c1.514 1.195 2.89 2.63 4.365 3.822a39.937 39.937 0 017.908 9.207 63.066 63.066 0 014.911 9.54c.281.81.468 1.65.558 2.502.038.282-.17.642-.059.867a18.413 18.413 0 012.156 8.688 120.29 120.29 0 00-.02 3.99 1.385 1.385 0 00.543.935 9.677 9.677 0 005.886 1.397c.561-.036 1.066.235.382 1.141-.104.18-.052.09.166.096l-.093-.394c-.161.043-.314.11-.455.197 0 0 .044.166.382.101 1.714.02 3.424.14 5.124.357a.817.817 0 01.556.32c.217.526.379 1.08.564 1.627.487-.219.58-1.005 1.544-.489 4.578 2.483 9.358 4.302 13.647 7.179.541.312 1.321.662 1.463 1.145.706 2.248 2.287 2.7 4.283 2.992 1.071.158.347.961-.224 1.672-.095.165-.043.075.165.095l-.108-.402a2.96 2.96 0 00-.455.198s.011.086.355.044zm-37.95-21.51l-.585-.098c.103.297.266.569.481.798 0 0-.37.087-.366.149-.045.603-.04 1.208.016 1.81-.06.106.3.314.511.295.211-.018.476-.025.569-.151a1.722 1.722 0 00.019-1.339 1.732 1.732 0 00-.94-.954l.329-.57c.169.045.342.07.517.078 0 0 .13-.226.109-.398a.984.984 0 00-.66.38zm49.272 37.472l.007.784c.143-.038.383-.039.403-.107a8.81 8.81 0 00.161-1.008c-.168.083-.33.19.243 1.281-.429.152-.631.156-.668.254a4.549 4.549 0 00-.305.805c.135.078.361.208.413.118.182-.315.31-.641-.254-2.127zm-55.885-25.462l-.241-.14a1.633 1.633 0 00-.086.532s.226.13.398.109c.172-.02-.051-.33-1.48-1.775.188.296.403.575.642.831.166.117.342.218.526.304-.031-.258.052-.61-.094-.775-.145-.164-.518-.179.335.914zm-27.901 3.801c.432-.33.649-.465.822-.626a3.44 3.44 0 00.303-.525c-.249.016-.61-.052-.766.078-.155.13-.178.517.956-.649l.081.727c.168-.083.441-.105.511-.225.092-.265.15-.54.173-.82-.231.087-.42.137-2.08 2.04zm.178 14.891l-.241-.9.468-.811c1.242.278 1.977-.579 2.902-1.105a57.713 57.713 0 005.729-4.857c.643-.489 1.483-.764 1.741-1.696.138-.24.138-.24.601.347a.74.74 0 00.632.225c.693-.16 1.146-.46 1.658.597.512 1.056 1.036-.683 1.757-.406.241.139.714.672.81-.153.054-.51.06-1.006.075-1.518-.166.045-.428.013-.504.11-1.047 1.536-1.56-.421-2.38-.354.104-.18.122-.49.32-.555.472-.228 1.141-.242 1.427-.597.597-.757.97-1.681 1.455-2.522.486-.84 1.438-1.17 1.425-1.738-.021-1.213 1.662-.902 1.497-2.038-.057-.353.139-.9-.054-1.052-.628-.542-.889.048-1.158.513l-1.299 2.251a4.21 4.21 0 01-.674.612 2.24 2.24 0 01.072-.82l1.135-1.965c.099-.285.156-.582.169-.883l-1.002-.138.247-.879c-.252.007-.5.06-.732.158-.427.254-.818.549-1.238.826a8 8 0 01-1.554.644c-3.8.647-7.029 2.665-10.465 4.243a29.289 29.289 0 00-6.845 4.812 27.185 27.185 0 00-6.827 8.945c-.364.631-.866 1.221-.473 2.068.124.272-.001.661-.028.985.148-.255.356-.615.65-.605 1.283-.14 2.615-.052 3.872-.286a24.584 24.584 0 003.12-1.24c1.136-.405 2.249-.703 3.443-1.174.18.64.4 1.267.657 1.88 1.503.868 2.007.758 2.257-.438.052-.09-.255-.287-.409-.436-.702 1.215-1.312.363-2.032.048-.105-.061-.281.037-.417.099a.586.586 0 00.067.299c.279.281.517.458.146-.496zm-17.74-12.444a11.96 11.96 0 00-.788 1.366c-.069.12.196.493.363.55.257.07.529.06.779-.03a7.08 7.08 0 011.002-3.124s-.042-.204-.082-.308c-.041-.103-.416.06-.5.172-.26.45-.529.916-3.532 4.764l-1.118 1.936c-.087.15-.023.387-.034.58.18-.035.436-.027.506-.147l2.235-3.872c.052-.09-.061-.276-.099-.418-.183.074-.435.13-.537.27-.237.584-.557 1.14 1.805-1.739zm37.807-4.025l-1.464 2.537c-.13.36-.212.737-.245 1.119a7.648 7.648 0 001.249-.36 6.93 6.93 0 001.253-.817s-.024-.374-.108-.402c-.949-.369-.638-.909-.282-1.524l1.785-3.092c.086-.15-.016-.39-.043-.585-.177.098-.429.153-.516.303-.546.945-1.083 1.876-.517 4.784l-.148.255c.176.046.358.07.54.071 0 0 .121-.21.1-.382-.02-.172-.305.043-1.604-1.907zm13.264-.346c.069-.64.149-1.335.182-2.016.006-.357-.014-.948-.158-1.011a1.49 1.49 0 00-1.185.075 2.58 2.58 0 00-1.107 1.362c-.285 2.818-2.239 4.71-3.447 7.115-.381.66-1.666 1.22-1.601 1.697.239 1.739-1.104 2.224-1.88 3.257a43.84 43.84 0 01-6.199 6.746c-.095.165-.056.548-.089.849.365-.009.957.112 1.052-.053a5.521 5.521 0 011.199-1.816 5.519 5.519 0 011.81-1.209 1.458 1.458 0 00.784-.908c.347-1.121 1.542-1.351 2.122-2.217.156-.27.528-.395.714-.648.187-.253 2.701-3.463 2.909-3.684.514-.543 1.583-.486 1.468-1.813-.068-.82.97-1.681 1.062-2.569a2.02 2.02 0 01.908-1.816c.535-.417 1.031-.88 1.482-1.386l-.026.045zm-38.376 4.837c.105-.46.205-.842.299-1.248a4.913 4.913 0 00-1.415.404c-.552.427-1.083.882-1.589 1.364a12.831 12.831 0 00-3.949 4.203c-.159.5-.474.934-.898 1.242-1.521.623-1.507 1.431-.556 2.561.195.112-.016.651-.052.991.242-.188.457-.407.638-.653l1.776-3.077a19.176 19.176 0 012.209-2.506c1.198-1.21 2.368-2.195 3.537-3.281zm-10.549 5.015c.797-1.38.918-1.59.325-1.813-1.601-.524.178 1.183-.719 1.246 0 0-.104.18-.22.173-1.132.087-.703.974-.416 1.24.654.638.589-.36.889-.567.299-.207.089-.189.141-.279zM3.695 29.616c.043.585-1.107.981-.612 1.928.364-.63.878-1.174 1.278-1.764.24-.361.456-.737.65-1.125 0 0-.154-.29-.263-.412-.109-.123-.234.024-.278.1-.253.334-.47.709-.79 1.264l.015.009zM232.28 163.19c-.064.283-.127.427-.09.468.036.041.315.182.375.217a4.94 4.94 0 001.129-.429c.061-.105.182-.315.211-.538-.18-.104-.436-.252-.668-.126-.334.1-.655.237-.957.408zm-94.019-74.452c-.531.294-1.059.55-1.559.86.044.183.133.351.258.49.166.096.481.278.548.197.35-.362.66-.76.926-1.187 0 0-.139-.28-.173-.36zm82.084 17.216l1.148.163c-.093-.394-.123-1.072-.329-1.131-.206-.059-.9.101-1.347.183l.528.785zM6.175 30.768l-.09-.953c-.24.177-.444.4-.599.655-.085.319-.12.65-.105.98.264-.248.477-.445.795-.682zm125.076 64.108l-.143.838 1.386-.18c-.089-.192-.151-.468-.28-.522a3.643 3.643 0 00-.928-.196l-.035.06zm30.716 11.831a4.241 4.241 0 00-.775.613c-.069.12.01.366.013.568l1.297-.512-.535-.669zm-27.013-19.598c-.051.47-.078.655-.104.84l1.351-.12c-.083-.168-.144-.444-.282-.483a4.614 4.614 0 00-.965-.237zm39.659-11.12l-.143.838 1.386-.18c-.098-.177-.136-.459-.264-.513a5.357 5.357 0 00-.979-.145zm37.472 19.633c.2-.104.508-.186.53-.294.007-.34-.05-.677-.166-.996l-.68.067.316 1.223zm1.892-1.508c-.066.462-.107.638-.143.837l1.387-.18c-.075-.183-.136-.458-.265-.513a4.624 4.624 0 00-1.057-.01l.078-.134zm-71.8 13.313c.022.273-.041.557.043.585.269.111.547.198.831.26.003-.178.073-.438-.002-.481a4.76 4.76 0 00-.89-.194l.018-.17zm12.81-7.752c.023-.247.032-.541.033-.82-.168.082-.435.128-.498.272-.09.276-.141.563-.151.853l.616-.305zm46.617-14.806l-.91-.125c.042.23.135.448.273.637.135.079.376.078.57.09l.067-.603zm-37.16-42.765l.488-.36c-.151-.086-.21-.4-.362-.448a2.533 2.533 0 00-.704.074l.578.734zm-38.988 68.015l-.083-.308a1.995 1.995 0 00-.397.272s.051.189.068.299l.412-.263zM3.893 34.652l-.007.497s.267-.046.293-.091c.032-.158.044-.319.037-.48l-.323.074zm126.12 69.274l.048.368a1.42 1.42 0 00.397-.271s-.036-.181-.076-.284l-.369.187zm19.622.023l.082.308a1.99 1.99 0 00.397-.271s-.051-.19-.067-.299l-.412.262zm10.935 5.073c.044-.075.267-.046.278-.1.037-.154.054-.312.052-.47-.076-.044-.274.022-.285.076a1.785 1.785 0 00-.045.494zm-2.378-10.698l.093.254c.143-.074.276-.165.397-.27l-.076-.285c-.026-.095-.345.181-.414.301zm-21.234-12.64l-.331.09c.083.134.177.262.28.381 0 0 .196-.027.291-.052l-.24-.418zm31.074 8.297l-.097-.317a1.991 1.991 0 00-.397.271s.051.19.067.3l.427-.254zm-17.245-13.96l-.308.083c.074.143.165.276.271.397l.285-.076-.248-.403zm22.808 4.465s.022.273.076.284c.163.03.329.046.495.045 0 0-.047-.267-.092-.293a1.993 1.993 0 00-.479-.037zm-6.093-6.8l-.488-.021s.038.281.091.292c.157.04.319.052.48.037l-.083-.308zm-.042-1.905l.098.317c.138-.078.266-.172.382-.28 0 0-.036-.18-.053-.29l-.427.253zm.183-1.635l-.006.496s.267-.045.293-.09c.027-.159.04-.32.036-.48l-.323.074zm56.529 31.356l.098.317c.138-.077.266-.171.382-.28 0 0-.036-.181-.062-.275l-.418.238zm-12.077-7.573l.473.013s-.022-.273-.076-.284a2.003 2.003 0 00-.48-.037l.083.308zm2.253.02l-.308.082c.074.143.165.277.271.397 0 0 .19-.05.3-.067l-.263-.412zm5.563 1.851l-.007.497s.267-.046.293-.091c.032-.158.044-.319.037-.48l-.323.074zm-13.176-9.868l.068.54c.044-.075.267-.046.278-.1.044-.152.062-.312.052-.47l-.398.03zm-11.566-7.418l-.013.473s.274-.022.285-.076c.038-.162.053-.328.045-.494l-.317.097zM182.672 73.9s.032.258.085.269c.153.044.312.061.471.051 0 0-.022-.273-.076-.284a2.002 2.002 0 00-.435-.01l-.045-.026zm-7.813-4.131s.267-.046.293-.091c.031-.158.044-.319.036-.48 0 0-.258.031-.284.076a2.66 2.66 0 000 .52l-.045-.025z" fill="#fff"/><path d="M125.987 90.876l.738-.514c-.087.442-.199.878-.335 1.308-.095.165-.364.25-.558.377l.155-1.17zm-2.045 2.362l.68-.448c.027.195.112.464.028.576a2.95 2.95 0 01-.678.55l-.03-.678zm36.935-2.168c.106-.296.232-.584.378-.862.043-.075.303-.005.482-.002a5.03 5.03 0 01-.259.83c-.029.084-.312.02-.601.034zm.16-5.17l.041.484c-.12-.07-.385-.062-.397-.11.006-.18.035-.358.086-.53l.27.156z" fill="#fff"/></svg>