<svg xmlns="http://www.w3.org/2000/svg" viewBox="0 0 30 34"><path d="M30 22.499c0 1.1-.749 2.5-1.665 3.111l-11.67 7.78c-.916.61-2.414.61-3.33 0l-11.67-7.78C.749 24.999 0 23.6 0 22.499V11.501c0-1.1.749-2.5 1.665-3.111L13.335.61c.916-.61 2.414-.61 3.33 0l11.67 7.78C29.251 9.001 30 10.4 30 11.501v10.998z" fill="#56A4CA"/><path d="M3.595 22.793A.5.5 0 004 23h22a.5.5 0 00.475-.656L20.133 2.922l-1.345-.896L25.311 22H4.689l6.522-19.974-1.344.896-6.342 19.423a.497.497 0 00.07.448z" fill="#fff"/><path d="M15 26.5c-.115 0-11.5-.029-11.5-2.5s11.385-2.5 11.5-2.5 11.5.029 11.5 2.5-11.385 2.5-11.5 2.5z" fill="#56A4CA"/><path d="M15 22c5.747 0 11 .895 11 2s-5.253 2-11 2-11-.895-11-2 5.253-2 11-2m0-1c-2.815 0-12 .216-12 3s9.185 3 12 3 12-.216 12-3-9.185-3-12-3z" fill="#fff"/><circle cx="15" cy="11" r="3" fill="#fff"/><path d="M12 24.5a.5.5 0 01-.5-.5v-5c0-1.93 1.57-3.5 3.5-3.5s3.5 1.57 3.5 3.5v5a.5.5 0 01-.5.5h-6z" fill="#fff"/><path d="M15 16a3 3 0 013 3v5h-6v-5a3 3 0 013-3m0-1c-2.206 0-4 1.794-4 4v5a1 1 0 001 1h6a1 1 0 001-1v-5c0-2.206-1.794-4-4-4z" fill="#56A4CA"/><path d="M15 1.152c.429 0 .834.106 1.11.29l11.67 7.78c.639.426 1.22 1.512 1.22 2.279v10.998c0 .767-.581 1.853-1.219 2.279l-11.67 7.78c-.276.184-.681.29-1.11.29s-.834-.106-1.11-.29l-11.67-7.78C1.581 24.352 1 23.266 1 22.499V11.501c0-.767.581-1.853 1.219-2.279l11.67-7.78c.277-.184.682-.29 1.111-.29m0-1c-.603 0-1.207.153-1.665.458L1.665 8.39C.749 9.001 0 10.4 0 11.501v10.998c0 1.1.749 2.5 1.665 3.111l11.67 7.78c.458.305 1.061.458 1.665.458s1.207-.153 1.665-.458l11.67-7.78C29.251 24.999 30 23.6 30 22.499V11.501c0-1.1-.749-2.5-1.665-3.111L16.665.61C16.207.305 15.603.152 15 .152z" fill="#56A4CA"/></svg>