<svg width="311" height="352" viewBox="0 0 311 352" fill="none" xmlns="http://www.w3.org/2000/svg"><path fill-rule="evenodd" clip-rule="evenodd" d="M186.6 113.883c0 17.153-13.924 31.058-31.1 31.058-17.176 0-31.1-13.905-31.1-31.058 0-17.154 13.924-31.06 31.1-31.06 17.176 0 31.1 13.906 31.1 31.06zm-31.1 20.058c11.115 0 20.1-8.994 20.1-20.058 0-11.065-8.985-20.06-20.1-20.06-11.115 0-20.1 8.995-20.1 20.06 0 11.064 8.985 20.058 20.1 20.058z" fill="#191919"/><path d="M107 219.319v10.535c-37.67 3.363-65.533 10.433-65.533 18.616 0 11.44 54.456 20.706 114.033 20.706s114.033-9.266 114.033-20.706c0-8.183-27.863-15.253-65.533-18.616v-10.535c36.043 2.985 75.9 10.504 75.9 29.151 0 28.823-95.218 31.059-124.4 31.059-29.182 0-124.4-2.236-124.4-31.059 0-18.647 39.857-26.166 75.9-29.151z" fill="#191919"/><path fill-rule="evenodd" clip-rule="evenodd" d="M155.5 155.294c-22.869 0-41.467 18.573-41.467 41.412v51.764c0 5.715 4.644 10.353 10.367 10.353h62.2c5.722 0 10.367-4.638 10.367-10.353v-51.764c0-22.839-18.598-41.412-41.467-41.412zm0 10.353c17.177 0 31.1 13.904 31.1 31.059v51.764h-62.2v-51.764c0-17.155 13.922-31.059 31.1-31.059z" fill="#191919"/><path fill-rule="evenodd" clip-rule="evenodd" d="M172.761 6.315c-4.748-3.157-11.01-4.741-17.261-4.741-6.251 0-12.513 1.584-17.26 4.741L17.26 86.861C7.766 93.187 0 107.671 0 119.07v113.862c0 11.388 7.765 25.882 17.26 32.208l120.98 80.546c4.747 3.157 10.999 4.741 17.26 4.741 6.261 0 12.513-1.584 17.261-4.741L293.74 265.14c9.495-6.326 17.26-20.809 17.26-32.208V119.069c0-11.388-7.765-25.882-17.26-32.208L172.761 6.315zm-5.754 8.614c-2.861-1.905-7.06-3.002-11.507-3.002s-8.646 1.097-11.517 3.002l-32.96 21.944L50.635 221.57c-4.56 1.443-8.77 3.065-12.497 4.887L97.09 46.149 23.004 95.475c-6.614 4.41-12.637 15.654-12.637 23.594v113.862c0 7.941 6.023 19.184 12.657 23.594l120.979 80.546c2.862 1.905 7.06 3.002 11.507 3.002 4.448 0 8.646-1.097 11.507-3.002l120.979-80.546c6.614-4.41 12.637-15.653 12.637-23.594V119.069c0-7.94-6.023-19.184-12.647-23.594l-74.072-49.316 58.952 180.3c-3.728-1.823-7.939-3.445-12.501-4.889L199.968 36.874 167.007 14.93z" fill="#191919"/></svg>