<svg width="311" height="352" viewBox="0 0 311 352" fill="none" xmlns="http://www.w3.org/2000/svg"><path d="M92 231.453v-10.625c-31.269 3.759-60.9 11.564-60.9 27.643 0 28.822 95.218 31.058 124.4 31.058 29.182 0 124.4-2.236 124.4-31.058 0-16.079-29.631-23.884-60.9-27.643v10.625c29.835 3.738 50.533 9.965 50.533 17.018 0 11.44-54.456 20.705-114.033 20.705s-114.033-9.265-114.033-20.705c0-7.053 20.698-13.28 50.533-17.018zm28.8-89.629H192v26.735h-71.2v-26.735zM122 197h62.3v-10H122v10zm0 17.824h71.2v-10H122v10z" fill="#191919"/><path d="M122 232.647h44.5v-10H122v10z" fill="#191919"/><path fill-rule="evenodd" clip-rule="evenodd" d="M209.8 124H103v133.676h106.8V124zm-8.9 8.912v115.853h-89V132.912h89z" fill="#191919"/><path fill-rule="evenodd" clip-rule="evenodd" d="M172.761 6.315c-4.748-3.157-11.01-4.741-17.261-4.741-6.251 0-12.513 1.584-17.26 4.741L17.26 86.861C7.766 93.187 0 107.671 0 119.07v113.862c0 11.388 7.765 25.882 17.26 32.208l120.98 80.546c4.747 3.157 10.999 4.741 17.26 4.741 6.261 0 12.513-1.584 17.261-4.741L293.74 265.14c9.495-6.326 17.26-20.809 17.26-32.208V119.069c0-11.388-7.765-25.882-17.26-32.208L172.761 6.315zm-5.754 8.614c-2.861-1.905-7.06-3.002-11.507-3.002s-8.646 1.097-11.517 3.002l-32.96 21.944L50.635 221.57c-4.56 1.443-8.77 3.065-12.497 4.887L97.09 46.149 23.004 95.475c-6.614 4.41-12.637 15.654-12.637 23.594v113.862c0 7.941 6.023 19.184 12.657 23.594l120.979 80.546c2.862 1.905 7.06 3.002 11.507 3.002 4.448 0 8.646-1.097 11.507-3.002l120.979-80.546c6.614-4.41 12.637-15.653 12.637-23.594V119.069c0-7.94-6.023-19.184-12.647-23.594l-74.072-49.316 58.952 180.3c-3.728-1.823-7.939-3.445-12.501-4.889L199.968 36.874 167.007 14.93z" fill="#191919"/></svg>