<svg width="104" height="92" viewBox="0 0 104 92" fill="none" xmlns="http://www.w3.org/2000/svg"><path d="M63.269 56.087c-14.624.157-27.313-8.648-30.306-22.816.05-1.22.016-2.441-.103-3.657-.08-.684-1.138-.987-1.343-.179-1.468 7.302-3.22 14.313-8.854 19.664a30.24 30.24 0 01-10.07 6.322A30.575 30.575 0 01.825 57.4a.725.725 0 00-.646.342.7.7 0 00-.002.723c-.205.056-.262.36 0 .382.261.022.432.078.637.1h.114c7.545 1.223 15.932 1.75 22.044 6.731 7.238 5.912 7.966 15.536 7.795 24.173-.01.246.047.49.166.707.117.217.292.4.506.527v.112c-.069.931 1.4 1.122 1.65.202 0-.1.057-.202.08-.336.218-.12.4-.297.526-.51.126-.213.192-.455.19-.702v-1.525c1.65-6.17 3.04-12.26 7.364-17.387 5.406-6.327 13.11-9.804 21.338-10.746a1.6 1.6 0 001.022-.532c.262-.297.4-.68.39-1.072.235-.166.414-.4.51-.669a1.361 1.361 0 00-.447-1.532 1.411 1.411 0 00-.792-.3zm14.35-38.744c6.112.1 11.381-5.53 12.667-14.583-.04-.777-.04-1.556 0-2.333 0-.437.49-.64.558-.112.614 4.666 1.354 9.12 3.71 12.575 2.356 3.454 5.69 5.384 9.104 5.305.285 0 .353.382.273.673.08 0 .103.236 0 .247a1.792 1.792 0 00-.261.067h-.069c-3.152.786-6.668 1.122-9.218 4.32-3.016 3.78-3.311 9.926-3.255 15.445.014.292-.088.578-.284.797v.056c0 .606-.58.706-.683.134v-.213a1.03 1.03 0 01-.307-.774v-.976c-.683-3.937-1.263-7.852-3.073-11.116-2.276-4.072-5.463-6.293-8.922-6.887-.387-.068-.592-.561-.592-1.021-.387-.449-.284-1.615.353-1.604z" fill="#fff"/></svg>