<svg width="32" height="42" viewBox="0 0 32 42" fill="none" xmlns="http://www.w3.org/2000/svg"><path d="M22.001 9.8a2.44 2.44 0 012.268-1.572c.79 0 1.323.399 1.323.996 0 .47-.206.882-1.209 1.422l-.562.278a6.073 6.073 0 00-2.58 2.133 5.79 5.79 0 00-.712 3.065v.398h7.324v-2.133H23.09c.128-.633.526-1.032 1.472-1.515l.874-.44c1.7-.883 2.433-1.85 2.433-3.258a2.665 2.665 0 00-1.103-2.254 4.196 4.196 0 00-2.595-.782 4.04 4.04 0 00-2.205.626 3.777 3.777 0 00-1.457 1.6v.042l1.48 1.48L22 9.8zm5.177 8.889l-.014-.036h-7.95l-4.01 6.97h7.942l3.975 6.89 4.01-6.962-3.953-6.862z" fill="#EC583C"/><path d="M21.874 27.848A9.025 9.025 0 1116 11.962h.043l3.192-6.635h-.085A15.857 15.857 0 0016 5a16 16 0 100 32 15.786 15.786 0 009.4-3.072h.05l-3.512-6.137-.064.057z" fill="#EC583C"/></svg>