<svg width="129" height="42" viewBox="0 0 129 42" fill="none" xmlns="http://www.w3.org/2000/svg"><path d="M32.19 18.293l-8.653-8.65a.753.753 0 00-1.03 0l-1.7 1.7 6.952 6.951a.726.726 0 010 1.031l-7.148 7.148 1.7 1.7a.752.752 0 001.03 0l8.85-8.848a.753.753 0 000-1.03v-.002z" fill="#009C9C"/><path d="M17.45 10.268l-.63-.628a.753.753 0 00-1.03 0l-1.7 1.7 1.127 1.13 2.216 2.216 2.213-2.217-2.198-2.2h.002zm-.212 12.856l-2.211 2.217-1.13 1.128 1.7 1.7a.752.752 0 001.031 0l.625-.628 2.215-2.216-2.23-2.2z" fill="#40E3E3"/><path d="M21.042 18.293a.753.753 0 010 1.03l-3.804 3.8 2.217 2.217 6.02-6.02a.727.727 0 000-1.03l-5.81-5.806L17.45 14.7l3.593 3.593z" fill="#1ABAB8"/><path d="M6.93 18.5l6.02-6.02-2.216-2.216-.632-.623a.752.752 0 00-1.03 0L.215 18.5a.725.725 0 000 1.03l8.653 8.653a.753.753 0 001.03 0l.637-.628 2.217-2.216-5.821-5.808a.727.727 0 010-1.031z" fill="#87F0F0"/><path d="M13.645 18.5l2.66-2.656-2.216-2.216-1.13-1.128-6.018 6.02a.726.726 0 000 1.03l5.798 5.79 1.128-1.128 2.217-2.217-2.454-2.448a.753.753 0 010-1.031" fill="#40E3E3"/><path d="M13.646 19.53l2.453 2.45 2.657-2.656a.726.726 0 000-1.031l-2.45-2.45-2.66 2.657a.753.753 0 000 1.03z" fill="#17CFCF"/><path d="M39.129 16.457a8.47 8.47 0 01.576-2.86 6.194 6.194 0 011.505-2.22 6.904 6.904 0 012.434-1.436 10.22 10.22 0 013.387-.508 10.27 10.27 0 013.762.587c.865.32 1.663.798 2.352 1.41.527.47.945 1.05 1.226 1.697.203.473.337.972.399 1.484a.586.586 0 01-.196.507.754.754 0 01-.512.196h-2.114a.705.705 0 01-.46-.143.932.932 0 01-.244-.301 16.42 16.42 0 00-.275-.46 3.086 3.086 0 00-.707-.73 4.888 4.888 0 00-1.264-.677 5.463 5.463 0 00-1.96-.3 4.515 4.515 0 00-3.134 1.057 3.854 3.854 0 00-1.253 2.833c-.038.71-.056 1.42-.053 2.13 0 .755 0 1.466.053 2.129.049 1.445.47 2.494 1.253 3.145a4.73 4.73 0 003.127.978 7.121 7.121 0 001.775-.211 3.698 3.698 0 001.396-.677c.404-.33.719-.758.914-1.241.234-.6.345-1.24.328-1.882v-.222h-3.187a.664.664 0 01-.496-.21.675.675 0 01-.208-.493v-1.856a.714.714 0 01.704-.707h6.02a.715.715 0 01.704.708v2.87a8.114 8.114 0 01-.497 2.886 6.103 6.103 0 01-1.505 2.256 6.904 6.904 0 01-2.483 1.505 11.582 11.582 0 01-6.92 0 6.586 6.586 0 01-2.415-1.43 6.254 6.254 0 01-1.475-2.257 8.748 8.748 0 01-.565-2.885c0-.33-.03-.696-.037-1.095-.008-.398 0-.813 0-1.23v-1.227c0-.402.022-.752.037-1.098l.008-.022zm23.896.813a3.336 3.336 0 00-1.295.222 2.81 2.81 0 00-.9.572c-.236.224-.427.49-.564.786a2.97 2.97 0 00-.244.82h5.9a4.238 4.238 0 00-.196-.82 2.116 2.116 0 00-.471-.786 2.394 2.394 0 00-.861-.572 3.555 3.555 0 00-1.37-.222zm-6.397 3.916a8.391 8.391 0 01.444-2.754 6.632 6.632 0 011.28-2.257 6.063 6.063 0 012.024-1.504 6.274 6.274 0 012.633-.546 6.358 6.358 0 012.633.534 6.159 6.159 0 012.054 1.456 6.359 6.359 0 011.295 2.114c.306.814.462 1.677.459 2.547v1.175a.718.718 0 01-.708.706h-8.72c-.01.367.074.731.244 1.058.167.296.395.552.67.752.29.215.616.374.963.47.368.103.747.154 1.13.154.458.013.915-.044 1.357-.17.309-.092.6-.237.86-.428.148-.112.305-.21.472-.29a1.29 1.29 0 01.497-.08h2.087a.75.75 0 01.512.213.589.589 0 01.196.496 2.176 2.176 0 01-.406.94 4.473 4.473 0 01-1.13 1.13 7.33 7.33 0 01-1.88.94c-.83.27-1.7.398-2.573.375-.904.01-1.8-.162-2.634-.506a5.681 5.681 0 01-2.04-1.438 6.542 6.542 0 01-1.278-2.235 8.718 8.718 0 01-.444-2.86l.003.008zm19.076 1.88c-.025.47.13.932.432 1.292.286.323.82.485 1.607.485h1.592a.716.716 0 01.706.704v1.723a.718.718 0 01-.707.707H77.4c-1.64 0-2.892-.396-3.763-1.19-.87-.79-1.31-2.005-1.317-3.641V17.53h-1.738a.661.661 0 01-.492-.211.65.65 0 01-.211-.493V15.1a.665.665 0 01.21-.493.677.677 0 01.493-.21h1.727v-4.26a.715.715 0 01.704-.703H75a.715.715 0 01.704.703v4.259h3.386a.715.715 0 01.673.704v1.726a.715.715 0 01-.703.705h-3.387l.03 5.537v-.001zm17.16-1.906l-2.874-7.445-2.871 7.445h5.745zM91.427 9.693a.835.835 0 01.629.222c.168.195.295.42.375.667l6.397 16.508a.606.606 0 01.026.18.717.717 0 01-.707.707h-1.881a.99.99 0 01-.734-.221 1.318 1.318 0 01-.286-.434l-1.13-2.896h-8.25l-1.13 2.896c-.064.162-.161.31-.285.434a.984.984 0 01-.733.22h-1.882a.72.72 0 01-.703-.706.542.542 0 01.027-.18l6.396-16.508a1.94 1.94 0 01.376-.667.827.827 0 01.629-.222h2.866zm18.598 12.223a6.852 6.852 0 000-1.46c-.102-1.128-.452-1.948-1.043-2.441a3.268 3.268 0 00-2.166-.753 3.174 3.174 0 00-2.156.753 3.101 3.101 0 00-1.005 2.166c-.04.33-.058.662-.053.994-.005.332.013.664.053.993a3.17 3.17 0 001.005 2.142 3.112 3.112 0 002.156.782 3.27 3.27 0 002.166-.753c.591-.492.941-1.308 1.043-2.442v.019zm-2.419 6.32a6.245 6.245 0 01-1.449-.154 5.864 5.864 0 01-1.129-.376 4.338 4.338 0 01-.809-.526 4.59 4.59 0 01-.545-.508v5.56a.72.72 0 01-.708.708h-1.982a.717.717 0 01-.708-.708V15.1a.719.719 0 01.708-.704h1.982a.718.718 0 01.708.704v.602c.385-.426.85-.772 1.369-1.02.363-.162.741-.29 1.129-.376a6.293 6.293 0 011.449-.154 5.39 5.39 0 012.362.508c.687.325 1.3.787 1.802 1.358.504.58.903 1.243 1.178 1.96.286.738.448 1.519.481 2.31.019.26.027.564.027.914 0 .35 0 .655-.027.914a7.229 7.229 0 01-.481 2.31 6.572 6.572 0 01-1.178 1.96 5.584 5.584 0 01-1.802 1.359 5.393 5.393 0 01-2.377.492zm17.182-6.32a6.723 6.723 0 000-1.46c-.105-1.128-.451-1.948-1.046-2.441a3.254 3.254 0 00-2.166-.753 3.175 3.175 0 00-2.156.753 3.1 3.1 0 00-1.005 2.167c-.039.33-.056.661-.053.993-.003.332.014.664.053.993a3.17 3.17 0 001.005 2.142 3.11 3.11 0 002.156.782 3.256 3.256 0 002.166-.753c.595-.492.941-1.308 1.046-2.442v.02zm-2.43 6.302a6.258 6.258 0 01-1.448-.154 5.902 5.902 0 01-1.129-.377 4.277 4.277 0 01-.82-.511 4.635 4.635 0 01-.55-.51v5.566a.679.679 0 01-.21.497.693.693 0 01-.493.21h-1.987a.716.716 0 01-.703-.707V15.1a.709.709 0 01.703-.704h1.987a.718.718 0 01.703.704v.602a4.66 4.66 0 01.55-.508c.253-.2.528-.372.82-.512a6.242 6.242 0 012.577-.53 5.41 5.41 0 012.367.508 5.65 5.65 0 011.801 1.358c.504.58.901 1.243 1.175 1.96.286.738.448 1.519.481 2.31.019.26.026.564.026.914 0 .35 0 .655-.026.914a7.229 7.229 0 01-.481 2.31 6.563 6.563 0 01-1.175 1.96 5.655 5.655 0 01-1.801 1.359c-.741.346-1.55.52-2.367.508" fill="#2A3037"/></svg>