<svg width="160" height="42" viewBox="0 0 160 42" fill="none" xmlns="http://www.w3.org/2000/svg"><g clip-path="url(#clip0_2481_7460)"><path d="M12.756 8.081c.12.042.234.102.335.18l4.582 4.582a.99.99 0 01.286.687v21.126a.303.303 0 01-.32.32.27.27 0 01-.203-.083L13.09 30.58a.99.99 0 01-.286-.687V8.08h-.05l.002.001z" fill="url(#paint0_linear_2481_7460)"/><path d="M25.363 8.294c.084-.087.18-.158.287-.213v21.813a.957.957 0 01-.295.687l-4.311 4.312a.31.31 0 01-.45 0 .312.312 0 01-.082-.213V13.555a.88.88 0 01.294-.655l4.557-4.606z" fill="url(#paint1_linear_2481_7460)"/><path d="M33.668 25.075l-.32-.319v-4.483h-4.36a.302.302 0 00-.237.106l-3.126 3.125L35.632 33.52a.94.94 0 00.687.262h5.269a.303.303 0 00.31-.32.336.336 0 00-.073-.212l-8.157-8.175z" fill="url(#paint2_linear_2481_7460)"/><path d="M26.017 8a.958.958 0 00-.654.295l-4.615 4.614a1.705 1.705 0 00-.18.27h12.78v11.553l.32.319 4.556-4.533a.957.957 0 00.287-.687v-6.275a.99.99 0 00-.287-.647l-4.58-4.614a.958.958 0 00-.69-.295h-6.938z" fill="url(#paint3_linear_2481_7460)"/><path d="M13.026 8.294a.958.958 0 00-.687-.295H.32A.303.303 0 000 8.32a.31.31 0 00.106.237l4.312 4.353a.957.957 0 00.687.294h12.183a.64.64 0 01.63.638v-.245a.99.99 0 00-.286-.687l-4.607-4.615v-.001z" fill="url(#paint4_linear_2481_7460)"/><path d="M25.363 8.295A.958.958 0 0126.018 8h6.938a.958.958 0 01.688.295l4.58 4.614a.99.99 0 01.288.687v.246a.638.638 0 00-.63-.638H21.15a.647.647 0 00-.638.638v-.246a.958.958 0 01.294-.687l4.557-4.614z" fill="url(#paint5_linear_2481_7460)"/><path d="M38.512 19.593a.647.647 0 01-.63.638H29.25a.163.163 0 00-.156.155.132.132 0 00.05.107L33.7 25.05l4.549-4.533a.934.934 0 00.294-.687v-.237h-.031z" fill="url(#paint6_linear_2481_7460)"/><path d="M158.825 25.255c0-2.168-1.244-2.986-4.288-3.756-1.832-.45-2.307-.818-2.307-1.456s.581-1.055 1.775-1.055a8.388 8.388 0 013.756 1.03l.376-2.33a10.452 10.452 0 00-4.132-.82c-2.757 0-4.369 1.4-4.369 3.363 0 2.12 1.195 2.913 4.091 3.625 1.988.474 2.545.818 2.545 1.636s-.769 1.244-2.119 1.244a8.725 8.725 0 01-4.427-1.342l-.368 2.356a10.722 10.722 0 004.606 1.105c3.191 0 4.861-1.35 4.861-3.6zM148 28.618V17h-2.806v7.863a4.394 4.394 0 01-2.889 1.481c-1.137 0-1.636-.687-1.636-1.718V17h-2.806v8.362c0 2.144 1.186 3.445 3.461 3.445a5.978 5.978 0 004.025-1.858l.401 1.637 2.25.033zm-11.806 0V17h-2.782v11.62h2.782zm-1.383-16.675a1.634 1.634 0 11.006 3.268 1.634 1.634 0 01-.006-3.268zm-5.85 12.813a3.695 3.695 0 01-2.856 1.636c-1.407 0-2.454-1.088-2.454-3.363 0-2.544 1.219-3.788 2.863-3.788a5.442 5.442 0 012.455.5l-.008 5.015zm2.765 3.862v-17.23l-2.782.473v5.588a9.064 9.064 0 00-2.83-.45c-2.807 0-5.294 1.907-5.294 6.194 0 3.862 2.037 5.662 4.582 5.662a4.847 4.847 0 003.731-1.825l.237 1.588h2.356zm-14.85-3.175a4.499 4.499 0 01-2.962 1.301c-.957 0-1.562-.532-1.562-1.35 0-1.113.875-2.095 4.549-2.52v2.57h-.025zm2.782 3.175V20.73c0-2.724-1.481-3.837-4.557-3.837-1.61.004-3.205.318-4.697.925l.344 2.225a11.12 11.12 0 014.05-.924c1.326 0 2.119.474 2.119 1.718v.368c-4.909.483-7.306 1.636-7.306 4.45 0 1.99 1.383 3.175 3.444 3.175a5.646 5.646 0 004.05-1.718l.262 1.481h2.307l-.016.025zM109.12 28.2l-4.394-6.062a4.305 4.305 0 003.273-4.32c0-2.962-2.144-4.656-5.727-4.656h-4.91v15.456h2.889v-5.98h1.399l4.344 6.11 3.126-.548zm-3.976-10.219c0 1.637-1.22 2.455-3.183 2.455h-1.637v-4.91h1.8c1.98.042 3.02.917 3.02 2.455zM95.98 28.618l-.344-2.3c-.332.053-.669.08-1.006.082-1.137 0-1.587-.507-1.587-1.456v-5.67h2.937L95.505 17h-2.454v-4l-2.75.482v3.52h-1.88v2.25h1.881v6.12c0 2.593 1.53 3.387 3.837 3.387a7.368 7.368 0 001.841-.14zm-8.182-3.363c0-2.168-1.244-2.986-4.287-3.756-1.833-.45-2.307-.818-2.307-1.456s.58-1.055 1.775-1.055a8.388 8.388 0 013.755 1.03l.401-2.33a10.457 10.457 0 00-4.13-.82c-2.75 0-4.37 1.4-4.37 3.363 0 2.12 1.194 2.913 4.05 3.625 1.988.474 2.544.818 2.544 1.636s-.77 1.244-2.12 1.244a8.426 8.426 0 01-4.31-1.35l-.402 2.356a10.766 10.766 0 004.631 1.105c3.134.008 4.803-1.342 4.803-3.592h-.033zm-10.636 3.363V17h-2.807v7.863a4.378 4.378 0 01-2.888 1.481c-1.137 0-1.636-.687-1.636-1.718V17H67.09v8.362c0 2.144 1.195 3.445 3.47 3.445a6.013 6.013 0 004.024-1.858l.393 1.637 2.186.033zm-11.455-9l-.63-2.725a5.097 5.097 0 00-3.64 2.561L60.905 17h-2.087v11.62h2.725V22a5.442 5.442 0 014.18-2.406l-.016.025z" fill="url(#paint7_linear_2481_7460)"/><path d="M60.562 15.731l-.63-2.569H46.244v2.57h5.162v12.886h2.89V15.73h6.266v.001z" fill="url(#paint8_linear_2481_7460)"/></g><defs><linearGradient id="paint0_linear_2481_7460" x1="15.329" y1="35.201" x2="15.329" y2="8.039" gradientUnits="userSpaceOnUse"><stop offset=".71" stop-color="#116BF2"/><stop offset="1" stop-color="#1E50E5"/></linearGradient><linearGradient id="paint1_linear_2481_7460" x1="211.038" y1="-94015" x2="211.038" y2="-94900" gradientUnits="userSpaceOnUse"><stop offset=".71" stop-color="#116BF2"/><stop offset="1" stop-color="#1E50E5"/></linearGradient><linearGradient id="paint2_linear_2481_7460" x1="28.401" y1="22.922" x2="38.994" y2="33.522" gradientUnits="userSpaceOnUse"><stop offset=".41" stop-color="#116BF2"/><stop offset="1" stop-color="#185DEC"/></linearGradient><linearGradient id="paint3_linear_2481_7460" x1="29.572" y1="24.604" x2="29.572" y2="7.382" gradientUnits="userSpaceOnUse"><stop offset=".58" stop-color="#116BF2"/><stop offset="1" stop-color="#1E50E5"/></linearGradient><linearGradient id="paint4_linear_2481_7460" x1="12.201" y1="10.162" x2="9.649" y2="12.977" gradientUnits="userSpaceOnUse"><stop offset=".03" stop-color="#59C5FF"/><stop offset=".99" stop-color="#21B1FF"/></linearGradient><linearGradient id="paint5_linear_2481_7460" x1="24.848" y1="10.337" x2="27.817" y2="13.196" gradientUnits="userSpaceOnUse"><stop offset=".04" stop-color="#59C5FF"/><stop offset=".99" stop-color="#21B1FF"/></linearGradient><linearGradient id="paint6_linear_2481_7460" x1="36.306" y1="22.795" x2="33.744" y2="20.195" gradientUnits="userSpaceOnUse"><stop offset=".04" stop-color="#57C4FF"/><stop offset=".99" stop-color="#21B1FF"/></linearGradient><linearGradient id="paint7_linear_2481_7460" x1="31253" y1="-38727.9" x2="43476.8" y2="-38727.9" gradientUnits="userSpaceOnUse"><stop offset=".71" stop-color="#116BF2"/><stop offset="1" stop-color="#1E50E5"/></linearGradient><linearGradient id="paint8_linear_2481_7460" x1="1302.07" y1="-30026.6" x2="1552.64" y2="-30026.6" gradientUnits="userSpaceOnUse"><stop offset=".71" stop-color="#116BF2"/><stop offset="1" stop-color="#1E50E5"/></linearGradient><clipPath id="clip0_2481_7460"><path fill="#fff" d="M0 0h160v42H0z"/></clipPath></defs></svg>