<svg width="87" height="42" viewBox="0 0 87 42" fill="none" xmlns="http://www.w3.org/2000/svg"><path d="M86.425 17.613l-.25 2.992h-1.22c-1.95 0-2.965 1.563-2.965 3.062v6.756h-3.457v-12.81h3.274l.074 1.6c.687-1.097 1.89-1.6 3.372-1.6h1.172zM62.46 30.423H59V23.65c0-1.418-.123-3.203-2.117-3.203-1.92 0-2.687 1.386-2.687 3v6.974h-3.458V17.614h3.206l.074 1.638c.687-1.096 1.967-1.95 3.855-1.95 3.486 0 4.587 2.49 4.587 5.08v8.041zM49.23 27.43l-.243 2.915c-.83.222-1.566.302-2.457.302-3.26 0-4.206-1.495-4.206-4.5V14.002h3.46v3.613h3.442l-.239 2.99h-3.203v5.284c0 1.205.33 1.857 1.567 1.857.538 0 1.136-.066 1.878-.316zm-8.04-9.817l-.27 2.992h-.94c-1.946 0-2.914 1.561-2.914 3.062v6.756h-3.46v-12.81h3.276l.068 1.6c.69-1.097 1.893-1.6 3.377-1.6h.862zm-23.197 11.39c-2.346 1.256-4.69 1.98-7.786 1.89-5.74-.175-9.88-3.74-9.88-9.759 0-5.993 4.18-9.823 9.883-9.913 2.89-.044 5.477.69 7.498 2.474l-2.435 2.463c-1.25-1.066-3.092-1.69-5.29-1.59-3.59.167-5.752 2.775-5.8 6.36-.047 3.885 2.335 6.563 6.06 6.66 1.751.044 3.007-.19 4.093-.679v-3.97h-3.87l.26-3.258h7.267v9.322zm58.996-3.768h-9.485c.27 1.637 1.556 2.622 3.16 2.666 1.556.043 2.428-.428 3.567-1.582l2.258 1.722c-1.605 1.975-3.53 2.695-5.723 2.695-3.857 0-6.747-2.698-6.747-6.718 0-4.017 2.876-6.717 6.603-6.717 4.108 0 6.367 2.49 6.367 6.907v1.027zm-3.466-2.678c-.106-1.618-1.319-2.64-2.988-2.576-1.68.064-2.8 1.158-3.03 2.576h6.018zm-42.095-.522v8.387h-3.05L28.3 29.16c-.936 1.16-2.455 1.577-4.02 1.577-2.355 0-4.58-1.162-4.627-3.867-.07-4.252 4.785-4.554 7.835-4.554h.61v-.168c0-1.406-.93-2.166-2.683-2.166a5.05 5.05 0 00-3.417 1.365l-1.996-2.028c1.812-1.469 3.698-2.017 5.707-2.017 3.967 0 5.717 1.834 5.717 4.734h.001zm-3.329 2.802h-.48c-1.639.003-4.516.084-4.505 1.796.016 2.413 4.985 1.646 4.985-1.264v-.532z" fill="#182954"/></svg>