<svg width="132" height="42" viewBox="0 0 132 42" fill="none" xmlns="http://www.w3.org/2000/svg"><g clip-path="url(#clip0_2481_7509)"><path d="M.246 17.651H19.58v-7.24L.246 17.651z" fill="#FF9D28"/><path d="M19.58 10.41V36l9.14-29-9.14 3.41z" fill="#68C5ED"/><path d="M12.277 17.65l7.302 18.332V17.65h-7.302z" fill="#fff"/><path d="M.246 17.65l13.911 4.702-1.88-4.702H.247z" fill="#E54747"/><path d="M128.044 23.945h-.37a2.642 2.642 0 00-.369 0c-.439 0-.878.088-1.318.158-.405.056-.797.18-1.16.369-.32.172-.601.408-.826.694a1.758 1.758 0 00-.334 1.099c-.017.459.133.908.422 1.265a1.757 1.757 0 001.441.527c.333-.003.664-.053.984-.149.285-.077.558-.196.809-.352.203-.125.386-.279.545-.456a.798.798 0 00.193-.457l-.017-2.698zm3.409 3.084a5.805 5.805 0 00.615 3.058 4.02 4.02 0 01-.878.264 5.63 5.63 0 01-.879.088 2.4 2.4 0 01-1.45-.378c-.34-.26-.566-.64-.633-1.063a4.607 4.607 0 01-1.555 1.046 5.767 5.767 0 01-2.338.412 5.393 5.393 0 01-1.441-.193 3.617 3.617 0 01-1.31-.659 3.521 3.521 0 01-.966-1.204 4.25 4.25 0 01-.369-1.836 3.577 3.577 0 01.641-2.171 4.588 4.588 0 011.644-1.336 7.904 7.904 0 012.126-.676 20.3 20.3 0 012.092-.238c.213-.013.428-.013.641 0h.563v-.483a1.756 1.756 0 00-.545-1.459 2.866 2.866 0 00-1.758-.44 5.412 5.412 0 00-2.039.37c-.603.256-1.19.55-1.757.879a3.687 3.687 0 01-.589-1.002 2.26 2.26 0 01-.22-.809.958.958 0 01.413-.72 4.287 4.287 0 011.143-.642 9.742 9.742 0 011.661-.457c.65-.115 1.308-.174 1.968-.176a8.407 8.407 0 012.426.29c.601.16 1.156.461 1.617.88.418.426.72.952.878 1.528.187.7.276 1.421.264 2.145l.035 4.982zm-17.294-8.27a5.12 5.12 0 01.413-.526c.192-.207.415-.385.659-.528.28-.156.574-.286.879-.386.321-.113.66-.167 1.001-.159.22 0 .44 0 .686.044a2.9 2.9 0 01.65.202c.202.077.376.212.501.387a.995.995 0 01.202.615 3.55 3.55 0 01-.29 1.336 9.572 9.572 0 01-.589 1.292 4.317 4.317 0 00-.878-.571 2.636 2.636 0 00-1.072-.194c-.501-.02-.991.15-1.371.475a1.477 1.477 0 00-.572 1.16v8.638h-3.682V17.512c.106-.03.215-.045.325-.044h.879a3.16 3.16 0 011.485.325 1.588 1.588 0 01.765 1.028l.009-.062zm-10.3 0c.127-.183.265-.36.413-.526a2.92 2.92 0 01.659-.528c.28-.156.575-.286.879-.386a2.814 2.814 0 011.002-.159c.22 0 .439 0 .677.044.227.04.448.108.659.202.198.082.371.216.501.387a.995.995 0 01.202.615c-.01.46-.108.913-.29 1.336a9.572 9.572 0 01-.589 1.292 4.565 4.565 0 00-.879-.571 2.685 2.685 0 00-1.072-.194 2.03 2.03 0 00-1.38.475 1.5 1.5 0 00-.562 1.16v8.638h-3.629V17.512c.105-.03.215-.046.325-.044h.87a3.2 3.2 0 011.494.325 1.629 1.629 0 01.764 1.028l-.044-.062zm-9.578 3.692a3.832 3.832 0 00-.51-2.074 1.916 1.916 0 00-1.758-.809 2.194 2.194 0 00-1.757.765 3.102 3.102 0 00-.66 2.118h4.685zm-1.23 5.404c.4.008.8-.042 1.186-.15a5.55 5.55 0 00.878-.35c.248-.13.484-.283.703-.458l.528-.465c.25.325.476.669.676 1.028.2.309.32.662.352 1.028a1.353 1.353 0 01-.66 1.072 5.033 5.033 0 01-1.6.747 8.785 8.785 0 01-2.398.308 9.468 9.468 0 01-2.478-.334 5.406 5.406 0 01-3.69-3.252 8.482 8.482 0 01-.59-3.392 7.22 7.22 0 01.519-2.891 5.888 5.888 0 011.38-2.012 5.738 5.738 0 011.968-1.178 7.115 7.115 0 012.232-.37 6.337 6.337 0 012.54.458c.65.278 1.224.706 1.678 1.248.433.513.753 1.112.94 1.757.2.688.298 1.402.29 2.118v.378c.013.152.013.305 0 .457v.457c.014.117.014.235 0 .351h-7.9c.014.903.323 1.776.88 2.487a3.103 3.103 0 002.53.958h.036zm-16.25.352a4.582 4.582 0 01-.237-1.116 10.666 10.666 0 010-1.178V13.557c.132-.013.264-.013.396 0h.808c.295-.003.59.027.879.088.279.04.542.152.764.325.24.17.437.397.572.66.114.311.165.643.149.975v1.898h3.735v2.698H80.15v5.686c0 1.248.5 1.854 1.51 1.854.236-.003.47-.038.695-.105.203-.08.402-.168.598-.264.182-.09.35-.206.5-.343l.282-.237c.23.318.435.653.615 1.002.132.25.207.526.22.808a.958.958 0 01-.29.677c-.223.25-.487.457-.782.615-.384.216-.8.37-1.23.457-.516.12-1.044.18-1.574.176a4.587 4.587 0 01-2.574-.633 3.91 3.91 0 01-1.275-1.705l-.044.018zm-6.53-4.596a7.97 7.97 0 00-.131-1.485 4.066 4.066 0 00-.44-1.204 2.17 2.17 0 00-.834-.782 2.45 2.45 0 00-1.266-.29 2.32 2.32 0 00-1.555.421 1.3 1.3 0 00-.43.94v5.66c.22.213.48.383.764.501.39.204.826.303 1.265.29a2.144 2.144 0 001.986-1.072 5.785 5.785 0 00.642-2.979zm-4.815-4.921a5.129 5.129 0 011.3-1.029 4.569 4.569 0 012.277-.518 5.392 5.392 0 011.88.325c.6.232 1.138.599 1.574 1.072.502.57.874 1.241 1.09 1.969.31.97.457 1.986.43 3.005a10.288 10.288 0 01-.484 3.436 5.73 5.73 0 01-1.221 2.118 4.29 4.29 0 01-1.687 1.116 5.566 5.566 0 01-1.863.334 4.908 4.908 0 01-1.327-.176 4.798 4.798 0 01-.967-.395 3.106 3.106 0 01-.615-.413 1.668 1.668 0 01-.255-.29v6.573H61.95V17.53c.11-.012.223-.012.334 0 .105 0 .237 0 .369-.044h.5a3.515 3.515 0 011.512.28 1.415 1.415 0 01.765.985l.026-.061zM55.42 23.962h-.37a2.71 2.71 0 00-.377 0c-.44 0-.878.088-1.31.159a3.46 3.46 0 00-1.16.369c-.322.17-.607.407-.834.694a1.828 1.828 0 00-.325 1.098c-.016.458.13.906.413 1.266a1.758 1.758 0 001.45.527c.317-.013.63-.07.932-.167a2.81 2.81 0 00.808-.352c.206-.12.39-.275.545-.456a.817.817 0 00.202-.457l.026-2.681zm3.428 3.067a5.712 5.712 0 00.615 3.058c-.282.12-.577.209-.88.264-.29.052-.583.081-.878.088a2.374 2.374 0 01-1.494-.378 1.67 1.67 0 01-.632-1.063 4.621 4.621 0 01-1.556 1.046 5.8 5.8 0 01-2.337.412 5.375 5.375 0 01-1.442-.193 3.72 3.72 0 01-1.318-.659 3.516 3.516 0 01-.958-1.204 4.15 4.15 0 01-.378-1.836 3.52 3.52 0 01.65-2.171c.437-.567 1-1.025 1.644-1.336a7.75 7.75 0 012.118-.676 20.45 20.45 0 012.1-.238c.21-.013.422-.013.633 0h.598v-.483a1.757 1.757 0 00-.545-1.459 2.908 2.908 0 00-1.758-.44 5.394 5.394 0 00-2.03.37c-.605.253-1.192.546-1.757.879a3.52 3.52 0 01-.598-1.002 2.47 2.47 0 01-.255-.888.95.95 0 01.422-.72 4.09 4.09 0 011.134-.642 9.928 9.928 0 011.66-.457c.65-.115 1.31-.173 1.97-.176a8.33 8.33 0 012.425.29 3.98 3.98 0 011.625.88c.418.426.72.952.88 1.528.186.7.274 1.42.263 2.144l.079 5.062zm-13.692 2.03a3.35 3.35 0 01-.527.396c-.304.19-.625.35-.958.483-.476.18-.967.318-1.468.413-.65.119-1.308.178-1.968.176a9.784 9.784 0 01-3.717-.677 6.954 6.954 0 01-2.584-1.942 7.913 7.913 0 01-1.45-2.891 13.283 13.283 0 01-.483-3.7 12.54 12.54 0 01.527-3.717 8.324 8.324 0 011.556-2.953 7.032 7.032 0 012.583-1.95 8.937 8.937 0 013.647-.695 9.323 9.323 0 011.837.176c.496.109.983.253 1.459.43.359.141.703.318 1.028.528.219.136.425.292.615.465.17.136.312.307.413.501.114.192.175.41.176.633-.015.382-.154.75-.396 1.046a6.67 6.67 0 01-.878.984c-.22-.22-.457-.43-.721-.65a5.477 5.477 0 00-.88-.598 6.154 6.154 0 00-1.115-.413 5.621 5.621 0 00-1.397-.176 4.19 4.19 0 00-3.744 1.969 6.08 6.08 0 00-.79 1.995 11.537 11.537 0 00-.238 2.293c0 .8.08 1.598.237 2.382.157.722.456 1.406.879 2.012a4.272 4.272 0 001.468 1.45 4.816 4.816 0 002.337.519c.46.004.918-.056 1.362-.176.37-.13.727-.298 1.064-.5.306-.16.6-.342.878-.546l.59-.5c.105.131.219.28.368.456.15.169.282.351.396.545.132.202.22.396.325.589.056.158.083.325.079.492a1.24 1.24 0 01-.132.589c-.118.19-.257.367-.413.527l.035.035z" fill="#fff"/></g><defs><clipPath id="clip0_2481_7509"><path fill="#fff" d="M0 0h132v42H0z"/></clipPath></defs></svg>