<svg width="138" height="42" viewBox="0 0 138 42" fill="none" xmlns="http://www.w3.org/2000/svg"><path d="M36.145 15.97H50.07v2.6h-5.475v14.604h-3.011V18.57h-5.451v-2.6h.012zm13.33 4.748h2.574v2.404h.049c.085-.34.242-.668.473-.984.23-.316.51-.619.838-.874.332-.265.7-.482 1.093-.643.4-.158.813-.243 1.226-.243.315 0 .546.012.667.024.122.012.243.036.377.05v2.645a8.826 8.826 0 00-.595-.085 5.056 5.056 0 00-.595-.036c-.461 0-.898.097-1.311.28a3.021 3.021 0 00-1.07.813c-.322.396-.57.849-.727 1.335-.182.534-.267 1.141-.267 1.833v5.925h-2.744V20.718h.012zm19.91 12.456H66.69v-1.736h-.05c-.34.631-.837 1.13-1.504 1.505-.668.377-1.348.57-2.04.57-1.64 0-2.83-.4-3.557-1.213-.73-.814-1.093-2.04-1.093-3.679v-7.903h2.744v7.636c0 1.093.206 1.87.63 2.32.414.45 1.009.68 1.76.68.584 0 1.058-.086 1.446-.268.389-.182.705-.413.935-.717.243-.29.413-.655.522-1.068.11-.413.158-.862.158-1.348V20.73h2.744l-.001 12.444zm4.675-3.994c.085.8.388 1.36.91 1.687.535.316 1.166.486 1.907.486.255 0 .546-.025.874-.06.328-.037.643-.122.922-.232.292-.109.522-.279.717-.497.182-.219.267-.498.255-.85a1.173 1.173 0 00-.39-.862c-.242-.23-.545-.4-.921-.547a9.274 9.274 0 00-1.287-.352c-.486-.097-.972-.206-1.47-.315-.51-.11-1.007-.255-1.48-.413a4.517 4.517 0 01-1.275-.656 2.882 2.882 0 01-.9-1.044c-.23-.425-.34-.947-.34-1.578 0-.68.17-1.238.499-1.7a3.775 3.775 0 011.25-1.104 5.799 5.799 0 011.688-.595c.62-.11 1.214-.17 1.773-.17.643 0 1.262.073 1.845.206.566.124 1.105.35 1.59.668.474.303.862.704 1.178 1.19.316.485.51 1.08.595 1.772h-2.865c-.134-.655-.425-1.105-.9-1.323-.472-.23-1.02-.34-1.626-.34-.194 0-.424.012-.691.05a3.68 3.68 0 00-.753.181c-.23.085-.425.218-.595.388a.94.94 0 00-.243.668c0 .34.12.607.352.813.23.207.534.377.91.522a9.21 9.21 0 001.288.352c.485.098.983.207 1.493.316.498.11.983.255 1.469.413.486.158.91.376 1.287.655.376.28.68.62.91 1.032.23.413.352.935.352 1.542 0 .74-.17 1.36-.51 1.882-.34.51-.776.935-1.31 1.25a6.162 6.162 0 01-1.797.705 9.01 9.01 0 01-1.955.218c-.79 0-1.518-.085-2.185-.267a5.375 5.375 0 01-1.737-.8 3.977 3.977 0 01-1.153-1.349c-.28-.534-.425-1.177-.45-1.918h2.769v-.024zm9.057-8.462h2.076v-3.74h2.744v3.74h2.476v2.051h-2.476v6.654c0 .29.012.534.036.752.024.207.085.39.17.534a.78.78 0 00.4.328c.183.073.413.11.73.11.193 0 .388 0 .582-.013a3.18 3.18 0 00.583-.085v2.125c-.304.036-.607.06-.887.097a7.09 7.09 0 01-.886.05c-.728 0-1.311-.074-1.748-.208-.437-.133-.79-.34-1.032-.607-.255-.267-.413-.595-.51-.995a7.49 7.49 0 01-.158-1.372v-7.345H83.14v-2.076h-.024zm9.239 0h2.598v1.687h.049c.388-.728.922-1.238 1.614-1.554a5.323 5.323 0 012.246-.473c.984 0 1.833.17 2.562.522.728.34 1.335.813 1.821 1.42s.838 1.311 1.08 2.113c.243.801.365 1.663.365 2.573 0 .838-.11 1.652-.328 2.43a6.525 6.525 0 01-.983 2.087 4.84 4.84 0 01-1.676 1.445c-.68.364-1.469.546-2.392.546-.4 0-.8-.037-1.201-.11a5.232 5.232 0 01-1.154-.352 4.16 4.16 0 01-1.02-.619 3.846 3.846 0 01-.79-.874H95.1v6.216h-2.744V20.718zm9.591 6.24a6.19 6.19 0 00-.219-1.639 4.423 4.423 0 00-.655-1.408 3.347 3.347 0 00-1.08-.984 3.03 3.03 0 00-1.494-.376c-1.153 0-2.027.4-2.61 1.202-.583.801-.874 1.87-.874 3.205 0 .631.073 1.214.23 1.748.158.534.377.996.692 1.384.304.39.668.692 1.093.91.425.231.923.34 1.48.34.632 0 1.155-.133 1.592-.388.424-.25.789-.589 1.068-.995.279-.413.486-.875.607-1.396.109-.523.17-1.057.17-1.603zm4.844-10.987h2.744v2.598h-2.744v-2.598zm0 4.747h2.744v12.456h-2.744V20.718zm5.196-4.747h2.744v17.203h-2.744V15.971zm11.157 17.543c-.995 0-1.881-.17-2.658-.498a5.86 5.86 0 01-1.979-1.36 5.918 5.918 0 01-1.227-2.076 8.014 8.014 0 01-.424-2.646c0-.947.145-1.82.424-2.623a5.919 5.919 0 011.227-2.076c.534-.582 1.202-1.032 1.979-1.36.777-.327 1.663-.497 2.658-.497.996 0 1.882.17 2.659.497a5.88 5.88 0 011.979 1.36 5.91 5.91 0 011.226 2.076c.279.802.425 1.676.425 2.623.008.9-.136 1.794-.425 2.646a5.916 5.916 0 01-1.226 2.076c-.534.583-1.202 1.032-1.979 1.36-.777.328-1.663.498-2.659.498zm0-2.173c.607 0 1.142-.134 1.591-.389.439-.25.816-.594 1.105-1.008.291-.412.497-.886.643-1.408a6.414 6.414 0 00.206-1.602 6.46 6.46 0 00-.206-1.59 4.194 4.194 0 00-.643-1.41c-.29-.41-.667-.75-1.105-.995-.449-.255-.984-.388-1.591-.388s-1.141.133-1.59.388a3.485 3.485 0 00-1.105.996 4.386 4.386 0 00-.643 1.408 6.463 6.463 0 00-.207 1.59c0 .547.073 1.081.207 1.603.133.522.352.996.643 1.41a3.4 3.4 0 001.105 1.006c.449.267.983.39 1.59.39zm7.09-10.623h2.077v-3.74h2.743v3.74h2.477v2.051h-2.477v6.654c0 .29.012.534.037.752.024.207.085.39.17.534a.777.777 0 00.4.328c.182.073.413.11.729.11.194 0 .388 0 .582-.013.195-.012.389-.036.583-.085v2.125c-.303.036-.607.06-.886.097-.294.035-.59.051-.886.05-.729 0-1.311-.074-1.749-.208-.437-.133-.789-.34-1.031-.607-.255-.267-.413-.595-.51-.995a7.448 7.448 0 01-.158-1.372v-7.345h-2.076v-2.076h-.025z" fill="#fff"/><path d="M32.937 15.97H20.36L16.475 4l-3.897 11.97L0 15.96l10.186 7.405-3.897 11.959 10.186-7.394 10.174 7.394-3.885-11.959 10.173-7.393v-.002z" fill="#00B67A"/><path d="M23.64 26.072l-.875-2.708-6.288 4.565 7.163-1.857z" fill="#005128"/></svg>